%TF.GenerationSoftware,KiCad,Pcbnew,7.0.8*%
%TF.CreationDate,2025-03-05T08:55:57-05:00*%
%TF.ProjectId,cartridgeholder,63617274-7269-4646-9765-686f6c646572,rev?*%
%TF.SameCoordinates,Original*%
%TF.FileFunction,Legend,Top*%
%TF.FilePolarity,Positive*%
%FSLAX46Y46*%
G04 Gerber Fmt 4.6, Leading zero omitted, Abs format (unit mm)*
G04 Created by KiCad (PCBNEW 7.0.8) date 2025-03-05 08:55:57*
%MOMM*%
%LPD*%
G01*
G04 APERTURE LIST*
%ADD10C,0.150000*%
%ADD11C,0.120000*%
%ADD12C,0.203200*%
%ADD13C,0.254000*%
G04 APERTURE END LIST*
D10*
X119223826Y-132091691D02*
X119731826Y-133615691D01*
X119731826Y-133615691D02*
X120239826Y-132091691D01*
X120747827Y-133615691D02*
X120747827Y-132599691D01*
X120747827Y-132091691D02*
X120675255Y-132164262D01*
X120675255Y-132164262D02*
X120747827Y-132236834D01*
X120747827Y-132236834D02*
X120820398Y-132164262D01*
X120820398Y-132164262D02*
X120747827Y-132091691D01*
X120747827Y-132091691D02*
X120747827Y-132236834D01*
X121473541Y-133615691D02*
X121473541Y-132599691D01*
X121473541Y-132889977D02*
X121546112Y-132744834D01*
X121546112Y-132744834D02*
X121618684Y-132672262D01*
X121618684Y-132672262D02*
X121763826Y-132599691D01*
X121763826Y-132599691D02*
X121908969Y-132599691D01*
X122199255Y-132599691D02*
X122779827Y-132599691D01*
X122416970Y-132091691D02*
X122416970Y-133397977D01*
X122416970Y-133397977D02*
X122489541Y-133543120D01*
X122489541Y-133543120D02*
X122634684Y-133615691D01*
X122634684Y-133615691D02*
X122779827Y-133615691D01*
X123940970Y-132599691D02*
X123940970Y-133615691D01*
X123287827Y-132599691D02*
X123287827Y-133397977D01*
X123287827Y-133397977D02*
X123360398Y-133543120D01*
X123360398Y-133543120D02*
X123505541Y-133615691D01*
X123505541Y-133615691D02*
X123723255Y-133615691D01*
X123723255Y-133615691D02*
X123868398Y-133543120D01*
X123868398Y-133543120D02*
X123940970Y-133470548D01*
X125319827Y-133615691D02*
X125319827Y-132817405D01*
X125319827Y-132817405D02*
X125247255Y-132672262D01*
X125247255Y-132672262D02*
X125102112Y-132599691D01*
X125102112Y-132599691D02*
X124811827Y-132599691D01*
X124811827Y-132599691D02*
X124666684Y-132672262D01*
X125319827Y-133543120D02*
X125174684Y-133615691D01*
X125174684Y-133615691D02*
X124811827Y-133615691D01*
X124811827Y-133615691D02*
X124666684Y-133543120D01*
X124666684Y-133543120D02*
X124594112Y-133397977D01*
X124594112Y-133397977D02*
X124594112Y-133252834D01*
X124594112Y-133252834D02*
X124666684Y-133107691D01*
X124666684Y-133107691D02*
X124811827Y-133035120D01*
X124811827Y-133035120D02*
X125174684Y-133035120D01*
X125174684Y-133035120D02*
X125319827Y-132962548D01*
X126263255Y-133615691D02*
X126118112Y-133543120D01*
X126118112Y-133543120D02*
X126045541Y-133397977D01*
X126045541Y-133397977D02*
X126045541Y-132091691D01*
X127932398Y-132236834D02*
X128004970Y-132164262D01*
X128004970Y-132164262D02*
X128150113Y-132091691D01*
X128150113Y-132091691D02*
X128512970Y-132091691D01*
X128512970Y-132091691D02*
X128658113Y-132164262D01*
X128658113Y-132164262D02*
X128730684Y-132236834D01*
X128730684Y-132236834D02*
X128803255Y-132381977D01*
X128803255Y-132381977D02*
X128803255Y-132527120D01*
X128803255Y-132527120D02*
X128730684Y-132744834D01*
X128730684Y-132744834D02*
X127859827Y-133615691D01*
X127859827Y-133615691D02*
X128803255Y-133615691D01*
X129311256Y-132091691D02*
X130254684Y-132091691D01*
X130254684Y-132091691D02*
X129746684Y-132672262D01*
X129746684Y-132672262D02*
X129964399Y-132672262D01*
X129964399Y-132672262D02*
X130109542Y-132744834D01*
X130109542Y-132744834D02*
X130182113Y-132817405D01*
X130182113Y-132817405D02*
X130254684Y-132962548D01*
X130254684Y-132962548D02*
X130254684Y-133325405D01*
X130254684Y-133325405D02*
X130182113Y-133470548D01*
X130182113Y-133470548D02*
X130109542Y-133543120D01*
X130109542Y-133543120D02*
X129964399Y-133615691D01*
X129964399Y-133615691D02*
X129528970Y-133615691D01*
X129528970Y-133615691D02*
X129383827Y-133543120D01*
X129383827Y-133543120D02*
X129311256Y-133470548D01*
X131706113Y-133615691D02*
X130835256Y-133615691D01*
X131270685Y-133615691D02*
X131270685Y-132091691D01*
X131270685Y-132091691D02*
X131125542Y-132309405D01*
X131125542Y-132309405D02*
X130980399Y-132454548D01*
X130980399Y-132454548D02*
X130835256Y-132527120D01*
X133084971Y-132091691D02*
X132359257Y-132091691D01*
X132359257Y-132091691D02*
X132286685Y-132817405D01*
X132286685Y-132817405D02*
X132359257Y-132744834D01*
X132359257Y-132744834D02*
X132504400Y-132672262D01*
X132504400Y-132672262D02*
X132867257Y-132672262D01*
X132867257Y-132672262D02*
X133012400Y-132744834D01*
X133012400Y-132744834D02*
X133084971Y-132817405D01*
X133084971Y-132817405D02*
X133157542Y-132962548D01*
X133157542Y-132962548D02*
X133157542Y-133325405D01*
X133157542Y-133325405D02*
X133084971Y-133470548D01*
X133084971Y-133470548D02*
X133012400Y-133543120D01*
X133012400Y-133543120D02*
X132867257Y-133615691D01*
X132867257Y-133615691D02*
X132504400Y-133615691D01*
X132504400Y-133615691D02*
X132359257Y-133543120D01*
X132359257Y-133543120D02*
X132286685Y-133470548D01*
X135842686Y-133470548D02*
X135770114Y-133543120D01*
X135770114Y-133543120D02*
X135552400Y-133615691D01*
X135552400Y-133615691D02*
X135407257Y-133615691D01*
X135407257Y-133615691D02*
X135189543Y-133543120D01*
X135189543Y-133543120D02*
X135044400Y-133397977D01*
X135044400Y-133397977D02*
X134971829Y-133252834D01*
X134971829Y-133252834D02*
X134899257Y-132962548D01*
X134899257Y-132962548D02*
X134899257Y-132744834D01*
X134899257Y-132744834D02*
X134971829Y-132454548D01*
X134971829Y-132454548D02*
X135044400Y-132309405D01*
X135044400Y-132309405D02*
X135189543Y-132164262D01*
X135189543Y-132164262D02*
X135407257Y-132091691D01*
X135407257Y-132091691D02*
X135552400Y-132091691D01*
X135552400Y-132091691D02*
X135770114Y-132164262D01*
X135770114Y-132164262D02*
X135842686Y-132236834D01*
X137148972Y-133615691D02*
X137148972Y-132817405D01*
X137148972Y-132817405D02*
X137076400Y-132672262D01*
X137076400Y-132672262D02*
X136931257Y-132599691D01*
X136931257Y-132599691D02*
X136640972Y-132599691D01*
X136640972Y-132599691D02*
X136495829Y-132672262D01*
X137148972Y-133543120D02*
X137003829Y-133615691D01*
X137003829Y-133615691D02*
X136640972Y-133615691D01*
X136640972Y-133615691D02*
X136495829Y-133543120D01*
X136495829Y-133543120D02*
X136423257Y-133397977D01*
X136423257Y-133397977D02*
X136423257Y-133252834D01*
X136423257Y-133252834D02*
X136495829Y-133107691D01*
X136495829Y-133107691D02*
X136640972Y-133035120D01*
X136640972Y-133035120D02*
X137003829Y-133035120D01*
X137003829Y-133035120D02*
X137148972Y-132962548D01*
X137874686Y-133615691D02*
X137874686Y-132599691D01*
X137874686Y-132889977D02*
X137947257Y-132744834D01*
X137947257Y-132744834D02*
X138019829Y-132672262D01*
X138019829Y-132672262D02*
X138164971Y-132599691D01*
X138164971Y-132599691D02*
X138310114Y-132599691D01*
X138600400Y-132599691D02*
X139180972Y-132599691D01*
X138818115Y-132091691D02*
X138818115Y-133397977D01*
X138818115Y-133397977D02*
X138890686Y-133543120D01*
X138890686Y-133543120D02*
X139035829Y-133615691D01*
X139035829Y-133615691D02*
X139180972Y-133615691D01*
X139688972Y-133615691D02*
X139688972Y-132599691D01*
X139688972Y-132889977D02*
X139761543Y-132744834D01*
X139761543Y-132744834D02*
X139834115Y-132672262D01*
X139834115Y-132672262D02*
X139979257Y-132599691D01*
X139979257Y-132599691D02*
X140124400Y-132599691D01*
X140632401Y-133615691D02*
X140632401Y-132599691D01*
X140632401Y-132091691D02*
X140559829Y-132164262D01*
X140559829Y-132164262D02*
X140632401Y-132236834D01*
X140632401Y-132236834D02*
X140704972Y-132164262D01*
X140704972Y-132164262D02*
X140632401Y-132091691D01*
X140632401Y-132091691D02*
X140632401Y-132236834D01*
X142011258Y-133615691D02*
X142011258Y-132091691D01*
X142011258Y-133543120D02*
X141866115Y-133615691D01*
X141866115Y-133615691D02*
X141575829Y-133615691D01*
X141575829Y-133615691D02*
X141430686Y-133543120D01*
X141430686Y-133543120D02*
X141358115Y-133470548D01*
X141358115Y-133470548D02*
X141285543Y-133325405D01*
X141285543Y-133325405D02*
X141285543Y-132889977D01*
X141285543Y-132889977D02*
X141358115Y-132744834D01*
X141358115Y-132744834D02*
X141430686Y-132672262D01*
X141430686Y-132672262D02*
X141575829Y-132599691D01*
X141575829Y-132599691D02*
X141866115Y-132599691D01*
X141866115Y-132599691D02*
X142011258Y-132672262D01*
X143390115Y-132599691D02*
X143390115Y-133833405D01*
X143390115Y-133833405D02*
X143317543Y-133978548D01*
X143317543Y-133978548D02*
X143244972Y-134051120D01*
X143244972Y-134051120D02*
X143099829Y-134123691D01*
X143099829Y-134123691D02*
X142882115Y-134123691D01*
X142882115Y-134123691D02*
X142736972Y-134051120D01*
X143390115Y-133543120D02*
X143244972Y-133615691D01*
X143244972Y-133615691D02*
X142954686Y-133615691D01*
X142954686Y-133615691D02*
X142809543Y-133543120D01*
X142809543Y-133543120D02*
X142736972Y-133470548D01*
X142736972Y-133470548D02*
X142664400Y-133325405D01*
X142664400Y-133325405D02*
X142664400Y-132889977D01*
X142664400Y-132889977D02*
X142736972Y-132744834D01*
X142736972Y-132744834D02*
X142809543Y-132672262D01*
X142809543Y-132672262D02*
X142954686Y-132599691D01*
X142954686Y-132599691D02*
X143244972Y-132599691D01*
X143244972Y-132599691D02*
X143390115Y-132672262D01*
X144696400Y-133543120D02*
X144551257Y-133615691D01*
X144551257Y-133615691D02*
X144260972Y-133615691D01*
X144260972Y-133615691D02*
X144115829Y-133543120D01*
X144115829Y-133543120D02*
X144043257Y-133397977D01*
X144043257Y-133397977D02*
X144043257Y-132817405D01*
X144043257Y-132817405D02*
X144115829Y-132672262D01*
X144115829Y-132672262D02*
X144260972Y-132599691D01*
X144260972Y-132599691D02*
X144551257Y-132599691D01*
X144551257Y-132599691D02*
X144696400Y-132672262D01*
X144696400Y-132672262D02*
X144768972Y-132817405D01*
X144768972Y-132817405D02*
X144768972Y-132962548D01*
X144768972Y-132962548D02*
X144043257Y-133107691D01*
X147091258Y-132817405D02*
X146583258Y-132817405D01*
X146583258Y-133615691D02*
X146583258Y-132091691D01*
X146583258Y-132091691D02*
X147308972Y-132091691D01*
X148542687Y-133615691D02*
X148542687Y-132817405D01*
X148542687Y-132817405D02*
X148470115Y-132672262D01*
X148470115Y-132672262D02*
X148324972Y-132599691D01*
X148324972Y-132599691D02*
X148034687Y-132599691D01*
X148034687Y-132599691D02*
X147889544Y-132672262D01*
X148542687Y-133543120D02*
X148397544Y-133615691D01*
X148397544Y-133615691D02*
X148034687Y-133615691D01*
X148034687Y-133615691D02*
X147889544Y-133543120D01*
X147889544Y-133543120D02*
X147816972Y-133397977D01*
X147816972Y-133397977D02*
X147816972Y-133252834D01*
X147816972Y-133252834D02*
X147889544Y-133107691D01*
X147889544Y-133107691D02*
X148034687Y-133035120D01*
X148034687Y-133035120D02*
X148397544Y-133035120D01*
X148397544Y-133035120D02*
X148542687Y-132962548D01*
X149921544Y-133543120D02*
X149776401Y-133615691D01*
X149776401Y-133615691D02*
X149486115Y-133615691D01*
X149486115Y-133615691D02*
X149340972Y-133543120D01*
X149340972Y-133543120D02*
X149268401Y-133470548D01*
X149268401Y-133470548D02*
X149195829Y-133325405D01*
X149195829Y-133325405D02*
X149195829Y-132889977D01*
X149195829Y-132889977D02*
X149268401Y-132744834D01*
X149268401Y-132744834D02*
X149340972Y-132672262D01*
X149340972Y-132672262D02*
X149486115Y-132599691D01*
X149486115Y-132599691D02*
X149776401Y-132599691D01*
X149776401Y-132599691D02*
X149921544Y-132672262D01*
X150574687Y-133615691D02*
X150574687Y-132599691D01*
X150574687Y-132091691D02*
X150502115Y-132164262D01*
X150502115Y-132164262D02*
X150574687Y-132236834D01*
X150574687Y-132236834D02*
X150647258Y-132164262D01*
X150647258Y-132164262D02*
X150574687Y-132091691D01*
X150574687Y-132091691D02*
X150574687Y-132236834D01*
X151518115Y-133615691D02*
X151372972Y-133543120D01*
X151372972Y-133543120D02*
X151300401Y-133397977D01*
X151300401Y-133397977D02*
X151300401Y-132091691D01*
X152098687Y-133615691D02*
X152098687Y-132599691D01*
X152098687Y-132091691D02*
X152026115Y-132164262D01*
X152026115Y-132164262D02*
X152098687Y-132236834D01*
X152098687Y-132236834D02*
X152171258Y-132164262D01*
X152171258Y-132164262D02*
X152098687Y-132091691D01*
X152098687Y-132091691D02*
X152098687Y-132236834D01*
X152606686Y-132599691D02*
X153187258Y-132599691D01*
X152824401Y-132091691D02*
X152824401Y-133397977D01*
X152824401Y-133397977D02*
X152896972Y-133543120D01*
X152896972Y-133543120D02*
X153042115Y-133615691D01*
X153042115Y-133615691D02*
X153187258Y-133615691D01*
X153550115Y-132599691D02*
X153912972Y-133615691D01*
X154275829Y-132599691D02*
X153912972Y-133615691D01*
X153912972Y-133615691D02*
X153767829Y-133978548D01*
X153767829Y-133978548D02*
X153695258Y-134051120D01*
X153695258Y-134051120D02*
X153550115Y-134123691D01*
X132188207Y-140914580D02*
X132140588Y-140962200D01*
X132140588Y-140962200D02*
X131997731Y-141009819D01*
X131997731Y-141009819D02*
X131902493Y-141009819D01*
X131902493Y-141009819D02*
X131759636Y-140962200D01*
X131759636Y-140962200D02*
X131664398Y-140866961D01*
X131664398Y-140866961D02*
X131616779Y-140771723D01*
X131616779Y-140771723D02*
X131569160Y-140581247D01*
X131569160Y-140581247D02*
X131569160Y-140438390D01*
X131569160Y-140438390D02*
X131616779Y-140247914D01*
X131616779Y-140247914D02*
X131664398Y-140152676D01*
X131664398Y-140152676D02*
X131759636Y-140057438D01*
X131759636Y-140057438D02*
X131902493Y-140009819D01*
X131902493Y-140009819D02*
X131997731Y-140009819D01*
X131997731Y-140009819D02*
X132140588Y-140057438D01*
X132140588Y-140057438D02*
X132188207Y-140105057D01*
X133045350Y-141009819D02*
X133045350Y-140486009D01*
X133045350Y-140486009D02*
X132997731Y-140390771D01*
X132997731Y-140390771D02*
X132902493Y-140343152D01*
X132902493Y-140343152D02*
X132712017Y-140343152D01*
X132712017Y-140343152D02*
X132616779Y-140390771D01*
X133045350Y-140962200D02*
X132950112Y-141009819D01*
X132950112Y-141009819D02*
X132712017Y-141009819D01*
X132712017Y-141009819D02*
X132616779Y-140962200D01*
X132616779Y-140962200D02*
X132569160Y-140866961D01*
X132569160Y-140866961D02*
X132569160Y-140771723D01*
X132569160Y-140771723D02*
X132616779Y-140676485D01*
X132616779Y-140676485D02*
X132712017Y-140628866D01*
X132712017Y-140628866D02*
X132950112Y-140628866D01*
X132950112Y-140628866D02*
X133045350Y-140581247D01*
X133521541Y-141009819D02*
X133521541Y-140343152D01*
X133521541Y-140533628D02*
X133569160Y-140438390D01*
X133569160Y-140438390D02*
X133616779Y-140390771D01*
X133616779Y-140390771D02*
X133712017Y-140343152D01*
X133712017Y-140343152D02*
X133807255Y-140343152D01*
X134283446Y-141009819D02*
X134188208Y-140962200D01*
X134188208Y-140962200D02*
X134140589Y-140866961D01*
X134140589Y-140866961D02*
X134140589Y-140009819D01*
X135997732Y-140914580D02*
X135950113Y-140962200D01*
X135950113Y-140962200D02*
X135807256Y-141009819D01*
X135807256Y-141009819D02*
X135712018Y-141009819D01*
X135712018Y-141009819D02*
X135569161Y-140962200D01*
X135569161Y-140962200D02*
X135473923Y-140866961D01*
X135473923Y-140866961D02*
X135426304Y-140771723D01*
X135426304Y-140771723D02*
X135378685Y-140581247D01*
X135378685Y-140581247D02*
X135378685Y-140438390D01*
X135378685Y-140438390D02*
X135426304Y-140247914D01*
X135426304Y-140247914D02*
X135473923Y-140152676D01*
X135473923Y-140152676D02*
X135569161Y-140057438D01*
X135569161Y-140057438D02*
X135712018Y-140009819D01*
X135712018Y-140009819D02*
X135807256Y-140009819D01*
X135807256Y-140009819D02*
X135950113Y-140057438D01*
X135950113Y-140057438D02*
X135997732Y-140105057D01*
X136569161Y-141009819D02*
X136473923Y-140962200D01*
X136473923Y-140962200D02*
X136426304Y-140866961D01*
X136426304Y-140866961D02*
X136426304Y-140009819D01*
X137378685Y-141009819D02*
X137378685Y-140486009D01*
X137378685Y-140486009D02*
X137331066Y-140390771D01*
X137331066Y-140390771D02*
X137235828Y-140343152D01*
X137235828Y-140343152D02*
X137045352Y-140343152D01*
X137045352Y-140343152D02*
X136950114Y-140390771D01*
X137378685Y-140962200D02*
X137283447Y-141009819D01*
X137283447Y-141009819D02*
X137045352Y-141009819D01*
X137045352Y-141009819D02*
X136950114Y-140962200D01*
X136950114Y-140962200D02*
X136902495Y-140866961D01*
X136902495Y-140866961D02*
X136902495Y-140771723D01*
X136902495Y-140771723D02*
X136950114Y-140676485D01*
X136950114Y-140676485D02*
X137045352Y-140628866D01*
X137045352Y-140628866D02*
X137283447Y-140628866D01*
X137283447Y-140628866D02*
X137378685Y-140581247D01*
X138283447Y-140343152D02*
X138283447Y-141009819D01*
X137854876Y-140343152D02*
X137854876Y-140866961D01*
X137854876Y-140866961D02*
X137902495Y-140962200D01*
X137902495Y-140962200D02*
X137997733Y-141009819D01*
X137997733Y-141009819D02*
X138140590Y-141009819D01*
X138140590Y-141009819D02*
X138235828Y-140962200D01*
X138235828Y-140962200D02*
X138283447Y-140914580D01*
X138759638Y-140343152D02*
X138759638Y-141009819D01*
X138759638Y-140438390D02*
X138807257Y-140390771D01*
X138807257Y-140390771D02*
X138902495Y-140343152D01*
X138902495Y-140343152D02*
X139045352Y-140343152D01*
X139045352Y-140343152D02*
X139140590Y-140390771D01*
X139140590Y-140390771D02*
X139188209Y-140486009D01*
X139188209Y-140486009D02*
X139188209Y-141009819D01*
X140092971Y-140962200D02*
X139997733Y-141009819D01*
X139997733Y-141009819D02*
X139807257Y-141009819D01*
X139807257Y-141009819D02*
X139712019Y-140962200D01*
X139712019Y-140962200D02*
X139664400Y-140914580D01*
X139664400Y-140914580D02*
X139616781Y-140819342D01*
X139616781Y-140819342D02*
X139616781Y-140533628D01*
X139616781Y-140533628D02*
X139664400Y-140438390D01*
X139664400Y-140438390D02*
X139712019Y-140390771D01*
X139712019Y-140390771D02*
X139807257Y-140343152D01*
X139807257Y-140343152D02*
X139997733Y-140343152D01*
X139997733Y-140343152D02*
X140092971Y-140390771D01*
X140521543Y-141009819D02*
X140521543Y-140009819D01*
X140950114Y-141009819D02*
X140950114Y-140486009D01*
X140950114Y-140486009D02*
X140902495Y-140390771D01*
X140902495Y-140390771D02*
X140807257Y-140343152D01*
X140807257Y-140343152D02*
X140664400Y-140343152D01*
X140664400Y-140343152D02*
X140569162Y-140390771D01*
X140569162Y-140390771D02*
X140521543Y-140438390D01*
X144674819Y-103209166D02*
X144198628Y-103542499D01*
X144674819Y-103780594D02*
X143674819Y-103780594D01*
X143674819Y-103780594D02*
X143674819Y-103399642D01*
X143674819Y-103399642D02*
X143722438Y-103304404D01*
X143722438Y-103304404D02*
X143770057Y-103256785D01*
X143770057Y-103256785D02*
X143865295Y-103209166D01*
X143865295Y-103209166D02*
X144008152Y-103209166D01*
X144008152Y-103209166D02*
X144103390Y-103256785D01*
X144103390Y-103256785D02*
X144151009Y-103304404D01*
X144151009Y-103304404D02*
X144198628Y-103399642D01*
X144198628Y-103399642D02*
X144198628Y-103780594D01*
X144674819Y-102256785D02*
X144674819Y-102828213D01*
X144674819Y-102542499D02*
X143674819Y-102542499D01*
X143674819Y-102542499D02*
X143817676Y-102637737D01*
X143817676Y-102637737D02*
X143912914Y-102732975D01*
X143912914Y-102732975D02*
X143960533Y-102828213D01*
X128199580Y-105556666D02*
X128247200Y-105604285D01*
X128247200Y-105604285D02*
X128294819Y-105747142D01*
X128294819Y-105747142D02*
X128294819Y-105842380D01*
X128294819Y-105842380D02*
X128247200Y-105985237D01*
X128247200Y-105985237D02*
X128151961Y-106080475D01*
X128151961Y-106080475D02*
X128056723Y-106128094D01*
X128056723Y-106128094D02*
X127866247Y-106175713D01*
X127866247Y-106175713D02*
X127723390Y-106175713D01*
X127723390Y-106175713D02*
X127532914Y-106128094D01*
X127532914Y-106128094D02*
X127437676Y-106080475D01*
X127437676Y-106080475D02*
X127342438Y-105985237D01*
X127342438Y-105985237D02*
X127294819Y-105842380D01*
X127294819Y-105842380D02*
X127294819Y-105747142D01*
X127294819Y-105747142D02*
X127342438Y-105604285D01*
X127342438Y-105604285D02*
X127390057Y-105556666D01*
X128294819Y-104604285D02*
X128294819Y-105175713D01*
X128294819Y-104889999D02*
X127294819Y-104889999D01*
X127294819Y-104889999D02*
X127437676Y-104985237D01*
X127437676Y-104985237D02*
X127532914Y-105080475D01*
X127532914Y-105080475D02*
X127580533Y-105175713D01*
X129869629Y-114210219D02*
X129869629Y-113210219D01*
X129869629Y-113210219D02*
X130202962Y-113924504D01*
X130202962Y-113924504D02*
X130536295Y-113210219D01*
X130536295Y-113210219D02*
X130536295Y-114210219D01*
X131012486Y-114210219D02*
X131012486Y-113210219D01*
X132060104Y-114114980D02*
X132012485Y-114162600D01*
X132012485Y-114162600D02*
X131869628Y-114210219D01*
X131869628Y-114210219D02*
X131774390Y-114210219D01*
X131774390Y-114210219D02*
X131631533Y-114162600D01*
X131631533Y-114162600D02*
X131536295Y-114067361D01*
X131536295Y-114067361D02*
X131488676Y-113972123D01*
X131488676Y-113972123D02*
X131441057Y-113781647D01*
X131441057Y-113781647D02*
X131441057Y-113638790D01*
X131441057Y-113638790D02*
X131488676Y-113448314D01*
X131488676Y-113448314D02*
X131536295Y-113353076D01*
X131536295Y-113353076D02*
X131631533Y-113257838D01*
X131631533Y-113257838D02*
X131774390Y-113210219D01*
X131774390Y-113210219D02*
X131869628Y-113210219D01*
X131869628Y-113210219D02*
X132012485Y-113257838D01*
X132012485Y-113257838D02*
X132060104Y-113305457D01*
X133060104Y-114210219D02*
X132726771Y-113734028D01*
X132488676Y-114210219D02*
X132488676Y-113210219D01*
X132488676Y-113210219D02*
X132869628Y-113210219D01*
X132869628Y-113210219D02*
X132964866Y-113257838D01*
X132964866Y-113257838D02*
X133012485Y-113305457D01*
X133012485Y-113305457D02*
X133060104Y-113400695D01*
X133060104Y-113400695D02*
X133060104Y-113543552D01*
X133060104Y-113543552D02*
X133012485Y-113638790D01*
X133012485Y-113638790D02*
X132964866Y-113686409D01*
X132964866Y-113686409D02*
X132869628Y-113734028D01*
X132869628Y-113734028D02*
X132488676Y-113734028D01*
X133679152Y-113210219D02*
X133869628Y-113210219D01*
X133869628Y-113210219D02*
X133964866Y-113257838D01*
X133964866Y-113257838D02*
X134060104Y-113353076D01*
X134060104Y-113353076D02*
X134107723Y-113543552D01*
X134107723Y-113543552D02*
X134107723Y-113876885D01*
X134107723Y-113876885D02*
X134060104Y-114067361D01*
X134060104Y-114067361D02*
X133964866Y-114162600D01*
X133964866Y-114162600D02*
X133869628Y-114210219D01*
X133869628Y-114210219D02*
X133679152Y-114210219D01*
X133679152Y-114210219D02*
X133583914Y-114162600D01*
X133583914Y-114162600D02*
X133488676Y-114067361D01*
X133488676Y-114067361D02*
X133441057Y-113876885D01*
X133441057Y-113876885D02*
X133441057Y-113543552D01*
X133441057Y-113543552D02*
X133488676Y-113353076D01*
X133488676Y-113353076D02*
X133583914Y-113257838D01*
X133583914Y-113257838D02*
X133679152Y-113210219D01*
X134298200Y-114305457D02*
X135060104Y-114305457D01*
X135250581Y-114162600D02*
X135393438Y-114210219D01*
X135393438Y-114210219D02*
X135631533Y-114210219D01*
X135631533Y-114210219D02*
X135726771Y-114162600D01*
X135726771Y-114162600D02*
X135774390Y-114114980D01*
X135774390Y-114114980D02*
X135822009Y-114019742D01*
X135822009Y-114019742D02*
X135822009Y-113924504D01*
X135822009Y-113924504D02*
X135774390Y-113829266D01*
X135774390Y-113829266D02*
X135726771Y-113781647D01*
X135726771Y-113781647D02*
X135631533Y-113734028D01*
X135631533Y-113734028D02*
X135441057Y-113686409D01*
X135441057Y-113686409D02*
X135345819Y-113638790D01*
X135345819Y-113638790D02*
X135298200Y-113591171D01*
X135298200Y-113591171D02*
X135250581Y-113495933D01*
X135250581Y-113495933D02*
X135250581Y-113400695D01*
X135250581Y-113400695D02*
X135298200Y-113305457D01*
X135298200Y-113305457D02*
X135345819Y-113257838D01*
X135345819Y-113257838D02*
X135441057Y-113210219D01*
X135441057Y-113210219D02*
X135679152Y-113210219D01*
X135679152Y-113210219D02*
X135822009Y-113257838D01*
X136250581Y-114210219D02*
X136250581Y-113210219D01*
X136250581Y-113210219D02*
X136488676Y-113210219D01*
X136488676Y-113210219D02*
X136631533Y-113257838D01*
X136631533Y-113257838D02*
X136726771Y-113353076D01*
X136726771Y-113353076D02*
X136774390Y-113448314D01*
X136774390Y-113448314D02*
X136822009Y-113638790D01*
X136822009Y-113638790D02*
X136822009Y-113781647D01*
X136822009Y-113781647D02*
X136774390Y-113972123D01*
X136774390Y-113972123D02*
X136726771Y-114067361D01*
X136726771Y-114067361D02*
X136631533Y-114162600D01*
X136631533Y-114162600D02*
X136488676Y-114210219D01*
X136488676Y-114210219D02*
X136250581Y-114210219D01*
X137774390Y-114210219D02*
X137202962Y-114210219D01*
X137488676Y-114210219D02*
X137488676Y-113210219D01*
X137488676Y-113210219D02*
X137393438Y-113353076D01*
X137393438Y-113353076D02*
X137298200Y-113448314D01*
X137298200Y-113448314D02*
X137202962Y-113495933D01*
X129144819Y-97868333D02*
X129859104Y-97868333D01*
X129859104Y-97868333D02*
X130001961Y-97915952D01*
X130001961Y-97915952D02*
X130097200Y-98011190D01*
X130097200Y-98011190D02*
X130144819Y-98154047D01*
X130144819Y-98154047D02*
X130144819Y-98249285D01*
X129240057Y-97439761D02*
X129192438Y-97392142D01*
X129192438Y-97392142D02*
X129144819Y-97296904D01*
X129144819Y-97296904D02*
X129144819Y-97058809D01*
X129144819Y-97058809D02*
X129192438Y-96963571D01*
X129192438Y-96963571D02*
X129240057Y-96915952D01*
X129240057Y-96915952D02*
X129335295Y-96868333D01*
X129335295Y-96868333D02*
X129430533Y-96868333D01*
X129430533Y-96868333D02*
X129573390Y-96915952D01*
X129573390Y-96915952D02*
X130144819Y-97487380D01*
X130144819Y-97487380D02*
X130144819Y-96868333D01*
D11*
%TO.C,R1*%
X145135000Y-103269564D02*
X145135000Y-102815436D01*
X146605000Y-103269564D02*
X146605000Y-102815436D01*
%TO.C,C1*%
X126895000Y-105128748D02*
X126895000Y-105651252D01*
X125425000Y-105128748D02*
X125425000Y-105651252D01*
D12*
%TO.C,MICRO_SD1*%
X128938200Y-113779400D02*
X128938200Y-120279400D01*
X128938200Y-123779400D02*
X128939180Y-126029400D01*
X128939180Y-126029400D02*
X143737220Y-126042100D01*
X139838200Y-111529400D02*
X142076200Y-111529400D01*
X143737220Y-126042100D02*
X143738200Y-124279400D01*
X143738200Y-120279400D02*
X143738200Y-113779400D01*
D13*
X139760850Y-110794910D02*
G75*
G03*
X139760850Y-110794910I-127000J0D01*
G01*
D11*
%TO.C,J2*%
X130690000Y-104460000D02*
X130690000Y-103190000D01*
X131960000Y-104460000D02*
X130690000Y-104460000D01*
X134120000Y-102147071D02*
X134120000Y-101692929D01*
X134880000Y-102147071D02*
X134880000Y-101692929D01*
X136660000Y-102147071D02*
X136660000Y-101692929D01*
X137420000Y-102147071D02*
X137420000Y-101692929D01*
X139200000Y-102147071D02*
X139200000Y-101692929D01*
X139960000Y-102147071D02*
X139960000Y-101692929D01*
X131580000Y-102080000D02*
X131580000Y-101692929D01*
X132340000Y-102080000D02*
X132340000Y-101692929D01*
X131580000Y-99607071D02*
X131580000Y-99210000D01*
X132340000Y-99607071D02*
X132340000Y-99210000D01*
X134120000Y-99607071D02*
X134120000Y-99210000D01*
X134880000Y-99607071D02*
X134880000Y-99210000D01*
X136660000Y-99607071D02*
X136660000Y-99210000D01*
X137420000Y-99607071D02*
X137420000Y-99210000D01*
X139200000Y-99607071D02*
X139200000Y-99210000D01*
X139960000Y-99607071D02*
X139960000Y-99210000D01*
X130630000Y-99210000D02*
X140910000Y-99210000D01*
X133230000Y-99210000D02*
X133230000Y-96550000D01*
X135770000Y-99210000D02*
X135770000Y-96550000D01*
X138310000Y-99210000D02*
X138310000Y-96550000D01*
X140910000Y-99210000D02*
X140910000Y-96550000D01*
X130630000Y-96550000D02*
X130630000Y-99210000D01*
X131580000Y-96550000D02*
X131580000Y-90550000D01*
X131640000Y-96550000D02*
X131640000Y-90550000D01*
X131760000Y-96550000D02*
X131760000Y-90550000D01*
X131880000Y-96550000D02*
X131880000Y-90550000D01*
X132000000Y-96550000D02*
X132000000Y-90550000D01*
X132120000Y-96550000D02*
X132120000Y-90550000D01*
X132240000Y-96550000D02*
X132240000Y-90550000D01*
X134120000Y-96550000D02*
X134120000Y-90550000D01*
X136660000Y-96550000D02*
X136660000Y-90550000D01*
X139200000Y-96550000D02*
X139200000Y-90550000D01*
X140910000Y-96550000D02*
X130630000Y-96550000D01*
X131580000Y-90550000D02*
X132340000Y-90550000D01*
X132340000Y-90550000D02*
X132340000Y-96550000D01*
X134120000Y-90550000D02*
X134880000Y-90550000D01*
X134880000Y-90550000D02*
X134880000Y-96550000D01*
X136660000Y-90550000D02*
X137420000Y-90550000D01*
X137420000Y-90550000D02*
X137420000Y-96550000D01*
X139200000Y-90550000D02*
X139960000Y-90550000D01*
X139960000Y-90550000D02*
X139960000Y-96550000D01*
%TD*%
M02*
