%TF.GenerationSoftware,KiCad,Pcbnew,7.0.8*%
%TF.CreationDate,2025-03-05T08:56:01-05:00*%
%TF.ProjectId,cartridgeholder,63617274-7269-4646-9765-686f6c646572,rev?*%
%TF.SameCoordinates,Original*%
%TF.FileFunction,Drillmap*%
%TF.FilePolarity,Positive*%
%FSLAX45Y45*%
G04 Gerber Fmt 4.5, Leading zero omitted, Abs format (unit mm)*
G04 Created by KiCad (PCBNEW 7.0.8) date 2025-03-05 08:56:01*
%MOMM*%
%LPD*%
G01*
G04 APERTURE LIST*
%ADD10C,0.100000*%
%ADD11C,0.200000*%
%ADD12C,0.099999*%
G04 APERTURE END LIST*
D10*
X16089762Y-12212000D02*
G75*
G03*
X16089762Y-12212000I-2540000J0D01*
G01*
D11*
D12*
X13083440Y-12181000D02*
X13183440Y-12281000D01*
X13183440Y-12181000D02*
X13083440Y-12281000D01*
X13881000Y-12181000D02*
X13981000Y-12281000D01*
X13981000Y-12181000D02*
X13881000Y-12281000D01*
D11*
X11265539Y-15068484D02*
X11265539Y-14868484D01*
X11265539Y-14868484D02*
X11313158Y-14868484D01*
X11313158Y-14868484D02*
X11341729Y-14878008D01*
X11341729Y-14878008D02*
X11360777Y-14897055D01*
X11360777Y-14897055D02*
X11370301Y-14916103D01*
X11370301Y-14916103D02*
X11379825Y-14954198D01*
X11379825Y-14954198D02*
X11379825Y-14982769D01*
X11379825Y-14982769D02*
X11370301Y-15020865D01*
X11370301Y-15020865D02*
X11360777Y-15039912D01*
X11360777Y-15039912D02*
X11341729Y-15058960D01*
X11341729Y-15058960D02*
X11313158Y-15068484D01*
X11313158Y-15068484D02*
X11265539Y-15068484D01*
X11465539Y-15068484D02*
X11465539Y-14935150D01*
X11465539Y-14973246D02*
X11475063Y-14954198D01*
X11475063Y-14954198D02*
X11484586Y-14944674D01*
X11484586Y-14944674D02*
X11503634Y-14935150D01*
X11503634Y-14935150D02*
X11522682Y-14935150D01*
X11589348Y-15068484D02*
X11589348Y-14935150D01*
X11589348Y-14868484D02*
X11579825Y-14878008D01*
X11579825Y-14878008D02*
X11589348Y-14887531D01*
X11589348Y-14887531D02*
X11598872Y-14878008D01*
X11598872Y-14878008D02*
X11589348Y-14868484D01*
X11589348Y-14868484D02*
X11589348Y-14887531D01*
X11713158Y-15068484D02*
X11694110Y-15058960D01*
X11694110Y-15058960D02*
X11684586Y-15039912D01*
X11684586Y-15039912D02*
X11684586Y-14868484D01*
X11817920Y-15068484D02*
X11798872Y-15058960D01*
X11798872Y-15058960D02*
X11789348Y-15039912D01*
X11789348Y-15039912D02*
X11789348Y-14868484D01*
X12046491Y-15068484D02*
X12046491Y-14868484D01*
X12046491Y-14868484D02*
X12113158Y-15011341D01*
X12113158Y-15011341D02*
X12179825Y-14868484D01*
X12179825Y-14868484D02*
X12179825Y-15068484D01*
X12360777Y-15068484D02*
X12360777Y-14963722D01*
X12360777Y-14963722D02*
X12351253Y-14944674D01*
X12351253Y-14944674D02*
X12332206Y-14935150D01*
X12332206Y-14935150D02*
X12294110Y-14935150D01*
X12294110Y-14935150D02*
X12275063Y-14944674D01*
X12360777Y-15058960D02*
X12341729Y-15068484D01*
X12341729Y-15068484D02*
X12294110Y-15068484D01*
X12294110Y-15068484D02*
X12275063Y-15058960D01*
X12275063Y-15058960D02*
X12265539Y-15039912D01*
X12265539Y-15039912D02*
X12265539Y-15020865D01*
X12265539Y-15020865D02*
X12275063Y-15001817D01*
X12275063Y-15001817D02*
X12294110Y-14992293D01*
X12294110Y-14992293D02*
X12341729Y-14992293D01*
X12341729Y-14992293D02*
X12360777Y-14982769D01*
X12456015Y-14935150D02*
X12456015Y-15135150D01*
X12456015Y-14944674D02*
X12475063Y-14935150D01*
X12475063Y-14935150D02*
X12513158Y-14935150D01*
X12513158Y-14935150D02*
X12532206Y-14944674D01*
X12532206Y-14944674D02*
X12541729Y-14954198D01*
X12541729Y-14954198D02*
X12551253Y-14973246D01*
X12551253Y-14973246D02*
X12551253Y-15030388D01*
X12551253Y-15030388D02*
X12541729Y-15049436D01*
X12541729Y-15049436D02*
X12532206Y-15058960D01*
X12532206Y-15058960D02*
X12513158Y-15068484D01*
X12513158Y-15068484D02*
X12475063Y-15068484D01*
X12475063Y-15068484D02*
X12456015Y-15058960D01*
X12636967Y-15049436D02*
X12646491Y-15058960D01*
X12646491Y-15058960D02*
X12636967Y-15068484D01*
X12636967Y-15068484D02*
X12627444Y-15058960D01*
X12627444Y-15058960D02*
X12636967Y-15049436D01*
X12636967Y-15049436D02*
X12636967Y-15068484D01*
X12636967Y-14944674D02*
X12646491Y-14954198D01*
X12646491Y-14954198D02*
X12636967Y-14963722D01*
X12636967Y-14963722D02*
X12627444Y-14954198D01*
X12627444Y-14954198D02*
X12636967Y-14944674D01*
X12636967Y-14944674D02*
X12636967Y-14963722D01*
D12*
X10904763Y-15347000D02*
X11004762Y-15447000D01*
X11004762Y-15347000D02*
X10904763Y-15447000D01*
D11*
X11370301Y-15488484D02*
X11256015Y-15488484D01*
X11313158Y-15488484D02*
X11313158Y-15288484D01*
X11313158Y-15288484D02*
X11294110Y-15317055D01*
X11294110Y-15317055D02*
X11275063Y-15336103D01*
X11275063Y-15336103D02*
X11256015Y-15345627D01*
X11456015Y-15469436D02*
X11465539Y-15478960D01*
X11465539Y-15478960D02*
X11456015Y-15488484D01*
X11456015Y-15488484D02*
X11446491Y-15478960D01*
X11446491Y-15478960D02*
X11456015Y-15469436D01*
X11456015Y-15469436D02*
X11456015Y-15488484D01*
X11589348Y-15288484D02*
X11608396Y-15288484D01*
X11608396Y-15288484D02*
X11627444Y-15298008D01*
X11627444Y-15298008D02*
X11636967Y-15307531D01*
X11636967Y-15307531D02*
X11646491Y-15326579D01*
X11646491Y-15326579D02*
X11656015Y-15364674D01*
X11656015Y-15364674D02*
X11656015Y-15412293D01*
X11656015Y-15412293D02*
X11646491Y-15450388D01*
X11646491Y-15450388D02*
X11636967Y-15469436D01*
X11636967Y-15469436D02*
X11627444Y-15478960D01*
X11627444Y-15478960D02*
X11608396Y-15488484D01*
X11608396Y-15488484D02*
X11589348Y-15488484D01*
X11589348Y-15488484D02*
X11570301Y-15478960D01*
X11570301Y-15478960D02*
X11560777Y-15469436D01*
X11560777Y-15469436D02*
X11551253Y-15450388D01*
X11551253Y-15450388D02*
X11541729Y-15412293D01*
X11541729Y-15412293D02*
X11541729Y-15364674D01*
X11541729Y-15364674D02*
X11551253Y-15326579D01*
X11551253Y-15326579D02*
X11560777Y-15307531D01*
X11560777Y-15307531D02*
X11570301Y-15298008D01*
X11570301Y-15298008D02*
X11589348Y-15288484D01*
X11779825Y-15288484D02*
X11798872Y-15288484D01*
X11798872Y-15288484D02*
X11817920Y-15298008D01*
X11817920Y-15298008D02*
X11827444Y-15307531D01*
X11827444Y-15307531D02*
X11836967Y-15326579D01*
X11836967Y-15326579D02*
X11846491Y-15364674D01*
X11846491Y-15364674D02*
X11846491Y-15412293D01*
X11846491Y-15412293D02*
X11836967Y-15450388D01*
X11836967Y-15450388D02*
X11827444Y-15469436D01*
X11827444Y-15469436D02*
X11817920Y-15478960D01*
X11817920Y-15478960D02*
X11798872Y-15488484D01*
X11798872Y-15488484D02*
X11779825Y-15488484D01*
X11779825Y-15488484D02*
X11760777Y-15478960D01*
X11760777Y-15478960D02*
X11751253Y-15469436D01*
X11751253Y-15469436D02*
X11741729Y-15450388D01*
X11741729Y-15450388D02*
X11732206Y-15412293D01*
X11732206Y-15412293D02*
X11732206Y-15364674D01*
X11732206Y-15364674D02*
X11741729Y-15326579D01*
X11741729Y-15326579D02*
X11751253Y-15307531D01*
X11751253Y-15307531D02*
X11760777Y-15298008D01*
X11760777Y-15298008D02*
X11779825Y-15288484D01*
X11970301Y-15288484D02*
X11989348Y-15288484D01*
X11989348Y-15288484D02*
X12008396Y-15298008D01*
X12008396Y-15298008D02*
X12017920Y-15307531D01*
X12017920Y-15307531D02*
X12027444Y-15326579D01*
X12027444Y-15326579D02*
X12036967Y-15364674D01*
X12036967Y-15364674D02*
X12036967Y-15412293D01*
X12036967Y-15412293D02*
X12027444Y-15450388D01*
X12027444Y-15450388D02*
X12017920Y-15469436D01*
X12017920Y-15469436D02*
X12008396Y-15478960D01*
X12008396Y-15478960D02*
X11989348Y-15488484D01*
X11989348Y-15488484D02*
X11970301Y-15488484D01*
X11970301Y-15488484D02*
X11951253Y-15478960D01*
X11951253Y-15478960D02*
X11941729Y-15469436D01*
X11941729Y-15469436D02*
X11932206Y-15450388D01*
X11932206Y-15450388D02*
X11922682Y-15412293D01*
X11922682Y-15412293D02*
X11922682Y-15364674D01*
X11922682Y-15364674D02*
X11932206Y-15326579D01*
X11932206Y-15326579D02*
X11941729Y-15307531D01*
X11941729Y-15307531D02*
X11951253Y-15298008D01*
X11951253Y-15298008D02*
X11970301Y-15288484D01*
X12122682Y-15488484D02*
X12122682Y-15355150D01*
X12122682Y-15374198D02*
X12132206Y-15364674D01*
X12132206Y-15364674D02*
X12151253Y-15355150D01*
X12151253Y-15355150D02*
X12179825Y-15355150D01*
X12179825Y-15355150D02*
X12198872Y-15364674D01*
X12198872Y-15364674D02*
X12208396Y-15383722D01*
X12208396Y-15383722D02*
X12208396Y-15488484D01*
X12208396Y-15383722D02*
X12217920Y-15364674D01*
X12217920Y-15364674D02*
X12236967Y-15355150D01*
X12236967Y-15355150D02*
X12265539Y-15355150D01*
X12265539Y-15355150D02*
X12284587Y-15364674D01*
X12284587Y-15364674D02*
X12294110Y-15383722D01*
X12294110Y-15383722D02*
X12294110Y-15488484D01*
X12389348Y-15488484D02*
X12389348Y-15355150D01*
X12389348Y-15374198D02*
X12398872Y-15364674D01*
X12398872Y-15364674D02*
X12417920Y-15355150D01*
X12417920Y-15355150D02*
X12446491Y-15355150D01*
X12446491Y-15355150D02*
X12465539Y-15364674D01*
X12465539Y-15364674D02*
X12475063Y-15383722D01*
X12475063Y-15383722D02*
X12475063Y-15488484D01*
X12475063Y-15383722D02*
X12484587Y-15364674D01*
X12484587Y-15364674D02*
X12503634Y-15355150D01*
X12503634Y-15355150D02*
X12532206Y-15355150D01*
X12532206Y-15355150D02*
X12551253Y-15364674D01*
X12551253Y-15364674D02*
X12560777Y-15383722D01*
X12560777Y-15383722D02*
X12560777Y-15488484D01*
X12951253Y-15278960D02*
X12779825Y-15536103D01*
X13208396Y-15288484D02*
X13227444Y-15288484D01*
X13227444Y-15288484D02*
X13246491Y-15298008D01*
X13246491Y-15298008D02*
X13256015Y-15307531D01*
X13256015Y-15307531D02*
X13265539Y-15326579D01*
X13265539Y-15326579D02*
X13275063Y-15364674D01*
X13275063Y-15364674D02*
X13275063Y-15412293D01*
X13275063Y-15412293D02*
X13265539Y-15450388D01*
X13265539Y-15450388D02*
X13256015Y-15469436D01*
X13256015Y-15469436D02*
X13246491Y-15478960D01*
X13246491Y-15478960D02*
X13227444Y-15488484D01*
X13227444Y-15488484D02*
X13208396Y-15488484D01*
X13208396Y-15488484D02*
X13189349Y-15478960D01*
X13189349Y-15478960D02*
X13179825Y-15469436D01*
X13179825Y-15469436D02*
X13170301Y-15450388D01*
X13170301Y-15450388D02*
X13160777Y-15412293D01*
X13160777Y-15412293D02*
X13160777Y-15364674D01*
X13160777Y-15364674D02*
X13170301Y-15326579D01*
X13170301Y-15326579D02*
X13179825Y-15307531D01*
X13179825Y-15307531D02*
X13189349Y-15298008D01*
X13189349Y-15298008D02*
X13208396Y-15288484D01*
X13360777Y-15469436D02*
X13370301Y-15478960D01*
X13370301Y-15478960D02*
X13360777Y-15488484D01*
X13360777Y-15488484D02*
X13351253Y-15478960D01*
X13351253Y-15478960D02*
X13360777Y-15469436D01*
X13360777Y-15469436D02*
X13360777Y-15488484D01*
X13494110Y-15288484D02*
X13513158Y-15288484D01*
X13513158Y-15288484D02*
X13532206Y-15298008D01*
X13532206Y-15298008D02*
X13541730Y-15307531D01*
X13541730Y-15307531D02*
X13551253Y-15326579D01*
X13551253Y-15326579D02*
X13560777Y-15364674D01*
X13560777Y-15364674D02*
X13560777Y-15412293D01*
X13560777Y-15412293D02*
X13551253Y-15450388D01*
X13551253Y-15450388D02*
X13541730Y-15469436D01*
X13541730Y-15469436D02*
X13532206Y-15478960D01*
X13532206Y-15478960D02*
X13513158Y-15488484D01*
X13513158Y-15488484D02*
X13494110Y-15488484D01*
X13494110Y-15488484D02*
X13475063Y-15478960D01*
X13475063Y-15478960D02*
X13465539Y-15469436D01*
X13465539Y-15469436D02*
X13456015Y-15450388D01*
X13456015Y-15450388D02*
X13446491Y-15412293D01*
X13446491Y-15412293D02*
X13446491Y-15364674D01*
X13446491Y-15364674D02*
X13456015Y-15326579D01*
X13456015Y-15326579D02*
X13465539Y-15307531D01*
X13465539Y-15307531D02*
X13475063Y-15298008D01*
X13475063Y-15298008D02*
X13494110Y-15288484D01*
X13627444Y-15288484D02*
X13751253Y-15288484D01*
X13751253Y-15288484D02*
X13684587Y-15364674D01*
X13684587Y-15364674D02*
X13713158Y-15364674D01*
X13713158Y-15364674D02*
X13732206Y-15374198D01*
X13732206Y-15374198D02*
X13741730Y-15383722D01*
X13741730Y-15383722D02*
X13751253Y-15402769D01*
X13751253Y-15402769D02*
X13751253Y-15450388D01*
X13751253Y-15450388D02*
X13741730Y-15469436D01*
X13741730Y-15469436D02*
X13732206Y-15478960D01*
X13732206Y-15478960D02*
X13713158Y-15488484D01*
X13713158Y-15488484D02*
X13656015Y-15488484D01*
X13656015Y-15488484D02*
X13636968Y-15478960D01*
X13636968Y-15478960D02*
X13627444Y-15469436D01*
X13846491Y-15488484D02*
X13884587Y-15488484D01*
X13884587Y-15488484D02*
X13903634Y-15478960D01*
X13903634Y-15478960D02*
X13913158Y-15469436D01*
X13913158Y-15469436D02*
X13932206Y-15440865D01*
X13932206Y-15440865D02*
X13941730Y-15402769D01*
X13941730Y-15402769D02*
X13941730Y-15326579D01*
X13941730Y-15326579D02*
X13932206Y-15307531D01*
X13932206Y-15307531D02*
X13922682Y-15298008D01*
X13922682Y-15298008D02*
X13903634Y-15288484D01*
X13903634Y-15288484D02*
X13865539Y-15288484D01*
X13865539Y-15288484D02*
X13846491Y-15298008D01*
X13846491Y-15298008D02*
X13836968Y-15307531D01*
X13836968Y-15307531D02*
X13827444Y-15326579D01*
X13827444Y-15326579D02*
X13827444Y-15374198D01*
X13827444Y-15374198D02*
X13836968Y-15393246D01*
X13836968Y-15393246D02*
X13846491Y-15402769D01*
X13846491Y-15402769D02*
X13865539Y-15412293D01*
X13865539Y-15412293D02*
X13903634Y-15412293D01*
X13903634Y-15412293D02*
X13922682Y-15402769D01*
X13922682Y-15402769D02*
X13932206Y-15393246D01*
X13932206Y-15393246D02*
X13941730Y-15374198D01*
X14113158Y-15355150D02*
X14113158Y-15488484D01*
X14065539Y-15278960D02*
X14017920Y-15421817D01*
X14017920Y-15421817D02*
X14141730Y-15421817D01*
X14208396Y-15288484D02*
X14208396Y-15326579D01*
X14284587Y-15288484D02*
X14284587Y-15326579D01*
X14579825Y-15564674D02*
X14570301Y-15555150D01*
X14570301Y-15555150D02*
X14551253Y-15526579D01*
X14551253Y-15526579D02*
X14541730Y-15507531D01*
X14541730Y-15507531D02*
X14532206Y-15478960D01*
X14532206Y-15478960D02*
X14522682Y-15431341D01*
X14522682Y-15431341D02*
X14522682Y-15393246D01*
X14522682Y-15393246D02*
X14532206Y-15345627D01*
X14532206Y-15345627D02*
X14541730Y-15317055D01*
X14541730Y-15317055D02*
X14551253Y-15298008D01*
X14551253Y-15298008D02*
X14570301Y-15269436D01*
X14570301Y-15269436D02*
X14579825Y-15259912D01*
X14646492Y-15307531D02*
X14656015Y-15298008D01*
X14656015Y-15298008D02*
X14675063Y-15288484D01*
X14675063Y-15288484D02*
X14722682Y-15288484D01*
X14722682Y-15288484D02*
X14741730Y-15298008D01*
X14741730Y-15298008D02*
X14751253Y-15307531D01*
X14751253Y-15307531D02*
X14760777Y-15326579D01*
X14760777Y-15326579D02*
X14760777Y-15345627D01*
X14760777Y-15345627D02*
X14751253Y-15374198D01*
X14751253Y-15374198D02*
X14636968Y-15488484D01*
X14636968Y-15488484D02*
X14760777Y-15488484D01*
X14998873Y-15488484D02*
X14998873Y-15288484D01*
X15084587Y-15488484D02*
X15084587Y-15383722D01*
X15084587Y-15383722D02*
X15075063Y-15364674D01*
X15075063Y-15364674D02*
X15056015Y-15355150D01*
X15056015Y-15355150D02*
X15027444Y-15355150D01*
X15027444Y-15355150D02*
X15008396Y-15364674D01*
X15008396Y-15364674D02*
X14998873Y-15374198D01*
X15208396Y-15488484D02*
X15189349Y-15478960D01*
X15189349Y-15478960D02*
X15179825Y-15469436D01*
X15179825Y-15469436D02*
X15170301Y-15450388D01*
X15170301Y-15450388D02*
X15170301Y-15393246D01*
X15170301Y-15393246D02*
X15179825Y-15374198D01*
X15179825Y-15374198D02*
X15189349Y-15364674D01*
X15189349Y-15364674D02*
X15208396Y-15355150D01*
X15208396Y-15355150D02*
X15236968Y-15355150D01*
X15236968Y-15355150D02*
X15256015Y-15364674D01*
X15256015Y-15364674D02*
X15265539Y-15374198D01*
X15265539Y-15374198D02*
X15275063Y-15393246D01*
X15275063Y-15393246D02*
X15275063Y-15450388D01*
X15275063Y-15450388D02*
X15265539Y-15469436D01*
X15265539Y-15469436D02*
X15256015Y-15478960D01*
X15256015Y-15478960D02*
X15236968Y-15488484D01*
X15236968Y-15488484D02*
X15208396Y-15488484D01*
X15389349Y-15488484D02*
X15370301Y-15478960D01*
X15370301Y-15478960D02*
X15360777Y-15459912D01*
X15360777Y-15459912D02*
X15360777Y-15288484D01*
X15541730Y-15478960D02*
X15522682Y-15488484D01*
X15522682Y-15488484D02*
X15484587Y-15488484D01*
X15484587Y-15488484D02*
X15465539Y-15478960D01*
X15465539Y-15478960D02*
X15456015Y-15459912D01*
X15456015Y-15459912D02*
X15456015Y-15383722D01*
X15456015Y-15383722D02*
X15465539Y-15364674D01*
X15465539Y-15364674D02*
X15484587Y-15355150D01*
X15484587Y-15355150D02*
X15522682Y-15355150D01*
X15522682Y-15355150D02*
X15541730Y-15364674D01*
X15541730Y-15364674D02*
X15551254Y-15383722D01*
X15551254Y-15383722D02*
X15551254Y-15402769D01*
X15551254Y-15402769D02*
X15456015Y-15421817D01*
X15627444Y-15478960D02*
X15646492Y-15488484D01*
X15646492Y-15488484D02*
X15684587Y-15488484D01*
X15684587Y-15488484D02*
X15703635Y-15478960D01*
X15703635Y-15478960D02*
X15713158Y-15459912D01*
X15713158Y-15459912D02*
X15713158Y-15450388D01*
X15713158Y-15450388D02*
X15703635Y-15431341D01*
X15703635Y-15431341D02*
X15684587Y-15421817D01*
X15684587Y-15421817D02*
X15656015Y-15421817D01*
X15656015Y-15421817D02*
X15636968Y-15412293D01*
X15636968Y-15412293D02*
X15627444Y-15393246D01*
X15627444Y-15393246D02*
X15627444Y-15383722D01*
X15627444Y-15383722D02*
X15636968Y-15364674D01*
X15636968Y-15364674D02*
X15656015Y-15355150D01*
X15656015Y-15355150D02*
X15684587Y-15355150D01*
X15684587Y-15355150D02*
X15703635Y-15364674D01*
X15779825Y-15564674D02*
X15789349Y-15555150D01*
X15789349Y-15555150D02*
X15808396Y-15526579D01*
X15808396Y-15526579D02*
X15817920Y-15507531D01*
X15817920Y-15507531D02*
X15827444Y-15478960D01*
X15827444Y-15478960D02*
X15836968Y-15431341D01*
X15836968Y-15431341D02*
X15836968Y-15393246D01*
X15836968Y-15393246D02*
X15827444Y-15345627D01*
X15827444Y-15345627D02*
X15817920Y-15317055D01*
X15817920Y-15317055D02*
X15808396Y-15298008D01*
X15808396Y-15298008D02*
X15789349Y-15269436D01*
X15789349Y-15269436D02*
X15779825Y-15259912D01*
X16141730Y-15564674D02*
X16132206Y-15555150D01*
X16132206Y-15555150D02*
X16113158Y-15526579D01*
X16113158Y-15526579D02*
X16103635Y-15507531D01*
X16103635Y-15507531D02*
X16094111Y-15478960D01*
X16094111Y-15478960D02*
X16084587Y-15431341D01*
X16084587Y-15431341D02*
X16084587Y-15393246D01*
X16084587Y-15393246D02*
X16094111Y-15345627D01*
X16094111Y-15345627D02*
X16103635Y-15317055D01*
X16103635Y-15317055D02*
X16113158Y-15298008D01*
X16113158Y-15298008D02*
X16132206Y-15269436D01*
X16132206Y-15269436D02*
X16141730Y-15259912D01*
X16217920Y-15355150D02*
X16217920Y-15488484D01*
X16217920Y-15374198D02*
X16227444Y-15364674D01*
X16227444Y-15364674D02*
X16246492Y-15355150D01*
X16246492Y-15355150D02*
X16275063Y-15355150D01*
X16275063Y-15355150D02*
X16294111Y-15364674D01*
X16294111Y-15364674D02*
X16303635Y-15383722D01*
X16303635Y-15383722D02*
X16303635Y-15488484D01*
X16427444Y-15488484D02*
X16408396Y-15478960D01*
X16408396Y-15478960D02*
X16398873Y-15469436D01*
X16398873Y-15469436D02*
X16389349Y-15450388D01*
X16389349Y-15450388D02*
X16389349Y-15393246D01*
X16389349Y-15393246D02*
X16398873Y-15374198D01*
X16398873Y-15374198D02*
X16408396Y-15364674D01*
X16408396Y-15364674D02*
X16427444Y-15355150D01*
X16427444Y-15355150D02*
X16456016Y-15355150D01*
X16456016Y-15355150D02*
X16475063Y-15364674D01*
X16475063Y-15364674D02*
X16484587Y-15374198D01*
X16484587Y-15374198D02*
X16494111Y-15393246D01*
X16494111Y-15393246D02*
X16494111Y-15450388D01*
X16494111Y-15450388D02*
X16484587Y-15469436D01*
X16484587Y-15469436D02*
X16475063Y-15478960D01*
X16475063Y-15478960D02*
X16456016Y-15488484D01*
X16456016Y-15488484D02*
X16427444Y-15488484D01*
X16551254Y-15355150D02*
X16627444Y-15355150D01*
X16579825Y-15288484D02*
X16579825Y-15459912D01*
X16579825Y-15459912D02*
X16589349Y-15478960D01*
X16589349Y-15478960D02*
X16608396Y-15488484D01*
X16608396Y-15488484D02*
X16627444Y-15488484D01*
X16846492Y-15355150D02*
X16846492Y-15555150D01*
X16846492Y-15364674D02*
X16865539Y-15355150D01*
X16865539Y-15355150D02*
X16903635Y-15355150D01*
X16903635Y-15355150D02*
X16922682Y-15364674D01*
X16922682Y-15364674D02*
X16932206Y-15374198D01*
X16932206Y-15374198D02*
X16941730Y-15393246D01*
X16941730Y-15393246D02*
X16941730Y-15450388D01*
X16941730Y-15450388D02*
X16932206Y-15469436D01*
X16932206Y-15469436D02*
X16922682Y-15478960D01*
X16922682Y-15478960D02*
X16903635Y-15488484D01*
X16903635Y-15488484D02*
X16865539Y-15488484D01*
X16865539Y-15488484D02*
X16846492Y-15478960D01*
X17056016Y-15488484D02*
X17036968Y-15478960D01*
X17036968Y-15478960D02*
X17027444Y-15459912D01*
X17027444Y-15459912D02*
X17027444Y-15288484D01*
X17217920Y-15488484D02*
X17217920Y-15383722D01*
X17217920Y-15383722D02*
X17208397Y-15364674D01*
X17208397Y-15364674D02*
X17189349Y-15355150D01*
X17189349Y-15355150D02*
X17151254Y-15355150D01*
X17151254Y-15355150D02*
X17132206Y-15364674D01*
X17217920Y-15478960D02*
X17198873Y-15488484D01*
X17198873Y-15488484D02*
X17151254Y-15488484D01*
X17151254Y-15488484D02*
X17132206Y-15478960D01*
X17132206Y-15478960D02*
X17122682Y-15459912D01*
X17122682Y-15459912D02*
X17122682Y-15440865D01*
X17122682Y-15440865D02*
X17132206Y-15421817D01*
X17132206Y-15421817D02*
X17151254Y-15412293D01*
X17151254Y-15412293D02*
X17198873Y-15412293D01*
X17198873Y-15412293D02*
X17217920Y-15402769D01*
X17284587Y-15355150D02*
X17360778Y-15355150D01*
X17313159Y-15288484D02*
X17313159Y-15459912D01*
X17313159Y-15459912D02*
X17322682Y-15478960D01*
X17322682Y-15478960D02*
X17341730Y-15488484D01*
X17341730Y-15488484D02*
X17360778Y-15488484D01*
X17503635Y-15478960D02*
X17484587Y-15488484D01*
X17484587Y-15488484D02*
X17446492Y-15488484D01*
X17446492Y-15488484D02*
X17427444Y-15478960D01*
X17427444Y-15478960D02*
X17417920Y-15459912D01*
X17417920Y-15459912D02*
X17417920Y-15383722D01*
X17417920Y-15383722D02*
X17427444Y-15364674D01*
X17427444Y-15364674D02*
X17446492Y-15355150D01*
X17446492Y-15355150D02*
X17484587Y-15355150D01*
X17484587Y-15355150D02*
X17503635Y-15364674D01*
X17503635Y-15364674D02*
X17513159Y-15383722D01*
X17513159Y-15383722D02*
X17513159Y-15402769D01*
X17513159Y-15402769D02*
X17417920Y-15421817D01*
X17684587Y-15488484D02*
X17684587Y-15288484D01*
X17684587Y-15478960D02*
X17665540Y-15488484D01*
X17665540Y-15488484D02*
X17627444Y-15488484D01*
X17627444Y-15488484D02*
X17608397Y-15478960D01*
X17608397Y-15478960D02*
X17598873Y-15469436D01*
X17598873Y-15469436D02*
X17589349Y-15450388D01*
X17589349Y-15450388D02*
X17589349Y-15393246D01*
X17589349Y-15393246D02*
X17598873Y-15374198D01*
X17598873Y-15374198D02*
X17608397Y-15364674D01*
X17608397Y-15364674D02*
X17627444Y-15355150D01*
X17627444Y-15355150D02*
X17665540Y-15355150D01*
X17665540Y-15355150D02*
X17684587Y-15364674D01*
X17760778Y-15564674D02*
X17770301Y-15555150D01*
X17770301Y-15555150D02*
X17789349Y-15526579D01*
X17789349Y-15526579D02*
X17798873Y-15507531D01*
X17798873Y-15507531D02*
X17808397Y-15478960D01*
X17808397Y-15478960D02*
X17817920Y-15431341D01*
X17817920Y-15431341D02*
X17817920Y-15393246D01*
X17817920Y-15393246D02*
X17808397Y-15345627D01*
X17808397Y-15345627D02*
X17798873Y-15317055D01*
X17798873Y-15317055D02*
X17789349Y-15298008D01*
X17789349Y-15298008D02*
X17770301Y-15269436D01*
X17770301Y-15269436D02*
X17760778Y-15259912D01*
M02*
