%TF.GenerationSoftware,KiCad,Pcbnew,7.0.8*%
%TF.CreationDate,2025-03-05T08:55:57-05:00*%
%TF.ProjectId,cartridgeholder,63617274-7269-4646-9765-686f6c646572,rev?*%
%TF.SameCoordinates,Original*%
%TF.FileFunction,Copper,L2,Bot*%
%TF.FilePolarity,Positive*%
%FSLAX46Y46*%
G04 Gerber Fmt 4.6, Leading zero omitted, Abs format (unit mm)*
G04 Created by KiCad (PCBNEW 7.0.8) date 2025-03-05 08:55:57*
%MOMM*%
%LPD*%
G01*
G04 APERTURE LIST*
%TA.AperFunction,ComponentPad*%
%ADD10R,1.700000X1.700000*%
%TD*%
%TA.AperFunction,ComponentPad*%
%ADD11O,1.700000X1.700000*%
%TD*%
%TA.AperFunction,ViaPad*%
%ADD12C,0.800000*%
%TD*%
%TA.AperFunction,Conductor*%
%ADD13C,0.250000*%
%TD*%
G04 APERTURE END LIST*
D10*
%TO.P,J2,1,Pin_1*%
%TO.N,Net-(J2-Pin_1)*%
X131960000Y-103190000D03*
D11*
%TO.P,J2,2,Pin_2*%
%TO.N,Net-(J2-Pin_2)*%
X131960000Y-100650000D03*
%TO.P,J2,3,Pin_3*%
%TO.N,GND*%
X134500000Y-103190000D03*
%TO.P,J2,4,Pin_4*%
X134500000Y-100650000D03*
%TO.P,J2,5,Pin_5*%
%TO.N,Net-(J2-Pin_5)*%
X137040000Y-103190000D03*
%TO.P,J2,6,Pin_6*%
%TO.N,Net-(J2-Pin_6)*%
X137040000Y-100650000D03*
%TO.P,J2,7,Pin_7*%
%TO.N,Net-(J2-Pin_7)*%
X139580000Y-103190000D03*
%TO.P,J2,8,Pin_8*%
%TO.N,Net-(J2-Pin_8)*%
X139580000Y-100650000D03*
%TD*%
D12*
%TO.N,GND*%
X125520000Y-107930000D03*
X146670000Y-112380000D03*
X146560000Y-122080000D03*
X126340000Y-112410000D03*
X126080000Y-122050000D03*
%TO.N,Net-(J2-Pin_5)*%
X135450000Y-108610000D03*
X134030000Y-107310000D03*
%TO.N,Net-(J2-Pin_1)*%
X136400000Y-107750000D03*
%TO.N,Net-(J2-Pin_2)*%
X134417299Y-109377299D03*
X128680000Y-101370000D03*
%TD*%
D13*
%TO.N,Net-(J2-Pin_5)*%
X135330000Y-108610000D02*
X134030000Y-107310000D01*
X135450000Y-108610000D02*
X135330000Y-108610000D01*
%TO.N,Net-(J2-Pin_1)*%
X136040000Y-107750000D02*
X134240000Y-105950000D01*
X134230000Y-105950000D02*
X131960000Y-103680000D01*
X131960000Y-103680000D02*
X131960000Y-103190000D01*
X134240000Y-105950000D02*
X134230000Y-105950000D01*
X136400000Y-107750000D02*
X136040000Y-107750000D01*
%TO.N,Net-(J2-Pin_2)*%
X128680000Y-103640000D02*
X128680000Y-101370000D01*
X134417299Y-109377299D02*
X128680000Y-103640000D01*
%TD*%
%TA.AperFunction,Conductor*%
%TO.N,GND*%
G36*
X134750000Y-102754498D02*
G01*
X134642315Y-102705320D01*
X134535763Y-102690000D01*
X134464237Y-102690000D01*
X134357685Y-102705320D01*
X134250000Y-102754498D01*
X134250000Y-101085501D01*
X134357685Y-101134680D01*
X134464237Y-101150000D01*
X134535763Y-101150000D01*
X134642315Y-101134680D01*
X134750000Y-101085501D01*
X134750000Y-102754498D01*
G37*
%TD.AperFunction*%
%TA.AperFunction,Conductor*%
G36*
X136103585Y-96729538D02*
G01*
X136910860Y-96761658D01*
X137112563Y-96773704D01*
X137917860Y-96837888D01*
X138118963Y-96857947D01*
X138921103Y-96954100D01*
X139121250Y-96982139D01*
X139918884Y-97110098D01*
X140117773Y-97146075D01*
X140909695Y-97305645D01*
X141107007Y-97349503D01*
X141891918Y-97540421D01*
X142087406Y-97592109D01*
X142087427Y-97592115D01*
X142864049Y-97814066D01*
X143057283Y-97873470D01*
X143824571Y-98126154D01*
X144015302Y-98193199D01*
X144771879Y-98476167D01*
X144959790Y-98550739D01*
X145704559Y-98863578D01*
X145889350Y-98945560D01*
X146621087Y-99287760D01*
X146776629Y-99364304D01*
X146800586Y-99376094D01*
X146802446Y-99377009D01*
X147520025Y-99748042D01*
X147697714Y-99844443D01*
X148299060Y-100186337D01*
X148399932Y-100243687D01*
X148573667Y-100347088D01*
X149259435Y-100773919D01*
X149428964Y-100884172D01*
X150093500Y-101335405D01*
X150097222Y-101337932D01*
X150262192Y-101454808D01*
X150352331Y-101521400D01*
X150911881Y-101934776D01*
X151072106Y-102058143D01*
X151652200Y-102523454D01*
X151702194Y-102563556D01*
X151857377Y-102693187D01*
X152466889Y-103223263D01*
X152584301Y-103329547D01*
X152616798Y-103358964D01*
X153204714Y-103912816D01*
X153349142Y-104054400D01*
X153914589Y-104631204D01*
X154053242Y-104778385D01*
X154595319Y-105377222D01*
X154728013Y-105529801D01*
X155245862Y-106149726D01*
X155372362Y-106307430D01*
X155565968Y-106558877D01*
X155865163Y-106947462D01*
X155985326Y-107110116D01*
X156452257Y-107769184D01*
X156565871Y-107936507D01*
X157006239Y-108613630D01*
X157113088Y-108785298D01*
X157222913Y-108969827D01*
X157526209Y-109479432D01*
X157626132Y-109655183D01*
X158011347Y-110365221D01*
X158104194Y-110544787D01*
X158460862Y-111269550D01*
X158546524Y-111452726D01*
X158768005Y-111951961D01*
X158874055Y-112191004D01*
X158874080Y-112191059D01*
X158952399Y-112377512D01*
X159250338Y-113128275D01*
X159321179Y-113317684D01*
X159589054Y-114079755D01*
X159652282Y-114271750D01*
X159889652Y-115043876D01*
X159945210Y-115238279D01*
X160151699Y-116019250D01*
X160199467Y-116215635D01*
X160374749Y-117004219D01*
X160414679Y-117202385D01*
X160558463Y-117997271D01*
X160590489Y-118196906D01*
X160702555Y-118996862D01*
X160726618Y-119197610D01*
X160806792Y-120001389D01*
X160822856Y-120202938D01*
X160871012Y-121009281D01*
X160879050Y-121211283D01*
X160897121Y-122120000D01*
X160879050Y-123028716D01*
X160871012Y-123230718D01*
X160822856Y-124037061D01*
X160806792Y-124238610D01*
X160726618Y-125042389D01*
X160702555Y-125243137D01*
X160590489Y-126043093D01*
X160558463Y-126242728D01*
X160414679Y-127037614D01*
X160374749Y-127235780D01*
X160199467Y-128024364D01*
X160151699Y-128220749D01*
X159945210Y-129001720D01*
X159889652Y-129196123D01*
X159652282Y-129968249D01*
X159589054Y-130160244D01*
X159321179Y-130922315D01*
X159250338Y-131111724D01*
X158952399Y-131862487D01*
X158874080Y-132048940D01*
X158546524Y-132787273D01*
X158460862Y-132970449D01*
X158104194Y-133695212D01*
X158011347Y-133874778D01*
X157626132Y-134584816D01*
X157526209Y-134760567D01*
X157113095Y-135454690D01*
X157006239Y-135626369D01*
X156565871Y-136303492D01*
X156452257Y-136470815D01*
X155985326Y-137129883D01*
X155865163Y-137292537D01*
X155372373Y-137932556D01*
X155245862Y-138090273D01*
X154728013Y-138710198D01*
X154595319Y-138862777D01*
X154053242Y-139461614D01*
X153914589Y-139608795D01*
X153349147Y-140185594D01*
X153204714Y-140327183D01*
X152616798Y-140881035D01*
X152466880Y-141016744D01*
X151857382Y-141546809D01*
X151702194Y-141676443D01*
X151072115Y-142181850D01*
X150911881Y-142305223D01*
X150262194Y-142785189D01*
X150097222Y-142902067D01*
X149428960Y-143355830D01*
X149259435Y-143466080D01*
X148573667Y-143892911D01*
X148399932Y-143996312D01*
X147697703Y-144395562D01*
X147520014Y-144491963D01*
X146802450Y-144862988D01*
X146621087Y-144952239D01*
X145889340Y-145294444D01*
X145704546Y-145376426D01*
X144959798Y-145689257D01*
X144771879Y-145763832D01*
X144015289Y-146046805D01*
X143824542Y-146113854D01*
X143057312Y-146366520D01*
X142864049Y-146425933D01*
X142087400Y-146647892D01*
X141891881Y-146699587D01*
X141107005Y-146890496D01*
X140909677Y-146934357D01*
X140117786Y-147093922D01*
X139918852Y-147129906D01*
X139121249Y-147257860D01*
X138921062Y-147285904D01*
X138118991Y-147382049D01*
X137917848Y-147402112D01*
X137112569Y-147466294D01*
X136910820Y-147478343D01*
X136103627Y-147510460D01*
X135901527Y-147514479D01*
X135093715Y-147514479D01*
X134891614Y-147510460D01*
X134084421Y-147478343D01*
X133882672Y-147466294D01*
X133077393Y-147402112D01*
X132876250Y-147382049D01*
X132074179Y-147285904D01*
X131873992Y-147257860D01*
X131076389Y-147129906D01*
X130877455Y-147093922D01*
X130085564Y-146934357D01*
X129888236Y-146890496D01*
X129103360Y-146699587D01*
X128907841Y-146647892D01*
X128131192Y-146425933D01*
X127937929Y-146366520D01*
X127170699Y-146113854D01*
X126979952Y-146046805D01*
X126223362Y-145763832D01*
X126035443Y-145689257D01*
X125290695Y-145376426D01*
X125105901Y-145294444D01*
X124374154Y-144952239D01*
X124192791Y-144862988D01*
X123475227Y-144491963D01*
X123297538Y-144395562D01*
X122595309Y-143996312D01*
X122421574Y-143892911D01*
X121735806Y-143466080D01*
X121566281Y-143355830D01*
X120898019Y-142902067D01*
X120733047Y-142785189D01*
X120083360Y-142305223D01*
X120038072Y-142270353D01*
X119923098Y-142181827D01*
X119293047Y-141676443D01*
X119244271Y-141635699D01*
X119137841Y-141546793D01*
X118528375Y-141016756D01*
X118378443Y-140881035D01*
X117790527Y-140327183D01*
X117646094Y-140185594D01*
X117080652Y-139608795D01*
X116941999Y-139461614D01*
X116399922Y-138862777D01*
X116267228Y-138710198D01*
X115749379Y-138090273D01*
X115686123Y-138011414D01*
X115622853Y-137932536D01*
X115130078Y-137292537D01*
X115009915Y-137129883D01*
X114542984Y-136470815D01*
X114429370Y-136303492D01*
X113989002Y-135626369D01*
X113882158Y-135454709D01*
X113469032Y-134760567D01*
X113369109Y-134584816D01*
X112983894Y-133874778D01*
X112891051Y-133695219D01*
X112534374Y-132970438D01*
X112448717Y-132787273D01*
X112416134Y-132713830D01*
X112121162Y-132048940D01*
X112042842Y-131862487D01*
X111744897Y-131111709D01*
X111674062Y-130922315D01*
X111406187Y-130160244D01*
X111342959Y-129968249D01*
X111105590Y-129196123D01*
X111050031Y-129001720D01*
X110843543Y-128220749D01*
X110795775Y-128024364D01*
X110620486Y-127235752D01*
X110580566Y-127037633D01*
X110436777Y-126242721D01*
X110404755Y-126043111D01*
X110292683Y-125243114D01*
X110268623Y-125042389D01*
X110188449Y-124238610D01*
X110172385Y-124037061D01*
X110124229Y-123230718D01*
X110117456Y-123060499D01*
X110116192Y-123028716D01*
X110102773Y-122353933D01*
X130580069Y-122353933D01*
X130580070Y-122353935D01*
X130610533Y-122526704D01*
X130610534Y-122526707D01*
X130610535Y-122526711D01*
X130656861Y-122634106D01*
X130680024Y-122687805D01*
X130734679Y-122761218D01*
X130784791Y-122828530D01*
X130919187Y-122941301D01*
X130997234Y-122980497D01*
X131075962Y-123020037D01*
X131075963Y-123020037D01*
X131075967Y-123020039D01*
X131246679Y-123060499D01*
X131246682Y-123060499D01*
X131378101Y-123060499D01*
X131378109Y-123060499D01*
X131508655Y-123045240D01*
X131673516Y-122985236D01*
X131820095Y-122888829D01*
X131940491Y-122761218D01*
X132028211Y-122609281D01*
X132078529Y-122441210D01*
X132083612Y-122353933D01*
X138555669Y-122353933D01*
X138555670Y-122353935D01*
X138586133Y-122526704D01*
X138586134Y-122526707D01*
X138586135Y-122526711D01*
X138632461Y-122634106D01*
X138655624Y-122687805D01*
X138710279Y-122761218D01*
X138760391Y-122828530D01*
X138894787Y-122941301D01*
X138972834Y-122980497D01*
X139051562Y-123020037D01*
X139051563Y-123020037D01*
X139051567Y-123020039D01*
X139222279Y-123060499D01*
X139222282Y-123060499D01*
X139353701Y-123060499D01*
X139353709Y-123060499D01*
X139484255Y-123045240D01*
X139649116Y-122985236D01*
X139795695Y-122888829D01*
X139916091Y-122761218D01*
X140003811Y-122609281D01*
X140054129Y-122441210D01*
X140064330Y-122266065D01*
X140033865Y-122093289D01*
X139964376Y-121932196D01*
X139859609Y-121791470D01*
X139725213Y-121678699D01*
X139723841Y-121678010D01*
X139568437Y-121599962D01*
X139568433Y-121599961D01*
X139397721Y-121559501D01*
X139266291Y-121559501D01*
X139161854Y-121571708D01*
X139135743Y-121574760D01*
X139135741Y-121574761D01*
X138970885Y-121634763D01*
X138970881Y-121634765D01*
X138824307Y-121731168D01*
X138824306Y-121731169D01*
X138703911Y-121858778D01*
X138703908Y-121858784D01*
X138616189Y-122010718D01*
X138565871Y-122178789D01*
X138565870Y-122178794D01*
X138555669Y-122353933D01*
X132083612Y-122353933D01*
X132088730Y-122266065D01*
X132058265Y-122093289D01*
X131988776Y-121932196D01*
X131884009Y-121791470D01*
X131749613Y-121678699D01*
X131748241Y-121678010D01*
X131592837Y-121599962D01*
X131592833Y-121599961D01*
X131422121Y-121559501D01*
X131290691Y-121559501D01*
X131186254Y-121571708D01*
X131160143Y-121574760D01*
X131160141Y-121574761D01*
X130995285Y-121634763D01*
X130995281Y-121634765D01*
X130848707Y-121731168D01*
X130848706Y-121731169D01*
X130728311Y-121858778D01*
X130728308Y-121858784D01*
X130640589Y-122010718D01*
X130590271Y-122178789D01*
X130590270Y-122178794D01*
X130580069Y-122353933D01*
X110102773Y-122353933D01*
X110100131Y-122221075D01*
X110100131Y-122018924D01*
X110101856Y-121932194D01*
X110116191Y-121211280D01*
X110124226Y-121009319D01*
X110172385Y-120202930D01*
X110188449Y-120001389D01*
X110268623Y-119197610D01*
X110292687Y-118996862D01*
X110404756Y-118196879D01*
X110436772Y-117997307D01*
X110580569Y-117202347D01*
X110620482Y-117004267D01*
X110795782Y-116215603D01*
X110843543Y-116019250D01*
X111050044Y-115238229D01*
X111105590Y-115043876D01*
X111342965Y-114271732D01*
X111406178Y-114079781D01*
X111674065Y-113317677D01*
X111744891Y-113128305D01*
X112042848Y-112377498D01*
X112121162Y-112191059D01*
X112448723Y-111452711D01*
X112534357Y-111269595D01*
X112891054Y-110544773D01*
X112983875Y-110365256D01*
X113369117Y-109655168D01*
X113451369Y-109510500D01*
X113469006Y-109479475D01*
X113882156Y-108785293D01*
X113988973Y-108613675D01*
X114338927Y-108075573D01*
X114429370Y-107936507D01*
X114470835Y-107875439D01*
X114542968Y-107769206D01*
X115009925Y-107110101D01*
X115026156Y-107088133D01*
X115130078Y-106947462D01*
X115622895Y-106307408D01*
X115749353Y-106149756D01*
X116267251Y-105529773D01*
X116399903Y-105377242D01*
X116942027Y-104778354D01*
X117080618Y-104631239D01*
X117646134Y-104054365D01*
X117790493Y-103912848D01*
X118378488Y-103358922D01*
X118528319Y-103223292D01*
X119137885Y-102693168D01*
X119293011Y-102563584D01*
X119923136Y-102058142D01*
X120083319Y-101934806D01*
X120733086Y-101454781D01*
X120852753Y-101370000D01*
X127774540Y-101370000D01*
X127794326Y-101558256D01*
X127794327Y-101558259D01*
X127852818Y-101738277D01*
X127852821Y-101738284D01*
X127947467Y-101902216D01*
X127983739Y-101942500D01*
X128022650Y-101985715D01*
X128052880Y-102048706D01*
X128054500Y-102068687D01*
X128054500Y-103557255D01*
X128052775Y-103572872D01*
X128053061Y-103572899D01*
X128052326Y-103580665D01*
X128054500Y-103649814D01*
X128054500Y-103679343D01*
X128054501Y-103679360D01*
X128055368Y-103686231D01*
X128055826Y-103692050D01*
X128057290Y-103738624D01*
X128057291Y-103738627D01*
X128062880Y-103757867D01*
X128066824Y-103776911D01*
X128069336Y-103796792D01*
X128086490Y-103840119D01*
X128088382Y-103845647D01*
X128101381Y-103890388D01*
X128111580Y-103907634D01*
X128120138Y-103925103D01*
X128127514Y-103943732D01*
X128154898Y-103981423D01*
X128158106Y-103986307D01*
X128181827Y-104026416D01*
X128181833Y-104026424D01*
X128195990Y-104040580D01*
X128208627Y-104055375D01*
X128220406Y-104071587D01*
X128240091Y-104087872D01*
X128256309Y-104101288D01*
X128260620Y-104105210D01*
X132273686Y-108118277D01*
X133478337Y-109322928D01*
X133511822Y-109384251D01*
X133513977Y-109397647D01*
X133521702Y-109471142D01*
X133531625Y-109565555D01*
X133531626Y-109565558D01*
X133590117Y-109745576D01*
X133590120Y-109745583D01*
X133684766Y-109909515D01*
X133811428Y-110050187D01*
X133964564Y-110161447D01*
X133964569Y-110161450D01*
X134137491Y-110238441D01*
X134137496Y-110238443D01*
X134322653Y-110277799D01*
X134322654Y-110277799D01*
X134511943Y-110277799D01*
X134511945Y-110277799D01*
X134697102Y-110238443D01*
X134870029Y-110161450D01*
X135023170Y-110050187D01*
X135149832Y-109909515D01*
X135244478Y-109745583D01*
X135293022Y-109596180D01*
X135332458Y-109538507D01*
X135396817Y-109511308D01*
X135410952Y-109510500D01*
X135544644Y-109510500D01*
X135544646Y-109510500D01*
X135729803Y-109471144D01*
X135902730Y-109394151D01*
X136055871Y-109282888D01*
X136182533Y-109142216D01*
X136277179Y-108978284D01*
X136335674Y-108798256D01*
X136339533Y-108761540D01*
X136366117Y-108696925D01*
X136423414Y-108656939D01*
X136462854Y-108650500D01*
X136494644Y-108650500D01*
X136494646Y-108650500D01*
X136679803Y-108611144D01*
X136852730Y-108534151D01*
X137005871Y-108422888D01*
X137132533Y-108282216D01*
X137227179Y-108118284D01*
X137285674Y-107938256D01*
X137305460Y-107750000D01*
X137285674Y-107561744D01*
X137227179Y-107381716D01*
X137132533Y-107217784D01*
X137005871Y-107077112D01*
X137004641Y-107076218D01*
X136852734Y-106965851D01*
X136852729Y-106965848D01*
X136679807Y-106888857D01*
X136679802Y-106888855D01*
X136534001Y-106857865D01*
X136494646Y-106849500D01*
X136305354Y-106849500D01*
X136218583Y-106867943D01*
X136139250Y-106884806D01*
X136069582Y-106879490D01*
X136025788Y-106851197D01*
X134740803Y-105566212D01*
X134730980Y-105553950D01*
X134730759Y-105554134D01*
X134725786Y-105548123D01*
X134706275Y-105529801D01*
X134675364Y-105500773D01*
X134664919Y-105490328D01*
X134654475Y-105479883D01*
X134648986Y-105475625D01*
X134644561Y-105471847D01*
X134610582Y-105439938D01*
X134610580Y-105439936D01*
X134604271Y-105435353D01*
X134604533Y-105434991D01*
X134584655Y-105420065D01*
X133768372Y-104603782D01*
X133734887Y-104542459D01*
X133739871Y-104472767D01*
X133781743Y-104416834D01*
X133847207Y-104392417D01*
X133908458Y-104403719D01*
X134036507Y-104463430D01*
X134036516Y-104463433D01*
X134250000Y-104520634D01*
X134250000Y-103625501D01*
X134357685Y-103674680D01*
X134464237Y-103690000D01*
X134535763Y-103690000D01*
X134642315Y-103674680D01*
X134750000Y-103625501D01*
X134750000Y-104520633D01*
X134963483Y-104463433D01*
X134963492Y-104463429D01*
X135177578Y-104363600D01*
X135371082Y-104228105D01*
X135538105Y-104061082D01*
X135668119Y-103875405D01*
X135722696Y-103831781D01*
X135792195Y-103824588D01*
X135854549Y-103856110D01*
X135871269Y-103875405D01*
X136001505Y-104061401D01*
X136168599Y-104228495D01*
X136265384Y-104296265D01*
X136362165Y-104364032D01*
X136362167Y-104364033D01*
X136362170Y-104364035D01*
X136576337Y-104463903D01*
X136804592Y-104525063D01*
X136981034Y-104540500D01*
X137039999Y-104545659D01*
X137040000Y-104545659D01*
X137040001Y-104545659D01*
X137098966Y-104540500D01*
X137275408Y-104525063D01*
X137503663Y-104463903D01*
X137717830Y-104364035D01*
X137911401Y-104228495D01*
X138078495Y-104061401D01*
X138208425Y-103875842D01*
X138263002Y-103832217D01*
X138332500Y-103825023D01*
X138394855Y-103856546D01*
X138411575Y-103875842D01*
X138541500Y-104061395D01*
X138541505Y-104061401D01*
X138708599Y-104228495D01*
X138805384Y-104296265D01*
X138902165Y-104364032D01*
X138902167Y-104364033D01*
X138902170Y-104364035D01*
X139116337Y-104463903D01*
X139344592Y-104525063D01*
X139521034Y-104540500D01*
X139579999Y-104545659D01*
X139580000Y-104545659D01*
X139580001Y-104545659D01*
X139638966Y-104540500D01*
X139815408Y-104525063D01*
X140043663Y-104463903D01*
X140257830Y-104364035D01*
X140451401Y-104228495D01*
X140618495Y-104061401D01*
X140754035Y-103867830D01*
X140853903Y-103653663D01*
X140915063Y-103425408D01*
X140935659Y-103190000D01*
X140915063Y-102954592D01*
X140853903Y-102726337D01*
X140754035Y-102512171D01*
X140748731Y-102504595D01*
X140618494Y-102318597D01*
X140451402Y-102151506D01*
X140451396Y-102151501D01*
X140265842Y-102021575D01*
X140222217Y-101966998D01*
X140215023Y-101897500D01*
X140246546Y-101835145D01*
X140265842Y-101818425D01*
X140380305Y-101738277D01*
X140451401Y-101688495D01*
X140618495Y-101521401D01*
X140754035Y-101327830D01*
X140853903Y-101113663D01*
X140915063Y-100885408D01*
X140935659Y-100650000D01*
X140915063Y-100414592D01*
X140853903Y-100186337D01*
X140754035Y-99972171D01*
X140748731Y-99964595D01*
X140618494Y-99778597D01*
X140451402Y-99611506D01*
X140451395Y-99611501D01*
X140257834Y-99475967D01*
X140257830Y-99475965D01*
X140257828Y-99475964D01*
X140043663Y-99376097D01*
X140043659Y-99376096D01*
X140043655Y-99376094D01*
X139815413Y-99314938D01*
X139815403Y-99314936D01*
X139580001Y-99294341D01*
X139579999Y-99294341D01*
X139344596Y-99314936D01*
X139344586Y-99314938D01*
X139116344Y-99376094D01*
X139116335Y-99376098D01*
X138902171Y-99475964D01*
X138902169Y-99475965D01*
X138708597Y-99611505D01*
X138541505Y-99778597D01*
X138411575Y-99964158D01*
X138356998Y-100007783D01*
X138287500Y-100014977D01*
X138225145Y-99983454D01*
X138208425Y-99964158D01*
X138078494Y-99778597D01*
X137911402Y-99611506D01*
X137911395Y-99611501D01*
X137717834Y-99475967D01*
X137717830Y-99475965D01*
X137717828Y-99475964D01*
X137503663Y-99376097D01*
X137503659Y-99376096D01*
X137503655Y-99376094D01*
X137275413Y-99314938D01*
X137275403Y-99314936D01*
X137040001Y-99294341D01*
X137039999Y-99294341D01*
X136804596Y-99314936D01*
X136804586Y-99314938D01*
X136576344Y-99376094D01*
X136576335Y-99376098D01*
X136362171Y-99475964D01*
X136362169Y-99475965D01*
X136168597Y-99611505D01*
X136001508Y-99778594D01*
X135871269Y-99964595D01*
X135816692Y-100008219D01*
X135747193Y-100015412D01*
X135684839Y-99983890D01*
X135668119Y-99964594D01*
X135538113Y-99778926D01*
X135538108Y-99778920D01*
X135371082Y-99611894D01*
X135177578Y-99476399D01*
X134963492Y-99376570D01*
X134963486Y-99376567D01*
X134750000Y-99319364D01*
X134750000Y-100214498D01*
X134642315Y-100165320D01*
X134535763Y-100150000D01*
X134464237Y-100150000D01*
X134357685Y-100165320D01*
X134250000Y-100214498D01*
X134250000Y-99319364D01*
X134249999Y-99319364D01*
X134036513Y-99376567D01*
X134036507Y-99376570D01*
X133822422Y-99476399D01*
X133822420Y-99476400D01*
X133628926Y-99611886D01*
X133628920Y-99611891D01*
X133461891Y-99778920D01*
X133461890Y-99778922D01*
X133331880Y-99964595D01*
X133277303Y-100008219D01*
X133207804Y-100015412D01*
X133145450Y-99983890D01*
X133128730Y-99964594D01*
X132998494Y-99778597D01*
X132831402Y-99611506D01*
X132831395Y-99611501D01*
X132637834Y-99475967D01*
X132637830Y-99475965D01*
X132637828Y-99475964D01*
X132423663Y-99376097D01*
X132423659Y-99376096D01*
X132423655Y-99376094D01*
X132195413Y-99314938D01*
X132195403Y-99314936D01*
X131960001Y-99294341D01*
X131959999Y-99294341D01*
X131724596Y-99314936D01*
X131724586Y-99314938D01*
X131496344Y-99376094D01*
X131496335Y-99376098D01*
X131282171Y-99475964D01*
X131282169Y-99475965D01*
X131088597Y-99611505D01*
X130921505Y-99778597D01*
X130785965Y-99972169D01*
X130785964Y-99972171D01*
X130686098Y-100186335D01*
X130686094Y-100186344D01*
X130624938Y-100414586D01*
X130624936Y-100414596D01*
X130604341Y-100649999D01*
X130604341Y-100650000D01*
X130624936Y-100885403D01*
X130624938Y-100885413D01*
X130686094Y-101113655D01*
X130686096Y-101113659D01*
X130686097Y-101113663D01*
X130765801Y-101284588D01*
X130785965Y-101327830D01*
X130785967Y-101327834D01*
X130874877Y-101454810D01*
X130921504Y-101521400D01*
X130921506Y-101521402D01*
X131043430Y-101643326D01*
X131076915Y-101704649D01*
X131071931Y-101774341D01*
X131030059Y-101830274D01*
X130999083Y-101847189D01*
X130867669Y-101896203D01*
X130867664Y-101896206D01*
X130752455Y-101982452D01*
X130752452Y-101982455D01*
X130666206Y-102097664D01*
X130666202Y-102097671D01*
X130615908Y-102232517D01*
X130609501Y-102292116D01*
X130609500Y-102292135D01*
X130609500Y-104087870D01*
X130609501Y-104087876D01*
X130615908Y-104147483D01*
X130666202Y-104282328D01*
X130666206Y-104282335D01*
X130752452Y-104397544D01*
X130752455Y-104397547D01*
X130867664Y-104483793D01*
X130867671Y-104483797D01*
X131002517Y-104534091D01*
X131002516Y-104534091D01*
X131009444Y-104534835D01*
X131062127Y-104540500D01*
X131884547Y-104540499D01*
X131951586Y-104560183D01*
X131972228Y-104576818D01*
X133687709Y-106292299D01*
X133721194Y-106353622D01*
X133716210Y-106423314D01*
X133674338Y-106479247D01*
X133650466Y-106493259D01*
X133602004Y-106514836D01*
X133577270Y-106525849D01*
X133577268Y-106525849D01*
X133577264Y-106525852D01*
X133424129Y-106637111D01*
X133297466Y-106777785D01*
X133202821Y-106941715D01*
X133202818Y-106941722D01*
X133182824Y-107003259D01*
X133143386Y-107060935D01*
X133079028Y-107088133D01*
X133010181Y-107076218D01*
X132977212Y-107052622D01*
X129341819Y-103417228D01*
X129308334Y-103355905D01*
X129305500Y-103329547D01*
X129305500Y-102068687D01*
X129325185Y-102001648D01*
X129337350Y-101985715D01*
X129355891Y-101965122D01*
X129412533Y-101902216D01*
X129507179Y-101738284D01*
X129565674Y-101558256D01*
X129585460Y-101370000D01*
X129565674Y-101181744D01*
X129507179Y-101001716D01*
X129412533Y-100837784D01*
X129285871Y-100697112D01*
X129221027Y-100650000D01*
X129132734Y-100585851D01*
X129132729Y-100585848D01*
X128959807Y-100508857D01*
X128959802Y-100508855D01*
X128814001Y-100477865D01*
X128774646Y-100469500D01*
X128585354Y-100469500D01*
X128552897Y-100476398D01*
X128400197Y-100508855D01*
X128400192Y-100508857D01*
X128227270Y-100585848D01*
X128227265Y-100585851D01*
X128074129Y-100697111D01*
X127947466Y-100837785D01*
X127852821Y-101001715D01*
X127852818Y-101001722D01*
X127809618Y-101134680D01*
X127794326Y-101181744D01*
X127774540Y-101370000D01*
X120852753Y-101370000D01*
X120897973Y-101337963D01*
X121566320Y-100884143D01*
X121735785Y-100773932D01*
X122421582Y-100347082D01*
X122595310Y-100243687D01*
X123297546Y-99844433D01*
X123475189Y-99748056D01*
X124192807Y-99377003D01*
X124374154Y-99287760D01*
X124417675Y-99267407D01*
X125105943Y-98945535D01*
X125290662Y-98863586D01*
X126035464Y-98550733D01*
X126223333Y-98476177D01*
X126980005Y-98193174D01*
X127170667Y-98126155D01*
X127937968Y-97873466D01*
X128131185Y-97814067D01*
X128907880Y-97592096D01*
X129103306Y-97540425D01*
X129888277Y-97349493D01*
X130085546Y-97305645D01*
X130877459Y-97146077D01*
X131076370Y-97110096D01*
X131874003Y-96982137D01*
X132074172Y-96954096D01*
X132876258Y-96857949D01*
X133077346Y-96837891D01*
X133882693Y-96773703D01*
X134084384Y-96761658D01*
X134891659Y-96729538D01*
X135093715Y-96725521D01*
X135901527Y-96725521D01*
X136103585Y-96729538D01*
G37*
%TD.AperFunction*%
%TD*%
M02*
