%TF.GenerationSoftware,KiCad,Pcbnew,7.0.8*%
%TF.CreationDate,2025-03-05T08:55:57-05:00*%
%TF.ProjectId,cartridgeholder,63617274-7269-4646-9765-686f6c646572,rev?*%
%TF.SameCoordinates,Original*%
%TF.FileFunction,Copper,L1,Top*%
%TF.FilePolarity,Positive*%
%FSLAX46Y46*%
G04 Gerber Fmt 4.6, Leading zero omitted, Abs format (unit mm)*
G04 Created by KiCad (PCBNEW 7.0.8) date 2025-03-05 08:55:57*
%MOMM*%
%LPD*%
G01*
G04 APERTURE LIST*
G04 Aperture macros list*
%AMRoundRect*
0 Rectangle with rounded corners*
0 $1 Rounding radius*
0 $2 $3 $4 $5 $6 $7 $8 $9 X,Y pos of 4 corners*
0 Add a 4 corners polygon primitive as box body*
4,1,4,$2,$3,$4,$5,$6,$7,$8,$9,$2,$3,0*
0 Add four circle primitives for the rounded corners*
1,1,$1+$1,$2,$3*
1,1,$1+$1,$4,$5*
1,1,$1+$1,$6,$7*
1,1,$1+$1,$8,$9*
0 Add four rect primitives between the rounded corners*
20,1,$1+$1,$2,$3,$4,$5,0*
20,1,$1+$1,$4,$5,$6,$7,0*
20,1,$1+$1,$6,$7,$8,$9,0*
20,1,$1+$1,$8,$9,$2,$3,0*%
G04 Aperture macros list end*
%TA.AperFunction,SMDPad,CuDef*%
%ADD10RoundRect,0.250000X0.450000X-0.262500X0.450000X0.262500X-0.450000X0.262500X-0.450000X-0.262500X0*%
%TD*%
%TA.AperFunction,SMDPad,CuDef*%
%ADD11RoundRect,0.250000X-0.475000X0.250000X-0.475000X-0.250000X0.475000X-0.250000X0.475000X0.250000X0*%
%TD*%
%TA.AperFunction,SMDPad,CuDef*%
%ADD12R,0.700000X1.300000*%
%TD*%
%TA.AperFunction,SMDPad,CuDef*%
%ADD13R,1.447800X1.651000*%
%TD*%
%TA.AperFunction,SMDPad,CuDef*%
%ADD14R,1.447800X2.438400*%
%TD*%
%TA.AperFunction,SMDPad,CuDef*%
%ADD15R,1.854200X1.651000*%
%TD*%
%TA.AperFunction,ComponentPad*%
%ADD16R,1.700000X1.700000*%
%TD*%
%TA.AperFunction,ComponentPad*%
%ADD17O,1.700000X1.700000*%
%TD*%
%TA.AperFunction,ViaPad*%
%ADD18C,0.800000*%
%TD*%
%TA.AperFunction,Conductor*%
%ADD19C,0.250000*%
%TD*%
G04 APERTURE END LIST*
D10*
%TO.P,R1,1*%
%TO.N,Net-(J2-Pin_6)*%
X145870000Y-103955000D03*
%TO.P,R1,2*%
%TO.N,Net-(J2-Pin_5)*%
X145870000Y-102130000D03*
%TD*%
D11*
%TO.P,C1,1*%
%TO.N,Net-(J2-Pin_5)*%
X126160000Y-104440000D03*
%TO.P,C1,2*%
%TO.N,GND*%
X126160000Y-106340000D03*
%TD*%
D12*
%TO.P,MICRO_SD1,1,DAT2*%
%TO.N,unconnected-(MICRO_SD1-DAT2-Pad1)*%
X138568000Y-111605600D03*
%TO.P,MICRO_SD1,2,CS/DAT3*%
%TO.N,Net-(J2-Pin_8)*%
X137468000Y-111605600D03*
%TO.P,MICRO_SD1,3,CMD*%
%TO.N,Net-(J2-Pin_1)*%
X136368000Y-111605600D03*
%TO.P,MICRO_SD1,4,VDD*%
%TO.N,Net-(J2-Pin_5)*%
X135268000Y-111605600D03*
%TO.P,MICRO_SD1,5,CLK*%
%TO.N,Net-(J2-Pin_2)*%
X134168000Y-111605600D03*
%TO.P,MICRO_SD1,6,VSS*%
%TO.N,GND*%
X133068000Y-111605600D03*
%TO.P,MICRO_SD1,7,DAT0*%
%TO.N,Net-(J2-Pin_7)*%
X131968000Y-111605600D03*
%TO.P,MICRO_SD1,8,DAT1*%
%TO.N,unconnected-(MICRO_SD1-DAT1-Pad8)*%
X130868000Y-111605600D03*
%TO.P,MICRO_SD1,CD1*%
%TO.N,N/C*%
X129768000Y-111605600D03*
D13*
%TO.P,MICRO_SD1,MP1,Shield1*%
%TO.N,GND*%
X128349600Y-112379400D03*
D14*
%TO.P,MICRO_SD1,MP2,Shield2*%
X128349600Y-122079400D03*
%TO.P,MICRO_SD1,MP3,Shield3*%
X144174400Y-122079400D03*
D15*
%TO.P,MICRO_SD1,MP4,SHIELD*%
X143399400Y-112379400D03*
%TD*%
D16*
%TO.P,J2,1,Pin_1*%
%TO.N,Net-(J2-Pin_1)*%
X131960000Y-103190000D03*
D17*
%TO.P,J2,2,Pin_2*%
%TO.N,Net-(J2-Pin_2)*%
X131960000Y-100650000D03*
%TO.P,J2,3,Pin_3*%
%TO.N,GND*%
X134500000Y-103190000D03*
%TO.P,J2,4,Pin_4*%
X134500000Y-100650000D03*
%TO.P,J2,5,Pin_5*%
%TO.N,Net-(J2-Pin_5)*%
X137040000Y-103190000D03*
%TO.P,J2,6,Pin_6*%
%TO.N,Net-(J2-Pin_6)*%
X137040000Y-100650000D03*
%TO.P,J2,7,Pin_7*%
%TO.N,Net-(J2-Pin_7)*%
X139580000Y-103190000D03*
%TO.P,J2,8,Pin_8*%
%TO.N,Net-(J2-Pin_8)*%
X139580000Y-100650000D03*
%TD*%
D18*
%TO.N,GND*%
X125520000Y-107930000D03*
X146670000Y-112380000D03*
X146560000Y-122080000D03*
X126340000Y-112410000D03*
X126080000Y-122050000D03*
%TO.N,Net-(J2-Pin_5)*%
X135450000Y-108610000D03*
X134030000Y-107310000D03*
%TO.N,Net-(J2-Pin_1)*%
X136400000Y-107750000D03*
%TO.N,Net-(J2-Pin_2)*%
X134417299Y-109377299D03*
X128680000Y-101370000D03*
%TD*%
D19*
%TO.N,GND*%
X129120200Y-113150000D02*
X128349600Y-112379400D01*
X126340000Y-112410000D02*
X126370600Y-112379400D01*
X126160000Y-107290000D02*
X125520000Y-107930000D01*
X143399400Y-112379400D02*
X146669400Y-112379400D01*
X126160000Y-106340000D02*
X126160000Y-107290000D01*
X132120000Y-113150000D02*
X129120200Y-113150000D01*
X126370600Y-112379400D02*
X128349600Y-112379400D01*
X146559400Y-122079400D02*
X146560000Y-122080000D01*
X126109400Y-122079400D02*
X126080000Y-122050000D01*
X144174400Y-122079400D02*
X146559400Y-122079400D01*
X146669400Y-112379400D02*
X146670000Y-112380000D01*
X133068000Y-112202000D02*
X132120000Y-113150000D01*
X133068000Y-111605600D02*
X133068000Y-112202000D01*
X128349600Y-122079400D02*
X126109400Y-122079400D01*
%TO.N,Net-(J2-Pin_5)*%
X141890000Y-98150000D02*
X140790000Y-98150000D01*
X135860000Y-102010000D02*
X137040000Y-103190000D01*
X135860000Y-98870000D02*
X135860000Y-102010000D01*
X135268000Y-110942000D02*
X135450000Y-110760000D01*
X134030000Y-107310000D02*
X134030000Y-106200000D01*
X145870000Y-102130000D02*
X141890000Y-98150000D01*
X136950000Y-97780000D02*
X135860000Y-98870000D01*
X140420000Y-97780000D02*
X136950000Y-97780000D01*
X126160000Y-104440000D02*
X132270000Y-104440000D01*
X132270000Y-104440000D02*
X134030000Y-106200000D01*
X140790000Y-98150000D02*
X140420000Y-97780000D01*
X134030000Y-106200000D02*
X137040000Y-103190000D01*
X135268000Y-111605600D02*
X135268000Y-110942000D01*
X135450000Y-110760000D02*
X135450000Y-108610000D01*
%TO.N,Net-(J2-Pin_1)*%
X136368000Y-107782000D02*
X136368000Y-111605600D01*
X136400000Y-107750000D02*
X136368000Y-107782000D01*
%TO.N,Net-(J2-Pin_2)*%
X134417299Y-109377299D02*
X134168000Y-109626598D01*
X134168000Y-109626598D02*
X134168000Y-111605600D01*
X131220000Y-101390000D02*
X131960000Y-100650000D01*
X128700000Y-101390000D02*
X131220000Y-101390000D01*
X128680000Y-101370000D02*
X128700000Y-101390000D01*
%TO.N,Net-(J2-Pin_6)*%
X145870000Y-103955000D02*
X141130000Y-99215000D01*
X139160000Y-98530000D02*
X137040000Y-100650000D01*
X141130000Y-99126396D02*
X140533604Y-98530000D01*
X140533604Y-98530000D02*
X139160000Y-98530000D01*
X141130000Y-99215000D02*
X141130000Y-99126396D01*
%TO.N,Net-(J2-Pin_7)*%
X131968000Y-110802000D02*
X131968000Y-111605600D01*
X139580000Y-103190000D02*
X131968000Y-110802000D01*
%TO.N,Net-(J2-Pin_8)*%
X137468000Y-112255600D02*
X137468000Y-111605600D01*
X141880000Y-102950000D02*
X141880000Y-115400000D01*
X141880000Y-115400000D02*
X140612400Y-115400000D01*
X139580000Y-100650000D02*
X141880000Y-102950000D01*
X140612400Y-115400000D02*
X137468000Y-112255600D01*
%TD*%
M02*
