%TF.GenerationSoftware,KiCad,Pcbnew,7.0.8*%
%TF.CreationDate,2025-03-15T15:23:15-04:00*%
%TF.ProjectId,v2315power,76323331-3570-46f7-9765-722e6b696361,rev?*%
%TF.SameCoordinates,Original*%
%TF.FileFunction,Drillmap*%
%TF.FilePolarity,Positive*%
%FSLAX45Y45*%
G04 Gerber Fmt 4.5, Leading zero omitted, Abs format (unit mm)*
G04 Created by KiCad (PCBNEW 7.0.8) date 2025-03-15 15:23:15*
%MOMM*%
%LPD*%
G01*
G04 APERTURE LIST*
%ADD10C,0.200000*%
%ADD11C,0.430000*%
G04 APERTURE END LIST*
D10*
X8220000Y-6609000D02*
X16475000Y-6609000D01*
X16475000Y-11689000D01*
X8220000Y-11689000D01*
X8220000Y-6609000D01*
D11*
X8606000Y-10824000D02*
X9036000Y-11254000D01*
X9036000Y-10824000D02*
X8606000Y-11254000D01*
X8663000Y-6939000D02*
X9093000Y-7369000D01*
X9093000Y-6939000D02*
X8663000Y-7369000D01*
X15696000Y-10813000D02*
X16126000Y-11243000D01*
X16126000Y-10813000D02*
X15696000Y-11243000D01*
X15707000Y-6939000D02*
X16137000Y-7369000D01*
X16137000Y-6939000D02*
X15707000Y-7369000D01*
D10*
X8470777Y-12010484D02*
X8470777Y-11810484D01*
X8470777Y-11810484D02*
X8518396Y-11810484D01*
X8518396Y-11810484D02*
X8546967Y-11820008D01*
X8546967Y-11820008D02*
X8566015Y-11839055D01*
X8566015Y-11839055D02*
X8575539Y-11858103D01*
X8575539Y-11858103D02*
X8585063Y-11896198D01*
X8585063Y-11896198D02*
X8585063Y-11924769D01*
X8585063Y-11924769D02*
X8575539Y-11962865D01*
X8575539Y-11962865D02*
X8566015Y-11981912D01*
X8566015Y-11981912D02*
X8546967Y-12000960D01*
X8546967Y-12000960D02*
X8518396Y-12010484D01*
X8518396Y-12010484D02*
X8470777Y-12010484D01*
X8670777Y-12010484D02*
X8670777Y-11877150D01*
X8670777Y-11915246D02*
X8680301Y-11896198D01*
X8680301Y-11896198D02*
X8689824Y-11886674D01*
X8689824Y-11886674D02*
X8708872Y-11877150D01*
X8708872Y-11877150D02*
X8727920Y-11877150D01*
X8794586Y-12010484D02*
X8794586Y-11877150D01*
X8794586Y-11810484D02*
X8785063Y-11820008D01*
X8785063Y-11820008D02*
X8794586Y-11829531D01*
X8794586Y-11829531D02*
X8804110Y-11820008D01*
X8804110Y-11820008D02*
X8794586Y-11810484D01*
X8794586Y-11810484D02*
X8794586Y-11829531D01*
X8918396Y-12010484D02*
X8899348Y-12000960D01*
X8899348Y-12000960D02*
X8889824Y-11981912D01*
X8889824Y-11981912D02*
X8889824Y-11810484D01*
X9023158Y-12010484D02*
X9004110Y-12000960D01*
X9004110Y-12000960D02*
X8994586Y-11981912D01*
X8994586Y-11981912D02*
X8994586Y-11810484D01*
X9251729Y-12010484D02*
X9251729Y-11810484D01*
X9251729Y-11810484D02*
X9318396Y-11953341D01*
X9318396Y-11953341D02*
X9385063Y-11810484D01*
X9385063Y-11810484D02*
X9385063Y-12010484D01*
X9566015Y-12010484D02*
X9566015Y-11905722D01*
X9566015Y-11905722D02*
X9556491Y-11886674D01*
X9556491Y-11886674D02*
X9537444Y-11877150D01*
X9537444Y-11877150D02*
X9499348Y-11877150D01*
X9499348Y-11877150D02*
X9480301Y-11886674D01*
X9566015Y-12000960D02*
X9546967Y-12010484D01*
X9546967Y-12010484D02*
X9499348Y-12010484D01*
X9499348Y-12010484D02*
X9480301Y-12000960D01*
X9480301Y-12000960D02*
X9470777Y-11981912D01*
X9470777Y-11981912D02*
X9470777Y-11962865D01*
X9470777Y-11962865D02*
X9480301Y-11943817D01*
X9480301Y-11943817D02*
X9499348Y-11934293D01*
X9499348Y-11934293D02*
X9546967Y-11934293D01*
X9546967Y-11934293D02*
X9566015Y-11924769D01*
X9661253Y-11877150D02*
X9661253Y-12077150D01*
X9661253Y-11886674D02*
X9680301Y-11877150D01*
X9680301Y-11877150D02*
X9718396Y-11877150D01*
X9718396Y-11877150D02*
X9737444Y-11886674D01*
X9737444Y-11886674D02*
X9746967Y-11896198D01*
X9746967Y-11896198D02*
X9756491Y-11915246D01*
X9756491Y-11915246D02*
X9756491Y-11972388D01*
X9756491Y-11972388D02*
X9746967Y-11991436D01*
X9746967Y-11991436D02*
X9737444Y-12000960D01*
X9737444Y-12000960D02*
X9718396Y-12010484D01*
X9718396Y-12010484D02*
X9680301Y-12010484D01*
X9680301Y-12010484D02*
X9661253Y-12000960D01*
X9842205Y-11991436D02*
X9851729Y-12000960D01*
X9851729Y-12000960D02*
X9842205Y-12010484D01*
X9842205Y-12010484D02*
X9832682Y-12000960D01*
X9832682Y-12000960D02*
X9842205Y-11991436D01*
X9842205Y-11991436D02*
X9842205Y-12010484D01*
X9842205Y-11886674D02*
X9851729Y-11896198D01*
X9851729Y-11896198D02*
X9842205Y-11905722D01*
X9842205Y-11905722D02*
X9832682Y-11896198D01*
X9832682Y-11896198D02*
X9842205Y-11886674D01*
X9842205Y-11886674D02*
X9842205Y-11905722D01*
X8010000Y-12239000D02*
X8210000Y-12439000D01*
X8210000Y-12239000D02*
X8010000Y-12439000D01*
X8556491Y-12297150D02*
X8556491Y-12430484D01*
X8508872Y-12220960D02*
X8461253Y-12363817D01*
X8461253Y-12363817D02*
X8585063Y-12363817D01*
X8661253Y-12411436D02*
X8670777Y-12420960D01*
X8670777Y-12420960D02*
X8661253Y-12430484D01*
X8661253Y-12430484D02*
X8651729Y-12420960D01*
X8651729Y-12420960D02*
X8661253Y-12411436D01*
X8661253Y-12411436D02*
X8661253Y-12430484D01*
X8737444Y-12230484D02*
X8861253Y-12230484D01*
X8861253Y-12230484D02*
X8794586Y-12306674D01*
X8794586Y-12306674D02*
X8823158Y-12306674D01*
X8823158Y-12306674D02*
X8842205Y-12316198D01*
X8842205Y-12316198D02*
X8851729Y-12325722D01*
X8851729Y-12325722D02*
X8861253Y-12344769D01*
X8861253Y-12344769D02*
X8861253Y-12392388D01*
X8861253Y-12392388D02*
X8851729Y-12411436D01*
X8851729Y-12411436D02*
X8842205Y-12420960D01*
X8842205Y-12420960D02*
X8823158Y-12430484D01*
X8823158Y-12430484D02*
X8766015Y-12430484D01*
X8766015Y-12430484D02*
X8746967Y-12420960D01*
X8746967Y-12420960D02*
X8737444Y-12411436D01*
X8985063Y-12230484D02*
X9004110Y-12230484D01*
X9004110Y-12230484D02*
X9023158Y-12240008D01*
X9023158Y-12240008D02*
X9032682Y-12249531D01*
X9032682Y-12249531D02*
X9042205Y-12268579D01*
X9042205Y-12268579D02*
X9051729Y-12306674D01*
X9051729Y-12306674D02*
X9051729Y-12354293D01*
X9051729Y-12354293D02*
X9042205Y-12392388D01*
X9042205Y-12392388D02*
X9032682Y-12411436D01*
X9032682Y-12411436D02*
X9023158Y-12420960D01*
X9023158Y-12420960D02*
X9004110Y-12430484D01*
X9004110Y-12430484D02*
X8985063Y-12430484D01*
X8985063Y-12430484D02*
X8966015Y-12420960D01*
X8966015Y-12420960D02*
X8956491Y-12411436D01*
X8956491Y-12411436D02*
X8946967Y-12392388D01*
X8946967Y-12392388D02*
X8937444Y-12354293D01*
X8937444Y-12354293D02*
X8937444Y-12306674D01*
X8937444Y-12306674D02*
X8946967Y-12268579D01*
X8946967Y-12268579D02*
X8956491Y-12249531D01*
X8956491Y-12249531D02*
X8966015Y-12240008D01*
X8966015Y-12240008D02*
X8985063Y-12230484D01*
X9175539Y-12230484D02*
X9194586Y-12230484D01*
X9194586Y-12230484D02*
X9213634Y-12240008D01*
X9213634Y-12240008D02*
X9223158Y-12249531D01*
X9223158Y-12249531D02*
X9232682Y-12268579D01*
X9232682Y-12268579D02*
X9242205Y-12306674D01*
X9242205Y-12306674D02*
X9242205Y-12354293D01*
X9242205Y-12354293D02*
X9232682Y-12392388D01*
X9232682Y-12392388D02*
X9223158Y-12411436D01*
X9223158Y-12411436D02*
X9213634Y-12420960D01*
X9213634Y-12420960D02*
X9194586Y-12430484D01*
X9194586Y-12430484D02*
X9175539Y-12430484D01*
X9175539Y-12430484D02*
X9156491Y-12420960D01*
X9156491Y-12420960D02*
X9146967Y-12411436D01*
X9146967Y-12411436D02*
X9137444Y-12392388D01*
X9137444Y-12392388D02*
X9127920Y-12354293D01*
X9127920Y-12354293D02*
X9127920Y-12306674D01*
X9127920Y-12306674D02*
X9137444Y-12268579D01*
X9137444Y-12268579D02*
X9146967Y-12249531D01*
X9146967Y-12249531D02*
X9156491Y-12240008D01*
X9156491Y-12240008D02*
X9175539Y-12230484D01*
X9327920Y-12430484D02*
X9327920Y-12297150D01*
X9327920Y-12316198D02*
X9337444Y-12306674D01*
X9337444Y-12306674D02*
X9356491Y-12297150D01*
X9356491Y-12297150D02*
X9385063Y-12297150D01*
X9385063Y-12297150D02*
X9404110Y-12306674D01*
X9404110Y-12306674D02*
X9413634Y-12325722D01*
X9413634Y-12325722D02*
X9413634Y-12430484D01*
X9413634Y-12325722D02*
X9423158Y-12306674D01*
X9423158Y-12306674D02*
X9442205Y-12297150D01*
X9442205Y-12297150D02*
X9470777Y-12297150D01*
X9470777Y-12297150D02*
X9489825Y-12306674D01*
X9489825Y-12306674D02*
X9499348Y-12325722D01*
X9499348Y-12325722D02*
X9499348Y-12430484D01*
X9594586Y-12430484D02*
X9594586Y-12297150D01*
X9594586Y-12316198D02*
X9604110Y-12306674D01*
X9604110Y-12306674D02*
X9623158Y-12297150D01*
X9623158Y-12297150D02*
X9651729Y-12297150D01*
X9651729Y-12297150D02*
X9670777Y-12306674D01*
X9670777Y-12306674D02*
X9680301Y-12325722D01*
X9680301Y-12325722D02*
X9680301Y-12430484D01*
X9680301Y-12325722D02*
X9689825Y-12306674D01*
X9689825Y-12306674D02*
X9708872Y-12297150D01*
X9708872Y-12297150D02*
X9737444Y-12297150D01*
X9737444Y-12297150D02*
X9756491Y-12306674D01*
X9756491Y-12306674D02*
X9766015Y-12325722D01*
X9766015Y-12325722D02*
X9766015Y-12430484D01*
X10156491Y-12220960D02*
X9985063Y-12478103D01*
X10413634Y-12230484D02*
X10432682Y-12230484D01*
X10432682Y-12230484D02*
X10451729Y-12240008D01*
X10451729Y-12240008D02*
X10461253Y-12249531D01*
X10461253Y-12249531D02*
X10470777Y-12268579D01*
X10470777Y-12268579D02*
X10480301Y-12306674D01*
X10480301Y-12306674D02*
X10480301Y-12354293D01*
X10480301Y-12354293D02*
X10470777Y-12392388D01*
X10470777Y-12392388D02*
X10461253Y-12411436D01*
X10461253Y-12411436D02*
X10451729Y-12420960D01*
X10451729Y-12420960D02*
X10432682Y-12430484D01*
X10432682Y-12430484D02*
X10413634Y-12430484D01*
X10413634Y-12430484D02*
X10394587Y-12420960D01*
X10394587Y-12420960D02*
X10385063Y-12411436D01*
X10385063Y-12411436D02*
X10375539Y-12392388D01*
X10375539Y-12392388D02*
X10366015Y-12354293D01*
X10366015Y-12354293D02*
X10366015Y-12306674D01*
X10366015Y-12306674D02*
X10375539Y-12268579D01*
X10375539Y-12268579D02*
X10385063Y-12249531D01*
X10385063Y-12249531D02*
X10394587Y-12240008D01*
X10394587Y-12240008D02*
X10413634Y-12230484D01*
X10566015Y-12411436D02*
X10575539Y-12420960D01*
X10575539Y-12420960D02*
X10566015Y-12430484D01*
X10566015Y-12430484D02*
X10556491Y-12420960D01*
X10556491Y-12420960D02*
X10566015Y-12411436D01*
X10566015Y-12411436D02*
X10566015Y-12430484D01*
X10766015Y-12430484D02*
X10651729Y-12430484D01*
X10708872Y-12430484D02*
X10708872Y-12230484D01*
X10708872Y-12230484D02*
X10689825Y-12259055D01*
X10689825Y-12259055D02*
X10670777Y-12278103D01*
X10670777Y-12278103D02*
X10651729Y-12287627D01*
X10937444Y-12230484D02*
X10899348Y-12230484D01*
X10899348Y-12230484D02*
X10880301Y-12240008D01*
X10880301Y-12240008D02*
X10870777Y-12249531D01*
X10870777Y-12249531D02*
X10851729Y-12278103D01*
X10851729Y-12278103D02*
X10842206Y-12316198D01*
X10842206Y-12316198D02*
X10842206Y-12392388D01*
X10842206Y-12392388D02*
X10851729Y-12411436D01*
X10851729Y-12411436D02*
X10861253Y-12420960D01*
X10861253Y-12420960D02*
X10880301Y-12430484D01*
X10880301Y-12430484D02*
X10918396Y-12430484D01*
X10918396Y-12430484D02*
X10937444Y-12420960D01*
X10937444Y-12420960D02*
X10946968Y-12411436D01*
X10946968Y-12411436D02*
X10956491Y-12392388D01*
X10956491Y-12392388D02*
X10956491Y-12344769D01*
X10956491Y-12344769D02*
X10946968Y-12325722D01*
X10946968Y-12325722D02*
X10937444Y-12316198D01*
X10937444Y-12316198D02*
X10918396Y-12306674D01*
X10918396Y-12306674D02*
X10880301Y-12306674D01*
X10880301Y-12306674D02*
X10861253Y-12316198D01*
X10861253Y-12316198D02*
X10851729Y-12325722D01*
X10851729Y-12325722D02*
X10842206Y-12344769D01*
X11051729Y-12430484D02*
X11089825Y-12430484D01*
X11089825Y-12430484D02*
X11108872Y-12420960D01*
X11108872Y-12420960D02*
X11118396Y-12411436D01*
X11118396Y-12411436D02*
X11137444Y-12382865D01*
X11137444Y-12382865D02*
X11146968Y-12344769D01*
X11146968Y-12344769D02*
X11146968Y-12268579D01*
X11146968Y-12268579D02*
X11137444Y-12249531D01*
X11137444Y-12249531D02*
X11127920Y-12240008D01*
X11127920Y-12240008D02*
X11108872Y-12230484D01*
X11108872Y-12230484D02*
X11070777Y-12230484D01*
X11070777Y-12230484D02*
X11051729Y-12240008D01*
X11051729Y-12240008D02*
X11042206Y-12249531D01*
X11042206Y-12249531D02*
X11032682Y-12268579D01*
X11032682Y-12268579D02*
X11032682Y-12316198D01*
X11032682Y-12316198D02*
X11042206Y-12335246D01*
X11042206Y-12335246D02*
X11051729Y-12344769D01*
X11051729Y-12344769D02*
X11070777Y-12354293D01*
X11070777Y-12354293D02*
X11108872Y-12354293D01*
X11108872Y-12354293D02*
X11127920Y-12344769D01*
X11127920Y-12344769D02*
X11137444Y-12335246D01*
X11137444Y-12335246D02*
X11146968Y-12316198D01*
X11213634Y-12230484D02*
X11337444Y-12230484D01*
X11337444Y-12230484D02*
X11270777Y-12306674D01*
X11270777Y-12306674D02*
X11299348Y-12306674D01*
X11299348Y-12306674D02*
X11318396Y-12316198D01*
X11318396Y-12316198D02*
X11327920Y-12325722D01*
X11327920Y-12325722D02*
X11337444Y-12344769D01*
X11337444Y-12344769D02*
X11337444Y-12392388D01*
X11337444Y-12392388D02*
X11327920Y-12411436D01*
X11327920Y-12411436D02*
X11318396Y-12420960D01*
X11318396Y-12420960D02*
X11299348Y-12430484D01*
X11299348Y-12430484D02*
X11242206Y-12430484D01*
X11242206Y-12430484D02*
X11223158Y-12420960D01*
X11223158Y-12420960D02*
X11213634Y-12411436D01*
X11413634Y-12230484D02*
X11413634Y-12268579D01*
X11489825Y-12230484D02*
X11489825Y-12268579D01*
X11785063Y-12506674D02*
X11775539Y-12497150D01*
X11775539Y-12497150D02*
X11756491Y-12468579D01*
X11756491Y-12468579D02*
X11746968Y-12449531D01*
X11746968Y-12449531D02*
X11737444Y-12420960D01*
X11737444Y-12420960D02*
X11727920Y-12373341D01*
X11727920Y-12373341D02*
X11727920Y-12335246D01*
X11727920Y-12335246D02*
X11737444Y-12287627D01*
X11737444Y-12287627D02*
X11746968Y-12259055D01*
X11746968Y-12259055D02*
X11756491Y-12240008D01*
X11756491Y-12240008D02*
X11775539Y-12211436D01*
X11775539Y-12211436D02*
X11785063Y-12201912D01*
X11946968Y-12297150D02*
X11946968Y-12430484D01*
X11899348Y-12220960D02*
X11851729Y-12363817D01*
X11851729Y-12363817D02*
X11975539Y-12363817D01*
X12204110Y-12430484D02*
X12204110Y-12230484D01*
X12289825Y-12430484D02*
X12289825Y-12325722D01*
X12289825Y-12325722D02*
X12280301Y-12306674D01*
X12280301Y-12306674D02*
X12261253Y-12297150D01*
X12261253Y-12297150D02*
X12232682Y-12297150D01*
X12232682Y-12297150D02*
X12213634Y-12306674D01*
X12213634Y-12306674D02*
X12204110Y-12316198D01*
X12413634Y-12430484D02*
X12394587Y-12420960D01*
X12394587Y-12420960D02*
X12385063Y-12411436D01*
X12385063Y-12411436D02*
X12375539Y-12392388D01*
X12375539Y-12392388D02*
X12375539Y-12335246D01*
X12375539Y-12335246D02*
X12385063Y-12316198D01*
X12385063Y-12316198D02*
X12394587Y-12306674D01*
X12394587Y-12306674D02*
X12413634Y-12297150D01*
X12413634Y-12297150D02*
X12442206Y-12297150D01*
X12442206Y-12297150D02*
X12461253Y-12306674D01*
X12461253Y-12306674D02*
X12470777Y-12316198D01*
X12470777Y-12316198D02*
X12480301Y-12335246D01*
X12480301Y-12335246D02*
X12480301Y-12392388D01*
X12480301Y-12392388D02*
X12470777Y-12411436D01*
X12470777Y-12411436D02*
X12461253Y-12420960D01*
X12461253Y-12420960D02*
X12442206Y-12430484D01*
X12442206Y-12430484D02*
X12413634Y-12430484D01*
X12594587Y-12430484D02*
X12575539Y-12420960D01*
X12575539Y-12420960D02*
X12566015Y-12401912D01*
X12566015Y-12401912D02*
X12566015Y-12230484D01*
X12746968Y-12420960D02*
X12727920Y-12430484D01*
X12727920Y-12430484D02*
X12689825Y-12430484D01*
X12689825Y-12430484D02*
X12670777Y-12420960D01*
X12670777Y-12420960D02*
X12661253Y-12401912D01*
X12661253Y-12401912D02*
X12661253Y-12325722D01*
X12661253Y-12325722D02*
X12670777Y-12306674D01*
X12670777Y-12306674D02*
X12689825Y-12297150D01*
X12689825Y-12297150D02*
X12727920Y-12297150D01*
X12727920Y-12297150D02*
X12746968Y-12306674D01*
X12746968Y-12306674D02*
X12756491Y-12325722D01*
X12756491Y-12325722D02*
X12756491Y-12344769D01*
X12756491Y-12344769D02*
X12661253Y-12363817D01*
X12832682Y-12420960D02*
X12851730Y-12430484D01*
X12851730Y-12430484D02*
X12889825Y-12430484D01*
X12889825Y-12430484D02*
X12908872Y-12420960D01*
X12908872Y-12420960D02*
X12918396Y-12401912D01*
X12918396Y-12401912D02*
X12918396Y-12392388D01*
X12918396Y-12392388D02*
X12908872Y-12373341D01*
X12908872Y-12373341D02*
X12889825Y-12363817D01*
X12889825Y-12363817D02*
X12861253Y-12363817D01*
X12861253Y-12363817D02*
X12842206Y-12354293D01*
X12842206Y-12354293D02*
X12832682Y-12335246D01*
X12832682Y-12335246D02*
X12832682Y-12325722D01*
X12832682Y-12325722D02*
X12842206Y-12306674D01*
X12842206Y-12306674D02*
X12861253Y-12297150D01*
X12861253Y-12297150D02*
X12889825Y-12297150D01*
X12889825Y-12297150D02*
X12908872Y-12306674D01*
X12985063Y-12506674D02*
X12994587Y-12497150D01*
X12994587Y-12497150D02*
X13013634Y-12468579D01*
X13013634Y-12468579D02*
X13023158Y-12449531D01*
X13023158Y-12449531D02*
X13032682Y-12420960D01*
X13032682Y-12420960D02*
X13042206Y-12373341D01*
X13042206Y-12373341D02*
X13042206Y-12335246D01*
X13042206Y-12335246D02*
X13032682Y-12287627D01*
X13032682Y-12287627D02*
X13023158Y-12259055D01*
X13023158Y-12259055D02*
X13013634Y-12240008D01*
X13013634Y-12240008D02*
X12994587Y-12211436D01*
X12994587Y-12211436D02*
X12985063Y-12201912D01*
X13346968Y-12506674D02*
X13337444Y-12497150D01*
X13337444Y-12497150D02*
X13318396Y-12468579D01*
X13318396Y-12468579D02*
X13308872Y-12449531D01*
X13308872Y-12449531D02*
X13299349Y-12420960D01*
X13299349Y-12420960D02*
X13289825Y-12373341D01*
X13289825Y-12373341D02*
X13289825Y-12335246D01*
X13289825Y-12335246D02*
X13299349Y-12287627D01*
X13299349Y-12287627D02*
X13308872Y-12259055D01*
X13308872Y-12259055D02*
X13318396Y-12240008D01*
X13318396Y-12240008D02*
X13337444Y-12211436D01*
X13337444Y-12211436D02*
X13346968Y-12201912D01*
X13423158Y-12297150D02*
X13423158Y-12430484D01*
X13423158Y-12316198D02*
X13432682Y-12306674D01*
X13432682Y-12306674D02*
X13451730Y-12297150D01*
X13451730Y-12297150D02*
X13480301Y-12297150D01*
X13480301Y-12297150D02*
X13499349Y-12306674D01*
X13499349Y-12306674D02*
X13508872Y-12325722D01*
X13508872Y-12325722D02*
X13508872Y-12430484D01*
X13632682Y-12430484D02*
X13613634Y-12420960D01*
X13613634Y-12420960D02*
X13604111Y-12411436D01*
X13604111Y-12411436D02*
X13594587Y-12392388D01*
X13594587Y-12392388D02*
X13594587Y-12335246D01*
X13594587Y-12335246D02*
X13604111Y-12316198D01*
X13604111Y-12316198D02*
X13613634Y-12306674D01*
X13613634Y-12306674D02*
X13632682Y-12297150D01*
X13632682Y-12297150D02*
X13661253Y-12297150D01*
X13661253Y-12297150D02*
X13680301Y-12306674D01*
X13680301Y-12306674D02*
X13689825Y-12316198D01*
X13689825Y-12316198D02*
X13699349Y-12335246D01*
X13699349Y-12335246D02*
X13699349Y-12392388D01*
X13699349Y-12392388D02*
X13689825Y-12411436D01*
X13689825Y-12411436D02*
X13680301Y-12420960D01*
X13680301Y-12420960D02*
X13661253Y-12430484D01*
X13661253Y-12430484D02*
X13632682Y-12430484D01*
X13756492Y-12297150D02*
X13832682Y-12297150D01*
X13785063Y-12230484D02*
X13785063Y-12401912D01*
X13785063Y-12401912D02*
X13794587Y-12420960D01*
X13794587Y-12420960D02*
X13813634Y-12430484D01*
X13813634Y-12430484D02*
X13832682Y-12430484D01*
X14051730Y-12297150D02*
X14051730Y-12497150D01*
X14051730Y-12306674D02*
X14070777Y-12297150D01*
X14070777Y-12297150D02*
X14108873Y-12297150D01*
X14108873Y-12297150D02*
X14127920Y-12306674D01*
X14127920Y-12306674D02*
X14137444Y-12316198D01*
X14137444Y-12316198D02*
X14146968Y-12335246D01*
X14146968Y-12335246D02*
X14146968Y-12392388D01*
X14146968Y-12392388D02*
X14137444Y-12411436D01*
X14137444Y-12411436D02*
X14127920Y-12420960D01*
X14127920Y-12420960D02*
X14108873Y-12430484D01*
X14108873Y-12430484D02*
X14070777Y-12430484D01*
X14070777Y-12430484D02*
X14051730Y-12420960D01*
X14261253Y-12430484D02*
X14242206Y-12420960D01*
X14242206Y-12420960D02*
X14232682Y-12401912D01*
X14232682Y-12401912D02*
X14232682Y-12230484D01*
X14423158Y-12430484D02*
X14423158Y-12325722D01*
X14423158Y-12325722D02*
X14413634Y-12306674D01*
X14413634Y-12306674D02*
X14394587Y-12297150D01*
X14394587Y-12297150D02*
X14356492Y-12297150D01*
X14356492Y-12297150D02*
X14337444Y-12306674D01*
X14423158Y-12420960D02*
X14404111Y-12430484D01*
X14404111Y-12430484D02*
X14356492Y-12430484D01*
X14356492Y-12430484D02*
X14337444Y-12420960D01*
X14337444Y-12420960D02*
X14327920Y-12401912D01*
X14327920Y-12401912D02*
X14327920Y-12382865D01*
X14327920Y-12382865D02*
X14337444Y-12363817D01*
X14337444Y-12363817D02*
X14356492Y-12354293D01*
X14356492Y-12354293D02*
X14404111Y-12354293D01*
X14404111Y-12354293D02*
X14423158Y-12344769D01*
X14489825Y-12297150D02*
X14566015Y-12297150D01*
X14518396Y-12230484D02*
X14518396Y-12401912D01*
X14518396Y-12401912D02*
X14527920Y-12420960D01*
X14527920Y-12420960D02*
X14546968Y-12430484D01*
X14546968Y-12430484D02*
X14566015Y-12430484D01*
X14708873Y-12420960D02*
X14689825Y-12430484D01*
X14689825Y-12430484D02*
X14651730Y-12430484D01*
X14651730Y-12430484D02*
X14632682Y-12420960D01*
X14632682Y-12420960D02*
X14623158Y-12401912D01*
X14623158Y-12401912D02*
X14623158Y-12325722D01*
X14623158Y-12325722D02*
X14632682Y-12306674D01*
X14632682Y-12306674D02*
X14651730Y-12297150D01*
X14651730Y-12297150D02*
X14689825Y-12297150D01*
X14689825Y-12297150D02*
X14708873Y-12306674D01*
X14708873Y-12306674D02*
X14718396Y-12325722D01*
X14718396Y-12325722D02*
X14718396Y-12344769D01*
X14718396Y-12344769D02*
X14623158Y-12363817D01*
X14889825Y-12430484D02*
X14889825Y-12230484D01*
X14889825Y-12420960D02*
X14870777Y-12430484D01*
X14870777Y-12430484D02*
X14832682Y-12430484D01*
X14832682Y-12430484D02*
X14813634Y-12420960D01*
X14813634Y-12420960D02*
X14804111Y-12411436D01*
X14804111Y-12411436D02*
X14794587Y-12392388D01*
X14794587Y-12392388D02*
X14794587Y-12335246D01*
X14794587Y-12335246D02*
X14804111Y-12316198D01*
X14804111Y-12316198D02*
X14813634Y-12306674D01*
X14813634Y-12306674D02*
X14832682Y-12297150D01*
X14832682Y-12297150D02*
X14870777Y-12297150D01*
X14870777Y-12297150D02*
X14889825Y-12306674D01*
X14966015Y-12506674D02*
X14975539Y-12497150D01*
X14975539Y-12497150D02*
X14994587Y-12468579D01*
X14994587Y-12468579D02*
X15004111Y-12449531D01*
X15004111Y-12449531D02*
X15013634Y-12420960D01*
X15013634Y-12420960D02*
X15023158Y-12373341D01*
X15023158Y-12373341D02*
X15023158Y-12335246D01*
X15023158Y-12335246D02*
X15013634Y-12287627D01*
X15013634Y-12287627D02*
X15004111Y-12259055D01*
X15004111Y-12259055D02*
X14994587Y-12240008D01*
X14994587Y-12240008D02*
X14975539Y-12211436D01*
X14975539Y-12211436D02*
X14966015Y-12201912D01*
M02*
