%TF.GenerationSoftware,KiCad,Pcbnew,7.0.8*%
%TF.CreationDate,2025-03-15T15:23:11-04:00*%
%TF.ProjectId,v2315power,76323331-3570-46f7-9765-722e6b696361,rev?*%
%TF.SameCoordinates,Original*%
%TF.FileFunction,Legend,Top*%
%TF.FilePolarity,Positive*%
%FSLAX46Y46*%
G04 Gerber Fmt 4.6, Leading zero omitted, Abs format (unit mm)*
G04 Created by KiCad (PCBNEW 7.0.8) date 2025-03-15 15:23:11*
%MOMM*%
%LPD*%
G01*
G04 APERTURE LIST*
%ADD10C,0.300000*%
%ADD11C,0.150000*%
%ADD12C,0.120000*%
G04 APERTURE END LIST*
D10*
X138774510Y-110880828D02*
X138774510Y-109380828D01*
X138774510Y-109380828D02*
X139345939Y-109380828D01*
X139345939Y-109380828D02*
X139488796Y-109452257D01*
X139488796Y-109452257D02*
X139560225Y-109523685D01*
X139560225Y-109523685D02*
X139631653Y-109666542D01*
X139631653Y-109666542D02*
X139631653Y-109880828D01*
X139631653Y-109880828D02*
X139560225Y-110023685D01*
X139560225Y-110023685D02*
X139488796Y-110095114D01*
X139488796Y-110095114D02*
X139345939Y-110166542D01*
X139345939Y-110166542D02*
X138774510Y-110166542D01*
X140488796Y-110880828D02*
X140345939Y-110809400D01*
X140345939Y-110809400D02*
X140274510Y-110737971D01*
X140274510Y-110737971D02*
X140203082Y-110595114D01*
X140203082Y-110595114D02*
X140203082Y-110166542D01*
X140203082Y-110166542D02*
X140274510Y-110023685D01*
X140274510Y-110023685D02*
X140345939Y-109952257D01*
X140345939Y-109952257D02*
X140488796Y-109880828D01*
X140488796Y-109880828D02*
X140703082Y-109880828D01*
X140703082Y-109880828D02*
X140845939Y-109952257D01*
X140845939Y-109952257D02*
X140917368Y-110023685D01*
X140917368Y-110023685D02*
X140988796Y-110166542D01*
X140988796Y-110166542D02*
X140988796Y-110595114D01*
X140988796Y-110595114D02*
X140917368Y-110737971D01*
X140917368Y-110737971D02*
X140845939Y-110809400D01*
X140845939Y-110809400D02*
X140703082Y-110880828D01*
X140703082Y-110880828D02*
X140488796Y-110880828D01*
X141488796Y-109880828D02*
X141774511Y-110880828D01*
X141774511Y-110880828D02*
X142060225Y-110166542D01*
X142060225Y-110166542D02*
X142345939Y-110880828D01*
X142345939Y-110880828D02*
X142631653Y-109880828D01*
X143774511Y-110809400D02*
X143631654Y-110880828D01*
X143631654Y-110880828D02*
X143345940Y-110880828D01*
X143345940Y-110880828D02*
X143203082Y-110809400D01*
X143203082Y-110809400D02*
X143131654Y-110666542D01*
X143131654Y-110666542D02*
X143131654Y-110095114D01*
X143131654Y-110095114D02*
X143203082Y-109952257D01*
X143203082Y-109952257D02*
X143345940Y-109880828D01*
X143345940Y-109880828D02*
X143631654Y-109880828D01*
X143631654Y-109880828D02*
X143774511Y-109952257D01*
X143774511Y-109952257D02*
X143845940Y-110095114D01*
X143845940Y-110095114D02*
X143845940Y-110237971D01*
X143845940Y-110237971D02*
X143131654Y-110380828D01*
X144488796Y-110880828D02*
X144488796Y-109880828D01*
X144488796Y-110166542D02*
X144560225Y-110023685D01*
X144560225Y-110023685D02*
X144631654Y-109952257D01*
X144631654Y-109952257D02*
X144774511Y-109880828D01*
X144774511Y-109880828D02*
X144917368Y-109880828D01*
X147060224Y-110095114D02*
X146560224Y-110095114D01*
X146560224Y-110880828D02*
X146560224Y-109380828D01*
X146560224Y-109380828D02*
X147274510Y-109380828D01*
X148488796Y-110880828D02*
X148488796Y-110095114D01*
X148488796Y-110095114D02*
X148417367Y-109952257D01*
X148417367Y-109952257D02*
X148274510Y-109880828D01*
X148274510Y-109880828D02*
X147988796Y-109880828D01*
X147988796Y-109880828D02*
X147845938Y-109952257D01*
X148488796Y-110809400D02*
X148345938Y-110880828D01*
X148345938Y-110880828D02*
X147988796Y-110880828D01*
X147988796Y-110880828D02*
X147845938Y-110809400D01*
X147845938Y-110809400D02*
X147774510Y-110666542D01*
X147774510Y-110666542D02*
X147774510Y-110523685D01*
X147774510Y-110523685D02*
X147845938Y-110380828D01*
X147845938Y-110380828D02*
X147988796Y-110309400D01*
X147988796Y-110309400D02*
X148345938Y-110309400D01*
X148345938Y-110309400D02*
X148488796Y-110237971D01*
X149203081Y-110880828D02*
X149203081Y-109880828D01*
X149203081Y-109380828D02*
X149131653Y-109452257D01*
X149131653Y-109452257D02*
X149203081Y-109523685D01*
X149203081Y-109523685D02*
X149274510Y-109452257D01*
X149274510Y-109452257D02*
X149203081Y-109380828D01*
X149203081Y-109380828D02*
X149203081Y-109523685D01*
X150131653Y-110880828D02*
X149988796Y-110809400D01*
X149988796Y-110809400D02*
X149917367Y-110666542D01*
X149917367Y-110666542D02*
X149917367Y-109380828D01*
X97121653Y-91569971D02*
X97050225Y-91641400D01*
X97050225Y-91641400D02*
X96835939Y-91712828D01*
X96835939Y-91712828D02*
X96693082Y-91712828D01*
X96693082Y-91712828D02*
X96478796Y-91641400D01*
X96478796Y-91641400D02*
X96335939Y-91498542D01*
X96335939Y-91498542D02*
X96264510Y-91355685D01*
X96264510Y-91355685D02*
X96193082Y-91069971D01*
X96193082Y-91069971D02*
X96193082Y-90855685D01*
X96193082Y-90855685D02*
X96264510Y-90569971D01*
X96264510Y-90569971D02*
X96335939Y-90427114D01*
X96335939Y-90427114D02*
X96478796Y-90284257D01*
X96478796Y-90284257D02*
X96693082Y-90212828D01*
X96693082Y-90212828D02*
X96835939Y-90212828D01*
X96835939Y-90212828D02*
X97050225Y-90284257D01*
X97050225Y-90284257D02*
X97121653Y-90355685D01*
X97764510Y-91712828D02*
X97764510Y-90212828D01*
X98407368Y-91712828D02*
X98407368Y-90927114D01*
X98407368Y-90927114D02*
X98335939Y-90784257D01*
X98335939Y-90784257D02*
X98193082Y-90712828D01*
X98193082Y-90712828D02*
X97978796Y-90712828D01*
X97978796Y-90712828D02*
X97835939Y-90784257D01*
X97835939Y-90784257D02*
X97764510Y-90855685D01*
X99121653Y-91712828D02*
X99121653Y-90712828D01*
X99121653Y-90998542D02*
X99193082Y-90855685D01*
X99193082Y-90855685D02*
X99264511Y-90784257D01*
X99264511Y-90784257D02*
X99407368Y-90712828D01*
X99407368Y-90712828D02*
X99550225Y-90712828D01*
X100693082Y-90712828D02*
X100693082Y-91927114D01*
X100693082Y-91927114D02*
X100621653Y-92069971D01*
X100621653Y-92069971D02*
X100550224Y-92141400D01*
X100550224Y-92141400D02*
X100407367Y-92212828D01*
X100407367Y-92212828D02*
X100193082Y-92212828D01*
X100193082Y-92212828D02*
X100050224Y-92141400D01*
X100693082Y-91641400D02*
X100550224Y-91712828D01*
X100550224Y-91712828D02*
X100264510Y-91712828D01*
X100264510Y-91712828D02*
X100121653Y-91641400D01*
X100121653Y-91641400D02*
X100050224Y-91569971D01*
X100050224Y-91569971D02*
X99978796Y-91427114D01*
X99978796Y-91427114D02*
X99978796Y-90998542D01*
X99978796Y-90998542D02*
X100050224Y-90855685D01*
X100050224Y-90855685D02*
X100121653Y-90784257D01*
X100121653Y-90784257D02*
X100264510Y-90712828D01*
X100264510Y-90712828D02*
X100550224Y-90712828D01*
X100550224Y-90712828D02*
X100693082Y-90784257D01*
X101407367Y-91141400D02*
X102550225Y-91141400D01*
X101978796Y-91712828D02*
X101978796Y-90569971D01*
X96050225Y-100630828D02*
X96907368Y-100630828D01*
X96478796Y-102130828D02*
X96478796Y-100630828D01*
X97407367Y-102130828D02*
X97407367Y-100630828D01*
X97407367Y-100630828D02*
X97764510Y-100630828D01*
X97764510Y-100630828D02*
X97978796Y-100702257D01*
X97978796Y-100702257D02*
X98121653Y-100845114D01*
X98121653Y-100845114D02*
X98193082Y-100987971D01*
X98193082Y-100987971D02*
X98264510Y-101273685D01*
X98264510Y-101273685D02*
X98264510Y-101487971D01*
X98264510Y-101487971D02*
X98193082Y-101773685D01*
X98193082Y-101773685D02*
X98121653Y-101916542D01*
X98121653Y-101916542D02*
X97978796Y-102059400D01*
X97978796Y-102059400D02*
X97764510Y-102130828D01*
X97764510Y-102130828D02*
X97407367Y-102130828D01*
X100050224Y-102130828D02*
X100050224Y-101130828D01*
X100050224Y-101416542D02*
X100121653Y-101273685D01*
X100121653Y-101273685D02*
X100193082Y-101202257D01*
X100193082Y-101202257D02*
X100335939Y-101130828D01*
X100335939Y-101130828D02*
X100478796Y-101130828D01*
X101550224Y-102059400D02*
X101407367Y-102130828D01*
X101407367Y-102130828D02*
X101121653Y-102130828D01*
X101121653Y-102130828D02*
X100978795Y-102059400D01*
X100978795Y-102059400D02*
X100907367Y-101916542D01*
X100907367Y-101916542D02*
X100907367Y-101345114D01*
X100907367Y-101345114D02*
X100978795Y-101202257D01*
X100978795Y-101202257D02*
X101121653Y-101130828D01*
X101121653Y-101130828D02*
X101407367Y-101130828D01*
X101407367Y-101130828D02*
X101550224Y-101202257D01*
X101550224Y-101202257D02*
X101621653Y-101345114D01*
X101621653Y-101345114D02*
X101621653Y-101487971D01*
X101621653Y-101487971D02*
X100907367Y-101630828D01*
X102478795Y-102130828D02*
X102335938Y-102059400D01*
X102335938Y-102059400D02*
X102264509Y-101916542D01*
X102264509Y-101916542D02*
X102264509Y-100630828D01*
X103693081Y-102130828D02*
X103693081Y-101345114D01*
X103693081Y-101345114D02*
X103621652Y-101202257D01*
X103621652Y-101202257D02*
X103478795Y-101130828D01*
X103478795Y-101130828D02*
X103193081Y-101130828D01*
X103193081Y-101130828D02*
X103050223Y-101202257D01*
X103693081Y-102059400D02*
X103550223Y-102130828D01*
X103550223Y-102130828D02*
X103193081Y-102130828D01*
X103193081Y-102130828D02*
X103050223Y-102059400D01*
X103050223Y-102059400D02*
X102978795Y-101916542D01*
X102978795Y-101916542D02*
X102978795Y-101773685D01*
X102978795Y-101773685D02*
X103050223Y-101630828D01*
X103050223Y-101630828D02*
X103193081Y-101559400D01*
X103193081Y-101559400D02*
X103550223Y-101559400D01*
X103550223Y-101559400D02*
X103693081Y-101487971D01*
X104264509Y-101130828D02*
X104621652Y-102130828D01*
X104978795Y-101130828D02*
X104621652Y-102130828D01*
X104621652Y-102130828D02*
X104478795Y-102487971D01*
X104478795Y-102487971D02*
X104407366Y-102559400D01*
X104407366Y-102559400D02*
X104264509Y-102630828D01*
X107478795Y-102130828D02*
X106621652Y-102130828D01*
X107050223Y-102130828D02*
X107050223Y-100630828D01*
X107050223Y-100630828D02*
X106907366Y-100845114D01*
X106907366Y-100845114D02*
X106764509Y-100987971D01*
X106764509Y-100987971D02*
X106621652Y-101059400D01*
X107410225Y-68095828D02*
X107910225Y-69595828D01*
X107910225Y-69595828D02*
X108410225Y-68095828D01*
X108910224Y-69595828D02*
X108910224Y-68595828D01*
X108910224Y-68095828D02*
X108838796Y-68167257D01*
X108838796Y-68167257D02*
X108910224Y-68238685D01*
X108910224Y-68238685D02*
X108981653Y-68167257D01*
X108981653Y-68167257D02*
X108910224Y-68095828D01*
X108910224Y-68095828D02*
X108910224Y-68238685D01*
X109624510Y-69595828D02*
X109624510Y-68595828D01*
X109624510Y-68881542D02*
X109695939Y-68738685D01*
X109695939Y-68738685D02*
X109767368Y-68667257D01*
X109767368Y-68667257D02*
X109910225Y-68595828D01*
X109910225Y-68595828D02*
X110053082Y-68595828D01*
X110338796Y-68595828D02*
X110910224Y-68595828D01*
X110553081Y-68095828D02*
X110553081Y-69381542D01*
X110553081Y-69381542D02*
X110624510Y-69524400D01*
X110624510Y-69524400D02*
X110767367Y-69595828D01*
X110767367Y-69595828D02*
X110910224Y-69595828D01*
X112053082Y-68595828D02*
X112053082Y-69595828D01*
X111410224Y-68595828D02*
X111410224Y-69381542D01*
X111410224Y-69381542D02*
X111481653Y-69524400D01*
X111481653Y-69524400D02*
X111624510Y-69595828D01*
X111624510Y-69595828D02*
X111838796Y-69595828D01*
X111838796Y-69595828D02*
X111981653Y-69524400D01*
X111981653Y-69524400D02*
X112053082Y-69452971D01*
X113410225Y-69595828D02*
X113410225Y-68810114D01*
X113410225Y-68810114D02*
X113338796Y-68667257D01*
X113338796Y-68667257D02*
X113195939Y-68595828D01*
X113195939Y-68595828D02*
X112910225Y-68595828D01*
X112910225Y-68595828D02*
X112767367Y-68667257D01*
X113410225Y-69524400D02*
X113267367Y-69595828D01*
X113267367Y-69595828D02*
X112910225Y-69595828D01*
X112910225Y-69595828D02*
X112767367Y-69524400D01*
X112767367Y-69524400D02*
X112695939Y-69381542D01*
X112695939Y-69381542D02*
X112695939Y-69238685D01*
X112695939Y-69238685D02*
X112767367Y-69095828D01*
X112767367Y-69095828D02*
X112910225Y-69024400D01*
X112910225Y-69024400D02*
X113267367Y-69024400D01*
X113267367Y-69024400D02*
X113410225Y-68952971D01*
X114338796Y-69595828D02*
X114195939Y-69524400D01*
X114195939Y-69524400D02*
X114124510Y-69381542D01*
X114124510Y-69381542D02*
X114124510Y-68095828D01*
X115981653Y-68238685D02*
X116053081Y-68167257D01*
X116053081Y-68167257D02*
X116195939Y-68095828D01*
X116195939Y-68095828D02*
X116553081Y-68095828D01*
X116553081Y-68095828D02*
X116695939Y-68167257D01*
X116695939Y-68167257D02*
X116767367Y-68238685D01*
X116767367Y-68238685D02*
X116838796Y-68381542D01*
X116838796Y-68381542D02*
X116838796Y-68524400D01*
X116838796Y-68524400D02*
X116767367Y-68738685D01*
X116767367Y-68738685D02*
X115910224Y-69595828D01*
X115910224Y-69595828D02*
X116838796Y-69595828D01*
X117338795Y-68095828D02*
X118267367Y-68095828D01*
X118267367Y-68095828D02*
X117767367Y-68667257D01*
X117767367Y-68667257D02*
X117981652Y-68667257D01*
X117981652Y-68667257D02*
X118124510Y-68738685D01*
X118124510Y-68738685D02*
X118195938Y-68810114D01*
X118195938Y-68810114D02*
X118267367Y-68952971D01*
X118267367Y-68952971D02*
X118267367Y-69310114D01*
X118267367Y-69310114D02*
X118195938Y-69452971D01*
X118195938Y-69452971D02*
X118124510Y-69524400D01*
X118124510Y-69524400D02*
X117981652Y-69595828D01*
X117981652Y-69595828D02*
X117553081Y-69595828D01*
X117553081Y-69595828D02*
X117410224Y-69524400D01*
X117410224Y-69524400D02*
X117338795Y-69452971D01*
X119695938Y-69595828D02*
X118838795Y-69595828D01*
X119267366Y-69595828D02*
X119267366Y-68095828D01*
X119267366Y-68095828D02*
X119124509Y-68310114D01*
X119124509Y-68310114D02*
X118981652Y-68452971D01*
X118981652Y-68452971D02*
X118838795Y-68524400D01*
X121053080Y-68095828D02*
X120338794Y-68095828D01*
X120338794Y-68095828D02*
X120267366Y-68810114D01*
X120267366Y-68810114D02*
X120338794Y-68738685D01*
X120338794Y-68738685D02*
X120481652Y-68667257D01*
X120481652Y-68667257D02*
X120838794Y-68667257D01*
X120838794Y-68667257D02*
X120981652Y-68738685D01*
X120981652Y-68738685D02*
X121053080Y-68810114D01*
X121053080Y-68810114D02*
X121124509Y-68952971D01*
X121124509Y-68952971D02*
X121124509Y-69310114D01*
X121124509Y-69310114D02*
X121053080Y-69452971D01*
X121053080Y-69452971D02*
X120981652Y-69524400D01*
X120981652Y-69524400D02*
X120838794Y-69595828D01*
X120838794Y-69595828D02*
X120481652Y-69595828D01*
X120481652Y-69595828D02*
X120338794Y-69524400D01*
X120338794Y-69524400D02*
X120267366Y-69452971D01*
X123767365Y-69452971D02*
X123695937Y-69524400D01*
X123695937Y-69524400D02*
X123481651Y-69595828D01*
X123481651Y-69595828D02*
X123338794Y-69595828D01*
X123338794Y-69595828D02*
X123124508Y-69524400D01*
X123124508Y-69524400D02*
X122981651Y-69381542D01*
X122981651Y-69381542D02*
X122910222Y-69238685D01*
X122910222Y-69238685D02*
X122838794Y-68952971D01*
X122838794Y-68952971D02*
X122838794Y-68738685D01*
X122838794Y-68738685D02*
X122910222Y-68452971D01*
X122910222Y-68452971D02*
X122981651Y-68310114D01*
X122981651Y-68310114D02*
X123124508Y-68167257D01*
X123124508Y-68167257D02*
X123338794Y-68095828D01*
X123338794Y-68095828D02*
X123481651Y-68095828D01*
X123481651Y-68095828D02*
X123695937Y-68167257D01*
X123695937Y-68167257D02*
X123767365Y-68238685D01*
X125053080Y-69595828D02*
X125053080Y-68810114D01*
X125053080Y-68810114D02*
X124981651Y-68667257D01*
X124981651Y-68667257D02*
X124838794Y-68595828D01*
X124838794Y-68595828D02*
X124553080Y-68595828D01*
X124553080Y-68595828D02*
X124410222Y-68667257D01*
X125053080Y-69524400D02*
X124910222Y-69595828D01*
X124910222Y-69595828D02*
X124553080Y-69595828D01*
X124553080Y-69595828D02*
X124410222Y-69524400D01*
X124410222Y-69524400D02*
X124338794Y-69381542D01*
X124338794Y-69381542D02*
X124338794Y-69238685D01*
X124338794Y-69238685D02*
X124410222Y-69095828D01*
X124410222Y-69095828D02*
X124553080Y-69024400D01*
X124553080Y-69024400D02*
X124910222Y-69024400D01*
X124910222Y-69024400D02*
X125053080Y-68952971D01*
X125767365Y-69595828D02*
X125767365Y-68595828D01*
X125767365Y-68881542D02*
X125838794Y-68738685D01*
X125838794Y-68738685D02*
X125910223Y-68667257D01*
X125910223Y-68667257D02*
X126053080Y-68595828D01*
X126053080Y-68595828D02*
X126195937Y-68595828D01*
X126481651Y-68595828D02*
X127053079Y-68595828D01*
X126695936Y-68095828D02*
X126695936Y-69381542D01*
X126695936Y-69381542D02*
X126767365Y-69524400D01*
X126767365Y-69524400D02*
X126910222Y-69595828D01*
X126910222Y-69595828D02*
X127053079Y-69595828D01*
X127553079Y-69595828D02*
X127553079Y-68595828D01*
X127553079Y-68881542D02*
X127624508Y-68738685D01*
X127624508Y-68738685D02*
X127695937Y-68667257D01*
X127695937Y-68667257D02*
X127838794Y-68595828D01*
X127838794Y-68595828D02*
X127981651Y-68595828D01*
X128481650Y-69595828D02*
X128481650Y-68595828D01*
X128481650Y-68095828D02*
X128410222Y-68167257D01*
X128410222Y-68167257D02*
X128481650Y-68238685D01*
X128481650Y-68238685D02*
X128553079Y-68167257D01*
X128553079Y-68167257D02*
X128481650Y-68095828D01*
X128481650Y-68095828D02*
X128481650Y-68238685D01*
X129838794Y-69595828D02*
X129838794Y-68095828D01*
X129838794Y-69524400D02*
X129695936Y-69595828D01*
X129695936Y-69595828D02*
X129410222Y-69595828D01*
X129410222Y-69595828D02*
X129267365Y-69524400D01*
X129267365Y-69524400D02*
X129195936Y-69452971D01*
X129195936Y-69452971D02*
X129124508Y-69310114D01*
X129124508Y-69310114D02*
X129124508Y-68881542D01*
X129124508Y-68881542D02*
X129195936Y-68738685D01*
X129195936Y-68738685D02*
X129267365Y-68667257D01*
X129267365Y-68667257D02*
X129410222Y-68595828D01*
X129410222Y-68595828D02*
X129695936Y-68595828D01*
X129695936Y-68595828D02*
X129838794Y-68667257D01*
X131195937Y-68595828D02*
X131195937Y-69810114D01*
X131195937Y-69810114D02*
X131124508Y-69952971D01*
X131124508Y-69952971D02*
X131053079Y-70024400D01*
X131053079Y-70024400D02*
X130910222Y-70095828D01*
X130910222Y-70095828D02*
X130695937Y-70095828D01*
X130695937Y-70095828D02*
X130553079Y-70024400D01*
X131195937Y-69524400D02*
X131053079Y-69595828D01*
X131053079Y-69595828D02*
X130767365Y-69595828D01*
X130767365Y-69595828D02*
X130624508Y-69524400D01*
X130624508Y-69524400D02*
X130553079Y-69452971D01*
X130553079Y-69452971D02*
X130481651Y-69310114D01*
X130481651Y-69310114D02*
X130481651Y-68881542D01*
X130481651Y-68881542D02*
X130553079Y-68738685D01*
X130553079Y-68738685D02*
X130624508Y-68667257D01*
X130624508Y-68667257D02*
X130767365Y-68595828D01*
X130767365Y-68595828D02*
X131053079Y-68595828D01*
X131053079Y-68595828D02*
X131195937Y-68667257D01*
X132481651Y-69524400D02*
X132338794Y-69595828D01*
X132338794Y-69595828D02*
X132053080Y-69595828D01*
X132053080Y-69595828D02*
X131910222Y-69524400D01*
X131910222Y-69524400D02*
X131838794Y-69381542D01*
X131838794Y-69381542D02*
X131838794Y-68810114D01*
X131838794Y-68810114D02*
X131910222Y-68667257D01*
X131910222Y-68667257D02*
X132053080Y-68595828D01*
X132053080Y-68595828D02*
X132338794Y-68595828D01*
X132338794Y-68595828D02*
X132481651Y-68667257D01*
X132481651Y-68667257D02*
X132553080Y-68810114D01*
X132553080Y-68810114D02*
X132553080Y-68952971D01*
X132553080Y-68952971D02*
X131838794Y-69095828D01*
X134838793Y-68810114D02*
X134338793Y-68810114D01*
X134338793Y-69595828D02*
X134338793Y-68095828D01*
X134338793Y-68095828D02*
X135053079Y-68095828D01*
X136267365Y-69595828D02*
X136267365Y-68810114D01*
X136267365Y-68810114D02*
X136195936Y-68667257D01*
X136195936Y-68667257D02*
X136053079Y-68595828D01*
X136053079Y-68595828D02*
X135767365Y-68595828D01*
X135767365Y-68595828D02*
X135624507Y-68667257D01*
X136267365Y-69524400D02*
X136124507Y-69595828D01*
X136124507Y-69595828D02*
X135767365Y-69595828D01*
X135767365Y-69595828D02*
X135624507Y-69524400D01*
X135624507Y-69524400D02*
X135553079Y-69381542D01*
X135553079Y-69381542D02*
X135553079Y-69238685D01*
X135553079Y-69238685D02*
X135624507Y-69095828D01*
X135624507Y-69095828D02*
X135767365Y-69024400D01*
X135767365Y-69024400D02*
X136124507Y-69024400D01*
X136124507Y-69024400D02*
X136267365Y-68952971D01*
X137624508Y-69524400D02*
X137481650Y-69595828D01*
X137481650Y-69595828D02*
X137195936Y-69595828D01*
X137195936Y-69595828D02*
X137053079Y-69524400D01*
X137053079Y-69524400D02*
X136981650Y-69452971D01*
X136981650Y-69452971D02*
X136910222Y-69310114D01*
X136910222Y-69310114D02*
X136910222Y-68881542D01*
X136910222Y-68881542D02*
X136981650Y-68738685D01*
X136981650Y-68738685D02*
X137053079Y-68667257D01*
X137053079Y-68667257D02*
X137195936Y-68595828D01*
X137195936Y-68595828D02*
X137481650Y-68595828D01*
X137481650Y-68595828D02*
X137624508Y-68667257D01*
X138267364Y-69595828D02*
X138267364Y-68595828D01*
X138267364Y-68095828D02*
X138195936Y-68167257D01*
X138195936Y-68167257D02*
X138267364Y-68238685D01*
X138267364Y-68238685D02*
X138338793Y-68167257D01*
X138338793Y-68167257D02*
X138267364Y-68095828D01*
X138267364Y-68095828D02*
X138267364Y-68238685D01*
X139195936Y-69595828D02*
X139053079Y-69524400D01*
X139053079Y-69524400D02*
X138981650Y-69381542D01*
X138981650Y-69381542D02*
X138981650Y-68095828D01*
X139767364Y-69595828D02*
X139767364Y-68595828D01*
X139767364Y-68095828D02*
X139695936Y-68167257D01*
X139695936Y-68167257D02*
X139767364Y-68238685D01*
X139767364Y-68238685D02*
X139838793Y-68167257D01*
X139838793Y-68167257D02*
X139767364Y-68095828D01*
X139767364Y-68095828D02*
X139767364Y-68238685D01*
X140267365Y-68595828D02*
X140838793Y-68595828D01*
X140481650Y-68095828D02*
X140481650Y-69381542D01*
X140481650Y-69381542D02*
X140553079Y-69524400D01*
X140553079Y-69524400D02*
X140695936Y-69595828D01*
X140695936Y-69595828D02*
X140838793Y-69595828D01*
X141195936Y-68595828D02*
X141553079Y-69595828D01*
X141910222Y-68595828D02*
X141553079Y-69595828D01*
X141553079Y-69595828D02*
X141410222Y-69952971D01*
X141410222Y-69952971D02*
X141338793Y-70024400D01*
X141338793Y-70024400D02*
X141195936Y-70095828D01*
X107624510Y-72010828D02*
X107624510Y-70510828D01*
X107624510Y-70510828D02*
X108195939Y-70510828D01*
X108195939Y-70510828D02*
X108338796Y-70582257D01*
X108338796Y-70582257D02*
X108410225Y-70653685D01*
X108410225Y-70653685D02*
X108481653Y-70796542D01*
X108481653Y-70796542D02*
X108481653Y-71010828D01*
X108481653Y-71010828D02*
X108410225Y-71153685D01*
X108410225Y-71153685D02*
X108338796Y-71225114D01*
X108338796Y-71225114D02*
X108195939Y-71296542D01*
X108195939Y-71296542D02*
X107624510Y-71296542D01*
X109338796Y-72010828D02*
X109195939Y-71939400D01*
X109195939Y-71939400D02*
X109124510Y-71867971D01*
X109124510Y-71867971D02*
X109053082Y-71725114D01*
X109053082Y-71725114D02*
X109053082Y-71296542D01*
X109053082Y-71296542D02*
X109124510Y-71153685D01*
X109124510Y-71153685D02*
X109195939Y-71082257D01*
X109195939Y-71082257D02*
X109338796Y-71010828D01*
X109338796Y-71010828D02*
X109553082Y-71010828D01*
X109553082Y-71010828D02*
X109695939Y-71082257D01*
X109695939Y-71082257D02*
X109767368Y-71153685D01*
X109767368Y-71153685D02*
X109838796Y-71296542D01*
X109838796Y-71296542D02*
X109838796Y-71725114D01*
X109838796Y-71725114D02*
X109767368Y-71867971D01*
X109767368Y-71867971D02*
X109695939Y-71939400D01*
X109695939Y-71939400D02*
X109553082Y-72010828D01*
X109553082Y-72010828D02*
X109338796Y-72010828D01*
X110338796Y-71010828D02*
X110624511Y-72010828D01*
X110624511Y-72010828D02*
X110910225Y-71296542D01*
X110910225Y-71296542D02*
X111195939Y-72010828D01*
X111195939Y-72010828D02*
X111481653Y-71010828D01*
X112624511Y-71939400D02*
X112481654Y-72010828D01*
X112481654Y-72010828D02*
X112195940Y-72010828D01*
X112195940Y-72010828D02*
X112053082Y-71939400D01*
X112053082Y-71939400D02*
X111981654Y-71796542D01*
X111981654Y-71796542D02*
X111981654Y-71225114D01*
X111981654Y-71225114D02*
X112053082Y-71082257D01*
X112053082Y-71082257D02*
X112195940Y-71010828D01*
X112195940Y-71010828D02*
X112481654Y-71010828D01*
X112481654Y-71010828D02*
X112624511Y-71082257D01*
X112624511Y-71082257D02*
X112695940Y-71225114D01*
X112695940Y-71225114D02*
X112695940Y-71367971D01*
X112695940Y-71367971D02*
X111981654Y-71510828D01*
X113338796Y-72010828D02*
X113338796Y-71010828D01*
X113338796Y-71296542D02*
X113410225Y-71153685D01*
X113410225Y-71153685D02*
X113481654Y-71082257D01*
X113481654Y-71082257D02*
X113624511Y-71010828D01*
X113624511Y-71010828D02*
X113767368Y-71010828D01*
X115410224Y-72010828D02*
X115410224Y-70510828D01*
X115410224Y-70510828D02*
X115767367Y-70510828D01*
X115767367Y-70510828D02*
X115981653Y-70582257D01*
X115981653Y-70582257D02*
X116124510Y-70725114D01*
X116124510Y-70725114D02*
X116195939Y-70867971D01*
X116195939Y-70867971D02*
X116267367Y-71153685D01*
X116267367Y-71153685D02*
X116267367Y-71367971D01*
X116267367Y-71367971D02*
X116195939Y-71653685D01*
X116195939Y-71653685D02*
X116124510Y-71796542D01*
X116124510Y-71796542D02*
X115981653Y-71939400D01*
X115981653Y-71939400D02*
X115767367Y-72010828D01*
X115767367Y-72010828D02*
X115410224Y-72010828D01*
X116910224Y-72010828D02*
X116910224Y-71010828D01*
X116910224Y-70510828D02*
X116838796Y-70582257D01*
X116838796Y-70582257D02*
X116910224Y-70653685D01*
X116910224Y-70653685D02*
X116981653Y-70582257D01*
X116981653Y-70582257D02*
X116910224Y-70510828D01*
X116910224Y-70510828D02*
X116910224Y-70653685D01*
X117553082Y-71939400D02*
X117695939Y-72010828D01*
X117695939Y-72010828D02*
X117981653Y-72010828D01*
X117981653Y-72010828D02*
X118124510Y-71939400D01*
X118124510Y-71939400D02*
X118195939Y-71796542D01*
X118195939Y-71796542D02*
X118195939Y-71725114D01*
X118195939Y-71725114D02*
X118124510Y-71582257D01*
X118124510Y-71582257D02*
X117981653Y-71510828D01*
X117981653Y-71510828D02*
X117767368Y-71510828D01*
X117767368Y-71510828D02*
X117624510Y-71439400D01*
X117624510Y-71439400D02*
X117553082Y-71296542D01*
X117553082Y-71296542D02*
X117553082Y-71225114D01*
X117553082Y-71225114D02*
X117624510Y-71082257D01*
X117624510Y-71082257D02*
X117767368Y-71010828D01*
X117767368Y-71010828D02*
X117981653Y-71010828D01*
X117981653Y-71010828D02*
X118124510Y-71082257D01*
X118624511Y-71010828D02*
X119195939Y-71010828D01*
X118838796Y-70510828D02*
X118838796Y-71796542D01*
X118838796Y-71796542D02*
X118910225Y-71939400D01*
X118910225Y-71939400D02*
X119053082Y-72010828D01*
X119053082Y-72010828D02*
X119195939Y-72010828D01*
X119695939Y-72010828D02*
X119695939Y-71010828D01*
X119695939Y-71296542D02*
X119767368Y-71153685D01*
X119767368Y-71153685D02*
X119838797Y-71082257D01*
X119838797Y-71082257D02*
X119981654Y-71010828D01*
X119981654Y-71010828D02*
X120124511Y-71010828D01*
X120624510Y-72010828D02*
X120624510Y-71010828D01*
X120624510Y-70510828D02*
X120553082Y-70582257D01*
X120553082Y-70582257D02*
X120624510Y-70653685D01*
X120624510Y-70653685D02*
X120695939Y-70582257D01*
X120695939Y-70582257D02*
X120624510Y-70510828D01*
X120624510Y-70510828D02*
X120624510Y-70653685D01*
X121338796Y-72010828D02*
X121338796Y-70510828D01*
X121338796Y-71082257D02*
X121481654Y-71010828D01*
X121481654Y-71010828D02*
X121767368Y-71010828D01*
X121767368Y-71010828D02*
X121910225Y-71082257D01*
X121910225Y-71082257D02*
X121981654Y-71153685D01*
X121981654Y-71153685D02*
X122053082Y-71296542D01*
X122053082Y-71296542D02*
X122053082Y-71725114D01*
X122053082Y-71725114D02*
X121981654Y-71867971D01*
X121981654Y-71867971D02*
X121910225Y-71939400D01*
X121910225Y-71939400D02*
X121767368Y-72010828D01*
X121767368Y-72010828D02*
X121481654Y-72010828D01*
X121481654Y-72010828D02*
X121338796Y-71939400D01*
X123338797Y-71010828D02*
X123338797Y-72010828D01*
X122695939Y-71010828D02*
X122695939Y-71796542D01*
X122695939Y-71796542D02*
X122767368Y-71939400D01*
X122767368Y-71939400D02*
X122910225Y-72010828D01*
X122910225Y-72010828D02*
X123124511Y-72010828D01*
X123124511Y-72010828D02*
X123267368Y-71939400D01*
X123267368Y-71939400D02*
X123338797Y-71867971D01*
X123838797Y-71010828D02*
X124410225Y-71010828D01*
X124053082Y-70510828D02*
X124053082Y-71796542D01*
X124053082Y-71796542D02*
X124124511Y-71939400D01*
X124124511Y-71939400D02*
X124267368Y-72010828D01*
X124267368Y-72010828D02*
X124410225Y-72010828D01*
X124910225Y-72010828D02*
X124910225Y-71010828D01*
X124910225Y-70510828D02*
X124838797Y-70582257D01*
X124838797Y-70582257D02*
X124910225Y-70653685D01*
X124910225Y-70653685D02*
X124981654Y-70582257D01*
X124981654Y-70582257D02*
X124910225Y-70510828D01*
X124910225Y-70510828D02*
X124910225Y-70653685D01*
X125838797Y-72010828D02*
X125695940Y-71939400D01*
X125695940Y-71939400D02*
X125624511Y-71867971D01*
X125624511Y-71867971D02*
X125553083Y-71725114D01*
X125553083Y-71725114D02*
X125553083Y-71296542D01*
X125553083Y-71296542D02*
X125624511Y-71153685D01*
X125624511Y-71153685D02*
X125695940Y-71082257D01*
X125695940Y-71082257D02*
X125838797Y-71010828D01*
X125838797Y-71010828D02*
X126053083Y-71010828D01*
X126053083Y-71010828D02*
X126195940Y-71082257D01*
X126195940Y-71082257D02*
X126267369Y-71153685D01*
X126267369Y-71153685D02*
X126338797Y-71296542D01*
X126338797Y-71296542D02*
X126338797Y-71725114D01*
X126338797Y-71725114D02*
X126267369Y-71867971D01*
X126267369Y-71867971D02*
X126195940Y-71939400D01*
X126195940Y-71939400D02*
X126053083Y-72010828D01*
X126053083Y-72010828D02*
X125838797Y-72010828D01*
X126981654Y-71010828D02*
X126981654Y-72010828D01*
X126981654Y-71153685D02*
X127053083Y-71082257D01*
X127053083Y-71082257D02*
X127195940Y-71010828D01*
X127195940Y-71010828D02*
X127410226Y-71010828D01*
X127410226Y-71010828D02*
X127553083Y-71082257D01*
X127553083Y-71082257D02*
X127624512Y-71225114D01*
X127624512Y-71225114D02*
X127624512Y-72010828D01*
X129410226Y-70439400D02*
X128124512Y-72367971D01*
X129910226Y-72010828D02*
X129910226Y-70510828D01*
X129910226Y-70510828D02*
X130410226Y-71582257D01*
X130410226Y-71582257D02*
X130910226Y-70510828D01*
X130910226Y-70510828D02*
X130910226Y-72010828D01*
X131838798Y-72010828D02*
X131695941Y-71939400D01*
X131695941Y-71939400D02*
X131624512Y-71867971D01*
X131624512Y-71867971D02*
X131553084Y-71725114D01*
X131553084Y-71725114D02*
X131553084Y-71296542D01*
X131553084Y-71296542D02*
X131624512Y-71153685D01*
X131624512Y-71153685D02*
X131695941Y-71082257D01*
X131695941Y-71082257D02*
X131838798Y-71010828D01*
X131838798Y-71010828D02*
X132053084Y-71010828D01*
X132053084Y-71010828D02*
X132195941Y-71082257D01*
X132195941Y-71082257D02*
X132267370Y-71153685D01*
X132267370Y-71153685D02*
X132338798Y-71296542D01*
X132338798Y-71296542D02*
X132338798Y-71725114D01*
X132338798Y-71725114D02*
X132267370Y-71867971D01*
X132267370Y-71867971D02*
X132195941Y-71939400D01*
X132195941Y-71939400D02*
X132053084Y-72010828D01*
X132053084Y-72010828D02*
X131838798Y-72010828D01*
X132981655Y-71010828D02*
X132981655Y-72010828D01*
X132981655Y-71153685D02*
X133053084Y-71082257D01*
X133053084Y-71082257D02*
X133195941Y-71010828D01*
X133195941Y-71010828D02*
X133410227Y-71010828D01*
X133410227Y-71010828D02*
X133553084Y-71082257D01*
X133553084Y-71082257D02*
X133624513Y-71225114D01*
X133624513Y-71225114D02*
X133624513Y-72010828D01*
X134338798Y-72010828D02*
X134338798Y-71010828D01*
X134338798Y-70510828D02*
X134267370Y-70582257D01*
X134267370Y-70582257D02*
X134338798Y-70653685D01*
X134338798Y-70653685D02*
X134410227Y-70582257D01*
X134410227Y-70582257D02*
X134338798Y-70510828D01*
X134338798Y-70510828D02*
X134338798Y-70653685D01*
X134838799Y-71010828D02*
X135410227Y-71010828D01*
X135053084Y-70510828D02*
X135053084Y-71796542D01*
X135053084Y-71796542D02*
X135124513Y-71939400D01*
X135124513Y-71939400D02*
X135267370Y-72010828D01*
X135267370Y-72010828D02*
X135410227Y-72010828D01*
X136124513Y-72010828D02*
X135981656Y-71939400D01*
X135981656Y-71939400D02*
X135910227Y-71867971D01*
X135910227Y-71867971D02*
X135838799Y-71725114D01*
X135838799Y-71725114D02*
X135838799Y-71296542D01*
X135838799Y-71296542D02*
X135910227Y-71153685D01*
X135910227Y-71153685D02*
X135981656Y-71082257D01*
X135981656Y-71082257D02*
X136124513Y-71010828D01*
X136124513Y-71010828D02*
X136338799Y-71010828D01*
X136338799Y-71010828D02*
X136481656Y-71082257D01*
X136481656Y-71082257D02*
X136553085Y-71153685D01*
X136553085Y-71153685D02*
X136624513Y-71296542D01*
X136624513Y-71296542D02*
X136624513Y-71725114D01*
X136624513Y-71725114D02*
X136553085Y-71867971D01*
X136553085Y-71867971D02*
X136481656Y-71939400D01*
X136481656Y-71939400D02*
X136338799Y-72010828D01*
X136338799Y-72010828D02*
X136124513Y-72010828D01*
X137267370Y-72010828D02*
X137267370Y-71010828D01*
X137267370Y-71296542D02*
X137338799Y-71153685D01*
X137338799Y-71153685D02*
X137410228Y-71082257D01*
X137410228Y-71082257D02*
X137553085Y-71010828D01*
X137553085Y-71010828D02*
X137695942Y-71010828D01*
X138195941Y-72010828D02*
X138195941Y-71010828D01*
X138195941Y-70510828D02*
X138124513Y-70582257D01*
X138124513Y-70582257D02*
X138195941Y-70653685D01*
X138195941Y-70653685D02*
X138267370Y-70582257D01*
X138267370Y-70582257D02*
X138195941Y-70510828D01*
X138195941Y-70510828D02*
X138195941Y-70653685D01*
X138910227Y-71010828D02*
X138910227Y-72010828D01*
X138910227Y-71153685D02*
X138981656Y-71082257D01*
X138981656Y-71082257D02*
X139124513Y-71010828D01*
X139124513Y-71010828D02*
X139338799Y-71010828D01*
X139338799Y-71010828D02*
X139481656Y-71082257D01*
X139481656Y-71082257D02*
X139553085Y-71225114D01*
X139553085Y-71225114D02*
X139553085Y-72010828D01*
X140910228Y-71010828D02*
X140910228Y-72225114D01*
X140910228Y-72225114D02*
X140838799Y-72367971D01*
X140838799Y-72367971D02*
X140767370Y-72439400D01*
X140767370Y-72439400D02*
X140624513Y-72510828D01*
X140624513Y-72510828D02*
X140410228Y-72510828D01*
X140410228Y-72510828D02*
X140267370Y-72439400D01*
X140910228Y-71939400D02*
X140767370Y-72010828D01*
X140767370Y-72010828D02*
X140481656Y-72010828D01*
X140481656Y-72010828D02*
X140338799Y-71939400D01*
X140338799Y-71939400D02*
X140267370Y-71867971D01*
X140267370Y-71867971D02*
X140195942Y-71725114D01*
X140195942Y-71725114D02*
X140195942Y-71296542D01*
X140195942Y-71296542D02*
X140267370Y-71153685D01*
X140267370Y-71153685D02*
X140338799Y-71082257D01*
X140338799Y-71082257D02*
X140481656Y-71010828D01*
X140481656Y-71010828D02*
X140767370Y-71010828D01*
X140767370Y-71010828D02*
X140910228Y-71082257D01*
X116161653Y-114297971D02*
X116090225Y-114369400D01*
X116090225Y-114369400D02*
X115875939Y-114440828D01*
X115875939Y-114440828D02*
X115733082Y-114440828D01*
X115733082Y-114440828D02*
X115518796Y-114369400D01*
X115518796Y-114369400D02*
X115375939Y-114226542D01*
X115375939Y-114226542D02*
X115304510Y-114083685D01*
X115304510Y-114083685D02*
X115233082Y-113797971D01*
X115233082Y-113797971D02*
X115233082Y-113583685D01*
X115233082Y-113583685D02*
X115304510Y-113297971D01*
X115304510Y-113297971D02*
X115375939Y-113155114D01*
X115375939Y-113155114D02*
X115518796Y-113012257D01*
X115518796Y-113012257D02*
X115733082Y-112940828D01*
X115733082Y-112940828D02*
X115875939Y-112940828D01*
X115875939Y-112940828D02*
X116090225Y-113012257D01*
X116090225Y-113012257D02*
X116161653Y-113083685D01*
X117447368Y-114440828D02*
X117447368Y-113655114D01*
X117447368Y-113655114D02*
X117375939Y-113512257D01*
X117375939Y-113512257D02*
X117233082Y-113440828D01*
X117233082Y-113440828D02*
X116947368Y-113440828D01*
X116947368Y-113440828D02*
X116804510Y-113512257D01*
X117447368Y-114369400D02*
X117304510Y-114440828D01*
X117304510Y-114440828D02*
X116947368Y-114440828D01*
X116947368Y-114440828D02*
X116804510Y-114369400D01*
X116804510Y-114369400D02*
X116733082Y-114226542D01*
X116733082Y-114226542D02*
X116733082Y-114083685D01*
X116733082Y-114083685D02*
X116804510Y-113940828D01*
X116804510Y-113940828D02*
X116947368Y-113869400D01*
X116947368Y-113869400D02*
X117304510Y-113869400D01*
X117304510Y-113869400D02*
X117447368Y-113797971D01*
X118161653Y-114440828D02*
X118161653Y-113440828D01*
X118161653Y-113726542D02*
X118233082Y-113583685D01*
X118233082Y-113583685D02*
X118304511Y-113512257D01*
X118304511Y-113512257D02*
X118447368Y-113440828D01*
X118447368Y-113440828D02*
X118590225Y-113440828D01*
X119304510Y-114440828D02*
X119161653Y-114369400D01*
X119161653Y-114369400D02*
X119090224Y-114226542D01*
X119090224Y-114226542D02*
X119090224Y-112940828D01*
X120804510Y-112940828D02*
X121304510Y-114440828D01*
X121304510Y-114440828D02*
X121804510Y-112940828D01*
X124304509Y-114297971D02*
X124233081Y-114369400D01*
X124233081Y-114369400D02*
X124018795Y-114440828D01*
X124018795Y-114440828D02*
X123875938Y-114440828D01*
X123875938Y-114440828D02*
X123661652Y-114369400D01*
X123661652Y-114369400D02*
X123518795Y-114226542D01*
X123518795Y-114226542D02*
X123447366Y-114083685D01*
X123447366Y-114083685D02*
X123375938Y-113797971D01*
X123375938Y-113797971D02*
X123375938Y-113583685D01*
X123375938Y-113583685D02*
X123447366Y-113297971D01*
X123447366Y-113297971D02*
X123518795Y-113155114D01*
X123518795Y-113155114D02*
X123661652Y-113012257D01*
X123661652Y-113012257D02*
X123875938Y-112940828D01*
X123875938Y-112940828D02*
X124018795Y-112940828D01*
X124018795Y-112940828D02*
X124233081Y-113012257D01*
X124233081Y-113012257D02*
X124304509Y-113083685D01*
X125161652Y-114440828D02*
X125018795Y-114369400D01*
X125018795Y-114369400D02*
X124947366Y-114226542D01*
X124947366Y-114226542D02*
X124947366Y-112940828D01*
X126375938Y-114440828D02*
X126375938Y-113655114D01*
X126375938Y-113655114D02*
X126304509Y-113512257D01*
X126304509Y-113512257D02*
X126161652Y-113440828D01*
X126161652Y-113440828D02*
X125875938Y-113440828D01*
X125875938Y-113440828D02*
X125733080Y-113512257D01*
X126375938Y-114369400D02*
X126233080Y-114440828D01*
X126233080Y-114440828D02*
X125875938Y-114440828D01*
X125875938Y-114440828D02*
X125733080Y-114369400D01*
X125733080Y-114369400D02*
X125661652Y-114226542D01*
X125661652Y-114226542D02*
X125661652Y-114083685D01*
X125661652Y-114083685D02*
X125733080Y-113940828D01*
X125733080Y-113940828D02*
X125875938Y-113869400D01*
X125875938Y-113869400D02*
X126233080Y-113869400D01*
X126233080Y-113869400D02*
X126375938Y-113797971D01*
X127733081Y-113440828D02*
X127733081Y-114440828D01*
X127090223Y-113440828D02*
X127090223Y-114226542D01*
X127090223Y-114226542D02*
X127161652Y-114369400D01*
X127161652Y-114369400D02*
X127304509Y-114440828D01*
X127304509Y-114440828D02*
X127518795Y-114440828D01*
X127518795Y-114440828D02*
X127661652Y-114369400D01*
X127661652Y-114369400D02*
X127733081Y-114297971D01*
X128447366Y-113440828D02*
X128447366Y-114440828D01*
X128447366Y-113583685D02*
X128518795Y-113512257D01*
X128518795Y-113512257D02*
X128661652Y-113440828D01*
X128661652Y-113440828D02*
X128875938Y-113440828D01*
X128875938Y-113440828D02*
X129018795Y-113512257D01*
X129018795Y-113512257D02*
X129090224Y-113655114D01*
X129090224Y-113655114D02*
X129090224Y-114440828D01*
X130447367Y-114369400D02*
X130304509Y-114440828D01*
X130304509Y-114440828D02*
X130018795Y-114440828D01*
X130018795Y-114440828D02*
X129875938Y-114369400D01*
X129875938Y-114369400D02*
X129804509Y-114297971D01*
X129804509Y-114297971D02*
X129733081Y-114155114D01*
X129733081Y-114155114D02*
X129733081Y-113726542D01*
X129733081Y-113726542D02*
X129804509Y-113583685D01*
X129804509Y-113583685D02*
X129875938Y-113512257D01*
X129875938Y-113512257D02*
X130018795Y-113440828D01*
X130018795Y-113440828D02*
X130304509Y-113440828D01*
X130304509Y-113440828D02*
X130447367Y-113512257D01*
X131090223Y-114440828D02*
X131090223Y-112940828D01*
X131733081Y-114440828D02*
X131733081Y-113655114D01*
X131733081Y-113655114D02*
X131661652Y-113512257D01*
X131661652Y-113512257D02*
X131518795Y-113440828D01*
X131518795Y-113440828D02*
X131304509Y-113440828D01*
X131304509Y-113440828D02*
X131161652Y-113512257D01*
X131161652Y-113512257D02*
X131090223Y-113583685D01*
X97050225Y-84070828D02*
X96193082Y-84070828D01*
X96621653Y-84070828D02*
X96621653Y-82570828D01*
X96621653Y-82570828D02*
X96478796Y-82785114D01*
X96478796Y-82785114D02*
X96335939Y-82927971D01*
X96335939Y-82927971D02*
X96193082Y-82999400D01*
X98478796Y-84070828D02*
X97621653Y-84070828D01*
X98050224Y-84070828D02*
X98050224Y-82570828D01*
X98050224Y-82570828D02*
X97907367Y-82785114D01*
X97907367Y-82785114D02*
X97764510Y-82927971D01*
X97764510Y-82927971D02*
X97621653Y-82999400D01*
X98978795Y-82570828D02*
X99907367Y-82570828D01*
X99907367Y-82570828D02*
X99407367Y-83142257D01*
X99407367Y-83142257D02*
X99621652Y-83142257D01*
X99621652Y-83142257D02*
X99764510Y-83213685D01*
X99764510Y-83213685D02*
X99835938Y-83285114D01*
X99835938Y-83285114D02*
X99907367Y-83427971D01*
X99907367Y-83427971D02*
X99907367Y-83785114D01*
X99907367Y-83785114D02*
X99835938Y-83927971D01*
X99835938Y-83927971D02*
X99764510Y-83999400D01*
X99764510Y-83999400D02*
X99621652Y-84070828D01*
X99621652Y-84070828D02*
X99193081Y-84070828D01*
X99193081Y-84070828D02*
X99050224Y-83999400D01*
X99050224Y-83999400D02*
X98978795Y-83927971D01*
X100835938Y-82570828D02*
X100978795Y-82570828D01*
X100978795Y-82570828D02*
X101121652Y-82642257D01*
X101121652Y-82642257D02*
X101193081Y-82713685D01*
X101193081Y-82713685D02*
X101264509Y-82856542D01*
X101264509Y-82856542D02*
X101335938Y-83142257D01*
X101335938Y-83142257D02*
X101335938Y-83499400D01*
X101335938Y-83499400D02*
X101264509Y-83785114D01*
X101264509Y-83785114D02*
X101193081Y-83927971D01*
X101193081Y-83927971D02*
X101121652Y-83999400D01*
X101121652Y-83999400D02*
X100978795Y-84070828D01*
X100978795Y-84070828D02*
X100835938Y-84070828D01*
X100835938Y-84070828D02*
X100693081Y-83999400D01*
X100693081Y-83999400D02*
X100621652Y-83927971D01*
X100621652Y-83927971D02*
X100550223Y-83785114D01*
X100550223Y-83785114D02*
X100478795Y-83499400D01*
X100478795Y-83499400D02*
X100478795Y-83142257D01*
X100478795Y-83142257D02*
X100550223Y-82856542D01*
X100550223Y-82856542D02*
X100621652Y-82713685D01*
X100621652Y-82713685D02*
X100693081Y-82642257D01*
X100693081Y-82642257D02*
X100835938Y-82570828D01*
X103978794Y-83927971D02*
X103907366Y-83999400D01*
X103907366Y-83999400D02*
X103693080Y-84070828D01*
X103693080Y-84070828D02*
X103550223Y-84070828D01*
X103550223Y-84070828D02*
X103335937Y-83999400D01*
X103335937Y-83999400D02*
X103193080Y-83856542D01*
X103193080Y-83856542D02*
X103121651Y-83713685D01*
X103121651Y-83713685D02*
X103050223Y-83427971D01*
X103050223Y-83427971D02*
X103050223Y-83213685D01*
X103050223Y-83213685D02*
X103121651Y-82927971D01*
X103121651Y-82927971D02*
X103193080Y-82785114D01*
X103193080Y-82785114D02*
X103335937Y-82642257D01*
X103335937Y-82642257D02*
X103550223Y-82570828D01*
X103550223Y-82570828D02*
X103693080Y-82570828D01*
X103693080Y-82570828D02*
X103907366Y-82642257D01*
X103907366Y-82642257D02*
X103978794Y-82713685D01*
X104907366Y-82570828D02*
X105193080Y-82570828D01*
X105193080Y-82570828D02*
X105335937Y-82642257D01*
X105335937Y-82642257D02*
X105478794Y-82785114D01*
X105478794Y-82785114D02*
X105550223Y-83070828D01*
X105550223Y-83070828D02*
X105550223Y-83570828D01*
X105550223Y-83570828D02*
X105478794Y-83856542D01*
X105478794Y-83856542D02*
X105335937Y-83999400D01*
X105335937Y-83999400D02*
X105193080Y-84070828D01*
X105193080Y-84070828D02*
X104907366Y-84070828D01*
X104907366Y-84070828D02*
X104764509Y-83999400D01*
X104764509Y-83999400D02*
X104621651Y-83856542D01*
X104621651Y-83856542D02*
X104550223Y-83570828D01*
X104550223Y-83570828D02*
X104550223Y-83070828D01*
X104550223Y-83070828D02*
X104621651Y-82785114D01*
X104621651Y-82785114D02*
X104764509Y-82642257D01*
X104764509Y-82642257D02*
X104907366Y-82570828D01*
X106193080Y-84070828D02*
X106193080Y-82570828D01*
X106193080Y-82570828D02*
X106693080Y-83642257D01*
X106693080Y-83642257D02*
X107193080Y-82570828D01*
X107193080Y-82570828D02*
X107193080Y-84070828D01*
X96050225Y-103238828D02*
X96907368Y-103238828D01*
X96478796Y-104738828D02*
X96478796Y-103238828D01*
X97407367Y-104738828D02*
X97407367Y-103238828D01*
X97407367Y-103238828D02*
X97764510Y-103238828D01*
X97764510Y-103238828D02*
X97978796Y-103310257D01*
X97978796Y-103310257D02*
X98121653Y-103453114D01*
X98121653Y-103453114D02*
X98193082Y-103595971D01*
X98193082Y-103595971D02*
X98264510Y-103881685D01*
X98264510Y-103881685D02*
X98264510Y-104095971D01*
X98264510Y-104095971D02*
X98193082Y-104381685D01*
X98193082Y-104381685D02*
X98121653Y-104524542D01*
X98121653Y-104524542D02*
X97978796Y-104667400D01*
X97978796Y-104667400D02*
X97764510Y-104738828D01*
X97764510Y-104738828D02*
X97407367Y-104738828D01*
X100050224Y-104738828D02*
X100050224Y-103738828D01*
X100050224Y-104024542D02*
X100121653Y-103881685D01*
X100121653Y-103881685D02*
X100193082Y-103810257D01*
X100193082Y-103810257D02*
X100335939Y-103738828D01*
X100335939Y-103738828D02*
X100478796Y-103738828D01*
X101550224Y-104667400D02*
X101407367Y-104738828D01*
X101407367Y-104738828D02*
X101121653Y-104738828D01*
X101121653Y-104738828D02*
X100978795Y-104667400D01*
X100978795Y-104667400D02*
X100907367Y-104524542D01*
X100907367Y-104524542D02*
X100907367Y-103953114D01*
X100907367Y-103953114D02*
X100978795Y-103810257D01*
X100978795Y-103810257D02*
X101121653Y-103738828D01*
X101121653Y-103738828D02*
X101407367Y-103738828D01*
X101407367Y-103738828D02*
X101550224Y-103810257D01*
X101550224Y-103810257D02*
X101621653Y-103953114D01*
X101621653Y-103953114D02*
X101621653Y-104095971D01*
X101621653Y-104095971D02*
X100907367Y-104238828D01*
X102478795Y-104738828D02*
X102335938Y-104667400D01*
X102335938Y-104667400D02*
X102264509Y-104524542D01*
X102264509Y-104524542D02*
X102264509Y-103238828D01*
X103693081Y-104738828D02*
X103693081Y-103953114D01*
X103693081Y-103953114D02*
X103621652Y-103810257D01*
X103621652Y-103810257D02*
X103478795Y-103738828D01*
X103478795Y-103738828D02*
X103193081Y-103738828D01*
X103193081Y-103738828D02*
X103050223Y-103810257D01*
X103693081Y-104667400D02*
X103550223Y-104738828D01*
X103550223Y-104738828D02*
X103193081Y-104738828D01*
X103193081Y-104738828D02*
X103050223Y-104667400D01*
X103050223Y-104667400D02*
X102978795Y-104524542D01*
X102978795Y-104524542D02*
X102978795Y-104381685D01*
X102978795Y-104381685D02*
X103050223Y-104238828D01*
X103050223Y-104238828D02*
X103193081Y-104167400D01*
X103193081Y-104167400D02*
X103550223Y-104167400D01*
X103550223Y-104167400D02*
X103693081Y-104095971D01*
X104264509Y-103738828D02*
X104621652Y-104738828D01*
X104978795Y-103738828D02*
X104621652Y-104738828D01*
X104621652Y-104738828D02*
X104478795Y-105095971D01*
X104478795Y-105095971D02*
X104407366Y-105167400D01*
X104407366Y-105167400D02*
X104264509Y-105238828D01*
X106621652Y-103381685D02*
X106693080Y-103310257D01*
X106693080Y-103310257D02*
X106835938Y-103238828D01*
X106835938Y-103238828D02*
X107193080Y-103238828D01*
X107193080Y-103238828D02*
X107335938Y-103310257D01*
X107335938Y-103310257D02*
X107407366Y-103381685D01*
X107407366Y-103381685D02*
X107478795Y-103524542D01*
X107478795Y-103524542D02*
X107478795Y-103667400D01*
X107478795Y-103667400D02*
X107407366Y-103881685D01*
X107407366Y-103881685D02*
X106550223Y-104738828D01*
X106550223Y-104738828D02*
X107478795Y-104738828D01*
X96764510Y-88205114D02*
X96978796Y-88276542D01*
X96978796Y-88276542D02*
X97050225Y-88347971D01*
X97050225Y-88347971D02*
X97121653Y-88490828D01*
X97121653Y-88490828D02*
X97121653Y-88705114D01*
X97121653Y-88705114D02*
X97050225Y-88847971D01*
X97050225Y-88847971D02*
X96978796Y-88919400D01*
X96978796Y-88919400D02*
X96835939Y-88990828D01*
X96835939Y-88990828D02*
X96264510Y-88990828D01*
X96264510Y-88990828D02*
X96264510Y-87490828D01*
X96264510Y-87490828D02*
X96764510Y-87490828D01*
X96764510Y-87490828D02*
X96907368Y-87562257D01*
X96907368Y-87562257D02*
X96978796Y-87633685D01*
X96978796Y-87633685D02*
X97050225Y-87776542D01*
X97050225Y-87776542D02*
X97050225Y-87919400D01*
X97050225Y-87919400D02*
X96978796Y-88062257D01*
X96978796Y-88062257D02*
X96907368Y-88133685D01*
X96907368Y-88133685D02*
X96764510Y-88205114D01*
X96764510Y-88205114D02*
X96264510Y-88205114D01*
X98407368Y-88990828D02*
X98407368Y-88205114D01*
X98407368Y-88205114D02*
X98335939Y-88062257D01*
X98335939Y-88062257D02*
X98193082Y-87990828D01*
X98193082Y-87990828D02*
X97907368Y-87990828D01*
X97907368Y-87990828D02*
X97764510Y-88062257D01*
X98407368Y-88919400D02*
X98264510Y-88990828D01*
X98264510Y-88990828D02*
X97907368Y-88990828D01*
X97907368Y-88990828D02*
X97764510Y-88919400D01*
X97764510Y-88919400D02*
X97693082Y-88776542D01*
X97693082Y-88776542D02*
X97693082Y-88633685D01*
X97693082Y-88633685D02*
X97764510Y-88490828D01*
X97764510Y-88490828D02*
X97907368Y-88419400D01*
X97907368Y-88419400D02*
X98264510Y-88419400D01*
X98264510Y-88419400D02*
X98407368Y-88347971D01*
X98907368Y-87990828D02*
X99478796Y-87990828D01*
X99121653Y-87490828D02*
X99121653Y-88776542D01*
X99121653Y-88776542D02*
X99193082Y-88919400D01*
X99193082Y-88919400D02*
X99335939Y-88990828D01*
X99335939Y-88990828D02*
X99478796Y-88990828D01*
X99764511Y-87990828D02*
X100335939Y-87990828D01*
X99978796Y-87490828D02*
X99978796Y-88776542D01*
X99978796Y-88776542D02*
X100050225Y-88919400D01*
X100050225Y-88919400D02*
X100193082Y-88990828D01*
X100193082Y-88990828D02*
X100335939Y-88990828D01*
X100835939Y-88419400D02*
X101978797Y-88419400D01*
X97050225Y-81600828D02*
X96193082Y-81600828D01*
X96621653Y-81600828D02*
X96621653Y-80100828D01*
X96621653Y-80100828D02*
X96478796Y-80315114D01*
X96478796Y-80315114D02*
X96335939Y-80457971D01*
X96335939Y-80457971D02*
X96193082Y-80529400D01*
X98478796Y-81600828D02*
X97621653Y-81600828D01*
X98050224Y-81600828D02*
X98050224Y-80100828D01*
X98050224Y-80100828D02*
X97907367Y-80315114D01*
X97907367Y-80315114D02*
X97764510Y-80457971D01*
X97764510Y-80457971D02*
X97621653Y-80529400D01*
X98978795Y-80100828D02*
X99907367Y-80100828D01*
X99907367Y-80100828D02*
X99407367Y-80672257D01*
X99407367Y-80672257D02*
X99621652Y-80672257D01*
X99621652Y-80672257D02*
X99764510Y-80743685D01*
X99764510Y-80743685D02*
X99835938Y-80815114D01*
X99835938Y-80815114D02*
X99907367Y-80957971D01*
X99907367Y-80957971D02*
X99907367Y-81315114D01*
X99907367Y-81315114D02*
X99835938Y-81457971D01*
X99835938Y-81457971D02*
X99764510Y-81529400D01*
X99764510Y-81529400D02*
X99621652Y-81600828D01*
X99621652Y-81600828D02*
X99193081Y-81600828D01*
X99193081Y-81600828D02*
X99050224Y-81529400D01*
X99050224Y-81529400D02*
X98978795Y-81457971D01*
X100835938Y-80100828D02*
X100978795Y-80100828D01*
X100978795Y-80100828D02*
X101121652Y-80172257D01*
X101121652Y-80172257D02*
X101193081Y-80243685D01*
X101193081Y-80243685D02*
X101264509Y-80386542D01*
X101264509Y-80386542D02*
X101335938Y-80672257D01*
X101335938Y-80672257D02*
X101335938Y-81029400D01*
X101335938Y-81029400D02*
X101264509Y-81315114D01*
X101264509Y-81315114D02*
X101193081Y-81457971D01*
X101193081Y-81457971D02*
X101121652Y-81529400D01*
X101121652Y-81529400D02*
X100978795Y-81600828D01*
X100978795Y-81600828D02*
X100835938Y-81600828D01*
X100835938Y-81600828D02*
X100693081Y-81529400D01*
X100693081Y-81529400D02*
X100621652Y-81457971D01*
X100621652Y-81457971D02*
X100550223Y-81315114D01*
X100550223Y-81315114D02*
X100478795Y-81029400D01*
X100478795Y-81029400D02*
X100478795Y-80672257D01*
X100478795Y-80672257D02*
X100550223Y-80386542D01*
X100550223Y-80386542D02*
X100621652Y-80243685D01*
X100621652Y-80243685D02*
X100693081Y-80172257D01*
X100693081Y-80172257D02*
X100835938Y-80100828D01*
X103121651Y-81029400D02*
X104264509Y-81029400D01*
X103693080Y-81600828D02*
X103693080Y-80457971D01*
X105764509Y-81600828D02*
X104907366Y-81600828D01*
X105335937Y-81600828D02*
X105335937Y-80100828D01*
X105335937Y-80100828D02*
X105193080Y-80315114D01*
X105193080Y-80315114D02*
X105050223Y-80457971D01*
X105050223Y-80457971D02*
X104907366Y-80529400D01*
X106335937Y-80243685D02*
X106407365Y-80172257D01*
X106407365Y-80172257D02*
X106550223Y-80100828D01*
X106550223Y-80100828D02*
X106907365Y-80100828D01*
X106907365Y-80100828D02*
X107050223Y-80172257D01*
X107050223Y-80172257D02*
X107121651Y-80243685D01*
X107121651Y-80243685D02*
X107193080Y-80386542D01*
X107193080Y-80386542D02*
X107193080Y-80529400D01*
X107193080Y-80529400D02*
X107121651Y-80743685D01*
X107121651Y-80743685D02*
X106264508Y-81600828D01*
X106264508Y-81600828D02*
X107193080Y-81600828D01*
X96264510Y-96185114D02*
X96764510Y-96185114D01*
X96978796Y-96970828D02*
X96264510Y-96970828D01*
X96264510Y-96970828D02*
X96264510Y-95470828D01*
X96264510Y-95470828D02*
X96978796Y-95470828D01*
X97621653Y-96970828D02*
X97621653Y-95970828D01*
X97621653Y-96113685D02*
X97693082Y-96042257D01*
X97693082Y-96042257D02*
X97835939Y-95970828D01*
X97835939Y-95970828D02*
X98050225Y-95970828D01*
X98050225Y-95970828D02*
X98193082Y-96042257D01*
X98193082Y-96042257D02*
X98264511Y-96185114D01*
X98264511Y-96185114D02*
X98264511Y-96970828D01*
X98264511Y-96185114D02*
X98335939Y-96042257D01*
X98335939Y-96042257D02*
X98478796Y-95970828D01*
X98478796Y-95970828D02*
X98693082Y-95970828D01*
X98693082Y-95970828D02*
X98835939Y-96042257D01*
X98835939Y-96042257D02*
X98907368Y-96185114D01*
X98907368Y-96185114D02*
X98907368Y-96970828D01*
X100264511Y-95970828D02*
X100264511Y-96970828D01*
X99621653Y-95970828D02*
X99621653Y-96756542D01*
X99621653Y-96756542D02*
X99693082Y-96899400D01*
X99693082Y-96899400D02*
X99835939Y-96970828D01*
X99835939Y-96970828D02*
X100050225Y-96970828D01*
X100050225Y-96970828D02*
X100193082Y-96899400D01*
X100193082Y-96899400D02*
X100264511Y-96827971D01*
X101193082Y-96970828D02*
X101050225Y-96899400D01*
X101050225Y-96899400D02*
X100978796Y-96756542D01*
X100978796Y-96756542D02*
X100978796Y-95470828D01*
X101764510Y-96399400D02*
X102907368Y-96399400D01*
X102335939Y-96970828D02*
X102335939Y-95827971D01*
X96764510Y-85645114D02*
X96978796Y-85716542D01*
X96978796Y-85716542D02*
X97050225Y-85787971D01*
X97050225Y-85787971D02*
X97121653Y-85930828D01*
X97121653Y-85930828D02*
X97121653Y-86145114D01*
X97121653Y-86145114D02*
X97050225Y-86287971D01*
X97050225Y-86287971D02*
X96978796Y-86359400D01*
X96978796Y-86359400D02*
X96835939Y-86430828D01*
X96835939Y-86430828D02*
X96264510Y-86430828D01*
X96264510Y-86430828D02*
X96264510Y-84930828D01*
X96264510Y-84930828D02*
X96764510Y-84930828D01*
X96764510Y-84930828D02*
X96907368Y-85002257D01*
X96907368Y-85002257D02*
X96978796Y-85073685D01*
X96978796Y-85073685D02*
X97050225Y-85216542D01*
X97050225Y-85216542D02*
X97050225Y-85359400D01*
X97050225Y-85359400D02*
X96978796Y-85502257D01*
X96978796Y-85502257D02*
X96907368Y-85573685D01*
X96907368Y-85573685D02*
X96764510Y-85645114D01*
X96764510Y-85645114D02*
X96264510Y-85645114D01*
X98407368Y-86430828D02*
X98407368Y-85645114D01*
X98407368Y-85645114D02*
X98335939Y-85502257D01*
X98335939Y-85502257D02*
X98193082Y-85430828D01*
X98193082Y-85430828D02*
X97907368Y-85430828D01*
X97907368Y-85430828D02*
X97764510Y-85502257D01*
X98407368Y-86359400D02*
X98264510Y-86430828D01*
X98264510Y-86430828D02*
X97907368Y-86430828D01*
X97907368Y-86430828D02*
X97764510Y-86359400D01*
X97764510Y-86359400D02*
X97693082Y-86216542D01*
X97693082Y-86216542D02*
X97693082Y-86073685D01*
X97693082Y-86073685D02*
X97764510Y-85930828D01*
X97764510Y-85930828D02*
X97907368Y-85859400D01*
X97907368Y-85859400D02*
X98264510Y-85859400D01*
X98264510Y-85859400D02*
X98407368Y-85787971D01*
X98907368Y-85430828D02*
X99478796Y-85430828D01*
X99121653Y-84930828D02*
X99121653Y-86216542D01*
X99121653Y-86216542D02*
X99193082Y-86359400D01*
X99193082Y-86359400D02*
X99335939Y-86430828D01*
X99335939Y-86430828D02*
X99478796Y-86430828D01*
X99764511Y-85430828D02*
X100335939Y-85430828D01*
X99978796Y-84930828D02*
X99978796Y-86216542D01*
X99978796Y-86216542D02*
X100050225Y-86359400D01*
X100050225Y-86359400D02*
X100193082Y-86430828D01*
X100193082Y-86430828D02*
X100335939Y-86430828D01*
X100835939Y-85859400D02*
X101978797Y-85859400D01*
X101407368Y-86430828D02*
X101407368Y-85287971D01*
X97121653Y-94057971D02*
X97050225Y-94129400D01*
X97050225Y-94129400D02*
X96835939Y-94200828D01*
X96835939Y-94200828D02*
X96693082Y-94200828D01*
X96693082Y-94200828D02*
X96478796Y-94129400D01*
X96478796Y-94129400D02*
X96335939Y-93986542D01*
X96335939Y-93986542D02*
X96264510Y-93843685D01*
X96264510Y-93843685D02*
X96193082Y-93557971D01*
X96193082Y-93557971D02*
X96193082Y-93343685D01*
X96193082Y-93343685D02*
X96264510Y-93057971D01*
X96264510Y-93057971D02*
X96335939Y-92915114D01*
X96335939Y-92915114D02*
X96478796Y-92772257D01*
X96478796Y-92772257D02*
X96693082Y-92700828D01*
X96693082Y-92700828D02*
X96835939Y-92700828D01*
X96835939Y-92700828D02*
X97050225Y-92772257D01*
X97050225Y-92772257D02*
X97121653Y-92843685D01*
X97764510Y-94200828D02*
X97764510Y-92700828D01*
X98407368Y-94200828D02*
X98407368Y-93415114D01*
X98407368Y-93415114D02*
X98335939Y-93272257D01*
X98335939Y-93272257D02*
X98193082Y-93200828D01*
X98193082Y-93200828D02*
X97978796Y-93200828D01*
X97978796Y-93200828D02*
X97835939Y-93272257D01*
X97835939Y-93272257D02*
X97764510Y-93343685D01*
X99121653Y-94200828D02*
X99121653Y-93200828D01*
X99121653Y-93486542D02*
X99193082Y-93343685D01*
X99193082Y-93343685D02*
X99264511Y-93272257D01*
X99264511Y-93272257D02*
X99407368Y-93200828D01*
X99407368Y-93200828D02*
X99550225Y-93200828D01*
X100693082Y-93200828D02*
X100693082Y-94415114D01*
X100693082Y-94415114D02*
X100621653Y-94557971D01*
X100621653Y-94557971D02*
X100550224Y-94629400D01*
X100550224Y-94629400D02*
X100407367Y-94700828D01*
X100407367Y-94700828D02*
X100193082Y-94700828D01*
X100193082Y-94700828D02*
X100050224Y-94629400D01*
X100693082Y-94129400D02*
X100550224Y-94200828D01*
X100550224Y-94200828D02*
X100264510Y-94200828D01*
X100264510Y-94200828D02*
X100121653Y-94129400D01*
X100121653Y-94129400D02*
X100050224Y-94057971D01*
X100050224Y-94057971D02*
X99978796Y-93915114D01*
X99978796Y-93915114D02*
X99978796Y-93486542D01*
X99978796Y-93486542D02*
X100050224Y-93343685D01*
X100050224Y-93343685D02*
X100121653Y-93272257D01*
X100121653Y-93272257D02*
X100264510Y-93200828D01*
X100264510Y-93200828D02*
X100550224Y-93200828D01*
X100550224Y-93200828D02*
X100693082Y-93272257D01*
X101407367Y-93629400D02*
X102550225Y-93629400D01*
X96264510Y-98825114D02*
X96764510Y-98825114D01*
X96978796Y-99610828D02*
X96264510Y-99610828D01*
X96264510Y-99610828D02*
X96264510Y-98110828D01*
X96264510Y-98110828D02*
X96978796Y-98110828D01*
X97621653Y-99610828D02*
X97621653Y-98610828D01*
X97621653Y-98753685D02*
X97693082Y-98682257D01*
X97693082Y-98682257D02*
X97835939Y-98610828D01*
X97835939Y-98610828D02*
X98050225Y-98610828D01*
X98050225Y-98610828D02*
X98193082Y-98682257D01*
X98193082Y-98682257D02*
X98264511Y-98825114D01*
X98264511Y-98825114D02*
X98264511Y-99610828D01*
X98264511Y-98825114D02*
X98335939Y-98682257D01*
X98335939Y-98682257D02*
X98478796Y-98610828D01*
X98478796Y-98610828D02*
X98693082Y-98610828D01*
X98693082Y-98610828D02*
X98835939Y-98682257D01*
X98835939Y-98682257D02*
X98907368Y-98825114D01*
X98907368Y-98825114D02*
X98907368Y-99610828D01*
X100264511Y-98610828D02*
X100264511Y-99610828D01*
X99621653Y-98610828D02*
X99621653Y-99396542D01*
X99621653Y-99396542D02*
X99693082Y-99539400D01*
X99693082Y-99539400D02*
X99835939Y-99610828D01*
X99835939Y-99610828D02*
X100050225Y-99610828D01*
X100050225Y-99610828D02*
X100193082Y-99539400D01*
X100193082Y-99539400D02*
X100264511Y-99467971D01*
X101193082Y-99610828D02*
X101050225Y-99539400D01*
X101050225Y-99539400D02*
X100978796Y-99396542D01*
X100978796Y-99396542D02*
X100978796Y-98110828D01*
X101764510Y-99039400D02*
X102907368Y-99039400D01*
D11*
X138534819Y-84276666D02*
X138058628Y-84609999D01*
X138534819Y-84848094D02*
X137534819Y-84848094D01*
X137534819Y-84848094D02*
X137534819Y-84467142D01*
X137534819Y-84467142D02*
X137582438Y-84371904D01*
X137582438Y-84371904D02*
X137630057Y-84324285D01*
X137630057Y-84324285D02*
X137725295Y-84276666D01*
X137725295Y-84276666D02*
X137868152Y-84276666D01*
X137868152Y-84276666D02*
X137963390Y-84324285D01*
X137963390Y-84324285D02*
X138011009Y-84371904D01*
X138011009Y-84371904D02*
X138058628Y-84467142D01*
X138058628Y-84467142D02*
X138058628Y-84848094D01*
X138534819Y-83324285D02*
X138534819Y-83895713D01*
X138534819Y-83609999D02*
X137534819Y-83609999D01*
X137534819Y-83609999D02*
X137677676Y-83705237D01*
X137677676Y-83705237D02*
X137772914Y-83800475D01*
X137772914Y-83800475D02*
X137820533Y-83895713D01*
X133094819Y-84800476D02*
X133094819Y-85371904D01*
X133094819Y-85086190D02*
X132094819Y-85086190D01*
X132094819Y-85086190D02*
X132237676Y-85181428D01*
X132237676Y-85181428D02*
X132332914Y-85276666D01*
X132332914Y-85276666D02*
X132380533Y-85371904D01*
X132094819Y-84181428D02*
X132094819Y-84086190D01*
X132094819Y-84086190D02*
X132142438Y-83990952D01*
X132142438Y-83990952D02*
X132190057Y-83943333D01*
X132190057Y-83943333D02*
X132285295Y-83895714D01*
X132285295Y-83895714D02*
X132475771Y-83848095D01*
X132475771Y-83848095D02*
X132713866Y-83848095D01*
X132713866Y-83848095D02*
X132904342Y-83895714D01*
X132904342Y-83895714D02*
X132999580Y-83943333D01*
X132999580Y-83943333D02*
X133047200Y-83990952D01*
X133047200Y-83990952D02*
X133094819Y-84086190D01*
X133094819Y-84086190D02*
X133094819Y-84181428D01*
X133094819Y-84181428D02*
X133047200Y-84276666D01*
X133047200Y-84276666D02*
X132999580Y-84324285D01*
X132999580Y-84324285D02*
X132904342Y-84371904D01*
X132904342Y-84371904D02*
X132713866Y-84419523D01*
X132713866Y-84419523D02*
X132475771Y-84419523D01*
X132475771Y-84419523D02*
X132285295Y-84371904D01*
X132285295Y-84371904D02*
X132190057Y-84324285D01*
X132190057Y-84324285D02*
X132142438Y-84276666D01*
X132142438Y-84276666D02*
X132094819Y-84181428D01*
X133094819Y-83419523D02*
X132094819Y-83419523D01*
X133094819Y-82848095D02*
X132523390Y-83276666D01*
X132094819Y-82848095D02*
X132666247Y-83419523D01*
X143786666Y-103094819D02*
X143786666Y-103809104D01*
X143786666Y-103809104D02*
X143739047Y-103951961D01*
X143739047Y-103951961D02*
X143643809Y-104047200D01*
X143643809Y-104047200D02*
X143500952Y-104094819D01*
X143500952Y-104094819D02*
X143405714Y-104094819D01*
X144215238Y-103190057D02*
X144262857Y-103142438D01*
X144262857Y-103142438D02*
X144358095Y-103094819D01*
X144358095Y-103094819D02*
X144596190Y-103094819D01*
X144596190Y-103094819D02*
X144691428Y-103142438D01*
X144691428Y-103142438D02*
X144739047Y-103190057D01*
X144739047Y-103190057D02*
X144786666Y-103285295D01*
X144786666Y-103285295D02*
X144786666Y-103380533D01*
X144786666Y-103380533D02*
X144739047Y-103523390D01*
X144739047Y-103523390D02*
X144167619Y-104094819D01*
X144167619Y-104094819D02*
X144786666Y-104094819D01*
X111551905Y-95894819D02*
X111551905Y-94894819D01*
X111551905Y-94894819D02*
X111790000Y-94894819D01*
X111790000Y-94894819D02*
X111932857Y-94942438D01*
X111932857Y-94942438D02*
X112028095Y-95037676D01*
X112028095Y-95037676D02*
X112075714Y-95132914D01*
X112075714Y-95132914D02*
X112123333Y-95323390D01*
X112123333Y-95323390D02*
X112123333Y-95466247D01*
X112123333Y-95466247D02*
X112075714Y-95656723D01*
X112075714Y-95656723D02*
X112028095Y-95751961D01*
X112028095Y-95751961D02*
X111932857Y-95847200D01*
X111932857Y-95847200D02*
X111790000Y-95894819D01*
X111790000Y-95894819D02*
X111551905Y-95894819D01*
X112504286Y-94990057D02*
X112551905Y-94942438D01*
X112551905Y-94942438D02*
X112647143Y-94894819D01*
X112647143Y-94894819D02*
X112885238Y-94894819D01*
X112885238Y-94894819D02*
X112980476Y-94942438D01*
X112980476Y-94942438D02*
X113028095Y-94990057D01*
X113028095Y-94990057D02*
X113075714Y-95085295D01*
X113075714Y-95085295D02*
X113075714Y-95180533D01*
X113075714Y-95180533D02*
X113028095Y-95323390D01*
X113028095Y-95323390D02*
X112456667Y-95894819D01*
X112456667Y-95894819D02*
X113075714Y-95894819D01*
X110147142Y-88454819D02*
X109575714Y-88454819D01*
X109861428Y-88454819D02*
X109861428Y-87454819D01*
X109861428Y-87454819D02*
X109766190Y-87597676D01*
X109766190Y-87597676D02*
X109670952Y-87692914D01*
X109670952Y-87692914D02*
X109575714Y-87740533D01*
X110575714Y-88454819D02*
X110575714Y-87454819D01*
X110575714Y-87454819D02*
X111147142Y-88454819D01*
X111147142Y-88454819D02*
X111147142Y-87454819D01*
X112099523Y-87454819D02*
X111623333Y-87454819D01*
X111623333Y-87454819D02*
X111575714Y-87931009D01*
X111575714Y-87931009D02*
X111623333Y-87883390D01*
X111623333Y-87883390D02*
X111718571Y-87835771D01*
X111718571Y-87835771D02*
X111956666Y-87835771D01*
X111956666Y-87835771D02*
X112051904Y-87883390D01*
X112051904Y-87883390D02*
X112099523Y-87931009D01*
X112099523Y-87931009D02*
X112147142Y-88026247D01*
X112147142Y-88026247D02*
X112147142Y-88264342D01*
X112147142Y-88264342D02*
X112099523Y-88359580D01*
X112099523Y-88359580D02*
X112051904Y-88407200D01*
X112051904Y-88407200D02*
X111956666Y-88454819D01*
X111956666Y-88454819D02*
X111718571Y-88454819D01*
X111718571Y-88454819D02*
X111623333Y-88407200D01*
X111623333Y-88407200D02*
X111575714Y-88359580D01*
X113004285Y-87788152D02*
X113004285Y-88454819D01*
X112766190Y-87407200D02*
X112528095Y-88121485D01*
X112528095Y-88121485D02*
X113147142Y-88121485D01*
X113718571Y-87454819D02*
X113813809Y-87454819D01*
X113813809Y-87454819D02*
X113909047Y-87502438D01*
X113909047Y-87502438D02*
X113956666Y-87550057D01*
X113956666Y-87550057D02*
X114004285Y-87645295D01*
X114004285Y-87645295D02*
X114051904Y-87835771D01*
X114051904Y-87835771D02*
X114051904Y-88073866D01*
X114051904Y-88073866D02*
X114004285Y-88264342D01*
X114004285Y-88264342D02*
X113956666Y-88359580D01*
X113956666Y-88359580D02*
X113909047Y-88407200D01*
X113909047Y-88407200D02*
X113813809Y-88454819D01*
X113813809Y-88454819D02*
X113718571Y-88454819D01*
X113718571Y-88454819D02*
X113623333Y-88407200D01*
X113623333Y-88407200D02*
X113575714Y-88359580D01*
X113575714Y-88359580D02*
X113528095Y-88264342D01*
X113528095Y-88264342D02*
X113480476Y-88073866D01*
X113480476Y-88073866D02*
X113480476Y-87835771D01*
X113480476Y-87835771D02*
X113528095Y-87645295D01*
X113528095Y-87645295D02*
X113575714Y-87550057D01*
X113575714Y-87550057D02*
X113623333Y-87502438D01*
X113623333Y-87502438D02*
X113718571Y-87454819D01*
X114623333Y-87883390D02*
X114528095Y-87835771D01*
X114528095Y-87835771D02*
X114480476Y-87788152D01*
X114480476Y-87788152D02*
X114432857Y-87692914D01*
X114432857Y-87692914D02*
X114432857Y-87645295D01*
X114432857Y-87645295D02*
X114480476Y-87550057D01*
X114480476Y-87550057D02*
X114528095Y-87502438D01*
X114528095Y-87502438D02*
X114623333Y-87454819D01*
X114623333Y-87454819D02*
X114813809Y-87454819D01*
X114813809Y-87454819D02*
X114909047Y-87502438D01*
X114909047Y-87502438D02*
X114956666Y-87550057D01*
X114956666Y-87550057D02*
X115004285Y-87645295D01*
X115004285Y-87645295D02*
X115004285Y-87692914D01*
X115004285Y-87692914D02*
X114956666Y-87788152D01*
X114956666Y-87788152D02*
X114909047Y-87835771D01*
X114909047Y-87835771D02*
X114813809Y-87883390D01*
X114813809Y-87883390D02*
X114623333Y-87883390D01*
X114623333Y-87883390D02*
X114528095Y-87931009D01*
X114528095Y-87931009D02*
X114480476Y-87978628D01*
X114480476Y-87978628D02*
X114432857Y-88073866D01*
X114432857Y-88073866D02*
X114432857Y-88264342D01*
X114432857Y-88264342D02*
X114480476Y-88359580D01*
X114480476Y-88359580D02*
X114528095Y-88407200D01*
X114528095Y-88407200D02*
X114623333Y-88454819D01*
X114623333Y-88454819D02*
X114813809Y-88454819D01*
X114813809Y-88454819D02*
X114909047Y-88407200D01*
X114909047Y-88407200D02*
X114956666Y-88359580D01*
X114956666Y-88359580D02*
X115004285Y-88264342D01*
X115004285Y-88264342D02*
X115004285Y-88073866D01*
X115004285Y-88073866D02*
X114956666Y-87978628D01*
X114956666Y-87978628D02*
X114909047Y-87931009D01*
X114909047Y-87931009D02*
X114813809Y-87883390D01*
X119648095Y-94774819D02*
X119648095Y-93774819D01*
X120219523Y-94774819D02*
X119790952Y-94203390D01*
X120219523Y-93774819D02*
X119648095Y-94346247D01*
X150024761Y-90320057D02*
X149929523Y-90272438D01*
X149929523Y-90272438D02*
X149834285Y-90177200D01*
X149834285Y-90177200D02*
X149691428Y-90034342D01*
X149691428Y-90034342D02*
X149596190Y-89986723D01*
X149596190Y-89986723D02*
X149500952Y-89986723D01*
X149548571Y-90224819D02*
X149453333Y-90177200D01*
X149453333Y-90177200D02*
X149358095Y-90081961D01*
X149358095Y-90081961D02*
X149310476Y-89891485D01*
X149310476Y-89891485D02*
X149310476Y-89558152D01*
X149310476Y-89558152D02*
X149358095Y-89367676D01*
X149358095Y-89367676D02*
X149453333Y-89272438D01*
X149453333Y-89272438D02*
X149548571Y-89224819D01*
X149548571Y-89224819D02*
X149739047Y-89224819D01*
X149739047Y-89224819D02*
X149834285Y-89272438D01*
X149834285Y-89272438D02*
X149929523Y-89367676D01*
X149929523Y-89367676D02*
X149977142Y-89558152D01*
X149977142Y-89558152D02*
X149977142Y-89891485D01*
X149977142Y-89891485D02*
X149929523Y-90081961D01*
X149929523Y-90081961D02*
X149834285Y-90177200D01*
X149834285Y-90177200D02*
X149739047Y-90224819D01*
X149739047Y-90224819D02*
X149548571Y-90224819D01*
X150929523Y-90224819D02*
X150358095Y-90224819D01*
X150643809Y-90224819D02*
X150643809Y-89224819D01*
X150643809Y-89224819D02*
X150548571Y-89367676D01*
X150548571Y-89367676D02*
X150453333Y-89462914D01*
X150453333Y-89462914D02*
X150358095Y-89510533D01*
X147405714Y-95670057D02*
X147453333Y-95622438D01*
X147453333Y-95622438D02*
X147548571Y-95574819D01*
X147548571Y-95574819D02*
X147786666Y-95574819D01*
X147786666Y-95574819D02*
X147881904Y-95622438D01*
X147881904Y-95622438D02*
X147929523Y-95670057D01*
X147929523Y-95670057D02*
X147977142Y-95765295D01*
X147977142Y-95765295D02*
X147977142Y-95860533D01*
X147977142Y-95860533D02*
X147929523Y-96003390D01*
X147929523Y-96003390D02*
X147358095Y-96574819D01*
X147358095Y-96574819D02*
X147977142Y-96574819D01*
X148405714Y-96574819D02*
X148405714Y-95574819D01*
X148405714Y-95574819D02*
X148977142Y-96574819D01*
X148977142Y-96574819D02*
X148977142Y-95574819D01*
X149358095Y-95574819D02*
X149977142Y-95574819D01*
X149977142Y-95574819D02*
X149643809Y-95955771D01*
X149643809Y-95955771D02*
X149786666Y-95955771D01*
X149786666Y-95955771D02*
X149881904Y-96003390D01*
X149881904Y-96003390D02*
X149929523Y-96051009D01*
X149929523Y-96051009D02*
X149977142Y-96146247D01*
X149977142Y-96146247D02*
X149977142Y-96384342D01*
X149977142Y-96384342D02*
X149929523Y-96479580D01*
X149929523Y-96479580D02*
X149881904Y-96527200D01*
X149881904Y-96527200D02*
X149786666Y-96574819D01*
X149786666Y-96574819D02*
X149500952Y-96574819D01*
X149500952Y-96574819D02*
X149405714Y-96527200D01*
X149405714Y-96527200D02*
X149358095Y-96479580D01*
X150453333Y-96574819D02*
X150643809Y-96574819D01*
X150643809Y-96574819D02*
X150739047Y-96527200D01*
X150739047Y-96527200D02*
X150786666Y-96479580D01*
X150786666Y-96479580D02*
X150881904Y-96336723D01*
X150881904Y-96336723D02*
X150929523Y-96146247D01*
X150929523Y-96146247D02*
X150929523Y-95765295D01*
X150929523Y-95765295D02*
X150881904Y-95670057D01*
X150881904Y-95670057D02*
X150834285Y-95622438D01*
X150834285Y-95622438D02*
X150739047Y-95574819D01*
X150739047Y-95574819D02*
X150548571Y-95574819D01*
X150548571Y-95574819D02*
X150453333Y-95622438D01*
X150453333Y-95622438D02*
X150405714Y-95670057D01*
X150405714Y-95670057D02*
X150358095Y-95765295D01*
X150358095Y-95765295D02*
X150358095Y-96003390D01*
X150358095Y-96003390D02*
X150405714Y-96098628D01*
X150405714Y-96098628D02*
X150453333Y-96146247D01*
X150453333Y-96146247D02*
X150548571Y-96193866D01*
X150548571Y-96193866D02*
X150739047Y-96193866D01*
X150739047Y-96193866D02*
X150834285Y-96146247D01*
X150834285Y-96146247D02*
X150881904Y-96098628D01*
X150881904Y-96098628D02*
X150929523Y-96003390D01*
X151548571Y-95574819D02*
X151643809Y-95574819D01*
X151643809Y-95574819D02*
X151739047Y-95622438D01*
X151739047Y-95622438D02*
X151786666Y-95670057D01*
X151786666Y-95670057D02*
X151834285Y-95765295D01*
X151834285Y-95765295D02*
X151881904Y-95955771D01*
X151881904Y-95955771D02*
X151881904Y-96193866D01*
X151881904Y-96193866D02*
X151834285Y-96384342D01*
X151834285Y-96384342D02*
X151786666Y-96479580D01*
X151786666Y-96479580D02*
X151739047Y-96527200D01*
X151739047Y-96527200D02*
X151643809Y-96574819D01*
X151643809Y-96574819D02*
X151548571Y-96574819D01*
X151548571Y-96574819D02*
X151453333Y-96527200D01*
X151453333Y-96527200D02*
X151405714Y-96479580D01*
X151405714Y-96479580D02*
X151358095Y-96384342D01*
X151358095Y-96384342D02*
X151310476Y-96193866D01*
X151310476Y-96193866D02*
X151310476Y-95955771D01*
X151310476Y-95955771D02*
X151358095Y-95765295D01*
X151358095Y-95765295D02*
X151405714Y-95670057D01*
X151405714Y-95670057D02*
X151453333Y-95622438D01*
X151453333Y-95622438D02*
X151548571Y-95574819D01*
X152739047Y-95908152D02*
X152739047Y-96574819D01*
X152500952Y-95527200D02*
X152262857Y-96241485D01*
X152262857Y-96241485D02*
X152881904Y-96241485D01*
X148913333Y-75964819D02*
X148580000Y-75488628D01*
X148341905Y-75964819D02*
X148341905Y-74964819D01*
X148341905Y-74964819D02*
X148722857Y-74964819D01*
X148722857Y-74964819D02*
X148818095Y-75012438D01*
X148818095Y-75012438D02*
X148865714Y-75060057D01*
X148865714Y-75060057D02*
X148913333Y-75155295D01*
X148913333Y-75155295D02*
X148913333Y-75298152D01*
X148913333Y-75298152D02*
X148865714Y-75393390D01*
X148865714Y-75393390D02*
X148818095Y-75441009D01*
X148818095Y-75441009D02*
X148722857Y-75488628D01*
X148722857Y-75488628D02*
X148341905Y-75488628D01*
X149294286Y-75060057D02*
X149341905Y-75012438D01*
X149341905Y-75012438D02*
X149437143Y-74964819D01*
X149437143Y-74964819D02*
X149675238Y-74964819D01*
X149675238Y-74964819D02*
X149770476Y-75012438D01*
X149770476Y-75012438D02*
X149818095Y-75060057D01*
X149818095Y-75060057D02*
X149865714Y-75155295D01*
X149865714Y-75155295D02*
X149865714Y-75250533D01*
X149865714Y-75250533D02*
X149818095Y-75393390D01*
X149818095Y-75393390D02*
X149246667Y-75964819D01*
X149246667Y-75964819D02*
X149865714Y-75964819D01*
X148294286Y-79800057D02*
X148341905Y-79752438D01*
X148341905Y-79752438D02*
X148437143Y-79704819D01*
X148437143Y-79704819D02*
X148675238Y-79704819D01*
X148675238Y-79704819D02*
X148770476Y-79752438D01*
X148770476Y-79752438D02*
X148818095Y-79800057D01*
X148818095Y-79800057D02*
X148865714Y-79895295D01*
X148865714Y-79895295D02*
X148865714Y-79990533D01*
X148865714Y-79990533D02*
X148818095Y-80133390D01*
X148818095Y-80133390D02*
X148246667Y-80704819D01*
X148246667Y-80704819D02*
X148865714Y-80704819D01*
X149294286Y-80704819D02*
X149294286Y-79704819D01*
X149865714Y-80704819D02*
X149437143Y-80133390D01*
X149865714Y-79704819D02*
X149294286Y-80276247D01*
X111651905Y-73114819D02*
X111651905Y-72114819D01*
X111651905Y-72114819D02*
X111890000Y-72114819D01*
X111890000Y-72114819D02*
X112032857Y-72162438D01*
X112032857Y-72162438D02*
X112128095Y-72257676D01*
X112128095Y-72257676D02*
X112175714Y-72352914D01*
X112175714Y-72352914D02*
X112223333Y-72543390D01*
X112223333Y-72543390D02*
X112223333Y-72686247D01*
X112223333Y-72686247D02*
X112175714Y-72876723D01*
X112175714Y-72876723D02*
X112128095Y-72971961D01*
X112128095Y-72971961D02*
X112032857Y-73067200D01*
X112032857Y-73067200D02*
X111890000Y-73114819D01*
X111890000Y-73114819D02*
X111651905Y-73114819D01*
X113175714Y-73114819D02*
X112604286Y-73114819D01*
X112890000Y-73114819D02*
X112890000Y-72114819D01*
X112890000Y-72114819D02*
X112794762Y-72257676D01*
X112794762Y-72257676D02*
X112699524Y-72352914D01*
X112699524Y-72352914D02*
X112604286Y-72400533D01*
X109737142Y-80664819D02*
X109165714Y-80664819D01*
X109451428Y-80664819D02*
X109451428Y-79664819D01*
X109451428Y-79664819D02*
X109356190Y-79807676D01*
X109356190Y-79807676D02*
X109260952Y-79902914D01*
X109260952Y-79902914D02*
X109165714Y-79950533D01*
X110165714Y-80664819D02*
X110165714Y-79664819D01*
X110165714Y-79664819D02*
X110737142Y-80664819D01*
X110737142Y-80664819D02*
X110737142Y-79664819D01*
X111689523Y-79664819D02*
X111213333Y-79664819D01*
X111213333Y-79664819D02*
X111165714Y-80141009D01*
X111165714Y-80141009D02*
X111213333Y-80093390D01*
X111213333Y-80093390D02*
X111308571Y-80045771D01*
X111308571Y-80045771D02*
X111546666Y-80045771D01*
X111546666Y-80045771D02*
X111641904Y-80093390D01*
X111641904Y-80093390D02*
X111689523Y-80141009D01*
X111689523Y-80141009D02*
X111737142Y-80236247D01*
X111737142Y-80236247D02*
X111737142Y-80474342D01*
X111737142Y-80474342D02*
X111689523Y-80569580D01*
X111689523Y-80569580D02*
X111641904Y-80617200D01*
X111641904Y-80617200D02*
X111546666Y-80664819D01*
X111546666Y-80664819D02*
X111308571Y-80664819D01*
X111308571Y-80664819D02*
X111213333Y-80617200D01*
X111213333Y-80617200D02*
X111165714Y-80569580D01*
X112594285Y-79998152D02*
X112594285Y-80664819D01*
X112356190Y-79617200D02*
X112118095Y-80331485D01*
X112118095Y-80331485D02*
X112737142Y-80331485D01*
X113308571Y-79664819D02*
X113403809Y-79664819D01*
X113403809Y-79664819D02*
X113499047Y-79712438D01*
X113499047Y-79712438D02*
X113546666Y-79760057D01*
X113546666Y-79760057D02*
X113594285Y-79855295D01*
X113594285Y-79855295D02*
X113641904Y-80045771D01*
X113641904Y-80045771D02*
X113641904Y-80283866D01*
X113641904Y-80283866D02*
X113594285Y-80474342D01*
X113594285Y-80474342D02*
X113546666Y-80569580D01*
X113546666Y-80569580D02*
X113499047Y-80617200D01*
X113499047Y-80617200D02*
X113403809Y-80664819D01*
X113403809Y-80664819D02*
X113308571Y-80664819D01*
X113308571Y-80664819D02*
X113213333Y-80617200D01*
X113213333Y-80617200D02*
X113165714Y-80569580D01*
X113165714Y-80569580D02*
X113118095Y-80474342D01*
X113118095Y-80474342D02*
X113070476Y-80283866D01*
X113070476Y-80283866D02*
X113070476Y-80045771D01*
X113070476Y-80045771D02*
X113118095Y-79855295D01*
X113118095Y-79855295D02*
X113165714Y-79760057D01*
X113165714Y-79760057D02*
X113213333Y-79712438D01*
X113213333Y-79712438D02*
X113308571Y-79664819D01*
X114213333Y-80093390D02*
X114118095Y-80045771D01*
X114118095Y-80045771D02*
X114070476Y-79998152D01*
X114070476Y-79998152D02*
X114022857Y-79902914D01*
X114022857Y-79902914D02*
X114022857Y-79855295D01*
X114022857Y-79855295D02*
X114070476Y-79760057D01*
X114070476Y-79760057D02*
X114118095Y-79712438D01*
X114118095Y-79712438D02*
X114213333Y-79664819D01*
X114213333Y-79664819D02*
X114403809Y-79664819D01*
X114403809Y-79664819D02*
X114499047Y-79712438D01*
X114499047Y-79712438D02*
X114546666Y-79760057D01*
X114546666Y-79760057D02*
X114594285Y-79855295D01*
X114594285Y-79855295D02*
X114594285Y-79902914D01*
X114594285Y-79902914D02*
X114546666Y-79998152D01*
X114546666Y-79998152D02*
X114499047Y-80045771D01*
X114499047Y-80045771D02*
X114403809Y-80093390D01*
X114403809Y-80093390D02*
X114213333Y-80093390D01*
X114213333Y-80093390D02*
X114118095Y-80141009D01*
X114118095Y-80141009D02*
X114070476Y-80188628D01*
X114070476Y-80188628D02*
X114022857Y-80283866D01*
X114022857Y-80283866D02*
X114022857Y-80474342D01*
X114022857Y-80474342D02*
X114070476Y-80569580D01*
X114070476Y-80569580D02*
X114118095Y-80617200D01*
X114118095Y-80617200D02*
X114213333Y-80664819D01*
X114213333Y-80664819D02*
X114403809Y-80664819D01*
X114403809Y-80664819D02*
X114499047Y-80617200D01*
X114499047Y-80617200D02*
X114546666Y-80569580D01*
X114546666Y-80569580D02*
X114594285Y-80474342D01*
X114594285Y-80474342D02*
X114594285Y-80283866D01*
X114594285Y-80283866D02*
X114546666Y-80188628D01*
X114546666Y-80188628D02*
X114499047Y-80141009D01*
X114499047Y-80141009D02*
X114403809Y-80093390D01*
X119888095Y-79324819D02*
X119888095Y-78324819D01*
X120459523Y-79324819D02*
X120030952Y-78753390D01*
X120459523Y-78324819D02*
X119888095Y-78896247D01*
X111331905Y-105394819D02*
X111331905Y-104394819D01*
X111331905Y-104394819D02*
X111570000Y-104394819D01*
X111570000Y-104394819D02*
X111712857Y-104442438D01*
X111712857Y-104442438D02*
X111808095Y-104537676D01*
X111808095Y-104537676D02*
X111855714Y-104632914D01*
X111855714Y-104632914D02*
X111903333Y-104823390D01*
X111903333Y-104823390D02*
X111903333Y-104966247D01*
X111903333Y-104966247D02*
X111855714Y-105156723D01*
X111855714Y-105156723D02*
X111808095Y-105251961D01*
X111808095Y-105251961D02*
X111712857Y-105347200D01*
X111712857Y-105347200D02*
X111570000Y-105394819D01*
X111570000Y-105394819D02*
X111331905Y-105394819D01*
X112236667Y-104394819D02*
X112855714Y-104394819D01*
X112855714Y-104394819D02*
X112522381Y-104775771D01*
X112522381Y-104775771D02*
X112665238Y-104775771D01*
X112665238Y-104775771D02*
X112760476Y-104823390D01*
X112760476Y-104823390D02*
X112808095Y-104871009D01*
X112808095Y-104871009D02*
X112855714Y-104966247D01*
X112855714Y-104966247D02*
X112855714Y-105204342D01*
X112855714Y-105204342D02*
X112808095Y-105299580D01*
X112808095Y-105299580D02*
X112760476Y-105347200D01*
X112760476Y-105347200D02*
X112665238Y-105394819D01*
X112665238Y-105394819D02*
X112379524Y-105394819D01*
X112379524Y-105394819D02*
X112284286Y-105347200D01*
X112284286Y-105347200D02*
X112236667Y-105299580D01*
X109927142Y-112834819D02*
X109355714Y-112834819D01*
X109641428Y-112834819D02*
X109641428Y-111834819D01*
X109641428Y-111834819D02*
X109546190Y-111977676D01*
X109546190Y-111977676D02*
X109450952Y-112072914D01*
X109450952Y-112072914D02*
X109355714Y-112120533D01*
X110355714Y-112834819D02*
X110355714Y-111834819D01*
X110355714Y-111834819D02*
X110927142Y-112834819D01*
X110927142Y-112834819D02*
X110927142Y-111834819D01*
X111879523Y-111834819D02*
X111403333Y-111834819D01*
X111403333Y-111834819D02*
X111355714Y-112311009D01*
X111355714Y-112311009D02*
X111403333Y-112263390D01*
X111403333Y-112263390D02*
X111498571Y-112215771D01*
X111498571Y-112215771D02*
X111736666Y-112215771D01*
X111736666Y-112215771D02*
X111831904Y-112263390D01*
X111831904Y-112263390D02*
X111879523Y-112311009D01*
X111879523Y-112311009D02*
X111927142Y-112406247D01*
X111927142Y-112406247D02*
X111927142Y-112644342D01*
X111927142Y-112644342D02*
X111879523Y-112739580D01*
X111879523Y-112739580D02*
X111831904Y-112787200D01*
X111831904Y-112787200D02*
X111736666Y-112834819D01*
X111736666Y-112834819D02*
X111498571Y-112834819D01*
X111498571Y-112834819D02*
X111403333Y-112787200D01*
X111403333Y-112787200D02*
X111355714Y-112739580D01*
X112784285Y-112168152D02*
X112784285Y-112834819D01*
X112546190Y-111787200D02*
X112308095Y-112501485D01*
X112308095Y-112501485D02*
X112927142Y-112501485D01*
X113498571Y-111834819D02*
X113593809Y-111834819D01*
X113593809Y-111834819D02*
X113689047Y-111882438D01*
X113689047Y-111882438D02*
X113736666Y-111930057D01*
X113736666Y-111930057D02*
X113784285Y-112025295D01*
X113784285Y-112025295D02*
X113831904Y-112215771D01*
X113831904Y-112215771D02*
X113831904Y-112453866D01*
X113831904Y-112453866D02*
X113784285Y-112644342D01*
X113784285Y-112644342D02*
X113736666Y-112739580D01*
X113736666Y-112739580D02*
X113689047Y-112787200D01*
X113689047Y-112787200D02*
X113593809Y-112834819D01*
X113593809Y-112834819D02*
X113498571Y-112834819D01*
X113498571Y-112834819D02*
X113403333Y-112787200D01*
X113403333Y-112787200D02*
X113355714Y-112739580D01*
X113355714Y-112739580D02*
X113308095Y-112644342D01*
X113308095Y-112644342D02*
X113260476Y-112453866D01*
X113260476Y-112453866D02*
X113260476Y-112215771D01*
X113260476Y-112215771D02*
X113308095Y-112025295D01*
X113308095Y-112025295D02*
X113355714Y-111930057D01*
X113355714Y-111930057D02*
X113403333Y-111882438D01*
X113403333Y-111882438D02*
X113498571Y-111834819D01*
X114403333Y-112263390D02*
X114308095Y-112215771D01*
X114308095Y-112215771D02*
X114260476Y-112168152D01*
X114260476Y-112168152D02*
X114212857Y-112072914D01*
X114212857Y-112072914D02*
X114212857Y-112025295D01*
X114212857Y-112025295D02*
X114260476Y-111930057D01*
X114260476Y-111930057D02*
X114308095Y-111882438D01*
X114308095Y-111882438D02*
X114403333Y-111834819D01*
X114403333Y-111834819D02*
X114593809Y-111834819D01*
X114593809Y-111834819D02*
X114689047Y-111882438D01*
X114689047Y-111882438D02*
X114736666Y-111930057D01*
X114736666Y-111930057D02*
X114784285Y-112025295D01*
X114784285Y-112025295D02*
X114784285Y-112072914D01*
X114784285Y-112072914D02*
X114736666Y-112168152D01*
X114736666Y-112168152D02*
X114689047Y-112215771D01*
X114689047Y-112215771D02*
X114593809Y-112263390D01*
X114593809Y-112263390D02*
X114403333Y-112263390D01*
X114403333Y-112263390D02*
X114308095Y-112311009D01*
X114308095Y-112311009D02*
X114260476Y-112358628D01*
X114260476Y-112358628D02*
X114212857Y-112453866D01*
X114212857Y-112453866D02*
X114212857Y-112644342D01*
X114212857Y-112644342D02*
X114260476Y-112739580D01*
X114260476Y-112739580D02*
X114308095Y-112787200D01*
X114308095Y-112787200D02*
X114403333Y-112834819D01*
X114403333Y-112834819D02*
X114593809Y-112834819D01*
X114593809Y-112834819D02*
X114689047Y-112787200D01*
X114689047Y-112787200D02*
X114736666Y-112739580D01*
X114736666Y-112739580D02*
X114784285Y-112644342D01*
X114784285Y-112644342D02*
X114784285Y-112453866D01*
X114784285Y-112453866D02*
X114736666Y-112358628D01*
X114736666Y-112358628D02*
X114689047Y-112311009D01*
X114689047Y-112311009D02*
X114593809Y-112263390D01*
X104188095Y-106514819D02*
X104188095Y-105514819D01*
X104759523Y-106514819D02*
X104330952Y-105943390D01*
X104759523Y-105514819D02*
X104188095Y-106086247D01*
D12*
%TO.C,J1*%
X89460000Y-79190000D02*
X88720000Y-79190000D01*
X88720000Y-79190000D02*
X88720000Y-79690000D01*
X95280000Y-79430000D02*
X88960000Y-79430000D01*
X95280000Y-79430000D02*
X95280000Y-105410000D01*
X94820000Y-79430000D02*
X94820000Y-105410000D01*
X89520000Y-79430000D02*
X89520000Y-105410000D01*
X88960000Y-79430000D02*
X88960000Y-105410000D01*
X95280000Y-105410000D02*
X88960000Y-105410000D01*
%TO.C,R1*%
X135360000Y-78800000D02*
X135360000Y-79490000D01*
X137080000Y-79490000D02*
X133640000Y-79490000D01*
X133640000Y-79490000D02*
X133640000Y-88730000D01*
X137080000Y-88730000D02*
X137080000Y-79490000D01*
X133640000Y-88730000D02*
X137080000Y-88730000D01*
X135360000Y-89420000D02*
X135360000Y-88730000D01*
%TO.C,J2*%
X142060000Y-104640000D02*
X142060000Y-104945000D01*
X142060000Y-104640000D02*
X146180000Y-104640000D01*
X142060000Y-108455000D02*
X142060000Y-108760000D01*
X142060000Y-108760000D02*
X146180000Y-108760000D01*
X146180000Y-104640000D02*
X146180000Y-104945000D01*
X146180000Y-108455000D02*
X146180000Y-108760000D01*
X144603000Y-105216001D02*
G75*
G03*
X143638482Y-105215520I-483000J-1483999D01*
G01*
X143637000Y-108184000D02*
G75*
G03*
X144146458Y-108260399I483000J1484000D01*
G01*
X144120000Y-108259999D02*
G75*
G03*
X144602067Y-108183647I0J1559999D01*
G01*
%TO.C,D2*%
X118070000Y-91720000D02*
X117160000Y-91720000D01*
X117160000Y-94440000D02*
X117160000Y-89000000D01*
X117160000Y-89000000D02*
X107420000Y-89000000D01*
X115735000Y-94440000D02*
X115735000Y-89000000D01*
X115615000Y-94440000D02*
X115615000Y-89000000D01*
X115495000Y-94440000D02*
X115495000Y-89000000D01*
X107420000Y-94440000D02*
X117160000Y-94440000D01*
X107420000Y-89000000D02*
X107420000Y-94440000D01*
X106510000Y-91720000D02*
X107420000Y-91720000D01*
%TO.C,Q1*%
X148320000Y-95180000D02*
X151920000Y-95180000D01*
X150120000Y-90730000D02*
G75*
G03*
X148281522Y-95168478I0J-2600000D01*
G01*
X151958478Y-95168478D02*
G75*
G03*
X150120000Y-90730000I-1838478J1838478D01*
G01*
%TO.C,R2*%
X145810000Y-76510000D02*
X152350000Y-76510000D01*
X145810000Y-76840000D02*
X145810000Y-76510000D01*
X145810000Y-78920000D02*
X145810000Y-79250000D01*
X145810000Y-79250000D02*
X152350000Y-79250000D01*
X152350000Y-76510000D02*
X152350000Y-76840000D01*
X152350000Y-79250000D02*
X152350000Y-78920000D01*
%TO.C,D1*%
X118310000Y-76270000D02*
X117400000Y-76270000D01*
X117400000Y-78990000D02*
X117400000Y-73550000D01*
X117400000Y-73550000D02*
X107660000Y-73550000D01*
X115975000Y-78990000D02*
X115975000Y-73550000D01*
X115855000Y-78990000D02*
X115855000Y-73550000D01*
X115735000Y-78990000D02*
X115735000Y-73550000D01*
X107660000Y-78990000D02*
X117400000Y-78990000D01*
X107660000Y-73550000D02*
X107660000Y-78990000D01*
X106750000Y-76270000D02*
X107660000Y-76270000D01*
%TO.C,D3*%
X106290000Y-108660000D02*
X107200000Y-108660000D01*
X107200000Y-105940000D02*
X107200000Y-111380000D01*
X107200000Y-111380000D02*
X116940000Y-111380000D01*
X108625000Y-105940000D02*
X108625000Y-111380000D01*
X108745000Y-105940000D02*
X108745000Y-111380000D01*
X108865000Y-105940000D02*
X108865000Y-111380000D01*
X116940000Y-105940000D02*
X107200000Y-105940000D01*
X116940000Y-111380000D02*
X116940000Y-105940000D01*
X117850000Y-108660000D02*
X116940000Y-108660000D01*
%TD*%
M02*
