%TF.GenerationSoftware,KiCad,Pcbnew,7.0.8*%
%TF.CreationDate,2025-03-29T18:24:59-04:00*%
%TF.ProjectId,v2315power,76323331-3570-46f7-9765-722e6b696361,rev?*%
%TF.SameCoordinates,Original*%
%TF.FileFunction,Drillmap*%
%TF.FilePolarity,Positive*%
%FSLAX45Y45*%
G04 Gerber Fmt 4.5, Leading zero omitted, Abs format (unit mm)*
G04 Created by KiCad (PCBNEW 7.0.8) date 2025-03-29 18:24:59*
%MOMM*%
%LPD*%
G01*
G04 APERTURE LIST*
%ADD10C,0.200000*%
%ADD11C,0.075000*%
%ADD12C,0.080000*%
%ADD13C,0.110000*%
%ADD14C,0.150000*%
%ADD15C,0.160000*%
G04 APERTURE END LIST*
D10*
X8220000Y-6609000D02*
X16475000Y-6609000D01*
X16475000Y-11689000D01*
X8220000Y-11689000D01*
X8220000Y-6609000D01*
D11*
X14847500Y-9295500D02*
X14922500Y-9370500D01*
X14922500Y-9295500D02*
X14847500Y-9370500D01*
X14974500Y-9295500D02*
X15049500Y-9370500D01*
X15049500Y-9295500D02*
X14974500Y-9370500D01*
X15101500Y-9295500D02*
X15176500Y-9370500D01*
X15176500Y-9295500D02*
X15101500Y-9370500D01*
D12*
X13576000Y-7776000D02*
G75*
G03*
X13576000Y-7776000I-40000J0D01*
G01*
X13576000Y-9046000D02*
G75*
G03*
X13576000Y-9046000I-40000J0D01*
G01*
X14567000Y-7788000D02*
G75*
G03*
X14567000Y-7788000I-40000J0D01*
G01*
X15329000Y-7788000D02*
G75*
G03*
X15329000Y-7788000I-40000J0D01*
G01*
D13*
X9212000Y-8044000D02*
X9212000Y-8154000D01*
X9157000Y-8099000D02*
X9267000Y-8099000D01*
X9212000Y-8298000D02*
X9212000Y-8408000D01*
X9157000Y-8353000D02*
X9267000Y-8353000D01*
X9212000Y-8552000D02*
X9212000Y-8662000D01*
X9157000Y-8607000D02*
X9267000Y-8607000D01*
X9212000Y-8806000D02*
X9212000Y-8916000D01*
X9157000Y-8861000D02*
X9267000Y-8861000D01*
X9212000Y-9060000D02*
X9212000Y-9170000D01*
X9157000Y-9115000D02*
X9267000Y-9115000D01*
X9212000Y-9314000D02*
X9212000Y-9424000D01*
X9157000Y-9369000D02*
X9267000Y-9369000D01*
X9212000Y-9568000D02*
X9212000Y-9678000D01*
X9157000Y-9623000D02*
X9267000Y-9623000D01*
X9212000Y-9822000D02*
X9212000Y-9932000D01*
X9157000Y-9877000D02*
X9267000Y-9877000D01*
X9212000Y-10076000D02*
X9212000Y-10186000D01*
X9157000Y-10131000D02*
X9267000Y-10131000D01*
X9212000Y-10330000D02*
X9212000Y-10440000D01*
X9157000Y-10385000D02*
X9267000Y-10385000D01*
D14*
X14315033Y-10723034D02*
X14315033Y-10616967D01*
X14208966Y-10616967D01*
X14208966Y-10723034D01*
X14315033Y-10723034D01*
X14615033Y-10723034D02*
X14615033Y-10616967D01*
X14508966Y-10616967D01*
X14508966Y-10723034D01*
X14615033Y-10723034D01*
D15*
X10445000Y-10946000D02*
X10525000Y-10866000D01*
X10445000Y-10786000D01*
X10365000Y-10866000D01*
X10445000Y-10946000D01*
X10467000Y-9252000D02*
X10547000Y-9172000D01*
X10467000Y-9092000D01*
X10387000Y-9172000D01*
X10467000Y-9252000D01*
X10491000Y-7707000D02*
X10571000Y-7627000D01*
X10491000Y-7547000D01*
X10411000Y-7627000D01*
X10491000Y-7707000D01*
X11969000Y-10946000D02*
X12049000Y-10866000D01*
X11969000Y-10786000D01*
X11889000Y-10866000D01*
X11969000Y-10946000D01*
X11991000Y-9252000D02*
X12071000Y-9172000D01*
X11991000Y-9092000D01*
X11911000Y-9172000D01*
X11991000Y-9252000D01*
X12015000Y-7707000D02*
X12095000Y-7627000D01*
X12015000Y-7547000D01*
X11935000Y-7627000D01*
X12015000Y-7707000D01*
D10*
X8470777Y-12010484D02*
X8470777Y-11810484D01*
X8470777Y-11810484D02*
X8518396Y-11810484D01*
X8518396Y-11810484D02*
X8546967Y-11820008D01*
X8546967Y-11820008D02*
X8566015Y-11839055D01*
X8566015Y-11839055D02*
X8575539Y-11858103D01*
X8575539Y-11858103D02*
X8585063Y-11896198D01*
X8585063Y-11896198D02*
X8585063Y-11924769D01*
X8585063Y-11924769D02*
X8575539Y-11962865D01*
X8575539Y-11962865D02*
X8566015Y-11981912D01*
X8566015Y-11981912D02*
X8546967Y-12000960D01*
X8546967Y-12000960D02*
X8518396Y-12010484D01*
X8518396Y-12010484D02*
X8470777Y-12010484D01*
X8670777Y-12010484D02*
X8670777Y-11877150D01*
X8670777Y-11915246D02*
X8680301Y-11896198D01*
X8680301Y-11896198D02*
X8689824Y-11886674D01*
X8689824Y-11886674D02*
X8708872Y-11877150D01*
X8708872Y-11877150D02*
X8727920Y-11877150D01*
X8794586Y-12010484D02*
X8794586Y-11877150D01*
X8794586Y-11810484D02*
X8785063Y-11820008D01*
X8785063Y-11820008D02*
X8794586Y-11829531D01*
X8794586Y-11829531D02*
X8804110Y-11820008D01*
X8804110Y-11820008D02*
X8794586Y-11810484D01*
X8794586Y-11810484D02*
X8794586Y-11829531D01*
X8918396Y-12010484D02*
X8899348Y-12000960D01*
X8899348Y-12000960D02*
X8889824Y-11981912D01*
X8889824Y-11981912D02*
X8889824Y-11810484D01*
X9023158Y-12010484D02*
X9004110Y-12000960D01*
X9004110Y-12000960D02*
X8994586Y-11981912D01*
X8994586Y-11981912D02*
X8994586Y-11810484D01*
X9251729Y-12010484D02*
X9251729Y-11810484D01*
X9251729Y-11810484D02*
X9318396Y-11953341D01*
X9318396Y-11953341D02*
X9385063Y-11810484D01*
X9385063Y-11810484D02*
X9385063Y-12010484D01*
X9566015Y-12010484D02*
X9566015Y-11905722D01*
X9566015Y-11905722D02*
X9556491Y-11886674D01*
X9556491Y-11886674D02*
X9537444Y-11877150D01*
X9537444Y-11877150D02*
X9499348Y-11877150D01*
X9499348Y-11877150D02*
X9480301Y-11886674D01*
X9566015Y-12000960D02*
X9546967Y-12010484D01*
X9546967Y-12010484D02*
X9499348Y-12010484D01*
X9499348Y-12010484D02*
X9480301Y-12000960D01*
X9480301Y-12000960D02*
X9470777Y-11981912D01*
X9470777Y-11981912D02*
X9470777Y-11962865D01*
X9470777Y-11962865D02*
X9480301Y-11943817D01*
X9480301Y-11943817D02*
X9499348Y-11934293D01*
X9499348Y-11934293D02*
X9546967Y-11934293D01*
X9546967Y-11934293D02*
X9566015Y-11924769D01*
X9661253Y-11877150D02*
X9661253Y-12077150D01*
X9661253Y-11886674D02*
X9680301Y-11877150D01*
X9680301Y-11877150D02*
X9718396Y-11877150D01*
X9718396Y-11877150D02*
X9737444Y-11886674D01*
X9737444Y-11886674D02*
X9746967Y-11896198D01*
X9746967Y-11896198D02*
X9756491Y-11915246D01*
X9756491Y-11915246D02*
X9756491Y-11972388D01*
X9756491Y-11972388D02*
X9746967Y-11991436D01*
X9746967Y-11991436D02*
X9737444Y-12000960D01*
X9737444Y-12000960D02*
X9718396Y-12010484D01*
X9718396Y-12010484D02*
X9680301Y-12010484D01*
X9680301Y-12010484D02*
X9661253Y-12000960D01*
X9842205Y-11991436D02*
X9851729Y-12000960D01*
X9851729Y-12000960D02*
X9842205Y-12010484D01*
X9842205Y-12010484D02*
X9832682Y-12000960D01*
X9832682Y-12000960D02*
X9842205Y-11991436D01*
X9842205Y-11991436D02*
X9842205Y-12010484D01*
X9842205Y-11886674D02*
X9851729Y-11896198D01*
X9851729Y-11896198D02*
X9842205Y-11905722D01*
X9842205Y-11905722D02*
X9832682Y-11896198D01*
X9832682Y-11896198D02*
X9842205Y-11886674D01*
X9842205Y-11886674D02*
X9842205Y-11905722D01*
D11*
X8135000Y-12301500D02*
X8210000Y-12376500D01*
X8210000Y-12301500D02*
X8135000Y-12376500D01*
D10*
X8508872Y-12230484D02*
X8527920Y-12230484D01*
X8527920Y-12230484D02*
X8546967Y-12240008D01*
X8546967Y-12240008D02*
X8556491Y-12249531D01*
X8556491Y-12249531D02*
X8566015Y-12268579D01*
X8566015Y-12268579D02*
X8575539Y-12306674D01*
X8575539Y-12306674D02*
X8575539Y-12354293D01*
X8575539Y-12354293D02*
X8566015Y-12392388D01*
X8566015Y-12392388D02*
X8556491Y-12411436D01*
X8556491Y-12411436D02*
X8546967Y-12420960D01*
X8546967Y-12420960D02*
X8527920Y-12430484D01*
X8527920Y-12430484D02*
X8508872Y-12430484D01*
X8508872Y-12430484D02*
X8489824Y-12420960D01*
X8489824Y-12420960D02*
X8480301Y-12411436D01*
X8480301Y-12411436D02*
X8470777Y-12392388D01*
X8470777Y-12392388D02*
X8461253Y-12354293D01*
X8461253Y-12354293D02*
X8461253Y-12306674D01*
X8461253Y-12306674D02*
X8470777Y-12268579D01*
X8470777Y-12268579D02*
X8480301Y-12249531D01*
X8480301Y-12249531D02*
X8489824Y-12240008D01*
X8489824Y-12240008D02*
X8508872Y-12230484D01*
X8661253Y-12411436D02*
X8670777Y-12420960D01*
X8670777Y-12420960D02*
X8661253Y-12430484D01*
X8661253Y-12430484D02*
X8651729Y-12420960D01*
X8651729Y-12420960D02*
X8661253Y-12411436D01*
X8661253Y-12411436D02*
X8661253Y-12430484D01*
X8737444Y-12230484D02*
X8870777Y-12230484D01*
X8870777Y-12230484D02*
X8785063Y-12430484D01*
X9042205Y-12230484D02*
X8946967Y-12230484D01*
X8946967Y-12230484D02*
X8937444Y-12325722D01*
X8937444Y-12325722D02*
X8946967Y-12316198D01*
X8946967Y-12316198D02*
X8966015Y-12306674D01*
X8966015Y-12306674D02*
X9013634Y-12306674D01*
X9013634Y-12306674D02*
X9032682Y-12316198D01*
X9032682Y-12316198D02*
X9042205Y-12325722D01*
X9042205Y-12325722D02*
X9051729Y-12344769D01*
X9051729Y-12344769D02*
X9051729Y-12392388D01*
X9051729Y-12392388D02*
X9042205Y-12411436D01*
X9042205Y-12411436D02*
X9032682Y-12420960D01*
X9032682Y-12420960D02*
X9013634Y-12430484D01*
X9013634Y-12430484D02*
X8966015Y-12430484D01*
X8966015Y-12430484D02*
X8946967Y-12420960D01*
X8946967Y-12420960D02*
X8937444Y-12411436D01*
X9175539Y-12230484D02*
X9194586Y-12230484D01*
X9194586Y-12230484D02*
X9213634Y-12240008D01*
X9213634Y-12240008D02*
X9223158Y-12249531D01*
X9223158Y-12249531D02*
X9232682Y-12268579D01*
X9232682Y-12268579D02*
X9242205Y-12306674D01*
X9242205Y-12306674D02*
X9242205Y-12354293D01*
X9242205Y-12354293D02*
X9232682Y-12392388D01*
X9232682Y-12392388D02*
X9223158Y-12411436D01*
X9223158Y-12411436D02*
X9213634Y-12420960D01*
X9213634Y-12420960D02*
X9194586Y-12430484D01*
X9194586Y-12430484D02*
X9175539Y-12430484D01*
X9175539Y-12430484D02*
X9156491Y-12420960D01*
X9156491Y-12420960D02*
X9146967Y-12411436D01*
X9146967Y-12411436D02*
X9137444Y-12392388D01*
X9137444Y-12392388D02*
X9127920Y-12354293D01*
X9127920Y-12354293D02*
X9127920Y-12306674D01*
X9127920Y-12306674D02*
X9137444Y-12268579D01*
X9137444Y-12268579D02*
X9146967Y-12249531D01*
X9146967Y-12249531D02*
X9156491Y-12240008D01*
X9156491Y-12240008D02*
X9175539Y-12230484D01*
X9327920Y-12430484D02*
X9327920Y-12297150D01*
X9327920Y-12316198D02*
X9337444Y-12306674D01*
X9337444Y-12306674D02*
X9356491Y-12297150D01*
X9356491Y-12297150D02*
X9385063Y-12297150D01*
X9385063Y-12297150D02*
X9404110Y-12306674D01*
X9404110Y-12306674D02*
X9413634Y-12325722D01*
X9413634Y-12325722D02*
X9413634Y-12430484D01*
X9413634Y-12325722D02*
X9423158Y-12306674D01*
X9423158Y-12306674D02*
X9442205Y-12297150D01*
X9442205Y-12297150D02*
X9470777Y-12297150D01*
X9470777Y-12297150D02*
X9489825Y-12306674D01*
X9489825Y-12306674D02*
X9499348Y-12325722D01*
X9499348Y-12325722D02*
X9499348Y-12430484D01*
X9594586Y-12430484D02*
X9594586Y-12297150D01*
X9594586Y-12316198D02*
X9604110Y-12306674D01*
X9604110Y-12306674D02*
X9623158Y-12297150D01*
X9623158Y-12297150D02*
X9651729Y-12297150D01*
X9651729Y-12297150D02*
X9670777Y-12306674D01*
X9670777Y-12306674D02*
X9680301Y-12325722D01*
X9680301Y-12325722D02*
X9680301Y-12430484D01*
X9680301Y-12325722D02*
X9689825Y-12306674D01*
X9689825Y-12306674D02*
X9708872Y-12297150D01*
X9708872Y-12297150D02*
X9737444Y-12297150D01*
X9737444Y-12297150D02*
X9756491Y-12306674D01*
X9756491Y-12306674D02*
X9766015Y-12325722D01*
X9766015Y-12325722D02*
X9766015Y-12430484D01*
X10156491Y-12220960D02*
X9985063Y-12478103D01*
X10413634Y-12230484D02*
X10432682Y-12230484D01*
X10432682Y-12230484D02*
X10451729Y-12240008D01*
X10451729Y-12240008D02*
X10461253Y-12249531D01*
X10461253Y-12249531D02*
X10470777Y-12268579D01*
X10470777Y-12268579D02*
X10480301Y-12306674D01*
X10480301Y-12306674D02*
X10480301Y-12354293D01*
X10480301Y-12354293D02*
X10470777Y-12392388D01*
X10470777Y-12392388D02*
X10461253Y-12411436D01*
X10461253Y-12411436D02*
X10451729Y-12420960D01*
X10451729Y-12420960D02*
X10432682Y-12430484D01*
X10432682Y-12430484D02*
X10413634Y-12430484D01*
X10413634Y-12430484D02*
X10394587Y-12420960D01*
X10394587Y-12420960D02*
X10385063Y-12411436D01*
X10385063Y-12411436D02*
X10375539Y-12392388D01*
X10375539Y-12392388D02*
X10366015Y-12354293D01*
X10366015Y-12354293D02*
X10366015Y-12306674D01*
X10366015Y-12306674D02*
X10375539Y-12268579D01*
X10375539Y-12268579D02*
X10385063Y-12249531D01*
X10385063Y-12249531D02*
X10394587Y-12240008D01*
X10394587Y-12240008D02*
X10413634Y-12230484D01*
X10566015Y-12411436D02*
X10575539Y-12420960D01*
X10575539Y-12420960D02*
X10566015Y-12430484D01*
X10566015Y-12430484D02*
X10556491Y-12420960D01*
X10556491Y-12420960D02*
X10566015Y-12411436D01*
X10566015Y-12411436D02*
X10566015Y-12430484D01*
X10699348Y-12230484D02*
X10718396Y-12230484D01*
X10718396Y-12230484D02*
X10737444Y-12240008D01*
X10737444Y-12240008D02*
X10746968Y-12249531D01*
X10746968Y-12249531D02*
X10756491Y-12268579D01*
X10756491Y-12268579D02*
X10766015Y-12306674D01*
X10766015Y-12306674D02*
X10766015Y-12354293D01*
X10766015Y-12354293D02*
X10756491Y-12392388D01*
X10756491Y-12392388D02*
X10746968Y-12411436D01*
X10746968Y-12411436D02*
X10737444Y-12420960D01*
X10737444Y-12420960D02*
X10718396Y-12430484D01*
X10718396Y-12430484D02*
X10699348Y-12430484D01*
X10699348Y-12430484D02*
X10680301Y-12420960D01*
X10680301Y-12420960D02*
X10670777Y-12411436D01*
X10670777Y-12411436D02*
X10661253Y-12392388D01*
X10661253Y-12392388D02*
X10651729Y-12354293D01*
X10651729Y-12354293D02*
X10651729Y-12306674D01*
X10651729Y-12306674D02*
X10661253Y-12268579D01*
X10661253Y-12268579D02*
X10670777Y-12249531D01*
X10670777Y-12249531D02*
X10680301Y-12240008D01*
X10680301Y-12240008D02*
X10699348Y-12230484D01*
X10842206Y-12249531D02*
X10851729Y-12240008D01*
X10851729Y-12240008D02*
X10870777Y-12230484D01*
X10870777Y-12230484D02*
X10918396Y-12230484D01*
X10918396Y-12230484D02*
X10937444Y-12240008D01*
X10937444Y-12240008D02*
X10946968Y-12249531D01*
X10946968Y-12249531D02*
X10956491Y-12268579D01*
X10956491Y-12268579D02*
X10956491Y-12287627D01*
X10956491Y-12287627D02*
X10946968Y-12316198D01*
X10946968Y-12316198D02*
X10832682Y-12430484D01*
X10832682Y-12430484D02*
X10956491Y-12430484D01*
X11051729Y-12430484D02*
X11089825Y-12430484D01*
X11089825Y-12430484D02*
X11108872Y-12420960D01*
X11108872Y-12420960D02*
X11118396Y-12411436D01*
X11118396Y-12411436D02*
X11137444Y-12382865D01*
X11137444Y-12382865D02*
X11146968Y-12344769D01*
X11146968Y-12344769D02*
X11146968Y-12268579D01*
X11146968Y-12268579D02*
X11137444Y-12249531D01*
X11137444Y-12249531D02*
X11127920Y-12240008D01*
X11127920Y-12240008D02*
X11108872Y-12230484D01*
X11108872Y-12230484D02*
X11070777Y-12230484D01*
X11070777Y-12230484D02*
X11051729Y-12240008D01*
X11051729Y-12240008D02*
X11042206Y-12249531D01*
X11042206Y-12249531D02*
X11032682Y-12268579D01*
X11032682Y-12268579D02*
X11032682Y-12316198D01*
X11032682Y-12316198D02*
X11042206Y-12335246D01*
X11042206Y-12335246D02*
X11051729Y-12344769D01*
X11051729Y-12344769D02*
X11070777Y-12354293D01*
X11070777Y-12354293D02*
X11108872Y-12354293D01*
X11108872Y-12354293D02*
X11127920Y-12344769D01*
X11127920Y-12344769D02*
X11137444Y-12335246D01*
X11137444Y-12335246D02*
X11146968Y-12316198D01*
X11327920Y-12230484D02*
X11232682Y-12230484D01*
X11232682Y-12230484D02*
X11223158Y-12325722D01*
X11223158Y-12325722D02*
X11232682Y-12316198D01*
X11232682Y-12316198D02*
X11251729Y-12306674D01*
X11251729Y-12306674D02*
X11299348Y-12306674D01*
X11299348Y-12306674D02*
X11318396Y-12316198D01*
X11318396Y-12316198D02*
X11327920Y-12325722D01*
X11327920Y-12325722D02*
X11337444Y-12344769D01*
X11337444Y-12344769D02*
X11337444Y-12392388D01*
X11337444Y-12392388D02*
X11327920Y-12411436D01*
X11327920Y-12411436D02*
X11318396Y-12420960D01*
X11318396Y-12420960D02*
X11299348Y-12430484D01*
X11299348Y-12430484D02*
X11251729Y-12430484D01*
X11251729Y-12430484D02*
X11232682Y-12420960D01*
X11232682Y-12420960D02*
X11223158Y-12411436D01*
X11413634Y-12230484D02*
X11413634Y-12268579D01*
X11489825Y-12230484D02*
X11489825Y-12268579D01*
X11785063Y-12506674D02*
X11775539Y-12497150D01*
X11775539Y-12497150D02*
X11756491Y-12468579D01*
X11756491Y-12468579D02*
X11746968Y-12449531D01*
X11746968Y-12449531D02*
X11737444Y-12420960D01*
X11737444Y-12420960D02*
X11727920Y-12373341D01*
X11727920Y-12373341D02*
X11727920Y-12335246D01*
X11727920Y-12335246D02*
X11737444Y-12287627D01*
X11737444Y-12287627D02*
X11746968Y-12259055D01*
X11746968Y-12259055D02*
X11756491Y-12240008D01*
X11756491Y-12240008D02*
X11775539Y-12211436D01*
X11775539Y-12211436D02*
X11785063Y-12201912D01*
X11842206Y-12230484D02*
X11966015Y-12230484D01*
X11966015Y-12230484D02*
X11899348Y-12306674D01*
X11899348Y-12306674D02*
X11927920Y-12306674D01*
X11927920Y-12306674D02*
X11946968Y-12316198D01*
X11946968Y-12316198D02*
X11956491Y-12325722D01*
X11956491Y-12325722D02*
X11966015Y-12344769D01*
X11966015Y-12344769D02*
X11966015Y-12392388D01*
X11966015Y-12392388D02*
X11956491Y-12411436D01*
X11956491Y-12411436D02*
X11946968Y-12420960D01*
X11946968Y-12420960D02*
X11927920Y-12430484D01*
X11927920Y-12430484D02*
X11870777Y-12430484D01*
X11870777Y-12430484D02*
X11851729Y-12420960D01*
X11851729Y-12420960D02*
X11842206Y-12411436D01*
X12204110Y-12430484D02*
X12204110Y-12230484D01*
X12289825Y-12430484D02*
X12289825Y-12325722D01*
X12289825Y-12325722D02*
X12280301Y-12306674D01*
X12280301Y-12306674D02*
X12261253Y-12297150D01*
X12261253Y-12297150D02*
X12232682Y-12297150D01*
X12232682Y-12297150D02*
X12213634Y-12306674D01*
X12213634Y-12306674D02*
X12204110Y-12316198D01*
X12413634Y-12430484D02*
X12394587Y-12420960D01*
X12394587Y-12420960D02*
X12385063Y-12411436D01*
X12385063Y-12411436D02*
X12375539Y-12392388D01*
X12375539Y-12392388D02*
X12375539Y-12335246D01*
X12375539Y-12335246D02*
X12385063Y-12316198D01*
X12385063Y-12316198D02*
X12394587Y-12306674D01*
X12394587Y-12306674D02*
X12413634Y-12297150D01*
X12413634Y-12297150D02*
X12442206Y-12297150D01*
X12442206Y-12297150D02*
X12461253Y-12306674D01*
X12461253Y-12306674D02*
X12470777Y-12316198D01*
X12470777Y-12316198D02*
X12480301Y-12335246D01*
X12480301Y-12335246D02*
X12480301Y-12392388D01*
X12480301Y-12392388D02*
X12470777Y-12411436D01*
X12470777Y-12411436D02*
X12461253Y-12420960D01*
X12461253Y-12420960D02*
X12442206Y-12430484D01*
X12442206Y-12430484D02*
X12413634Y-12430484D01*
X12594587Y-12430484D02*
X12575539Y-12420960D01*
X12575539Y-12420960D02*
X12566015Y-12401912D01*
X12566015Y-12401912D02*
X12566015Y-12230484D01*
X12746968Y-12420960D02*
X12727920Y-12430484D01*
X12727920Y-12430484D02*
X12689825Y-12430484D01*
X12689825Y-12430484D02*
X12670777Y-12420960D01*
X12670777Y-12420960D02*
X12661253Y-12401912D01*
X12661253Y-12401912D02*
X12661253Y-12325722D01*
X12661253Y-12325722D02*
X12670777Y-12306674D01*
X12670777Y-12306674D02*
X12689825Y-12297150D01*
X12689825Y-12297150D02*
X12727920Y-12297150D01*
X12727920Y-12297150D02*
X12746968Y-12306674D01*
X12746968Y-12306674D02*
X12756491Y-12325722D01*
X12756491Y-12325722D02*
X12756491Y-12344769D01*
X12756491Y-12344769D02*
X12661253Y-12363817D01*
X12832682Y-12420960D02*
X12851730Y-12430484D01*
X12851730Y-12430484D02*
X12889825Y-12430484D01*
X12889825Y-12430484D02*
X12908872Y-12420960D01*
X12908872Y-12420960D02*
X12918396Y-12401912D01*
X12918396Y-12401912D02*
X12918396Y-12392388D01*
X12918396Y-12392388D02*
X12908872Y-12373341D01*
X12908872Y-12373341D02*
X12889825Y-12363817D01*
X12889825Y-12363817D02*
X12861253Y-12363817D01*
X12861253Y-12363817D02*
X12842206Y-12354293D01*
X12842206Y-12354293D02*
X12832682Y-12335246D01*
X12832682Y-12335246D02*
X12832682Y-12325722D01*
X12832682Y-12325722D02*
X12842206Y-12306674D01*
X12842206Y-12306674D02*
X12861253Y-12297150D01*
X12861253Y-12297150D02*
X12889825Y-12297150D01*
X12889825Y-12297150D02*
X12908872Y-12306674D01*
X12985063Y-12506674D02*
X12994587Y-12497150D01*
X12994587Y-12497150D02*
X13013634Y-12468579D01*
X13013634Y-12468579D02*
X13023158Y-12449531D01*
X13023158Y-12449531D02*
X13032682Y-12420960D01*
X13032682Y-12420960D02*
X13042206Y-12373341D01*
X13042206Y-12373341D02*
X13042206Y-12335246D01*
X13042206Y-12335246D02*
X13032682Y-12287627D01*
X13032682Y-12287627D02*
X13023158Y-12259055D01*
X13023158Y-12259055D02*
X13013634Y-12240008D01*
X13013634Y-12240008D02*
X12994587Y-12211436D01*
X12994587Y-12211436D02*
X12985063Y-12201912D01*
D12*
X8210000Y-12603000D02*
G75*
G03*
X8210000Y-12603000I-40000J0D01*
G01*
D10*
X8508872Y-12494484D02*
X8527920Y-12494484D01*
X8527920Y-12494484D02*
X8546967Y-12504008D01*
X8546967Y-12504008D02*
X8556491Y-12513531D01*
X8556491Y-12513531D02*
X8566015Y-12532579D01*
X8566015Y-12532579D02*
X8575539Y-12570674D01*
X8575539Y-12570674D02*
X8575539Y-12618293D01*
X8575539Y-12618293D02*
X8566015Y-12656388D01*
X8566015Y-12656388D02*
X8556491Y-12675436D01*
X8556491Y-12675436D02*
X8546967Y-12684960D01*
X8546967Y-12684960D02*
X8527920Y-12694484D01*
X8527920Y-12694484D02*
X8508872Y-12694484D01*
X8508872Y-12694484D02*
X8489824Y-12684960D01*
X8489824Y-12684960D02*
X8480301Y-12675436D01*
X8480301Y-12675436D02*
X8470777Y-12656388D01*
X8470777Y-12656388D02*
X8461253Y-12618293D01*
X8461253Y-12618293D02*
X8461253Y-12570674D01*
X8461253Y-12570674D02*
X8470777Y-12532579D01*
X8470777Y-12532579D02*
X8480301Y-12513531D01*
X8480301Y-12513531D02*
X8489824Y-12504008D01*
X8489824Y-12504008D02*
X8508872Y-12494484D01*
X8661253Y-12675436D02*
X8670777Y-12684960D01*
X8670777Y-12684960D02*
X8661253Y-12694484D01*
X8661253Y-12694484D02*
X8651729Y-12684960D01*
X8651729Y-12684960D02*
X8661253Y-12675436D01*
X8661253Y-12675436D02*
X8661253Y-12694484D01*
X8785063Y-12580198D02*
X8766015Y-12570674D01*
X8766015Y-12570674D02*
X8756491Y-12561150D01*
X8756491Y-12561150D02*
X8746967Y-12542103D01*
X8746967Y-12542103D02*
X8746967Y-12532579D01*
X8746967Y-12532579D02*
X8756491Y-12513531D01*
X8756491Y-12513531D02*
X8766015Y-12504008D01*
X8766015Y-12504008D02*
X8785063Y-12494484D01*
X8785063Y-12494484D02*
X8823158Y-12494484D01*
X8823158Y-12494484D02*
X8842205Y-12504008D01*
X8842205Y-12504008D02*
X8851729Y-12513531D01*
X8851729Y-12513531D02*
X8861253Y-12532579D01*
X8861253Y-12532579D02*
X8861253Y-12542103D01*
X8861253Y-12542103D02*
X8851729Y-12561150D01*
X8851729Y-12561150D02*
X8842205Y-12570674D01*
X8842205Y-12570674D02*
X8823158Y-12580198D01*
X8823158Y-12580198D02*
X8785063Y-12580198D01*
X8785063Y-12580198D02*
X8766015Y-12589722D01*
X8766015Y-12589722D02*
X8756491Y-12599246D01*
X8756491Y-12599246D02*
X8746967Y-12618293D01*
X8746967Y-12618293D02*
X8746967Y-12656388D01*
X8746967Y-12656388D02*
X8756491Y-12675436D01*
X8756491Y-12675436D02*
X8766015Y-12684960D01*
X8766015Y-12684960D02*
X8785063Y-12694484D01*
X8785063Y-12694484D02*
X8823158Y-12694484D01*
X8823158Y-12694484D02*
X8842205Y-12684960D01*
X8842205Y-12684960D02*
X8851729Y-12675436D01*
X8851729Y-12675436D02*
X8861253Y-12656388D01*
X8861253Y-12656388D02*
X8861253Y-12618293D01*
X8861253Y-12618293D02*
X8851729Y-12599246D01*
X8851729Y-12599246D02*
X8842205Y-12589722D01*
X8842205Y-12589722D02*
X8823158Y-12580198D01*
X8985063Y-12494484D02*
X9004110Y-12494484D01*
X9004110Y-12494484D02*
X9023158Y-12504008D01*
X9023158Y-12504008D02*
X9032682Y-12513531D01*
X9032682Y-12513531D02*
X9042205Y-12532579D01*
X9042205Y-12532579D02*
X9051729Y-12570674D01*
X9051729Y-12570674D02*
X9051729Y-12618293D01*
X9051729Y-12618293D02*
X9042205Y-12656388D01*
X9042205Y-12656388D02*
X9032682Y-12675436D01*
X9032682Y-12675436D02*
X9023158Y-12684960D01*
X9023158Y-12684960D02*
X9004110Y-12694484D01*
X9004110Y-12694484D02*
X8985063Y-12694484D01*
X8985063Y-12694484D02*
X8966015Y-12684960D01*
X8966015Y-12684960D02*
X8956491Y-12675436D01*
X8956491Y-12675436D02*
X8946967Y-12656388D01*
X8946967Y-12656388D02*
X8937444Y-12618293D01*
X8937444Y-12618293D02*
X8937444Y-12570674D01*
X8937444Y-12570674D02*
X8946967Y-12532579D01*
X8946967Y-12532579D02*
X8956491Y-12513531D01*
X8956491Y-12513531D02*
X8966015Y-12504008D01*
X8966015Y-12504008D02*
X8985063Y-12494484D01*
X9175539Y-12494484D02*
X9194586Y-12494484D01*
X9194586Y-12494484D02*
X9213634Y-12504008D01*
X9213634Y-12504008D02*
X9223158Y-12513531D01*
X9223158Y-12513531D02*
X9232682Y-12532579D01*
X9232682Y-12532579D02*
X9242205Y-12570674D01*
X9242205Y-12570674D02*
X9242205Y-12618293D01*
X9242205Y-12618293D02*
X9232682Y-12656388D01*
X9232682Y-12656388D02*
X9223158Y-12675436D01*
X9223158Y-12675436D02*
X9213634Y-12684960D01*
X9213634Y-12684960D02*
X9194586Y-12694484D01*
X9194586Y-12694484D02*
X9175539Y-12694484D01*
X9175539Y-12694484D02*
X9156491Y-12684960D01*
X9156491Y-12684960D02*
X9146967Y-12675436D01*
X9146967Y-12675436D02*
X9137444Y-12656388D01*
X9137444Y-12656388D02*
X9127920Y-12618293D01*
X9127920Y-12618293D02*
X9127920Y-12570674D01*
X9127920Y-12570674D02*
X9137444Y-12532579D01*
X9137444Y-12532579D02*
X9146967Y-12513531D01*
X9146967Y-12513531D02*
X9156491Y-12504008D01*
X9156491Y-12504008D02*
X9175539Y-12494484D01*
X9327920Y-12694484D02*
X9327920Y-12561150D01*
X9327920Y-12580198D02*
X9337444Y-12570674D01*
X9337444Y-12570674D02*
X9356491Y-12561150D01*
X9356491Y-12561150D02*
X9385063Y-12561150D01*
X9385063Y-12561150D02*
X9404110Y-12570674D01*
X9404110Y-12570674D02*
X9413634Y-12589722D01*
X9413634Y-12589722D02*
X9413634Y-12694484D01*
X9413634Y-12589722D02*
X9423158Y-12570674D01*
X9423158Y-12570674D02*
X9442205Y-12561150D01*
X9442205Y-12561150D02*
X9470777Y-12561150D01*
X9470777Y-12561150D02*
X9489825Y-12570674D01*
X9489825Y-12570674D02*
X9499348Y-12589722D01*
X9499348Y-12589722D02*
X9499348Y-12694484D01*
X9594586Y-12694484D02*
X9594586Y-12561150D01*
X9594586Y-12580198D02*
X9604110Y-12570674D01*
X9604110Y-12570674D02*
X9623158Y-12561150D01*
X9623158Y-12561150D02*
X9651729Y-12561150D01*
X9651729Y-12561150D02*
X9670777Y-12570674D01*
X9670777Y-12570674D02*
X9680301Y-12589722D01*
X9680301Y-12589722D02*
X9680301Y-12694484D01*
X9680301Y-12589722D02*
X9689825Y-12570674D01*
X9689825Y-12570674D02*
X9708872Y-12561150D01*
X9708872Y-12561150D02*
X9737444Y-12561150D01*
X9737444Y-12561150D02*
X9756491Y-12570674D01*
X9756491Y-12570674D02*
X9766015Y-12589722D01*
X9766015Y-12589722D02*
X9766015Y-12694484D01*
X10156491Y-12484960D02*
X9985063Y-12742103D01*
X10413634Y-12494484D02*
X10432682Y-12494484D01*
X10432682Y-12494484D02*
X10451729Y-12504008D01*
X10451729Y-12504008D02*
X10461253Y-12513531D01*
X10461253Y-12513531D02*
X10470777Y-12532579D01*
X10470777Y-12532579D02*
X10480301Y-12570674D01*
X10480301Y-12570674D02*
X10480301Y-12618293D01*
X10480301Y-12618293D02*
X10470777Y-12656388D01*
X10470777Y-12656388D02*
X10461253Y-12675436D01*
X10461253Y-12675436D02*
X10451729Y-12684960D01*
X10451729Y-12684960D02*
X10432682Y-12694484D01*
X10432682Y-12694484D02*
X10413634Y-12694484D01*
X10413634Y-12694484D02*
X10394587Y-12684960D01*
X10394587Y-12684960D02*
X10385063Y-12675436D01*
X10385063Y-12675436D02*
X10375539Y-12656388D01*
X10375539Y-12656388D02*
X10366015Y-12618293D01*
X10366015Y-12618293D02*
X10366015Y-12570674D01*
X10366015Y-12570674D02*
X10375539Y-12532579D01*
X10375539Y-12532579D02*
X10385063Y-12513531D01*
X10385063Y-12513531D02*
X10394587Y-12504008D01*
X10394587Y-12504008D02*
X10413634Y-12494484D01*
X10566015Y-12675436D02*
X10575539Y-12684960D01*
X10575539Y-12684960D02*
X10566015Y-12694484D01*
X10566015Y-12694484D02*
X10556491Y-12684960D01*
X10556491Y-12684960D02*
X10566015Y-12675436D01*
X10566015Y-12675436D02*
X10566015Y-12694484D01*
X10699348Y-12494484D02*
X10718396Y-12494484D01*
X10718396Y-12494484D02*
X10737444Y-12504008D01*
X10737444Y-12504008D02*
X10746968Y-12513531D01*
X10746968Y-12513531D02*
X10756491Y-12532579D01*
X10756491Y-12532579D02*
X10766015Y-12570674D01*
X10766015Y-12570674D02*
X10766015Y-12618293D01*
X10766015Y-12618293D02*
X10756491Y-12656388D01*
X10756491Y-12656388D02*
X10746968Y-12675436D01*
X10746968Y-12675436D02*
X10737444Y-12684960D01*
X10737444Y-12684960D02*
X10718396Y-12694484D01*
X10718396Y-12694484D02*
X10699348Y-12694484D01*
X10699348Y-12694484D02*
X10680301Y-12684960D01*
X10680301Y-12684960D02*
X10670777Y-12675436D01*
X10670777Y-12675436D02*
X10661253Y-12656388D01*
X10661253Y-12656388D02*
X10651729Y-12618293D01*
X10651729Y-12618293D02*
X10651729Y-12570674D01*
X10651729Y-12570674D02*
X10661253Y-12532579D01*
X10661253Y-12532579D02*
X10670777Y-12513531D01*
X10670777Y-12513531D02*
X10680301Y-12504008D01*
X10680301Y-12504008D02*
X10699348Y-12494484D01*
X10832682Y-12494484D02*
X10956491Y-12494484D01*
X10956491Y-12494484D02*
X10889825Y-12570674D01*
X10889825Y-12570674D02*
X10918396Y-12570674D01*
X10918396Y-12570674D02*
X10937444Y-12580198D01*
X10937444Y-12580198D02*
X10946968Y-12589722D01*
X10946968Y-12589722D02*
X10956491Y-12608769D01*
X10956491Y-12608769D02*
X10956491Y-12656388D01*
X10956491Y-12656388D02*
X10946968Y-12675436D01*
X10946968Y-12675436D02*
X10937444Y-12684960D01*
X10937444Y-12684960D02*
X10918396Y-12694484D01*
X10918396Y-12694484D02*
X10861253Y-12694484D01*
X10861253Y-12694484D02*
X10842206Y-12684960D01*
X10842206Y-12684960D02*
X10832682Y-12675436D01*
X11146968Y-12694484D02*
X11032682Y-12694484D01*
X11089825Y-12694484D02*
X11089825Y-12494484D01*
X11089825Y-12494484D02*
X11070777Y-12523055D01*
X11070777Y-12523055D02*
X11051729Y-12542103D01*
X11051729Y-12542103D02*
X11032682Y-12551627D01*
X11327920Y-12494484D02*
X11232682Y-12494484D01*
X11232682Y-12494484D02*
X11223158Y-12589722D01*
X11223158Y-12589722D02*
X11232682Y-12580198D01*
X11232682Y-12580198D02*
X11251729Y-12570674D01*
X11251729Y-12570674D02*
X11299348Y-12570674D01*
X11299348Y-12570674D02*
X11318396Y-12580198D01*
X11318396Y-12580198D02*
X11327920Y-12589722D01*
X11327920Y-12589722D02*
X11337444Y-12608769D01*
X11337444Y-12608769D02*
X11337444Y-12656388D01*
X11337444Y-12656388D02*
X11327920Y-12675436D01*
X11327920Y-12675436D02*
X11318396Y-12684960D01*
X11318396Y-12684960D02*
X11299348Y-12694484D01*
X11299348Y-12694484D02*
X11251729Y-12694484D01*
X11251729Y-12694484D02*
X11232682Y-12684960D01*
X11232682Y-12684960D02*
X11223158Y-12675436D01*
X11413634Y-12494484D02*
X11413634Y-12532579D01*
X11489825Y-12494484D02*
X11489825Y-12532579D01*
X11785063Y-12770674D02*
X11775539Y-12761150D01*
X11775539Y-12761150D02*
X11756491Y-12732579D01*
X11756491Y-12732579D02*
X11746968Y-12713531D01*
X11746968Y-12713531D02*
X11737444Y-12684960D01*
X11737444Y-12684960D02*
X11727920Y-12637341D01*
X11727920Y-12637341D02*
X11727920Y-12599246D01*
X11727920Y-12599246D02*
X11737444Y-12551627D01*
X11737444Y-12551627D02*
X11746968Y-12523055D01*
X11746968Y-12523055D02*
X11756491Y-12504008D01*
X11756491Y-12504008D02*
X11775539Y-12475436D01*
X11775539Y-12475436D02*
X11785063Y-12465912D01*
X11946968Y-12561150D02*
X11946968Y-12694484D01*
X11899348Y-12484960D02*
X11851729Y-12627817D01*
X11851729Y-12627817D02*
X11975539Y-12627817D01*
X12204110Y-12694484D02*
X12204110Y-12494484D01*
X12289825Y-12694484D02*
X12289825Y-12589722D01*
X12289825Y-12589722D02*
X12280301Y-12570674D01*
X12280301Y-12570674D02*
X12261253Y-12561150D01*
X12261253Y-12561150D02*
X12232682Y-12561150D01*
X12232682Y-12561150D02*
X12213634Y-12570674D01*
X12213634Y-12570674D02*
X12204110Y-12580198D01*
X12413634Y-12694484D02*
X12394587Y-12684960D01*
X12394587Y-12684960D02*
X12385063Y-12675436D01*
X12385063Y-12675436D02*
X12375539Y-12656388D01*
X12375539Y-12656388D02*
X12375539Y-12599246D01*
X12375539Y-12599246D02*
X12385063Y-12580198D01*
X12385063Y-12580198D02*
X12394587Y-12570674D01*
X12394587Y-12570674D02*
X12413634Y-12561150D01*
X12413634Y-12561150D02*
X12442206Y-12561150D01*
X12442206Y-12561150D02*
X12461253Y-12570674D01*
X12461253Y-12570674D02*
X12470777Y-12580198D01*
X12470777Y-12580198D02*
X12480301Y-12599246D01*
X12480301Y-12599246D02*
X12480301Y-12656388D01*
X12480301Y-12656388D02*
X12470777Y-12675436D01*
X12470777Y-12675436D02*
X12461253Y-12684960D01*
X12461253Y-12684960D02*
X12442206Y-12694484D01*
X12442206Y-12694484D02*
X12413634Y-12694484D01*
X12594587Y-12694484D02*
X12575539Y-12684960D01*
X12575539Y-12684960D02*
X12566015Y-12665912D01*
X12566015Y-12665912D02*
X12566015Y-12494484D01*
X12746968Y-12684960D02*
X12727920Y-12694484D01*
X12727920Y-12694484D02*
X12689825Y-12694484D01*
X12689825Y-12694484D02*
X12670777Y-12684960D01*
X12670777Y-12684960D02*
X12661253Y-12665912D01*
X12661253Y-12665912D02*
X12661253Y-12589722D01*
X12661253Y-12589722D02*
X12670777Y-12570674D01*
X12670777Y-12570674D02*
X12689825Y-12561150D01*
X12689825Y-12561150D02*
X12727920Y-12561150D01*
X12727920Y-12561150D02*
X12746968Y-12570674D01*
X12746968Y-12570674D02*
X12756491Y-12589722D01*
X12756491Y-12589722D02*
X12756491Y-12608769D01*
X12756491Y-12608769D02*
X12661253Y-12627817D01*
X12832682Y-12684960D02*
X12851730Y-12694484D01*
X12851730Y-12694484D02*
X12889825Y-12694484D01*
X12889825Y-12694484D02*
X12908872Y-12684960D01*
X12908872Y-12684960D02*
X12918396Y-12665912D01*
X12918396Y-12665912D02*
X12918396Y-12656388D01*
X12918396Y-12656388D02*
X12908872Y-12637341D01*
X12908872Y-12637341D02*
X12889825Y-12627817D01*
X12889825Y-12627817D02*
X12861253Y-12627817D01*
X12861253Y-12627817D02*
X12842206Y-12618293D01*
X12842206Y-12618293D02*
X12832682Y-12599246D01*
X12832682Y-12599246D02*
X12832682Y-12589722D01*
X12832682Y-12589722D02*
X12842206Y-12570674D01*
X12842206Y-12570674D02*
X12861253Y-12561150D01*
X12861253Y-12561150D02*
X12889825Y-12561150D01*
X12889825Y-12561150D02*
X12908872Y-12570674D01*
X12985063Y-12770674D02*
X12994587Y-12761150D01*
X12994587Y-12761150D02*
X13013634Y-12732579D01*
X13013634Y-12732579D02*
X13023158Y-12713531D01*
X13023158Y-12713531D02*
X13032682Y-12684960D01*
X13032682Y-12684960D02*
X13042206Y-12637341D01*
X13042206Y-12637341D02*
X13042206Y-12599246D01*
X13042206Y-12599246D02*
X13032682Y-12551627D01*
X13032682Y-12551627D02*
X13023158Y-12523055D01*
X13023158Y-12523055D02*
X13013634Y-12504008D01*
X13013634Y-12504008D02*
X12994587Y-12475436D01*
X12994587Y-12475436D02*
X12985063Y-12465912D01*
D13*
X8155000Y-12812000D02*
X8155000Y-12922000D01*
X8100000Y-12867000D02*
X8210000Y-12867000D01*
D10*
X8575539Y-12958484D02*
X8461253Y-12958484D01*
X8518396Y-12958484D02*
X8518396Y-12758484D01*
X8518396Y-12758484D02*
X8499348Y-12787055D01*
X8499348Y-12787055D02*
X8480301Y-12806103D01*
X8480301Y-12806103D02*
X8461253Y-12815627D01*
X8661253Y-12939436D02*
X8670777Y-12948960D01*
X8670777Y-12948960D02*
X8661253Y-12958484D01*
X8661253Y-12958484D02*
X8651729Y-12948960D01*
X8651729Y-12948960D02*
X8661253Y-12939436D01*
X8661253Y-12939436D02*
X8661253Y-12958484D01*
X8861253Y-12958484D02*
X8746967Y-12958484D01*
X8804110Y-12958484D02*
X8804110Y-12758484D01*
X8804110Y-12758484D02*
X8785063Y-12787055D01*
X8785063Y-12787055D02*
X8766015Y-12806103D01*
X8766015Y-12806103D02*
X8746967Y-12815627D01*
X8985063Y-12758484D02*
X9004110Y-12758484D01*
X9004110Y-12758484D02*
X9023158Y-12768008D01*
X9023158Y-12768008D02*
X9032682Y-12777531D01*
X9032682Y-12777531D02*
X9042205Y-12796579D01*
X9042205Y-12796579D02*
X9051729Y-12834674D01*
X9051729Y-12834674D02*
X9051729Y-12882293D01*
X9051729Y-12882293D02*
X9042205Y-12920388D01*
X9042205Y-12920388D02*
X9032682Y-12939436D01*
X9032682Y-12939436D02*
X9023158Y-12948960D01*
X9023158Y-12948960D02*
X9004110Y-12958484D01*
X9004110Y-12958484D02*
X8985063Y-12958484D01*
X8985063Y-12958484D02*
X8966015Y-12948960D01*
X8966015Y-12948960D02*
X8956491Y-12939436D01*
X8956491Y-12939436D02*
X8946967Y-12920388D01*
X8946967Y-12920388D02*
X8937444Y-12882293D01*
X8937444Y-12882293D02*
X8937444Y-12834674D01*
X8937444Y-12834674D02*
X8946967Y-12796579D01*
X8946967Y-12796579D02*
X8956491Y-12777531D01*
X8956491Y-12777531D02*
X8966015Y-12768008D01*
X8966015Y-12768008D02*
X8985063Y-12758484D01*
X9175539Y-12758484D02*
X9194586Y-12758484D01*
X9194586Y-12758484D02*
X9213634Y-12768008D01*
X9213634Y-12768008D02*
X9223158Y-12777531D01*
X9223158Y-12777531D02*
X9232682Y-12796579D01*
X9232682Y-12796579D02*
X9242205Y-12834674D01*
X9242205Y-12834674D02*
X9242205Y-12882293D01*
X9242205Y-12882293D02*
X9232682Y-12920388D01*
X9232682Y-12920388D02*
X9223158Y-12939436D01*
X9223158Y-12939436D02*
X9213634Y-12948960D01*
X9213634Y-12948960D02*
X9194586Y-12958484D01*
X9194586Y-12958484D02*
X9175539Y-12958484D01*
X9175539Y-12958484D02*
X9156491Y-12948960D01*
X9156491Y-12948960D02*
X9146967Y-12939436D01*
X9146967Y-12939436D02*
X9137444Y-12920388D01*
X9137444Y-12920388D02*
X9127920Y-12882293D01*
X9127920Y-12882293D02*
X9127920Y-12834674D01*
X9127920Y-12834674D02*
X9137444Y-12796579D01*
X9137444Y-12796579D02*
X9146967Y-12777531D01*
X9146967Y-12777531D02*
X9156491Y-12768008D01*
X9156491Y-12768008D02*
X9175539Y-12758484D01*
X9327920Y-12958484D02*
X9327920Y-12825150D01*
X9327920Y-12844198D02*
X9337444Y-12834674D01*
X9337444Y-12834674D02*
X9356491Y-12825150D01*
X9356491Y-12825150D02*
X9385063Y-12825150D01*
X9385063Y-12825150D02*
X9404110Y-12834674D01*
X9404110Y-12834674D02*
X9413634Y-12853722D01*
X9413634Y-12853722D02*
X9413634Y-12958484D01*
X9413634Y-12853722D02*
X9423158Y-12834674D01*
X9423158Y-12834674D02*
X9442205Y-12825150D01*
X9442205Y-12825150D02*
X9470777Y-12825150D01*
X9470777Y-12825150D02*
X9489825Y-12834674D01*
X9489825Y-12834674D02*
X9499348Y-12853722D01*
X9499348Y-12853722D02*
X9499348Y-12958484D01*
X9594586Y-12958484D02*
X9594586Y-12825150D01*
X9594586Y-12844198D02*
X9604110Y-12834674D01*
X9604110Y-12834674D02*
X9623158Y-12825150D01*
X9623158Y-12825150D02*
X9651729Y-12825150D01*
X9651729Y-12825150D02*
X9670777Y-12834674D01*
X9670777Y-12834674D02*
X9680301Y-12853722D01*
X9680301Y-12853722D02*
X9680301Y-12958484D01*
X9680301Y-12853722D02*
X9689825Y-12834674D01*
X9689825Y-12834674D02*
X9708872Y-12825150D01*
X9708872Y-12825150D02*
X9737444Y-12825150D01*
X9737444Y-12825150D02*
X9756491Y-12834674D01*
X9756491Y-12834674D02*
X9766015Y-12853722D01*
X9766015Y-12853722D02*
X9766015Y-12958484D01*
X10156491Y-12748960D02*
X9985063Y-13006103D01*
X10413634Y-12758484D02*
X10432682Y-12758484D01*
X10432682Y-12758484D02*
X10451729Y-12768008D01*
X10451729Y-12768008D02*
X10461253Y-12777531D01*
X10461253Y-12777531D02*
X10470777Y-12796579D01*
X10470777Y-12796579D02*
X10480301Y-12834674D01*
X10480301Y-12834674D02*
X10480301Y-12882293D01*
X10480301Y-12882293D02*
X10470777Y-12920388D01*
X10470777Y-12920388D02*
X10461253Y-12939436D01*
X10461253Y-12939436D02*
X10451729Y-12948960D01*
X10451729Y-12948960D02*
X10432682Y-12958484D01*
X10432682Y-12958484D02*
X10413634Y-12958484D01*
X10413634Y-12958484D02*
X10394587Y-12948960D01*
X10394587Y-12948960D02*
X10385063Y-12939436D01*
X10385063Y-12939436D02*
X10375539Y-12920388D01*
X10375539Y-12920388D02*
X10366015Y-12882293D01*
X10366015Y-12882293D02*
X10366015Y-12834674D01*
X10366015Y-12834674D02*
X10375539Y-12796579D01*
X10375539Y-12796579D02*
X10385063Y-12777531D01*
X10385063Y-12777531D02*
X10394587Y-12768008D01*
X10394587Y-12768008D02*
X10413634Y-12758484D01*
X10566015Y-12939436D02*
X10575539Y-12948960D01*
X10575539Y-12948960D02*
X10566015Y-12958484D01*
X10566015Y-12958484D02*
X10556491Y-12948960D01*
X10556491Y-12948960D02*
X10566015Y-12939436D01*
X10566015Y-12939436D02*
X10566015Y-12958484D01*
X10699348Y-12758484D02*
X10718396Y-12758484D01*
X10718396Y-12758484D02*
X10737444Y-12768008D01*
X10737444Y-12768008D02*
X10746968Y-12777531D01*
X10746968Y-12777531D02*
X10756491Y-12796579D01*
X10756491Y-12796579D02*
X10766015Y-12834674D01*
X10766015Y-12834674D02*
X10766015Y-12882293D01*
X10766015Y-12882293D02*
X10756491Y-12920388D01*
X10756491Y-12920388D02*
X10746968Y-12939436D01*
X10746968Y-12939436D02*
X10737444Y-12948960D01*
X10737444Y-12948960D02*
X10718396Y-12958484D01*
X10718396Y-12958484D02*
X10699348Y-12958484D01*
X10699348Y-12958484D02*
X10680301Y-12948960D01*
X10680301Y-12948960D02*
X10670777Y-12939436D01*
X10670777Y-12939436D02*
X10661253Y-12920388D01*
X10661253Y-12920388D02*
X10651729Y-12882293D01*
X10651729Y-12882293D02*
X10651729Y-12834674D01*
X10651729Y-12834674D02*
X10661253Y-12796579D01*
X10661253Y-12796579D02*
X10670777Y-12777531D01*
X10670777Y-12777531D02*
X10680301Y-12768008D01*
X10680301Y-12768008D02*
X10699348Y-12758484D01*
X10937444Y-12825150D02*
X10937444Y-12958484D01*
X10889825Y-12748960D02*
X10842206Y-12891817D01*
X10842206Y-12891817D02*
X10966015Y-12891817D01*
X11023158Y-12758484D02*
X11146968Y-12758484D01*
X11146968Y-12758484D02*
X11080301Y-12834674D01*
X11080301Y-12834674D02*
X11108872Y-12834674D01*
X11108872Y-12834674D02*
X11127920Y-12844198D01*
X11127920Y-12844198D02*
X11137444Y-12853722D01*
X11137444Y-12853722D02*
X11146968Y-12872769D01*
X11146968Y-12872769D02*
X11146968Y-12920388D01*
X11146968Y-12920388D02*
X11137444Y-12939436D01*
X11137444Y-12939436D02*
X11127920Y-12948960D01*
X11127920Y-12948960D02*
X11108872Y-12958484D01*
X11108872Y-12958484D02*
X11051729Y-12958484D01*
X11051729Y-12958484D02*
X11032682Y-12948960D01*
X11032682Y-12948960D02*
X11023158Y-12939436D01*
X11213634Y-12758484D02*
X11337444Y-12758484D01*
X11337444Y-12758484D02*
X11270777Y-12834674D01*
X11270777Y-12834674D02*
X11299348Y-12834674D01*
X11299348Y-12834674D02*
X11318396Y-12844198D01*
X11318396Y-12844198D02*
X11327920Y-12853722D01*
X11327920Y-12853722D02*
X11337444Y-12872769D01*
X11337444Y-12872769D02*
X11337444Y-12920388D01*
X11337444Y-12920388D02*
X11327920Y-12939436D01*
X11327920Y-12939436D02*
X11318396Y-12948960D01*
X11318396Y-12948960D02*
X11299348Y-12958484D01*
X11299348Y-12958484D02*
X11242206Y-12958484D01*
X11242206Y-12958484D02*
X11223158Y-12948960D01*
X11223158Y-12948960D02*
X11213634Y-12939436D01*
X11413634Y-12758484D02*
X11413634Y-12796579D01*
X11489825Y-12758484D02*
X11489825Y-12796579D01*
X11785063Y-13034674D02*
X11775539Y-13025150D01*
X11775539Y-13025150D02*
X11756491Y-12996579D01*
X11756491Y-12996579D02*
X11746968Y-12977531D01*
X11746968Y-12977531D02*
X11737444Y-12948960D01*
X11737444Y-12948960D02*
X11727920Y-12901341D01*
X11727920Y-12901341D02*
X11727920Y-12863246D01*
X11727920Y-12863246D02*
X11737444Y-12815627D01*
X11737444Y-12815627D02*
X11746968Y-12787055D01*
X11746968Y-12787055D02*
X11756491Y-12768008D01*
X11756491Y-12768008D02*
X11775539Y-12739436D01*
X11775539Y-12739436D02*
X11785063Y-12729912D01*
X11966015Y-12958484D02*
X11851729Y-12958484D01*
X11908872Y-12958484D02*
X11908872Y-12758484D01*
X11908872Y-12758484D02*
X11889825Y-12787055D01*
X11889825Y-12787055D02*
X11870777Y-12806103D01*
X11870777Y-12806103D02*
X11851729Y-12815627D01*
X12089825Y-12758484D02*
X12108872Y-12758484D01*
X12108872Y-12758484D02*
X12127920Y-12768008D01*
X12127920Y-12768008D02*
X12137444Y-12777531D01*
X12137444Y-12777531D02*
X12146968Y-12796579D01*
X12146968Y-12796579D02*
X12156491Y-12834674D01*
X12156491Y-12834674D02*
X12156491Y-12882293D01*
X12156491Y-12882293D02*
X12146968Y-12920388D01*
X12146968Y-12920388D02*
X12137444Y-12939436D01*
X12137444Y-12939436D02*
X12127920Y-12948960D01*
X12127920Y-12948960D02*
X12108872Y-12958484D01*
X12108872Y-12958484D02*
X12089825Y-12958484D01*
X12089825Y-12958484D02*
X12070777Y-12948960D01*
X12070777Y-12948960D02*
X12061253Y-12939436D01*
X12061253Y-12939436D02*
X12051729Y-12920388D01*
X12051729Y-12920388D02*
X12042206Y-12882293D01*
X12042206Y-12882293D02*
X12042206Y-12834674D01*
X12042206Y-12834674D02*
X12051729Y-12796579D01*
X12051729Y-12796579D02*
X12061253Y-12777531D01*
X12061253Y-12777531D02*
X12070777Y-12768008D01*
X12070777Y-12768008D02*
X12089825Y-12758484D01*
X12394587Y-12958484D02*
X12394587Y-12758484D01*
X12480301Y-12958484D02*
X12480301Y-12853722D01*
X12480301Y-12853722D02*
X12470777Y-12834674D01*
X12470777Y-12834674D02*
X12451730Y-12825150D01*
X12451730Y-12825150D02*
X12423158Y-12825150D01*
X12423158Y-12825150D02*
X12404110Y-12834674D01*
X12404110Y-12834674D02*
X12394587Y-12844198D01*
X12604110Y-12958484D02*
X12585063Y-12948960D01*
X12585063Y-12948960D02*
X12575539Y-12939436D01*
X12575539Y-12939436D02*
X12566015Y-12920388D01*
X12566015Y-12920388D02*
X12566015Y-12863246D01*
X12566015Y-12863246D02*
X12575539Y-12844198D01*
X12575539Y-12844198D02*
X12585063Y-12834674D01*
X12585063Y-12834674D02*
X12604110Y-12825150D01*
X12604110Y-12825150D02*
X12632682Y-12825150D01*
X12632682Y-12825150D02*
X12651730Y-12834674D01*
X12651730Y-12834674D02*
X12661253Y-12844198D01*
X12661253Y-12844198D02*
X12670777Y-12863246D01*
X12670777Y-12863246D02*
X12670777Y-12920388D01*
X12670777Y-12920388D02*
X12661253Y-12939436D01*
X12661253Y-12939436D02*
X12651730Y-12948960D01*
X12651730Y-12948960D02*
X12632682Y-12958484D01*
X12632682Y-12958484D02*
X12604110Y-12958484D01*
X12785063Y-12958484D02*
X12766015Y-12948960D01*
X12766015Y-12948960D02*
X12756491Y-12929912D01*
X12756491Y-12929912D02*
X12756491Y-12758484D01*
X12937444Y-12948960D02*
X12918396Y-12958484D01*
X12918396Y-12958484D02*
X12880301Y-12958484D01*
X12880301Y-12958484D02*
X12861253Y-12948960D01*
X12861253Y-12948960D02*
X12851730Y-12929912D01*
X12851730Y-12929912D02*
X12851730Y-12853722D01*
X12851730Y-12853722D02*
X12861253Y-12834674D01*
X12861253Y-12834674D02*
X12880301Y-12825150D01*
X12880301Y-12825150D02*
X12918396Y-12825150D01*
X12918396Y-12825150D02*
X12937444Y-12834674D01*
X12937444Y-12834674D02*
X12946968Y-12853722D01*
X12946968Y-12853722D02*
X12946968Y-12872769D01*
X12946968Y-12872769D02*
X12851730Y-12891817D01*
X13023158Y-12948960D02*
X13042206Y-12958484D01*
X13042206Y-12958484D02*
X13080301Y-12958484D01*
X13080301Y-12958484D02*
X13099349Y-12948960D01*
X13099349Y-12948960D02*
X13108872Y-12929912D01*
X13108872Y-12929912D02*
X13108872Y-12920388D01*
X13108872Y-12920388D02*
X13099349Y-12901341D01*
X13099349Y-12901341D02*
X13080301Y-12891817D01*
X13080301Y-12891817D02*
X13051730Y-12891817D01*
X13051730Y-12891817D02*
X13032682Y-12882293D01*
X13032682Y-12882293D02*
X13023158Y-12863246D01*
X13023158Y-12863246D02*
X13023158Y-12853722D01*
X13023158Y-12853722D02*
X13032682Y-12834674D01*
X13032682Y-12834674D02*
X13051730Y-12825150D01*
X13051730Y-12825150D02*
X13080301Y-12825150D01*
X13080301Y-12825150D02*
X13099349Y-12834674D01*
X13175539Y-13034674D02*
X13185063Y-13025150D01*
X13185063Y-13025150D02*
X13204111Y-12996579D01*
X13204111Y-12996579D02*
X13213634Y-12977531D01*
X13213634Y-12977531D02*
X13223158Y-12948960D01*
X13223158Y-12948960D02*
X13232682Y-12901341D01*
X13232682Y-12901341D02*
X13232682Y-12863246D01*
X13232682Y-12863246D02*
X13223158Y-12815627D01*
X13223158Y-12815627D02*
X13213634Y-12787055D01*
X13213634Y-12787055D02*
X13204111Y-12768008D01*
X13204111Y-12768008D02*
X13185063Y-12739436D01*
X13185063Y-12739436D02*
X13175539Y-12729912D01*
D14*
X8188033Y-13184033D02*
X8188033Y-13077966D01*
X8081966Y-13077966D01*
X8081966Y-13184033D01*
X8188033Y-13184033D01*
D10*
X8575539Y-13222484D02*
X8461253Y-13222484D01*
X8518396Y-13222484D02*
X8518396Y-13022484D01*
X8518396Y-13022484D02*
X8499348Y-13051055D01*
X8499348Y-13051055D02*
X8480301Y-13070103D01*
X8480301Y-13070103D02*
X8461253Y-13079627D01*
X8661253Y-13203436D02*
X8670777Y-13212960D01*
X8670777Y-13212960D02*
X8661253Y-13222484D01*
X8661253Y-13222484D02*
X8651729Y-13212960D01*
X8651729Y-13212960D02*
X8661253Y-13203436D01*
X8661253Y-13203436D02*
X8661253Y-13222484D01*
X8851729Y-13022484D02*
X8756491Y-13022484D01*
X8756491Y-13022484D02*
X8746967Y-13117722D01*
X8746967Y-13117722D02*
X8756491Y-13108198D01*
X8756491Y-13108198D02*
X8775539Y-13098674D01*
X8775539Y-13098674D02*
X8823158Y-13098674D01*
X8823158Y-13098674D02*
X8842205Y-13108198D01*
X8842205Y-13108198D02*
X8851729Y-13117722D01*
X8851729Y-13117722D02*
X8861253Y-13136769D01*
X8861253Y-13136769D02*
X8861253Y-13184388D01*
X8861253Y-13184388D02*
X8851729Y-13203436D01*
X8851729Y-13203436D02*
X8842205Y-13212960D01*
X8842205Y-13212960D02*
X8823158Y-13222484D01*
X8823158Y-13222484D02*
X8775539Y-13222484D01*
X8775539Y-13222484D02*
X8756491Y-13212960D01*
X8756491Y-13212960D02*
X8746967Y-13203436D01*
X8985063Y-13022484D02*
X9004110Y-13022484D01*
X9004110Y-13022484D02*
X9023158Y-13032008D01*
X9023158Y-13032008D02*
X9032682Y-13041531D01*
X9032682Y-13041531D02*
X9042205Y-13060579D01*
X9042205Y-13060579D02*
X9051729Y-13098674D01*
X9051729Y-13098674D02*
X9051729Y-13146293D01*
X9051729Y-13146293D02*
X9042205Y-13184388D01*
X9042205Y-13184388D02*
X9032682Y-13203436D01*
X9032682Y-13203436D02*
X9023158Y-13212960D01*
X9023158Y-13212960D02*
X9004110Y-13222484D01*
X9004110Y-13222484D02*
X8985063Y-13222484D01*
X8985063Y-13222484D02*
X8966015Y-13212960D01*
X8966015Y-13212960D02*
X8956491Y-13203436D01*
X8956491Y-13203436D02*
X8946967Y-13184388D01*
X8946967Y-13184388D02*
X8937444Y-13146293D01*
X8937444Y-13146293D02*
X8937444Y-13098674D01*
X8937444Y-13098674D02*
X8946967Y-13060579D01*
X8946967Y-13060579D02*
X8956491Y-13041531D01*
X8956491Y-13041531D02*
X8966015Y-13032008D01*
X8966015Y-13032008D02*
X8985063Y-13022484D01*
X9175539Y-13022484D02*
X9194586Y-13022484D01*
X9194586Y-13022484D02*
X9213634Y-13032008D01*
X9213634Y-13032008D02*
X9223158Y-13041531D01*
X9223158Y-13041531D02*
X9232682Y-13060579D01*
X9232682Y-13060579D02*
X9242205Y-13098674D01*
X9242205Y-13098674D02*
X9242205Y-13146293D01*
X9242205Y-13146293D02*
X9232682Y-13184388D01*
X9232682Y-13184388D02*
X9223158Y-13203436D01*
X9223158Y-13203436D02*
X9213634Y-13212960D01*
X9213634Y-13212960D02*
X9194586Y-13222484D01*
X9194586Y-13222484D02*
X9175539Y-13222484D01*
X9175539Y-13222484D02*
X9156491Y-13212960D01*
X9156491Y-13212960D02*
X9146967Y-13203436D01*
X9146967Y-13203436D02*
X9137444Y-13184388D01*
X9137444Y-13184388D02*
X9127920Y-13146293D01*
X9127920Y-13146293D02*
X9127920Y-13098674D01*
X9127920Y-13098674D02*
X9137444Y-13060579D01*
X9137444Y-13060579D02*
X9146967Y-13041531D01*
X9146967Y-13041531D02*
X9156491Y-13032008D01*
X9156491Y-13032008D02*
X9175539Y-13022484D01*
X9327920Y-13222484D02*
X9327920Y-13089150D01*
X9327920Y-13108198D02*
X9337444Y-13098674D01*
X9337444Y-13098674D02*
X9356491Y-13089150D01*
X9356491Y-13089150D02*
X9385063Y-13089150D01*
X9385063Y-13089150D02*
X9404110Y-13098674D01*
X9404110Y-13098674D02*
X9413634Y-13117722D01*
X9413634Y-13117722D02*
X9413634Y-13222484D01*
X9413634Y-13117722D02*
X9423158Y-13098674D01*
X9423158Y-13098674D02*
X9442205Y-13089150D01*
X9442205Y-13089150D02*
X9470777Y-13089150D01*
X9470777Y-13089150D02*
X9489825Y-13098674D01*
X9489825Y-13098674D02*
X9499348Y-13117722D01*
X9499348Y-13117722D02*
X9499348Y-13222484D01*
X9594586Y-13222484D02*
X9594586Y-13089150D01*
X9594586Y-13108198D02*
X9604110Y-13098674D01*
X9604110Y-13098674D02*
X9623158Y-13089150D01*
X9623158Y-13089150D02*
X9651729Y-13089150D01*
X9651729Y-13089150D02*
X9670777Y-13098674D01*
X9670777Y-13098674D02*
X9680301Y-13117722D01*
X9680301Y-13117722D02*
X9680301Y-13222484D01*
X9680301Y-13117722D02*
X9689825Y-13098674D01*
X9689825Y-13098674D02*
X9708872Y-13089150D01*
X9708872Y-13089150D02*
X9737444Y-13089150D01*
X9737444Y-13089150D02*
X9756491Y-13098674D01*
X9756491Y-13098674D02*
X9766015Y-13117722D01*
X9766015Y-13117722D02*
X9766015Y-13222484D01*
X10156491Y-13012960D02*
X9985063Y-13270103D01*
X10413634Y-13022484D02*
X10432682Y-13022484D01*
X10432682Y-13022484D02*
X10451729Y-13032008D01*
X10451729Y-13032008D02*
X10461253Y-13041531D01*
X10461253Y-13041531D02*
X10470777Y-13060579D01*
X10470777Y-13060579D02*
X10480301Y-13098674D01*
X10480301Y-13098674D02*
X10480301Y-13146293D01*
X10480301Y-13146293D02*
X10470777Y-13184388D01*
X10470777Y-13184388D02*
X10461253Y-13203436D01*
X10461253Y-13203436D02*
X10451729Y-13212960D01*
X10451729Y-13212960D02*
X10432682Y-13222484D01*
X10432682Y-13222484D02*
X10413634Y-13222484D01*
X10413634Y-13222484D02*
X10394587Y-13212960D01*
X10394587Y-13212960D02*
X10385063Y-13203436D01*
X10385063Y-13203436D02*
X10375539Y-13184388D01*
X10375539Y-13184388D02*
X10366015Y-13146293D01*
X10366015Y-13146293D02*
X10366015Y-13098674D01*
X10366015Y-13098674D02*
X10375539Y-13060579D01*
X10375539Y-13060579D02*
X10385063Y-13041531D01*
X10385063Y-13041531D02*
X10394587Y-13032008D01*
X10394587Y-13032008D02*
X10413634Y-13022484D01*
X10566015Y-13203436D02*
X10575539Y-13212960D01*
X10575539Y-13212960D02*
X10566015Y-13222484D01*
X10566015Y-13222484D02*
X10556491Y-13212960D01*
X10556491Y-13212960D02*
X10566015Y-13203436D01*
X10566015Y-13203436D02*
X10566015Y-13222484D01*
X10699348Y-13022484D02*
X10718396Y-13022484D01*
X10718396Y-13022484D02*
X10737444Y-13032008D01*
X10737444Y-13032008D02*
X10746968Y-13041531D01*
X10746968Y-13041531D02*
X10756491Y-13060579D01*
X10756491Y-13060579D02*
X10766015Y-13098674D01*
X10766015Y-13098674D02*
X10766015Y-13146293D01*
X10766015Y-13146293D02*
X10756491Y-13184388D01*
X10756491Y-13184388D02*
X10746968Y-13203436D01*
X10746968Y-13203436D02*
X10737444Y-13212960D01*
X10737444Y-13212960D02*
X10718396Y-13222484D01*
X10718396Y-13222484D02*
X10699348Y-13222484D01*
X10699348Y-13222484D02*
X10680301Y-13212960D01*
X10680301Y-13212960D02*
X10670777Y-13203436D01*
X10670777Y-13203436D02*
X10661253Y-13184388D01*
X10661253Y-13184388D02*
X10651729Y-13146293D01*
X10651729Y-13146293D02*
X10651729Y-13098674D01*
X10651729Y-13098674D02*
X10661253Y-13060579D01*
X10661253Y-13060579D02*
X10670777Y-13041531D01*
X10670777Y-13041531D02*
X10680301Y-13032008D01*
X10680301Y-13032008D02*
X10699348Y-13022484D01*
X10946968Y-13022484D02*
X10851729Y-13022484D01*
X10851729Y-13022484D02*
X10842206Y-13117722D01*
X10842206Y-13117722D02*
X10851729Y-13108198D01*
X10851729Y-13108198D02*
X10870777Y-13098674D01*
X10870777Y-13098674D02*
X10918396Y-13098674D01*
X10918396Y-13098674D02*
X10937444Y-13108198D01*
X10937444Y-13108198D02*
X10946968Y-13117722D01*
X10946968Y-13117722D02*
X10956491Y-13136769D01*
X10956491Y-13136769D02*
X10956491Y-13184388D01*
X10956491Y-13184388D02*
X10946968Y-13203436D01*
X10946968Y-13203436D02*
X10937444Y-13212960D01*
X10937444Y-13212960D02*
X10918396Y-13222484D01*
X10918396Y-13222484D02*
X10870777Y-13222484D01*
X10870777Y-13222484D02*
X10851729Y-13212960D01*
X10851729Y-13212960D02*
X10842206Y-13203436D01*
X11051729Y-13222484D02*
X11089825Y-13222484D01*
X11089825Y-13222484D02*
X11108872Y-13212960D01*
X11108872Y-13212960D02*
X11118396Y-13203436D01*
X11118396Y-13203436D02*
X11137444Y-13174865D01*
X11137444Y-13174865D02*
X11146968Y-13136769D01*
X11146968Y-13136769D02*
X11146968Y-13060579D01*
X11146968Y-13060579D02*
X11137444Y-13041531D01*
X11137444Y-13041531D02*
X11127920Y-13032008D01*
X11127920Y-13032008D02*
X11108872Y-13022484D01*
X11108872Y-13022484D02*
X11070777Y-13022484D01*
X11070777Y-13022484D02*
X11051729Y-13032008D01*
X11051729Y-13032008D02*
X11042206Y-13041531D01*
X11042206Y-13041531D02*
X11032682Y-13060579D01*
X11032682Y-13060579D02*
X11032682Y-13108198D01*
X11032682Y-13108198D02*
X11042206Y-13127246D01*
X11042206Y-13127246D02*
X11051729Y-13136769D01*
X11051729Y-13136769D02*
X11070777Y-13146293D01*
X11070777Y-13146293D02*
X11108872Y-13146293D01*
X11108872Y-13146293D02*
X11127920Y-13136769D01*
X11127920Y-13136769D02*
X11137444Y-13127246D01*
X11137444Y-13127246D02*
X11146968Y-13108198D01*
X11337444Y-13222484D02*
X11223158Y-13222484D01*
X11280301Y-13222484D02*
X11280301Y-13022484D01*
X11280301Y-13022484D02*
X11261253Y-13051055D01*
X11261253Y-13051055D02*
X11242206Y-13070103D01*
X11242206Y-13070103D02*
X11223158Y-13079627D01*
X11413634Y-13022484D02*
X11413634Y-13060579D01*
X11489825Y-13022484D02*
X11489825Y-13060579D01*
X11785063Y-13298674D02*
X11775539Y-13289150D01*
X11775539Y-13289150D02*
X11756491Y-13260579D01*
X11756491Y-13260579D02*
X11746968Y-13241531D01*
X11746968Y-13241531D02*
X11737444Y-13212960D01*
X11737444Y-13212960D02*
X11727920Y-13165341D01*
X11727920Y-13165341D02*
X11727920Y-13127246D01*
X11727920Y-13127246D02*
X11737444Y-13079627D01*
X11737444Y-13079627D02*
X11746968Y-13051055D01*
X11746968Y-13051055D02*
X11756491Y-13032008D01*
X11756491Y-13032008D02*
X11775539Y-13003436D01*
X11775539Y-13003436D02*
X11785063Y-12993912D01*
X11851729Y-13041531D02*
X11861253Y-13032008D01*
X11861253Y-13032008D02*
X11880301Y-13022484D01*
X11880301Y-13022484D02*
X11927920Y-13022484D01*
X11927920Y-13022484D02*
X11946968Y-13032008D01*
X11946968Y-13032008D02*
X11956491Y-13041531D01*
X11956491Y-13041531D02*
X11966015Y-13060579D01*
X11966015Y-13060579D02*
X11966015Y-13079627D01*
X11966015Y-13079627D02*
X11956491Y-13108198D01*
X11956491Y-13108198D02*
X11842206Y-13222484D01*
X11842206Y-13222484D02*
X11966015Y-13222484D01*
X12204110Y-13222484D02*
X12204110Y-13022484D01*
X12289825Y-13222484D02*
X12289825Y-13117722D01*
X12289825Y-13117722D02*
X12280301Y-13098674D01*
X12280301Y-13098674D02*
X12261253Y-13089150D01*
X12261253Y-13089150D02*
X12232682Y-13089150D01*
X12232682Y-13089150D02*
X12213634Y-13098674D01*
X12213634Y-13098674D02*
X12204110Y-13108198D01*
X12413634Y-13222484D02*
X12394587Y-13212960D01*
X12394587Y-13212960D02*
X12385063Y-13203436D01*
X12385063Y-13203436D02*
X12375539Y-13184388D01*
X12375539Y-13184388D02*
X12375539Y-13127246D01*
X12375539Y-13127246D02*
X12385063Y-13108198D01*
X12385063Y-13108198D02*
X12394587Y-13098674D01*
X12394587Y-13098674D02*
X12413634Y-13089150D01*
X12413634Y-13089150D02*
X12442206Y-13089150D01*
X12442206Y-13089150D02*
X12461253Y-13098674D01*
X12461253Y-13098674D02*
X12470777Y-13108198D01*
X12470777Y-13108198D02*
X12480301Y-13127246D01*
X12480301Y-13127246D02*
X12480301Y-13184388D01*
X12480301Y-13184388D02*
X12470777Y-13203436D01*
X12470777Y-13203436D02*
X12461253Y-13212960D01*
X12461253Y-13212960D02*
X12442206Y-13222484D01*
X12442206Y-13222484D02*
X12413634Y-13222484D01*
X12594587Y-13222484D02*
X12575539Y-13212960D01*
X12575539Y-13212960D02*
X12566015Y-13193912D01*
X12566015Y-13193912D02*
X12566015Y-13022484D01*
X12746968Y-13212960D02*
X12727920Y-13222484D01*
X12727920Y-13222484D02*
X12689825Y-13222484D01*
X12689825Y-13222484D02*
X12670777Y-13212960D01*
X12670777Y-13212960D02*
X12661253Y-13193912D01*
X12661253Y-13193912D02*
X12661253Y-13117722D01*
X12661253Y-13117722D02*
X12670777Y-13098674D01*
X12670777Y-13098674D02*
X12689825Y-13089150D01*
X12689825Y-13089150D02*
X12727920Y-13089150D01*
X12727920Y-13089150D02*
X12746968Y-13098674D01*
X12746968Y-13098674D02*
X12756491Y-13117722D01*
X12756491Y-13117722D02*
X12756491Y-13136769D01*
X12756491Y-13136769D02*
X12661253Y-13155817D01*
X12832682Y-13212960D02*
X12851730Y-13222484D01*
X12851730Y-13222484D02*
X12889825Y-13222484D01*
X12889825Y-13222484D02*
X12908872Y-13212960D01*
X12908872Y-13212960D02*
X12918396Y-13193912D01*
X12918396Y-13193912D02*
X12918396Y-13184388D01*
X12918396Y-13184388D02*
X12908872Y-13165341D01*
X12908872Y-13165341D02*
X12889825Y-13155817D01*
X12889825Y-13155817D02*
X12861253Y-13155817D01*
X12861253Y-13155817D02*
X12842206Y-13146293D01*
X12842206Y-13146293D02*
X12832682Y-13127246D01*
X12832682Y-13127246D02*
X12832682Y-13117722D01*
X12832682Y-13117722D02*
X12842206Y-13098674D01*
X12842206Y-13098674D02*
X12861253Y-13089150D01*
X12861253Y-13089150D02*
X12889825Y-13089150D01*
X12889825Y-13089150D02*
X12908872Y-13098674D01*
X12985063Y-13298674D02*
X12994587Y-13289150D01*
X12994587Y-13289150D02*
X13013634Y-13260579D01*
X13013634Y-13260579D02*
X13023158Y-13241531D01*
X13023158Y-13241531D02*
X13032682Y-13212960D01*
X13032682Y-13212960D02*
X13042206Y-13165341D01*
X13042206Y-13165341D02*
X13042206Y-13127246D01*
X13042206Y-13127246D02*
X13032682Y-13079627D01*
X13032682Y-13079627D02*
X13023158Y-13051055D01*
X13023158Y-13051055D02*
X13013634Y-13032008D01*
X13013634Y-13032008D02*
X12994587Y-13003436D01*
X12994587Y-13003436D02*
X12985063Y-12993912D01*
D15*
X8130000Y-13481000D02*
X8210000Y-13401000D01*
X8130000Y-13321000D01*
X8050000Y-13401000D01*
X8130000Y-13481000D01*
D10*
X8575539Y-13492484D02*
X8461253Y-13492484D01*
X8518396Y-13492484D02*
X8518396Y-13292484D01*
X8518396Y-13292484D02*
X8499348Y-13321055D01*
X8499348Y-13321055D02*
X8480301Y-13340103D01*
X8480301Y-13340103D02*
X8461253Y-13349627D01*
X8661253Y-13473436D02*
X8670777Y-13482960D01*
X8670777Y-13482960D02*
X8661253Y-13492484D01*
X8661253Y-13492484D02*
X8651729Y-13482960D01*
X8651729Y-13482960D02*
X8661253Y-13473436D01*
X8661253Y-13473436D02*
X8661253Y-13492484D01*
X8842205Y-13292484D02*
X8804110Y-13292484D01*
X8804110Y-13292484D02*
X8785063Y-13302008D01*
X8785063Y-13302008D02*
X8775539Y-13311531D01*
X8775539Y-13311531D02*
X8756491Y-13340103D01*
X8756491Y-13340103D02*
X8746967Y-13378198D01*
X8746967Y-13378198D02*
X8746967Y-13454388D01*
X8746967Y-13454388D02*
X8756491Y-13473436D01*
X8756491Y-13473436D02*
X8766015Y-13482960D01*
X8766015Y-13482960D02*
X8785063Y-13492484D01*
X8785063Y-13492484D02*
X8823158Y-13492484D01*
X8823158Y-13492484D02*
X8842205Y-13482960D01*
X8842205Y-13482960D02*
X8851729Y-13473436D01*
X8851729Y-13473436D02*
X8861253Y-13454388D01*
X8861253Y-13454388D02*
X8861253Y-13406769D01*
X8861253Y-13406769D02*
X8851729Y-13387722D01*
X8851729Y-13387722D02*
X8842205Y-13378198D01*
X8842205Y-13378198D02*
X8823158Y-13368674D01*
X8823158Y-13368674D02*
X8785063Y-13368674D01*
X8785063Y-13368674D02*
X8766015Y-13378198D01*
X8766015Y-13378198D02*
X8756491Y-13387722D01*
X8756491Y-13387722D02*
X8746967Y-13406769D01*
X8985063Y-13292484D02*
X9004110Y-13292484D01*
X9004110Y-13292484D02*
X9023158Y-13302008D01*
X9023158Y-13302008D02*
X9032682Y-13311531D01*
X9032682Y-13311531D02*
X9042205Y-13330579D01*
X9042205Y-13330579D02*
X9051729Y-13368674D01*
X9051729Y-13368674D02*
X9051729Y-13416293D01*
X9051729Y-13416293D02*
X9042205Y-13454388D01*
X9042205Y-13454388D02*
X9032682Y-13473436D01*
X9032682Y-13473436D02*
X9023158Y-13482960D01*
X9023158Y-13482960D02*
X9004110Y-13492484D01*
X9004110Y-13492484D02*
X8985063Y-13492484D01*
X8985063Y-13492484D02*
X8966015Y-13482960D01*
X8966015Y-13482960D02*
X8956491Y-13473436D01*
X8956491Y-13473436D02*
X8946967Y-13454388D01*
X8946967Y-13454388D02*
X8937444Y-13416293D01*
X8937444Y-13416293D02*
X8937444Y-13368674D01*
X8937444Y-13368674D02*
X8946967Y-13330579D01*
X8946967Y-13330579D02*
X8956491Y-13311531D01*
X8956491Y-13311531D02*
X8966015Y-13302008D01*
X8966015Y-13302008D02*
X8985063Y-13292484D01*
X9175539Y-13292484D02*
X9194586Y-13292484D01*
X9194586Y-13292484D02*
X9213634Y-13302008D01*
X9213634Y-13302008D02*
X9223158Y-13311531D01*
X9223158Y-13311531D02*
X9232682Y-13330579D01*
X9232682Y-13330579D02*
X9242205Y-13368674D01*
X9242205Y-13368674D02*
X9242205Y-13416293D01*
X9242205Y-13416293D02*
X9232682Y-13454388D01*
X9232682Y-13454388D02*
X9223158Y-13473436D01*
X9223158Y-13473436D02*
X9213634Y-13482960D01*
X9213634Y-13482960D02*
X9194586Y-13492484D01*
X9194586Y-13492484D02*
X9175539Y-13492484D01*
X9175539Y-13492484D02*
X9156491Y-13482960D01*
X9156491Y-13482960D02*
X9146967Y-13473436D01*
X9146967Y-13473436D02*
X9137444Y-13454388D01*
X9137444Y-13454388D02*
X9127920Y-13416293D01*
X9127920Y-13416293D02*
X9127920Y-13368674D01*
X9127920Y-13368674D02*
X9137444Y-13330579D01*
X9137444Y-13330579D02*
X9146967Y-13311531D01*
X9146967Y-13311531D02*
X9156491Y-13302008D01*
X9156491Y-13302008D02*
X9175539Y-13292484D01*
X9327920Y-13492484D02*
X9327920Y-13359150D01*
X9327920Y-13378198D02*
X9337444Y-13368674D01*
X9337444Y-13368674D02*
X9356491Y-13359150D01*
X9356491Y-13359150D02*
X9385063Y-13359150D01*
X9385063Y-13359150D02*
X9404110Y-13368674D01*
X9404110Y-13368674D02*
X9413634Y-13387722D01*
X9413634Y-13387722D02*
X9413634Y-13492484D01*
X9413634Y-13387722D02*
X9423158Y-13368674D01*
X9423158Y-13368674D02*
X9442205Y-13359150D01*
X9442205Y-13359150D02*
X9470777Y-13359150D01*
X9470777Y-13359150D02*
X9489825Y-13368674D01*
X9489825Y-13368674D02*
X9499348Y-13387722D01*
X9499348Y-13387722D02*
X9499348Y-13492484D01*
X9594586Y-13492484D02*
X9594586Y-13359150D01*
X9594586Y-13378198D02*
X9604110Y-13368674D01*
X9604110Y-13368674D02*
X9623158Y-13359150D01*
X9623158Y-13359150D02*
X9651729Y-13359150D01*
X9651729Y-13359150D02*
X9670777Y-13368674D01*
X9670777Y-13368674D02*
X9680301Y-13387722D01*
X9680301Y-13387722D02*
X9680301Y-13492484D01*
X9680301Y-13387722D02*
X9689825Y-13368674D01*
X9689825Y-13368674D02*
X9708872Y-13359150D01*
X9708872Y-13359150D02*
X9737444Y-13359150D01*
X9737444Y-13359150D02*
X9756491Y-13368674D01*
X9756491Y-13368674D02*
X9766015Y-13387722D01*
X9766015Y-13387722D02*
X9766015Y-13492484D01*
X10156491Y-13282960D02*
X9985063Y-13540103D01*
X10413634Y-13292484D02*
X10432682Y-13292484D01*
X10432682Y-13292484D02*
X10451729Y-13302008D01*
X10451729Y-13302008D02*
X10461253Y-13311531D01*
X10461253Y-13311531D02*
X10470777Y-13330579D01*
X10470777Y-13330579D02*
X10480301Y-13368674D01*
X10480301Y-13368674D02*
X10480301Y-13416293D01*
X10480301Y-13416293D02*
X10470777Y-13454388D01*
X10470777Y-13454388D02*
X10461253Y-13473436D01*
X10461253Y-13473436D02*
X10451729Y-13482960D01*
X10451729Y-13482960D02*
X10432682Y-13492484D01*
X10432682Y-13492484D02*
X10413634Y-13492484D01*
X10413634Y-13492484D02*
X10394587Y-13482960D01*
X10394587Y-13482960D02*
X10385063Y-13473436D01*
X10385063Y-13473436D02*
X10375539Y-13454388D01*
X10375539Y-13454388D02*
X10366015Y-13416293D01*
X10366015Y-13416293D02*
X10366015Y-13368674D01*
X10366015Y-13368674D02*
X10375539Y-13330579D01*
X10375539Y-13330579D02*
X10385063Y-13311531D01*
X10385063Y-13311531D02*
X10394587Y-13302008D01*
X10394587Y-13302008D02*
X10413634Y-13292484D01*
X10566015Y-13473436D02*
X10575539Y-13482960D01*
X10575539Y-13482960D02*
X10566015Y-13492484D01*
X10566015Y-13492484D02*
X10556491Y-13482960D01*
X10556491Y-13482960D02*
X10566015Y-13473436D01*
X10566015Y-13473436D02*
X10566015Y-13492484D01*
X10699348Y-13292484D02*
X10718396Y-13292484D01*
X10718396Y-13292484D02*
X10737444Y-13302008D01*
X10737444Y-13302008D02*
X10746968Y-13311531D01*
X10746968Y-13311531D02*
X10756491Y-13330579D01*
X10756491Y-13330579D02*
X10766015Y-13368674D01*
X10766015Y-13368674D02*
X10766015Y-13416293D01*
X10766015Y-13416293D02*
X10756491Y-13454388D01*
X10756491Y-13454388D02*
X10746968Y-13473436D01*
X10746968Y-13473436D02*
X10737444Y-13482960D01*
X10737444Y-13482960D02*
X10718396Y-13492484D01*
X10718396Y-13492484D02*
X10699348Y-13492484D01*
X10699348Y-13492484D02*
X10680301Y-13482960D01*
X10680301Y-13482960D02*
X10670777Y-13473436D01*
X10670777Y-13473436D02*
X10661253Y-13454388D01*
X10661253Y-13454388D02*
X10651729Y-13416293D01*
X10651729Y-13416293D02*
X10651729Y-13368674D01*
X10651729Y-13368674D02*
X10661253Y-13330579D01*
X10661253Y-13330579D02*
X10670777Y-13311531D01*
X10670777Y-13311531D02*
X10680301Y-13302008D01*
X10680301Y-13302008D02*
X10699348Y-13292484D01*
X10937444Y-13292484D02*
X10899348Y-13292484D01*
X10899348Y-13292484D02*
X10880301Y-13302008D01*
X10880301Y-13302008D02*
X10870777Y-13311531D01*
X10870777Y-13311531D02*
X10851729Y-13340103D01*
X10851729Y-13340103D02*
X10842206Y-13378198D01*
X10842206Y-13378198D02*
X10842206Y-13454388D01*
X10842206Y-13454388D02*
X10851729Y-13473436D01*
X10851729Y-13473436D02*
X10861253Y-13482960D01*
X10861253Y-13482960D02*
X10880301Y-13492484D01*
X10880301Y-13492484D02*
X10918396Y-13492484D01*
X10918396Y-13492484D02*
X10937444Y-13482960D01*
X10937444Y-13482960D02*
X10946968Y-13473436D01*
X10946968Y-13473436D02*
X10956491Y-13454388D01*
X10956491Y-13454388D02*
X10956491Y-13406769D01*
X10956491Y-13406769D02*
X10946968Y-13387722D01*
X10946968Y-13387722D02*
X10937444Y-13378198D01*
X10937444Y-13378198D02*
X10918396Y-13368674D01*
X10918396Y-13368674D02*
X10880301Y-13368674D01*
X10880301Y-13368674D02*
X10861253Y-13378198D01*
X10861253Y-13378198D02*
X10851729Y-13387722D01*
X10851729Y-13387722D02*
X10842206Y-13406769D01*
X11023158Y-13292484D02*
X11146968Y-13292484D01*
X11146968Y-13292484D02*
X11080301Y-13368674D01*
X11080301Y-13368674D02*
X11108872Y-13368674D01*
X11108872Y-13368674D02*
X11127920Y-13378198D01*
X11127920Y-13378198D02*
X11137444Y-13387722D01*
X11137444Y-13387722D02*
X11146968Y-13406769D01*
X11146968Y-13406769D02*
X11146968Y-13454388D01*
X11146968Y-13454388D02*
X11137444Y-13473436D01*
X11137444Y-13473436D02*
X11127920Y-13482960D01*
X11127920Y-13482960D02*
X11108872Y-13492484D01*
X11108872Y-13492484D02*
X11051729Y-13492484D01*
X11051729Y-13492484D02*
X11032682Y-13482960D01*
X11032682Y-13482960D02*
X11023158Y-13473436D01*
X11270777Y-13292484D02*
X11289825Y-13292484D01*
X11289825Y-13292484D02*
X11308872Y-13302008D01*
X11308872Y-13302008D02*
X11318396Y-13311531D01*
X11318396Y-13311531D02*
X11327920Y-13330579D01*
X11327920Y-13330579D02*
X11337444Y-13368674D01*
X11337444Y-13368674D02*
X11337444Y-13416293D01*
X11337444Y-13416293D02*
X11327920Y-13454388D01*
X11327920Y-13454388D02*
X11318396Y-13473436D01*
X11318396Y-13473436D02*
X11308872Y-13482960D01*
X11308872Y-13482960D02*
X11289825Y-13492484D01*
X11289825Y-13492484D02*
X11270777Y-13492484D01*
X11270777Y-13492484D02*
X11251729Y-13482960D01*
X11251729Y-13482960D02*
X11242206Y-13473436D01*
X11242206Y-13473436D02*
X11232682Y-13454388D01*
X11232682Y-13454388D02*
X11223158Y-13416293D01*
X11223158Y-13416293D02*
X11223158Y-13368674D01*
X11223158Y-13368674D02*
X11232682Y-13330579D01*
X11232682Y-13330579D02*
X11242206Y-13311531D01*
X11242206Y-13311531D02*
X11251729Y-13302008D01*
X11251729Y-13302008D02*
X11270777Y-13292484D01*
X11413634Y-13292484D02*
X11413634Y-13330579D01*
X11489825Y-13292484D02*
X11489825Y-13330579D01*
X11785063Y-13568674D02*
X11775539Y-13559150D01*
X11775539Y-13559150D02*
X11756491Y-13530579D01*
X11756491Y-13530579D02*
X11746968Y-13511531D01*
X11746968Y-13511531D02*
X11737444Y-13482960D01*
X11737444Y-13482960D02*
X11727920Y-13435341D01*
X11727920Y-13435341D02*
X11727920Y-13397246D01*
X11727920Y-13397246D02*
X11737444Y-13349627D01*
X11737444Y-13349627D02*
X11746968Y-13321055D01*
X11746968Y-13321055D02*
X11756491Y-13302008D01*
X11756491Y-13302008D02*
X11775539Y-13273436D01*
X11775539Y-13273436D02*
X11785063Y-13263912D01*
X11946968Y-13292484D02*
X11908872Y-13292484D01*
X11908872Y-13292484D02*
X11889825Y-13302008D01*
X11889825Y-13302008D02*
X11880301Y-13311531D01*
X11880301Y-13311531D02*
X11861253Y-13340103D01*
X11861253Y-13340103D02*
X11851729Y-13378198D01*
X11851729Y-13378198D02*
X11851729Y-13454388D01*
X11851729Y-13454388D02*
X11861253Y-13473436D01*
X11861253Y-13473436D02*
X11870777Y-13482960D01*
X11870777Y-13482960D02*
X11889825Y-13492484D01*
X11889825Y-13492484D02*
X11927920Y-13492484D01*
X11927920Y-13492484D02*
X11946968Y-13482960D01*
X11946968Y-13482960D02*
X11956491Y-13473436D01*
X11956491Y-13473436D02*
X11966015Y-13454388D01*
X11966015Y-13454388D02*
X11966015Y-13406769D01*
X11966015Y-13406769D02*
X11956491Y-13387722D01*
X11956491Y-13387722D02*
X11946968Y-13378198D01*
X11946968Y-13378198D02*
X11927920Y-13368674D01*
X11927920Y-13368674D02*
X11889825Y-13368674D01*
X11889825Y-13368674D02*
X11870777Y-13378198D01*
X11870777Y-13378198D02*
X11861253Y-13387722D01*
X11861253Y-13387722D02*
X11851729Y-13406769D01*
X12204110Y-13492484D02*
X12204110Y-13292484D01*
X12289825Y-13492484D02*
X12289825Y-13387722D01*
X12289825Y-13387722D02*
X12280301Y-13368674D01*
X12280301Y-13368674D02*
X12261253Y-13359150D01*
X12261253Y-13359150D02*
X12232682Y-13359150D01*
X12232682Y-13359150D02*
X12213634Y-13368674D01*
X12213634Y-13368674D02*
X12204110Y-13378198D01*
X12413634Y-13492484D02*
X12394587Y-13482960D01*
X12394587Y-13482960D02*
X12385063Y-13473436D01*
X12385063Y-13473436D02*
X12375539Y-13454388D01*
X12375539Y-13454388D02*
X12375539Y-13397246D01*
X12375539Y-13397246D02*
X12385063Y-13378198D01*
X12385063Y-13378198D02*
X12394587Y-13368674D01*
X12394587Y-13368674D02*
X12413634Y-13359150D01*
X12413634Y-13359150D02*
X12442206Y-13359150D01*
X12442206Y-13359150D02*
X12461253Y-13368674D01*
X12461253Y-13368674D02*
X12470777Y-13378198D01*
X12470777Y-13378198D02*
X12480301Y-13397246D01*
X12480301Y-13397246D02*
X12480301Y-13454388D01*
X12480301Y-13454388D02*
X12470777Y-13473436D01*
X12470777Y-13473436D02*
X12461253Y-13482960D01*
X12461253Y-13482960D02*
X12442206Y-13492484D01*
X12442206Y-13492484D02*
X12413634Y-13492484D01*
X12594587Y-13492484D02*
X12575539Y-13482960D01*
X12575539Y-13482960D02*
X12566015Y-13463912D01*
X12566015Y-13463912D02*
X12566015Y-13292484D01*
X12746968Y-13482960D02*
X12727920Y-13492484D01*
X12727920Y-13492484D02*
X12689825Y-13492484D01*
X12689825Y-13492484D02*
X12670777Y-13482960D01*
X12670777Y-13482960D02*
X12661253Y-13463912D01*
X12661253Y-13463912D02*
X12661253Y-13387722D01*
X12661253Y-13387722D02*
X12670777Y-13368674D01*
X12670777Y-13368674D02*
X12689825Y-13359150D01*
X12689825Y-13359150D02*
X12727920Y-13359150D01*
X12727920Y-13359150D02*
X12746968Y-13368674D01*
X12746968Y-13368674D02*
X12756491Y-13387722D01*
X12756491Y-13387722D02*
X12756491Y-13406769D01*
X12756491Y-13406769D02*
X12661253Y-13425817D01*
X12832682Y-13482960D02*
X12851730Y-13492484D01*
X12851730Y-13492484D02*
X12889825Y-13492484D01*
X12889825Y-13492484D02*
X12908872Y-13482960D01*
X12908872Y-13482960D02*
X12918396Y-13463912D01*
X12918396Y-13463912D02*
X12918396Y-13454388D01*
X12918396Y-13454388D02*
X12908872Y-13435341D01*
X12908872Y-13435341D02*
X12889825Y-13425817D01*
X12889825Y-13425817D02*
X12861253Y-13425817D01*
X12861253Y-13425817D02*
X12842206Y-13416293D01*
X12842206Y-13416293D02*
X12832682Y-13397246D01*
X12832682Y-13397246D02*
X12832682Y-13387722D01*
X12832682Y-13387722D02*
X12842206Y-13368674D01*
X12842206Y-13368674D02*
X12861253Y-13359150D01*
X12861253Y-13359150D02*
X12889825Y-13359150D01*
X12889825Y-13359150D02*
X12908872Y-13368674D01*
X12985063Y-13568674D02*
X12994587Y-13559150D01*
X12994587Y-13559150D02*
X13013634Y-13530579D01*
X13013634Y-13530579D02*
X13023158Y-13511531D01*
X13023158Y-13511531D02*
X13032682Y-13482960D01*
X13032682Y-13482960D02*
X13042206Y-13435341D01*
X13042206Y-13435341D02*
X13042206Y-13397246D01*
X13042206Y-13397246D02*
X13032682Y-13349627D01*
X13032682Y-13349627D02*
X13023158Y-13321055D01*
X13023158Y-13321055D02*
X13013634Y-13302008D01*
X13013634Y-13302008D02*
X12994587Y-13273436D01*
X12994587Y-13273436D02*
X12985063Y-13263912D01*
M02*
