%TF.GenerationSoftware,KiCad,Pcbnew,7.0.8*%
%TF.CreationDate,2025-03-15T15:23:11-04:00*%
%TF.ProjectId,v2315power,76323331-3570-46f7-9765-722e6b696361,rev?*%
%TF.SameCoordinates,Original*%
%TF.FileFunction,Copper,L2,Bot*%
%TF.FilePolarity,Positive*%
%FSLAX46Y46*%
G04 Gerber Fmt 4.6, Leading zero omitted, Abs format (unit mm)*
G04 Created by KiCad (PCBNEW 7.0.8) date 2025-03-15 15:23:11*
%MOMM*%
%LPD*%
G01*
G04 APERTURE LIST*
%TA.AperFunction,ComponentPad*%
%ADD10R,2.200000X2.200000*%
%TD*%
%TA.AperFunction,ComponentPad*%
%ADD11C,2.200000*%
%TD*%
%TA.AperFunction,ComponentPad*%
%ADD12C,1.600000*%
%TD*%
%TA.AperFunction,ComponentPad*%
%ADD13O,1.600000X1.600000*%
%TD*%
%TA.AperFunction,ComponentPad*%
%ADD14C,3.000000*%
%TD*%
%TA.AperFunction,ComponentPad*%
%ADD15R,3.200000X3.200000*%
%TD*%
%TA.AperFunction,ComponentPad*%
%ADD16O,3.200000X3.200000*%
%TD*%
%TA.AperFunction,ComponentPad*%
%ADD17R,1.050000X1.500000*%
%TD*%
%TA.AperFunction,ComponentPad*%
%ADD18O,1.050000X1.500000*%
%TD*%
G04 APERTURE END LIST*
D10*
%TO.P,J1,1,Pin_1*%
%TO.N,Net-(D1-A)*%
X92120000Y-80990000D03*
D11*
%TO.P,J1,2,Pin_2*%
%TO.N,GNDREF*%
X92120000Y-83530000D03*
%TO.P,J1,3,Pin_3*%
%TO.N,Net-(J1-Pin_3)*%
X92120000Y-86070000D03*
%TO.P,J1,4,Pin_4*%
%TO.N,GNDREF*%
X92120000Y-88610000D03*
%TO.P,J1,5,Pin_5*%
%TO.N,Net-(J1-Pin_3)*%
X92120000Y-91150000D03*
%TO.P,J1,6,Pin_6*%
%TO.N,GNDREF*%
X92120000Y-93690000D03*
%TO.P,J1,7,Pin_7*%
%TO.N,Net-(D3-K)*%
X92120000Y-96230000D03*
%TO.P,J1,8,Pin_8*%
%TO.N,GNDREF*%
X92120000Y-98770000D03*
%TO.P,J1,9,Pin_9*%
%TO.N,Net-(J1-Pin_3)*%
X92120000Y-101310000D03*
%TO.P,J1,10,Pin_10*%
%TO.N,GNDREF*%
X92120000Y-103850000D03*
%TD*%
D12*
%TO.P,R1,1*%
%TO.N,Net-(D1-A)*%
X135360000Y-77760000D03*
D13*
%TO.P,R1,2*%
%TO.N,GNDREF*%
X135360000Y-90460000D03*
%TD*%
D14*
%TO.P,J2,1,Pin_1*%
%TO.N,Net-(J2-Pin_1)*%
X142620000Y-106700000D03*
X145620000Y-106700000D03*
%TD*%
D15*
%TO.P,D2,1,K*%
%TO.N,Net-(D1-K)*%
X119910000Y-91720000D03*
D16*
%TO.P,D2,2,A*%
%TO.N,GNDREF*%
X104670000Y-91720000D03*
%TD*%
D17*
%TO.P,Q1,1,E*%
%TO.N,GNDREF*%
X148850000Y-93330000D03*
D18*
%TO.P,Q1,2,B*%
%TO.N,Net-(Q1-B)*%
X150120000Y-93330000D03*
%TO.P,Q1,3,C*%
%TO.N,Net-(J2-Pin_1)*%
X151390000Y-93330000D03*
%TD*%
D12*
%TO.P,R2,1*%
%TO.N,Net-(D1-A)*%
X145270000Y-77880000D03*
D13*
%TO.P,R2,2*%
%TO.N,Net-(Q1-B)*%
X152890000Y-77880000D03*
%TD*%
D15*
%TO.P,D1,1,K*%
%TO.N,Net-(D1-K)*%
X120150000Y-76270000D03*
D16*
%TO.P,D1,2,A*%
%TO.N,Net-(D1-A)*%
X104910000Y-76270000D03*
%TD*%
D15*
%TO.P,D3,1,K*%
%TO.N,Net-(D3-K)*%
X104450000Y-108660000D03*
D16*
%TO.P,D3,2,A*%
%TO.N,Net-(D1-K)*%
X119690000Y-108660000D03*
%TD*%
%TA.AperFunction,Conductor*%
%TO.N,GNDREF*%
G36*
X164692539Y-66110185D02*
G01*
X164738294Y-66162989D01*
X164749500Y-66214500D01*
X164749500Y-116746000D01*
X164729815Y-116813039D01*
X164677011Y-116858794D01*
X164625500Y-116870000D01*
X82324500Y-116870000D01*
X82257461Y-116850315D01*
X82211706Y-116797511D01*
X82200500Y-116746000D01*
X82200500Y-110312903D01*
X85805793Y-110312903D01*
X85815672Y-110620970D01*
X85815672Y-110620975D01*
X85815673Y-110620978D01*
X85864867Y-110925261D01*
X85909137Y-111074419D01*
X85952571Y-111220763D01*
X86028643Y-111392609D01*
X86077337Y-111502609D01*
X86237123Y-111766193D01*
X86237127Y-111766198D01*
X86237133Y-111766207D01*
X86429297Y-112007174D01*
X86429299Y-112007176D01*
X86429303Y-112007180D01*
X86429304Y-112007181D01*
X86650724Y-112221614D01*
X86817862Y-112346352D01*
X86897741Y-112405968D01*
X86897743Y-112405969D01*
X86897747Y-112405972D01*
X87166318Y-112557228D01*
X87288689Y-112606771D01*
X87452018Y-112672897D01*
X87452023Y-112672898D01*
X87452025Y-112672899D01*
X87750179Y-112751084D01*
X88055883Y-112790500D01*
X88055890Y-112790500D01*
X88286980Y-112790500D01*
X88385814Y-112784154D01*
X88517601Y-112775693D01*
X88820151Y-112716772D01*
X89112683Y-112619644D01*
X89112689Y-112619640D01*
X89112693Y-112619640D01*
X89341108Y-112509641D01*
X89390393Y-112485907D01*
X89648720Y-112317754D01*
X89883424Y-112117948D01*
X90090650Y-111889769D01*
X90266996Y-111636963D01*
X90409567Y-111363683D01*
X90516020Y-111074415D01*
X90584609Y-110773908D01*
X90614206Y-110467098D01*
X90609100Y-110307870D01*
X102349500Y-110307870D01*
X102349501Y-110307876D01*
X102355908Y-110367483D01*
X102406202Y-110502328D01*
X102406206Y-110502335D01*
X102492452Y-110617544D01*
X102492455Y-110617547D01*
X102607664Y-110703793D01*
X102607671Y-110703797D01*
X102742517Y-110754091D01*
X102742516Y-110754091D01*
X102749444Y-110754835D01*
X102802127Y-110760500D01*
X106097872Y-110760499D01*
X106157483Y-110754091D01*
X106292331Y-110703796D01*
X106407546Y-110617546D01*
X106493796Y-110502331D01*
X106544091Y-110367483D01*
X106550500Y-110307873D01*
X106550499Y-108660000D01*
X117584592Y-108660000D01*
X117604201Y-108946680D01*
X117662666Y-109228034D01*
X117662667Y-109228037D01*
X117758894Y-109498793D01*
X117758893Y-109498793D01*
X117891098Y-109753935D01*
X118056812Y-109988700D01*
X118113156Y-110049029D01*
X118252947Y-110198708D01*
X118475853Y-110380055D01*
X118691132Y-110510970D01*
X118721382Y-110529365D01*
X118908237Y-110610526D01*
X118984942Y-110643844D01*
X119261642Y-110721371D01*
X119499694Y-110754091D01*
X119546321Y-110760500D01*
X119546322Y-110760500D01*
X119833679Y-110760500D01*
X119880306Y-110754091D01*
X120118358Y-110721371D01*
X120395058Y-110643844D01*
X120508015Y-110594779D01*
X120658617Y-110529365D01*
X120658620Y-110529363D01*
X120658625Y-110529361D01*
X120904147Y-110380055D01*
X121121897Y-110202903D01*
X156705793Y-110202903D01*
X156715672Y-110510970D01*
X156715672Y-110510975D01*
X156715673Y-110510978D01*
X156764867Y-110815261D01*
X156809137Y-110964419D01*
X156852571Y-111110763D01*
X156964532Y-111363683D01*
X156977337Y-111392609D01*
X157137123Y-111656193D01*
X157137127Y-111656198D01*
X157137133Y-111656207D01*
X157329297Y-111897174D01*
X157329299Y-111897176D01*
X157329303Y-111897180D01*
X157329304Y-111897181D01*
X157550724Y-112111614D01*
X157698109Y-112221610D01*
X157797741Y-112295968D01*
X157797743Y-112295969D01*
X157797747Y-112295972D01*
X158066318Y-112447228D01*
X158207057Y-112504207D01*
X158352018Y-112562897D01*
X158352023Y-112562898D01*
X158352025Y-112562899D01*
X158650179Y-112641084D01*
X158955883Y-112680500D01*
X158955890Y-112680500D01*
X159186980Y-112680500D01*
X159285814Y-112674154D01*
X159417601Y-112665693D01*
X159720151Y-112606772D01*
X160012683Y-112509644D01*
X160012689Y-112509640D01*
X160012693Y-112509640D01*
X160227970Y-112405968D01*
X160290393Y-112375907D01*
X160548720Y-112207754D01*
X160783424Y-112007948D01*
X160990650Y-111779769D01*
X161166996Y-111526963D01*
X161309567Y-111253683D01*
X161416020Y-110964415D01*
X161484609Y-110663908D01*
X161514206Y-110357098D01*
X161512627Y-110307872D01*
X161509127Y-110198708D01*
X161504327Y-110049022D01*
X161455133Y-109744739D01*
X161367431Y-109449244D01*
X161367429Y-109449239D01*
X161367428Y-109449236D01*
X161242666Y-109167398D01*
X161242663Y-109167391D01*
X161082877Y-108903807D01*
X161082870Y-108903799D01*
X161082866Y-108903792D01*
X160890702Y-108662825D01*
X160890700Y-108662823D01*
X160669279Y-108448389D01*
X160669276Y-108448386D01*
X160462539Y-108294094D01*
X160422258Y-108264031D01*
X160422253Y-108264028D01*
X160153682Y-108112772D01*
X160102289Y-108091965D01*
X159867981Y-107997102D01*
X159700660Y-107953226D01*
X159569821Y-107918916D01*
X159264117Y-107879500D01*
X159033026Y-107879500D01*
X159033020Y-107879500D01*
X158802406Y-107894306D01*
X158802389Y-107894308D01*
X158499854Y-107953226D01*
X158499849Y-107953228D01*
X158207310Y-108050358D01*
X158207306Y-108050359D01*
X157929613Y-108184089D01*
X157929605Y-108184094D01*
X157671286Y-108352241D01*
X157671276Y-108352248D01*
X157436581Y-108552046D01*
X157436571Y-108552056D01*
X157229354Y-108780225D01*
X157229350Y-108780229D01*
X157053005Y-109033033D01*
X157053003Y-109033037D01*
X156910432Y-109306319D01*
X156910429Y-109306326D01*
X156803981Y-109595580D01*
X156803979Y-109595590D01*
X156735391Y-109896089D01*
X156705794Y-110202902D01*
X156705793Y-110202903D01*
X121121897Y-110202903D01*
X121127053Y-110198708D01*
X121323189Y-109988698D01*
X121488901Y-109753936D01*
X121621104Y-109498797D01*
X121717334Y-109228032D01*
X121775798Y-108946686D01*
X121795408Y-108660000D01*
X121775798Y-108373314D01*
X121717334Y-108091968D01*
X121621105Y-107821206D01*
X121621106Y-107821206D01*
X121488901Y-107566064D01*
X121323187Y-107331299D01*
X121244554Y-107247105D01*
X121127053Y-107121292D01*
X120992857Y-107012116D01*
X120904146Y-106939944D01*
X120658617Y-106790634D01*
X120449956Y-106700001D01*
X140614390Y-106700001D01*
X140634804Y-106985433D01*
X140695628Y-107265037D01*
X140695630Y-107265043D01*
X140695631Y-107265046D01*
X140795633Y-107533161D01*
X140795635Y-107533166D01*
X140932770Y-107784309D01*
X140932775Y-107784317D01*
X141104254Y-108013387D01*
X141104270Y-108013405D01*
X141306594Y-108215729D01*
X141306612Y-108215745D01*
X141535682Y-108387224D01*
X141535690Y-108387229D01*
X141786833Y-108524364D01*
X141786832Y-108524364D01*
X141786836Y-108524365D01*
X141786839Y-108524367D01*
X142054954Y-108624369D01*
X142054960Y-108624370D01*
X142054962Y-108624371D01*
X142334566Y-108685195D01*
X142334568Y-108685195D01*
X142334572Y-108685196D01*
X142588220Y-108703337D01*
X142619999Y-108705610D01*
X142620000Y-108705610D01*
X142620001Y-108705610D01*
X142648595Y-108703564D01*
X142905428Y-108685196D01*
X143008276Y-108662823D01*
X143185037Y-108624371D01*
X143185037Y-108624370D01*
X143185046Y-108624369D01*
X143453161Y-108524367D01*
X143704315Y-108387226D01*
X143933395Y-108215739D01*
X144032320Y-108116813D01*
X144093641Y-108083330D01*
X144163333Y-108088314D01*
X144207679Y-108116813D01*
X144274955Y-108184089D01*
X144306602Y-108215736D01*
X144306612Y-108215745D01*
X144535682Y-108387224D01*
X144535690Y-108387229D01*
X144786833Y-108524364D01*
X144786832Y-108524364D01*
X144786836Y-108524365D01*
X144786839Y-108524367D01*
X145054954Y-108624369D01*
X145054960Y-108624370D01*
X145054962Y-108624371D01*
X145334566Y-108685195D01*
X145334568Y-108685195D01*
X145334572Y-108685196D01*
X145588220Y-108703337D01*
X145619999Y-108705610D01*
X145620000Y-108705610D01*
X145620001Y-108705610D01*
X145648595Y-108703564D01*
X145905428Y-108685196D01*
X146008276Y-108662823D01*
X146185037Y-108624371D01*
X146185037Y-108624370D01*
X146185046Y-108624369D01*
X146453161Y-108524367D01*
X146704315Y-108387226D01*
X146933395Y-108215739D01*
X147135739Y-108013395D01*
X147307226Y-107784315D01*
X147444367Y-107533161D01*
X147544369Y-107265046D01*
X147605196Y-106985428D01*
X147625434Y-106702455D01*
X147625610Y-106700001D01*
X147625610Y-106699998D01*
X147616020Y-106565909D01*
X147605196Y-106414572D01*
X147544369Y-106134954D01*
X147444367Y-105866839D01*
X147307226Y-105615685D01*
X147307224Y-105615682D01*
X147135745Y-105386612D01*
X147135729Y-105386594D01*
X146933405Y-105184270D01*
X146933387Y-105184254D01*
X146704317Y-105012775D01*
X146704309Y-105012770D01*
X146453166Y-104875635D01*
X146453167Y-104875635D01*
X146345915Y-104835632D01*
X146185046Y-104775631D01*
X146185043Y-104775630D01*
X146185037Y-104775628D01*
X145905433Y-104714804D01*
X145620001Y-104694390D01*
X145619999Y-104694390D01*
X145334566Y-104714804D01*
X145054962Y-104775628D01*
X144786833Y-104875635D01*
X144535690Y-105012770D01*
X144535682Y-105012775D01*
X144306612Y-105184254D01*
X144306594Y-105184270D01*
X144207681Y-105283184D01*
X144146358Y-105316669D01*
X144076666Y-105311685D01*
X144032319Y-105283184D01*
X143933405Y-105184270D01*
X143933387Y-105184254D01*
X143704317Y-105012775D01*
X143704309Y-105012770D01*
X143453166Y-104875635D01*
X143453167Y-104875635D01*
X143345915Y-104835632D01*
X143185046Y-104775631D01*
X143185043Y-104775630D01*
X143185037Y-104775628D01*
X142905433Y-104714804D01*
X142620001Y-104694390D01*
X142619999Y-104694390D01*
X142334566Y-104714804D01*
X142054962Y-104775628D01*
X141786833Y-104875635D01*
X141535690Y-105012770D01*
X141535682Y-105012775D01*
X141306612Y-105184254D01*
X141306594Y-105184270D01*
X141104270Y-105386594D01*
X141104254Y-105386612D01*
X140932775Y-105615682D01*
X140932770Y-105615690D01*
X140795635Y-105866833D01*
X140695628Y-106134962D01*
X140634804Y-106414566D01*
X140614390Y-106699998D01*
X140614390Y-106700001D01*
X120449956Y-106700001D01*
X120395063Y-106676158D01*
X120395061Y-106676157D01*
X120395058Y-106676156D01*
X120265578Y-106639877D01*
X120118364Y-106598630D01*
X120118359Y-106598629D01*
X120118358Y-106598629D01*
X119976018Y-106579064D01*
X119833679Y-106559500D01*
X119833678Y-106559500D01*
X119546322Y-106559500D01*
X119546321Y-106559500D01*
X119261642Y-106598629D01*
X119261635Y-106598630D01*
X119053861Y-106656845D01*
X118984942Y-106676156D01*
X118984939Y-106676156D01*
X118984936Y-106676158D01*
X118984935Y-106676158D01*
X118721382Y-106790634D01*
X118475853Y-106939944D01*
X118252950Y-107121289D01*
X118056812Y-107331299D01*
X117891098Y-107566064D01*
X117758894Y-107821206D01*
X117662667Y-108091962D01*
X117662666Y-108091965D01*
X117604201Y-108373319D01*
X117584592Y-108660000D01*
X106550499Y-108660000D01*
X106550499Y-107012128D01*
X106544091Y-106952517D01*
X106493796Y-106817669D01*
X106493795Y-106817668D01*
X106493793Y-106817664D01*
X106407547Y-106702455D01*
X106407544Y-106702452D01*
X106292335Y-106616206D01*
X106292328Y-106616202D01*
X106157482Y-106565908D01*
X106157483Y-106565908D01*
X106097883Y-106559501D01*
X106097881Y-106559500D01*
X106097873Y-106559500D01*
X106097864Y-106559500D01*
X102802129Y-106559500D01*
X102802123Y-106559501D01*
X102742516Y-106565908D01*
X102607671Y-106616202D01*
X102607664Y-106616206D01*
X102492455Y-106702452D01*
X102492452Y-106702455D01*
X102406206Y-106817664D01*
X102406202Y-106817671D01*
X102355908Y-106952517D01*
X102349501Y-107012116D01*
X102349501Y-107012123D01*
X102349500Y-107012135D01*
X102349500Y-110307870D01*
X90609100Y-110307870D01*
X90604327Y-110159022D01*
X90555133Y-109854739D01*
X90467431Y-109559244D01*
X90467429Y-109559239D01*
X90467428Y-109559236D01*
X90342666Y-109277398D01*
X90342663Y-109277391D01*
X90182877Y-109013807D01*
X90182870Y-109013799D01*
X90182866Y-109013792D01*
X89990702Y-108772825D01*
X89990700Y-108772823D01*
X89769279Y-108558389D01*
X89769276Y-108558386D01*
X89621886Y-108448386D01*
X89522258Y-108374031D01*
X89483580Y-108352248D01*
X89253682Y-108222772D01*
X89216383Y-108207671D01*
X88967981Y-108107102D01*
X88800660Y-108063226D01*
X88669821Y-108028916D01*
X88364117Y-107989500D01*
X88133026Y-107989500D01*
X88133020Y-107989500D01*
X87902406Y-108004306D01*
X87902389Y-108004308D01*
X87599854Y-108063226D01*
X87599849Y-108063228D01*
X87307310Y-108160358D01*
X87307306Y-108160359D01*
X87029613Y-108294089D01*
X87029605Y-108294094D01*
X86771286Y-108462241D01*
X86771276Y-108462248D01*
X86536581Y-108662046D01*
X86536571Y-108662056D01*
X86329354Y-108890225D01*
X86329350Y-108890229D01*
X86153005Y-109143033D01*
X86153003Y-109143037D01*
X86010432Y-109416319D01*
X86010429Y-109416326D01*
X85903981Y-109705580D01*
X85903979Y-109705590D01*
X85835391Y-110006089D01*
X85805794Y-110312902D01*
X85805793Y-110312903D01*
X82200500Y-110312903D01*
X82200500Y-101310000D01*
X90514551Y-101310000D01*
X90534317Y-101561151D01*
X90593126Y-101806110D01*
X90689533Y-102038859D01*
X90821160Y-102253653D01*
X90821161Y-102253656D01*
X90821164Y-102253659D01*
X90984776Y-102445224D01*
X91176341Y-102608836D01*
X91308585Y-102689875D01*
X91331474Y-102707920D01*
X91948432Y-103324878D01*
X91831542Y-103375651D01*
X91714261Y-103471066D01*
X91627072Y-103594585D01*
X91596644Y-103680198D01*
X90822266Y-102905820D01*
X90821568Y-102906637D01*
X90689980Y-103121368D01*
X90593603Y-103354043D01*
X90534812Y-103598927D01*
X90515052Y-103850000D01*
X90534812Y-104101072D01*
X90593603Y-104345956D01*
X90689980Y-104578631D01*
X90821566Y-104793358D01*
X90821577Y-104793374D01*
X90822264Y-104794178D01*
X90822266Y-104794178D01*
X91594070Y-104022375D01*
X91596884Y-104035915D01*
X91666442Y-104170156D01*
X91769638Y-104280652D01*
X91898819Y-104359209D01*
X91950002Y-104373549D01*
X91175819Y-105147732D01*
X91176636Y-105148430D01*
X91176638Y-105148432D01*
X91391368Y-105280019D01*
X91624043Y-105376396D01*
X91868927Y-105435187D01*
X92120000Y-105454947D01*
X92371072Y-105435187D01*
X92615956Y-105376396D01*
X92848631Y-105280019D01*
X93063360Y-105148432D01*
X93063371Y-105148424D01*
X93064179Y-105147732D01*
X92291568Y-104375121D01*
X92408458Y-104324349D01*
X92525739Y-104228934D01*
X92612928Y-104105415D01*
X92643354Y-104019801D01*
X93417732Y-104794179D01*
X93418424Y-104793371D01*
X93418432Y-104793360D01*
X93550019Y-104578631D01*
X93646396Y-104345956D01*
X93705187Y-104101072D01*
X93724947Y-103850000D01*
X93705187Y-103598927D01*
X93646396Y-103354043D01*
X93550019Y-103121368D01*
X93418432Y-102906638D01*
X93418430Y-102906636D01*
X93417732Y-102905819D01*
X92645929Y-103677622D01*
X92643116Y-103664085D01*
X92573558Y-103529844D01*
X92470362Y-103419348D01*
X92341181Y-103340791D01*
X92289996Y-103326449D01*
X92908522Y-102707922D01*
X92931407Y-102689879D01*
X93063659Y-102608836D01*
X93255224Y-102445224D01*
X93418836Y-102253659D01*
X93550466Y-102038859D01*
X93646873Y-101806111D01*
X93705683Y-101561148D01*
X93725449Y-101310000D01*
X93705683Y-101058852D01*
X93646873Y-100813889D01*
X93550466Y-100581141D01*
X93550466Y-100581140D01*
X93418839Y-100366346D01*
X93418838Y-100366343D01*
X93381875Y-100323066D01*
X93255224Y-100174776D01*
X93128571Y-100066604D01*
X93063656Y-100011161D01*
X93063653Y-100011160D01*
X92931415Y-99930124D01*
X92908524Y-99912078D01*
X92291568Y-99295121D01*
X92408458Y-99244349D01*
X92525739Y-99148934D01*
X92612928Y-99025415D01*
X92643354Y-98939801D01*
X93417732Y-99714179D01*
X93418424Y-99713371D01*
X93418432Y-99713360D01*
X93550019Y-99498631D01*
X93646396Y-99265956D01*
X93705187Y-99021072D01*
X93724947Y-98770000D01*
X93705187Y-98518927D01*
X93646396Y-98274043D01*
X93550019Y-98041368D01*
X93418432Y-97826638D01*
X93418430Y-97826636D01*
X93417732Y-97825819D01*
X92645929Y-98597622D01*
X92643116Y-98584085D01*
X92573558Y-98449844D01*
X92470362Y-98339348D01*
X92341181Y-98260791D01*
X92289996Y-98246449D01*
X92908522Y-97627922D01*
X92931407Y-97609879D01*
X93063659Y-97528836D01*
X93255224Y-97365224D01*
X93418836Y-97173659D01*
X93550466Y-96958859D01*
X93646873Y-96726111D01*
X93705683Y-96481148D01*
X93725449Y-96230000D01*
X93705683Y-95978852D01*
X93646873Y-95733889D01*
X93550466Y-95501141D01*
X93550466Y-95501140D01*
X93418839Y-95286346D01*
X93418838Y-95286343D01*
X93381875Y-95243066D01*
X93255224Y-95094776D01*
X93128571Y-94986604D01*
X93063656Y-94931161D01*
X93063653Y-94931160D01*
X92931415Y-94850124D01*
X92908524Y-94832078D01*
X92291568Y-94215121D01*
X92408458Y-94164349D01*
X92525739Y-94068934D01*
X92612928Y-93945415D01*
X92643354Y-93859801D01*
X93417732Y-94634179D01*
X93418424Y-94633371D01*
X93418432Y-94633360D01*
X93550019Y-94418631D01*
X93646396Y-94185956D01*
X93660347Y-94127844D01*
X147825000Y-94127844D01*
X147831401Y-94187372D01*
X147831403Y-94187379D01*
X147881645Y-94322086D01*
X147881649Y-94322093D01*
X147967809Y-94437187D01*
X147967812Y-94437190D01*
X148082906Y-94523350D01*
X148082913Y-94523354D01*
X148217620Y-94573596D01*
X148217627Y-94573598D01*
X148277155Y-94579999D01*
X148277172Y-94580000D01*
X148600000Y-94580000D01*
X148600000Y-93610617D01*
X148669052Y-93664363D01*
X148787424Y-93705000D01*
X148881073Y-93705000D01*
X148973446Y-93689586D01*
X149083514Y-93630019D01*
X149095630Y-93616856D01*
X149099701Y-93658190D01*
X149100000Y-93664270D01*
X149100000Y-94580000D01*
X149422828Y-94580000D01*
X149422844Y-94579999D01*
X149482372Y-94573598D01*
X149482376Y-94573597D01*
X149617093Y-94523350D01*
X149624876Y-94519101D01*
X149626071Y-94521289D01*
X149679109Y-94501492D01*
X149723982Y-94506513D01*
X149725653Y-94507020D01*
X149725659Y-94507023D01*
X149918967Y-94565662D01*
X150120000Y-94585462D01*
X150321033Y-94565662D01*
X150514341Y-94507023D01*
X150692494Y-94411798D01*
X150692498Y-94411794D01*
X150696546Y-94409631D01*
X150764949Y-94395389D01*
X150813454Y-94409631D01*
X150817502Y-94411794D01*
X150817506Y-94411798D01*
X150995659Y-94507023D01*
X151188967Y-94565662D01*
X151390000Y-94585462D01*
X151591033Y-94565662D01*
X151784341Y-94507023D01*
X151962494Y-94411798D01*
X152118647Y-94283647D01*
X152246798Y-94127494D01*
X152342023Y-93949341D01*
X152400662Y-93756033D01*
X152415500Y-93605380D01*
X152415500Y-93054620D01*
X152400662Y-92903967D01*
X152342023Y-92710659D01*
X152342021Y-92710656D01*
X152342021Y-92710654D01*
X152246801Y-92532511D01*
X152246799Y-92532509D01*
X152246798Y-92532506D01*
X152175260Y-92445336D01*
X152118647Y-92376352D01*
X151962495Y-92248203D01*
X151962488Y-92248198D01*
X151784345Y-92152978D01*
X151591031Y-92094337D01*
X151390000Y-92074538D01*
X151188968Y-92094337D01*
X150995654Y-92152978D01*
X150813453Y-92250367D01*
X150745050Y-92264609D01*
X150696547Y-92250367D01*
X150514345Y-92152978D01*
X150321031Y-92094337D01*
X150120000Y-92074538D01*
X149918968Y-92094337D01*
X149781371Y-92136076D01*
X149725659Y-92152977D01*
X149725657Y-92152977D01*
X149723982Y-92153486D01*
X149654115Y-92154109D01*
X149625414Y-92139902D01*
X149624872Y-92140897D01*
X149617086Y-92136645D01*
X149482379Y-92086403D01*
X149482372Y-92086401D01*
X149422844Y-92080000D01*
X149100000Y-92080000D01*
X149100000Y-92995728D01*
X149099701Y-93001808D01*
X149095370Y-93045779D01*
X149030948Y-92995637D01*
X148912576Y-92955000D01*
X148818927Y-92955000D01*
X148726554Y-92970414D01*
X148616486Y-93029981D01*
X148600000Y-93047889D01*
X148600000Y-92080000D01*
X148277155Y-92080000D01*
X148217627Y-92086401D01*
X148217620Y-92086403D01*
X148082913Y-92136645D01*
X148082906Y-92136649D01*
X147967812Y-92222809D01*
X147967809Y-92222812D01*
X147881649Y-92337906D01*
X147881645Y-92337913D01*
X147831403Y-92472620D01*
X147831401Y-92472627D01*
X147825000Y-92532155D01*
X147825000Y-93080000D01*
X148570440Y-93080000D01*
X148531722Y-93122059D01*
X148481449Y-93236670D01*
X148471114Y-93361395D01*
X148501837Y-93482719D01*
X148565394Y-93580000D01*
X147825000Y-93580000D01*
X147825000Y-94127844D01*
X93660347Y-94127844D01*
X93705187Y-93941072D01*
X93724947Y-93690000D01*
X93705187Y-93438927D01*
X93646396Y-93194043D01*
X93550019Y-92961368D01*
X93418432Y-92746638D01*
X93418430Y-92746636D01*
X93417732Y-92745819D01*
X92645929Y-93517622D01*
X92643116Y-93504085D01*
X92573558Y-93369844D01*
X92470362Y-93259348D01*
X92341181Y-93180791D01*
X92289996Y-93166449D01*
X92908522Y-92547922D01*
X92931407Y-92529879D01*
X93063659Y-92448836D01*
X93255224Y-92285224D01*
X93418836Y-92093659D01*
X93550466Y-91878859D01*
X93646873Y-91646111D01*
X93689153Y-91469999D01*
X102582192Y-91469999D01*
X102582193Y-91470000D01*
X103909917Y-91470000D01*
X103885123Y-91540857D01*
X103864938Y-91720000D01*
X103885123Y-91899143D01*
X103909917Y-91970000D01*
X102582193Y-91970000D01*
X102584697Y-92006619D01*
X102643146Y-92287888D01*
X102643150Y-92287902D01*
X102739355Y-92558595D01*
X102871527Y-92813676D01*
X103037204Y-93048385D01*
X103037204Y-93048386D01*
X103233288Y-93258341D01*
X103456135Y-93439641D01*
X103456146Y-93439648D01*
X103701607Y-93588917D01*
X103965108Y-93703371D01*
X104241737Y-93780879D01*
X104241746Y-93780881D01*
X104419999Y-93805380D01*
X104420000Y-93805380D01*
X104420000Y-92480083D01*
X104490857Y-92504877D01*
X104625074Y-92520000D01*
X104714926Y-92520000D01*
X104849143Y-92504877D01*
X104920000Y-92480083D01*
X104920000Y-93805380D01*
X105098253Y-93780881D01*
X105098262Y-93780879D01*
X105374891Y-93703371D01*
X105638392Y-93588917D01*
X105883853Y-93439648D01*
X105883864Y-93439641D01*
X105972082Y-93367870D01*
X117809500Y-93367870D01*
X117809501Y-93367876D01*
X117815908Y-93427483D01*
X117866202Y-93562328D01*
X117866206Y-93562335D01*
X117952452Y-93677544D01*
X117952455Y-93677547D01*
X118067664Y-93763793D01*
X118067671Y-93763797D01*
X118202517Y-93814091D01*
X118202516Y-93814091D01*
X118209444Y-93814835D01*
X118262127Y-93820500D01*
X121557872Y-93820499D01*
X121617483Y-93814091D01*
X121752331Y-93763796D01*
X121867546Y-93677546D01*
X121953796Y-93562331D01*
X122004091Y-93427483D01*
X122010500Y-93367873D01*
X122010499Y-90209999D01*
X134081127Y-90209999D01*
X134081128Y-90210000D01*
X135044314Y-90210000D01*
X135032359Y-90221955D01*
X134974835Y-90334852D01*
X134955014Y-90460000D01*
X134974835Y-90585148D01*
X135032359Y-90698045D01*
X135044314Y-90710000D01*
X134081128Y-90710000D01*
X134133730Y-90906317D01*
X134133734Y-90906326D01*
X134229865Y-91112482D01*
X134360342Y-91298820D01*
X134521179Y-91459657D01*
X134707517Y-91590134D01*
X134913673Y-91686265D01*
X134913682Y-91686269D01*
X135109999Y-91738872D01*
X135110000Y-91738871D01*
X135110000Y-90775686D01*
X135121955Y-90787641D01*
X135234852Y-90845165D01*
X135328519Y-90860000D01*
X135391481Y-90860000D01*
X135485148Y-90845165D01*
X135598045Y-90787641D01*
X135610000Y-90775686D01*
X135610000Y-91738872D01*
X135806317Y-91686269D01*
X135806326Y-91686265D01*
X136012482Y-91590134D01*
X136198820Y-91459657D01*
X136359657Y-91298820D01*
X136490134Y-91112482D01*
X136586265Y-90906326D01*
X136586269Y-90906317D01*
X136638872Y-90710000D01*
X135675686Y-90710000D01*
X135687641Y-90698045D01*
X135745165Y-90585148D01*
X135764986Y-90460000D01*
X135745165Y-90334852D01*
X135687641Y-90221955D01*
X135675686Y-90210000D01*
X136638872Y-90210000D01*
X136638872Y-90209999D01*
X136586269Y-90013682D01*
X136586265Y-90013673D01*
X136490134Y-89807517D01*
X136359657Y-89621179D01*
X136198820Y-89460342D01*
X136012482Y-89329865D01*
X135806328Y-89233734D01*
X135610000Y-89181127D01*
X135610000Y-90144314D01*
X135598045Y-90132359D01*
X135485148Y-90074835D01*
X135391481Y-90060000D01*
X135328519Y-90060000D01*
X135234852Y-90074835D01*
X135121955Y-90132359D01*
X135110000Y-90144314D01*
X135110000Y-89181127D01*
X134913671Y-89233734D01*
X134707517Y-89329865D01*
X134521179Y-89460342D01*
X134360342Y-89621179D01*
X134229865Y-89807517D01*
X134133734Y-90013673D01*
X134133730Y-90013682D01*
X134081127Y-90209999D01*
X122010499Y-90209999D01*
X122010499Y-90072128D01*
X122004091Y-90012517D01*
X121999553Y-90000351D01*
X121953797Y-89877671D01*
X121953793Y-89877664D01*
X121867547Y-89762455D01*
X121867544Y-89762452D01*
X121752335Y-89676206D01*
X121752328Y-89676202D01*
X121617482Y-89625908D01*
X121617483Y-89625908D01*
X121557883Y-89619501D01*
X121557881Y-89619500D01*
X121557873Y-89619500D01*
X121557864Y-89619500D01*
X118262129Y-89619500D01*
X118262123Y-89619501D01*
X118202516Y-89625908D01*
X118067671Y-89676202D01*
X118067664Y-89676206D01*
X117952455Y-89762452D01*
X117952452Y-89762455D01*
X117866206Y-89877664D01*
X117866202Y-89877671D01*
X117815908Y-90012517D01*
X117809501Y-90072116D01*
X117809501Y-90072123D01*
X117809500Y-90072135D01*
X117809500Y-93367870D01*
X105972082Y-93367870D01*
X106106711Y-93258341D01*
X106302795Y-93048386D01*
X106302795Y-93048385D01*
X106468472Y-92813676D01*
X106600644Y-92558595D01*
X106696849Y-92287902D01*
X106696853Y-92287888D01*
X106755302Y-92006619D01*
X106757807Y-91970000D01*
X105430083Y-91970000D01*
X105454877Y-91899143D01*
X105475062Y-91720000D01*
X105454877Y-91540857D01*
X105430083Y-91470000D01*
X106757807Y-91470000D01*
X106757807Y-91469999D01*
X106755302Y-91433380D01*
X106696853Y-91152111D01*
X106696849Y-91152097D01*
X106600644Y-90881404D01*
X106468472Y-90626323D01*
X106302795Y-90391614D01*
X106302795Y-90391613D01*
X106106711Y-90181658D01*
X105883864Y-90000358D01*
X105883853Y-90000351D01*
X105638392Y-89851082D01*
X105374891Y-89736628D01*
X105098262Y-89659120D01*
X105098255Y-89659119D01*
X104920000Y-89634618D01*
X104920000Y-90959916D01*
X104849143Y-90935123D01*
X104714926Y-90920000D01*
X104625074Y-90920000D01*
X104490857Y-90935123D01*
X104420000Y-90959916D01*
X104420000Y-89634618D01*
X104241744Y-89659119D01*
X104241737Y-89659120D01*
X103965108Y-89736628D01*
X103701607Y-89851082D01*
X103456146Y-90000351D01*
X103456135Y-90000358D01*
X103233288Y-90181658D01*
X103037204Y-90391613D01*
X103037204Y-90391614D01*
X102871527Y-90626323D01*
X102739355Y-90881404D01*
X102643150Y-91152097D01*
X102643146Y-91152111D01*
X102584697Y-91433380D01*
X102582192Y-91469999D01*
X93689153Y-91469999D01*
X93705683Y-91401148D01*
X93725449Y-91150000D01*
X93705683Y-90898852D01*
X93646873Y-90653889D01*
X93550466Y-90421141D01*
X93550466Y-90421140D01*
X93418839Y-90206346D01*
X93418838Y-90206343D01*
X93304213Y-90072135D01*
X93255224Y-90014776D01*
X93094695Y-89877671D01*
X93063656Y-89851161D01*
X93063653Y-89851160D01*
X92931415Y-89770124D01*
X92908524Y-89752078D01*
X92291568Y-89135121D01*
X92408458Y-89084349D01*
X92525739Y-88988934D01*
X92612928Y-88865415D01*
X92643354Y-88779801D01*
X93417732Y-89554179D01*
X93418424Y-89553371D01*
X93418432Y-89553360D01*
X93550019Y-89338631D01*
X93646396Y-89105956D01*
X93705187Y-88861072D01*
X93724947Y-88610000D01*
X93705187Y-88358927D01*
X93646396Y-88114043D01*
X93550019Y-87881368D01*
X93418432Y-87666638D01*
X93418430Y-87666636D01*
X93417732Y-87665819D01*
X92645929Y-88437622D01*
X92643116Y-88424085D01*
X92573558Y-88289844D01*
X92470362Y-88179348D01*
X92341181Y-88100791D01*
X92289996Y-88086449D01*
X92908522Y-87467922D01*
X92931407Y-87449879D01*
X93063659Y-87368836D01*
X93255224Y-87205224D01*
X93418836Y-87013659D01*
X93550466Y-86798859D01*
X93646873Y-86566111D01*
X93705683Y-86321148D01*
X93725449Y-86070000D01*
X93705683Y-85818852D01*
X93646873Y-85573889D01*
X93550466Y-85341141D01*
X93550466Y-85341140D01*
X93418839Y-85126346D01*
X93418838Y-85126343D01*
X93381875Y-85083066D01*
X93255224Y-84934776D01*
X93128571Y-84826604D01*
X93063656Y-84771161D01*
X93063653Y-84771160D01*
X92931415Y-84690124D01*
X92908524Y-84672078D01*
X92291568Y-84055121D01*
X92408458Y-84004349D01*
X92525739Y-83908934D01*
X92612928Y-83785415D01*
X92643354Y-83699801D01*
X93417732Y-84474179D01*
X93418424Y-84473371D01*
X93418432Y-84473360D01*
X93550019Y-84258631D01*
X93646396Y-84025956D01*
X93705187Y-83781072D01*
X93724947Y-83530000D01*
X93705187Y-83278927D01*
X93646396Y-83034043D01*
X93550019Y-82801368D01*
X93469077Y-82669284D01*
X93450832Y-82601839D01*
X93471948Y-82535236D01*
X93500489Y-82505230D01*
X93577546Y-82447546D01*
X93663796Y-82332331D01*
X93714091Y-82197483D01*
X93720500Y-82137873D01*
X93720499Y-79842128D01*
X93714091Y-79782517D01*
X93663796Y-79647669D01*
X93663795Y-79647668D01*
X93663793Y-79647664D01*
X93577547Y-79532455D01*
X93577544Y-79532452D01*
X93462335Y-79446206D01*
X93462328Y-79446202D01*
X93327482Y-79395908D01*
X93327483Y-79395908D01*
X93267883Y-79389501D01*
X93267881Y-79389500D01*
X93267873Y-79389500D01*
X93267864Y-79389500D01*
X90972129Y-79389500D01*
X90972123Y-79389501D01*
X90912516Y-79395908D01*
X90777671Y-79446202D01*
X90777664Y-79446206D01*
X90662455Y-79532452D01*
X90662452Y-79532455D01*
X90576206Y-79647664D01*
X90576202Y-79647671D01*
X90525908Y-79782517D01*
X90519501Y-79842116D01*
X90519501Y-79842123D01*
X90519500Y-79842135D01*
X90519500Y-82137870D01*
X90519501Y-82137876D01*
X90525908Y-82197483D01*
X90576202Y-82332328D01*
X90576206Y-82332335D01*
X90662452Y-82447544D01*
X90662455Y-82447547D01*
X90739506Y-82505228D01*
X90781377Y-82561162D01*
X90786361Y-82630853D01*
X90770923Y-82669284D01*
X90689978Y-82801373D01*
X90593603Y-83034043D01*
X90534812Y-83278927D01*
X90515052Y-83530000D01*
X90534812Y-83781072D01*
X90593603Y-84025956D01*
X90689980Y-84258631D01*
X90821566Y-84473358D01*
X90821577Y-84473374D01*
X90822264Y-84474178D01*
X90822266Y-84474178D01*
X91594070Y-83702374D01*
X91596884Y-83715915D01*
X91666442Y-83850156D01*
X91769638Y-83960652D01*
X91898819Y-84039209D01*
X91950002Y-84053550D01*
X91331473Y-84672079D01*
X91308582Y-84690125D01*
X91176346Y-84771160D01*
X91176343Y-84771161D01*
X90984776Y-84934776D01*
X90821161Y-85126343D01*
X90821160Y-85126346D01*
X90689533Y-85341140D01*
X90593126Y-85573889D01*
X90534317Y-85818848D01*
X90514551Y-86070000D01*
X90534317Y-86321151D01*
X90593126Y-86566110D01*
X90689533Y-86798859D01*
X90821160Y-87013653D01*
X90821161Y-87013656D01*
X90821164Y-87013659D01*
X90984776Y-87205224D01*
X91176341Y-87368836D01*
X91308585Y-87449875D01*
X91331474Y-87467920D01*
X91948432Y-88084878D01*
X91831542Y-88135651D01*
X91714261Y-88231066D01*
X91627072Y-88354585D01*
X91596644Y-88440198D01*
X90822266Y-87665820D01*
X90821568Y-87666637D01*
X90689980Y-87881368D01*
X90593603Y-88114043D01*
X90534812Y-88358927D01*
X90515052Y-88610000D01*
X90534812Y-88861072D01*
X90593603Y-89105956D01*
X90689980Y-89338631D01*
X90821566Y-89553358D01*
X90821577Y-89553374D01*
X90822264Y-89554178D01*
X90822266Y-89554178D01*
X91594070Y-88782375D01*
X91596884Y-88795915D01*
X91666442Y-88930156D01*
X91769638Y-89040652D01*
X91898819Y-89119209D01*
X91950002Y-89133550D01*
X91331473Y-89752079D01*
X91308582Y-89770125D01*
X91176346Y-89851160D01*
X91176343Y-89851161D01*
X90984776Y-90014776D01*
X90821161Y-90206343D01*
X90821160Y-90206346D01*
X90689533Y-90421140D01*
X90593126Y-90653889D01*
X90534317Y-90898848D01*
X90514551Y-91150000D01*
X90534317Y-91401151D01*
X90593126Y-91646110D01*
X90689533Y-91878859D01*
X90821160Y-92093653D01*
X90821161Y-92093656D01*
X90857881Y-92136649D01*
X90984776Y-92285224D01*
X91176341Y-92448836D01*
X91308585Y-92529875D01*
X91331474Y-92547920D01*
X91948432Y-93164878D01*
X91831542Y-93215651D01*
X91714261Y-93311066D01*
X91627072Y-93434585D01*
X91596644Y-93520198D01*
X90822266Y-92745820D01*
X90821568Y-92746637D01*
X90689980Y-92961368D01*
X90593603Y-93194043D01*
X90534812Y-93438927D01*
X90515052Y-93690000D01*
X90534812Y-93941072D01*
X90593603Y-94185956D01*
X90689980Y-94418631D01*
X90821566Y-94633358D01*
X90821577Y-94633374D01*
X90822264Y-94634178D01*
X90822266Y-94634178D01*
X91594070Y-93862375D01*
X91596884Y-93875915D01*
X91666442Y-94010156D01*
X91769638Y-94120652D01*
X91898819Y-94199209D01*
X91950002Y-94213550D01*
X91331473Y-94832079D01*
X91308582Y-94850125D01*
X91176346Y-94931160D01*
X91176343Y-94931161D01*
X90984776Y-95094776D01*
X90821161Y-95286343D01*
X90821160Y-95286346D01*
X90689533Y-95501140D01*
X90593126Y-95733889D01*
X90534317Y-95978848D01*
X90514551Y-96230000D01*
X90534317Y-96481151D01*
X90593126Y-96726110D01*
X90689533Y-96958859D01*
X90821160Y-97173653D01*
X90821161Y-97173656D01*
X90821164Y-97173659D01*
X90984776Y-97365224D01*
X91176341Y-97528836D01*
X91308585Y-97609875D01*
X91331474Y-97627920D01*
X91948432Y-98244878D01*
X91831542Y-98295651D01*
X91714261Y-98391066D01*
X91627072Y-98514585D01*
X91596644Y-98600198D01*
X90822266Y-97825820D01*
X90821568Y-97826637D01*
X90689980Y-98041368D01*
X90593603Y-98274043D01*
X90534812Y-98518927D01*
X90515052Y-98770000D01*
X90534812Y-99021072D01*
X90593603Y-99265956D01*
X90689980Y-99498631D01*
X90821566Y-99713358D01*
X90821577Y-99713374D01*
X90822264Y-99714178D01*
X90822266Y-99714178D01*
X91594070Y-98942375D01*
X91596884Y-98955915D01*
X91666442Y-99090156D01*
X91769638Y-99200652D01*
X91898819Y-99279209D01*
X91950002Y-99293550D01*
X91331473Y-99912079D01*
X91308582Y-99930125D01*
X91176346Y-100011160D01*
X91176343Y-100011161D01*
X90984776Y-100174776D01*
X90821161Y-100366343D01*
X90821160Y-100366346D01*
X90689533Y-100581140D01*
X90593126Y-100813889D01*
X90534317Y-101058848D01*
X90514551Y-101310000D01*
X82200500Y-101310000D01*
X82200500Y-76270000D01*
X102804592Y-76270000D01*
X102824201Y-76556680D01*
X102824201Y-76556684D01*
X102824202Y-76556686D01*
X102839319Y-76629432D01*
X102882666Y-76838034D01*
X102882667Y-76838037D01*
X102978894Y-77108793D01*
X102978893Y-77108793D01*
X103111098Y-77363935D01*
X103276812Y-77598700D01*
X103327813Y-77653308D01*
X103472947Y-77808708D01*
X103695853Y-77990055D01*
X103896926Y-78112331D01*
X103941382Y-78139365D01*
X104095938Y-78206497D01*
X104204942Y-78253844D01*
X104481642Y-78331371D01*
X104719694Y-78364091D01*
X104766321Y-78370500D01*
X104766322Y-78370500D01*
X105053679Y-78370500D01*
X105100306Y-78364091D01*
X105338358Y-78331371D01*
X105615058Y-78253844D01*
X105728015Y-78204779D01*
X105878617Y-78139365D01*
X105878620Y-78139363D01*
X105878625Y-78139361D01*
X106124147Y-77990055D01*
X106212875Y-77917870D01*
X118049500Y-77917870D01*
X118049501Y-77917876D01*
X118055908Y-77977483D01*
X118106202Y-78112328D01*
X118106206Y-78112335D01*
X118192452Y-78227544D01*
X118192455Y-78227547D01*
X118307664Y-78313793D01*
X118307671Y-78313797D01*
X118442517Y-78364091D01*
X118442516Y-78364091D01*
X118449444Y-78364835D01*
X118502127Y-78370500D01*
X121797872Y-78370499D01*
X121857483Y-78364091D01*
X121992331Y-78313796D01*
X122107546Y-78227546D01*
X122193796Y-78112331D01*
X122244091Y-77977483D01*
X122250500Y-77917873D01*
X122250500Y-77760001D01*
X134054532Y-77760001D01*
X134074364Y-77986686D01*
X134074366Y-77986697D01*
X134133258Y-78206488D01*
X134133261Y-78206497D01*
X134229431Y-78412732D01*
X134229432Y-78412734D01*
X134359954Y-78599141D01*
X134520858Y-78760045D01*
X134520861Y-78760047D01*
X134707266Y-78890568D01*
X134913504Y-78986739D01*
X135133308Y-79045635D01*
X135295230Y-79059801D01*
X135359998Y-79065468D01*
X135360000Y-79065468D01*
X135360002Y-79065468D01*
X135416673Y-79060509D01*
X135586692Y-79045635D01*
X135806496Y-78986739D01*
X136012734Y-78890568D01*
X136199139Y-78760047D01*
X136360047Y-78599139D01*
X136490568Y-78412734D01*
X136586739Y-78206496D01*
X136645635Y-77986692D01*
X136654969Y-77880001D01*
X143964532Y-77880001D01*
X143984364Y-78106686D01*
X143984366Y-78106697D01*
X144043258Y-78326488D01*
X144043261Y-78326497D01*
X144139431Y-78532732D01*
X144139432Y-78532734D01*
X144269954Y-78719141D01*
X144430858Y-78880045D01*
X144430861Y-78880047D01*
X144617266Y-79010568D01*
X144823504Y-79106739D01*
X145043308Y-79165635D01*
X145205230Y-79179801D01*
X145269998Y-79185468D01*
X145270000Y-79185468D01*
X145270002Y-79185468D01*
X145326673Y-79180509D01*
X145496692Y-79165635D01*
X145716496Y-79106739D01*
X145922734Y-79010568D01*
X146109139Y-78880047D01*
X146270047Y-78719139D01*
X146400568Y-78532734D01*
X146496739Y-78326496D01*
X146555635Y-78106692D01*
X146575468Y-77880001D01*
X151584532Y-77880001D01*
X151604364Y-78106686D01*
X151604366Y-78106697D01*
X151663258Y-78326488D01*
X151663261Y-78326497D01*
X151759431Y-78532732D01*
X151759432Y-78532734D01*
X151889954Y-78719141D01*
X152050858Y-78880045D01*
X152050861Y-78880047D01*
X152237266Y-79010568D01*
X152443504Y-79106739D01*
X152663308Y-79165635D01*
X152825230Y-79179801D01*
X152889998Y-79185468D01*
X152890000Y-79185468D01*
X152890002Y-79185468D01*
X152946673Y-79180509D01*
X153116692Y-79165635D01*
X153336496Y-79106739D01*
X153542734Y-79010568D01*
X153729139Y-78880047D01*
X153890047Y-78719139D01*
X154020568Y-78532734D01*
X154116739Y-78326496D01*
X154175635Y-78106692D01*
X154195468Y-77880000D01*
X154175635Y-77653308D01*
X154116739Y-77433504D01*
X154020568Y-77227266D01*
X153890047Y-77040861D01*
X153890045Y-77040858D01*
X153729141Y-76879954D01*
X153542734Y-76749432D01*
X153542732Y-76749431D01*
X153336497Y-76653261D01*
X153336488Y-76653258D01*
X153116697Y-76594366D01*
X153116693Y-76594365D01*
X153116692Y-76594365D01*
X153116691Y-76594364D01*
X153116686Y-76594364D01*
X152890002Y-76574532D01*
X152889998Y-76574532D01*
X152663313Y-76594364D01*
X152663302Y-76594366D01*
X152443511Y-76653258D01*
X152443502Y-76653261D01*
X152237267Y-76749431D01*
X152237265Y-76749432D01*
X152050858Y-76879954D01*
X151889954Y-77040858D01*
X151759432Y-77227265D01*
X151759431Y-77227267D01*
X151663261Y-77433502D01*
X151663258Y-77433511D01*
X151604366Y-77653302D01*
X151604364Y-77653313D01*
X151584532Y-77879998D01*
X151584532Y-77880001D01*
X146575468Y-77880001D01*
X146575468Y-77880000D01*
X146555635Y-77653308D01*
X146496739Y-77433504D01*
X146400568Y-77227266D01*
X146270047Y-77040861D01*
X146270045Y-77040858D01*
X146109141Y-76879954D01*
X145922734Y-76749432D01*
X145922732Y-76749431D01*
X145716497Y-76653261D01*
X145716488Y-76653258D01*
X145496697Y-76594366D01*
X145496693Y-76594365D01*
X145496692Y-76594365D01*
X145496691Y-76594364D01*
X145496686Y-76594364D01*
X145270002Y-76574532D01*
X145269998Y-76574532D01*
X145043313Y-76594364D01*
X145043302Y-76594366D01*
X144823511Y-76653258D01*
X144823502Y-76653261D01*
X144617267Y-76749431D01*
X144617265Y-76749432D01*
X144430858Y-76879954D01*
X144269954Y-77040858D01*
X144139432Y-77227265D01*
X144139431Y-77227267D01*
X144043261Y-77433502D01*
X144043258Y-77433511D01*
X143984366Y-77653302D01*
X143984364Y-77653313D01*
X143964532Y-77879998D01*
X143964532Y-77880001D01*
X136654969Y-77880001D01*
X136665468Y-77760000D01*
X136645635Y-77533308D01*
X136586739Y-77313504D01*
X136490568Y-77107266D01*
X136360047Y-76920861D01*
X136360045Y-76920858D01*
X136199141Y-76759954D01*
X136012734Y-76629432D01*
X136012732Y-76629431D01*
X135806497Y-76533261D01*
X135806488Y-76533258D01*
X135586697Y-76474366D01*
X135586693Y-76474365D01*
X135586692Y-76474365D01*
X135586691Y-76474364D01*
X135586686Y-76474364D01*
X135360002Y-76454532D01*
X135359998Y-76454532D01*
X135133313Y-76474364D01*
X135133302Y-76474366D01*
X134913511Y-76533258D01*
X134913502Y-76533261D01*
X134707267Y-76629431D01*
X134707265Y-76629432D01*
X134520858Y-76759954D01*
X134359954Y-76920858D01*
X134229432Y-77107265D01*
X134229431Y-77107267D01*
X134133261Y-77313502D01*
X134133258Y-77313511D01*
X134074366Y-77533302D01*
X134074364Y-77533313D01*
X134054532Y-77759998D01*
X134054532Y-77760001D01*
X122250500Y-77760001D01*
X122250499Y-74622128D01*
X122244091Y-74562517D01*
X122193796Y-74427669D01*
X122193795Y-74427668D01*
X122193793Y-74427664D01*
X122107547Y-74312455D01*
X122107544Y-74312452D01*
X121992335Y-74226206D01*
X121992328Y-74226202D01*
X121857482Y-74175908D01*
X121857483Y-74175908D01*
X121797883Y-74169501D01*
X121797881Y-74169500D01*
X121797873Y-74169500D01*
X121797864Y-74169500D01*
X118502129Y-74169500D01*
X118502123Y-74169501D01*
X118442516Y-74175908D01*
X118307671Y-74226202D01*
X118307664Y-74226206D01*
X118192455Y-74312452D01*
X118192452Y-74312455D01*
X118106206Y-74427664D01*
X118106202Y-74427671D01*
X118055908Y-74562517D01*
X118049501Y-74622116D01*
X118049501Y-74622123D01*
X118049500Y-74622135D01*
X118049500Y-77917870D01*
X106212875Y-77917870D01*
X106347053Y-77808708D01*
X106543189Y-77598698D01*
X106708901Y-77363936D01*
X106841104Y-77108797D01*
X106937334Y-76838032D01*
X106995798Y-76556686D01*
X107015408Y-76270000D01*
X106995798Y-75983314D01*
X106937334Y-75701968D01*
X106841105Y-75431206D01*
X106841106Y-75431206D01*
X106708901Y-75176064D01*
X106543187Y-74941299D01*
X106464554Y-74857105D01*
X106347053Y-74731292D01*
X106124147Y-74549945D01*
X106124146Y-74549944D01*
X105878617Y-74400634D01*
X105615063Y-74286158D01*
X105615061Y-74286157D01*
X105615058Y-74286156D01*
X105485578Y-74249877D01*
X105338364Y-74208630D01*
X105338359Y-74208629D01*
X105338358Y-74208629D01*
X105196018Y-74189064D01*
X105053679Y-74169500D01*
X105053678Y-74169500D01*
X104766322Y-74169500D01*
X104766321Y-74169500D01*
X104481642Y-74208629D01*
X104481635Y-74208630D01*
X104273861Y-74266845D01*
X104204942Y-74286156D01*
X104204939Y-74286156D01*
X104204936Y-74286158D01*
X104204935Y-74286158D01*
X103941382Y-74400634D01*
X103695853Y-74549944D01*
X103472950Y-74731289D01*
X103276812Y-74941299D01*
X103111098Y-75176064D01*
X102978894Y-75431206D01*
X102882667Y-75701962D01*
X102882666Y-75701965D01*
X102824201Y-75983319D01*
X102804592Y-76270000D01*
X82200500Y-76270000D01*
X82200500Y-71462903D01*
X86375793Y-71462903D01*
X86385672Y-71770970D01*
X86385672Y-71770975D01*
X86385673Y-71770978D01*
X86434867Y-72075261D01*
X86479137Y-72224419D01*
X86522571Y-72370763D01*
X86647333Y-72652601D01*
X86647337Y-72652609D01*
X86807123Y-72916193D01*
X86807127Y-72916198D01*
X86807133Y-72916207D01*
X86999297Y-73157174D01*
X86999299Y-73157176D01*
X86999303Y-73157180D01*
X86999304Y-73157181D01*
X87220724Y-73371614D01*
X87387862Y-73496352D01*
X87467741Y-73555968D01*
X87467743Y-73555969D01*
X87467747Y-73555972D01*
X87736318Y-73707228D01*
X87877057Y-73764207D01*
X88022018Y-73822897D01*
X88022023Y-73822898D01*
X88022025Y-73822899D01*
X88320179Y-73901084D01*
X88625883Y-73940500D01*
X88625890Y-73940500D01*
X88856980Y-73940500D01*
X88955814Y-73934154D01*
X89087601Y-73925693D01*
X89390151Y-73866772D01*
X89682683Y-73769644D01*
X89682689Y-73769640D01*
X89682693Y-73769640D01*
X89873571Y-73677717D01*
X89960393Y-73635907D01*
X90218720Y-73467754D01*
X90453424Y-73267948D01*
X90660650Y-73039769D01*
X90836996Y-72786963D01*
X90979567Y-72513683D01*
X91086020Y-72224415D01*
X91154609Y-71923908D01*
X91184206Y-71617098D01*
X91179261Y-71462903D01*
X156815793Y-71462903D01*
X156825672Y-71770970D01*
X156825672Y-71770975D01*
X156825673Y-71770978D01*
X156874867Y-72075261D01*
X156919137Y-72224419D01*
X156962571Y-72370763D01*
X157087333Y-72652601D01*
X157087337Y-72652609D01*
X157247123Y-72916193D01*
X157247127Y-72916198D01*
X157247133Y-72916207D01*
X157439297Y-73157174D01*
X157439299Y-73157176D01*
X157439303Y-73157180D01*
X157439304Y-73157181D01*
X157660724Y-73371614D01*
X157827862Y-73496352D01*
X157907741Y-73555968D01*
X157907743Y-73555969D01*
X157907747Y-73555972D01*
X158176318Y-73707228D01*
X158317057Y-73764207D01*
X158462018Y-73822897D01*
X158462023Y-73822898D01*
X158462025Y-73822899D01*
X158760179Y-73901084D01*
X159065883Y-73940500D01*
X159065890Y-73940500D01*
X159296980Y-73940500D01*
X159395814Y-73934154D01*
X159527601Y-73925693D01*
X159830151Y-73866772D01*
X160122683Y-73769644D01*
X160122689Y-73769640D01*
X160122693Y-73769640D01*
X160313571Y-73677717D01*
X160400393Y-73635907D01*
X160658720Y-73467754D01*
X160893424Y-73267948D01*
X161100650Y-73039769D01*
X161276996Y-72786963D01*
X161419567Y-72513683D01*
X161526020Y-72224415D01*
X161594609Y-71923908D01*
X161624206Y-71617098D01*
X161614327Y-71309022D01*
X161565133Y-71004739D01*
X161477431Y-70709244D01*
X161477429Y-70709239D01*
X161477428Y-70709236D01*
X161352666Y-70427398D01*
X161352663Y-70427391D01*
X161192877Y-70163807D01*
X161192870Y-70163799D01*
X161192866Y-70163792D01*
X161000702Y-69922825D01*
X161000700Y-69922823D01*
X160779279Y-69708389D01*
X160779276Y-69708386D01*
X160650450Y-69612241D01*
X160532258Y-69524031D01*
X160532253Y-69524028D01*
X160263682Y-69372772D01*
X160226383Y-69357671D01*
X159977981Y-69257102D01*
X159810660Y-69213226D01*
X159679821Y-69178916D01*
X159374117Y-69139500D01*
X159143026Y-69139500D01*
X159143020Y-69139500D01*
X158912406Y-69154306D01*
X158912389Y-69154308D01*
X158609854Y-69213226D01*
X158609849Y-69213228D01*
X158317310Y-69310358D01*
X158317306Y-69310359D01*
X158039613Y-69444089D01*
X158039605Y-69444094D01*
X157781286Y-69612241D01*
X157781276Y-69612248D01*
X157546581Y-69812046D01*
X157546571Y-69812056D01*
X157339354Y-70040225D01*
X157339350Y-70040229D01*
X157163005Y-70293033D01*
X157163003Y-70293037D01*
X157020432Y-70566319D01*
X157020429Y-70566326D01*
X156913981Y-70855580D01*
X156913979Y-70855590D01*
X156845391Y-71156089D01*
X156815794Y-71462902D01*
X156815793Y-71462903D01*
X91179261Y-71462903D01*
X91174327Y-71309022D01*
X91125133Y-71004739D01*
X91037431Y-70709244D01*
X91037429Y-70709239D01*
X91037428Y-70709236D01*
X90912666Y-70427398D01*
X90912663Y-70427391D01*
X90752877Y-70163807D01*
X90752870Y-70163799D01*
X90752866Y-70163792D01*
X90560702Y-69922825D01*
X90560700Y-69922823D01*
X90339279Y-69708389D01*
X90339276Y-69708386D01*
X90210450Y-69612241D01*
X90092258Y-69524031D01*
X90092253Y-69524028D01*
X89823682Y-69372772D01*
X89786383Y-69357671D01*
X89537981Y-69257102D01*
X89370660Y-69213226D01*
X89239821Y-69178916D01*
X88934117Y-69139500D01*
X88703026Y-69139500D01*
X88703020Y-69139500D01*
X88472406Y-69154306D01*
X88472389Y-69154308D01*
X88169854Y-69213226D01*
X88169849Y-69213228D01*
X87877310Y-69310358D01*
X87877306Y-69310359D01*
X87599613Y-69444089D01*
X87599605Y-69444094D01*
X87341286Y-69612241D01*
X87341276Y-69612248D01*
X87106581Y-69812046D01*
X87106571Y-69812056D01*
X86899354Y-70040225D01*
X86899350Y-70040229D01*
X86723005Y-70293033D01*
X86723003Y-70293037D01*
X86580432Y-70566319D01*
X86580429Y-70566326D01*
X86473981Y-70855580D01*
X86473979Y-70855590D01*
X86405391Y-71156089D01*
X86375794Y-71462902D01*
X86375793Y-71462903D01*
X82200500Y-71462903D01*
X82200500Y-66214500D01*
X82220185Y-66147461D01*
X82272989Y-66101706D01*
X82324500Y-66090500D01*
X164625500Y-66090500D01*
X164692539Y-66110185D01*
G37*
%TD.AperFunction*%
%TD*%
M02*
