%TF.GenerationSoftware,KiCad,Pcbnew,7.0.8*%
%TF.CreationDate,2025-03-29T18:24:55-04:00*%
%TF.ProjectId,v2315power,76323331-3570-46f7-9765-722e6b696361,rev?*%
%TF.SameCoordinates,Original*%
%TF.FileFunction,Copper,L1,Top*%
%TF.FilePolarity,Positive*%
%FSLAX46Y46*%
G04 Gerber Fmt 4.6, Leading zero omitted, Abs format (unit mm)*
G04 Created by KiCad (PCBNEW 7.0.8) date 2025-03-29 18:24:55*
%MOMM*%
%LPD*%
G01*
G04 APERTURE LIST*
%TA.AperFunction,ComponentPad*%
%ADD10R,2.200000X2.200000*%
%TD*%
%TA.AperFunction,ComponentPad*%
%ADD11C,2.200000*%
%TD*%
%TA.AperFunction,ComponentPad*%
%ADD12C,1.600000*%
%TD*%
%TA.AperFunction,ComponentPad*%
%ADD13O,1.600000X1.600000*%
%TD*%
%TA.AperFunction,ComponentPad*%
%ADD14C,3.000000*%
%TD*%
%TA.AperFunction,ComponentPad*%
%ADD15R,3.200000X3.200000*%
%TD*%
%TA.AperFunction,ComponentPad*%
%ADD16O,3.200000X3.200000*%
%TD*%
%TA.AperFunction,ComponentPad*%
%ADD17R,1.050000X1.500000*%
%TD*%
%TA.AperFunction,ComponentPad*%
%ADD18O,1.050000X1.500000*%
%TD*%
%TA.AperFunction,Conductor*%
%ADD19C,1.270000*%
%TD*%
%TA.AperFunction,Conductor*%
%ADD20C,0.250000*%
%TD*%
G04 APERTURE END LIST*
D10*
%TO.P,J1,1,Pin_1*%
%TO.N,Net-(D1-A)*%
X92120000Y-80990000D03*
D11*
%TO.P,J1,2,Pin_2*%
%TO.N,GNDREF*%
X92120000Y-83530000D03*
%TO.P,J1,3,Pin_3*%
%TO.N,Net-(J1-Pin_3)*%
X92120000Y-86070000D03*
%TO.P,J1,4,Pin_4*%
%TO.N,GNDREF*%
X92120000Y-88610000D03*
%TO.P,J1,5,Pin_5*%
%TO.N,Net-(J1-Pin_3)*%
X92120000Y-91150000D03*
%TO.P,J1,6,Pin_6*%
%TO.N,GNDREF*%
X92120000Y-93690000D03*
%TO.P,J1,7,Pin_7*%
%TO.N,Net-(D3-K)*%
X92120000Y-96230000D03*
%TO.P,J1,8,Pin_8*%
%TO.N,GNDREF*%
X92120000Y-98770000D03*
%TO.P,J1,9,Pin_9*%
%TO.N,Net-(J1-Pin_3)*%
X92120000Y-101310000D03*
%TO.P,J1,10,Pin_10*%
%TO.N,Net-(D2-A)*%
X92120000Y-103850000D03*
%TD*%
D12*
%TO.P,R1,1*%
%TO.N,Net-(D1-A)*%
X135360000Y-77760000D03*
D13*
%TO.P,R1,2*%
%TO.N,GNDREF*%
X135360000Y-90460000D03*
%TD*%
D14*
%TO.P,J2,1,Pin_1*%
%TO.N,Net-(J2-Pin_1)*%
X142620000Y-106700000D03*
X145620000Y-106700000D03*
%TD*%
D15*
%TO.P,D2,1,K*%
%TO.N,Net-(D1-K)*%
X119910000Y-91720000D03*
D16*
%TO.P,D2,2,A*%
%TO.N,Net-(D2-A)*%
X104670000Y-91720000D03*
%TD*%
D17*
%TO.P,Q1,1,E*%
%TO.N,GNDREF*%
X148850000Y-93330000D03*
D18*
%TO.P,Q1,2,B*%
%TO.N,Net-(Q1-B)*%
X150120000Y-93330000D03*
%TO.P,Q1,3,C*%
%TO.N,Net-(J2-Pin_1)*%
X151390000Y-93330000D03*
%TD*%
D12*
%TO.P,R2,1*%
%TO.N,Net-(D1-A)*%
X145270000Y-77880000D03*
D13*
%TO.P,R2,2*%
%TO.N,Net-(Q1-B)*%
X152890000Y-77880000D03*
%TD*%
D15*
%TO.P,D1,1,K*%
%TO.N,Net-(D1-K)*%
X120150000Y-76270000D03*
D16*
%TO.P,D1,2,A*%
%TO.N,Net-(D1-A)*%
X104910000Y-76270000D03*
%TD*%
D15*
%TO.P,D3,1,K*%
%TO.N,Net-(D3-K)*%
X104450000Y-108660000D03*
D16*
%TO.P,D3,2,A*%
%TO.N,Net-(D1-K)*%
X119690000Y-108660000D03*
%TD*%
D19*
%TO.N,Net-(J1-Pin_3)*%
X88480000Y-91150000D02*
X92120000Y-91150000D01*
X86180000Y-88850000D02*
X88480000Y-91150000D01*
X86180000Y-88090000D02*
X86180000Y-99550000D01*
D20*
%TO.N,Net-(D1-K)*%
X119910000Y-108440000D02*
X119690000Y-108660000D01*
D19*
X119910000Y-91720000D02*
X119910000Y-108440000D01*
X120150000Y-76270000D02*
X120150000Y-91480000D01*
D20*
X120150000Y-91480000D02*
X119910000Y-91720000D01*
D19*
%TO.N,Net-(D1-A)*%
X92120000Y-80990000D02*
X100190000Y-80990000D01*
D20*
X135480000Y-77880000D02*
X135360000Y-77760000D01*
X132820000Y-77760000D02*
X135360000Y-77760000D01*
X105890000Y-70650000D02*
X125710000Y-70650000D01*
D19*
X100190000Y-80990000D02*
X104910000Y-76270000D01*
D20*
X125710000Y-70650000D02*
X132820000Y-77760000D01*
X105840000Y-70650000D02*
X105890000Y-70650000D01*
X145270000Y-77880000D02*
X135480000Y-77880000D01*
X104710000Y-71780000D02*
X105840000Y-70650000D01*
X104910000Y-76270000D02*
X104910000Y-71630000D01*
X104910000Y-71630000D02*
X105890000Y-70650000D01*
D19*
%TO.N,Net-(D3-K)*%
X98920000Y-96230000D02*
X92120000Y-96230000D01*
X104450000Y-101760000D02*
X98920000Y-96230000D01*
X104450000Y-108660000D02*
X104450000Y-101760000D01*
%TO.N,Net-(D2-A)*%
X104670000Y-91720000D02*
X112140000Y-99190000D01*
X101490000Y-113220000D02*
X92120000Y-103850000D01*
X112140000Y-99190000D02*
X112140000Y-111400000D01*
X110320000Y-113220000D02*
X101490000Y-113220000D01*
X112140000Y-111400000D02*
X110320000Y-113220000D01*
D20*
%TO.N,Net-(J2-Pin_1)*%
X151390000Y-93330000D02*
X151390000Y-100930000D01*
X151390000Y-100930000D02*
X145620000Y-106700000D01*
X142620000Y-106700000D02*
X145620000Y-106700000D01*
%TO.N,Net-(Q1-B)*%
X150120000Y-80650000D02*
X152890000Y-77880000D01*
X150120000Y-93330000D02*
X150120000Y-80650000D01*
D19*
%TO.N,Net-(J1-Pin_3)*%
X86180000Y-99550000D02*
X87940000Y-101310000D01*
X92120000Y-86070000D02*
X88200000Y-86070000D01*
D20*
X92690000Y-91720000D02*
X92120000Y-91150000D01*
D19*
X88200000Y-86070000D02*
X86180000Y-88090000D01*
X87940000Y-101310000D02*
X92120000Y-101310000D01*
%TD*%
M02*
