%TF.GenerationSoftware,KiCad,Pcbnew,7.0.8*%
%TF.CreationDate,2025-03-15T15:27:24-04:00*%
%TF.ProjectId,dress panel,64726573-7320-4706-916e-656c2e6b6963,rev?*%
%TF.SameCoordinates,Original*%
%TF.FileFunction,Copper,L2,Bot*%
%TF.FilePolarity,Positive*%
%FSLAX46Y46*%
G04 Gerber Fmt 4.6, Leading zero omitted, Abs format (unit mm)*
G04 Created by KiCad (PCBNEW 7.0.8) date 2025-03-15 15:27:24*
%MOMM*%
%LPD*%
G01*
G04 APERTURE LIST*
%TA.AperFunction,NonConductor*%
%ADD10C,0.000000*%
%TD*%
G04 APERTURE END LIST*
D10*
%TA.AperFunction,NonConductor*%
G36*
X128636780Y80378300D02*
G01*
X128669800Y80355950D01*
X136235950Y72789800D01*
X136258300Y72756780D01*
X136265920Y72717660D01*
X136265920Y43697650D01*
X136257790Y43658030D01*
X136234910Y43624500D01*
X136201400Y43602630D01*
X136161270Y43596050D01*
X136122160Y43605200D01*
X136089620Y43628560D01*
X136069320Y43650920D01*
X135986010Y43715430D01*
X135893020Y43765720D01*
X135792970Y43800270D01*
X135688830Y43817540D01*
X135583170Y43817540D01*
X135479000Y43800270D01*
X135378950Y43765720D01*
X135285990Y43715430D01*
X135202680Y43650920D01*
X135131020Y43572680D01*
X135073140Y43484290D01*
X135030970Y43387770D01*
X135005060Y43285130D01*
X134996430Y43180000D01*
X135005060Y43074840D01*
X135030970Y42972200D01*
X135073140Y42875710D01*
X135131020Y42787320D01*
X135202680Y42709060D01*
X135285990Y42644570D01*
X135378950Y42594280D01*
X135479000Y42559730D01*
X135583170Y42542460D01*
X135688830Y42542460D01*
X135792970Y42559730D01*
X135893020Y42594280D01*
X135986010Y42644570D01*
X136069320Y42709060D01*
X136089620Y42731440D01*
X136122160Y42754800D01*
X136161270Y42763950D01*
X136201400Y42757340D01*
X136234910Y42735500D01*
X136257790Y42701970D01*
X136265920Y42662350D01*
X136265920Y11102340D01*
X136258300Y11063220D01*
X136235950Y11030200D01*
X128669800Y3464050D01*
X128636780Y3441700D01*
X128597660Y3434080D01*
X11102340Y3434080D01*
X11063220Y3441700D01*
X11030200Y3464050D01*
X3464050Y11030200D01*
X3441700Y11063220D01*
X3434080Y11102340D01*
X3434080Y42662350D01*
X3442210Y42701970D01*
X3465070Y42735500D01*
X3498600Y42757340D01*
X3538730Y42763950D01*
X3577840Y42754800D01*
X3610360Y42731440D01*
X3630680Y42709060D01*
X3713990Y42644570D01*
X3806950Y42594280D01*
X3907030Y42559730D01*
X4011170Y42542460D01*
X4116810Y42542460D01*
X4220970Y42559730D01*
X4321050Y42594280D01*
X4414010Y42644570D01*
X4497320Y42709060D01*
X4568950Y42787320D01*
X4626860Y42875710D01*
X4669030Y42972200D01*
X4694940Y43074840D01*
X4703570Y43180000D01*
X4694940Y43285130D01*
X4669030Y43387770D01*
X4626860Y43484290D01*
X4568950Y43572680D01*
X4497320Y43650920D01*
X4414010Y43715430D01*
X4321050Y43765720D01*
X4220970Y43800270D01*
X4116810Y43817540D01*
X4011170Y43817540D01*
X3907030Y43800270D01*
X3806950Y43765720D01*
X3713990Y43715430D01*
X3630680Y43650920D01*
X3610360Y43628560D01*
X3577840Y43605200D01*
X3538730Y43596050D01*
X3498600Y43602630D01*
X3465070Y43624500D01*
X3442210Y43658030D01*
X3434080Y43697650D01*
X3434080Y72717660D01*
X3441700Y72756780D01*
X3464050Y72789800D01*
X11030200Y80355950D01*
X11063220Y80378300D01*
X11102340Y80385920D01*
X128597660Y80385920D01*
X128636780Y80378300D01*
G37*
%TD.AperFunction*%
%TA.AperFunction,NonConductor*%
G36*
X72469760Y48895000D02*
G01*
X72491090Y48891950D01*
X72570850Y48873130D01*
X72591680Y48866550D01*
X72667370Y48835560D01*
X72756270Y48782220D01*
X72833990Y48715680D01*
X72899500Y48643030D01*
X72912220Y48626270D01*
X72965560Y48537370D01*
X72996550Y48461680D01*
X73003160Y48440850D01*
X73021950Y48361090D01*
X73025000Y48339760D01*
X73030080Y48256950D01*
X73030080Y40643050D01*
X73025000Y40560240D01*
X73021950Y40538910D01*
X73003160Y40459150D01*
X72996550Y40438320D01*
X72965560Y40362610D01*
X72912220Y40273730D01*
X72845680Y40196010D01*
X72773030Y40130480D01*
X72756270Y40117780D01*
X72667370Y40064440D01*
X72591680Y40033450D01*
X72570850Y40026840D01*
X72491090Y40008050D01*
X72469760Y40005000D01*
X72386950Y39999920D01*
X64756280Y39999920D01*
X64649600Y40012110D01*
X64550040Y40040050D01*
X64458600Y40083230D01*
X64384430Y40132510D01*
X64334640Y40176200D01*
X64261490Y40255950D01*
X64225420Y40307770D01*
X64206120Y40340790D01*
X64177670Y40399720D01*
X64164460Y40435280D01*
X64146180Y40498270D01*
X64138560Y40535860D01*
X64131440Y40600880D01*
X64129920Y40641520D01*
X64129920Y48256950D01*
X64135000Y48339760D01*
X64138050Y48361090D01*
X64156840Y48440850D01*
X64163450Y48461680D01*
X64194440Y48537370D01*
X64247780Y48626270D01*
X64314320Y48703990D01*
X64386970Y48769520D01*
X64403730Y48782220D01*
X64492630Y48835560D01*
X64568320Y48866550D01*
X64589150Y48873130D01*
X64668910Y48891950D01*
X64690240Y48895000D01*
X64773050Y48900080D01*
X72386950Y48900080D01*
X72469760Y48895000D01*
G37*
%TD.AperFunction*%
%TA.AperFunction,NonConductor*%
G36*
X72469760Y31115000D02*
G01*
X72491090Y31111950D01*
X72570850Y31093160D01*
X72591680Y31086550D01*
X72667370Y31055560D01*
X72756270Y31002220D01*
X72833990Y30935680D01*
X72899500Y30863030D01*
X72912220Y30846270D01*
X72965560Y30757370D01*
X72996550Y30681680D01*
X73003160Y30660850D01*
X73021950Y30581090D01*
X73025000Y30559760D01*
X73030080Y30476950D01*
X73030080Y22863050D01*
X73025000Y22780240D01*
X73021950Y22758910D01*
X73003160Y22679150D01*
X72996550Y22658320D01*
X72965560Y22582630D01*
X72912220Y22493730D01*
X72845680Y22416010D01*
X72773030Y22350480D01*
X72756270Y22337780D01*
X72667370Y22284440D01*
X72591680Y22253450D01*
X72570850Y22246840D01*
X72491090Y22228050D01*
X72469760Y22225000D01*
X72386950Y22219920D01*
X64756280Y22219920D01*
X64649600Y22232110D01*
X64550040Y22260050D01*
X64458600Y22303230D01*
X64384430Y22352510D01*
X64334640Y22396200D01*
X64261490Y22475950D01*
X64225420Y22527740D01*
X64206120Y22560790D01*
X64177670Y22619720D01*
X64164460Y22655280D01*
X64146180Y22718240D01*
X64138560Y22755860D01*
X64131440Y22820880D01*
X64129920Y22861520D01*
X64129920Y30476950D01*
X64135000Y30559760D01*
X64138050Y30581090D01*
X64156840Y30660850D01*
X64163450Y30681680D01*
X64194440Y30757370D01*
X64247780Y30846270D01*
X64314320Y30923990D01*
X64386970Y30989520D01*
X64403730Y31002220D01*
X64492630Y31055560D01*
X64568320Y31086550D01*
X64589150Y31093160D01*
X64668910Y31111950D01*
X64690240Y31115000D01*
X64773050Y31120080D01*
X72386950Y31120080D01*
X72469760Y31115000D01*
G37*
%TD.AperFunction*%
%TA.AperFunction,NonConductor*%
G36*
X56721760Y47498000D02*
G01*
X56743090Y47494950D01*
X56822850Y47476130D01*
X56843680Y47469550D01*
X56919370Y47438560D01*
X57008270Y47385220D01*
X57085990Y47318680D01*
X57151520Y47246030D01*
X57164220Y47229270D01*
X57217560Y47140370D01*
X57248550Y47064680D01*
X57255160Y47043850D01*
X57273950Y46964090D01*
X57277000Y46942760D01*
X57282080Y46859950D01*
X57282080Y16640050D01*
X57277000Y16557240D01*
X57273950Y16535910D01*
X57255160Y16456150D01*
X57248550Y16435320D01*
X57217560Y16359630D01*
X57164220Y16270730D01*
X57097680Y16193010D01*
X57025030Y16127480D01*
X57008270Y16114780D01*
X56919370Y16061440D01*
X56843680Y16030450D01*
X56822850Y16023840D01*
X56743090Y16005050D01*
X56721760Y16002000D01*
X56638950Y15996920D01*
X45452280Y15996920D01*
X45345600Y16009110D01*
X45246010Y16037050D01*
X45154600Y16080230D01*
X45080430Y16129510D01*
X45030640Y16173200D01*
X44957490Y16252950D01*
X44921420Y16304740D01*
X44902120Y16337790D01*
X44873670Y16396720D01*
X44860460Y16432280D01*
X44842180Y16495240D01*
X44834560Y16532860D01*
X44827440Y16597880D01*
X44825920Y16638520D01*
X44825920Y46859950D01*
X44831000Y46942760D01*
X44834050Y46964090D01*
X44852840Y47043850D01*
X44859450Y47064680D01*
X44890440Y47140370D01*
X44943780Y47229270D01*
X45010320Y47306990D01*
X45082970Y47372520D01*
X45099730Y47385220D01*
X45188610Y47438560D01*
X45264320Y47469550D01*
X45285150Y47476130D01*
X45364910Y47494950D01*
X45386240Y47498000D01*
X45469050Y47503080D01*
X56638950Y47503080D01*
X56721760Y47498000D01*
G37*
%TD.AperFunction*%
%TA.AperFunction,NonConductor*%
G36*
X33734760Y74295000D02*
G01*
X33756090Y74291950D01*
X33835850Y74273160D01*
X33856680Y74266550D01*
X33932370Y74235560D01*
X34021270Y74182220D01*
X34098990Y74115680D01*
X34164520Y74043030D01*
X34177220Y74026270D01*
X34230560Y73937370D01*
X34261550Y73861680D01*
X34268130Y73840850D01*
X34286950Y73761090D01*
X34290000Y73739760D01*
X34295080Y73656950D01*
X34295080Y63503050D01*
X34290000Y63420240D01*
X34286950Y63398910D01*
X34268130Y63319150D01*
X34261550Y63298320D01*
X34230560Y63222630D01*
X34177220Y63133730D01*
X34110680Y63056010D01*
X34038030Y62990480D01*
X34021270Y62977780D01*
X33932370Y62924440D01*
X33856680Y62893450D01*
X33835850Y62886840D01*
X33756090Y62868050D01*
X33734760Y62865000D01*
X33651950Y62859920D01*
X12051280Y62859920D01*
X11944600Y62872110D01*
X11845040Y62900050D01*
X11753600Y62943230D01*
X11679430Y62992510D01*
X11629640Y63036200D01*
X11556490Y63115950D01*
X11520420Y63167770D01*
X11501120Y63200790D01*
X11472670Y63259720D01*
X11459460Y63295280D01*
X11441150Y63358270D01*
X11433560Y63395860D01*
X11426440Y63460880D01*
X11424890Y63501520D01*
X11424890Y73656950D01*
X11430000Y73739760D01*
X11433050Y73761090D01*
X11451840Y73840850D01*
X11458450Y73861680D01*
X11489440Y73937370D01*
X11542780Y74026270D01*
X11609320Y74103990D01*
X11681970Y74169500D01*
X11698730Y74182220D01*
X11787630Y74235560D01*
X11863320Y74266550D01*
X11884130Y74273160D01*
X11963880Y74291950D01*
X11985240Y74295000D01*
X12068050Y74300080D01*
X33651950Y74300080D01*
X33734760Y74295000D01*
G37*
%TD.AperFunction*%
%TA.AperFunction,NonConductor*%
G36*
X92789760Y31115000D02*
G01*
X92811090Y31111950D01*
X92890850Y31093160D01*
X92911680Y31086550D01*
X92987370Y31055560D01*
X93076270Y31002220D01*
X93153990Y30935680D01*
X93219500Y30863030D01*
X93232220Y30846270D01*
X93285560Y30757370D01*
X93316550Y30681680D01*
X93323160Y30660850D01*
X93341950Y30581090D01*
X93345000Y30559760D01*
X93350080Y30476950D01*
X93350080Y22863050D01*
X93345000Y22780240D01*
X93341950Y22758910D01*
X93323160Y22679150D01*
X93316550Y22658320D01*
X93285560Y22582630D01*
X93232220Y22493730D01*
X93165680Y22416010D01*
X93093030Y22350480D01*
X93076270Y22337780D01*
X92987370Y22284440D01*
X92911680Y22253450D01*
X92890850Y22246840D01*
X92811090Y22228050D01*
X92789760Y22225000D01*
X92706950Y22219920D01*
X85094060Y22219920D01*
X84988880Y22228050D01*
X84909150Y22246840D01*
X84888320Y22253450D01*
X84812630Y22284440D01*
X84723730Y22337780D01*
X84646010Y22404320D01*
X84580480Y22476970D01*
X84567780Y22493730D01*
X84514440Y22582630D01*
X84483450Y22658320D01*
X84476840Y22679150D01*
X84458050Y22758910D01*
X84455000Y22780240D01*
X84449920Y22863050D01*
X84449920Y30476950D01*
X84455000Y30559760D01*
X84458050Y30581090D01*
X84476840Y30660850D01*
X84483450Y30681680D01*
X84514440Y30757370D01*
X84567780Y30846270D01*
X84634320Y30923990D01*
X84706970Y30989520D01*
X84723730Y31002220D01*
X84812630Y31055560D01*
X84888320Y31086550D01*
X84909150Y31093160D01*
X84988880Y31111950D01*
X85010240Y31115000D01*
X85093050Y31120080D01*
X92706950Y31120080D01*
X92789760Y31115000D01*
G37*
%TD.AperFunction*%
%TA.AperFunction,NonConductor*%
G36*
X82629760Y31115000D02*
G01*
X82651090Y31111950D01*
X82730850Y31093160D01*
X82751680Y31086550D01*
X82827370Y31055560D01*
X82916270Y31002220D01*
X82993990Y30935680D01*
X83059500Y30863030D01*
X83072220Y30846270D01*
X83125560Y30757370D01*
X83156550Y30681680D01*
X83163160Y30660850D01*
X83181950Y30581090D01*
X83185000Y30559760D01*
X83190080Y30476950D01*
X83190080Y22863050D01*
X83185000Y22780240D01*
X83181950Y22758910D01*
X83163160Y22679150D01*
X83156550Y22658320D01*
X83125560Y22582630D01*
X83072220Y22493730D01*
X83005680Y22416010D01*
X82933030Y22350480D01*
X82916270Y22337780D01*
X82827370Y22284440D01*
X82751680Y22253450D01*
X82730850Y22246840D01*
X82651090Y22228050D01*
X82629760Y22225000D01*
X82546950Y22219920D01*
X74916280Y22219920D01*
X74809600Y22232110D01*
X74710040Y22260050D01*
X74618600Y22303230D01*
X74544430Y22352510D01*
X74494640Y22396200D01*
X74421490Y22475950D01*
X74385420Y22527740D01*
X74366090Y22560790D01*
X74337670Y22619720D01*
X74324460Y22655280D01*
X74306180Y22718240D01*
X74298560Y22755860D01*
X74291440Y22820880D01*
X74289920Y22861520D01*
X74289920Y30476950D01*
X74295000Y30559760D01*
X74298050Y30581090D01*
X74316840Y30660850D01*
X74323450Y30681680D01*
X74354440Y30757370D01*
X74407780Y30846270D01*
X74474320Y30923990D01*
X74546970Y30989520D01*
X74563730Y31002220D01*
X74652630Y31055560D01*
X74728320Y31086550D01*
X74749150Y31093160D01*
X74828880Y31111950D01*
X74850240Y31115000D01*
X74933050Y31120080D01*
X82546950Y31120080D01*
X82629760Y31115000D01*
G37*
%TD.AperFunction*%
%TA.AperFunction,NonConductor*%
G36*
X40338760Y47498000D02*
G01*
X40360090Y47494950D01*
X40439850Y47476130D01*
X40460680Y47469550D01*
X40536370Y47438560D01*
X40625270Y47385220D01*
X40702990Y47318680D01*
X40768520Y47246030D01*
X40781220Y47229270D01*
X40834560Y47140370D01*
X40865550Y47064680D01*
X40872130Y47043850D01*
X40890950Y46964090D01*
X40894000Y46942760D01*
X40899080Y46859950D01*
X40899080Y16767050D01*
X40894000Y16684240D01*
X40890950Y16662910D01*
X40872130Y16583150D01*
X40865550Y16562320D01*
X40834560Y16486630D01*
X40781220Y16397730D01*
X40714680Y16320010D01*
X40642030Y16254480D01*
X40625270Y16241780D01*
X40536370Y16188440D01*
X40460680Y16157450D01*
X40439850Y16150840D01*
X40360090Y16132050D01*
X40338760Y16129000D01*
X40255950Y16123920D01*
X29086050Y16123920D01*
X29003240Y16129000D01*
X28981910Y16132050D01*
X28902150Y16150840D01*
X28881320Y16157450D01*
X28805630Y16188440D01*
X28716730Y16241780D01*
X28639010Y16308320D01*
X28573480Y16380970D01*
X28560780Y16397730D01*
X28507440Y16486630D01*
X28476450Y16562320D01*
X28469840Y16583150D01*
X28451050Y16662910D01*
X28448000Y16684240D01*
X28442920Y16767050D01*
X28442920Y46859950D01*
X28448000Y46942760D01*
X28451050Y46964090D01*
X28469840Y47043850D01*
X28476450Y47064680D01*
X28507440Y47140370D01*
X28560780Y47229270D01*
X28627320Y47306990D01*
X28699970Y47372520D01*
X28716730Y47385220D01*
X28805630Y47438560D01*
X28881320Y47469550D01*
X28902150Y47476130D01*
X28981910Y47494950D01*
X29003240Y47498000D01*
X29086050Y47503080D01*
X40255950Y47503080D01*
X40338760Y47498000D01*
G37*
%TD.AperFunction*%
%TA.AperFunction,NonConductor*%
G36*
X102949760Y48895000D02*
G01*
X102971090Y48891950D01*
X103050850Y48873130D01*
X103071680Y48866550D01*
X103147370Y48835560D01*
X103236270Y48782220D01*
X103313990Y48715680D01*
X103379500Y48643030D01*
X103392220Y48626270D01*
X103445560Y48537370D01*
X103476550Y48461680D01*
X103483160Y48440850D01*
X103501950Y48361090D01*
X103505000Y48339760D01*
X103510080Y48256950D01*
X103510080Y40643050D01*
X103505000Y40560240D01*
X103501950Y40538910D01*
X103483160Y40459150D01*
X103476550Y40438320D01*
X103445560Y40362610D01*
X103392220Y40273730D01*
X103325680Y40196010D01*
X103253030Y40130480D01*
X103236270Y40117780D01*
X103147370Y40064440D01*
X103071680Y40033450D01*
X103050850Y40026840D01*
X102971090Y40008050D01*
X102949760Y40005000D01*
X102866950Y39999920D01*
X95236280Y39999920D01*
X95129600Y40012110D01*
X95030040Y40040050D01*
X94938600Y40083230D01*
X94864430Y40132510D01*
X94814640Y40176200D01*
X94741490Y40255950D01*
X94705420Y40307770D01*
X94686090Y40340790D01*
X94657670Y40399720D01*
X94644460Y40435280D01*
X94626180Y40498270D01*
X94618560Y40535860D01*
X94611440Y40600880D01*
X94609920Y40641520D01*
X94609920Y48256950D01*
X94615000Y48339760D01*
X94618050Y48361090D01*
X94636840Y48440850D01*
X94643450Y48461680D01*
X94674440Y48537370D01*
X94727780Y48626270D01*
X94794320Y48703990D01*
X94866970Y48769520D01*
X94883730Y48782220D01*
X94972630Y48835560D01*
X95048320Y48866550D01*
X95069150Y48873130D01*
X95148880Y48891950D01*
X95170240Y48895000D01*
X95253050Y48900080D01*
X102866950Y48900080D01*
X102949760Y48895000D01*
G37*
%TD.AperFunction*%
%TA.AperFunction,NonConductor*%
G36*
X82629760Y48895000D02*
G01*
X82651090Y48891950D01*
X82730850Y48873130D01*
X82751680Y48866550D01*
X82827370Y48835560D01*
X82916270Y48782220D01*
X82993990Y48715680D01*
X83059500Y48643030D01*
X83072220Y48626270D01*
X83125560Y48537370D01*
X83156550Y48461680D01*
X83163160Y48440850D01*
X83181950Y48361090D01*
X83185000Y48339760D01*
X83190080Y48256950D01*
X83190080Y40643050D01*
X83185000Y40560240D01*
X83181950Y40538910D01*
X83163160Y40459150D01*
X83156550Y40438320D01*
X83125560Y40362610D01*
X83072220Y40273730D01*
X83005680Y40196010D01*
X82933030Y40130480D01*
X82916270Y40117780D01*
X82827370Y40064440D01*
X82751680Y40033450D01*
X82730850Y40026840D01*
X82651090Y40008050D01*
X82629760Y40005000D01*
X82546950Y39999920D01*
X74916280Y39999920D01*
X74809600Y40012110D01*
X74710040Y40040050D01*
X74618600Y40083230D01*
X74544430Y40132510D01*
X74494640Y40176200D01*
X74421490Y40255950D01*
X74385420Y40307770D01*
X74366090Y40340790D01*
X74337670Y40399720D01*
X74324460Y40435280D01*
X74306180Y40498270D01*
X74298560Y40535860D01*
X74291440Y40600880D01*
X74289920Y40641520D01*
X74289920Y48256950D01*
X74295000Y48339760D01*
X74298050Y48361090D01*
X74316840Y48440850D01*
X74323450Y48461680D01*
X74354440Y48537370D01*
X74407780Y48626270D01*
X74474320Y48703990D01*
X74546970Y48769520D01*
X74563730Y48782220D01*
X74652630Y48835560D01*
X74728320Y48866550D01*
X74749150Y48873130D01*
X74828880Y48891950D01*
X74850240Y48895000D01*
X74933050Y48900080D01*
X82546950Y48900080D01*
X82629760Y48895000D01*
G37*
%TD.AperFunction*%
%TA.AperFunction,NonConductor*%
G36*
X92789760Y48895000D02*
G01*
X92811090Y48891950D01*
X92890850Y48873130D01*
X92911680Y48866550D01*
X92987370Y48835560D01*
X93076270Y48782220D01*
X93153990Y48715680D01*
X93219500Y48643030D01*
X93232220Y48626270D01*
X93285560Y48537370D01*
X93316550Y48461680D01*
X93323160Y48440850D01*
X93341950Y48361090D01*
X93345000Y48339760D01*
X93350080Y48256950D01*
X93350080Y40643050D01*
X93345000Y40560240D01*
X93341950Y40538910D01*
X93323160Y40459150D01*
X93316550Y40438320D01*
X93285560Y40362610D01*
X93232220Y40273730D01*
X93165680Y40196010D01*
X93093030Y40130480D01*
X93076270Y40117780D01*
X92987370Y40064440D01*
X92911680Y40033450D01*
X92890850Y40026840D01*
X92811090Y40008050D01*
X92789760Y40005000D01*
X92706950Y39999920D01*
X85094060Y39999920D01*
X85074250Y40000430D01*
X84969600Y40012110D01*
X84870040Y40040050D01*
X84778600Y40083230D01*
X84704430Y40132510D01*
X84654640Y40176200D01*
X84581490Y40255950D01*
X84545420Y40307770D01*
X84526090Y40340790D01*
X84497670Y40399720D01*
X84484460Y40435280D01*
X84466180Y40498270D01*
X84458560Y40535860D01*
X84451440Y40600880D01*
X84449920Y40641520D01*
X84449920Y48256950D01*
X84455000Y48339760D01*
X84458050Y48361090D01*
X84476840Y48440850D01*
X84483450Y48461680D01*
X84514440Y48537370D01*
X84567780Y48626270D01*
X84634320Y48703990D01*
X84706970Y48769520D01*
X84723730Y48782220D01*
X84812630Y48835560D01*
X84888320Y48866550D01*
X84909150Y48873130D01*
X84988880Y48891950D01*
X85010240Y48895000D01*
X85093050Y48900080D01*
X92706950Y48900080D01*
X92789760Y48895000D01*
G37*
%TD.AperFunction*%
%TA.AperFunction,NonConductor*%
G36*
X102949760Y31115000D02*
G01*
X102971090Y31111950D01*
X103050850Y31093160D01*
X103071680Y31086550D01*
X103147370Y31055560D01*
X103236270Y31002220D01*
X103313990Y30935680D01*
X103379500Y30863030D01*
X103392220Y30846270D01*
X103445560Y30757370D01*
X103476550Y30681680D01*
X103483160Y30660850D01*
X103501950Y30581090D01*
X103505000Y30559760D01*
X103510080Y30476950D01*
X103510080Y22863050D01*
X103505000Y22780240D01*
X103501950Y22758910D01*
X103483160Y22679150D01*
X103476550Y22658320D01*
X103445560Y22582630D01*
X103392220Y22493730D01*
X103325680Y22416010D01*
X103253030Y22350480D01*
X103236270Y22337780D01*
X103147370Y22284440D01*
X103071680Y22253450D01*
X103050850Y22246840D01*
X102971090Y22228050D01*
X102949760Y22225000D01*
X102866950Y22219920D01*
X95254060Y22219920D01*
X95148880Y22228050D01*
X95069150Y22246840D01*
X95048320Y22253450D01*
X94972630Y22284440D01*
X94883730Y22337780D01*
X94806010Y22404320D01*
X94740480Y22476970D01*
X94727780Y22493730D01*
X94674440Y22582630D01*
X94643450Y22658320D01*
X94636840Y22679150D01*
X94618050Y22758910D01*
X94615000Y22780240D01*
X94609920Y22863050D01*
X94609920Y30476950D01*
X94615000Y30559760D01*
X94618050Y30581090D01*
X94636840Y30660850D01*
X94643450Y30681680D01*
X94674440Y30757370D01*
X94727780Y30846270D01*
X94794320Y30923990D01*
X94866970Y30989520D01*
X94883730Y31002220D01*
X94972630Y31055560D01*
X95048320Y31086550D01*
X95069150Y31093160D01*
X95148880Y31111950D01*
X95170240Y31115000D01*
X95253050Y31120080D01*
X102866950Y31120080D01*
X102949760Y31115000D01*
G37*
%TD.AperFunction*%
%TA.AperFunction,NonConductor*%
G36*
X130381760Y50165000D02*
G01*
X130403090Y50161950D01*
X130482850Y50143130D01*
X130503680Y50136550D01*
X130579370Y50105560D01*
X130668270Y50052220D01*
X130745990Y49985680D01*
X130811520Y49913030D01*
X130824220Y49896270D01*
X130877560Y49807370D01*
X130908550Y49731680D01*
X130915160Y49710850D01*
X130933950Y49631090D01*
X130937000Y49609760D01*
X130942080Y49526950D01*
X130942080Y35182050D01*
X130937000Y35099240D01*
X130933950Y35077910D01*
X130915160Y34998150D01*
X130908550Y34977320D01*
X130877560Y34901610D01*
X130824220Y34812730D01*
X130757680Y34735010D01*
X130685030Y34669480D01*
X130668270Y34656780D01*
X130579370Y34603440D01*
X130503680Y34572450D01*
X130482850Y34565840D01*
X130403090Y34547050D01*
X130381760Y34544000D01*
X130298950Y34538920D01*
X105904280Y34538920D01*
X105797600Y34551110D01*
X105698040Y34579050D01*
X105606600Y34622230D01*
X105532430Y34671510D01*
X105482640Y34715200D01*
X105409490Y34794950D01*
X105373420Y34846770D01*
X105354090Y34879790D01*
X105325670Y34938720D01*
X105312460Y34974280D01*
X105294180Y35037270D01*
X105286560Y35074860D01*
X105279440Y35139880D01*
X105277920Y35180520D01*
X105277920Y49526950D01*
X105283000Y49609760D01*
X105286050Y49631090D01*
X105304840Y49710850D01*
X105311450Y49731680D01*
X105342440Y49807370D01*
X105395780Y49896270D01*
X105462320Y49973990D01*
X105534970Y50039520D01*
X105551730Y50052220D01*
X105640630Y50105560D01*
X105716320Y50136550D01*
X105737150Y50143130D01*
X105816880Y50161950D01*
X105838240Y50165000D01*
X105921050Y50170080D01*
X130298950Y50170080D01*
X130381760Y50165000D01*
G37*
%TD.AperFunction*%
M02*
