%TF.GenerationSoftware,KiCad,Pcbnew,7.0.8*%
%TF.CreationDate,2025-03-15T15:27:24-04:00*%
%TF.ProjectId,dress panel,64726573-7320-4706-916e-656c2e6b6963,rev?*%
%TF.SameCoordinates,Original*%
%TF.FileFunction,Profile,NP*%
%FSLAX46Y46*%
G04 Gerber Fmt 4.6, Leading zero omitted, Abs format (unit mm)*
G04 Created by KiCad (PCBNEW 7.0.8) date 2025-03-15 15:27:24*
%MOMM*%
%LPD*%
G01*
G04 APERTURE LIST*
%TA.AperFunction,Profile*%
%ADD10C,0.254000*%
%TD*%
%TA.AperFunction,Profile*%
%ADD11C,0.127000*%
%TD*%
G04 APERTURE END LIST*
D10*
X92710000Y22860000D02*
X85090000Y22860000D01*
X56642000Y46863000D02*
X45466000Y46863000D01*
X136906000Y10795000D02*
X136906000Y73025000D01*
X95250000Y40640000D02*
X95250000Y48260000D01*
X40259000Y46863000D02*
X29083000Y46863000D01*
X72390000Y30480000D02*
X72390000Y22860000D01*
X74930000Y40640000D02*
X74930000Y48260000D01*
X128905000Y2794000D02*
X136906000Y10795000D01*
X74930000Y30480000D02*
X82550000Y30480000D01*
X72390000Y22860000D02*
X64770000Y22860000D01*
X40259000Y16764000D02*
X40259000Y46863000D01*
X95250000Y48260000D02*
X102870000Y48260000D01*
X92710000Y30480000D02*
X92710000Y22860000D01*
D11*
X33655000Y63500000D02*
X33655000Y73660000D01*
D10*
X136906000Y73025000D02*
X128905000Y81026000D01*
X64770000Y48260000D02*
X72390000Y48260000D01*
X130302000Y35179000D02*
X105918000Y35179000D01*
X102870000Y30480000D02*
X102870000Y22860000D01*
X56642000Y16637000D02*
X56642000Y46863000D01*
X85090000Y48260000D02*
X92710000Y48260000D01*
X102870000Y22860000D02*
X95250000Y22860000D01*
X82550000Y22860000D02*
X74930000Y22860000D01*
X29083000Y16764000D02*
X40259000Y16764000D01*
X74930000Y22860000D02*
X74930000Y30480000D01*
D11*
X33655000Y73660000D02*
X12065000Y73660000D01*
D10*
X102870000Y40640000D02*
X95250000Y40640000D01*
X82550000Y40640000D02*
X74930000Y40640000D01*
X74930000Y48260000D02*
X82550000Y48260000D01*
X2794000Y10795000D02*
X10795000Y2794000D01*
X45466000Y46863000D02*
X45466000Y16637000D01*
X95250000Y22860000D02*
X95250000Y30480000D01*
X64770000Y22860000D02*
X64770000Y30480000D01*
X92710000Y48260000D02*
X92710000Y40640000D01*
X95250000Y30480000D02*
X102870000Y30480000D01*
X85090000Y40640000D02*
X85090000Y48260000D01*
X105918000Y49530000D02*
X130302000Y49530000D01*
X82550000Y30480000D02*
X82550000Y22860000D01*
D11*
X12065000Y63500000D02*
X33655000Y63500000D01*
D10*
X2794000Y73025000D02*
X2794000Y10795000D01*
X64770000Y30480000D02*
X72390000Y30480000D01*
X29083000Y46863000D02*
X29083000Y16764000D01*
X10795000Y2794000D02*
X128905000Y2794000D01*
X102870000Y48260000D02*
X102870000Y40640000D01*
X85090000Y30480000D02*
X92710000Y30480000D01*
D11*
X12065000Y73660000D02*
X12065000Y63500000D01*
D10*
X10795000Y81026000D02*
X2794000Y73025000D01*
X72390000Y40640000D02*
X64770000Y40640000D01*
X128905000Y81026000D02*
X10795000Y81026000D01*
X85090000Y22860000D02*
X85090000Y30480000D01*
X45466000Y16637000D02*
X56642000Y16637000D01*
X105918000Y35179000D02*
X105918000Y49530000D01*
X92710000Y40640000D02*
X85090000Y40640000D01*
X64770000Y40640000D02*
X64770000Y48260000D01*
X72390000Y48260000D02*
X72390000Y40640000D01*
X82550000Y48260000D02*
X82550000Y40640000D01*
X130302000Y49530000D02*
X130302000Y35179000D01*
M02*
