%TF.GenerationSoftware,KiCad,Pcbnew,7.0.8*%
%TF.CreationDate,2026-07-30T12:55:40-04:00*%
%TF.ProjectId,2310interface,32333130-696e-4746-9572-666163652e6b,rev?*%
%TF.SameCoordinates,Original*%
%TF.FileFunction,Paste,Top*%
%TF.FilePolarity,Positive*%
%FSLAX46Y46*%
G04 Gerber Fmt 4.6, Leading zero omitted, Abs format (unit mm)*
G04 Created by KiCad (PCBNEW 7.0.8) date 2026-07-30 12:55:40*
%MOMM*%
%LPD*%
G01*
G04 APERTURE LIST*
G04 Aperture macros list*
%AMRoundRect*
0 Rectangle with rounded corners*
0 $1 Rounding radius*
0 $2 $3 $4 $5 $6 $7 $8 $9 X,Y pos of 4 corners*
0 Add a 4 corners polygon primitive as box body*
4,1,4,$2,$3,$4,$5,$6,$7,$8,$9,$2,$3,0*
0 Add four circle primitives for the rounded corners*
1,1,$1+$1,$2,$3*
1,1,$1+$1,$4,$5*
1,1,$1+$1,$6,$7*
1,1,$1+$1,$8,$9*
0 Add four rect primitives between the rounded corners*
20,1,$1+$1,$2,$3,$4,$5,0*
20,1,$1+$1,$4,$5,$6,$7,0*
20,1,$1+$1,$6,$7,$8,$9,0*
20,1,$1+$1,$8,$9,$2,$3,0*%
G04 Aperture macros list end*
%ADD10R,1.500000X0.449999*%
%ADD11R,1.000000X0.800000*%
%ADD12R,0.700000X1.500000*%
%ADD13RoundRect,0.250000X0.450000X-0.262500X0.450000X0.262500X-0.450000X0.262500X-0.450000X-0.262500X0*%
%ADD14R,2.000000X1.500000*%
%ADD15R,2.000000X3.800000*%
%ADD16RoundRect,0.250000X-0.475000X0.250000X-0.475000X-0.250000X0.475000X-0.250000X0.475000X0.250000X0*%
%ADD17RoundRect,0.250000X-0.262500X-0.450000X0.262500X-0.450000X0.262500X0.450000X-0.262500X0.450000X0*%
%ADD18RoundRect,0.250000X-0.450000X0.262500X-0.450000X-0.262500X0.450000X-0.262500X0.450000X0.262500X0*%
%ADD19RoundRect,0.250000X0.250000X0.475000X-0.250000X0.475000X-0.250000X-0.475000X0.250000X-0.475000X0*%
G04 APERTURE END LIST*
D10*
%TO.C,U3*%
X53075002Y-32250002D03*
X53075002Y-32900000D03*
X53075002Y-33550002D03*
X53075002Y-34200000D03*
X53075002Y-34850002D03*
X53075002Y-35500000D03*
X53075002Y-36150002D03*
X53075002Y-36800000D03*
X58875000Y-36800000D03*
X58875000Y-36150002D03*
X58875000Y-35500000D03*
X58875000Y-34850002D03*
X58875000Y-34200000D03*
X58875000Y-33550002D03*
X58875000Y-32900000D03*
X58875000Y-32250002D03*
%TD*%
%TO.C,U2*%
X91250002Y-73975002D03*
X91250002Y-74625000D03*
X91250002Y-75275002D03*
X91250002Y-75925000D03*
X91250002Y-76575002D03*
X91250002Y-77225000D03*
X91250002Y-77875002D03*
X91250002Y-78525000D03*
X97050000Y-78525000D03*
X97050000Y-77875002D03*
X97050000Y-77225000D03*
X97050000Y-76575002D03*
X97050000Y-75925000D03*
X97050000Y-75275002D03*
X97050000Y-74625000D03*
X97050000Y-73975002D03*
%TD*%
D11*
%TO.C,SW1*%
X124750000Y-86090000D03*
X124750000Y-88300000D03*
X132050000Y-86090000D03*
X132050000Y-88300000D03*
D12*
X126150000Y-85440000D03*
X129150000Y-85440000D03*
X130650000Y-85440000D03*
%TD*%
D13*
%TO.C,R5*%
X144700000Y-96900000D03*
X144700000Y-95075000D03*
%TD*%
D14*
%TO.C,U1*%
X133340000Y-116970000D03*
X133340000Y-114670000D03*
D15*
X127040000Y-114670000D03*
D14*
X133340000Y-112370000D03*
%TD*%
D16*
%TO.C,C2*%
X138280000Y-116670000D03*
X138280000Y-118570000D03*
%TD*%
D17*
%TO.C,R7*%
X139997500Y-97060000D03*
X141822500Y-97060000D03*
%TD*%
D13*
%TO.C,R1*%
X153450000Y-92532500D03*
X153450000Y-90707500D03*
%TD*%
D18*
%TO.C,R6*%
X133860000Y-101417500D03*
X133860000Y-103242500D03*
%TD*%
D19*
%TO.C,C1*%
X139480000Y-112810000D03*
X137580000Y-112810000D03*
%TD*%
D13*
%TO.C,R4*%
X144810000Y-102272500D03*
X144810000Y-100447500D03*
%TD*%
M02*
