%TF.GenerationSoftware,KiCad,Pcbnew,7.0.8*%
%TF.CreationDate,2025-03-20T17:12:28-04:00*%
%TF.ProjectId,2310interface,32333130-696e-4746-9572-666163652e6b,rev?*%
%TF.SameCoordinates,Original*%
%TF.FileFunction,Drillmap*%
%TF.FilePolarity,Positive*%
%FSLAX45Y45*%
G04 Gerber Fmt 4.5, Leading zero omitted, Abs format (unit mm)*
G04 Created by KiCad (PCBNEW 7.0.8) date 2025-03-20 17:12:28*
%MOMM*%
%LPD*%
G01*
G04 APERTURE LIST*
%ADD10C,0.100000*%
%ADD11C,0.200000*%
%ADD12C,0.040000*%
%ADD13C,0.075000*%
%ADD14C,0.092000*%
%ADD15C,0.110000*%
%ADD16C,0.130000*%
%ADD17C,0.175000*%
G04 APERTURE END LIST*
D10*
X2510000Y-2511000D02*
X20486000Y-2511000D01*
X20486000Y-12446000D01*
X2510000Y-12446000D01*
X2510000Y-2511000D01*
D11*
D12*
X4139000Y-5772000D02*
X4179000Y-5812000D01*
X4179000Y-5772000D02*
X4139000Y-5812000D01*
X4299000Y-10262000D02*
X4339000Y-10302000D01*
X4339000Y-10262000D02*
X4299000Y-10302000D01*
X4353000Y-9094000D02*
X4393000Y-9134000D01*
X4393000Y-9094000D02*
X4353000Y-9134000D01*
X5368000Y-5625000D02*
X5408000Y-5665000D01*
X5408000Y-5625000D02*
X5368000Y-5665000D01*
X5536000Y-5779000D02*
X5576000Y-5819000D01*
X5576000Y-5779000D02*
X5536000Y-5819000D01*
X5664000Y-10612000D02*
X5704000Y-10652000D01*
X5704000Y-10612000D02*
X5664000Y-10652000D01*
X5751000Y-10885000D02*
X5791000Y-10925000D01*
X5791000Y-10885000D02*
X5751000Y-10925000D01*
X5892000Y-5647000D02*
X5932000Y-5687000D01*
X5932000Y-5647000D02*
X5892000Y-5687000D01*
X6160000Y-10012000D02*
X6200000Y-10052000D01*
X6200000Y-10012000D02*
X6160000Y-10052000D01*
X6643000Y-7268000D02*
X6683000Y-7308000D01*
X6683000Y-7268000D02*
X6643000Y-7308000D01*
X6761000Y-9657000D02*
X6801000Y-9697000D01*
X6801000Y-9657000D02*
X6761000Y-9697000D01*
X6820000Y-7431000D02*
X6860000Y-7471000D01*
X6860000Y-7431000D02*
X6820000Y-7471000D01*
X6859000Y-7105000D02*
X6899000Y-7145000D01*
X6899000Y-7105000D02*
X6859000Y-7145000D01*
X7003000Y-7253000D02*
X7043000Y-7293000D01*
X7043000Y-7253000D02*
X7003000Y-7293000D01*
X7003000Y-7578000D02*
X7043000Y-7618000D01*
X7043000Y-7578000D02*
X7003000Y-7618000D01*
X7008000Y-9273000D02*
X7048000Y-9313000D01*
X7048000Y-9273000D02*
X7008000Y-9313000D01*
X7118000Y-6902000D02*
X7158000Y-6942000D01*
X7158000Y-6902000D02*
X7118000Y-6942000D01*
X7215000Y-7451000D02*
X7255000Y-7491000D01*
X7255000Y-7451000D02*
X7215000Y-7491000D01*
X7300000Y-5327000D02*
X7340000Y-5367000D01*
X7340000Y-5327000D02*
X7300000Y-5367000D01*
X7403000Y-9204000D02*
X7443000Y-9244000D01*
X7443000Y-9204000D02*
X7403000Y-9244000D01*
X7525000Y-5132000D02*
X7565000Y-5172000D01*
X7565000Y-5132000D02*
X7525000Y-5172000D01*
X7598000Y-5413000D02*
X7638000Y-5453000D01*
X7638000Y-5413000D02*
X7598000Y-5453000D01*
X7662000Y-11681000D02*
X7702000Y-11721000D01*
X7702000Y-11681000D02*
X7662000Y-11721000D01*
X7771000Y-11152000D02*
X7811000Y-11192000D01*
X7811000Y-11152000D02*
X7771000Y-11192000D01*
X7947000Y-8161000D02*
X7987000Y-8201000D01*
X7987000Y-8161000D02*
X7947000Y-8201000D01*
X8115000Y-11140000D02*
X8155000Y-11180000D01*
X8155000Y-11140000D02*
X8115000Y-11180000D01*
X8195000Y-4344000D02*
X8235000Y-4384000D01*
X8235000Y-4344000D02*
X8195000Y-4384000D01*
X8291000Y-8024000D02*
X8331000Y-8064000D01*
X8331000Y-8024000D02*
X8291000Y-8064000D01*
X8390000Y-5143000D02*
X8430000Y-5183000D01*
X8430000Y-5143000D02*
X8390000Y-5183000D01*
X8395000Y-4863000D02*
X8435000Y-4903000D01*
X8435000Y-4863000D02*
X8395000Y-4903000D01*
X8497000Y-10318000D02*
X8537000Y-10358000D01*
X8537000Y-10318000D02*
X8497000Y-10358000D01*
X8513000Y-4339000D02*
X8553000Y-4379000D01*
X8553000Y-4339000D02*
X8513000Y-4379000D01*
X8628000Y-11736000D02*
X8668000Y-11776000D01*
X8668000Y-11736000D02*
X8628000Y-11776000D01*
X8732000Y-11173000D02*
X8772000Y-11213000D01*
X8772000Y-11173000D02*
X8732000Y-11213000D01*
X8808000Y-5148000D02*
X8848000Y-5188000D01*
X8848000Y-5148000D02*
X8808000Y-5188000D01*
X8837000Y-4879000D02*
X8877000Y-4919000D01*
X8877000Y-4879000D02*
X8837000Y-4919000D01*
X8901000Y-12020000D02*
X8941000Y-12060000D01*
X8941000Y-12020000D02*
X8901000Y-12060000D01*
X9316000Y-10946550D02*
X9356000Y-10986550D01*
X9356000Y-10946550D02*
X9316000Y-10986550D01*
X9365000Y-10524000D02*
X9405000Y-10564000D01*
X9405000Y-10524000D02*
X9365000Y-10564000D01*
X9403000Y-11834000D02*
X9443000Y-11874000D01*
X9443000Y-11834000D02*
X9403000Y-11874000D01*
X9988000Y-11663000D02*
X10028000Y-11703000D01*
X10028000Y-11663000D02*
X9988000Y-11703000D01*
X10113000Y-10345000D02*
X10153000Y-10385000D01*
X10153000Y-10345000D02*
X10113000Y-10385000D01*
X10159000Y-11019000D02*
X10199000Y-11059000D01*
X10199000Y-11019000D02*
X10159000Y-11059000D01*
X10291000Y-5464000D02*
X10331000Y-5504000D01*
X10331000Y-5464000D02*
X10291000Y-5504000D01*
X10537000Y-5189000D02*
X10577000Y-5229000D01*
X10577000Y-5189000D02*
X10537000Y-5229000D01*
X10583000Y-11864000D02*
X10623000Y-11904000D01*
X10623000Y-11864000D02*
X10583000Y-11904000D01*
X10600000Y-5682000D02*
X10640000Y-5722000D01*
X10640000Y-5682000D02*
X10600000Y-5722000D01*
X11152000Y-11598000D02*
X11192000Y-11638000D01*
X11192000Y-11598000D02*
X11152000Y-11638000D01*
X11467000Y-11863000D02*
X11507000Y-11903000D01*
X11507000Y-11863000D02*
X11467000Y-11903000D01*
X11888000Y-4399000D02*
X11928000Y-4439000D01*
X11928000Y-4399000D02*
X11888000Y-4439000D01*
X12705400Y-9454200D02*
X12745400Y-9494200D01*
X12745400Y-9454200D02*
X12705400Y-9494200D01*
X12934000Y-9708200D02*
X12974000Y-9748200D01*
X12974000Y-9708200D02*
X12934000Y-9748200D01*
X13010200Y-8158800D02*
X13050200Y-8198800D01*
X13050200Y-8158800D02*
X13010200Y-8198800D01*
X13276000Y-8409000D02*
X13316000Y-8449000D01*
X13316000Y-8409000D02*
X13276000Y-8449000D01*
X13289600Y-9860600D02*
X13329600Y-9900600D01*
X13329600Y-9860600D02*
X13289600Y-9900600D01*
X13569000Y-9987600D02*
X13609000Y-10027600D01*
X13609000Y-9987600D02*
X13569000Y-10027600D01*
X13583000Y-11812000D02*
X13623000Y-11852000D01*
X13623000Y-11812000D02*
X13583000Y-11852000D01*
X14269000Y-9442000D02*
X14309000Y-9482000D01*
X14309000Y-9442000D02*
X14269000Y-9482000D01*
X14314000Y-10441000D02*
X14354000Y-10481000D01*
X14354000Y-10441000D02*
X14314000Y-10481000D01*
X14762800Y-7930200D02*
X14802800Y-7970200D01*
X14802800Y-7930200D02*
X14762800Y-7970200D01*
X14852000Y-10866000D02*
X14892000Y-10906000D01*
X14892000Y-10866000D02*
X14852000Y-10906000D01*
X15412000Y-6178000D02*
X15452000Y-6218000D01*
X15452000Y-6178000D02*
X15412000Y-6218000D01*
X15788000Y-3393000D02*
X15828000Y-3433000D01*
X15828000Y-3393000D02*
X15788000Y-3433000D01*
X15810000Y-8660000D02*
X15850000Y-8700000D01*
X15850000Y-8660000D02*
X15810000Y-8700000D01*
X15817000Y-9046000D02*
X15857000Y-9086000D01*
X15857000Y-9046000D02*
X15817000Y-9086000D01*
X15920000Y-5940000D02*
X15960000Y-5980000D01*
X15960000Y-5940000D02*
X15920000Y-5980000D01*
X15942000Y-6977000D02*
X15982000Y-7017000D01*
X15982000Y-6977000D02*
X15942000Y-7017000D01*
X16060000Y-7183000D02*
X16100000Y-7223000D01*
X16100000Y-7183000D02*
X16060000Y-7223000D01*
X16401000Y-10909000D02*
X16441000Y-10949000D01*
X16441000Y-10909000D02*
X16401000Y-10949000D01*
X16550000Y-7234000D02*
X16590000Y-7274000D01*
X16590000Y-7234000D02*
X16550000Y-7274000D01*
X16566000Y-3320000D02*
X16606000Y-3360000D01*
X16606000Y-3320000D02*
X16566000Y-3360000D01*
X16566000Y-6923000D02*
X16606000Y-6963000D01*
X16606000Y-6923000D02*
X16566000Y-6963000D01*
X16599000Y-10063000D02*
X16639000Y-10103000D01*
X16639000Y-10063000D02*
X16599000Y-10103000D01*
X16612000Y-7842000D02*
X16652000Y-7882000D01*
X16652000Y-7842000D02*
X16612000Y-7882000D01*
X17206000Y-10054000D02*
X17246000Y-10094000D01*
X17246000Y-10054000D02*
X17206000Y-10094000D01*
X18453000Y-7506000D02*
X18493000Y-7546000D01*
X18493000Y-7506000D02*
X18453000Y-7546000D01*
X18522000Y-6934000D02*
X18562000Y-6974000D01*
X18562000Y-6934000D02*
X18522000Y-6974000D01*
X18904000Y-7698000D02*
X18944000Y-7738000D01*
X18944000Y-7698000D02*
X18904000Y-7738000D01*
X18944000Y-10344000D02*
X18984000Y-10384000D01*
X18984000Y-10344000D02*
X18944000Y-10384000D01*
X19335000Y-10569000D02*
X19375000Y-10609000D01*
X19375000Y-10569000D02*
X19335000Y-10609000D01*
D13*
X13888500Y-10268000D02*
G75*
G03*
X13888500Y-10268000I-37500J0D01*
G01*
X14015500Y-10268000D02*
G75*
G03*
X14015500Y-10268000I-37500J0D01*
G01*
X14142500Y-10268000D02*
G75*
G03*
X14142500Y-10268000I-37500J0D01*
G01*
D14*
X7000500Y-10746000D02*
X7000500Y-10838000D01*
X6954500Y-10792000D02*
X7046500Y-10792000D01*
X7000500Y-11381000D02*
X7000500Y-11473000D01*
X6954500Y-11427000D02*
X7046500Y-11427000D01*
X7318000Y-10746000D02*
X7318000Y-10838000D01*
X7272000Y-10792000D02*
X7364000Y-10792000D01*
X7318000Y-11381000D02*
X7318000Y-11473000D01*
X7272000Y-11427000D02*
X7364000Y-11427000D01*
X7635500Y-10746000D02*
X7635500Y-10838000D01*
X7589500Y-10792000D02*
X7681500Y-10792000D01*
X7635500Y-11381000D02*
X7635500Y-11473000D01*
X7589500Y-11427000D02*
X7681500Y-11427000D01*
X7953000Y-10746000D02*
X7953000Y-10838000D01*
X7907000Y-10792000D02*
X7999000Y-10792000D01*
X7953000Y-11381000D02*
X7953000Y-11473000D01*
X7907000Y-11427000D02*
X7999000Y-11427000D01*
X8270500Y-10746000D02*
X8270500Y-10838000D01*
X8224500Y-10792000D02*
X8316500Y-10792000D01*
X8270500Y-11381000D02*
X8270500Y-11473000D01*
X8224500Y-11427000D02*
X8316500Y-11427000D01*
X8588000Y-10746000D02*
X8588000Y-10838000D01*
X8542000Y-10792000D02*
X8634000Y-10792000D01*
X8588000Y-11381000D02*
X8588000Y-11473000D01*
X8542000Y-11427000D02*
X8634000Y-11427000D01*
X8905500Y-10746000D02*
X8905500Y-10838000D01*
X8859500Y-10792000D02*
X8951500Y-10792000D01*
X8905500Y-11381000D02*
X8905500Y-11473000D01*
X8859500Y-11427000D02*
X8951500Y-11427000D01*
X9223000Y-10746000D02*
X9223000Y-10838000D01*
X9177000Y-10792000D02*
X9269000Y-10792000D01*
X9223000Y-11381000D02*
X9223000Y-11473000D01*
X9177000Y-11427000D02*
X9269000Y-11427000D01*
X9540500Y-10746000D02*
X9540500Y-10838000D01*
X9494500Y-10792000D02*
X9586500Y-10792000D01*
X9540500Y-11381000D02*
X9540500Y-11473000D01*
X9494500Y-11427000D02*
X9586500Y-11427000D01*
X9858000Y-10746000D02*
X9858000Y-10838000D01*
X9812000Y-10792000D02*
X9904000Y-10792000D01*
X9858000Y-11381000D02*
X9858000Y-11473000D01*
X9812000Y-11427000D02*
X9904000Y-11427000D01*
X10175500Y-10746000D02*
X10175500Y-10838000D01*
X10129500Y-10792000D02*
X10221500Y-10792000D01*
X10175500Y-11381000D02*
X10175500Y-11473000D01*
X10129500Y-11427000D02*
X10221500Y-11427000D01*
X10493000Y-10746000D02*
X10493000Y-10838000D01*
X10447000Y-10792000D02*
X10539000Y-10792000D01*
X10493000Y-11381000D02*
X10493000Y-11473000D01*
X10447000Y-11427000D02*
X10539000Y-11427000D01*
D10*
X4620356Y-4933356D02*
X4620356Y-4862644D01*
X4549644Y-4862644D01*
X4549644Y-4933356D01*
X4620356Y-4933356D01*
X4620356Y-5187356D02*
X4620356Y-5116644D01*
X4549644Y-5116644D01*
X4549644Y-5187356D01*
X4620356Y-5187356D01*
X4620356Y-5441356D02*
X4620356Y-5370644D01*
X4549644Y-5370644D01*
X4549644Y-5441356D01*
X4620356Y-5441356D01*
X4620356Y-5695356D02*
X4620356Y-5624644D01*
X4549644Y-5624644D01*
X4549644Y-5695356D01*
X4620356Y-5695356D01*
X4620356Y-5949356D02*
X4620356Y-5878644D01*
X4549644Y-5878644D01*
X4549644Y-5949356D01*
X4620356Y-5949356D01*
X4620356Y-6203356D02*
X4620356Y-6132644D01*
X4549644Y-6132644D01*
X4549644Y-6203356D01*
X4620356Y-6203356D01*
X4620356Y-6457356D02*
X4620356Y-6386644D01*
X4549644Y-6386644D01*
X4549644Y-6457356D01*
X4620356Y-6457356D01*
X4620356Y-6711356D02*
X4620356Y-6640644D01*
X4549644Y-6640644D01*
X4549644Y-6711356D01*
X4620356Y-6711356D01*
X4620356Y-6965356D02*
X4620356Y-6894644D01*
X4549644Y-6894644D01*
X4549644Y-6965356D01*
X4620356Y-6965356D01*
X4620356Y-7219356D02*
X4620356Y-7148644D01*
X4549644Y-7148644D01*
X4549644Y-7219356D01*
X4620356Y-7219356D01*
X4620356Y-7473356D02*
X4620356Y-7402644D01*
X4549644Y-7402644D01*
X4549644Y-7473356D01*
X4620356Y-7473356D01*
X4620356Y-7727356D02*
X4620356Y-7656644D01*
X4549644Y-7656644D01*
X4549644Y-7727356D01*
X4620356Y-7727356D01*
X4620356Y-7981356D02*
X4620356Y-7910644D01*
X4549644Y-7910644D01*
X4549644Y-7981356D01*
X4620356Y-7981356D01*
X4620356Y-8235356D02*
X4620356Y-8164644D01*
X4549644Y-8164644D01*
X4549644Y-8235356D01*
X4620356Y-8235356D01*
X4620356Y-8489356D02*
X4620356Y-8418644D01*
X4549644Y-8418644D01*
X4549644Y-8489356D01*
X4620356Y-8489356D01*
X4620356Y-8743356D02*
X4620356Y-8672644D01*
X4549644Y-8672644D01*
X4549644Y-8743356D01*
X4620356Y-8743356D01*
X4620356Y-8997356D02*
X4620356Y-8926644D01*
X4549644Y-8926644D01*
X4549644Y-8997356D01*
X4620356Y-8997356D01*
X4620356Y-9251356D02*
X4620356Y-9180644D01*
X4549644Y-9180644D01*
X4549644Y-9251356D01*
X4620356Y-9251356D01*
X4620356Y-9505356D02*
X4620356Y-9434644D01*
X4549644Y-9434644D01*
X4549644Y-9505356D01*
X4620356Y-9505356D01*
X4620356Y-9759356D02*
X4620356Y-9688644D01*
X4549644Y-9688644D01*
X4549644Y-9759356D01*
X4620356Y-9759356D01*
X4874356Y-4933356D02*
X4874356Y-4862644D01*
X4803644Y-4862644D01*
X4803644Y-4933356D01*
X4874356Y-4933356D01*
X4874356Y-5187356D02*
X4874356Y-5116644D01*
X4803644Y-5116644D01*
X4803644Y-5187356D01*
X4874356Y-5187356D01*
X4874356Y-5441356D02*
X4874356Y-5370644D01*
X4803644Y-5370644D01*
X4803644Y-5441356D01*
X4874356Y-5441356D01*
X4874356Y-5695356D02*
X4874356Y-5624644D01*
X4803644Y-5624644D01*
X4803644Y-5695356D01*
X4874356Y-5695356D01*
X4874356Y-5949356D02*
X4874356Y-5878644D01*
X4803644Y-5878644D01*
X4803644Y-5949356D01*
X4874356Y-5949356D01*
X4874356Y-6203356D02*
X4874356Y-6132644D01*
X4803644Y-6132644D01*
X4803644Y-6203356D01*
X4874356Y-6203356D01*
X4874356Y-6457356D02*
X4874356Y-6386644D01*
X4803644Y-6386644D01*
X4803644Y-6457356D01*
X4874356Y-6457356D01*
X4874356Y-6711356D02*
X4874356Y-6640644D01*
X4803644Y-6640644D01*
X4803644Y-6711356D01*
X4874356Y-6711356D01*
X4874356Y-6965356D02*
X4874356Y-6894644D01*
X4803644Y-6894644D01*
X4803644Y-6965356D01*
X4874356Y-6965356D01*
X4874356Y-7219356D02*
X4874356Y-7148644D01*
X4803644Y-7148644D01*
X4803644Y-7219356D01*
X4874356Y-7219356D01*
X4874356Y-7473356D02*
X4874356Y-7402644D01*
X4803644Y-7402644D01*
X4803644Y-7473356D01*
X4874356Y-7473356D01*
X4874356Y-7727356D02*
X4874356Y-7656644D01*
X4803644Y-7656644D01*
X4803644Y-7727356D01*
X4874356Y-7727356D01*
X4874356Y-7981356D02*
X4874356Y-7910644D01*
X4803644Y-7910644D01*
X4803644Y-7981356D01*
X4874356Y-7981356D01*
X4874356Y-8235356D02*
X4874356Y-8164644D01*
X4803644Y-8164644D01*
X4803644Y-8235356D01*
X4874356Y-8235356D01*
X4874356Y-8489356D02*
X4874356Y-8418644D01*
X4803644Y-8418644D01*
X4803644Y-8489356D01*
X4874356Y-8489356D01*
X4874356Y-8743356D02*
X4874356Y-8672644D01*
X4803644Y-8672644D01*
X4803644Y-8743356D01*
X4874356Y-8743356D01*
X4874356Y-8997356D02*
X4874356Y-8926644D01*
X4803644Y-8926644D01*
X4803644Y-8997356D01*
X4874356Y-8997356D01*
X4874356Y-9251356D02*
X4874356Y-9180644D01*
X4803644Y-9180644D01*
X4803644Y-9251356D01*
X4874356Y-9251356D01*
X4874356Y-9505356D02*
X4874356Y-9434644D01*
X4803644Y-9434644D01*
X4803644Y-9505356D01*
X4874356Y-9505356D01*
X4874356Y-9759356D02*
X4874356Y-9688644D01*
X4803644Y-9688644D01*
X4803644Y-9759356D01*
X4874356Y-9759356D01*
X17906356Y-4721356D02*
X17906356Y-4650644D01*
X17835644Y-4650644D01*
X17835644Y-4721356D01*
X17906356Y-4721356D01*
X17906356Y-4975356D02*
X17906356Y-4904644D01*
X17835644Y-4904644D01*
X17835644Y-4975356D01*
X17906356Y-4975356D01*
X17906356Y-5229356D02*
X17906356Y-5158644D01*
X17835644Y-5158644D01*
X17835644Y-5229356D01*
X17906356Y-5229356D01*
X17906356Y-5483356D02*
X17906356Y-5412644D01*
X17835644Y-5412644D01*
X17835644Y-5483356D01*
X17906356Y-5483356D01*
X17906356Y-5737356D02*
X17906356Y-5666644D01*
X17835644Y-5666644D01*
X17835644Y-5737356D01*
X17906356Y-5737356D01*
X17906356Y-5991356D02*
X17906356Y-5920644D01*
X17835644Y-5920644D01*
X17835644Y-5991356D01*
X17906356Y-5991356D01*
X17906356Y-6245356D02*
X17906356Y-6174644D01*
X17835644Y-6174644D01*
X17835644Y-6245356D01*
X17906356Y-6245356D01*
X17906356Y-6499356D02*
X17906356Y-6428644D01*
X17835644Y-6428644D01*
X17835644Y-6499356D01*
X17906356Y-6499356D01*
X17906356Y-6753356D02*
X17906356Y-6682644D01*
X17835644Y-6682644D01*
X17835644Y-6753356D01*
X17906356Y-6753356D01*
X17906356Y-7007356D02*
X17906356Y-6936644D01*
X17835644Y-6936644D01*
X17835644Y-7007356D01*
X17906356Y-7007356D01*
X17906356Y-7261356D02*
X17906356Y-7190644D01*
X17835644Y-7190644D01*
X17835644Y-7261356D01*
X17906356Y-7261356D01*
X17906356Y-7515356D02*
X17906356Y-7444644D01*
X17835644Y-7444644D01*
X17835644Y-7515356D01*
X17906356Y-7515356D01*
X17906356Y-7769356D02*
X17906356Y-7698644D01*
X17835644Y-7698644D01*
X17835644Y-7769356D01*
X17906356Y-7769356D01*
X17906356Y-8023356D02*
X17906356Y-7952644D01*
X17835644Y-7952644D01*
X17835644Y-8023356D01*
X17906356Y-8023356D01*
X17906356Y-8277356D02*
X17906356Y-8206644D01*
X17835644Y-8206644D01*
X17835644Y-8277356D01*
X17906356Y-8277356D01*
X17906356Y-8531356D02*
X17906356Y-8460644D01*
X17835644Y-8460644D01*
X17835644Y-8531356D01*
X17906356Y-8531356D01*
X17906356Y-8785356D02*
X17906356Y-8714644D01*
X17835644Y-8714644D01*
X17835644Y-8785356D01*
X17906356Y-8785356D01*
X17906356Y-9039356D02*
X17906356Y-8968644D01*
X17835644Y-8968644D01*
X17835644Y-9039356D01*
X17906356Y-9039356D01*
X17906356Y-9293356D02*
X17906356Y-9222644D01*
X17835644Y-9222644D01*
X17835644Y-9293356D01*
X17906356Y-9293356D01*
X17906356Y-9547356D02*
X17906356Y-9476644D01*
X17835644Y-9476644D01*
X17835644Y-9547356D01*
X17906356Y-9547356D01*
X18160356Y-4721356D02*
X18160356Y-4650644D01*
X18089644Y-4650644D01*
X18089644Y-4721356D01*
X18160356Y-4721356D01*
X18160356Y-4975356D02*
X18160356Y-4904644D01*
X18089644Y-4904644D01*
X18089644Y-4975356D01*
X18160356Y-4975356D01*
X18160356Y-5229356D02*
X18160356Y-5158644D01*
X18089644Y-5158644D01*
X18089644Y-5229356D01*
X18160356Y-5229356D01*
X18160356Y-5483356D02*
X18160356Y-5412644D01*
X18089644Y-5412644D01*
X18089644Y-5483356D01*
X18160356Y-5483356D01*
X18160356Y-5737356D02*
X18160356Y-5666644D01*
X18089644Y-5666644D01*
X18089644Y-5737356D01*
X18160356Y-5737356D01*
X18160356Y-5991356D02*
X18160356Y-5920644D01*
X18089644Y-5920644D01*
X18089644Y-5991356D01*
X18160356Y-5991356D01*
X18160356Y-6245356D02*
X18160356Y-6174644D01*
X18089644Y-6174644D01*
X18089644Y-6245356D01*
X18160356Y-6245356D01*
X18160356Y-6499356D02*
X18160356Y-6428644D01*
X18089644Y-6428644D01*
X18089644Y-6499356D01*
X18160356Y-6499356D01*
X18160356Y-6753356D02*
X18160356Y-6682644D01*
X18089644Y-6682644D01*
X18089644Y-6753356D01*
X18160356Y-6753356D01*
X18160356Y-7007356D02*
X18160356Y-6936644D01*
X18089644Y-6936644D01*
X18089644Y-7007356D01*
X18160356Y-7007356D01*
X18160356Y-7261356D02*
X18160356Y-7190644D01*
X18089644Y-7190644D01*
X18089644Y-7261356D01*
X18160356Y-7261356D01*
X18160356Y-7515356D02*
X18160356Y-7444644D01*
X18089644Y-7444644D01*
X18089644Y-7515356D01*
X18160356Y-7515356D01*
X18160356Y-7769356D02*
X18160356Y-7698644D01*
X18089644Y-7698644D01*
X18089644Y-7769356D01*
X18160356Y-7769356D01*
X18160356Y-8023356D02*
X18160356Y-7952644D01*
X18089644Y-7952644D01*
X18089644Y-8023356D01*
X18160356Y-8023356D01*
X18160356Y-8277356D02*
X18160356Y-8206644D01*
X18089644Y-8206644D01*
X18089644Y-8277356D01*
X18160356Y-8277356D01*
X18160356Y-8531356D02*
X18160356Y-8460644D01*
X18089644Y-8460644D01*
X18089644Y-8531356D01*
X18160356Y-8531356D01*
X18160356Y-8785356D02*
X18160356Y-8714644D01*
X18089644Y-8714644D01*
X18089644Y-8785356D01*
X18160356Y-8785356D01*
X18160356Y-9039356D02*
X18160356Y-8968644D01*
X18089644Y-8968644D01*
X18089644Y-9039356D01*
X18160356Y-9039356D01*
X18160356Y-9293356D02*
X18160356Y-9222644D01*
X18089644Y-9222644D01*
X18089644Y-9293356D01*
X18160356Y-9293356D01*
X18160356Y-9547356D02*
X18160356Y-9476644D01*
X18089644Y-9476644D01*
X18089644Y-9547356D01*
X18160356Y-9547356D01*
D15*
X16086000Y-9630000D02*
X16141000Y-9575000D01*
X16086000Y-9520000D01*
X16031000Y-9575000D01*
X16086000Y-9630000D01*
X16340000Y-9630000D02*
X16395000Y-9575000D01*
X16340000Y-9520000D01*
X16285000Y-9575000D01*
X16340000Y-9630000D01*
X16594000Y-9630000D02*
X16649000Y-9575000D01*
X16594000Y-9520000D01*
X16539000Y-9575000D01*
X16594000Y-9630000D01*
D16*
X14563000Y-11600000D02*
X14693000Y-11730000D01*
X14693000Y-11600000D02*
X14563000Y-11730000D01*
X14693000Y-11665000D02*
G75*
G03*
X14693000Y-11665000I-65000J0D01*
G01*
X15063000Y-11600000D02*
X15193000Y-11730000D01*
X15193000Y-11600000D02*
X15063000Y-11730000D01*
X15193000Y-11665000D02*
G75*
G03*
X15193000Y-11665000I-65000J0D01*
G01*
X15563000Y-11600000D02*
X15693000Y-11730000D01*
X15693000Y-11600000D02*
X15563000Y-11730000D01*
X15693000Y-11665000D02*
G75*
G03*
X15693000Y-11665000I-65000J0D01*
G01*
X16063000Y-11600000D02*
X16193000Y-11730000D01*
X16193000Y-11600000D02*
X16063000Y-11730000D01*
X16193000Y-11665000D02*
G75*
G03*
X16193000Y-11665000I-65000J0D01*
G01*
X17012000Y-10851000D02*
X17142000Y-10981000D01*
X17142000Y-10851000D02*
X17012000Y-10981000D01*
X17142000Y-10916000D02*
G75*
G03*
X17142000Y-10916000I-65000J0D01*
G01*
X17012000Y-12051000D02*
X17142000Y-12181000D01*
X17142000Y-12051000D02*
X17012000Y-12181000D01*
X17142000Y-12116000D02*
G75*
G03*
X17142000Y-12116000I-65000J0D01*
G01*
X18232000Y-10851000D02*
X18362000Y-10981000D01*
X18362000Y-10851000D02*
X18232000Y-10981000D01*
X18362000Y-10916000D02*
G75*
G03*
X18362000Y-10916000I-65000J0D01*
G01*
X18232000Y-12051000D02*
X18362000Y-12181000D01*
X18362000Y-12051000D02*
X18232000Y-12181000D01*
X18362000Y-12116000D02*
G75*
G03*
X18362000Y-12116000I-65000J0D01*
G01*
X18432000Y-11451000D02*
X18562000Y-11581000D01*
X18562000Y-11451000D02*
X18432000Y-11581000D01*
X18562000Y-11516000D02*
G75*
G03*
X18562000Y-11516000I-65000J0D01*
G01*
D17*
X6812500Y-3844500D02*
X6987500Y-4019500D01*
X6987500Y-3844500D02*
X6812500Y-4019500D01*
X6900000Y-3844500D02*
X6900000Y-4019500D01*
X6812500Y-3932000D02*
X6987500Y-3932000D01*
X6821500Y-3027500D02*
X6996500Y-3202500D01*
X6996500Y-3027500D02*
X6821500Y-3202500D01*
X6909000Y-3027500D02*
X6909000Y-3202500D01*
X6821500Y-3115000D02*
X6996500Y-3115000D01*
X7508500Y-3835500D02*
X7683500Y-4010500D01*
X7683500Y-3835500D02*
X7508500Y-4010500D01*
X7596000Y-3835500D02*
X7596000Y-4010500D01*
X7508500Y-3923000D02*
X7683500Y-3923000D01*
X8230500Y-3027500D02*
X8405500Y-3202500D01*
X8405500Y-3027500D02*
X8230500Y-3202500D01*
X8318000Y-3027500D02*
X8318000Y-3202500D01*
X8230500Y-3115000D02*
X8405500Y-3115000D01*
X8239500Y-3809500D02*
X8414500Y-3984500D01*
X8414500Y-3809500D02*
X8239500Y-3984500D01*
X8327000Y-3809500D02*
X8327000Y-3984500D01*
X8239500Y-3897000D02*
X8414500Y-3897000D01*
X9004500Y-3818500D02*
X9179500Y-3993500D01*
X9179500Y-3818500D02*
X9004500Y-3993500D01*
X9092000Y-3818500D02*
X9092000Y-3993500D01*
X9004500Y-3906000D02*
X9179500Y-3906000D01*
X9012500Y-3010500D02*
X9187500Y-3185500D01*
X9187500Y-3010500D02*
X9012500Y-3185500D01*
X9100000Y-3010500D02*
X9100000Y-3185500D01*
X9012500Y-3098000D02*
X9187500Y-3098000D01*
X9786500Y-3010500D02*
X9961500Y-3185500D01*
X9961500Y-3010500D02*
X9786500Y-3185500D01*
X9874000Y-3010500D02*
X9874000Y-3185500D01*
X9786500Y-3098000D02*
X9961500Y-3098000D01*
X10542500Y-3044500D02*
X10717500Y-3219500D01*
X10717500Y-3044500D02*
X10542500Y-3219500D01*
X10630000Y-3044500D02*
X10630000Y-3219500D01*
X10542500Y-3132000D02*
X10717500Y-3132000D01*
X10542500Y-3826500D02*
X10717500Y-4001500D01*
X10717500Y-3826500D02*
X10542500Y-4001500D01*
X10630000Y-3826500D02*
X10630000Y-4001500D01*
X10542500Y-3914000D02*
X10717500Y-3914000D01*
X11290500Y-3818500D02*
X11465500Y-3993500D01*
X11465500Y-3818500D02*
X11290500Y-3993500D01*
X11378000Y-3818500D02*
X11378000Y-3993500D01*
X11290500Y-3906000D02*
X11465500Y-3906000D01*
X12072500Y-3818500D02*
X12247500Y-3993500D01*
X12247500Y-3818500D02*
X12072500Y-3993500D01*
X12160000Y-3818500D02*
X12160000Y-3993500D01*
X12072500Y-3906000D02*
X12247500Y-3906000D01*
X12081500Y-3036500D02*
X12256500Y-3211500D01*
X12256500Y-3036500D02*
X12081500Y-3211500D01*
X12169000Y-3036500D02*
X12169000Y-3211500D01*
X12081500Y-3124000D02*
X12256500Y-3124000D01*
X12872500Y-3841500D02*
X13047500Y-4016500D01*
X13047500Y-3841500D02*
X12872500Y-4016500D01*
X12960000Y-3841500D02*
X12960000Y-4016500D01*
X12872500Y-3929000D02*
X13047500Y-3929000D01*
X12884500Y-3042500D02*
X13059500Y-3217500D01*
X13059500Y-3042500D02*
X12884500Y-3217500D01*
X12972000Y-3042500D02*
X12972000Y-3217500D01*
X12884500Y-3130000D02*
X13059500Y-3130000D01*
X13658500Y-3054500D02*
X13833500Y-3229500D01*
X13833500Y-3054500D02*
X13658500Y-3229500D01*
X13746000Y-3054500D02*
X13746000Y-3229500D01*
X13658500Y-3142000D02*
X13833500Y-3142000D01*
X14407500Y-3042500D02*
X14582500Y-3217500D01*
X14582500Y-3042500D02*
X14407500Y-3217500D01*
X14495000Y-3042500D02*
X14495000Y-3217500D01*
X14407500Y-3130000D02*
X14582500Y-3130000D01*
X14444500Y-3877500D02*
X14619500Y-4052500D01*
X14619500Y-3877500D02*
X14444500Y-4052500D01*
X14532000Y-3877500D02*
X14532000Y-4052500D01*
X14444500Y-3965000D02*
X14619500Y-3965000D01*
X15107500Y-3054500D02*
X15282500Y-3229500D01*
X15282500Y-3054500D02*
X15107500Y-3229500D01*
X15195000Y-3054500D02*
X15195000Y-3229500D01*
X15107500Y-3142000D02*
X15282500Y-3142000D01*
X15144500Y-3865500D02*
X15319500Y-4040500D01*
X15319500Y-3865500D02*
X15144500Y-4040500D01*
X15232000Y-3865500D02*
X15232000Y-4040500D01*
X15144500Y-3953000D02*
X15319500Y-3953000D01*
D11*
X2765777Y-12762484D02*
X2765777Y-12562484D01*
X2765777Y-12562484D02*
X2813396Y-12562484D01*
X2813396Y-12562484D02*
X2841967Y-12572008D01*
X2841967Y-12572008D02*
X2861015Y-12591055D01*
X2861015Y-12591055D02*
X2870539Y-12610103D01*
X2870539Y-12610103D02*
X2880062Y-12648198D01*
X2880062Y-12648198D02*
X2880062Y-12676769D01*
X2880062Y-12676769D02*
X2870539Y-12714865D01*
X2870539Y-12714865D02*
X2861015Y-12733912D01*
X2861015Y-12733912D02*
X2841967Y-12752960D01*
X2841967Y-12752960D02*
X2813396Y-12762484D01*
X2813396Y-12762484D02*
X2765777Y-12762484D01*
X2965777Y-12762484D02*
X2965777Y-12629150D01*
X2965777Y-12667246D02*
X2975301Y-12648198D01*
X2975301Y-12648198D02*
X2984824Y-12638674D01*
X2984824Y-12638674D02*
X3003872Y-12629150D01*
X3003872Y-12629150D02*
X3022920Y-12629150D01*
X3089586Y-12762484D02*
X3089586Y-12629150D01*
X3089586Y-12562484D02*
X3080062Y-12572008D01*
X3080062Y-12572008D02*
X3089586Y-12581531D01*
X3089586Y-12581531D02*
X3099110Y-12572008D01*
X3099110Y-12572008D02*
X3089586Y-12562484D01*
X3089586Y-12562484D02*
X3089586Y-12581531D01*
X3213396Y-12762484D02*
X3194348Y-12752960D01*
X3194348Y-12752960D02*
X3184824Y-12733912D01*
X3184824Y-12733912D02*
X3184824Y-12562484D01*
X3318158Y-12762484D02*
X3299110Y-12752960D01*
X3299110Y-12752960D02*
X3289586Y-12733912D01*
X3289586Y-12733912D02*
X3289586Y-12562484D01*
X3546729Y-12762484D02*
X3546729Y-12562484D01*
X3546729Y-12562484D02*
X3613396Y-12705341D01*
X3613396Y-12705341D02*
X3680062Y-12562484D01*
X3680062Y-12562484D02*
X3680062Y-12762484D01*
X3861015Y-12762484D02*
X3861015Y-12657722D01*
X3861015Y-12657722D02*
X3851491Y-12638674D01*
X3851491Y-12638674D02*
X3832443Y-12629150D01*
X3832443Y-12629150D02*
X3794348Y-12629150D01*
X3794348Y-12629150D02*
X3775301Y-12638674D01*
X3861015Y-12752960D02*
X3841967Y-12762484D01*
X3841967Y-12762484D02*
X3794348Y-12762484D01*
X3794348Y-12762484D02*
X3775301Y-12752960D01*
X3775301Y-12752960D02*
X3765777Y-12733912D01*
X3765777Y-12733912D02*
X3765777Y-12714865D01*
X3765777Y-12714865D02*
X3775301Y-12695817D01*
X3775301Y-12695817D02*
X3794348Y-12686293D01*
X3794348Y-12686293D02*
X3841967Y-12686293D01*
X3841967Y-12686293D02*
X3861015Y-12676769D01*
X3956253Y-12629150D02*
X3956253Y-12829150D01*
X3956253Y-12638674D02*
X3975301Y-12629150D01*
X3975301Y-12629150D02*
X4013396Y-12629150D01*
X4013396Y-12629150D02*
X4032443Y-12638674D01*
X4032443Y-12638674D02*
X4041967Y-12648198D01*
X4041967Y-12648198D02*
X4051491Y-12667246D01*
X4051491Y-12667246D02*
X4051491Y-12724388D01*
X4051491Y-12724388D02*
X4041967Y-12743436D01*
X4041967Y-12743436D02*
X4032443Y-12752960D01*
X4032443Y-12752960D02*
X4013396Y-12762484D01*
X4013396Y-12762484D02*
X3975301Y-12762484D01*
X3975301Y-12762484D02*
X3956253Y-12752960D01*
X4137205Y-12743436D02*
X4146729Y-12752960D01*
X4146729Y-12752960D02*
X4137205Y-12762484D01*
X4137205Y-12762484D02*
X4127682Y-12752960D01*
X4127682Y-12752960D02*
X4137205Y-12743436D01*
X4137205Y-12743436D02*
X4137205Y-12762484D01*
X4137205Y-12638674D02*
X4146729Y-12648198D01*
X4146729Y-12648198D02*
X4137205Y-12657722D01*
X4137205Y-12657722D02*
X4127682Y-12648198D01*
X4127682Y-12648198D02*
X4137205Y-12638674D01*
X4137205Y-12638674D02*
X4137205Y-12657722D01*
D12*
X2465000Y-13071000D02*
X2505000Y-13111000D01*
X2505000Y-13071000D02*
X2465000Y-13111000D01*
D11*
X2803872Y-12982484D02*
X2822920Y-12982484D01*
X2822920Y-12982484D02*
X2841967Y-12992008D01*
X2841967Y-12992008D02*
X2851491Y-13001531D01*
X2851491Y-13001531D02*
X2861015Y-13020579D01*
X2861015Y-13020579D02*
X2870539Y-13058674D01*
X2870539Y-13058674D02*
X2870539Y-13106293D01*
X2870539Y-13106293D02*
X2861015Y-13144388D01*
X2861015Y-13144388D02*
X2851491Y-13163436D01*
X2851491Y-13163436D02*
X2841967Y-13172960D01*
X2841967Y-13172960D02*
X2822920Y-13182484D01*
X2822920Y-13182484D02*
X2803872Y-13182484D01*
X2803872Y-13182484D02*
X2784824Y-13172960D01*
X2784824Y-13172960D02*
X2775301Y-13163436D01*
X2775301Y-13163436D02*
X2765777Y-13144388D01*
X2765777Y-13144388D02*
X2756253Y-13106293D01*
X2756253Y-13106293D02*
X2756253Y-13058674D01*
X2756253Y-13058674D02*
X2765777Y-13020579D01*
X2765777Y-13020579D02*
X2775301Y-13001531D01*
X2775301Y-13001531D02*
X2784824Y-12992008D01*
X2784824Y-12992008D02*
X2803872Y-12982484D01*
X2956253Y-13163436D02*
X2965777Y-13172960D01*
X2965777Y-13172960D02*
X2956253Y-13182484D01*
X2956253Y-13182484D02*
X2946729Y-13172960D01*
X2946729Y-13172960D02*
X2956253Y-13163436D01*
X2956253Y-13163436D02*
X2956253Y-13182484D01*
X3137205Y-13049150D02*
X3137205Y-13182484D01*
X3089586Y-12972960D02*
X3041967Y-13115817D01*
X3041967Y-13115817D02*
X3165777Y-13115817D01*
X3280062Y-12982484D02*
X3299110Y-12982484D01*
X3299110Y-12982484D02*
X3318158Y-12992008D01*
X3318158Y-12992008D02*
X3327682Y-13001531D01*
X3327682Y-13001531D02*
X3337205Y-13020579D01*
X3337205Y-13020579D02*
X3346729Y-13058674D01*
X3346729Y-13058674D02*
X3346729Y-13106293D01*
X3346729Y-13106293D02*
X3337205Y-13144388D01*
X3337205Y-13144388D02*
X3327682Y-13163436D01*
X3327682Y-13163436D02*
X3318158Y-13172960D01*
X3318158Y-13172960D02*
X3299110Y-13182484D01*
X3299110Y-13182484D02*
X3280062Y-13182484D01*
X3280062Y-13182484D02*
X3261015Y-13172960D01*
X3261015Y-13172960D02*
X3251491Y-13163436D01*
X3251491Y-13163436D02*
X3241967Y-13144388D01*
X3241967Y-13144388D02*
X3232443Y-13106293D01*
X3232443Y-13106293D02*
X3232443Y-13058674D01*
X3232443Y-13058674D02*
X3241967Y-13020579D01*
X3241967Y-13020579D02*
X3251491Y-13001531D01*
X3251491Y-13001531D02*
X3261015Y-12992008D01*
X3261015Y-12992008D02*
X3280062Y-12982484D01*
X3470539Y-12982484D02*
X3489586Y-12982484D01*
X3489586Y-12982484D02*
X3508634Y-12992008D01*
X3508634Y-12992008D02*
X3518158Y-13001531D01*
X3518158Y-13001531D02*
X3527682Y-13020579D01*
X3527682Y-13020579D02*
X3537205Y-13058674D01*
X3537205Y-13058674D02*
X3537205Y-13106293D01*
X3537205Y-13106293D02*
X3527682Y-13144388D01*
X3527682Y-13144388D02*
X3518158Y-13163436D01*
X3518158Y-13163436D02*
X3508634Y-13172960D01*
X3508634Y-13172960D02*
X3489586Y-13182484D01*
X3489586Y-13182484D02*
X3470539Y-13182484D01*
X3470539Y-13182484D02*
X3451491Y-13172960D01*
X3451491Y-13172960D02*
X3441967Y-13163436D01*
X3441967Y-13163436D02*
X3432443Y-13144388D01*
X3432443Y-13144388D02*
X3422920Y-13106293D01*
X3422920Y-13106293D02*
X3422920Y-13058674D01*
X3422920Y-13058674D02*
X3432443Y-13020579D01*
X3432443Y-13020579D02*
X3441967Y-13001531D01*
X3441967Y-13001531D02*
X3451491Y-12992008D01*
X3451491Y-12992008D02*
X3470539Y-12982484D01*
X3622920Y-13182484D02*
X3622920Y-13049150D01*
X3622920Y-13068198D02*
X3632443Y-13058674D01*
X3632443Y-13058674D02*
X3651491Y-13049150D01*
X3651491Y-13049150D02*
X3680063Y-13049150D01*
X3680063Y-13049150D02*
X3699110Y-13058674D01*
X3699110Y-13058674D02*
X3708634Y-13077722D01*
X3708634Y-13077722D02*
X3708634Y-13182484D01*
X3708634Y-13077722D02*
X3718158Y-13058674D01*
X3718158Y-13058674D02*
X3737205Y-13049150D01*
X3737205Y-13049150D02*
X3765777Y-13049150D01*
X3765777Y-13049150D02*
X3784824Y-13058674D01*
X3784824Y-13058674D02*
X3794348Y-13077722D01*
X3794348Y-13077722D02*
X3794348Y-13182484D01*
X3889586Y-13182484D02*
X3889586Y-13049150D01*
X3889586Y-13068198D02*
X3899110Y-13058674D01*
X3899110Y-13058674D02*
X3918158Y-13049150D01*
X3918158Y-13049150D02*
X3946729Y-13049150D01*
X3946729Y-13049150D02*
X3965777Y-13058674D01*
X3965777Y-13058674D02*
X3975301Y-13077722D01*
X3975301Y-13077722D02*
X3975301Y-13182484D01*
X3975301Y-13077722D02*
X3984824Y-13058674D01*
X3984824Y-13058674D02*
X4003872Y-13049150D01*
X4003872Y-13049150D02*
X4032443Y-13049150D01*
X4032443Y-13049150D02*
X4051491Y-13058674D01*
X4051491Y-13058674D02*
X4061015Y-13077722D01*
X4061015Y-13077722D02*
X4061015Y-13182484D01*
X4451491Y-12972960D02*
X4280063Y-13230103D01*
X4708634Y-12982484D02*
X4727682Y-12982484D01*
X4727682Y-12982484D02*
X4746729Y-12992008D01*
X4746729Y-12992008D02*
X4756253Y-13001531D01*
X4756253Y-13001531D02*
X4765777Y-13020579D01*
X4765777Y-13020579D02*
X4775301Y-13058674D01*
X4775301Y-13058674D02*
X4775301Y-13106293D01*
X4775301Y-13106293D02*
X4765777Y-13144388D01*
X4765777Y-13144388D02*
X4756253Y-13163436D01*
X4756253Y-13163436D02*
X4746729Y-13172960D01*
X4746729Y-13172960D02*
X4727682Y-13182484D01*
X4727682Y-13182484D02*
X4708634Y-13182484D01*
X4708634Y-13182484D02*
X4689587Y-13172960D01*
X4689587Y-13172960D02*
X4680063Y-13163436D01*
X4680063Y-13163436D02*
X4670539Y-13144388D01*
X4670539Y-13144388D02*
X4661015Y-13106293D01*
X4661015Y-13106293D02*
X4661015Y-13058674D01*
X4661015Y-13058674D02*
X4670539Y-13020579D01*
X4670539Y-13020579D02*
X4680063Y-13001531D01*
X4680063Y-13001531D02*
X4689587Y-12992008D01*
X4689587Y-12992008D02*
X4708634Y-12982484D01*
X4861015Y-13163436D02*
X4870539Y-13172960D01*
X4870539Y-13172960D02*
X4861015Y-13182484D01*
X4861015Y-13182484D02*
X4851491Y-13172960D01*
X4851491Y-13172960D02*
X4861015Y-13163436D01*
X4861015Y-13163436D02*
X4861015Y-13182484D01*
X4994348Y-12982484D02*
X5013396Y-12982484D01*
X5013396Y-12982484D02*
X5032444Y-12992008D01*
X5032444Y-12992008D02*
X5041968Y-13001531D01*
X5041968Y-13001531D02*
X5051491Y-13020579D01*
X5051491Y-13020579D02*
X5061015Y-13058674D01*
X5061015Y-13058674D02*
X5061015Y-13106293D01*
X5061015Y-13106293D02*
X5051491Y-13144388D01*
X5051491Y-13144388D02*
X5041968Y-13163436D01*
X5041968Y-13163436D02*
X5032444Y-13172960D01*
X5032444Y-13172960D02*
X5013396Y-13182484D01*
X5013396Y-13182484D02*
X4994348Y-13182484D01*
X4994348Y-13182484D02*
X4975301Y-13172960D01*
X4975301Y-13172960D02*
X4965777Y-13163436D01*
X4965777Y-13163436D02*
X4956253Y-13144388D01*
X4956253Y-13144388D02*
X4946729Y-13106293D01*
X4946729Y-13106293D02*
X4946729Y-13058674D01*
X4946729Y-13058674D02*
X4956253Y-13020579D01*
X4956253Y-13020579D02*
X4965777Y-13001531D01*
X4965777Y-13001531D02*
X4975301Y-12992008D01*
X4975301Y-12992008D02*
X4994348Y-12982484D01*
X5251491Y-13182484D02*
X5137206Y-13182484D01*
X5194348Y-13182484D02*
X5194348Y-12982484D01*
X5194348Y-12982484D02*
X5175301Y-13011055D01*
X5175301Y-13011055D02*
X5156253Y-13030103D01*
X5156253Y-13030103D02*
X5137206Y-13039627D01*
X5432444Y-12982484D02*
X5337206Y-12982484D01*
X5337206Y-12982484D02*
X5327682Y-13077722D01*
X5327682Y-13077722D02*
X5337206Y-13068198D01*
X5337206Y-13068198D02*
X5356253Y-13058674D01*
X5356253Y-13058674D02*
X5403872Y-13058674D01*
X5403872Y-13058674D02*
X5422920Y-13068198D01*
X5422920Y-13068198D02*
X5432444Y-13077722D01*
X5432444Y-13077722D02*
X5441968Y-13096769D01*
X5441968Y-13096769D02*
X5441968Y-13144388D01*
X5441968Y-13144388D02*
X5432444Y-13163436D01*
X5432444Y-13163436D02*
X5422920Y-13172960D01*
X5422920Y-13172960D02*
X5403872Y-13182484D01*
X5403872Y-13182484D02*
X5356253Y-13182484D01*
X5356253Y-13182484D02*
X5337206Y-13172960D01*
X5337206Y-13172960D02*
X5327682Y-13163436D01*
X5508634Y-12982484D02*
X5641967Y-12982484D01*
X5641967Y-12982484D02*
X5556253Y-13182484D01*
X5708634Y-12982484D02*
X5708634Y-13020579D01*
X5784825Y-12982484D02*
X5784825Y-13020579D01*
X6080063Y-13258674D02*
X6070539Y-13249150D01*
X6070539Y-13249150D02*
X6051491Y-13220579D01*
X6051491Y-13220579D02*
X6041968Y-13201531D01*
X6041968Y-13201531D02*
X6032444Y-13172960D01*
X6032444Y-13172960D02*
X6022920Y-13125341D01*
X6022920Y-13125341D02*
X6022920Y-13087246D01*
X6022920Y-13087246D02*
X6032444Y-13039627D01*
X6032444Y-13039627D02*
X6041968Y-13011055D01*
X6041968Y-13011055D02*
X6051491Y-12992008D01*
X6051491Y-12992008D02*
X6070539Y-12963436D01*
X6070539Y-12963436D02*
X6080063Y-12953912D01*
X6184825Y-13068198D02*
X6165777Y-13058674D01*
X6165777Y-13058674D02*
X6156253Y-13049150D01*
X6156253Y-13049150D02*
X6146729Y-13030103D01*
X6146729Y-13030103D02*
X6146729Y-13020579D01*
X6146729Y-13020579D02*
X6156253Y-13001531D01*
X6156253Y-13001531D02*
X6165777Y-12992008D01*
X6165777Y-12992008D02*
X6184825Y-12982484D01*
X6184825Y-12982484D02*
X6222920Y-12982484D01*
X6222920Y-12982484D02*
X6241968Y-12992008D01*
X6241968Y-12992008D02*
X6251491Y-13001531D01*
X6251491Y-13001531D02*
X6261015Y-13020579D01*
X6261015Y-13020579D02*
X6261015Y-13030103D01*
X6261015Y-13030103D02*
X6251491Y-13049150D01*
X6251491Y-13049150D02*
X6241968Y-13058674D01*
X6241968Y-13058674D02*
X6222920Y-13068198D01*
X6222920Y-13068198D02*
X6184825Y-13068198D01*
X6184825Y-13068198D02*
X6165777Y-13077722D01*
X6165777Y-13077722D02*
X6156253Y-13087246D01*
X6156253Y-13087246D02*
X6146729Y-13106293D01*
X6146729Y-13106293D02*
X6146729Y-13144388D01*
X6146729Y-13144388D02*
X6156253Y-13163436D01*
X6156253Y-13163436D02*
X6165777Y-13172960D01*
X6165777Y-13172960D02*
X6184825Y-13182484D01*
X6184825Y-13182484D02*
X6222920Y-13182484D01*
X6222920Y-13182484D02*
X6241968Y-13172960D01*
X6241968Y-13172960D02*
X6251491Y-13163436D01*
X6251491Y-13163436D02*
X6261015Y-13144388D01*
X6261015Y-13144388D02*
X6261015Y-13106293D01*
X6261015Y-13106293D02*
X6251491Y-13087246D01*
X6251491Y-13087246D02*
X6241968Y-13077722D01*
X6241968Y-13077722D02*
X6222920Y-13068198D01*
X6384825Y-12982484D02*
X6403872Y-12982484D01*
X6403872Y-12982484D02*
X6422920Y-12992008D01*
X6422920Y-12992008D02*
X6432444Y-13001531D01*
X6432444Y-13001531D02*
X6441968Y-13020579D01*
X6441968Y-13020579D02*
X6451491Y-13058674D01*
X6451491Y-13058674D02*
X6451491Y-13106293D01*
X6451491Y-13106293D02*
X6441968Y-13144388D01*
X6441968Y-13144388D02*
X6432444Y-13163436D01*
X6432444Y-13163436D02*
X6422920Y-13172960D01*
X6422920Y-13172960D02*
X6403872Y-13182484D01*
X6403872Y-13182484D02*
X6384825Y-13182484D01*
X6384825Y-13182484D02*
X6365777Y-13172960D01*
X6365777Y-13172960D02*
X6356253Y-13163436D01*
X6356253Y-13163436D02*
X6346729Y-13144388D01*
X6346729Y-13144388D02*
X6337206Y-13106293D01*
X6337206Y-13106293D02*
X6337206Y-13058674D01*
X6337206Y-13058674D02*
X6346729Y-13020579D01*
X6346729Y-13020579D02*
X6356253Y-13001531D01*
X6356253Y-13001531D02*
X6365777Y-12992008D01*
X6365777Y-12992008D02*
X6384825Y-12982484D01*
X6689587Y-13182484D02*
X6689587Y-12982484D01*
X6775301Y-13182484D02*
X6775301Y-13077722D01*
X6775301Y-13077722D02*
X6765777Y-13058674D01*
X6765777Y-13058674D02*
X6746730Y-13049150D01*
X6746730Y-13049150D02*
X6718158Y-13049150D01*
X6718158Y-13049150D02*
X6699110Y-13058674D01*
X6699110Y-13058674D02*
X6689587Y-13068198D01*
X6899110Y-13182484D02*
X6880063Y-13172960D01*
X6880063Y-13172960D02*
X6870539Y-13163436D01*
X6870539Y-13163436D02*
X6861015Y-13144388D01*
X6861015Y-13144388D02*
X6861015Y-13087246D01*
X6861015Y-13087246D02*
X6870539Y-13068198D01*
X6870539Y-13068198D02*
X6880063Y-13058674D01*
X6880063Y-13058674D02*
X6899110Y-13049150D01*
X6899110Y-13049150D02*
X6927682Y-13049150D01*
X6927682Y-13049150D02*
X6946730Y-13058674D01*
X6946730Y-13058674D02*
X6956253Y-13068198D01*
X6956253Y-13068198D02*
X6965777Y-13087246D01*
X6965777Y-13087246D02*
X6965777Y-13144388D01*
X6965777Y-13144388D02*
X6956253Y-13163436D01*
X6956253Y-13163436D02*
X6946730Y-13172960D01*
X6946730Y-13172960D02*
X6927682Y-13182484D01*
X6927682Y-13182484D02*
X6899110Y-13182484D01*
X7080063Y-13182484D02*
X7061015Y-13172960D01*
X7061015Y-13172960D02*
X7051491Y-13153912D01*
X7051491Y-13153912D02*
X7051491Y-12982484D01*
X7232444Y-13172960D02*
X7213396Y-13182484D01*
X7213396Y-13182484D02*
X7175301Y-13182484D01*
X7175301Y-13182484D02*
X7156253Y-13172960D01*
X7156253Y-13172960D02*
X7146730Y-13153912D01*
X7146730Y-13153912D02*
X7146730Y-13077722D01*
X7146730Y-13077722D02*
X7156253Y-13058674D01*
X7156253Y-13058674D02*
X7175301Y-13049150D01*
X7175301Y-13049150D02*
X7213396Y-13049150D01*
X7213396Y-13049150D02*
X7232444Y-13058674D01*
X7232444Y-13058674D02*
X7241968Y-13077722D01*
X7241968Y-13077722D02*
X7241968Y-13096769D01*
X7241968Y-13096769D02*
X7146730Y-13115817D01*
X7318158Y-13172960D02*
X7337206Y-13182484D01*
X7337206Y-13182484D02*
X7375301Y-13182484D01*
X7375301Y-13182484D02*
X7394349Y-13172960D01*
X7394349Y-13172960D02*
X7403872Y-13153912D01*
X7403872Y-13153912D02*
X7403872Y-13144388D01*
X7403872Y-13144388D02*
X7394349Y-13125341D01*
X7394349Y-13125341D02*
X7375301Y-13115817D01*
X7375301Y-13115817D02*
X7346730Y-13115817D01*
X7346730Y-13115817D02*
X7327682Y-13106293D01*
X7327682Y-13106293D02*
X7318158Y-13087246D01*
X7318158Y-13087246D02*
X7318158Y-13077722D01*
X7318158Y-13077722D02*
X7327682Y-13058674D01*
X7327682Y-13058674D02*
X7346730Y-13049150D01*
X7346730Y-13049150D02*
X7375301Y-13049150D01*
X7375301Y-13049150D02*
X7394349Y-13058674D01*
X7470539Y-13258674D02*
X7480063Y-13249150D01*
X7480063Y-13249150D02*
X7499111Y-13220579D01*
X7499111Y-13220579D02*
X7508634Y-13201531D01*
X7508634Y-13201531D02*
X7518158Y-13172960D01*
X7518158Y-13172960D02*
X7527682Y-13125341D01*
X7527682Y-13125341D02*
X7527682Y-13087246D01*
X7527682Y-13087246D02*
X7518158Y-13039627D01*
X7518158Y-13039627D02*
X7508634Y-13011055D01*
X7508634Y-13011055D02*
X7499111Y-12992008D01*
X7499111Y-12992008D02*
X7480063Y-12963436D01*
X7480063Y-12963436D02*
X7470539Y-12953912D01*
D13*
X2505000Y-13355000D02*
G75*
G03*
X2505000Y-13355000I-37500J0D01*
G01*
D11*
X2803872Y-13246484D02*
X2822920Y-13246484D01*
X2822920Y-13246484D02*
X2841967Y-13256008D01*
X2841967Y-13256008D02*
X2851491Y-13265531D01*
X2851491Y-13265531D02*
X2861015Y-13284579D01*
X2861015Y-13284579D02*
X2870539Y-13322674D01*
X2870539Y-13322674D02*
X2870539Y-13370293D01*
X2870539Y-13370293D02*
X2861015Y-13408388D01*
X2861015Y-13408388D02*
X2851491Y-13427436D01*
X2851491Y-13427436D02*
X2841967Y-13436960D01*
X2841967Y-13436960D02*
X2822920Y-13446484D01*
X2822920Y-13446484D02*
X2803872Y-13446484D01*
X2803872Y-13446484D02*
X2784824Y-13436960D01*
X2784824Y-13436960D02*
X2775301Y-13427436D01*
X2775301Y-13427436D02*
X2765777Y-13408388D01*
X2765777Y-13408388D02*
X2756253Y-13370293D01*
X2756253Y-13370293D02*
X2756253Y-13322674D01*
X2756253Y-13322674D02*
X2765777Y-13284579D01*
X2765777Y-13284579D02*
X2775301Y-13265531D01*
X2775301Y-13265531D02*
X2784824Y-13256008D01*
X2784824Y-13256008D02*
X2803872Y-13246484D01*
X2956253Y-13427436D02*
X2965777Y-13436960D01*
X2965777Y-13436960D02*
X2956253Y-13446484D01*
X2956253Y-13446484D02*
X2946729Y-13436960D01*
X2946729Y-13436960D02*
X2956253Y-13427436D01*
X2956253Y-13427436D02*
X2956253Y-13446484D01*
X3032443Y-13246484D02*
X3165777Y-13246484D01*
X3165777Y-13246484D02*
X3080062Y-13446484D01*
X3337205Y-13246484D02*
X3241967Y-13246484D01*
X3241967Y-13246484D02*
X3232443Y-13341722D01*
X3232443Y-13341722D02*
X3241967Y-13332198D01*
X3241967Y-13332198D02*
X3261015Y-13322674D01*
X3261015Y-13322674D02*
X3308634Y-13322674D01*
X3308634Y-13322674D02*
X3327682Y-13332198D01*
X3327682Y-13332198D02*
X3337205Y-13341722D01*
X3337205Y-13341722D02*
X3346729Y-13360769D01*
X3346729Y-13360769D02*
X3346729Y-13408388D01*
X3346729Y-13408388D02*
X3337205Y-13427436D01*
X3337205Y-13427436D02*
X3327682Y-13436960D01*
X3327682Y-13436960D02*
X3308634Y-13446484D01*
X3308634Y-13446484D02*
X3261015Y-13446484D01*
X3261015Y-13446484D02*
X3241967Y-13436960D01*
X3241967Y-13436960D02*
X3232443Y-13427436D01*
X3470539Y-13246484D02*
X3489586Y-13246484D01*
X3489586Y-13246484D02*
X3508634Y-13256008D01*
X3508634Y-13256008D02*
X3518158Y-13265531D01*
X3518158Y-13265531D02*
X3527682Y-13284579D01*
X3527682Y-13284579D02*
X3537205Y-13322674D01*
X3537205Y-13322674D02*
X3537205Y-13370293D01*
X3537205Y-13370293D02*
X3527682Y-13408388D01*
X3527682Y-13408388D02*
X3518158Y-13427436D01*
X3518158Y-13427436D02*
X3508634Y-13436960D01*
X3508634Y-13436960D02*
X3489586Y-13446484D01*
X3489586Y-13446484D02*
X3470539Y-13446484D01*
X3470539Y-13446484D02*
X3451491Y-13436960D01*
X3451491Y-13436960D02*
X3441967Y-13427436D01*
X3441967Y-13427436D02*
X3432443Y-13408388D01*
X3432443Y-13408388D02*
X3422920Y-13370293D01*
X3422920Y-13370293D02*
X3422920Y-13322674D01*
X3422920Y-13322674D02*
X3432443Y-13284579D01*
X3432443Y-13284579D02*
X3441967Y-13265531D01*
X3441967Y-13265531D02*
X3451491Y-13256008D01*
X3451491Y-13256008D02*
X3470539Y-13246484D01*
X3622920Y-13446484D02*
X3622920Y-13313150D01*
X3622920Y-13332198D02*
X3632443Y-13322674D01*
X3632443Y-13322674D02*
X3651491Y-13313150D01*
X3651491Y-13313150D02*
X3680063Y-13313150D01*
X3680063Y-13313150D02*
X3699110Y-13322674D01*
X3699110Y-13322674D02*
X3708634Y-13341722D01*
X3708634Y-13341722D02*
X3708634Y-13446484D01*
X3708634Y-13341722D02*
X3718158Y-13322674D01*
X3718158Y-13322674D02*
X3737205Y-13313150D01*
X3737205Y-13313150D02*
X3765777Y-13313150D01*
X3765777Y-13313150D02*
X3784824Y-13322674D01*
X3784824Y-13322674D02*
X3794348Y-13341722D01*
X3794348Y-13341722D02*
X3794348Y-13446484D01*
X3889586Y-13446484D02*
X3889586Y-13313150D01*
X3889586Y-13332198D02*
X3899110Y-13322674D01*
X3899110Y-13322674D02*
X3918158Y-13313150D01*
X3918158Y-13313150D02*
X3946729Y-13313150D01*
X3946729Y-13313150D02*
X3965777Y-13322674D01*
X3965777Y-13322674D02*
X3975301Y-13341722D01*
X3975301Y-13341722D02*
X3975301Y-13446484D01*
X3975301Y-13341722D02*
X3984824Y-13322674D01*
X3984824Y-13322674D02*
X4003872Y-13313150D01*
X4003872Y-13313150D02*
X4032443Y-13313150D01*
X4032443Y-13313150D02*
X4051491Y-13322674D01*
X4051491Y-13322674D02*
X4061015Y-13341722D01*
X4061015Y-13341722D02*
X4061015Y-13446484D01*
X4451491Y-13236960D02*
X4280063Y-13494103D01*
X4708634Y-13246484D02*
X4727682Y-13246484D01*
X4727682Y-13246484D02*
X4746729Y-13256008D01*
X4746729Y-13256008D02*
X4756253Y-13265531D01*
X4756253Y-13265531D02*
X4765777Y-13284579D01*
X4765777Y-13284579D02*
X4775301Y-13322674D01*
X4775301Y-13322674D02*
X4775301Y-13370293D01*
X4775301Y-13370293D02*
X4765777Y-13408388D01*
X4765777Y-13408388D02*
X4756253Y-13427436D01*
X4756253Y-13427436D02*
X4746729Y-13436960D01*
X4746729Y-13436960D02*
X4727682Y-13446484D01*
X4727682Y-13446484D02*
X4708634Y-13446484D01*
X4708634Y-13446484D02*
X4689587Y-13436960D01*
X4689587Y-13436960D02*
X4680063Y-13427436D01*
X4680063Y-13427436D02*
X4670539Y-13408388D01*
X4670539Y-13408388D02*
X4661015Y-13370293D01*
X4661015Y-13370293D02*
X4661015Y-13322674D01*
X4661015Y-13322674D02*
X4670539Y-13284579D01*
X4670539Y-13284579D02*
X4680063Y-13265531D01*
X4680063Y-13265531D02*
X4689587Y-13256008D01*
X4689587Y-13256008D02*
X4708634Y-13246484D01*
X4861015Y-13427436D02*
X4870539Y-13436960D01*
X4870539Y-13436960D02*
X4861015Y-13446484D01*
X4861015Y-13446484D02*
X4851491Y-13436960D01*
X4851491Y-13436960D02*
X4861015Y-13427436D01*
X4861015Y-13427436D02*
X4861015Y-13446484D01*
X4994348Y-13246484D02*
X5013396Y-13246484D01*
X5013396Y-13246484D02*
X5032444Y-13256008D01*
X5032444Y-13256008D02*
X5041968Y-13265531D01*
X5041968Y-13265531D02*
X5051491Y-13284579D01*
X5051491Y-13284579D02*
X5061015Y-13322674D01*
X5061015Y-13322674D02*
X5061015Y-13370293D01*
X5061015Y-13370293D02*
X5051491Y-13408388D01*
X5051491Y-13408388D02*
X5041968Y-13427436D01*
X5041968Y-13427436D02*
X5032444Y-13436960D01*
X5032444Y-13436960D02*
X5013396Y-13446484D01*
X5013396Y-13446484D02*
X4994348Y-13446484D01*
X4994348Y-13446484D02*
X4975301Y-13436960D01*
X4975301Y-13436960D02*
X4965777Y-13427436D01*
X4965777Y-13427436D02*
X4956253Y-13408388D01*
X4956253Y-13408388D02*
X4946729Y-13370293D01*
X4946729Y-13370293D02*
X4946729Y-13322674D01*
X4946729Y-13322674D02*
X4956253Y-13284579D01*
X4956253Y-13284579D02*
X4965777Y-13265531D01*
X4965777Y-13265531D02*
X4975301Y-13256008D01*
X4975301Y-13256008D02*
X4994348Y-13246484D01*
X5137206Y-13265531D02*
X5146729Y-13256008D01*
X5146729Y-13256008D02*
X5165777Y-13246484D01*
X5165777Y-13246484D02*
X5213396Y-13246484D01*
X5213396Y-13246484D02*
X5232444Y-13256008D01*
X5232444Y-13256008D02*
X5241968Y-13265531D01*
X5241968Y-13265531D02*
X5251491Y-13284579D01*
X5251491Y-13284579D02*
X5251491Y-13303627D01*
X5251491Y-13303627D02*
X5241968Y-13332198D01*
X5241968Y-13332198D02*
X5127682Y-13446484D01*
X5127682Y-13446484D02*
X5251491Y-13446484D01*
X5346729Y-13446484D02*
X5384825Y-13446484D01*
X5384825Y-13446484D02*
X5403872Y-13436960D01*
X5403872Y-13436960D02*
X5413396Y-13427436D01*
X5413396Y-13427436D02*
X5432444Y-13398865D01*
X5432444Y-13398865D02*
X5441968Y-13360769D01*
X5441968Y-13360769D02*
X5441968Y-13284579D01*
X5441968Y-13284579D02*
X5432444Y-13265531D01*
X5432444Y-13265531D02*
X5422920Y-13256008D01*
X5422920Y-13256008D02*
X5403872Y-13246484D01*
X5403872Y-13246484D02*
X5365777Y-13246484D01*
X5365777Y-13246484D02*
X5346729Y-13256008D01*
X5346729Y-13256008D02*
X5337206Y-13265531D01*
X5337206Y-13265531D02*
X5327682Y-13284579D01*
X5327682Y-13284579D02*
X5327682Y-13332198D01*
X5327682Y-13332198D02*
X5337206Y-13351246D01*
X5337206Y-13351246D02*
X5346729Y-13360769D01*
X5346729Y-13360769D02*
X5365777Y-13370293D01*
X5365777Y-13370293D02*
X5403872Y-13370293D01*
X5403872Y-13370293D02*
X5422920Y-13360769D01*
X5422920Y-13360769D02*
X5432444Y-13351246D01*
X5432444Y-13351246D02*
X5441968Y-13332198D01*
X5622920Y-13246484D02*
X5527682Y-13246484D01*
X5527682Y-13246484D02*
X5518158Y-13341722D01*
X5518158Y-13341722D02*
X5527682Y-13332198D01*
X5527682Y-13332198D02*
X5546729Y-13322674D01*
X5546729Y-13322674D02*
X5594348Y-13322674D01*
X5594348Y-13322674D02*
X5613396Y-13332198D01*
X5613396Y-13332198D02*
X5622920Y-13341722D01*
X5622920Y-13341722D02*
X5632444Y-13360769D01*
X5632444Y-13360769D02*
X5632444Y-13408388D01*
X5632444Y-13408388D02*
X5622920Y-13427436D01*
X5622920Y-13427436D02*
X5613396Y-13436960D01*
X5613396Y-13436960D02*
X5594348Y-13446484D01*
X5594348Y-13446484D02*
X5546729Y-13446484D01*
X5546729Y-13446484D02*
X5527682Y-13436960D01*
X5527682Y-13436960D02*
X5518158Y-13427436D01*
X5708634Y-13246484D02*
X5708634Y-13284579D01*
X5784825Y-13246484D02*
X5784825Y-13284579D01*
X6080063Y-13522674D02*
X6070539Y-13513150D01*
X6070539Y-13513150D02*
X6051491Y-13484579D01*
X6051491Y-13484579D02*
X6041968Y-13465531D01*
X6041968Y-13465531D02*
X6032444Y-13436960D01*
X6032444Y-13436960D02*
X6022920Y-13389341D01*
X6022920Y-13389341D02*
X6022920Y-13351246D01*
X6022920Y-13351246D02*
X6032444Y-13303627D01*
X6032444Y-13303627D02*
X6041968Y-13275055D01*
X6041968Y-13275055D02*
X6051491Y-13256008D01*
X6051491Y-13256008D02*
X6070539Y-13227436D01*
X6070539Y-13227436D02*
X6080063Y-13217912D01*
X6137206Y-13246484D02*
X6261015Y-13246484D01*
X6261015Y-13246484D02*
X6194348Y-13322674D01*
X6194348Y-13322674D02*
X6222920Y-13322674D01*
X6222920Y-13322674D02*
X6241968Y-13332198D01*
X6241968Y-13332198D02*
X6251491Y-13341722D01*
X6251491Y-13341722D02*
X6261015Y-13360769D01*
X6261015Y-13360769D02*
X6261015Y-13408388D01*
X6261015Y-13408388D02*
X6251491Y-13427436D01*
X6251491Y-13427436D02*
X6241968Y-13436960D01*
X6241968Y-13436960D02*
X6222920Y-13446484D01*
X6222920Y-13446484D02*
X6165777Y-13446484D01*
X6165777Y-13446484D02*
X6146729Y-13436960D01*
X6146729Y-13436960D02*
X6137206Y-13427436D01*
X6499110Y-13446484D02*
X6499110Y-13246484D01*
X6584825Y-13446484D02*
X6584825Y-13341722D01*
X6584825Y-13341722D02*
X6575301Y-13322674D01*
X6575301Y-13322674D02*
X6556253Y-13313150D01*
X6556253Y-13313150D02*
X6527682Y-13313150D01*
X6527682Y-13313150D02*
X6508634Y-13322674D01*
X6508634Y-13322674D02*
X6499110Y-13332198D01*
X6708634Y-13446484D02*
X6689587Y-13436960D01*
X6689587Y-13436960D02*
X6680063Y-13427436D01*
X6680063Y-13427436D02*
X6670539Y-13408388D01*
X6670539Y-13408388D02*
X6670539Y-13351246D01*
X6670539Y-13351246D02*
X6680063Y-13332198D01*
X6680063Y-13332198D02*
X6689587Y-13322674D01*
X6689587Y-13322674D02*
X6708634Y-13313150D01*
X6708634Y-13313150D02*
X6737206Y-13313150D01*
X6737206Y-13313150D02*
X6756253Y-13322674D01*
X6756253Y-13322674D02*
X6765777Y-13332198D01*
X6765777Y-13332198D02*
X6775301Y-13351246D01*
X6775301Y-13351246D02*
X6775301Y-13408388D01*
X6775301Y-13408388D02*
X6765777Y-13427436D01*
X6765777Y-13427436D02*
X6756253Y-13436960D01*
X6756253Y-13436960D02*
X6737206Y-13446484D01*
X6737206Y-13446484D02*
X6708634Y-13446484D01*
X6889587Y-13446484D02*
X6870539Y-13436960D01*
X6870539Y-13436960D02*
X6861015Y-13417912D01*
X6861015Y-13417912D02*
X6861015Y-13246484D01*
X7041968Y-13436960D02*
X7022920Y-13446484D01*
X7022920Y-13446484D02*
X6984825Y-13446484D01*
X6984825Y-13446484D02*
X6965777Y-13436960D01*
X6965777Y-13436960D02*
X6956253Y-13417912D01*
X6956253Y-13417912D02*
X6956253Y-13341722D01*
X6956253Y-13341722D02*
X6965777Y-13322674D01*
X6965777Y-13322674D02*
X6984825Y-13313150D01*
X6984825Y-13313150D02*
X7022920Y-13313150D01*
X7022920Y-13313150D02*
X7041968Y-13322674D01*
X7041968Y-13322674D02*
X7051491Y-13341722D01*
X7051491Y-13341722D02*
X7051491Y-13360769D01*
X7051491Y-13360769D02*
X6956253Y-13379817D01*
X7127682Y-13436960D02*
X7146730Y-13446484D01*
X7146730Y-13446484D02*
X7184825Y-13446484D01*
X7184825Y-13446484D02*
X7203872Y-13436960D01*
X7203872Y-13436960D02*
X7213396Y-13417912D01*
X7213396Y-13417912D02*
X7213396Y-13408388D01*
X7213396Y-13408388D02*
X7203872Y-13389341D01*
X7203872Y-13389341D02*
X7184825Y-13379817D01*
X7184825Y-13379817D02*
X7156253Y-13379817D01*
X7156253Y-13379817D02*
X7137206Y-13370293D01*
X7137206Y-13370293D02*
X7127682Y-13351246D01*
X7127682Y-13351246D02*
X7127682Y-13341722D01*
X7127682Y-13341722D02*
X7137206Y-13322674D01*
X7137206Y-13322674D02*
X7156253Y-13313150D01*
X7156253Y-13313150D02*
X7184825Y-13313150D01*
X7184825Y-13313150D02*
X7203872Y-13322674D01*
X7280063Y-13522674D02*
X7289587Y-13513150D01*
X7289587Y-13513150D02*
X7308634Y-13484579D01*
X7308634Y-13484579D02*
X7318158Y-13465531D01*
X7318158Y-13465531D02*
X7327682Y-13436960D01*
X7327682Y-13436960D02*
X7337206Y-13389341D01*
X7337206Y-13389341D02*
X7337206Y-13351246D01*
X7337206Y-13351246D02*
X7327682Y-13303627D01*
X7327682Y-13303627D02*
X7318158Y-13275055D01*
X7318158Y-13275055D02*
X7308634Y-13256008D01*
X7308634Y-13256008D02*
X7289587Y-13227436D01*
X7289587Y-13227436D02*
X7280063Y-13217912D01*
D14*
X2459000Y-13573000D02*
X2459000Y-13665000D01*
X2413000Y-13619000D02*
X2505000Y-13619000D01*
D11*
X2803872Y-13510484D02*
X2822920Y-13510484D01*
X2822920Y-13510484D02*
X2841967Y-13520008D01*
X2841967Y-13520008D02*
X2851491Y-13529531D01*
X2851491Y-13529531D02*
X2861015Y-13548579D01*
X2861015Y-13548579D02*
X2870539Y-13586674D01*
X2870539Y-13586674D02*
X2870539Y-13634293D01*
X2870539Y-13634293D02*
X2861015Y-13672388D01*
X2861015Y-13672388D02*
X2851491Y-13691436D01*
X2851491Y-13691436D02*
X2841967Y-13700960D01*
X2841967Y-13700960D02*
X2822920Y-13710484D01*
X2822920Y-13710484D02*
X2803872Y-13710484D01*
X2803872Y-13710484D02*
X2784824Y-13700960D01*
X2784824Y-13700960D02*
X2775301Y-13691436D01*
X2775301Y-13691436D02*
X2765777Y-13672388D01*
X2765777Y-13672388D02*
X2756253Y-13634293D01*
X2756253Y-13634293D02*
X2756253Y-13586674D01*
X2756253Y-13586674D02*
X2765777Y-13548579D01*
X2765777Y-13548579D02*
X2775301Y-13529531D01*
X2775301Y-13529531D02*
X2784824Y-13520008D01*
X2784824Y-13520008D02*
X2803872Y-13510484D01*
X2956253Y-13691436D02*
X2965777Y-13700960D01*
X2965777Y-13700960D02*
X2956253Y-13710484D01*
X2956253Y-13710484D02*
X2946729Y-13700960D01*
X2946729Y-13700960D02*
X2956253Y-13691436D01*
X2956253Y-13691436D02*
X2956253Y-13710484D01*
X3061015Y-13710484D02*
X3099110Y-13710484D01*
X3099110Y-13710484D02*
X3118158Y-13700960D01*
X3118158Y-13700960D02*
X3127682Y-13691436D01*
X3127682Y-13691436D02*
X3146729Y-13662865D01*
X3146729Y-13662865D02*
X3156253Y-13624769D01*
X3156253Y-13624769D02*
X3156253Y-13548579D01*
X3156253Y-13548579D02*
X3146729Y-13529531D01*
X3146729Y-13529531D02*
X3137205Y-13520008D01*
X3137205Y-13520008D02*
X3118158Y-13510484D01*
X3118158Y-13510484D02*
X3080062Y-13510484D01*
X3080062Y-13510484D02*
X3061015Y-13520008D01*
X3061015Y-13520008D02*
X3051491Y-13529531D01*
X3051491Y-13529531D02*
X3041967Y-13548579D01*
X3041967Y-13548579D02*
X3041967Y-13596198D01*
X3041967Y-13596198D02*
X3051491Y-13615246D01*
X3051491Y-13615246D02*
X3061015Y-13624769D01*
X3061015Y-13624769D02*
X3080062Y-13634293D01*
X3080062Y-13634293D02*
X3118158Y-13634293D01*
X3118158Y-13634293D02*
X3137205Y-13624769D01*
X3137205Y-13624769D02*
X3146729Y-13615246D01*
X3146729Y-13615246D02*
X3156253Y-13596198D01*
X3232443Y-13529531D02*
X3241967Y-13520008D01*
X3241967Y-13520008D02*
X3261015Y-13510484D01*
X3261015Y-13510484D02*
X3308634Y-13510484D01*
X3308634Y-13510484D02*
X3327682Y-13520008D01*
X3327682Y-13520008D02*
X3337205Y-13529531D01*
X3337205Y-13529531D02*
X3346729Y-13548579D01*
X3346729Y-13548579D02*
X3346729Y-13567627D01*
X3346729Y-13567627D02*
X3337205Y-13596198D01*
X3337205Y-13596198D02*
X3222920Y-13710484D01*
X3222920Y-13710484D02*
X3346729Y-13710484D01*
X3470539Y-13510484D02*
X3489586Y-13510484D01*
X3489586Y-13510484D02*
X3508634Y-13520008D01*
X3508634Y-13520008D02*
X3518158Y-13529531D01*
X3518158Y-13529531D02*
X3527682Y-13548579D01*
X3527682Y-13548579D02*
X3537205Y-13586674D01*
X3537205Y-13586674D02*
X3537205Y-13634293D01*
X3537205Y-13634293D02*
X3527682Y-13672388D01*
X3527682Y-13672388D02*
X3518158Y-13691436D01*
X3518158Y-13691436D02*
X3508634Y-13700960D01*
X3508634Y-13700960D02*
X3489586Y-13710484D01*
X3489586Y-13710484D02*
X3470539Y-13710484D01*
X3470539Y-13710484D02*
X3451491Y-13700960D01*
X3451491Y-13700960D02*
X3441967Y-13691436D01*
X3441967Y-13691436D02*
X3432443Y-13672388D01*
X3432443Y-13672388D02*
X3422920Y-13634293D01*
X3422920Y-13634293D02*
X3422920Y-13586674D01*
X3422920Y-13586674D02*
X3432443Y-13548579D01*
X3432443Y-13548579D02*
X3441967Y-13529531D01*
X3441967Y-13529531D02*
X3451491Y-13520008D01*
X3451491Y-13520008D02*
X3470539Y-13510484D01*
X3622920Y-13710484D02*
X3622920Y-13577150D01*
X3622920Y-13596198D02*
X3632443Y-13586674D01*
X3632443Y-13586674D02*
X3651491Y-13577150D01*
X3651491Y-13577150D02*
X3680063Y-13577150D01*
X3680063Y-13577150D02*
X3699110Y-13586674D01*
X3699110Y-13586674D02*
X3708634Y-13605722D01*
X3708634Y-13605722D02*
X3708634Y-13710484D01*
X3708634Y-13605722D02*
X3718158Y-13586674D01*
X3718158Y-13586674D02*
X3737205Y-13577150D01*
X3737205Y-13577150D02*
X3765777Y-13577150D01*
X3765777Y-13577150D02*
X3784824Y-13586674D01*
X3784824Y-13586674D02*
X3794348Y-13605722D01*
X3794348Y-13605722D02*
X3794348Y-13710484D01*
X3889586Y-13710484D02*
X3889586Y-13577150D01*
X3889586Y-13596198D02*
X3899110Y-13586674D01*
X3899110Y-13586674D02*
X3918158Y-13577150D01*
X3918158Y-13577150D02*
X3946729Y-13577150D01*
X3946729Y-13577150D02*
X3965777Y-13586674D01*
X3965777Y-13586674D02*
X3975301Y-13605722D01*
X3975301Y-13605722D02*
X3975301Y-13710484D01*
X3975301Y-13605722D02*
X3984824Y-13586674D01*
X3984824Y-13586674D02*
X4003872Y-13577150D01*
X4003872Y-13577150D02*
X4032443Y-13577150D01*
X4032443Y-13577150D02*
X4051491Y-13586674D01*
X4051491Y-13586674D02*
X4061015Y-13605722D01*
X4061015Y-13605722D02*
X4061015Y-13710484D01*
X4451491Y-13500960D02*
X4280063Y-13758103D01*
X4708634Y-13510484D02*
X4727682Y-13510484D01*
X4727682Y-13510484D02*
X4746729Y-13520008D01*
X4746729Y-13520008D02*
X4756253Y-13529531D01*
X4756253Y-13529531D02*
X4765777Y-13548579D01*
X4765777Y-13548579D02*
X4775301Y-13586674D01*
X4775301Y-13586674D02*
X4775301Y-13634293D01*
X4775301Y-13634293D02*
X4765777Y-13672388D01*
X4765777Y-13672388D02*
X4756253Y-13691436D01*
X4756253Y-13691436D02*
X4746729Y-13700960D01*
X4746729Y-13700960D02*
X4727682Y-13710484D01*
X4727682Y-13710484D02*
X4708634Y-13710484D01*
X4708634Y-13710484D02*
X4689587Y-13700960D01*
X4689587Y-13700960D02*
X4680063Y-13691436D01*
X4680063Y-13691436D02*
X4670539Y-13672388D01*
X4670539Y-13672388D02*
X4661015Y-13634293D01*
X4661015Y-13634293D02*
X4661015Y-13586674D01*
X4661015Y-13586674D02*
X4670539Y-13548579D01*
X4670539Y-13548579D02*
X4680063Y-13529531D01*
X4680063Y-13529531D02*
X4689587Y-13520008D01*
X4689587Y-13520008D02*
X4708634Y-13510484D01*
X4861015Y-13691436D02*
X4870539Y-13700960D01*
X4870539Y-13700960D02*
X4861015Y-13710484D01*
X4861015Y-13710484D02*
X4851491Y-13700960D01*
X4851491Y-13700960D02*
X4861015Y-13691436D01*
X4861015Y-13691436D02*
X4861015Y-13710484D01*
X4994348Y-13510484D02*
X5013396Y-13510484D01*
X5013396Y-13510484D02*
X5032444Y-13520008D01*
X5032444Y-13520008D02*
X5041968Y-13529531D01*
X5041968Y-13529531D02*
X5051491Y-13548579D01*
X5051491Y-13548579D02*
X5061015Y-13586674D01*
X5061015Y-13586674D02*
X5061015Y-13634293D01*
X5061015Y-13634293D02*
X5051491Y-13672388D01*
X5051491Y-13672388D02*
X5041968Y-13691436D01*
X5041968Y-13691436D02*
X5032444Y-13700960D01*
X5032444Y-13700960D02*
X5013396Y-13710484D01*
X5013396Y-13710484D02*
X4994348Y-13710484D01*
X4994348Y-13710484D02*
X4975301Y-13700960D01*
X4975301Y-13700960D02*
X4965777Y-13691436D01*
X4965777Y-13691436D02*
X4956253Y-13672388D01*
X4956253Y-13672388D02*
X4946729Y-13634293D01*
X4946729Y-13634293D02*
X4946729Y-13586674D01*
X4946729Y-13586674D02*
X4956253Y-13548579D01*
X4956253Y-13548579D02*
X4965777Y-13529531D01*
X4965777Y-13529531D02*
X4975301Y-13520008D01*
X4975301Y-13520008D02*
X4994348Y-13510484D01*
X5127682Y-13510484D02*
X5251491Y-13510484D01*
X5251491Y-13510484D02*
X5184825Y-13586674D01*
X5184825Y-13586674D02*
X5213396Y-13586674D01*
X5213396Y-13586674D02*
X5232444Y-13596198D01*
X5232444Y-13596198D02*
X5241968Y-13605722D01*
X5241968Y-13605722D02*
X5251491Y-13624769D01*
X5251491Y-13624769D02*
X5251491Y-13672388D01*
X5251491Y-13672388D02*
X5241968Y-13691436D01*
X5241968Y-13691436D02*
X5232444Y-13700960D01*
X5232444Y-13700960D02*
X5213396Y-13710484D01*
X5213396Y-13710484D02*
X5156253Y-13710484D01*
X5156253Y-13710484D02*
X5137206Y-13700960D01*
X5137206Y-13700960D02*
X5127682Y-13691436D01*
X5422920Y-13510484D02*
X5384825Y-13510484D01*
X5384825Y-13510484D02*
X5365777Y-13520008D01*
X5365777Y-13520008D02*
X5356253Y-13529531D01*
X5356253Y-13529531D02*
X5337206Y-13558103D01*
X5337206Y-13558103D02*
X5327682Y-13596198D01*
X5327682Y-13596198D02*
X5327682Y-13672388D01*
X5327682Y-13672388D02*
X5337206Y-13691436D01*
X5337206Y-13691436D02*
X5346729Y-13700960D01*
X5346729Y-13700960D02*
X5365777Y-13710484D01*
X5365777Y-13710484D02*
X5403872Y-13710484D01*
X5403872Y-13710484D02*
X5422920Y-13700960D01*
X5422920Y-13700960D02*
X5432444Y-13691436D01*
X5432444Y-13691436D02*
X5441968Y-13672388D01*
X5441968Y-13672388D02*
X5441968Y-13624769D01*
X5441968Y-13624769D02*
X5432444Y-13605722D01*
X5432444Y-13605722D02*
X5422920Y-13596198D01*
X5422920Y-13596198D02*
X5403872Y-13586674D01*
X5403872Y-13586674D02*
X5365777Y-13586674D01*
X5365777Y-13586674D02*
X5346729Y-13596198D01*
X5346729Y-13596198D02*
X5337206Y-13605722D01*
X5337206Y-13605722D02*
X5327682Y-13624769D01*
X5518158Y-13529531D02*
X5527682Y-13520008D01*
X5527682Y-13520008D02*
X5546729Y-13510484D01*
X5546729Y-13510484D02*
X5594348Y-13510484D01*
X5594348Y-13510484D02*
X5613396Y-13520008D01*
X5613396Y-13520008D02*
X5622920Y-13529531D01*
X5622920Y-13529531D02*
X5632444Y-13548579D01*
X5632444Y-13548579D02*
X5632444Y-13567627D01*
X5632444Y-13567627D02*
X5622920Y-13596198D01*
X5622920Y-13596198D02*
X5508634Y-13710484D01*
X5508634Y-13710484D02*
X5632444Y-13710484D01*
X5708634Y-13510484D02*
X5708634Y-13548579D01*
X5784825Y-13510484D02*
X5784825Y-13548579D01*
X6080063Y-13786674D02*
X6070539Y-13777150D01*
X6070539Y-13777150D02*
X6051491Y-13748579D01*
X6051491Y-13748579D02*
X6041968Y-13729531D01*
X6041968Y-13729531D02*
X6032444Y-13700960D01*
X6032444Y-13700960D02*
X6022920Y-13653341D01*
X6022920Y-13653341D02*
X6022920Y-13615246D01*
X6022920Y-13615246D02*
X6032444Y-13567627D01*
X6032444Y-13567627D02*
X6041968Y-13539055D01*
X6041968Y-13539055D02*
X6051491Y-13520008D01*
X6051491Y-13520008D02*
X6070539Y-13491436D01*
X6070539Y-13491436D02*
X6080063Y-13481912D01*
X6146729Y-13529531D02*
X6156253Y-13520008D01*
X6156253Y-13520008D02*
X6175301Y-13510484D01*
X6175301Y-13510484D02*
X6222920Y-13510484D01*
X6222920Y-13510484D02*
X6241968Y-13520008D01*
X6241968Y-13520008D02*
X6251491Y-13529531D01*
X6251491Y-13529531D02*
X6261015Y-13548579D01*
X6261015Y-13548579D02*
X6261015Y-13567627D01*
X6261015Y-13567627D02*
X6251491Y-13596198D01*
X6251491Y-13596198D02*
X6137206Y-13710484D01*
X6137206Y-13710484D02*
X6261015Y-13710484D01*
X6432444Y-13577150D02*
X6432444Y-13710484D01*
X6384825Y-13500960D02*
X6337206Y-13643817D01*
X6337206Y-13643817D02*
X6461015Y-13643817D01*
X6689587Y-13710484D02*
X6689587Y-13510484D01*
X6775301Y-13710484D02*
X6775301Y-13605722D01*
X6775301Y-13605722D02*
X6765777Y-13586674D01*
X6765777Y-13586674D02*
X6746730Y-13577150D01*
X6746730Y-13577150D02*
X6718158Y-13577150D01*
X6718158Y-13577150D02*
X6699110Y-13586674D01*
X6699110Y-13586674D02*
X6689587Y-13596198D01*
X6899110Y-13710484D02*
X6880063Y-13700960D01*
X6880063Y-13700960D02*
X6870539Y-13691436D01*
X6870539Y-13691436D02*
X6861015Y-13672388D01*
X6861015Y-13672388D02*
X6861015Y-13615246D01*
X6861015Y-13615246D02*
X6870539Y-13596198D01*
X6870539Y-13596198D02*
X6880063Y-13586674D01*
X6880063Y-13586674D02*
X6899110Y-13577150D01*
X6899110Y-13577150D02*
X6927682Y-13577150D01*
X6927682Y-13577150D02*
X6946730Y-13586674D01*
X6946730Y-13586674D02*
X6956253Y-13596198D01*
X6956253Y-13596198D02*
X6965777Y-13615246D01*
X6965777Y-13615246D02*
X6965777Y-13672388D01*
X6965777Y-13672388D02*
X6956253Y-13691436D01*
X6956253Y-13691436D02*
X6946730Y-13700960D01*
X6946730Y-13700960D02*
X6927682Y-13710484D01*
X6927682Y-13710484D02*
X6899110Y-13710484D01*
X7080063Y-13710484D02*
X7061015Y-13700960D01*
X7061015Y-13700960D02*
X7051491Y-13681912D01*
X7051491Y-13681912D02*
X7051491Y-13510484D01*
X7232444Y-13700960D02*
X7213396Y-13710484D01*
X7213396Y-13710484D02*
X7175301Y-13710484D01*
X7175301Y-13710484D02*
X7156253Y-13700960D01*
X7156253Y-13700960D02*
X7146730Y-13681912D01*
X7146730Y-13681912D02*
X7146730Y-13605722D01*
X7146730Y-13605722D02*
X7156253Y-13586674D01*
X7156253Y-13586674D02*
X7175301Y-13577150D01*
X7175301Y-13577150D02*
X7213396Y-13577150D01*
X7213396Y-13577150D02*
X7232444Y-13586674D01*
X7232444Y-13586674D02*
X7241968Y-13605722D01*
X7241968Y-13605722D02*
X7241968Y-13624769D01*
X7241968Y-13624769D02*
X7146730Y-13643817D01*
X7318158Y-13700960D02*
X7337206Y-13710484D01*
X7337206Y-13710484D02*
X7375301Y-13710484D01*
X7375301Y-13710484D02*
X7394349Y-13700960D01*
X7394349Y-13700960D02*
X7403872Y-13681912D01*
X7403872Y-13681912D02*
X7403872Y-13672388D01*
X7403872Y-13672388D02*
X7394349Y-13653341D01*
X7394349Y-13653341D02*
X7375301Y-13643817D01*
X7375301Y-13643817D02*
X7346730Y-13643817D01*
X7346730Y-13643817D02*
X7327682Y-13634293D01*
X7327682Y-13634293D02*
X7318158Y-13615246D01*
X7318158Y-13615246D02*
X7318158Y-13605722D01*
X7318158Y-13605722D02*
X7327682Y-13586674D01*
X7327682Y-13586674D02*
X7346730Y-13577150D01*
X7346730Y-13577150D02*
X7375301Y-13577150D01*
X7375301Y-13577150D02*
X7394349Y-13586674D01*
X7470539Y-13786674D02*
X7480063Y-13777150D01*
X7480063Y-13777150D02*
X7499111Y-13748579D01*
X7499111Y-13748579D02*
X7508634Y-13729531D01*
X7508634Y-13729531D02*
X7518158Y-13700960D01*
X7518158Y-13700960D02*
X7527682Y-13653341D01*
X7527682Y-13653341D02*
X7527682Y-13615246D01*
X7527682Y-13615246D02*
X7518158Y-13567627D01*
X7518158Y-13567627D02*
X7508634Y-13539055D01*
X7508634Y-13539055D02*
X7499111Y-13520008D01*
X7499111Y-13520008D02*
X7480063Y-13491436D01*
X7480063Y-13491436D02*
X7470539Y-13481912D01*
D10*
X2490356Y-13918356D02*
X2490356Y-13847644D01*
X2419644Y-13847644D01*
X2419644Y-13918356D01*
X2490356Y-13918356D01*
D11*
X2870539Y-13974484D02*
X2756253Y-13974484D01*
X2813396Y-13974484D02*
X2813396Y-13774484D01*
X2813396Y-13774484D02*
X2794348Y-13803055D01*
X2794348Y-13803055D02*
X2775301Y-13822103D01*
X2775301Y-13822103D02*
X2756253Y-13831627D01*
X2956253Y-13955436D02*
X2965777Y-13964960D01*
X2965777Y-13964960D02*
X2956253Y-13974484D01*
X2956253Y-13974484D02*
X2946729Y-13964960D01*
X2946729Y-13964960D02*
X2956253Y-13955436D01*
X2956253Y-13955436D02*
X2956253Y-13974484D01*
X3089586Y-13774484D02*
X3108634Y-13774484D01*
X3108634Y-13774484D02*
X3127682Y-13784008D01*
X3127682Y-13784008D02*
X3137205Y-13793531D01*
X3137205Y-13793531D02*
X3146729Y-13812579D01*
X3146729Y-13812579D02*
X3156253Y-13850674D01*
X3156253Y-13850674D02*
X3156253Y-13898293D01*
X3156253Y-13898293D02*
X3146729Y-13936388D01*
X3146729Y-13936388D02*
X3137205Y-13955436D01*
X3137205Y-13955436D02*
X3127682Y-13964960D01*
X3127682Y-13964960D02*
X3108634Y-13974484D01*
X3108634Y-13974484D02*
X3089586Y-13974484D01*
X3089586Y-13974484D02*
X3070539Y-13964960D01*
X3070539Y-13964960D02*
X3061015Y-13955436D01*
X3061015Y-13955436D02*
X3051491Y-13936388D01*
X3051491Y-13936388D02*
X3041967Y-13898293D01*
X3041967Y-13898293D02*
X3041967Y-13850674D01*
X3041967Y-13850674D02*
X3051491Y-13812579D01*
X3051491Y-13812579D02*
X3061015Y-13793531D01*
X3061015Y-13793531D02*
X3070539Y-13784008D01*
X3070539Y-13784008D02*
X3089586Y-13774484D01*
X3280062Y-13774484D02*
X3299110Y-13774484D01*
X3299110Y-13774484D02*
X3318158Y-13784008D01*
X3318158Y-13784008D02*
X3327682Y-13793531D01*
X3327682Y-13793531D02*
X3337205Y-13812579D01*
X3337205Y-13812579D02*
X3346729Y-13850674D01*
X3346729Y-13850674D02*
X3346729Y-13898293D01*
X3346729Y-13898293D02*
X3337205Y-13936388D01*
X3337205Y-13936388D02*
X3327682Y-13955436D01*
X3327682Y-13955436D02*
X3318158Y-13964960D01*
X3318158Y-13964960D02*
X3299110Y-13974484D01*
X3299110Y-13974484D02*
X3280062Y-13974484D01*
X3280062Y-13974484D02*
X3261015Y-13964960D01*
X3261015Y-13964960D02*
X3251491Y-13955436D01*
X3251491Y-13955436D02*
X3241967Y-13936388D01*
X3241967Y-13936388D02*
X3232443Y-13898293D01*
X3232443Y-13898293D02*
X3232443Y-13850674D01*
X3232443Y-13850674D02*
X3241967Y-13812579D01*
X3241967Y-13812579D02*
X3251491Y-13793531D01*
X3251491Y-13793531D02*
X3261015Y-13784008D01*
X3261015Y-13784008D02*
X3280062Y-13774484D01*
X3470539Y-13774484D02*
X3489586Y-13774484D01*
X3489586Y-13774484D02*
X3508634Y-13784008D01*
X3508634Y-13784008D02*
X3518158Y-13793531D01*
X3518158Y-13793531D02*
X3527682Y-13812579D01*
X3527682Y-13812579D02*
X3537205Y-13850674D01*
X3537205Y-13850674D02*
X3537205Y-13898293D01*
X3537205Y-13898293D02*
X3527682Y-13936388D01*
X3527682Y-13936388D02*
X3518158Y-13955436D01*
X3518158Y-13955436D02*
X3508634Y-13964960D01*
X3508634Y-13964960D02*
X3489586Y-13974484D01*
X3489586Y-13974484D02*
X3470539Y-13974484D01*
X3470539Y-13974484D02*
X3451491Y-13964960D01*
X3451491Y-13964960D02*
X3441967Y-13955436D01*
X3441967Y-13955436D02*
X3432443Y-13936388D01*
X3432443Y-13936388D02*
X3422920Y-13898293D01*
X3422920Y-13898293D02*
X3422920Y-13850674D01*
X3422920Y-13850674D02*
X3432443Y-13812579D01*
X3432443Y-13812579D02*
X3441967Y-13793531D01*
X3441967Y-13793531D02*
X3451491Y-13784008D01*
X3451491Y-13784008D02*
X3470539Y-13774484D01*
X3622920Y-13974484D02*
X3622920Y-13841150D01*
X3622920Y-13860198D02*
X3632443Y-13850674D01*
X3632443Y-13850674D02*
X3651491Y-13841150D01*
X3651491Y-13841150D02*
X3680063Y-13841150D01*
X3680063Y-13841150D02*
X3699110Y-13850674D01*
X3699110Y-13850674D02*
X3708634Y-13869722D01*
X3708634Y-13869722D02*
X3708634Y-13974484D01*
X3708634Y-13869722D02*
X3718158Y-13850674D01*
X3718158Y-13850674D02*
X3737205Y-13841150D01*
X3737205Y-13841150D02*
X3765777Y-13841150D01*
X3765777Y-13841150D02*
X3784824Y-13850674D01*
X3784824Y-13850674D02*
X3794348Y-13869722D01*
X3794348Y-13869722D02*
X3794348Y-13974484D01*
X3889586Y-13974484D02*
X3889586Y-13841150D01*
X3889586Y-13860198D02*
X3899110Y-13850674D01*
X3899110Y-13850674D02*
X3918158Y-13841150D01*
X3918158Y-13841150D02*
X3946729Y-13841150D01*
X3946729Y-13841150D02*
X3965777Y-13850674D01*
X3965777Y-13850674D02*
X3975301Y-13869722D01*
X3975301Y-13869722D02*
X3975301Y-13974484D01*
X3975301Y-13869722D02*
X3984824Y-13850674D01*
X3984824Y-13850674D02*
X4003872Y-13841150D01*
X4003872Y-13841150D02*
X4032443Y-13841150D01*
X4032443Y-13841150D02*
X4051491Y-13850674D01*
X4051491Y-13850674D02*
X4061015Y-13869722D01*
X4061015Y-13869722D02*
X4061015Y-13974484D01*
X4451491Y-13764960D02*
X4280063Y-14022103D01*
X4708634Y-13774484D02*
X4727682Y-13774484D01*
X4727682Y-13774484D02*
X4746729Y-13784008D01*
X4746729Y-13784008D02*
X4756253Y-13793531D01*
X4756253Y-13793531D02*
X4765777Y-13812579D01*
X4765777Y-13812579D02*
X4775301Y-13850674D01*
X4775301Y-13850674D02*
X4775301Y-13898293D01*
X4775301Y-13898293D02*
X4765777Y-13936388D01*
X4765777Y-13936388D02*
X4756253Y-13955436D01*
X4756253Y-13955436D02*
X4746729Y-13964960D01*
X4746729Y-13964960D02*
X4727682Y-13974484D01*
X4727682Y-13974484D02*
X4708634Y-13974484D01*
X4708634Y-13974484D02*
X4689587Y-13964960D01*
X4689587Y-13964960D02*
X4680063Y-13955436D01*
X4680063Y-13955436D02*
X4670539Y-13936388D01*
X4670539Y-13936388D02*
X4661015Y-13898293D01*
X4661015Y-13898293D02*
X4661015Y-13850674D01*
X4661015Y-13850674D02*
X4670539Y-13812579D01*
X4670539Y-13812579D02*
X4680063Y-13793531D01*
X4680063Y-13793531D02*
X4689587Y-13784008D01*
X4689587Y-13784008D02*
X4708634Y-13774484D01*
X4861015Y-13955436D02*
X4870539Y-13964960D01*
X4870539Y-13964960D02*
X4861015Y-13974484D01*
X4861015Y-13974484D02*
X4851491Y-13964960D01*
X4851491Y-13964960D02*
X4861015Y-13955436D01*
X4861015Y-13955436D02*
X4861015Y-13974484D01*
X4994348Y-13774484D02*
X5013396Y-13774484D01*
X5013396Y-13774484D02*
X5032444Y-13784008D01*
X5032444Y-13784008D02*
X5041968Y-13793531D01*
X5041968Y-13793531D02*
X5051491Y-13812579D01*
X5051491Y-13812579D02*
X5061015Y-13850674D01*
X5061015Y-13850674D02*
X5061015Y-13898293D01*
X5061015Y-13898293D02*
X5051491Y-13936388D01*
X5051491Y-13936388D02*
X5041968Y-13955436D01*
X5041968Y-13955436D02*
X5032444Y-13964960D01*
X5032444Y-13964960D02*
X5013396Y-13974484D01*
X5013396Y-13974484D02*
X4994348Y-13974484D01*
X4994348Y-13974484D02*
X4975301Y-13964960D01*
X4975301Y-13964960D02*
X4965777Y-13955436D01*
X4965777Y-13955436D02*
X4956253Y-13936388D01*
X4956253Y-13936388D02*
X4946729Y-13898293D01*
X4946729Y-13898293D02*
X4946729Y-13850674D01*
X4946729Y-13850674D02*
X4956253Y-13812579D01*
X4956253Y-13812579D02*
X4965777Y-13793531D01*
X4965777Y-13793531D02*
X4975301Y-13784008D01*
X4975301Y-13784008D02*
X4994348Y-13774484D01*
X5127682Y-13774484D02*
X5251491Y-13774484D01*
X5251491Y-13774484D02*
X5184825Y-13850674D01*
X5184825Y-13850674D02*
X5213396Y-13850674D01*
X5213396Y-13850674D02*
X5232444Y-13860198D01*
X5232444Y-13860198D02*
X5241968Y-13869722D01*
X5241968Y-13869722D02*
X5251491Y-13888769D01*
X5251491Y-13888769D02*
X5251491Y-13936388D01*
X5251491Y-13936388D02*
X5241968Y-13955436D01*
X5241968Y-13955436D02*
X5232444Y-13964960D01*
X5232444Y-13964960D02*
X5213396Y-13974484D01*
X5213396Y-13974484D02*
X5156253Y-13974484D01*
X5156253Y-13974484D02*
X5137206Y-13964960D01*
X5137206Y-13964960D02*
X5127682Y-13955436D01*
X5346729Y-13974484D02*
X5384825Y-13974484D01*
X5384825Y-13974484D02*
X5403872Y-13964960D01*
X5403872Y-13964960D02*
X5413396Y-13955436D01*
X5413396Y-13955436D02*
X5432444Y-13926865D01*
X5432444Y-13926865D02*
X5441968Y-13888769D01*
X5441968Y-13888769D02*
X5441968Y-13812579D01*
X5441968Y-13812579D02*
X5432444Y-13793531D01*
X5432444Y-13793531D02*
X5422920Y-13784008D01*
X5422920Y-13784008D02*
X5403872Y-13774484D01*
X5403872Y-13774484D02*
X5365777Y-13774484D01*
X5365777Y-13774484D02*
X5346729Y-13784008D01*
X5346729Y-13784008D02*
X5337206Y-13793531D01*
X5337206Y-13793531D02*
X5327682Y-13812579D01*
X5327682Y-13812579D02*
X5327682Y-13860198D01*
X5327682Y-13860198D02*
X5337206Y-13879246D01*
X5337206Y-13879246D02*
X5346729Y-13888769D01*
X5346729Y-13888769D02*
X5365777Y-13898293D01*
X5365777Y-13898293D02*
X5403872Y-13898293D01*
X5403872Y-13898293D02*
X5422920Y-13888769D01*
X5422920Y-13888769D02*
X5432444Y-13879246D01*
X5432444Y-13879246D02*
X5441968Y-13860198D01*
X5613396Y-13841150D02*
X5613396Y-13974484D01*
X5565777Y-13764960D02*
X5518158Y-13907817D01*
X5518158Y-13907817D02*
X5641967Y-13907817D01*
X5708634Y-13774484D02*
X5708634Y-13812579D01*
X5784825Y-13774484D02*
X5784825Y-13812579D01*
X6080063Y-14050674D02*
X6070539Y-14041150D01*
X6070539Y-14041150D02*
X6051491Y-14012579D01*
X6051491Y-14012579D02*
X6041968Y-13993531D01*
X6041968Y-13993531D02*
X6032444Y-13964960D01*
X6032444Y-13964960D02*
X6022920Y-13917341D01*
X6022920Y-13917341D02*
X6022920Y-13879246D01*
X6022920Y-13879246D02*
X6032444Y-13831627D01*
X6032444Y-13831627D02*
X6041968Y-13803055D01*
X6041968Y-13803055D02*
X6051491Y-13784008D01*
X6051491Y-13784008D02*
X6070539Y-13755436D01*
X6070539Y-13755436D02*
X6080063Y-13745912D01*
X6184825Y-13860198D02*
X6165777Y-13850674D01*
X6165777Y-13850674D02*
X6156253Y-13841150D01*
X6156253Y-13841150D02*
X6146729Y-13822103D01*
X6146729Y-13822103D02*
X6146729Y-13812579D01*
X6146729Y-13812579D02*
X6156253Y-13793531D01*
X6156253Y-13793531D02*
X6165777Y-13784008D01*
X6165777Y-13784008D02*
X6184825Y-13774484D01*
X6184825Y-13774484D02*
X6222920Y-13774484D01*
X6222920Y-13774484D02*
X6241968Y-13784008D01*
X6241968Y-13784008D02*
X6251491Y-13793531D01*
X6251491Y-13793531D02*
X6261015Y-13812579D01*
X6261015Y-13812579D02*
X6261015Y-13822103D01*
X6261015Y-13822103D02*
X6251491Y-13841150D01*
X6251491Y-13841150D02*
X6241968Y-13850674D01*
X6241968Y-13850674D02*
X6222920Y-13860198D01*
X6222920Y-13860198D02*
X6184825Y-13860198D01*
X6184825Y-13860198D02*
X6165777Y-13869722D01*
X6165777Y-13869722D02*
X6156253Y-13879246D01*
X6156253Y-13879246D02*
X6146729Y-13898293D01*
X6146729Y-13898293D02*
X6146729Y-13936388D01*
X6146729Y-13936388D02*
X6156253Y-13955436D01*
X6156253Y-13955436D02*
X6165777Y-13964960D01*
X6165777Y-13964960D02*
X6184825Y-13974484D01*
X6184825Y-13974484D02*
X6222920Y-13974484D01*
X6222920Y-13974484D02*
X6241968Y-13964960D01*
X6241968Y-13964960D02*
X6251491Y-13955436D01*
X6251491Y-13955436D02*
X6261015Y-13936388D01*
X6261015Y-13936388D02*
X6261015Y-13898293D01*
X6261015Y-13898293D02*
X6251491Y-13879246D01*
X6251491Y-13879246D02*
X6241968Y-13869722D01*
X6241968Y-13869722D02*
X6222920Y-13860198D01*
X6384825Y-13774484D02*
X6403872Y-13774484D01*
X6403872Y-13774484D02*
X6422920Y-13784008D01*
X6422920Y-13784008D02*
X6432444Y-13793531D01*
X6432444Y-13793531D02*
X6441968Y-13812579D01*
X6441968Y-13812579D02*
X6451491Y-13850674D01*
X6451491Y-13850674D02*
X6451491Y-13898293D01*
X6451491Y-13898293D02*
X6441968Y-13936388D01*
X6441968Y-13936388D02*
X6432444Y-13955436D01*
X6432444Y-13955436D02*
X6422920Y-13964960D01*
X6422920Y-13964960D02*
X6403872Y-13974484D01*
X6403872Y-13974484D02*
X6384825Y-13974484D01*
X6384825Y-13974484D02*
X6365777Y-13964960D01*
X6365777Y-13964960D02*
X6356253Y-13955436D01*
X6356253Y-13955436D02*
X6346729Y-13936388D01*
X6346729Y-13936388D02*
X6337206Y-13898293D01*
X6337206Y-13898293D02*
X6337206Y-13850674D01*
X6337206Y-13850674D02*
X6346729Y-13812579D01*
X6346729Y-13812579D02*
X6356253Y-13793531D01*
X6356253Y-13793531D02*
X6365777Y-13784008D01*
X6365777Y-13784008D02*
X6384825Y-13774484D01*
X6689587Y-13974484D02*
X6689587Y-13774484D01*
X6775301Y-13974484D02*
X6775301Y-13869722D01*
X6775301Y-13869722D02*
X6765777Y-13850674D01*
X6765777Y-13850674D02*
X6746730Y-13841150D01*
X6746730Y-13841150D02*
X6718158Y-13841150D01*
X6718158Y-13841150D02*
X6699110Y-13850674D01*
X6699110Y-13850674D02*
X6689587Y-13860198D01*
X6899110Y-13974484D02*
X6880063Y-13964960D01*
X6880063Y-13964960D02*
X6870539Y-13955436D01*
X6870539Y-13955436D02*
X6861015Y-13936388D01*
X6861015Y-13936388D02*
X6861015Y-13879246D01*
X6861015Y-13879246D02*
X6870539Y-13860198D01*
X6870539Y-13860198D02*
X6880063Y-13850674D01*
X6880063Y-13850674D02*
X6899110Y-13841150D01*
X6899110Y-13841150D02*
X6927682Y-13841150D01*
X6927682Y-13841150D02*
X6946730Y-13850674D01*
X6946730Y-13850674D02*
X6956253Y-13860198D01*
X6956253Y-13860198D02*
X6965777Y-13879246D01*
X6965777Y-13879246D02*
X6965777Y-13936388D01*
X6965777Y-13936388D02*
X6956253Y-13955436D01*
X6956253Y-13955436D02*
X6946730Y-13964960D01*
X6946730Y-13964960D02*
X6927682Y-13974484D01*
X6927682Y-13974484D02*
X6899110Y-13974484D01*
X7080063Y-13974484D02*
X7061015Y-13964960D01*
X7061015Y-13964960D02*
X7051491Y-13945912D01*
X7051491Y-13945912D02*
X7051491Y-13774484D01*
X7232444Y-13964960D02*
X7213396Y-13974484D01*
X7213396Y-13974484D02*
X7175301Y-13974484D01*
X7175301Y-13974484D02*
X7156253Y-13964960D01*
X7156253Y-13964960D02*
X7146730Y-13945912D01*
X7146730Y-13945912D02*
X7146730Y-13869722D01*
X7146730Y-13869722D02*
X7156253Y-13850674D01*
X7156253Y-13850674D02*
X7175301Y-13841150D01*
X7175301Y-13841150D02*
X7213396Y-13841150D01*
X7213396Y-13841150D02*
X7232444Y-13850674D01*
X7232444Y-13850674D02*
X7241968Y-13869722D01*
X7241968Y-13869722D02*
X7241968Y-13888769D01*
X7241968Y-13888769D02*
X7146730Y-13907817D01*
X7318158Y-13964960D02*
X7337206Y-13974484D01*
X7337206Y-13974484D02*
X7375301Y-13974484D01*
X7375301Y-13974484D02*
X7394349Y-13964960D01*
X7394349Y-13964960D02*
X7403872Y-13945912D01*
X7403872Y-13945912D02*
X7403872Y-13936388D01*
X7403872Y-13936388D02*
X7394349Y-13917341D01*
X7394349Y-13917341D02*
X7375301Y-13907817D01*
X7375301Y-13907817D02*
X7346730Y-13907817D01*
X7346730Y-13907817D02*
X7327682Y-13898293D01*
X7327682Y-13898293D02*
X7318158Y-13879246D01*
X7318158Y-13879246D02*
X7318158Y-13869722D01*
X7318158Y-13869722D02*
X7327682Y-13850674D01*
X7327682Y-13850674D02*
X7346730Y-13841150D01*
X7346730Y-13841150D02*
X7375301Y-13841150D01*
X7375301Y-13841150D02*
X7394349Y-13850674D01*
X7470539Y-14050674D02*
X7480063Y-14041150D01*
X7480063Y-14041150D02*
X7499111Y-14012579D01*
X7499111Y-14012579D02*
X7508634Y-13993531D01*
X7508634Y-13993531D02*
X7518158Y-13964960D01*
X7518158Y-13964960D02*
X7527682Y-13917341D01*
X7527682Y-13917341D02*
X7527682Y-13879246D01*
X7527682Y-13879246D02*
X7518158Y-13831627D01*
X7518158Y-13831627D02*
X7508634Y-13803055D01*
X7508634Y-13803055D02*
X7499111Y-13784008D01*
X7499111Y-13784008D02*
X7480063Y-13755436D01*
X7480063Y-13755436D02*
X7470539Y-13745912D01*
D15*
X2450000Y-14202000D02*
X2505000Y-14147000D01*
X2450000Y-14092000D01*
X2395000Y-14147000D01*
X2450000Y-14202000D01*
D11*
X2870539Y-14238484D02*
X2756253Y-14238484D01*
X2813396Y-14238484D02*
X2813396Y-14038484D01*
X2813396Y-14038484D02*
X2794348Y-14067055D01*
X2794348Y-14067055D02*
X2775301Y-14086103D01*
X2775301Y-14086103D02*
X2756253Y-14095627D01*
X2956253Y-14219436D02*
X2965777Y-14228960D01*
X2965777Y-14228960D02*
X2956253Y-14238484D01*
X2956253Y-14238484D02*
X2946729Y-14228960D01*
X2946729Y-14228960D02*
X2956253Y-14219436D01*
X2956253Y-14219436D02*
X2956253Y-14238484D01*
X3156253Y-14238484D02*
X3041967Y-14238484D01*
X3099110Y-14238484D02*
X3099110Y-14038484D01*
X3099110Y-14038484D02*
X3080062Y-14067055D01*
X3080062Y-14067055D02*
X3061015Y-14086103D01*
X3061015Y-14086103D02*
X3041967Y-14095627D01*
X3280062Y-14038484D02*
X3299110Y-14038484D01*
X3299110Y-14038484D02*
X3318158Y-14048008D01*
X3318158Y-14048008D02*
X3327682Y-14057531D01*
X3327682Y-14057531D02*
X3337205Y-14076579D01*
X3337205Y-14076579D02*
X3346729Y-14114674D01*
X3346729Y-14114674D02*
X3346729Y-14162293D01*
X3346729Y-14162293D02*
X3337205Y-14200388D01*
X3337205Y-14200388D02*
X3327682Y-14219436D01*
X3327682Y-14219436D02*
X3318158Y-14228960D01*
X3318158Y-14228960D02*
X3299110Y-14238484D01*
X3299110Y-14238484D02*
X3280062Y-14238484D01*
X3280062Y-14238484D02*
X3261015Y-14228960D01*
X3261015Y-14228960D02*
X3251491Y-14219436D01*
X3251491Y-14219436D02*
X3241967Y-14200388D01*
X3241967Y-14200388D02*
X3232443Y-14162293D01*
X3232443Y-14162293D02*
X3232443Y-14114674D01*
X3232443Y-14114674D02*
X3241967Y-14076579D01*
X3241967Y-14076579D02*
X3251491Y-14057531D01*
X3251491Y-14057531D02*
X3261015Y-14048008D01*
X3261015Y-14048008D02*
X3280062Y-14038484D01*
X3470539Y-14038484D02*
X3489586Y-14038484D01*
X3489586Y-14038484D02*
X3508634Y-14048008D01*
X3508634Y-14048008D02*
X3518158Y-14057531D01*
X3518158Y-14057531D02*
X3527682Y-14076579D01*
X3527682Y-14076579D02*
X3537205Y-14114674D01*
X3537205Y-14114674D02*
X3537205Y-14162293D01*
X3537205Y-14162293D02*
X3527682Y-14200388D01*
X3527682Y-14200388D02*
X3518158Y-14219436D01*
X3518158Y-14219436D02*
X3508634Y-14228960D01*
X3508634Y-14228960D02*
X3489586Y-14238484D01*
X3489586Y-14238484D02*
X3470539Y-14238484D01*
X3470539Y-14238484D02*
X3451491Y-14228960D01*
X3451491Y-14228960D02*
X3441967Y-14219436D01*
X3441967Y-14219436D02*
X3432443Y-14200388D01*
X3432443Y-14200388D02*
X3422920Y-14162293D01*
X3422920Y-14162293D02*
X3422920Y-14114674D01*
X3422920Y-14114674D02*
X3432443Y-14076579D01*
X3432443Y-14076579D02*
X3441967Y-14057531D01*
X3441967Y-14057531D02*
X3451491Y-14048008D01*
X3451491Y-14048008D02*
X3470539Y-14038484D01*
X3622920Y-14238484D02*
X3622920Y-14105150D01*
X3622920Y-14124198D02*
X3632443Y-14114674D01*
X3632443Y-14114674D02*
X3651491Y-14105150D01*
X3651491Y-14105150D02*
X3680063Y-14105150D01*
X3680063Y-14105150D02*
X3699110Y-14114674D01*
X3699110Y-14114674D02*
X3708634Y-14133722D01*
X3708634Y-14133722D02*
X3708634Y-14238484D01*
X3708634Y-14133722D02*
X3718158Y-14114674D01*
X3718158Y-14114674D02*
X3737205Y-14105150D01*
X3737205Y-14105150D02*
X3765777Y-14105150D01*
X3765777Y-14105150D02*
X3784824Y-14114674D01*
X3784824Y-14114674D02*
X3794348Y-14133722D01*
X3794348Y-14133722D02*
X3794348Y-14238484D01*
X3889586Y-14238484D02*
X3889586Y-14105150D01*
X3889586Y-14124198D02*
X3899110Y-14114674D01*
X3899110Y-14114674D02*
X3918158Y-14105150D01*
X3918158Y-14105150D02*
X3946729Y-14105150D01*
X3946729Y-14105150D02*
X3965777Y-14114674D01*
X3965777Y-14114674D02*
X3975301Y-14133722D01*
X3975301Y-14133722D02*
X3975301Y-14238484D01*
X3975301Y-14133722D02*
X3984824Y-14114674D01*
X3984824Y-14114674D02*
X4003872Y-14105150D01*
X4003872Y-14105150D02*
X4032443Y-14105150D01*
X4032443Y-14105150D02*
X4051491Y-14114674D01*
X4051491Y-14114674D02*
X4061015Y-14133722D01*
X4061015Y-14133722D02*
X4061015Y-14238484D01*
X4451491Y-14028960D02*
X4280063Y-14286103D01*
X4708634Y-14038484D02*
X4727682Y-14038484D01*
X4727682Y-14038484D02*
X4746729Y-14048008D01*
X4746729Y-14048008D02*
X4756253Y-14057531D01*
X4756253Y-14057531D02*
X4765777Y-14076579D01*
X4765777Y-14076579D02*
X4775301Y-14114674D01*
X4775301Y-14114674D02*
X4775301Y-14162293D01*
X4775301Y-14162293D02*
X4765777Y-14200388D01*
X4765777Y-14200388D02*
X4756253Y-14219436D01*
X4756253Y-14219436D02*
X4746729Y-14228960D01*
X4746729Y-14228960D02*
X4727682Y-14238484D01*
X4727682Y-14238484D02*
X4708634Y-14238484D01*
X4708634Y-14238484D02*
X4689587Y-14228960D01*
X4689587Y-14228960D02*
X4680063Y-14219436D01*
X4680063Y-14219436D02*
X4670539Y-14200388D01*
X4670539Y-14200388D02*
X4661015Y-14162293D01*
X4661015Y-14162293D02*
X4661015Y-14114674D01*
X4661015Y-14114674D02*
X4670539Y-14076579D01*
X4670539Y-14076579D02*
X4680063Y-14057531D01*
X4680063Y-14057531D02*
X4689587Y-14048008D01*
X4689587Y-14048008D02*
X4708634Y-14038484D01*
X4861015Y-14219436D02*
X4870539Y-14228960D01*
X4870539Y-14228960D02*
X4861015Y-14238484D01*
X4861015Y-14238484D02*
X4851491Y-14228960D01*
X4851491Y-14228960D02*
X4861015Y-14219436D01*
X4861015Y-14219436D02*
X4861015Y-14238484D01*
X4994348Y-14038484D02*
X5013396Y-14038484D01*
X5013396Y-14038484D02*
X5032444Y-14048008D01*
X5032444Y-14048008D02*
X5041968Y-14057531D01*
X5041968Y-14057531D02*
X5051491Y-14076579D01*
X5051491Y-14076579D02*
X5061015Y-14114674D01*
X5061015Y-14114674D02*
X5061015Y-14162293D01*
X5061015Y-14162293D02*
X5051491Y-14200388D01*
X5051491Y-14200388D02*
X5041968Y-14219436D01*
X5041968Y-14219436D02*
X5032444Y-14228960D01*
X5032444Y-14228960D02*
X5013396Y-14238484D01*
X5013396Y-14238484D02*
X4994348Y-14238484D01*
X4994348Y-14238484D02*
X4975301Y-14228960D01*
X4975301Y-14228960D02*
X4965777Y-14219436D01*
X4965777Y-14219436D02*
X4956253Y-14200388D01*
X4956253Y-14200388D02*
X4946729Y-14162293D01*
X4946729Y-14162293D02*
X4946729Y-14114674D01*
X4946729Y-14114674D02*
X4956253Y-14076579D01*
X4956253Y-14076579D02*
X4965777Y-14057531D01*
X4965777Y-14057531D02*
X4975301Y-14048008D01*
X4975301Y-14048008D02*
X4994348Y-14038484D01*
X5232444Y-14105150D02*
X5232444Y-14238484D01*
X5184825Y-14028960D02*
X5137206Y-14171817D01*
X5137206Y-14171817D02*
X5261015Y-14171817D01*
X5318158Y-14038484D02*
X5441968Y-14038484D01*
X5441968Y-14038484D02*
X5375301Y-14114674D01*
X5375301Y-14114674D02*
X5403872Y-14114674D01*
X5403872Y-14114674D02*
X5422920Y-14124198D01*
X5422920Y-14124198D02*
X5432444Y-14133722D01*
X5432444Y-14133722D02*
X5441968Y-14152769D01*
X5441968Y-14152769D02*
X5441968Y-14200388D01*
X5441968Y-14200388D02*
X5432444Y-14219436D01*
X5432444Y-14219436D02*
X5422920Y-14228960D01*
X5422920Y-14228960D02*
X5403872Y-14238484D01*
X5403872Y-14238484D02*
X5346729Y-14238484D01*
X5346729Y-14238484D02*
X5327682Y-14228960D01*
X5327682Y-14228960D02*
X5318158Y-14219436D01*
X5508634Y-14038484D02*
X5632444Y-14038484D01*
X5632444Y-14038484D02*
X5565777Y-14114674D01*
X5565777Y-14114674D02*
X5594348Y-14114674D01*
X5594348Y-14114674D02*
X5613396Y-14124198D01*
X5613396Y-14124198D02*
X5622920Y-14133722D01*
X5622920Y-14133722D02*
X5632444Y-14152769D01*
X5632444Y-14152769D02*
X5632444Y-14200388D01*
X5632444Y-14200388D02*
X5622920Y-14219436D01*
X5622920Y-14219436D02*
X5613396Y-14228960D01*
X5613396Y-14228960D02*
X5594348Y-14238484D01*
X5594348Y-14238484D02*
X5537206Y-14238484D01*
X5537206Y-14238484D02*
X5518158Y-14228960D01*
X5518158Y-14228960D02*
X5508634Y-14219436D01*
X5708634Y-14038484D02*
X5708634Y-14076579D01*
X5784825Y-14038484D02*
X5784825Y-14076579D01*
X6080063Y-14314674D02*
X6070539Y-14305150D01*
X6070539Y-14305150D02*
X6051491Y-14276579D01*
X6051491Y-14276579D02*
X6041968Y-14257531D01*
X6041968Y-14257531D02*
X6032444Y-14228960D01*
X6032444Y-14228960D02*
X6022920Y-14181341D01*
X6022920Y-14181341D02*
X6022920Y-14143246D01*
X6022920Y-14143246D02*
X6032444Y-14095627D01*
X6032444Y-14095627D02*
X6041968Y-14067055D01*
X6041968Y-14067055D02*
X6051491Y-14048008D01*
X6051491Y-14048008D02*
X6070539Y-14019436D01*
X6070539Y-14019436D02*
X6080063Y-14009912D01*
X6137206Y-14038484D02*
X6261015Y-14038484D01*
X6261015Y-14038484D02*
X6194348Y-14114674D01*
X6194348Y-14114674D02*
X6222920Y-14114674D01*
X6222920Y-14114674D02*
X6241968Y-14124198D01*
X6241968Y-14124198D02*
X6251491Y-14133722D01*
X6251491Y-14133722D02*
X6261015Y-14152769D01*
X6261015Y-14152769D02*
X6261015Y-14200388D01*
X6261015Y-14200388D02*
X6251491Y-14219436D01*
X6251491Y-14219436D02*
X6241968Y-14228960D01*
X6241968Y-14228960D02*
X6222920Y-14238484D01*
X6222920Y-14238484D02*
X6165777Y-14238484D01*
X6165777Y-14238484D02*
X6146729Y-14228960D01*
X6146729Y-14228960D02*
X6137206Y-14219436D01*
X6499110Y-14238484D02*
X6499110Y-14038484D01*
X6584825Y-14238484D02*
X6584825Y-14133722D01*
X6584825Y-14133722D02*
X6575301Y-14114674D01*
X6575301Y-14114674D02*
X6556253Y-14105150D01*
X6556253Y-14105150D02*
X6527682Y-14105150D01*
X6527682Y-14105150D02*
X6508634Y-14114674D01*
X6508634Y-14114674D02*
X6499110Y-14124198D01*
X6708634Y-14238484D02*
X6689587Y-14228960D01*
X6689587Y-14228960D02*
X6680063Y-14219436D01*
X6680063Y-14219436D02*
X6670539Y-14200388D01*
X6670539Y-14200388D02*
X6670539Y-14143246D01*
X6670539Y-14143246D02*
X6680063Y-14124198D01*
X6680063Y-14124198D02*
X6689587Y-14114674D01*
X6689587Y-14114674D02*
X6708634Y-14105150D01*
X6708634Y-14105150D02*
X6737206Y-14105150D01*
X6737206Y-14105150D02*
X6756253Y-14114674D01*
X6756253Y-14114674D02*
X6765777Y-14124198D01*
X6765777Y-14124198D02*
X6775301Y-14143246D01*
X6775301Y-14143246D02*
X6775301Y-14200388D01*
X6775301Y-14200388D02*
X6765777Y-14219436D01*
X6765777Y-14219436D02*
X6756253Y-14228960D01*
X6756253Y-14228960D02*
X6737206Y-14238484D01*
X6737206Y-14238484D02*
X6708634Y-14238484D01*
X6889587Y-14238484D02*
X6870539Y-14228960D01*
X6870539Y-14228960D02*
X6861015Y-14209912D01*
X6861015Y-14209912D02*
X6861015Y-14038484D01*
X7041968Y-14228960D02*
X7022920Y-14238484D01*
X7022920Y-14238484D02*
X6984825Y-14238484D01*
X6984825Y-14238484D02*
X6965777Y-14228960D01*
X6965777Y-14228960D02*
X6956253Y-14209912D01*
X6956253Y-14209912D02*
X6956253Y-14133722D01*
X6956253Y-14133722D02*
X6965777Y-14114674D01*
X6965777Y-14114674D02*
X6984825Y-14105150D01*
X6984825Y-14105150D02*
X7022920Y-14105150D01*
X7022920Y-14105150D02*
X7041968Y-14114674D01*
X7041968Y-14114674D02*
X7051491Y-14133722D01*
X7051491Y-14133722D02*
X7051491Y-14152769D01*
X7051491Y-14152769D02*
X6956253Y-14171817D01*
X7127682Y-14228960D02*
X7146730Y-14238484D01*
X7146730Y-14238484D02*
X7184825Y-14238484D01*
X7184825Y-14238484D02*
X7203872Y-14228960D01*
X7203872Y-14228960D02*
X7213396Y-14209912D01*
X7213396Y-14209912D02*
X7213396Y-14200388D01*
X7213396Y-14200388D02*
X7203872Y-14181341D01*
X7203872Y-14181341D02*
X7184825Y-14171817D01*
X7184825Y-14171817D02*
X7156253Y-14171817D01*
X7156253Y-14171817D02*
X7137206Y-14162293D01*
X7137206Y-14162293D02*
X7127682Y-14143246D01*
X7127682Y-14143246D02*
X7127682Y-14133722D01*
X7127682Y-14133722D02*
X7137206Y-14114674D01*
X7137206Y-14114674D02*
X7156253Y-14105150D01*
X7156253Y-14105150D02*
X7184825Y-14105150D01*
X7184825Y-14105150D02*
X7203872Y-14114674D01*
X7280063Y-14314674D02*
X7289587Y-14305150D01*
X7289587Y-14305150D02*
X7308634Y-14276579D01*
X7308634Y-14276579D02*
X7318158Y-14257531D01*
X7318158Y-14257531D02*
X7327682Y-14228960D01*
X7327682Y-14228960D02*
X7337206Y-14181341D01*
X7337206Y-14181341D02*
X7337206Y-14143246D01*
X7337206Y-14143246D02*
X7327682Y-14095627D01*
X7327682Y-14095627D02*
X7318158Y-14067055D01*
X7318158Y-14067055D02*
X7308634Y-14048008D01*
X7308634Y-14048008D02*
X7289587Y-14019436D01*
X7289587Y-14019436D02*
X7280063Y-14009912D01*
D16*
X2375000Y-14346000D02*
X2505000Y-14476000D01*
X2505000Y-14346000D02*
X2375000Y-14476000D01*
X2505000Y-14411000D02*
G75*
G03*
X2505000Y-14411000I-65000J0D01*
G01*
D11*
X2870539Y-14502484D02*
X2756253Y-14502484D01*
X2813396Y-14502484D02*
X2813396Y-14302484D01*
X2813396Y-14302484D02*
X2794348Y-14331055D01*
X2794348Y-14331055D02*
X2775301Y-14350103D01*
X2775301Y-14350103D02*
X2756253Y-14359627D01*
X2956253Y-14483436D02*
X2965777Y-14492960D01*
X2965777Y-14492960D02*
X2956253Y-14502484D01*
X2956253Y-14502484D02*
X2946729Y-14492960D01*
X2946729Y-14492960D02*
X2956253Y-14483436D01*
X2956253Y-14483436D02*
X2956253Y-14502484D01*
X3032443Y-14302484D02*
X3156253Y-14302484D01*
X3156253Y-14302484D02*
X3089586Y-14378674D01*
X3089586Y-14378674D02*
X3118158Y-14378674D01*
X3118158Y-14378674D02*
X3137205Y-14388198D01*
X3137205Y-14388198D02*
X3146729Y-14397722D01*
X3146729Y-14397722D02*
X3156253Y-14416769D01*
X3156253Y-14416769D02*
X3156253Y-14464388D01*
X3156253Y-14464388D02*
X3146729Y-14483436D01*
X3146729Y-14483436D02*
X3137205Y-14492960D01*
X3137205Y-14492960D02*
X3118158Y-14502484D01*
X3118158Y-14502484D02*
X3061015Y-14502484D01*
X3061015Y-14502484D02*
X3041967Y-14492960D01*
X3041967Y-14492960D02*
X3032443Y-14483436D01*
X3280062Y-14302484D02*
X3299110Y-14302484D01*
X3299110Y-14302484D02*
X3318158Y-14312008D01*
X3318158Y-14312008D02*
X3327682Y-14321531D01*
X3327682Y-14321531D02*
X3337205Y-14340579D01*
X3337205Y-14340579D02*
X3346729Y-14378674D01*
X3346729Y-14378674D02*
X3346729Y-14426293D01*
X3346729Y-14426293D02*
X3337205Y-14464388D01*
X3337205Y-14464388D02*
X3327682Y-14483436D01*
X3327682Y-14483436D02*
X3318158Y-14492960D01*
X3318158Y-14492960D02*
X3299110Y-14502484D01*
X3299110Y-14502484D02*
X3280062Y-14502484D01*
X3280062Y-14502484D02*
X3261015Y-14492960D01*
X3261015Y-14492960D02*
X3251491Y-14483436D01*
X3251491Y-14483436D02*
X3241967Y-14464388D01*
X3241967Y-14464388D02*
X3232443Y-14426293D01*
X3232443Y-14426293D02*
X3232443Y-14378674D01*
X3232443Y-14378674D02*
X3241967Y-14340579D01*
X3241967Y-14340579D02*
X3251491Y-14321531D01*
X3251491Y-14321531D02*
X3261015Y-14312008D01*
X3261015Y-14312008D02*
X3280062Y-14302484D01*
X3470539Y-14302484D02*
X3489586Y-14302484D01*
X3489586Y-14302484D02*
X3508634Y-14312008D01*
X3508634Y-14312008D02*
X3518158Y-14321531D01*
X3518158Y-14321531D02*
X3527682Y-14340579D01*
X3527682Y-14340579D02*
X3537205Y-14378674D01*
X3537205Y-14378674D02*
X3537205Y-14426293D01*
X3537205Y-14426293D02*
X3527682Y-14464388D01*
X3527682Y-14464388D02*
X3518158Y-14483436D01*
X3518158Y-14483436D02*
X3508634Y-14492960D01*
X3508634Y-14492960D02*
X3489586Y-14502484D01*
X3489586Y-14502484D02*
X3470539Y-14502484D01*
X3470539Y-14502484D02*
X3451491Y-14492960D01*
X3451491Y-14492960D02*
X3441967Y-14483436D01*
X3441967Y-14483436D02*
X3432443Y-14464388D01*
X3432443Y-14464388D02*
X3422920Y-14426293D01*
X3422920Y-14426293D02*
X3422920Y-14378674D01*
X3422920Y-14378674D02*
X3432443Y-14340579D01*
X3432443Y-14340579D02*
X3441967Y-14321531D01*
X3441967Y-14321531D02*
X3451491Y-14312008D01*
X3451491Y-14312008D02*
X3470539Y-14302484D01*
X3622920Y-14502484D02*
X3622920Y-14369150D01*
X3622920Y-14388198D02*
X3632443Y-14378674D01*
X3632443Y-14378674D02*
X3651491Y-14369150D01*
X3651491Y-14369150D02*
X3680063Y-14369150D01*
X3680063Y-14369150D02*
X3699110Y-14378674D01*
X3699110Y-14378674D02*
X3708634Y-14397722D01*
X3708634Y-14397722D02*
X3708634Y-14502484D01*
X3708634Y-14397722D02*
X3718158Y-14378674D01*
X3718158Y-14378674D02*
X3737205Y-14369150D01*
X3737205Y-14369150D02*
X3765777Y-14369150D01*
X3765777Y-14369150D02*
X3784824Y-14378674D01*
X3784824Y-14378674D02*
X3794348Y-14397722D01*
X3794348Y-14397722D02*
X3794348Y-14502484D01*
X3889586Y-14502484D02*
X3889586Y-14369150D01*
X3889586Y-14388198D02*
X3899110Y-14378674D01*
X3899110Y-14378674D02*
X3918158Y-14369150D01*
X3918158Y-14369150D02*
X3946729Y-14369150D01*
X3946729Y-14369150D02*
X3965777Y-14378674D01*
X3965777Y-14378674D02*
X3975301Y-14397722D01*
X3975301Y-14397722D02*
X3975301Y-14502484D01*
X3975301Y-14397722D02*
X3984824Y-14378674D01*
X3984824Y-14378674D02*
X4003872Y-14369150D01*
X4003872Y-14369150D02*
X4032443Y-14369150D01*
X4032443Y-14369150D02*
X4051491Y-14378674D01*
X4051491Y-14378674D02*
X4061015Y-14397722D01*
X4061015Y-14397722D02*
X4061015Y-14502484D01*
X4451491Y-14292960D02*
X4280063Y-14550103D01*
X4708634Y-14302484D02*
X4727682Y-14302484D01*
X4727682Y-14302484D02*
X4746729Y-14312008D01*
X4746729Y-14312008D02*
X4756253Y-14321531D01*
X4756253Y-14321531D02*
X4765777Y-14340579D01*
X4765777Y-14340579D02*
X4775301Y-14378674D01*
X4775301Y-14378674D02*
X4775301Y-14426293D01*
X4775301Y-14426293D02*
X4765777Y-14464388D01*
X4765777Y-14464388D02*
X4756253Y-14483436D01*
X4756253Y-14483436D02*
X4746729Y-14492960D01*
X4746729Y-14492960D02*
X4727682Y-14502484D01*
X4727682Y-14502484D02*
X4708634Y-14502484D01*
X4708634Y-14502484D02*
X4689587Y-14492960D01*
X4689587Y-14492960D02*
X4680063Y-14483436D01*
X4680063Y-14483436D02*
X4670539Y-14464388D01*
X4670539Y-14464388D02*
X4661015Y-14426293D01*
X4661015Y-14426293D02*
X4661015Y-14378674D01*
X4661015Y-14378674D02*
X4670539Y-14340579D01*
X4670539Y-14340579D02*
X4680063Y-14321531D01*
X4680063Y-14321531D02*
X4689587Y-14312008D01*
X4689587Y-14312008D02*
X4708634Y-14302484D01*
X4861015Y-14483436D02*
X4870539Y-14492960D01*
X4870539Y-14492960D02*
X4861015Y-14502484D01*
X4861015Y-14502484D02*
X4851491Y-14492960D01*
X4851491Y-14492960D02*
X4861015Y-14483436D01*
X4861015Y-14483436D02*
X4861015Y-14502484D01*
X4994348Y-14302484D02*
X5013396Y-14302484D01*
X5013396Y-14302484D02*
X5032444Y-14312008D01*
X5032444Y-14312008D02*
X5041968Y-14321531D01*
X5041968Y-14321531D02*
X5051491Y-14340579D01*
X5051491Y-14340579D02*
X5061015Y-14378674D01*
X5061015Y-14378674D02*
X5061015Y-14426293D01*
X5061015Y-14426293D02*
X5051491Y-14464388D01*
X5051491Y-14464388D02*
X5041968Y-14483436D01*
X5041968Y-14483436D02*
X5032444Y-14492960D01*
X5032444Y-14492960D02*
X5013396Y-14502484D01*
X5013396Y-14502484D02*
X4994348Y-14502484D01*
X4994348Y-14502484D02*
X4975301Y-14492960D01*
X4975301Y-14492960D02*
X4965777Y-14483436D01*
X4965777Y-14483436D02*
X4956253Y-14464388D01*
X4956253Y-14464388D02*
X4946729Y-14426293D01*
X4946729Y-14426293D02*
X4946729Y-14378674D01*
X4946729Y-14378674D02*
X4956253Y-14340579D01*
X4956253Y-14340579D02*
X4965777Y-14321531D01*
X4965777Y-14321531D02*
X4975301Y-14312008D01*
X4975301Y-14312008D02*
X4994348Y-14302484D01*
X5241968Y-14302484D02*
X5146729Y-14302484D01*
X5146729Y-14302484D02*
X5137206Y-14397722D01*
X5137206Y-14397722D02*
X5146729Y-14388198D01*
X5146729Y-14388198D02*
X5165777Y-14378674D01*
X5165777Y-14378674D02*
X5213396Y-14378674D01*
X5213396Y-14378674D02*
X5232444Y-14388198D01*
X5232444Y-14388198D02*
X5241968Y-14397722D01*
X5241968Y-14397722D02*
X5251491Y-14416769D01*
X5251491Y-14416769D02*
X5251491Y-14464388D01*
X5251491Y-14464388D02*
X5241968Y-14483436D01*
X5241968Y-14483436D02*
X5232444Y-14492960D01*
X5232444Y-14492960D02*
X5213396Y-14502484D01*
X5213396Y-14502484D02*
X5165777Y-14502484D01*
X5165777Y-14502484D02*
X5146729Y-14492960D01*
X5146729Y-14492960D02*
X5137206Y-14483436D01*
X5441968Y-14502484D02*
X5327682Y-14502484D01*
X5384825Y-14502484D02*
X5384825Y-14302484D01*
X5384825Y-14302484D02*
X5365777Y-14331055D01*
X5365777Y-14331055D02*
X5346729Y-14350103D01*
X5346729Y-14350103D02*
X5327682Y-14359627D01*
X5518158Y-14321531D02*
X5527682Y-14312008D01*
X5527682Y-14312008D02*
X5546729Y-14302484D01*
X5546729Y-14302484D02*
X5594348Y-14302484D01*
X5594348Y-14302484D02*
X5613396Y-14312008D01*
X5613396Y-14312008D02*
X5622920Y-14321531D01*
X5622920Y-14321531D02*
X5632444Y-14340579D01*
X5632444Y-14340579D02*
X5632444Y-14359627D01*
X5632444Y-14359627D02*
X5622920Y-14388198D01*
X5622920Y-14388198D02*
X5508634Y-14502484D01*
X5508634Y-14502484D02*
X5632444Y-14502484D01*
X5708634Y-14302484D02*
X5708634Y-14340579D01*
X5784825Y-14302484D02*
X5784825Y-14340579D01*
X6080063Y-14578674D02*
X6070539Y-14569150D01*
X6070539Y-14569150D02*
X6051491Y-14540579D01*
X6051491Y-14540579D02*
X6041968Y-14521531D01*
X6041968Y-14521531D02*
X6032444Y-14492960D01*
X6032444Y-14492960D02*
X6022920Y-14445341D01*
X6022920Y-14445341D02*
X6022920Y-14407246D01*
X6022920Y-14407246D02*
X6032444Y-14359627D01*
X6032444Y-14359627D02*
X6041968Y-14331055D01*
X6041968Y-14331055D02*
X6051491Y-14312008D01*
X6051491Y-14312008D02*
X6070539Y-14283436D01*
X6070539Y-14283436D02*
X6080063Y-14273912D01*
X6165777Y-14502484D02*
X6203872Y-14502484D01*
X6203872Y-14502484D02*
X6222920Y-14492960D01*
X6222920Y-14492960D02*
X6232444Y-14483436D01*
X6232444Y-14483436D02*
X6251491Y-14454865D01*
X6251491Y-14454865D02*
X6261015Y-14416769D01*
X6261015Y-14416769D02*
X6261015Y-14340579D01*
X6261015Y-14340579D02*
X6251491Y-14321531D01*
X6251491Y-14321531D02*
X6241968Y-14312008D01*
X6241968Y-14312008D02*
X6222920Y-14302484D01*
X6222920Y-14302484D02*
X6184825Y-14302484D01*
X6184825Y-14302484D02*
X6165777Y-14312008D01*
X6165777Y-14312008D02*
X6156253Y-14321531D01*
X6156253Y-14321531D02*
X6146729Y-14340579D01*
X6146729Y-14340579D02*
X6146729Y-14388198D01*
X6146729Y-14388198D02*
X6156253Y-14407246D01*
X6156253Y-14407246D02*
X6165777Y-14416769D01*
X6165777Y-14416769D02*
X6184825Y-14426293D01*
X6184825Y-14426293D02*
X6222920Y-14426293D01*
X6222920Y-14426293D02*
X6241968Y-14416769D01*
X6241968Y-14416769D02*
X6251491Y-14407246D01*
X6251491Y-14407246D02*
X6261015Y-14388198D01*
X6499110Y-14502484D02*
X6499110Y-14302484D01*
X6584825Y-14502484D02*
X6584825Y-14397722D01*
X6584825Y-14397722D02*
X6575301Y-14378674D01*
X6575301Y-14378674D02*
X6556253Y-14369150D01*
X6556253Y-14369150D02*
X6527682Y-14369150D01*
X6527682Y-14369150D02*
X6508634Y-14378674D01*
X6508634Y-14378674D02*
X6499110Y-14388198D01*
X6708634Y-14502484D02*
X6689587Y-14492960D01*
X6689587Y-14492960D02*
X6680063Y-14483436D01*
X6680063Y-14483436D02*
X6670539Y-14464388D01*
X6670539Y-14464388D02*
X6670539Y-14407246D01*
X6670539Y-14407246D02*
X6680063Y-14388198D01*
X6680063Y-14388198D02*
X6689587Y-14378674D01*
X6689587Y-14378674D02*
X6708634Y-14369150D01*
X6708634Y-14369150D02*
X6737206Y-14369150D01*
X6737206Y-14369150D02*
X6756253Y-14378674D01*
X6756253Y-14378674D02*
X6765777Y-14388198D01*
X6765777Y-14388198D02*
X6775301Y-14407246D01*
X6775301Y-14407246D02*
X6775301Y-14464388D01*
X6775301Y-14464388D02*
X6765777Y-14483436D01*
X6765777Y-14483436D02*
X6756253Y-14492960D01*
X6756253Y-14492960D02*
X6737206Y-14502484D01*
X6737206Y-14502484D02*
X6708634Y-14502484D01*
X6889587Y-14502484D02*
X6870539Y-14492960D01*
X6870539Y-14492960D02*
X6861015Y-14473912D01*
X6861015Y-14473912D02*
X6861015Y-14302484D01*
X7041968Y-14492960D02*
X7022920Y-14502484D01*
X7022920Y-14502484D02*
X6984825Y-14502484D01*
X6984825Y-14502484D02*
X6965777Y-14492960D01*
X6965777Y-14492960D02*
X6956253Y-14473912D01*
X6956253Y-14473912D02*
X6956253Y-14397722D01*
X6956253Y-14397722D02*
X6965777Y-14378674D01*
X6965777Y-14378674D02*
X6984825Y-14369150D01*
X6984825Y-14369150D02*
X7022920Y-14369150D01*
X7022920Y-14369150D02*
X7041968Y-14378674D01*
X7041968Y-14378674D02*
X7051491Y-14397722D01*
X7051491Y-14397722D02*
X7051491Y-14416769D01*
X7051491Y-14416769D02*
X6956253Y-14435817D01*
X7127682Y-14492960D02*
X7146730Y-14502484D01*
X7146730Y-14502484D02*
X7184825Y-14502484D01*
X7184825Y-14502484D02*
X7203872Y-14492960D01*
X7203872Y-14492960D02*
X7213396Y-14473912D01*
X7213396Y-14473912D02*
X7213396Y-14464388D01*
X7213396Y-14464388D02*
X7203872Y-14445341D01*
X7203872Y-14445341D02*
X7184825Y-14435817D01*
X7184825Y-14435817D02*
X7156253Y-14435817D01*
X7156253Y-14435817D02*
X7137206Y-14426293D01*
X7137206Y-14426293D02*
X7127682Y-14407246D01*
X7127682Y-14407246D02*
X7127682Y-14397722D01*
X7127682Y-14397722D02*
X7137206Y-14378674D01*
X7137206Y-14378674D02*
X7156253Y-14369150D01*
X7156253Y-14369150D02*
X7184825Y-14369150D01*
X7184825Y-14369150D02*
X7203872Y-14378674D01*
X7280063Y-14578674D02*
X7289587Y-14569150D01*
X7289587Y-14569150D02*
X7308634Y-14540579D01*
X7308634Y-14540579D02*
X7318158Y-14521531D01*
X7318158Y-14521531D02*
X7327682Y-14492960D01*
X7327682Y-14492960D02*
X7337206Y-14445341D01*
X7337206Y-14445341D02*
X7337206Y-14407246D01*
X7337206Y-14407246D02*
X7327682Y-14359627D01*
X7327682Y-14359627D02*
X7318158Y-14331055D01*
X7318158Y-14331055D02*
X7308634Y-14312008D01*
X7308634Y-14312008D02*
X7289587Y-14283436D01*
X7289587Y-14283436D02*
X7280063Y-14273912D01*
D17*
X2330000Y-14587500D02*
X2505000Y-14762500D01*
X2505000Y-14587500D02*
X2330000Y-14762500D01*
X2417500Y-14587500D02*
X2417500Y-14762500D01*
X2330000Y-14675000D02*
X2505000Y-14675000D01*
D11*
X2870539Y-14766484D02*
X2756253Y-14766484D01*
X2813396Y-14766484D02*
X2813396Y-14566484D01*
X2813396Y-14566484D02*
X2794348Y-14595055D01*
X2794348Y-14595055D02*
X2775301Y-14614103D01*
X2775301Y-14614103D02*
X2756253Y-14623627D01*
X2956253Y-14747436D02*
X2965777Y-14756960D01*
X2965777Y-14756960D02*
X2956253Y-14766484D01*
X2956253Y-14766484D02*
X2946729Y-14756960D01*
X2946729Y-14756960D02*
X2956253Y-14747436D01*
X2956253Y-14747436D02*
X2956253Y-14766484D01*
X3032443Y-14566484D02*
X3165777Y-14566484D01*
X3165777Y-14566484D02*
X3080062Y-14766484D01*
X3337205Y-14566484D02*
X3241967Y-14566484D01*
X3241967Y-14566484D02*
X3232443Y-14661722D01*
X3232443Y-14661722D02*
X3241967Y-14652198D01*
X3241967Y-14652198D02*
X3261015Y-14642674D01*
X3261015Y-14642674D02*
X3308634Y-14642674D01*
X3308634Y-14642674D02*
X3327682Y-14652198D01*
X3327682Y-14652198D02*
X3337205Y-14661722D01*
X3337205Y-14661722D02*
X3346729Y-14680769D01*
X3346729Y-14680769D02*
X3346729Y-14728388D01*
X3346729Y-14728388D02*
X3337205Y-14747436D01*
X3337205Y-14747436D02*
X3327682Y-14756960D01*
X3327682Y-14756960D02*
X3308634Y-14766484D01*
X3308634Y-14766484D02*
X3261015Y-14766484D01*
X3261015Y-14766484D02*
X3241967Y-14756960D01*
X3241967Y-14756960D02*
X3232443Y-14747436D01*
X3470539Y-14566484D02*
X3489586Y-14566484D01*
X3489586Y-14566484D02*
X3508634Y-14576008D01*
X3508634Y-14576008D02*
X3518158Y-14585531D01*
X3518158Y-14585531D02*
X3527682Y-14604579D01*
X3527682Y-14604579D02*
X3537205Y-14642674D01*
X3537205Y-14642674D02*
X3537205Y-14690293D01*
X3537205Y-14690293D02*
X3527682Y-14728388D01*
X3527682Y-14728388D02*
X3518158Y-14747436D01*
X3518158Y-14747436D02*
X3508634Y-14756960D01*
X3508634Y-14756960D02*
X3489586Y-14766484D01*
X3489586Y-14766484D02*
X3470539Y-14766484D01*
X3470539Y-14766484D02*
X3451491Y-14756960D01*
X3451491Y-14756960D02*
X3441967Y-14747436D01*
X3441967Y-14747436D02*
X3432443Y-14728388D01*
X3432443Y-14728388D02*
X3422920Y-14690293D01*
X3422920Y-14690293D02*
X3422920Y-14642674D01*
X3422920Y-14642674D02*
X3432443Y-14604579D01*
X3432443Y-14604579D02*
X3441967Y-14585531D01*
X3441967Y-14585531D02*
X3451491Y-14576008D01*
X3451491Y-14576008D02*
X3470539Y-14566484D01*
X3622920Y-14766484D02*
X3622920Y-14633150D01*
X3622920Y-14652198D02*
X3632443Y-14642674D01*
X3632443Y-14642674D02*
X3651491Y-14633150D01*
X3651491Y-14633150D02*
X3680063Y-14633150D01*
X3680063Y-14633150D02*
X3699110Y-14642674D01*
X3699110Y-14642674D02*
X3708634Y-14661722D01*
X3708634Y-14661722D02*
X3708634Y-14766484D01*
X3708634Y-14661722D02*
X3718158Y-14642674D01*
X3718158Y-14642674D02*
X3737205Y-14633150D01*
X3737205Y-14633150D02*
X3765777Y-14633150D01*
X3765777Y-14633150D02*
X3784824Y-14642674D01*
X3784824Y-14642674D02*
X3794348Y-14661722D01*
X3794348Y-14661722D02*
X3794348Y-14766484D01*
X3889586Y-14766484D02*
X3889586Y-14633150D01*
X3889586Y-14652198D02*
X3899110Y-14642674D01*
X3899110Y-14642674D02*
X3918158Y-14633150D01*
X3918158Y-14633150D02*
X3946729Y-14633150D01*
X3946729Y-14633150D02*
X3965777Y-14642674D01*
X3965777Y-14642674D02*
X3975301Y-14661722D01*
X3975301Y-14661722D02*
X3975301Y-14766484D01*
X3975301Y-14661722D02*
X3984824Y-14642674D01*
X3984824Y-14642674D02*
X4003872Y-14633150D01*
X4003872Y-14633150D02*
X4032443Y-14633150D01*
X4032443Y-14633150D02*
X4051491Y-14642674D01*
X4051491Y-14642674D02*
X4061015Y-14661722D01*
X4061015Y-14661722D02*
X4061015Y-14766484D01*
X4451491Y-14556960D02*
X4280063Y-14814103D01*
X4708634Y-14566484D02*
X4727682Y-14566484D01*
X4727682Y-14566484D02*
X4746729Y-14576008D01*
X4746729Y-14576008D02*
X4756253Y-14585531D01*
X4756253Y-14585531D02*
X4765777Y-14604579D01*
X4765777Y-14604579D02*
X4775301Y-14642674D01*
X4775301Y-14642674D02*
X4775301Y-14690293D01*
X4775301Y-14690293D02*
X4765777Y-14728388D01*
X4765777Y-14728388D02*
X4756253Y-14747436D01*
X4756253Y-14747436D02*
X4746729Y-14756960D01*
X4746729Y-14756960D02*
X4727682Y-14766484D01*
X4727682Y-14766484D02*
X4708634Y-14766484D01*
X4708634Y-14766484D02*
X4689587Y-14756960D01*
X4689587Y-14756960D02*
X4680063Y-14747436D01*
X4680063Y-14747436D02*
X4670539Y-14728388D01*
X4670539Y-14728388D02*
X4661015Y-14690293D01*
X4661015Y-14690293D02*
X4661015Y-14642674D01*
X4661015Y-14642674D02*
X4670539Y-14604579D01*
X4670539Y-14604579D02*
X4680063Y-14585531D01*
X4680063Y-14585531D02*
X4689587Y-14576008D01*
X4689587Y-14576008D02*
X4708634Y-14566484D01*
X4861015Y-14747436D02*
X4870539Y-14756960D01*
X4870539Y-14756960D02*
X4861015Y-14766484D01*
X4861015Y-14766484D02*
X4851491Y-14756960D01*
X4851491Y-14756960D02*
X4861015Y-14747436D01*
X4861015Y-14747436D02*
X4861015Y-14766484D01*
X4994348Y-14566484D02*
X5013396Y-14566484D01*
X5013396Y-14566484D02*
X5032444Y-14576008D01*
X5032444Y-14576008D02*
X5041968Y-14585531D01*
X5041968Y-14585531D02*
X5051491Y-14604579D01*
X5051491Y-14604579D02*
X5061015Y-14642674D01*
X5061015Y-14642674D02*
X5061015Y-14690293D01*
X5061015Y-14690293D02*
X5051491Y-14728388D01*
X5051491Y-14728388D02*
X5041968Y-14747436D01*
X5041968Y-14747436D02*
X5032444Y-14756960D01*
X5032444Y-14756960D02*
X5013396Y-14766484D01*
X5013396Y-14766484D02*
X4994348Y-14766484D01*
X4994348Y-14766484D02*
X4975301Y-14756960D01*
X4975301Y-14756960D02*
X4965777Y-14747436D01*
X4965777Y-14747436D02*
X4956253Y-14728388D01*
X4956253Y-14728388D02*
X4946729Y-14690293D01*
X4946729Y-14690293D02*
X4946729Y-14642674D01*
X4946729Y-14642674D02*
X4956253Y-14604579D01*
X4956253Y-14604579D02*
X4965777Y-14585531D01*
X4965777Y-14585531D02*
X4975301Y-14576008D01*
X4975301Y-14576008D02*
X4994348Y-14566484D01*
X5232444Y-14566484D02*
X5194348Y-14566484D01*
X5194348Y-14566484D02*
X5175301Y-14576008D01*
X5175301Y-14576008D02*
X5165777Y-14585531D01*
X5165777Y-14585531D02*
X5146729Y-14614103D01*
X5146729Y-14614103D02*
X5137206Y-14652198D01*
X5137206Y-14652198D02*
X5137206Y-14728388D01*
X5137206Y-14728388D02*
X5146729Y-14747436D01*
X5146729Y-14747436D02*
X5156253Y-14756960D01*
X5156253Y-14756960D02*
X5175301Y-14766484D01*
X5175301Y-14766484D02*
X5213396Y-14766484D01*
X5213396Y-14766484D02*
X5232444Y-14756960D01*
X5232444Y-14756960D02*
X5241968Y-14747436D01*
X5241968Y-14747436D02*
X5251491Y-14728388D01*
X5251491Y-14728388D02*
X5251491Y-14680769D01*
X5251491Y-14680769D02*
X5241968Y-14661722D01*
X5241968Y-14661722D02*
X5232444Y-14652198D01*
X5232444Y-14652198D02*
X5213396Y-14642674D01*
X5213396Y-14642674D02*
X5175301Y-14642674D01*
X5175301Y-14642674D02*
X5156253Y-14652198D01*
X5156253Y-14652198D02*
X5146729Y-14661722D01*
X5146729Y-14661722D02*
X5137206Y-14680769D01*
X5365777Y-14652198D02*
X5346729Y-14642674D01*
X5346729Y-14642674D02*
X5337206Y-14633150D01*
X5337206Y-14633150D02*
X5327682Y-14614103D01*
X5327682Y-14614103D02*
X5327682Y-14604579D01*
X5327682Y-14604579D02*
X5337206Y-14585531D01*
X5337206Y-14585531D02*
X5346729Y-14576008D01*
X5346729Y-14576008D02*
X5365777Y-14566484D01*
X5365777Y-14566484D02*
X5403872Y-14566484D01*
X5403872Y-14566484D02*
X5422920Y-14576008D01*
X5422920Y-14576008D02*
X5432444Y-14585531D01*
X5432444Y-14585531D02*
X5441968Y-14604579D01*
X5441968Y-14604579D02*
X5441968Y-14614103D01*
X5441968Y-14614103D02*
X5432444Y-14633150D01*
X5432444Y-14633150D02*
X5422920Y-14642674D01*
X5422920Y-14642674D02*
X5403872Y-14652198D01*
X5403872Y-14652198D02*
X5365777Y-14652198D01*
X5365777Y-14652198D02*
X5346729Y-14661722D01*
X5346729Y-14661722D02*
X5337206Y-14671246D01*
X5337206Y-14671246D02*
X5327682Y-14690293D01*
X5327682Y-14690293D02*
X5327682Y-14728388D01*
X5327682Y-14728388D02*
X5337206Y-14747436D01*
X5337206Y-14747436D02*
X5346729Y-14756960D01*
X5346729Y-14756960D02*
X5365777Y-14766484D01*
X5365777Y-14766484D02*
X5403872Y-14766484D01*
X5403872Y-14766484D02*
X5422920Y-14756960D01*
X5422920Y-14756960D02*
X5432444Y-14747436D01*
X5432444Y-14747436D02*
X5441968Y-14728388D01*
X5441968Y-14728388D02*
X5441968Y-14690293D01*
X5441968Y-14690293D02*
X5432444Y-14671246D01*
X5432444Y-14671246D02*
X5422920Y-14661722D01*
X5422920Y-14661722D02*
X5403872Y-14652198D01*
X5537206Y-14766484D02*
X5575301Y-14766484D01*
X5575301Y-14766484D02*
X5594348Y-14756960D01*
X5594348Y-14756960D02*
X5603872Y-14747436D01*
X5603872Y-14747436D02*
X5622920Y-14718865D01*
X5622920Y-14718865D02*
X5632444Y-14680769D01*
X5632444Y-14680769D02*
X5632444Y-14604579D01*
X5632444Y-14604579D02*
X5622920Y-14585531D01*
X5622920Y-14585531D02*
X5613396Y-14576008D01*
X5613396Y-14576008D02*
X5594348Y-14566484D01*
X5594348Y-14566484D02*
X5556253Y-14566484D01*
X5556253Y-14566484D02*
X5537206Y-14576008D01*
X5537206Y-14576008D02*
X5527682Y-14585531D01*
X5527682Y-14585531D02*
X5518158Y-14604579D01*
X5518158Y-14604579D02*
X5518158Y-14652198D01*
X5518158Y-14652198D02*
X5527682Y-14671246D01*
X5527682Y-14671246D02*
X5537206Y-14680769D01*
X5537206Y-14680769D02*
X5556253Y-14690293D01*
X5556253Y-14690293D02*
X5594348Y-14690293D01*
X5594348Y-14690293D02*
X5613396Y-14680769D01*
X5613396Y-14680769D02*
X5622920Y-14671246D01*
X5622920Y-14671246D02*
X5632444Y-14652198D01*
X5708634Y-14566484D02*
X5708634Y-14604579D01*
X5784825Y-14566484D02*
X5784825Y-14604579D01*
X6080063Y-14842674D02*
X6070539Y-14833150D01*
X6070539Y-14833150D02*
X6051491Y-14804579D01*
X6051491Y-14804579D02*
X6041968Y-14785531D01*
X6041968Y-14785531D02*
X6032444Y-14756960D01*
X6032444Y-14756960D02*
X6022920Y-14709341D01*
X6022920Y-14709341D02*
X6022920Y-14671246D01*
X6022920Y-14671246D02*
X6032444Y-14623627D01*
X6032444Y-14623627D02*
X6041968Y-14595055D01*
X6041968Y-14595055D02*
X6051491Y-14576008D01*
X6051491Y-14576008D02*
X6070539Y-14547436D01*
X6070539Y-14547436D02*
X6080063Y-14537912D01*
X6146729Y-14585531D02*
X6156253Y-14576008D01*
X6156253Y-14576008D02*
X6175301Y-14566484D01*
X6175301Y-14566484D02*
X6222920Y-14566484D01*
X6222920Y-14566484D02*
X6241968Y-14576008D01*
X6241968Y-14576008D02*
X6251491Y-14585531D01*
X6251491Y-14585531D02*
X6261015Y-14604579D01*
X6261015Y-14604579D02*
X6261015Y-14623627D01*
X6261015Y-14623627D02*
X6251491Y-14652198D01*
X6251491Y-14652198D02*
X6137206Y-14766484D01*
X6137206Y-14766484D02*
X6261015Y-14766484D01*
X6384825Y-14566484D02*
X6403872Y-14566484D01*
X6403872Y-14566484D02*
X6422920Y-14576008D01*
X6422920Y-14576008D02*
X6432444Y-14585531D01*
X6432444Y-14585531D02*
X6441968Y-14604579D01*
X6441968Y-14604579D02*
X6451491Y-14642674D01*
X6451491Y-14642674D02*
X6451491Y-14690293D01*
X6451491Y-14690293D02*
X6441968Y-14728388D01*
X6441968Y-14728388D02*
X6432444Y-14747436D01*
X6432444Y-14747436D02*
X6422920Y-14756960D01*
X6422920Y-14756960D02*
X6403872Y-14766484D01*
X6403872Y-14766484D02*
X6384825Y-14766484D01*
X6384825Y-14766484D02*
X6365777Y-14756960D01*
X6365777Y-14756960D02*
X6356253Y-14747436D01*
X6356253Y-14747436D02*
X6346729Y-14728388D01*
X6346729Y-14728388D02*
X6337206Y-14690293D01*
X6337206Y-14690293D02*
X6337206Y-14642674D01*
X6337206Y-14642674D02*
X6346729Y-14604579D01*
X6346729Y-14604579D02*
X6356253Y-14585531D01*
X6356253Y-14585531D02*
X6365777Y-14576008D01*
X6365777Y-14576008D02*
X6384825Y-14566484D01*
X6689587Y-14766484D02*
X6689587Y-14566484D01*
X6775301Y-14766484D02*
X6775301Y-14661722D01*
X6775301Y-14661722D02*
X6765777Y-14642674D01*
X6765777Y-14642674D02*
X6746730Y-14633150D01*
X6746730Y-14633150D02*
X6718158Y-14633150D01*
X6718158Y-14633150D02*
X6699110Y-14642674D01*
X6699110Y-14642674D02*
X6689587Y-14652198D01*
X6899110Y-14766484D02*
X6880063Y-14756960D01*
X6880063Y-14756960D02*
X6870539Y-14747436D01*
X6870539Y-14747436D02*
X6861015Y-14728388D01*
X6861015Y-14728388D02*
X6861015Y-14671246D01*
X6861015Y-14671246D02*
X6870539Y-14652198D01*
X6870539Y-14652198D02*
X6880063Y-14642674D01*
X6880063Y-14642674D02*
X6899110Y-14633150D01*
X6899110Y-14633150D02*
X6927682Y-14633150D01*
X6927682Y-14633150D02*
X6946730Y-14642674D01*
X6946730Y-14642674D02*
X6956253Y-14652198D01*
X6956253Y-14652198D02*
X6965777Y-14671246D01*
X6965777Y-14671246D02*
X6965777Y-14728388D01*
X6965777Y-14728388D02*
X6956253Y-14747436D01*
X6956253Y-14747436D02*
X6946730Y-14756960D01*
X6946730Y-14756960D02*
X6927682Y-14766484D01*
X6927682Y-14766484D02*
X6899110Y-14766484D01*
X7080063Y-14766484D02*
X7061015Y-14756960D01*
X7061015Y-14756960D02*
X7051491Y-14737912D01*
X7051491Y-14737912D02*
X7051491Y-14566484D01*
X7232444Y-14756960D02*
X7213396Y-14766484D01*
X7213396Y-14766484D02*
X7175301Y-14766484D01*
X7175301Y-14766484D02*
X7156253Y-14756960D01*
X7156253Y-14756960D02*
X7146730Y-14737912D01*
X7146730Y-14737912D02*
X7146730Y-14661722D01*
X7146730Y-14661722D02*
X7156253Y-14642674D01*
X7156253Y-14642674D02*
X7175301Y-14633150D01*
X7175301Y-14633150D02*
X7213396Y-14633150D01*
X7213396Y-14633150D02*
X7232444Y-14642674D01*
X7232444Y-14642674D02*
X7241968Y-14661722D01*
X7241968Y-14661722D02*
X7241968Y-14680769D01*
X7241968Y-14680769D02*
X7146730Y-14699817D01*
X7318158Y-14756960D02*
X7337206Y-14766484D01*
X7337206Y-14766484D02*
X7375301Y-14766484D01*
X7375301Y-14766484D02*
X7394349Y-14756960D01*
X7394349Y-14756960D02*
X7403872Y-14737912D01*
X7403872Y-14737912D02*
X7403872Y-14728388D01*
X7403872Y-14728388D02*
X7394349Y-14709341D01*
X7394349Y-14709341D02*
X7375301Y-14699817D01*
X7375301Y-14699817D02*
X7346730Y-14699817D01*
X7346730Y-14699817D02*
X7327682Y-14690293D01*
X7327682Y-14690293D02*
X7318158Y-14671246D01*
X7318158Y-14671246D02*
X7318158Y-14661722D01*
X7318158Y-14661722D02*
X7327682Y-14642674D01*
X7327682Y-14642674D02*
X7346730Y-14633150D01*
X7346730Y-14633150D02*
X7375301Y-14633150D01*
X7375301Y-14633150D02*
X7394349Y-14642674D01*
X7470539Y-14842674D02*
X7480063Y-14833150D01*
X7480063Y-14833150D02*
X7499111Y-14804579D01*
X7499111Y-14804579D02*
X7508634Y-14785531D01*
X7508634Y-14785531D02*
X7518158Y-14756960D01*
X7518158Y-14756960D02*
X7527682Y-14709341D01*
X7527682Y-14709341D02*
X7527682Y-14671246D01*
X7527682Y-14671246D02*
X7518158Y-14623627D01*
X7518158Y-14623627D02*
X7508634Y-14595055D01*
X7508634Y-14595055D02*
X7499111Y-14576008D01*
X7499111Y-14576008D02*
X7480063Y-14547436D01*
X7480063Y-14547436D02*
X7470539Y-14537912D01*
M02*
