%TF.GenerationSoftware,KiCad,Pcbnew,7.0.8*%
%TF.CreationDate,2025-04-10T16:12:06-04:00*%
%TF.ProjectId,2310interface,32333130-696e-4746-9572-666163652e6b,rev?*%
%TF.SameCoordinates,Original*%
%TF.FileFunction,Copper,L1,Top*%
%TF.FilePolarity,Positive*%
%FSLAX46Y46*%
G04 Gerber Fmt 4.6, Leading zero omitted, Abs format (unit mm)*
G04 Created by KiCad (PCBNEW 7.0.8) date 2025-04-10 16:12:06*
%MOMM*%
%LPD*%
G01*
G04 APERTURE LIST*
G04 Aperture macros list*
%AMRoundRect*
0 Rectangle with rounded corners*
0 $1 Rounding radius*
0 $2 $3 $4 $5 $6 $7 $8 $9 X,Y pos of 4 corners*
0 Add a 4 corners polygon primitive as box body*
4,1,4,$2,$3,$4,$5,$6,$7,$8,$9,$2,$3,0*
0 Add four circle primitives for the rounded corners*
1,1,$1+$1,$2,$3*
1,1,$1+$1,$4,$5*
1,1,$1+$1,$6,$7*
1,1,$1+$1,$8,$9*
0 Add four rect primitives between the rounded corners*
20,1,$1+$1,$2,$3,$4,$5,0*
20,1,$1+$1,$4,$5,$6,$7,0*
20,1,$1+$1,$6,$7,$8,$9,0*
20,1,$1+$1,$8,$9,$2,$3,0*%
G04 Aperture macros list end*
%TA.AperFunction,ComponentPad*%
%ADD10RoundRect,0.250002X-1.699998X-1.699998X1.699998X-1.699998X1.699998X1.699998X-1.699998X1.699998X0*%
%TD*%
%TA.AperFunction,SMDPad,CuDef*%
%ADD11R,1.000000X0.800000*%
%TD*%
%TA.AperFunction,SMDPad,CuDef*%
%ADD12R,0.700000X1.500000*%
%TD*%
%TA.AperFunction,SMDPad,CuDef*%
%ADD13RoundRect,0.250000X0.450000X-0.262500X0.450000X0.262500X-0.450000X0.262500X-0.450000X-0.262500X0*%
%TD*%
%TA.AperFunction,SMDPad,CuDef*%
%ADD14R,2.000000X1.500000*%
%TD*%
%TA.AperFunction,SMDPad,CuDef*%
%ADD15R,2.000000X3.800000*%
%TD*%
%TA.AperFunction,SMDPad,CuDef*%
%ADD16RoundRect,0.250000X-0.475000X0.250000X-0.475000X-0.250000X0.475000X-0.250000X0.475000X0.250000X0*%
%TD*%
%TA.AperFunction,SMDPad,CuDef*%
%ADD17RoundRect,0.250000X-0.262500X-0.450000X0.262500X-0.450000X0.262500X0.450000X-0.262500X0.450000X0*%
%TD*%
%TA.AperFunction,ComponentPad*%
%ADD18R,2.600000X2.600000*%
%TD*%
%TA.AperFunction,ComponentPad*%
%ADD19C,2.600000*%
%TD*%
%TA.AperFunction,ComponentPad*%
%ADD20RoundRect,0.250000X-0.600000X-0.600000X0.600000X-0.600000X0.600000X0.600000X-0.600000X0.600000X0*%
%TD*%
%TA.AperFunction,ComponentPad*%
%ADD21C,1.700000*%
%TD*%
%TA.AperFunction,ComponentPad*%
%ADD22R,1.050000X1.500000*%
%TD*%
%TA.AperFunction,ComponentPad*%
%ADD23O,1.050000X1.500000*%
%TD*%
%TA.AperFunction,SMDPad,CuDef*%
%ADD24RoundRect,0.250000X-0.450000X0.262500X-0.450000X-0.262500X0.450000X-0.262500X0.450000X0.262500X0*%
%TD*%
%TA.AperFunction,ComponentPad*%
%ADD25RoundRect,0.250000X0.600000X0.600000X-0.600000X0.600000X-0.600000X-0.600000X0.600000X-0.600000X0*%
%TD*%
%TA.AperFunction,ComponentPad*%
%ADD26C,3.000000*%
%TD*%
%TA.AperFunction,ComponentPad*%
%ADD27O,1.905000X2.000000*%
%TD*%
%TA.AperFunction,ComponentPad*%
%ADD28R,1.905000X2.000000*%
%TD*%
%TA.AperFunction,SMDPad,CuDef*%
%ADD29RoundRect,0.250000X0.250000X0.475000X-0.250000X0.475000X-0.250000X-0.475000X0.250000X-0.475000X0*%
%TD*%
%TA.AperFunction,ComponentPad*%
%ADD30RoundRect,0.250001X0.799999X0.799999X-0.799999X0.799999X-0.799999X-0.799999X0.799999X-0.799999X0*%
%TD*%
%TA.AperFunction,ViaPad*%
%ADD31C,0.800000*%
%TD*%
%TA.AperFunction,Conductor*%
%ADD32C,0.250000*%
%TD*%
%TA.AperFunction,Conductor*%
%ADD33C,0.508000*%
%TD*%
%TA.AperFunction,Conductor*%
%ADD34C,1.016000*%
%TD*%
G04 APERTURE END LIST*
D10*
%TO.P,AB10,1,Pin_1*%
%TO.N,Net-(AB10-Pin_1)*%
X129600000Y-39290000D03*
%TD*%
D11*
%TO.P,SW1,*%
%TO.N,*%
X124750000Y-86090000D03*
X124750000Y-88300000D03*
X132050000Y-86090000D03*
X132050000Y-88300000D03*
D12*
%TO.P,SW1,1,A*%
%TO.N,Net-(SW1-A)*%
X126150000Y-85440000D03*
%TO.P,SW1,2,B*%
%TO.N,Net-(ConnA1-Pin_18)*%
X129150000Y-85440000D03*
%TO.P,SW1,3,C*%
%TO.N,GND*%
X130650000Y-85440000D03*
%TD*%
D10*
%TO.P,AB13,1,Pin_1*%
%TO.N,Net-(AB13-Pin_1)*%
X152320000Y-39530000D03*
%TD*%
%TO.P,AD2,1,Pin_1*%
%TO.N,Net-(AD2-Pin_1)*%
X69090000Y-31150000D03*
%TD*%
%TO.P,AD6,1,Pin_1*%
%TO.N,Net-(AD6-Pin_1)*%
X98740000Y-30980000D03*
%TD*%
%TO.P,AD11,1,Pin_1*%
%TO.N,Net-(AD10-Pin_1)*%
X137460000Y-31420000D03*
%TD*%
D13*
%TO.P,R5,1*%
%TO.N,Net-(R4-Pad2)*%
X144700000Y-96900000D03*
%TO.P,R5,2*%
%TO.N,GND*%
X144700000Y-95075000D03*
%TD*%
D10*
%TO.P,AB9,1,Pin_1*%
%TO.N,Net-(AB9-Pin_1)*%
X121600000Y-39060000D03*
%TD*%
%TO.P,AD4,1,Pin_1*%
%TO.N,Net-(AD4-Pin_1)*%
X83180000Y-31150000D03*
%TD*%
D14*
%TO.P,U1,1,GND*%
%TO.N,GND*%
X133340000Y-116970000D03*
%TO.P,U1,2,VO*%
%TO.N,Net-(SW1-A)*%
X133340000Y-114670000D03*
D15*
X127040000Y-114670000D03*
D14*
%TO.P,U1,3,VI*%
%TO.N,Net-(J4-Pin_1)*%
X133340000Y-112370000D03*
%TD*%
D10*
%TO.P,AD5,1,Pin_1*%
%TO.N,unconnected-(AD5-Pin_1-Pad1)*%
X91000000Y-30980000D03*
%TD*%
D16*
%TO.P,C2,1*%
%TO.N,Net-(SW1-A)*%
X138280000Y-116670000D03*
%TO.P,C2,2*%
%TO.N,GND*%
X138280000Y-118570000D03*
%TD*%
D17*
%TO.P,R7,1*%
%TO.N,Net-(Q2-B)*%
X139997500Y-97060000D03*
%TO.P,R7,2*%
%TO.N,Net-(R4-Pad2)*%
X141822500Y-97060000D03*
%TD*%
D10*
%TO.P,AB7,1,Pin_1*%
%TO.N,Net-(AB7-Pin_1)*%
X106300000Y-39140000D03*
%TD*%
%TO.P,AB8,1,Pin_1*%
%TO.N,Net-(AB8-Pin_1)*%
X113780000Y-39060000D03*
%TD*%
D18*
%TO.P,J4,1,Pin_1*%
%TO.N,Net-(J4-Pin_1)*%
X146280000Y-116650000D03*
D19*
%TO.P,J4,2,Pin_2*%
%TO.N,Net-(J4-Pin_2)*%
X151280000Y-116650000D03*
%TO.P,J4,3,Pin_3*%
%TO.N,Net-(J4-Pin_3)*%
X156280000Y-116650000D03*
%TO.P,J4,4,Pin_4*%
%TO.N,GND*%
X161280000Y-116650000D03*
%TD*%
D10*
%TO.P,AB5,1,Pin_1*%
%TO.N,Net-(AB5-Pin_1)*%
X90920000Y-39060000D03*
%TD*%
%TO.P,AD9,1,Pin_1*%
%TO.N,Net-(AD9-Pin_1)*%
X121690000Y-31240000D03*
%TD*%
%TO.P,AD10,1,Pin_1*%
%TO.N,Net-(AD10-Pin_1)*%
X129720000Y-31300000D03*
%TD*%
%TO.P,AB3,1,Pin_1*%
%TO.N,Net-(AB3-Pin_1)*%
X75960000Y-39230000D03*
%TD*%
D13*
%TO.P,R1,1*%
%TO.N,Net-(ConnB1-Pin_39)*%
X153450000Y-92532500D03*
%TO.P,R1,2*%
%TO.N,GND*%
X153450000Y-90707500D03*
%TD*%
D10*
%TO.P,AD13,1,Pin_1*%
%TO.N,Net-(AD13-Pin_1)*%
X151950000Y-31420000D03*
%TD*%
D20*
%TO.P,ConnA1,1,Pin_1*%
%TO.N,unconnected-(ConnA1-Pin_1-Pad1)*%
X178710000Y-46860000D03*
D21*
%TO.P,ConnA1,2,Pin_2*%
%TO.N,Net-(AB3-Pin_1)*%
X181250000Y-46860000D03*
%TO.P,ConnA1,3,Pin_3*%
%TO.N,unconnected-(ConnA1-Pin_3-Pad3)*%
X178710000Y-49400000D03*
%TO.P,ConnA1,4,Pin_4*%
%TO.N,Net-(AD2-Pin_1)*%
X181250000Y-49400000D03*
%TO.P,ConnA1,5,Pin_5*%
%TO.N,unconnected-(ConnA1-Pin_5-Pad5)*%
X178710000Y-51940000D03*
%TO.P,ConnA1,6,Pin_6*%
%TO.N,Net-(AD13-Pin_1)*%
X181250000Y-51940000D03*
%TO.P,ConnA1,7,Pin_7*%
%TO.N,unconnected-(ConnA1-Pin_7-Pad7)*%
X178710000Y-54480000D03*
%TO.P,ConnA1,8,Pin_8*%
%TO.N,Net-(AD6-Pin_1)*%
X181250000Y-54480000D03*
%TO.P,ConnA1,9,Pin_9*%
%TO.N,unconnected-(ConnA1-Pin_9-Pad9)*%
X178710000Y-57020000D03*
%TO.P,ConnA1,10,Pin_10*%
%TO.N,Net-(B13-Pin_1)*%
X181250000Y-57020000D03*
%TO.P,ConnA1,11,Pin_11*%
%TO.N,unconnected-(ConnA1-Pin_11-Pad11)*%
X178710000Y-59560000D03*
%TO.P,ConnA1,12,Pin_12*%
%TO.N,Net-(AB12-Pin_1)*%
X181250000Y-59560000D03*
%TO.P,ConnA1,13,Pin_13*%
%TO.N,unconnected-(ConnA1-Pin_13-Pad13)*%
X178710000Y-62100000D03*
%TO.P,ConnA1,14,Pin_14*%
%TO.N,Net-(B7-Pin_1)*%
X181250000Y-62100000D03*
%TO.P,ConnA1,15,Pin_15*%
%TO.N,unconnected-(ConnA1-Pin_15-Pad15)*%
X178710000Y-64640000D03*
%TO.P,ConnA1,16,Pin_16*%
%TO.N,Net-(AB8-Pin_1)*%
X181250000Y-64640000D03*
%TO.P,ConnA1,17,Pin_17*%
%TO.N,unconnected-(ConnA1-Pin_17-Pad17)*%
X178710000Y-67180000D03*
%TO.P,ConnA1,18,Pin_18*%
%TO.N,Net-(ConnA1-Pin_18)*%
X181250000Y-67180000D03*
%TO.P,ConnA1,19,Pin_19*%
%TO.N,unconnected-(ConnA1-Pin_19-Pad19)*%
X178710000Y-69720000D03*
%TO.P,ConnA1,20,Pin_20*%
%TO.N,Net-(AD12-Pin_1)*%
X181250000Y-69720000D03*
%TO.P,ConnA1,21,Pin_21*%
%TO.N,unconnected-(ConnA1-Pin_21-Pad21)*%
X178710000Y-72260000D03*
%TO.P,ConnA1,22,Pin_22*%
%TO.N,Net-(AB7-Pin_1)*%
X181250000Y-72260000D03*
%TO.P,ConnA1,23,Pin_23*%
%TO.N,unconnected-(ConnA1-Pin_23-Pad23)*%
X178710000Y-74800000D03*
%TO.P,ConnA1,24,Pin_24*%
%TO.N,Net-(ConnA1-Pin_24)*%
X181250000Y-74800000D03*
%TO.P,ConnA1,25,Pin_25*%
%TO.N,unconnected-(ConnA1-Pin_25-Pad25)*%
X178710000Y-77340000D03*
%TO.P,ConnA1,26,Pin_26*%
%TO.N,Net-(AB2-Pin_1)*%
X181250000Y-77340000D03*
%TO.P,ConnA1,27,Pin_27*%
%TO.N,unconnected-(ConnA1-Pin_27-Pad27)*%
X178710000Y-79880000D03*
%TO.P,ConnA1,28,Pin_28*%
%TO.N,Net-(B10-Pin_1)*%
X181250000Y-79880000D03*
%TO.P,ConnA1,29,Pin_29*%
%TO.N,unconnected-(ConnA1-Pin_29-Pad29)*%
X178710000Y-82420000D03*
%TO.P,ConnA1,30,Pin_30*%
%TO.N,Net-(AB5-Pin_1)*%
X181250000Y-82420000D03*
%TO.P,ConnA1,31,Pin_31*%
%TO.N,unconnected-(ConnA1-Pin_31-Pad31)*%
X178710000Y-84960000D03*
%TO.P,ConnA1,32,Pin_32*%
%TO.N,Net-(AB10-Pin_1)*%
X181250000Y-84960000D03*
%TO.P,ConnA1,33,Pin_33*%
%TO.N,unconnected-(ConnA1-Pin_33-Pad33)*%
X178710000Y-87500000D03*
%TO.P,ConnA1,34,Pin_34*%
%TO.N,Net-(B2-Pin_1)*%
X181250000Y-87500000D03*
%TO.P,ConnA1,35,Pin_35*%
%TO.N,unconnected-(ConnA1-Pin_35-Pad35)*%
X178710000Y-90040000D03*
%TO.P,ConnA1,36,Pin_36*%
%TO.N,Net-(ConnA1-Pin_36)*%
X181250000Y-90040000D03*
%TO.P,ConnA1,37,Pin_37*%
%TO.N,unconnected-(ConnA1-Pin_37-Pad37)*%
X178710000Y-92580000D03*
%TO.P,ConnA1,38,Pin_38*%
%TO.N,Net-(B5-Pin_1)*%
X181250000Y-92580000D03*
%TO.P,ConnA1,39,Pin_39*%
%TO.N,unconnected-(ConnA1-Pin_39-Pad39)*%
X178710000Y-95120000D03*
%TO.P,ConnA1,40,Pin_40*%
%TO.N,Net-(B4-Pin_1)*%
X181250000Y-95120000D03*
%TD*%
D10*
%TO.P,AB12,1,Pin_1*%
%TO.N,Net-(AB12-Pin_1)*%
X145320000Y-39650000D03*
%TD*%
%TO.P,AB2,1,Pin_1*%
%TO.N,Net-(AB2-Pin_1)*%
X69000000Y-39320000D03*
%TD*%
D22*
%TO.P,Q2,1,E*%
%TO.N,GND*%
X138510000Y-102680000D03*
D23*
%TO.P,Q2,2,B*%
%TO.N,Net-(Q2-B)*%
X139780000Y-102680000D03*
%TO.P,Q2,3,C*%
%TO.N,Net-(ConnA1-Pin_24)*%
X141050000Y-102680000D03*
%TD*%
D24*
%TO.P,R6,1*%
%TO.N,Net-(SW1-A)*%
X133860000Y-101417500D03*
%TO.P,R6,2*%
%TO.N,Net-(ConnA1-Pin_24)*%
X133860000Y-103242500D03*
%TD*%
D25*
%TO.P,ConnB1,1,Pin_1*%
%TO.N,unconnected-(ConnB1-Pin_1-Pad1)*%
X48390000Y-97240000D03*
D21*
%TO.P,ConnB1,2,Pin_2*%
%TO.N,unconnected-(ConnB1-Pin_2-Pad2)*%
X45850000Y-97240000D03*
%TO.P,ConnB1,3,Pin_3*%
%TO.N,unconnected-(ConnB1-Pin_3-Pad3)*%
X48390000Y-94700000D03*
%TO.P,ConnB1,4,Pin_4*%
%TO.N,unconnected-(ConnB1-Pin_4-Pad4)*%
X45850000Y-94700000D03*
%TO.P,ConnB1,5,Pin_5*%
%TO.N,Net-(ConnB1-Pin_5)*%
X48390000Y-92160000D03*
%TO.P,ConnB1,6,Pin_6*%
%TO.N,unconnected-(ConnB1-Pin_6-Pad6)*%
X45850000Y-92160000D03*
%TO.P,ConnB1,7,Pin_7*%
%TO.N,Net-(AB13-Pin_1)*%
X48390000Y-89620000D03*
%TO.P,ConnB1,8,Pin_8*%
%TO.N,unconnected-(ConnB1-Pin_8-Pad8)*%
X45850000Y-89620000D03*
%TO.P,ConnB1,9,Pin_9*%
%TO.N,Net-(AD10-Pin_1)*%
X48390000Y-87080000D03*
%TO.P,ConnB1,10,Pin_10*%
%TO.N,unconnected-(ConnB1-Pin_10-Pad10)*%
X45850000Y-87080000D03*
%TO.P,ConnB1,11,Pin_11*%
%TO.N,Net-(B8-Pin_1)*%
X48390000Y-84540000D03*
%TO.P,ConnB1,12,Pin_12*%
%TO.N,unconnected-(ConnB1-Pin_12-Pad12)*%
X45850000Y-84540000D03*
%TO.P,ConnB1,13,Pin_13*%
%TO.N,Net-(AD9-Pin_1)*%
X48390000Y-82000000D03*
%TO.P,ConnB1,14,Pin_14*%
%TO.N,unconnected-(ConnB1-Pin_14-Pad14)*%
X45850000Y-82000000D03*
%TO.P,ConnB1,15,Pin_15*%
%TO.N,Net-(AB9-Pin_1)*%
X48390000Y-79460000D03*
%TO.P,ConnB1,16,Pin_16*%
%TO.N,unconnected-(ConnB1-Pin_16-Pad16)*%
X45850000Y-79460000D03*
%TO.P,ConnB1,17,Pin_17*%
%TO.N,Net-(ConnB1-Pin_17)*%
X48390000Y-76920000D03*
%TO.P,ConnB1,18,Pin_18*%
%TO.N,unconnected-(ConnB1-Pin_18-Pad18)*%
X45850000Y-76920000D03*
%TO.P,ConnB1,19,Pin_19*%
%TO.N,Net-(B12-Pin_1)*%
X48390000Y-74380000D03*
%TO.P,ConnB1,20,Pin_20*%
%TO.N,unconnected-(ConnB1-Pin_20-Pad20)*%
X45850000Y-74380000D03*
%TO.P,ConnB1,21,Pin_21*%
%TO.N,Net-(ConnB1-Pin_21)*%
X48390000Y-71840000D03*
%TO.P,ConnB1,22,Pin_22*%
%TO.N,unconnected-(ConnB1-Pin_22-Pad22)*%
X45850000Y-71840000D03*
%TO.P,ConnB1,23,Pin_23*%
%TO.N,Net-(ConnB1-Pin_23)*%
X48390000Y-69300000D03*
%TO.P,ConnB1,24,Pin_24*%
%TO.N,unconnected-(ConnB1-Pin_24-Pad24)*%
X45850000Y-69300000D03*
%TO.P,ConnB1,25,Pin_25*%
%TO.N,Net-(ConnB1-Pin_25)*%
X48390000Y-66760000D03*
%TO.P,ConnB1,26,Pin_26*%
%TO.N,unconnected-(ConnB1-Pin_26-Pad26)*%
X45850000Y-66760000D03*
%TO.P,ConnB1,27,Pin_27*%
%TO.N,Net-(AB4-Pin_1)*%
X48390000Y-64220000D03*
%TO.P,ConnB1,28,Pin_28*%
%TO.N,unconnected-(ConnB1-Pin_28-Pad28)*%
X45850000Y-64220000D03*
%TO.P,ConnB1,29,Pin_29*%
%TO.N,Net-(AD4-Pin_1)*%
X48390000Y-61680000D03*
%TO.P,ConnB1,30,Pin_30*%
%TO.N,unconnected-(ConnB1-Pin_30-Pad30)*%
X45850000Y-61680000D03*
%TO.P,ConnB1,31,Pin_31*%
%TO.N,Net-(B9-Pin_1)*%
X48390000Y-59140000D03*
%TO.P,ConnB1,32,Pin_32*%
%TO.N,unconnected-(ConnB1-Pin_32-Pad32)*%
X45850000Y-59140000D03*
%TO.P,ConnB1,33,Pin_33*%
%TO.N,unconnected-(ConnB1-Pin_33-Pad33)*%
X48390000Y-56600000D03*
%TO.P,ConnB1,34,Pin_34*%
%TO.N,unconnected-(ConnB1-Pin_34-Pad34)*%
X45850000Y-56600000D03*
%TO.P,ConnB1,35,Pin_35*%
%TO.N,Net-(ConnB1-Pin_35)*%
X48390000Y-54060000D03*
%TO.P,ConnB1,36,Pin_36*%
%TO.N,unconnected-(ConnB1-Pin_36-Pad36)*%
X45850000Y-54060000D03*
%TO.P,ConnB1,37,Pin_37*%
%TO.N,Net-(B3-Pin_1)*%
X48390000Y-51520000D03*
%TO.P,ConnB1,38,Pin_38*%
%TO.N,unconnected-(ConnB1-Pin_38-Pad38)*%
X45850000Y-51520000D03*
%TO.P,ConnB1,39,Pin_39*%
%TO.N,Net-(ConnB1-Pin_39)*%
X48390000Y-48980000D03*
%TO.P,ConnB1,40,Pin_40*%
%TO.N,unconnected-(ConnB1-Pin_40-Pad40)*%
X45850000Y-48980000D03*
%TD*%
D26*
%TO.P,K1,11*%
%TO.N,Net-(J4-Pin_3)*%
X184970000Y-115160000D03*
%TO.P,K1,12*%
%TO.N,Net-(Q1-D)*%
X170770000Y-121160000D03*
%TO.P,K1,14*%
%TO.N,Net-(J4-Pin_2)*%
X170770000Y-109160000D03*
%TO.P,K1,A1*%
%TO.N,Net-(ConnA1-Pin_18)*%
X182970000Y-109160000D03*
%TO.P,K1,A2*%
%TO.N,GND*%
X182970000Y-121160000D03*
%TD*%
D10*
%TO.P,AD12,1,Pin_1*%
%TO.N,Net-(AD12-Pin_1)*%
X144950000Y-31300000D03*
%TD*%
D27*
%TO.P,Q1,1,D*%
%TO.N,Net-(Q1-D)*%
X163400000Y-95750000D03*
%TO.P,Q1,2,S*%
%TO.N,GND*%
X160860000Y-95750000D03*
D28*
%TO.P,Q1,3,G*%
%TO.N,Net-(ConnB1-Pin_39)*%
X165940000Y-95750000D03*
%TD*%
D10*
%TO.P,AB4,1,Pin_1*%
%TO.N,Net-(AB4-Pin_1)*%
X83270000Y-38970000D03*
%TD*%
D29*
%TO.P,C1,1*%
%TO.N,GND*%
X139480000Y-112810000D03*
%TO.P,C1,2*%
%TO.N,Net-(J4-Pin_1)*%
X137580000Y-112810000D03*
%TD*%
D10*
%TO.P,AD7,1,Pin_1*%
%TO.N,GND*%
X106300000Y-31320000D03*
%TD*%
D13*
%TO.P,R4,1*%
%TO.N,Net-(J4-Pin_2)*%
X144810000Y-102272500D03*
%TO.P,R4,2*%
%TO.N,Net-(R4-Pad2)*%
X144810000Y-100447500D03*
%TD*%
D30*
%TO.P,B13,1,Pin_1*%
%TO.N,Net-(B13-Pin_1)*%
X70005000Y-114270000D03*
%TD*%
%TO.P,D4,1,Pin_1*%
%TO.N,Net-(ConnB1-Pin_5)*%
X98580000Y-107920000D03*
%TD*%
%TO.P,B7,1,Pin_1*%
%TO.N,Net-(B7-Pin_1)*%
X89055000Y-114270000D03*
%TD*%
%TO.P,B11,1,Pin_1*%
%TO.N,unconnected-(B11-Pin_1-Pad1)*%
X76355000Y-114270000D03*
%TD*%
%TO.P,D9,1,Pin_1*%
%TO.N,Net-(ConnB1-Pin_21)*%
X82705000Y-107920000D03*
%TD*%
%TO.P,D2,1,Pin_1*%
%TO.N,Net-(ConnB1-Pin_35)*%
X104930000Y-107920000D03*
%TD*%
%TO.P,B9,1,Pin_1*%
%TO.N,Net-(B9-Pin_1)*%
X82705000Y-114270000D03*
%TD*%
%TO.P,D8,1,Pin_1*%
%TO.N,unconnected-(D8-Pin_1-Pad1)*%
X85880000Y-107920000D03*
%TD*%
%TO.P,D10,1,Pin_1*%
%TO.N,Net-(ConnB1-Pin_17)*%
X79530000Y-107920000D03*
%TD*%
%TO.P,B5,1,Pin_1*%
%TO.N,Net-(B5-Pin_1)*%
X95405000Y-114270000D03*
%TD*%
%TO.P,D5,1,Pin_1*%
%TO.N,unconnected-(D5-Pin_1-Pad1)*%
X95405000Y-107920000D03*
%TD*%
%TO.P,D11,1,Pin_1*%
%TO.N,Net-(ConnB1-Pin_17)*%
X76355000Y-107920000D03*
%TD*%
%TO.P,B6,1,Pin_1*%
%TO.N,unconnected-(B6-Pin_1-Pad1)*%
X92230000Y-114270000D03*
%TD*%
%TO.P,D6,1,Pin_1*%
%TO.N,Net-(ConnB1-Pin_25)*%
X92230000Y-107920000D03*
%TD*%
%TO.P,B3,1,Pin_1*%
%TO.N,Net-(B3-Pin_1)*%
X101755000Y-114270000D03*
%TD*%
%TO.P,B10,1,Pin_1*%
%TO.N,Net-(B10-Pin_1)*%
X79530000Y-114270000D03*
%TD*%
%TO.P,B8,1,Pin_1*%
%TO.N,Net-(B8-Pin_1)*%
X85880000Y-114270000D03*
%TD*%
%TO.P,B12,1,Pin_1*%
%TO.N,Net-(B12-Pin_1)*%
X73180000Y-114270000D03*
%TD*%
%TO.P,D3,1,Pin_1*%
%TO.N,unconnected-(D3-Pin_1-Pad1)*%
X101755000Y-107920000D03*
%TD*%
%TO.P,B4,1,Pin_1*%
%TO.N,Net-(B4-Pin_1)*%
X98580000Y-114270000D03*
%TD*%
%TO.P,D7,1,Pin_1*%
%TO.N,unconnected-(D7-Pin_1-Pad1)*%
X89055000Y-107920000D03*
%TD*%
%TO.P,D13,1,Pin_1*%
%TO.N,Net-(ConnB1-Pin_23)*%
X70005000Y-107920000D03*
%TD*%
%TO.P,D12,1,Pin_1*%
%TO.N,Net-(ConnA1-Pin_36)*%
X73180000Y-107920000D03*
%TD*%
%TO.P,B2,1,Pin_1*%
%TO.N,Net-(B2-Pin_1)*%
X104930000Y-114270000D03*
%TD*%
D31*
%TO.N,Net-(ConnA1-Pin_36)*%
X81890000Y-99500000D03*
X99170000Y-101530000D03*
X102350000Y-100590000D03*
%TO.N,GND*%
X93850000Y-110220000D03*
%TO.N,Net-(ConnB1-Pin_39)*%
X152130000Y-85360000D03*
X135370000Y-77880000D03*
X135100000Y-73780000D03*
X129860000Y-70890000D03*
X84760000Y-61440000D03*
X68170000Y-54670000D03*
X69145000Y-61605000D03*
X55830000Y-52110000D03*
%TO.N,GND*%
X154320000Y-61980000D03*
X94230000Y-118540000D03*
X83110000Y-80440000D03*
X132960000Y-84290000D03*
X193550000Y-105890000D03*
X158080000Y-34130000D03*
X184730000Y-75260000D03*
X159400000Y-59600000D03*
X136030000Y-118320000D03*
X165860000Y-33400000D03*
X76820000Y-117010000D03*
X86480000Y-117560000D03*
X82150000Y-43640000D03*
X74230000Y-92240000D03*
X93850000Y-105440000D03*
X142890000Y-94620000D03*
X87520000Y-111930000D03*
X77910000Y-111720000D03*
X79670000Y-81810000D03*
X158300000Y-86800000D03*
X189640000Y-103640000D03*
X166320000Y-78620000D03*
X89210000Y-120400000D03*
X67810000Y-96770000D03*
X165860000Y-69430000D03*
X61800000Y-100320000D03*
X85330000Y-43590000D03*
X70280000Y-92930000D03*
X165700000Y-72540000D03*
X158370000Y-90660000D03*
%TO.N,Net-(ConnA1-Pin_24)*%
X143340000Y-104610000D03*
%TO.N,Net-(AB2-Pin_1)*%
X106200000Y-57020000D03*
X103110000Y-54840000D03*
X73200000Y-53470000D03*
X76180000Y-54330000D03*
%TO.N,Net-(AB4-Pin_1)*%
X59120000Y-56670000D03*
X55560000Y-57990000D03*
%TO.N,Net-(AB5-Pin_1)*%
X105570000Y-52090000D03*
%TO.N,Net-(AB7-Pin_1)*%
X119080000Y-44190000D03*
%TO.N,Net-(AB9-Pin_1)*%
X66630000Y-72880000D03*
X71380000Y-69220000D03*
X68790000Y-71250000D03*
%TO.N,Net-(AB10-Pin_1)*%
X160800000Y-72030000D03*
X159620000Y-69970000D03*
%TO.N,Net-(AB13-Pin_1)*%
X57710000Y-109050000D03*
X56840000Y-106320000D03*
X43730000Y-91140000D03*
X43190000Y-102820000D03*
%TO.N,Net-(B13-Pin_1)*%
X101330000Y-103650000D03*
X85170000Y-103380000D03*
%TO.N,Net-(B7-Pin_1)*%
X100080000Y-116830000D03*
X111720000Y-116180000D03*
%TO.N,Net-(SW1-A)*%
X135890000Y-100076000D03*
X129540000Y-97282000D03*
X127254000Y-94742000D03*
X133096000Y-98806000D03*
%TO.N,Net-(B10-Pin_1)*%
X81350000Y-111600000D03*
X114870000Y-118830000D03*
%TO.N,Net-(ConnA1-Pin_36)*%
X109360000Y-101560000D03*
%TO.N,Net-(B5-Pin_1)*%
X106030000Y-118840000D03*
%TO.N,Net-(AD9-Pin_1)*%
X84100000Y-51630000D03*
X70230000Y-72730000D03*
X68400000Y-74510000D03*
X84150000Y-48830000D03*
%TO.N,Net-(AD10-Pin_1)*%
X72350000Y-74710000D03*
X88280000Y-51680000D03*
X88570000Y-48990000D03*
X70230000Y-75980000D03*
%TO.N,Net-(AD4-Pin_1)*%
X53880000Y-56450000D03*
X75450000Y-51520000D03*
%TO.N,Net-(J4-Pin_2)*%
X164210000Y-109290000D03*
%TO.N,Net-(ConnA1-Pin_18)*%
X189240000Y-77180000D03*
X147828000Y-79502000D03*
X185420000Y-69540000D03*
X130302000Y-81788000D03*
%TO.N,Net-(Q1-D)*%
X172260000Y-100740000D03*
%TD*%
D32*
%TO.N,Net-(B13-Pin_1)*%
X74105000Y-110170000D02*
X70005000Y-114270000D01*
X77730000Y-108958172D02*
X76518172Y-110170000D01*
X77730000Y-105430000D02*
X77730000Y-108958172D01*
X76410000Y-104110000D02*
X77730000Y-105430000D01*
X76410000Y-103380000D02*
X76410000Y-104110000D01*
X85170000Y-103380000D02*
X76410000Y-103380000D01*
X76518172Y-110170000D02*
X74105000Y-110170000D01*
%TO.N,Net-(ConnA1-Pin_36)*%
X73180000Y-103791776D02*
X73180000Y-107920000D01*
X77471776Y-99500000D02*
X73180000Y-103791776D01*
X81890000Y-99500000D02*
X77471776Y-99500000D01*
X102350000Y-100590000D02*
X100110000Y-100590000D01*
X100110000Y-100590000D02*
X99170000Y-101530000D01*
X179900000Y-91390000D02*
X181250000Y-90040000D01*
X166350000Y-102760000D02*
X177720000Y-91390000D01*
X177720000Y-91390000D02*
X179900000Y-91390000D01*
X166350000Y-121760000D02*
X166350000Y-102760000D01*
X109360000Y-101560000D02*
X109360000Y-116286828D01*
X109360000Y-116286828D02*
X114833172Y-121760000D01*
X114833172Y-121760000D02*
X166350000Y-121760000D01*
%TO.N,GND*%
X93850000Y-109175500D02*
X93850000Y-105440000D01*
X93850000Y-110220000D02*
X93850000Y-109175500D01*
%TO.N,Net-(ConnB1-Pin_39)*%
X149862500Y-92532500D02*
X153450000Y-92532500D01*
X147545000Y-90215000D02*
X149862500Y-92532500D01*
X152130000Y-85360000D02*
X152130000Y-85630000D01*
X152130000Y-85630000D02*
X147545000Y-90215000D01*
X135100000Y-73780000D02*
X135100000Y-77610000D01*
X135100000Y-77610000D02*
X135370000Y-77880000D01*
X120410000Y-61440000D02*
X129860000Y-70890000D01*
X84760000Y-61440000D02*
X120410000Y-61440000D01*
X69090000Y-61660000D02*
X69145000Y-61605000D01*
X69270000Y-61480000D02*
X69145000Y-61605000D01*
X69270000Y-55770000D02*
X69270000Y-61480000D01*
X68170000Y-54670000D02*
X69270000Y-55770000D01*
X51520000Y-52110000D02*
X55830000Y-52110000D01*
X48390000Y-48980000D02*
X51520000Y-52110000D01*
%TO.N,Net-(AD2-Pin_1)*%
X184010000Y-46640000D02*
X181250000Y-49400000D01*
X184010000Y-37690000D02*
X184010000Y-46640000D01*
X183105000Y-36785000D02*
X184010000Y-37690000D01*
X153235000Y-36785000D02*
X183105000Y-36785000D01*
X149860000Y-34036000D02*
X150486000Y-34036000D01*
X150486000Y-34036000D02*
X153235000Y-36785000D01*
X144170000Y-25980000D02*
X149352000Y-31162000D01*
X74260000Y-25980000D02*
X144170000Y-25980000D01*
X149352000Y-31162000D02*
X149352000Y-33528000D01*
X149352000Y-33528000D02*
X149860000Y-34036000D01*
X69090000Y-31150000D02*
X74260000Y-25980000D01*
D33*
%TO.N,GND*%
X140330000Y-113640000D02*
X140330000Y-116520000D01*
D32*
X89210000Y-120400000D02*
X92370000Y-120400000D01*
D33*
X134680000Y-116970000D02*
X136030000Y-118320000D01*
D32*
X74980000Y-115308172D02*
X74980000Y-113231828D01*
X165860000Y-72380000D02*
X165700000Y-72540000D01*
X86480000Y-117560000D02*
X87520000Y-116520000D01*
X144700000Y-95075000D02*
X143345000Y-95075000D01*
X76820000Y-117010000D02*
X76681828Y-117010000D01*
X85330000Y-43590000D02*
X82200000Y-43590000D01*
X184730000Y-75260000D02*
X183910000Y-76080000D01*
X156700000Y-59600000D02*
X154320000Y-61980000D01*
D33*
X133340000Y-116970000D02*
X134680000Y-116970000D01*
D32*
X153450000Y-90707500D02*
X158322500Y-90707500D01*
D33*
X140330000Y-113640000D02*
X140310000Y-113640000D01*
X140310000Y-113640000D02*
X139480000Y-112810000D01*
D32*
X158370000Y-86870000D02*
X158300000Y-86800000D01*
X158322500Y-90707500D02*
X158370000Y-90660000D01*
X158080000Y-34130000D02*
X158810000Y-33400000D01*
X82200000Y-43590000D02*
X82150000Y-43640000D01*
X87520000Y-116520000D02*
X87520000Y-111930000D01*
X168860000Y-76080000D02*
X166320000Y-78620000D01*
X70280000Y-92930000D02*
X73540000Y-92930000D01*
X74980000Y-113231828D02*
X76491828Y-111720000D01*
X76681828Y-117010000D02*
X74980000Y-115308172D01*
X65350000Y-96770000D02*
X61800000Y-100320000D01*
X159400000Y-59600000D02*
X156700000Y-59600000D01*
D33*
X158370000Y-90660000D02*
X158370000Y-86870000D01*
D32*
X81040000Y-80440000D02*
X83110000Y-80440000D01*
X136280000Y-118570000D02*
X136030000Y-118320000D01*
X73540000Y-92930000D02*
X74230000Y-92240000D01*
X74230000Y-92240000D02*
X69700000Y-96770000D01*
X130650000Y-85440000D02*
X131800000Y-84290000D01*
X131800000Y-84290000D02*
X132960000Y-84290000D01*
X76491828Y-111720000D02*
X77910000Y-111720000D01*
X92370000Y-120400000D02*
X94230000Y-118540000D01*
X158810000Y-33400000D02*
X165860000Y-33400000D01*
X67810000Y-96770000D02*
X65350000Y-96770000D01*
X165860000Y-69430000D02*
X165860000Y-72380000D01*
X143345000Y-95075000D02*
X142890000Y-94620000D01*
D33*
X189640000Y-103640000D02*
X191300000Y-103640000D01*
D32*
X69700000Y-96770000D02*
X67810000Y-96770000D01*
D33*
X191300000Y-103640000D02*
X193550000Y-105890000D01*
X138280000Y-118570000D02*
X136280000Y-118570000D01*
X140330000Y-116520000D02*
X138280000Y-118570000D01*
D32*
X79670000Y-81810000D02*
X81040000Y-80440000D01*
X183910000Y-76080000D02*
X168860000Y-76080000D01*
%TO.N,Net-(Q2-B)*%
X139997500Y-97060000D02*
X139997500Y-102462500D01*
X139997500Y-102462500D02*
X139780000Y-102680000D01*
%TO.N,Net-(ConnA1-Pin_24)*%
X141050000Y-103426325D02*
X141050000Y-102680000D01*
X134372500Y-103755000D02*
X140721325Y-103755000D01*
X142980000Y-104610000D02*
X143340000Y-104610000D01*
X133860000Y-103242500D02*
X134372500Y-103755000D01*
X140721325Y-103755000D02*
X141050000Y-103426325D01*
X141050000Y-102680000D02*
X142980000Y-104610000D01*
D33*
%TO.N,Net-(J4-Pin_1)*%
X140230000Y-110600000D02*
X146280000Y-116650000D01*
D32*
X133780000Y-112810000D02*
X133340000Y-112370000D01*
%TO.N,Net-(ConnB1-Pin_39)*%
X153450000Y-92532500D02*
X162722500Y-92532500D01*
X162722500Y-92532500D02*
X165940000Y-95750000D01*
D33*
%TO.N,Net-(J4-Pin_1)*%
X135110000Y-110600000D02*
X133340000Y-112370000D01*
X135110000Y-110600000D02*
X140230000Y-110600000D01*
D32*
X137580000Y-112810000D02*
X133780000Y-112810000D01*
%TO.N,Net-(AB2-Pin_1)*%
X76180000Y-54330000D02*
X74060000Y-54330000D01*
X106200000Y-57020000D02*
X104020000Y-54840000D01*
X74060000Y-54330000D02*
X73200000Y-53470000D01*
X104020000Y-54840000D02*
X103110000Y-54840000D01*
%TO.N,Net-(AB4-Pin_1)*%
X57800000Y-57990000D02*
X59120000Y-56670000D01*
X55560000Y-57990000D02*
X57800000Y-57990000D01*
%TO.N,Net-(AB5-Pin_1)*%
X109220000Y-55740000D02*
X184100000Y-55740000D01*
X105570000Y-52090000D02*
X109220000Y-55740000D01*
X184100000Y-55740000D02*
X187280000Y-58920000D01*
X187280000Y-58920000D02*
X187280000Y-78050000D01*
X187280000Y-78050000D02*
X182910000Y-82420000D01*
X182910000Y-82420000D02*
X181250000Y-82420000D01*
%TO.N,Net-(AB7-Pin_1)*%
X111350000Y-44190000D02*
X106300000Y-39140000D01*
X119080000Y-44190000D02*
X111350000Y-44190000D01*
%TO.N,Net-(AB9-Pin_1)*%
X48390000Y-79460000D02*
X54065000Y-73785000D01*
X65725000Y-73785000D02*
X66630000Y-72880000D01*
X69350000Y-71250000D02*
X71380000Y-69220000D01*
X68790000Y-71250000D02*
X69350000Y-71250000D01*
X54065000Y-73785000D02*
X65725000Y-73785000D01*
%TO.N,Net-(AB10-Pin_1)*%
X159620000Y-69970000D02*
X159620000Y-70850000D01*
X159620000Y-70850000D02*
X160800000Y-72030000D01*
%TO.N,Net-(AB13-Pin_1)*%
X57710000Y-107190000D02*
X57710000Y-109050000D01*
X56840000Y-106320000D02*
X57710000Y-107190000D01*
X52305000Y-49715000D02*
X49510000Y-46920000D01*
X38360000Y-52940000D02*
X38360000Y-98140000D01*
X48390000Y-89620000D02*
X47090000Y-90920000D01*
X47090000Y-90920000D02*
X43950000Y-90920000D01*
X151680000Y-39060000D02*
X141025000Y-49715000D01*
X49510000Y-46920000D02*
X44380000Y-46920000D01*
X44380000Y-46920000D02*
X38360000Y-52940000D01*
X43190000Y-102820000D02*
X38510000Y-98140000D01*
X38510000Y-98140000D02*
X38360000Y-98140000D01*
X141025000Y-49715000D02*
X52305000Y-49715000D01*
X43950000Y-90920000D02*
X43730000Y-91140000D01*
%TO.N,Net-(AD13-Pin_1)*%
X181250000Y-51940000D02*
X186680000Y-46510000D01*
X186680000Y-32280000D02*
X185550000Y-31150000D01*
X186680000Y-46510000D02*
X186680000Y-32280000D01*
X185550000Y-31150000D02*
X151940000Y-31150000D01*
%TO.N,Net-(B13-Pin_1)*%
X181250000Y-57020000D02*
X179950000Y-58320000D01*
X179950000Y-58320000D02*
X146660000Y-58320000D01*
X146660000Y-58320000D02*
X101330000Y-103650000D01*
%TO.N,Net-(B7-Pin_1)*%
X179885000Y-63465000D02*
X161115000Y-63465000D01*
X112040000Y-112540000D02*
X111720000Y-112860000D01*
X91615000Y-116830000D02*
X89055000Y-114270000D01*
X181250000Y-62100000D02*
X179885000Y-63465000D01*
X161115000Y-63465000D02*
X112040000Y-112540000D01*
X111720000Y-112860000D02*
X111720000Y-116180000D01*
X100080000Y-116830000D02*
X91615000Y-116830000D01*
D33*
%TO.N,Net-(SW1-A)*%
X124510000Y-112140000D02*
X127040000Y-114670000D01*
D32*
X126150000Y-85440000D02*
X125800000Y-85790000D01*
X129540000Y-97282000D02*
X131064000Y-98806000D01*
D33*
X124510000Y-110767500D02*
X124510000Y-112140000D01*
D32*
X135201500Y-100076000D02*
X135890000Y-100076000D01*
X131064000Y-98806000D02*
X133096000Y-98806000D01*
X135340000Y-116670000D02*
X133340000Y-114670000D01*
X125800000Y-85790000D02*
X125800000Y-93288000D01*
X133860000Y-101417500D02*
X135201500Y-100076000D01*
X138280000Y-116670000D02*
X135340000Y-116670000D01*
D33*
X133860000Y-101417500D02*
X124510000Y-110767500D01*
X127040000Y-114670000D02*
X133340000Y-114670000D01*
D32*
X125800000Y-93288000D02*
X127254000Y-94742000D01*
%TO.N,Net-(B10-Pin_1)*%
X81350000Y-111600000D02*
X81350000Y-112450000D01*
X181250000Y-79880000D02*
X180000000Y-81130000D01*
X81350000Y-112450000D02*
X79530000Y-114270000D01*
X152570000Y-81130000D02*
X114870000Y-118830000D01*
X180000000Y-81130000D02*
X152570000Y-81130000D01*
%TO.N,Net-(B5-Pin_1)*%
X167580000Y-122790000D02*
X109980000Y-122790000D01*
X180010000Y-93820000D02*
X180010000Y-96700000D01*
X181250000Y-92580000D02*
X180010000Y-93820000D01*
X109980000Y-122790000D02*
X106030000Y-118840000D01*
X173870000Y-96700000D02*
X167580000Y-102990000D01*
X180010000Y-96700000D02*
X173870000Y-96700000D01*
X167580000Y-102990000D02*
X167580000Y-122790000D01*
%TO.N,Net-(B4-Pin_1)*%
X180200000Y-121850000D02*
X178640123Y-123409877D01*
X180460000Y-95910000D02*
X180460000Y-96886396D01*
X178640123Y-123409877D02*
X107719877Y-123409877D01*
X180460000Y-96886396D02*
X180200000Y-97146396D01*
X107719877Y-123409877D02*
X98580000Y-114270000D01*
X181250000Y-95120000D02*
X180460000Y-95910000D01*
X180200000Y-97146396D02*
X180200000Y-121850000D01*
%TO.N,Net-(ConnB1-Pin_5)*%
X50930000Y-89620000D02*
X80280000Y-89620000D01*
X80280000Y-89620000D02*
X98580000Y-107920000D01*
X48390000Y-92160000D02*
X50930000Y-89620000D01*
%TO.N,Net-(AD9-Pin_1)*%
X84150000Y-48830000D02*
X87990000Y-44990000D01*
X84100000Y-51630000D02*
X72930000Y-62800000D01*
X72930000Y-62800000D02*
X72930000Y-69930000D01*
X72910000Y-69950000D02*
X72910000Y-70050000D01*
X119335000Y-33595000D02*
X121690000Y-31240000D01*
X58370000Y-84540000D02*
X68400000Y-74510000D01*
X72930000Y-69930000D02*
X72910000Y-69950000D01*
X55830000Y-82000000D02*
X58370000Y-84540000D01*
X72910000Y-70050000D02*
X70230000Y-72730000D01*
X96195000Y-44990000D02*
X107590000Y-33595000D01*
X107590000Y-33595000D02*
X119335000Y-33595000D01*
X87990000Y-44990000D02*
X96195000Y-44990000D01*
X48390000Y-82000000D02*
X55830000Y-82000000D01*
%TO.N,Net-(AD10-Pin_1)*%
X74760000Y-71340000D02*
X74760000Y-65179180D01*
X88259180Y-51680000D02*
X88280000Y-51680000D01*
X134350000Y-36430000D02*
X129160000Y-31240000D01*
X72350000Y-73750000D02*
X74760000Y-71340000D01*
X59130000Y-87080000D02*
X48390000Y-87080000D01*
X74760000Y-65179180D02*
X88259180Y-51680000D01*
X72350000Y-74710000D02*
X72350000Y-73750000D01*
X134350000Y-45440000D02*
X134350000Y-36430000D01*
X92120000Y-45440000D02*
X134350000Y-45440000D01*
X70230000Y-75980000D02*
X59130000Y-87080000D01*
X88570000Y-48990000D02*
X92120000Y-45440000D01*
%TO.N,Net-(ConnB1-Pin_17)*%
X42670000Y-97100000D02*
X55760000Y-110190000D01*
X73918604Y-109720000D02*
X74555000Y-109720000D01*
X42670000Y-80820000D02*
X42670000Y-97100000D01*
X55760000Y-110190000D02*
X73448604Y-110190000D01*
X45300000Y-78190000D02*
X42670000Y-80820000D01*
X48390000Y-76920000D02*
X47120000Y-78190000D01*
X74555000Y-109720000D02*
X76355000Y-107920000D01*
X47120000Y-78190000D02*
X45300000Y-78190000D01*
X73448604Y-110190000D02*
X73918604Y-109720000D01*
%TO.N,Net-(B12-Pin_1)*%
X73180000Y-120170000D02*
X73180000Y-114270000D01*
X41530000Y-98130000D02*
X65710000Y-122310000D01*
X47100000Y-75670000D02*
X41770000Y-75670000D01*
X65710000Y-122310000D02*
X71040000Y-122310000D01*
X71040000Y-122310000D02*
X73180000Y-120170000D01*
X41770000Y-75670000D02*
X41530000Y-75430000D01*
X41530000Y-75430000D02*
X41530000Y-98130000D01*
X48390000Y-74380000D02*
X47100000Y-75670000D01*
%TO.N,Net-(B9-Pin_1)*%
X40075000Y-97311396D02*
X40075000Y-60425000D01*
X65523604Y-122760000D02*
X40075000Y-97311396D01*
X74215000Y-122760000D02*
X65523604Y-122760000D01*
X47105000Y-60425000D02*
X48390000Y-59140000D01*
X40075000Y-60425000D02*
X47105000Y-60425000D01*
X82705000Y-114270000D02*
X74215000Y-122760000D01*
%TO.N,Net-(AD4-Pin_1)*%
X58750000Y-51580000D02*
X75510000Y-51580000D01*
X75510000Y-51580000D02*
X75450000Y-51520000D01*
X53880000Y-56450000D02*
X58750000Y-51580000D01*
%TO.N,Net-(J4-Pin_2)*%
X144810000Y-110350000D02*
X144810000Y-102272500D01*
D34*
X151280000Y-116650000D02*
X151280000Y-111990000D01*
X153980000Y-109290000D02*
X151280000Y-111990000D01*
D32*
X146450000Y-111990000D02*
X144810000Y-110350000D01*
X151280000Y-111990000D02*
X146450000Y-111990000D01*
D34*
X164210000Y-109290000D02*
X153980000Y-109290000D01*
D32*
%TO.N,Net-(R4-Pad2)*%
X144810000Y-97010000D02*
X144700000Y-96900000D01*
X144540000Y-97060000D02*
X144700000Y-96900000D01*
X144810000Y-100447500D02*
X144810000Y-97010000D01*
X141822500Y-97060000D02*
X144540000Y-97060000D01*
%TO.N,Net-(ConnB1-Pin_35)*%
X102160000Y-105150000D02*
X100110000Y-105150000D01*
X50020000Y-54060000D02*
X100110000Y-104150000D01*
X104930000Y-107920000D02*
X104168172Y-107920000D01*
X48390000Y-54060000D02*
X50020000Y-54060000D01*
X100110000Y-104150000D02*
X100110000Y-105150000D01*
X104930000Y-107920000D02*
X102160000Y-105150000D01*
%TO.N,Net-(ConnA1-Pin_18)*%
X187250000Y-104880000D02*
X182970000Y-109160000D01*
X178189946Y-68580000D02*
X158750000Y-68580000D01*
X179850000Y-68580000D02*
X179230054Y-68580000D01*
X129150000Y-82940000D02*
X129150000Y-85440000D01*
X130302000Y-81788000D02*
X129150000Y-82940000D01*
X178309946Y-68460000D02*
X178189946Y-68580000D01*
X181250000Y-67180000D02*
X179850000Y-68580000D01*
X187250000Y-79170000D02*
X187250000Y-104880000D01*
X183060000Y-67180000D02*
X181250000Y-67180000D01*
X158750000Y-68580000D02*
X147828000Y-79502000D01*
X189240000Y-77180000D02*
X187250000Y-79170000D01*
X185420000Y-69540000D02*
X183060000Y-67180000D01*
X179110054Y-68460000D02*
X178309946Y-68460000D01*
X179230054Y-68580000D02*
X179110054Y-68460000D01*
D34*
%TO.N,Net-(Q1-D)*%
X174930000Y-117000000D02*
X170770000Y-121160000D01*
X174930000Y-103410000D02*
X174930000Y-117000000D01*
X172260000Y-100740000D02*
X174930000Y-103410000D01*
%TD*%
M02*
