M48
; DRILL file {KiCad 7.0.8} date Thu Mar 20 17:12:27 2025
; FORMAT={-:-/ absolute / metric / decimal}
; #@! TF.CreationDate,2025-03-20T17:12:27-04:00
; #@! TF.GenerationSoftware,Kicad,Pcbnew,7.0.8
; #@! TF.FileFunction,Plated,1,2,PTH
FMAT,2
METRIC
; #@! TA.AperFunction,Plated,PTH,ViaDrill
T1C0.400
; #@! TA.AperFunction,Plated,PTH,ComponentDrill
T2C0.750
; #@! TA.AperFunction,Plated,PTH,ComponentDrill
T3C0.920
; #@! TA.AperFunction,Plated,PTH,ComponentDrill
T4C1.000
; #@! TA.AperFunction,Plated,PTH,ComponentDrill
T5C1.100
; #@! TA.AperFunction,Plated,PTH,ComponentDrill
T6C1.300
; #@! TA.AperFunction,Plated,PTH,ComponentDrill
T7C1.750
%
G90
G05
T1
X41.59Y-57.92
X43.19Y-102.82
X43.73Y-91.14
X53.88Y-56.45
X55.56Y-57.99
X56.84Y-106.32
X57.71Y-109.05
X59.12Y-56.67
X61.8Y-100.32
X66.63Y-72.88
X67.81Y-96.77
X68.4Y-74.51
X68.79Y-71.25
X70.23Y-72.73
X70.23Y-75.98
X70.28Y-92.93
X71.38Y-69.22
X72.35Y-74.71
X73.2Y-53.47
X74.23Y-92.24
X75.45Y-51.52
X76.18Y-54.33
X76.82Y-117.01
X77.91Y-111.72
X79.67Y-81.81
X81.35Y-111.6
X82.15Y-43.64
X83.11Y-80.44
X84.1Y-51.63
X84.15Y-48.83
X85.17Y-103.38
X85.33Y-43.59
X86.48Y-117.56
X87.52Y-111.93
X88.28Y-51.68
X88.57Y-48.99
X89.21Y-120.4
X93.36Y-109.665
X93.85Y-105.44
X94.23Y-118.54
X100.08Y-116.83
X101.33Y-103.65
X101.79Y-110.39
X103.11Y-54.84
X105.57Y-52.09
X106.03Y-118.84
X106.2Y-57.02
X111.72Y-116.18
X114.87Y-118.83
X119.08Y-44.19
X127.254Y-94.742
X129.54Y-97.282
X130.302Y-81.788
X132.96Y-84.29
X133.096Y-98.806
X135.89Y-100.076
X136.03Y-118.32
X142.89Y-94.62
X143.34Y-104.61
X147.828Y-79.502
X148.72Y-108.86
X154.32Y-61.98
X158.08Y-34.13
X158.3Y-86.8
X158.37Y-90.66
X159.4Y-59.6
X159.62Y-69.97
X160.8Y-72.03
X164.21Y-109.29
X165.7Y-72.54
X165.86Y-33.4
X165.86Y-69.43
X166.19Y-100.83
X166.32Y-78.62
X172.26Y-100.74
X184.73Y-75.26
X185.42Y-69.54
X189.24Y-77.18
X189.64Y-103.64
X193.55Y-105.89
T2
X138.51Y-102.68
X139.78Y-102.68
X141.05Y-102.68
T3
X70.005Y-107.92
X70.005Y-114.27
X73.18Y-107.92
X73.18Y-114.27
X76.355Y-107.92
X76.355Y-114.27
X79.53Y-107.92
X79.53Y-114.27
X82.705Y-107.92
X82.705Y-114.27
X85.88Y-107.92
X85.88Y-114.27
X89.055Y-107.92
X89.055Y-114.27
X92.23Y-107.92
X92.23Y-114.27
X95.405Y-107.92
X95.405Y-114.27
X98.58Y-107.92
X98.58Y-114.27
X101.755Y-107.92
X101.755Y-114.27
X104.93Y-107.92
X104.93Y-114.27
T4
X45.85Y-48.98
X45.85Y-51.52
X45.85Y-54.06
X45.85Y-56.6
X45.85Y-59.14
X45.85Y-61.68
X45.85Y-64.22
X45.85Y-66.76
X45.85Y-69.3
X45.85Y-71.84
X45.85Y-74.38
X45.85Y-76.92
X45.85Y-79.46
X45.85Y-82.0
X45.85Y-84.54
X45.85Y-87.08
X45.85Y-89.62
X45.85Y-92.16
X45.85Y-94.7
X45.85Y-97.24
X48.39Y-48.98
X48.39Y-51.52
X48.39Y-54.06
X48.39Y-56.6
X48.39Y-59.14
X48.39Y-61.68
X48.39Y-64.22
X48.39Y-66.76
X48.39Y-69.3
X48.39Y-71.84
X48.39Y-74.38
X48.39Y-76.92
X48.39Y-79.46
X48.39Y-82.0
X48.39Y-84.54
X48.39Y-87.08
X48.39Y-89.62
X48.39Y-92.16
X48.39Y-94.7
X48.39Y-97.24
X178.71Y-46.86
X178.71Y-49.4
X178.71Y-51.94
X178.71Y-54.48
X178.71Y-57.02
X178.71Y-59.56
X178.71Y-62.1
X178.71Y-64.64
X178.71Y-67.18
X178.71Y-69.72
X178.71Y-72.26
X178.71Y-74.8
X178.71Y-77.34
X178.71Y-79.88
X178.71Y-82.42
X178.71Y-84.96
X178.71Y-87.5
X178.71Y-90.04
X178.71Y-92.58
X178.71Y-95.12
X181.25Y-46.86
X181.25Y-49.4
X181.25Y-51.94
X181.25Y-54.48
X181.25Y-57.02
X181.25Y-59.56
X181.25Y-62.1
X181.25Y-64.64
X181.25Y-67.18
X181.25Y-69.72
X181.25Y-72.26
X181.25Y-74.8
X181.25Y-77.34
X181.25Y-79.88
X181.25Y-82.42
X181.25Y-84.96
X181.25Y-87.5
X181.25Y-90.04
X181.25Y-92.58
X181.25Y-95.12
T5
X160.86Y-95.75
X163.4Y-95.75
X165.94Y-95.75
T6
X146.28Y-116.65
X151.28Y-116.65
X156.28Y-116.65
X161.28Y-116.65
X170.77Y-109.16
X170.77Y-121.16
X182.97Y-109.16
X182.97Y-121.16
X184.97Y-115.16
T7
X69.0Y-39.32
X69.09Y-31.15
X75.96Y-39.23
X83.18Y-31.15
X83.27Y-38.97
X90.92Y-39.06
X91.0Y-30.98
X98.74Y-30.98
X106.3Y-31.32
X106.3Y-39.14
X113.78Y-39.06
X121.6Y-39.06
X121.69Y-31.24
X129.6Y-39.29
X129.72Y-31.3
X137.46Y-31.42
X144.95Y-31.3
X145.32Y-39.65
X151.95Y-31.42
X152.32Y-39.53
T0
M30
