%TF.GenerationSoftware,KiCad,Pcbnew,7.0.8*%
%TF.CreationDate,2025-04-10T16:12:06-04:00*%
%TF.ProjectId,2310interface,32333130-696e-4746-9572-666163652e6b,rev?*%
%TF.SameCoordinates,Original*%
%TF.FileFunction,Legend,Bot*%
%TF.FilePolarity,Positive*%
%FSLAX46Y46*%
G04 Gerber Fmt 4.6, Leading zero omitted, Abs format (unit mm)*
G04 Created by KiCad (PCBNEW 7.0.8) date 2025-04-10 16:12:06*
%MOMM*%
%LPD*%
G01*
G04 APERTURE LIST*
%ADD10C,0.300000*%
%ADD11C,0.150000*%
G04 APERTURE END LIST*
D10*
G36*
X99343508Y-99125597D02*
G01*
X98842863Y-99284413D01*
X98850224Y-99310644D01*
X98857883Y-99336450D01*
X98865840Y-99361830D01*
X98874096Y-99386785D01*
X98882649Y-99411315D01*
X98891500Y-99435419D01*
X98900649Y-99459098D01*
X98910097Y-99482352D01*
X98919842Y-99505181D01*
X98940227Y-99549562D01*
X98961805Y-99592242D01*
X98984575Y-99633221D01*
X99008537Y-99672498D01*
X99033691Y-99710075D01*
X99060038Y-99745950D01*
X99087577Y-99780124D01*
X99116308Y-99812597D01*
X99146231Y-99843368D01*
X99177347Y-99872439D01*
X99209655Y-99899808D01*
X99226256Y-99912855D01*
X99260244Y-99937721D01*
X99295360Y-99960982D01*
X99331606Y-99982640D01*
X99368982Y-100002693D01*
X99407486Y-100021142D01*
X99447120Y-100037987D01*
X99487883Y-100053227D01*
X99529776Y-100066863D01*
X99572797Y-100078895D01*
X99616948Y-100089323D01*
X99662229Y-100098146D01*
X99708638Y-100105365D01*
X99756177Y-100110980D01*
X99804845Y-100114991D01*
X99854642Y-100117397D01*
X99879964Y-100117999D01*
X99905569Y-100118200D01*
X99937225Y-100117863D01*
X99968527Y-100116852D01*
X99999476Y-100115168D01*
X100030071Y-100112810D01*
X100060312Y-100109778D01*
X100090199Y-100106073D01*
X100119732Y-100101694D01*
X100148912Y-100096641D01*
X100177737Y-100090915D01*
X100206209Y-100084515D01*
X100234327Y-100077441D01*
X100262092Y-100069694D01*
X100289502Y-100061273D01*
X100316559Y-100052178D01*
X100343262Y-100042409D01*
X100369611Y-100031967D01*
X100395606Y-100020851D01*
X100421247Y-100009062D01*
X100446535Y-99996598D01*
X100471469Y-99983461D01*
X100496049Y-99969651D01*
X100520275Y-99955166D01*
X100544148Y-99940008D01*
X100567666Y-99924177D01*
X100590831Y-99907671D01*
X100613642Y-99890492D01*
X100636099Y-99872639D01*
X100658202Y-99854113D01*
X100679952Y-99834913D01*
X100701348Y-99815039D01*
X100722390Y-99794491D01*
X100743078Y-99773270D01*
X100763230Y-99751465D01*
X100782743Y-99729165D01*
X100801616Y-99706371D01*
X100819849Y-99683083D01*
X100837443Y-99659300D01*
X100854397Y-99635023D01*
X100870710Y-99610251D01*
X100886385Y-99584986D01*
X100901419Y-99559225D01*
X100915814Y-99532971D01*
X100929569Y-99506222D01*
X100942684Y-99478979D01*
X100955159Y-99451241D01*
X100966995Y-99423009D01*
X100978191Y-99394283D01*
X100988747Y-99365062D01*
X100998663Y-99335347D01*
X101007940Y-99305138D01*
X101016577Y-99274434D01*
X101024574Y-99243236D01*
X101031931Y-99211543D01*
X101038648Y-99179356D01*
X101044726Y-99146675D01*
X101050164Y-99113499D01*
X101054962Y-99079829D01*
X101059121Y-99045665D01*
X101062640Y-99011006D01*
X101065519Y-98975853D01*
X101067758Y-98940206D01*
X101069357Y-98904064D01*
X101070317Y-98867428D01*
X101070637Y-98830297D01*
X101070315Y-98791024D01*
X101069350Y-98752304D01*
X101067741Y-98714136D01*
X101065489Y-98676521D01*
X101062594Y-98639459D01*
X101059055Y-98602948D01*
X101054873Y-98566991D01*
X101050048Y-98531586D01*
X101044579Y-98496733D01*
X101038467Y-98462433D01*
X101031711Y-98428686D01*
X101024312Y-98395491D01*
X101016269Y-98362848D01*
X101007584Y-98330758D01*
X100998254Y-98299221D01*
X100988282Y-98268236D01*
X100977666Y-98237803D01*
X100966406Y-98207924D01*
X100954503Y-98178596D01*
X100941957Y-98149821D01*
X100928767Y-98121599D01*
X100914934Y-98093929D01*
X100900458Y-98066812D01*
X100885338Y-98040247D01*
X100869575Y-98014235D01*
X100853168Y-97988775D01*
X100836118Y-97963868D01*
X100818424Y-97939514D01*
X100800088Y-97915711D01*
X100781107Y-97892462D01*
X100761484Y-97869765D01*
X100741217Y-97847620D01*
X100720387Y-97826094D01*
X100699152Y-97805250D01*
X100677513Y-97785091D01*
X100655469Y-97765614D01*
X100633020Y-97746821D01*
X100610167Y-97728712D01*
X100586909Y-97711285D01*
X100563246Y-97694542D01*
X100539178Y-97678483D01*
X100514706Y-97663107D01*
X100489829Y-97648414D01*
X100464548Y-97634405D01*
X100438862Y-97621079D01*
X100412771Y-97608436D01*
X100386275Y-97596477D01*
X100359375Y-97585201D01*
X100332070Y-97574608D01*
X100304360Y-97564699D01*
X100276245Y-97555474D01*
X100247726Y-97546931D01*
X100218802Y-97539072D01*
X100189474Y-97531897D01*
X100159740Y-97525405D01*
X100129603Y-97519596D01*
X100099060Y-97514471D01*
X100068113Y-97510029D01*
X100036760Y-97506270D01*
X100005004Y-97503195D01*
X99972842Y-97500803D01*
X99940276Y-97499095D01*
X99907305Y-97498069D01*
X99873930Y-97497728D01*
X99844751Y-97498015D01*
X99815917Y-97498876D01*
X99787429Y-97500312D01*
X99759286Y-97502322D01*
X99731488Y-97504907D01*
X99704036Y-97508066D01*
X99676929Y-97511799D01*
X99650168Y-97516106D01*
X99623751Y-97520988D01*
X99597680Y-97526444D01*
X99571955Y-97532475D01*
X99546574Y-97539080D01*
X99521539Y-97546259D01*
X99496850Y-97554012D01*
X99472505Y-97562340D01*
X99448506Y-97571242D01*
X99424853Y-97580719D01*
X99401544Y-97590770D01*
X99378581Y-97601395D01*
X99355964Y-97612594D01*
X99333691Y-97624368D01*
X99311764Y-97636716D01*
X99290182Y-97649639D01*
X99268946Y-97663136D01*
X99248055Y-97677207D01*
X99227509Y-97691852D01*
X99207309Y-97707072D01*
X99187454Y-97722866D01*
X99167944Y-97739235D01*
X99148779Y-97756178D01*
X99129960Y-97773695D01*
X99111487Y-97791786D01*
X99090035Y-97814168D01*
X99069262Y-97837733D01*
X99049168Y-97862480D01*
X99029752Y-97888410D01*
X99011015Y-97915522D01*
X98992956Y-97943817D01*
X98975576Y-97973295D01*
X98958874Y-98003955D01*
X98942851Y-98035798D01*
X98927506Y-98068823D01*
X98912840Y-98103031D01*
X98898852Y-98138422D01*
X98885543Y-98174995D01*
X98872913Y-98212751D01*
X98860961Y-98251689D01*
X98849688Y-98291810D01*
X99360878Y-98371218D01*
X99366924Y-98346270D01*
X99373741Y-98321986D01*
X99385411Y-98286804D01*
X99398816Y-98253117D01*
X99413954Y-98220923D01*
X99430826Y-98190223D01*
X99449431Y-98161018D01*
X99469771Y-98133306D01*
X99491845Y-98107089D01*
X99515652Y-98082365D01*
X99541194Y-98059135D01*
X99550093Y-98051724D01*
X99577625Y-98030770D01*
X99606247Y-98011877D01*
X99635959Y-97995045D01*
X99666763Y-97980274D01*
X99698656Y-97967564D01*
X99731640Y-97956916D01*
X99765715Y-97948328D01*
X99800880Y-97941801D01*
X99837136Y-97937336D01*
X99861912Y-97935504D01*
X99887173Y-97934588D01*
X99899986Y-97934473D01*
X99935085Y-97935263D01*
X99969351Y-97937633D01*
X100002784Y-97941583D01*
X100035383Y-97947113D01*
X100067148Y-97954223D01*
X100098080Y-97962913D01*
X100128178Y-97973184D01*
X100157442Y-97985034D01*
X100185873Y-97998464D01*
X100213470Y-98013474D01*
X100240233Y-98030064D01*
X100266163Y-98048235D01*
X100291259Y-98067985D01*
X100315522Y-98089315D01*
X100338951Y-98112226D01*
X100361546Y-98136716D01*
X100382956Y-98162978D01*
X100402985Y-98191202D01*
X100421633Y-98221390D01*
X100438899Y-98253541D01*
X100454784Y-98287654D01*
X100469288Y-98323730D01*
X100482410Y-98361770D01*
X100494151Y-98401772D01*
X100504511Y-98443737D01*
X100513490Y-98487665D01*
X100521087Y-98533556D01*
X100527303Y-98581410D01*
X100532137Y-98631227D01*
X100534037Y-98656871D01*
X100535591Y-98683006D01*
X100536799Y-98709632D01*
X100537663Y-98736749D01*
X100538181Y-98764356D01*
X100538353Y-98792454D01*
X100538183Y-98822234D01*
X100537672Y-98851472D01*
X100536821Y-98880171D01*
X100535629Y-98908329D01*
X100534097Y-98935947D01*
X100532225Y-98963024D01*
X100530012Y-98989561D01*
X100527458Y-99015557D01*
X100524564Y-99041013D01*
X100521329Y-99065929D01*
X100513839Y-99114139D01*
X100504986Y-99160187D01*
X100494772Y-99204074D01*
X100483196Y-99245799D01*
X100470257Y-99285363D01*
X100455957Y-99322765D01*
X100440295Y-99358005D01*
X100423271Y-99391084D01*
X100404885Y-99422001D01*
X100385137Y-99450756D01*
X100364027Y-99477350D01*
X100341827Y-99502066D01*
X100318808Y-99525187D01*
X100294969Y-99546714D01*
X100270312Y-99566646D01*
X100244835Y-99584983D01*
X100218539Y-99601726D01*
X100191425Y-99616874D01*
X100163491Y-99630428D01*
X100134738Y-99642387D01*
X100105165Y-99652752D01*
X100074774Y-99661522D01*
X100043564Y-99668698D01*
X100011535Y-99674279D01*
X99978686Y-99678265D01*
X99945019Y-99680657D01*
X99910532Y-99681454D01*
X99885012Y-99680931D01*
X99859942Y-99679360D01*
X99823183Y-99675042D01*
X99787438Y-99668368D01*
X99752707Y-99659339D01*
X99718991Y-99647954D01*
X99686288Y-99634213D01*
X99654600Y-99618118D01*
X99623926Y-99599666D01*
X99594266Y-99578859D01*
X99565620Y-99555697D01*
X99556297Y-99547453D01*
X99538090Y-99530102D01*
X99520538Y-99511549D01*
X99503640Y-99491793D01*
X99487396Y-99470836D01*
X99471807Y-99448677D01*
X99456872Y-99425316D01*
X99442591Y-99400753D01*
X99428964Y-99374988D01*
X99415992Y-99348021D01*
X99403674Y-99319852D01*
X99392011Y-99290481D01*
X99381002Y-99259908D01*
X99370647Y-99228133D01*
X99360946Y-99195156D01*
X99351900Y-99160977D01*
X99343508Y-99125597D01*
G37*
G36*
X97737744Y-98212896D02*
G01*
X97780798Y-98214379D01*
X97822465Y-98216851D01*
X97862746Y-98220312D01*
X97901640Y-98224761D01*
X97939149Y-98230199D01*
X97975271Y-98236626D01*
X98010008Y-98244041D01*
X98043358Y-98252445D01*
X98075322Y-98261838D01*
X98105899Y-98272220D01*
X98135091Y-98283590D01*
X98162896Y-98295949D01*
X98189316Y-98309297D01*
X98214349Y-98323633D01*
X98237996Y-98338959D01*
X98260451Y-98355311D01*
X98282062Y-98372731D01*
X98302830Y-98391216D01*
X98322755Y-98410767D01*
X98341836Y-98431385D01*
X98360075Y-98453069D01*
X98377469Y-98475820D01*
X98394021Y-98499636D01*
X98409729Y-98524519D01*
X98424594Y-98550468D01*
X98438615Y-98577484D01*
X98451793Y-98605566D01*
X98464128Y-98634714D01*
X98475620Y-98664928D01*
X98486268Y-98696209D01*
X98496073Y-98728555D01*
X98051263Y-98807964D01*
X98045493Y-98791681D01*
X98033298Y-98760992D01*
X98020232Y-98732804D01*
X98006293Y-98707116D01*
X97991481Y-98683929D01*
X97975797Y-98663244D01*
X97954965Y-98640904D01*
X97932771Y-98622471D01*
X97923320Y-98616085D01*
X97897741Y-98601924D01*
X97869376Y-98590337D01*
X97844677Y-98582922D01*
X97818195Y-98577154D01*
X97789929Y-98573035D01*
X97759879Y-98570563D01*
X97728046Y-98569739D01*
X97692845Y-98570279D01*
X97659824Y-98571898D01*
X97628985Y-98574597D01*
X97600326Y-98578376D01*
X97573849Y-98583234D01*
X97541938Y-98591391D01*
X97513905Y-98601467D01*
X97489749Y-98613463D01*
X97465006Y-98631156D01*
X97444811Y-98652379D01*
X97428038Y-98677660D01*
X97417085Y-98700808D01*
X97408322Y-98726554D01*
X97401750Y-98754897D01*
X97397368Y-98785838D01*
X97395520Y-98810749D01*
X97394904Y-98837121D01*
X97394904Y-98887372D01*
X97412323Y-98894465D01*
X97441541Y-98905241D01*
X97474467Y-98916181D01*
X97498478Y-98923565D01*
X97524136Y-98931021D01*
X97551442Y-98938551D01*
X97580397Y-98946153D01*
X97610999Y-98953827D01*
X97643248Y-98961575D01*
X97677146Y-98969395D01*
X97712692Y-98977288D01*
X97749885Y-98985253D01*
X97788727Y-98993292D01*
X97829216Y-99001402D01*
X97871353Y-99009586D01*
X97887172Y-99012704D01*
X97918109Y-99019039D01*
X97948110Y-99025504D01*
X97977175Y-99032101D01*
X98005306Y-99038828D01*
X98032500Y-99045686D01*
X98058760Y-99052675D01*
X98084084Y-99059795D01*
X98108472Y-99067045D01*
X98143301Y-99078167D01*
X98176026Y-99089583D01*
X98206645Y-99101293D01*
X98235160Y-99113297D01*
X98261570Y-99125597D01*
X98278241Y-99134124D01*
X98302364Y-99147779D01*
X98325430Y-99162470D01*
X98347439Y-99178197D01*
X98368389Y-99194960D01*
X98388282Y-99212759D01*
X98407117Y-99231594D01*
X98424894Y-99251465D01*
X98441613Y-99272371D01*
X98457274Y-99294314D01*
X98471878Y-99317293D01*
X98480968Y-99333016D01*
X98493503Y-99357109D01*
X98504719Y-99381812D01*
X98514616Y-99407126D01*
X98523192Y-99433051D01*
X98530450Y-99459587D01*
X98536388Y-99486733D01*
X98541006Y-99514490D01*
X98544305Y-99542858D01*
X98546284Y-99571837D01*
X98546944Y-99601426D01*
X98546299Y-99631264D01*
X98544365Y-99660449D01*
X98541142Y-99688979D01*
X98536630Y-99716854D01*
X98530828Y-99744076D01*
X98523738Y-99770643D01*
X98515358Y-99796556D01*
X98505689Y-99821814D01*
X98494730Y-99846419D01*
X98482483Y-99870369D01*
X98468946Y-99893664D01*
X98454120Y-99916306D01*
X98438005Y-99938293D01*
X98420600Y-99959625D01*
X98401906Y-99980304D01*
X98381923Y-100000328D01*
X98360823Y-100019409D01*
X98338778Y-100037260D01*
X98315788Y-100053879D01*
X98291852Y-100069267D01*
X98266972Y-100083424D01*
X98241146Y-100096351D01*
X98214376Y-100108046D01*
X98186660Y-100118510D01*
X98157999Y-100127743D01*
X98128393Y-100135745D01*
X98097842Y-100142515D01*
X98066345Y-100148055D01*
X98033904Y-100152364D01*
X98000518Y-100155441D01*
X97966186Y-100157288D01*
X97930909Y-100157904D01*
X97910670Y-100157659D01*
X97880601Y-100156374D01*
X97850881Y-100153987D01*
X97821510Y-100150500D01*
X97792488Y-100145910D01*
X97763815Y-100140220D01*
X97735491Y-100133428D01*
X97707516Y-100125534D01*
X97679890Y-100116540D01*
X97652612Y-100106443D01*
X97625684Y-100095246D01*
X97607839Y-100087166D01*
X97581325Y-100074120D01*
X97555116Y-100059962D01*
X97529213Y-100044691D01*
X97503615Y-100028308D01*
X97478323Y-100010813D01*
X97453336Y-99992205D01*
X97428654Y-99972485D01*
X97404277Y-99951653D01*
X97380206Y-99929708D01*
X97356441Y-99906651D01*
X97353060Y-99917431D01*
X97346098Y-99941491D01*
X97339070Y-99966828D01*
X97333912Y-99985235D01*
X97325654Y-100013976D01*
X97317821Y-100040294D01*
X97308980Y-100068676D01*
X97300751Y-100093569D01*
X97291921Y-100118200D01*
X96807407Y-100118200D01*
X96811400Y-100109880D01*
X96822897Y-100085116D01*
X96833675Y-100060647D01*
X96843733Y-100036472D01*
X96853071Y-100012592D01*
X96861690Y-99989006D01*
X96872062Y-99958016D01*
X96881154Y-99927550D01*
X96888967Y-99897607D01*
X96895501Y-99868188D01*
X96898355Y-99853105D01*
X96902292Y-99828590D01*
X96905814Y-99801807D01*
X96908922Y-99772756D01*
X96911616Y-99741437D01*
X96913895Y-99707849D01*
X96915760Y-99671993D01*
X96916773Y-99646829D01*
X96917601Y-99620657D01*
X96918246Y-99593477D01*
X96918707Y-99565289D01*
X96918983Y-99536092D01*
X96919075Y-99505888D01*
X96916542Y-99244709D01*
X97394904Y-99244709D01*
X97394904Y-99337145D01*
X97395073Y-99367603D01*
X97395580Y-99396163D01*
X97396425Y-99422826D01*
X97398078Y-99455425D01*
X97400332Y-99484651D01*
X97403186Y-99510503D01*
X97407600Y-99538074D01*
X97414136Y-99564203D01*
X97424344Y-99591841D01*
X97437521Y-99618147D01*
X97453666Y-99643119D01*
X97472781Y-99666759D01*
X97490209Y-99684711D01*
X97509538Y-99701810D01*
X97530766Y-99718056D01*
X97538301Y-99723133D01*
X97561049Y-99737395D01*
X97584015Y-99750206D01*
X97607199Y-99761568D01*
X97630601Y-99771479D01*
X97654221Y-99779939D01*
X97686054Y-99788964D01*
X97718275Y-99795410D01*
X97750884Y-99799277D01*
X97783880Y-99800567D01*
X97812854Y-99799462D01*
X97840528Y-99796146D01*
X97866904Y-99790621D01*
X97891981Y-99782886D01*
X97915759Y-99772940D01*
X97938238Y-99760785D01*
X97959418Y-99746419D01*
X97979299Y-99729844D01*
X97993047Y-99716232D01*
X98009273Y-99697354D01*
X98026176Y-99672585D01*
X98039323Y-99646513D01*
X98048713Y-99619138D01*
X98054348Y-99590461D01*
X98056226Y-99560481D01*
X98053878Y-99530310D01*
X98046835Y-99501836D01*
X98035097Y-99475058D01*
X98018664Y-99449976D01*
X98002136Y-99431132D01*
X97982604Y-99413374D01*
X97960067Y-99396701D01*
X97951682Y-99391733D01*
X97925886Y-99379271D01*
X97900276Y-99369258D01*
X97870246Y-99359206D01*
X97844823Y-99351642D01*
X97816913Y-99344055D01*
X97786517Y-99336447D01*
X97753634Y-99328817D01*
X97718266Y-99321166D01*
X97693305Y-99316052D01*
X97668221Y-99310903D01*
X97632203Y-99303351D01*
X97598116Y-99296006D01*
X97565959Y-99288869D01*
X97535732Y-99281939D01*
X97507435Y-99275216D01*
X97481068Y-99268700D01*
X97448915Y-99260335D01*
X97420194Y-99252338D01*
X97394904Y-99244709D01*
X96916542Y-99244709D01*
X96913491Y-98930178D01*
X96913748Y-98890796D01*
X96914519Y-98852989D01*
X96915803Y-98816758D01*
X96917601Y-98782102D01*
X96919913Y-98749021D01*
X96922739Y-98717515D01*
X96926078Y-98687584D01*
X96929931Y-98659228D01*
X96934298Y-98632448D01*
X96939179Y-98607243D01*
X96947463Y-98572388D01*
X96956903Y-98541078D01*
X96967499Y-98513312D01*
X96979251Y-98489090D01*
X96987767Y-98474211D01*
X97001940Y-98452510D01*
X97017792Y-98431550D01*
X97035324Y-98411332D01*
X97054535Y-98391856D01*
X97075426Y-98373121D01*
X97097995Y-98355127D01*
X97122245Y-98337876D01*
X97148173Y-98321365D01*
X97175781Y-98305597D01*
X97205069Y-98290569D01*
X97236557Y-98276600D01*
X97271001Y-98264005D01*
X97295605Y-98256371D01*
X97321523Y-98249348D01*
X97348754Y-98242936D01*
X97377298Y-98237135D01*
X97407156Y-98231944D01*
X97438328Y-98227364D01*
X97470813Y-98223394D01*
X97504611Y-98220035D01*
X97539723Y-98217287D01*
X97576148Y-98215150D01*
X97613887Y-98213623D01*
X97652939Y-98212707D01*
X97693305Y-98212402D01*
X97737744Y-98212896D01*
G37*
G36*
X96460616Y-100118200D02*
G01*
X96005260Y-100118200D01*
X96005260Y-99845854D01*
X95991134Y-99865015D01*
X95969319Y-99892622D01*
X95946751Y-99918865D01*
X95923430Y-99943745D01*
X95899357Y-99967261D01*
X95874532Y-99989415D01*
X95848954Y-100010205D01*
X95822624Y-100029633D01*
X95795541Y-100047697D01*
X95767706Y-100064398D01*
X95739118Y-100079736D01*
X95719792Y-100089202D01*
X95690739Y-100102255D01*
X95661610Y-100113934D01*
X95632404Y-100124240D01*
X95603122Y-100133171D01*
X95573764Y-100140728D01*
X95544330Y-100146911D01*
X95514819Y-100151720D01*
X95485231Y-100155156D01*
X95455568Y-100157217D01*
X95425828Y-100157904D01*
X95385881Y-100156898D01*
X95346691Y-100153881D01*
X95308257Y-100148852D01*
X95270579Y-100141813D01*
X95233656Y-100132761D01*
X95197490Y-100121699D01*
X95162080Y-100108625D01*
X95127427Y-100093540D01*
X95093529Y-100076443D01*
X95060387Y-100057335D01*
X95028001Y-100036215D01*
X94996372Y-100013084D01*
X94965499Y-99987942D01*
X94935381Y-99960789D01*
X94906020Y-99931624D01*
X94877415Y-99900447D01*
X94863522Y-99884104D01*
X94837059Y-99850139D01*
X94812360Y-99814467D01*
X94789425Y-99777089D01*
X94768255Y-99738005D01*
X94748849Y-99697216D01*
X94731207Y-99654720D01*
X94715329Y-99610518D01*
X94701216Y-99564610D01*
X94688866Y-99516996D01*
X94683353Y-99492549D01*
X94678281Y-99467676D01*
X94673650Y-99442376D01*
X94669460Y-99416650D01*
X94665711Y-99390497D01*
X94662403Y-99363918D01*
X94659536Y-99336912D01*
X94657111Y-99309480D01*
X94655126Y-99281621D01*
X94653582Y-99253336D01*
X94652480Y-99224624D01*
X94651851Y-99196940D01*
X95154103Y-99196940D01*
X95154549Y-99235372D01*
X95155886Y-99272500D01*
X95158116Y-99308324D01*
X95161237Y-99342845D01*
X95165250Y-99376062D01*
X95170155Y-99407975D01*
X95175952Y-99438584D01*
X95182640Y-99467889D01*
X95190220Y-99495891D01*
X95198692Y-99522589D01*
X95208056Y-99547984D01*
X95218312Y-99572074D01*
X95229459Y-99594861D01*
X95247852Y-99626596D01*
X95268252Y-99655398D01*
X95282710Y-99672977D01*
X95305105Y-99697219D01*
X95328351Y-99718909D01*
X95352448Y-99738048D01*
X95377395Y-99754634D01*
X95403193Y-99768669D01*
X95429841Y-99780152D01*
X95457340Y-99789084D01*
X95485689Y-99795463D01*
X95514889Y-99799291D01*
X95544940Y-99800567D01*
X95558042Y-99800367D01*
X95583759Y-99798767D01*
X95608826Y-99795568D01*
X95633243Y-99790770D01*
X95668652Y-99780574D01*
X95702600Y-99766779D01*
X95735086Y-99749385D01*
X95755931Y-99735790D01*
X95776127Y-99720596D01*
X95795674Y-99703802D01*
X95814571Y-99685409D01*
X95832819Y-99665416D01*
X95850418Y-99643824D01*
X95867367Y-99620633D01*
X95883666Y-99595842D01*
X95894634Y-99577161D01*
X95909759Y-99546839D01*
X95923293Y-99513759D01*
X95931430Y-99490172D01*
X95938860Y-99465360D01*
X95945582Y-99439321D01*
X95951597Y-99412056D01*
X95956904Y-99383564D01*
X95961504Y-99353847D01*
X95965396Y-99322903D01*
X95968580Y-99290733D01*
X95971057Y-99257337D01*
X95972826Y-99222715D01*
X95973887Y-99186866D01*
X95974241Y-99149791D01*
X95974127Y-99131636D01*
X95973216Y-99096202D01*
X95971394Y-99061936D01*
X95968660Y-99028838D01*
X95965015Y-98996908D01*
X95960459Y-98966146D01*
X95954992Y-98936552D01*
X95948614Y-98908126D01*
X95941325Y-98880868D01*
X95933124Y-98854778D01*
X95924012Y-98829857D01*
X95913989Y-98806103D01*
X95897246Y-98772663D01*
X95878453Y-98741850D01*
X95857610Y-98713666D01*
X95842723Y-98696238D01*
X95819530Y-98672203D01*
X95795301Y-98650698D01*
X95770036Y-98631723D01*
X95743735Y-98615278D01*
X95716397Y-98601364D01*
X95688024Y-98589979D01*
X95658615Y-98581124D01*
X95628170Y-98574799D01*
X95596689Y-98571004D01*
X95564172Y-98569739D01*
X95541938Y-98570316D01*
X95509541Y-98573344D01*
X95478288Y-98578967D01*
X95448181Y-98587186D01*
X95419219Y-98598000D01*
X95391402Y-98611410D01*
X95364730Y-98627415D01*
X95339203Y-98646015D01*
X95314822Y-98667211D01*
X95291585Y-98691002D01*
X95269493Y-98717389D01*
X95262394Y-98726759D01*
X95242448Y-98757044D01*
X95230278Y-98779046D01*
X95219010Y-98802497D01*
X95208643Y-98827396D01*
X95199177Y-98853746D01*
X95190613Y-98881544D01*
X95182950Y-98910791D01*
X95176189Y-98941488D01*
X95170330Y-98973633D01*
X95165371Y-99007228D01*
X95161315Y-99042272D01*
X95158159Y-99078765D01*
X95155906Y-99116708D01*
X95154554Y-99156099D01*
X95154103Y-99196940D01*
X94651851Y-99196940D01*
X94651818Y-99195486D01*
X94651598Y-99165921D01*
X94651814Y-99137322D01*
X94652463Y-99109142D01*
X94653544Y-99081381D01*
X94655058Y-99054040D01*
X94657005Y-99027118D01*
X94659384Y-99000615D01*
X94662195Y-98974531D01*
X94665440Y-98948867D01*
X94669117Y-98923622D01*
X94673226Y-98898796D01*
X94682742Y-98850401D01*
X94693989Y-98803684D01*
X94706966Y-98758644D01*
X94721673Y-98715280D01*
X94738111Y-98673594D01*
X94756279Y-98633584D01*
X94776177Y-98595252D01*
X94797805Y-98558596D01*
X94821164Y-98523618D01*
X94846253Y-98490316D01*
X94873072Y-98458691D01*
X94901214Y-98428867D01*
X94930273Y-98400967D01*
X94960247Y-98374991D01*
X94991138Y-98350940D01*
X95022944Y-98328812D01*
X95055666Y-98308609D01*
X95089305Y-98290329D01*
X95123859Y-98273974D01*
X95159330Y-98259543D01*
X95195716Y-98247036D01*
X95233019Y-98236454D01*
X95271238Y-98227795D01*
X95310372Y-98221060D01*
X95350423Y-98216250D01*
X95391390Y-98213364D01*
X95433272Y-98212402D01*
X95471721Y-98213410D01*
X95509521Y-98216434D01*
X95546670Y-98221475D01*
X95583171Y-98228532D01*
X95619022Y-98237605D01*
X95654223Y-98248694D01*
X95688776Y-98261799D01*
X95722678Y-98276921D01*
X95755931Y-98294059D01*
X95788535Y-98313213D01*
X95820489Y-98334383D01*
X95851794Y-98357570D01*
X95882449Y-98382773D01*
X95912455Y-98409992D01*
X95941812Y-98439227D01*
X95970519Y-98470479D01*
X95970519Y-97537432D01*
X96460616Y-97537432D01*
X96460616Y-100118200D01*
G37*
G36*
X94268825Y-100118200D02*
G01*
X94268825Y-97537432D01*
X93778107Y-97537432D01*
X93778107Y-100118200D01*
X94268825Y-100118200D01*
G37*
G36*
X92619519Y-98213427D02*
G01*
X92664085Y-98216502D01*
X92707652Y-98221628D01*
X92750220Y-98228803D01*
X92791790Y-98238029D01*
X92832362Y-98249305D01*
X92871935Y-98262631D01*
X92910510Y-98278007D01*
X92948086Y-98295433D01*
X92984664Y-98314909D01*
X93020244Y-98336436D01*
X93054825Y-98360013D01*
X93088408Y-98385640D01*
X93120992Y-98413317D01*
X93152578Y-98443044D01*
X93183166Y-98474821D01*
X93212314Y-98508331D01*
X93239581Y-98543412D01*
X93264968Y-98580062D01*
X93288475Y-98618283D01*
X93310101Y-98658075D01*
X93329846Y-98699436D01*
X93347711Y-98742368D01*
X93363695Y-98786871D01*
X93377799Y-98832943D01*
X93390022Y-98880586D01*
X93395429Y-98904997D01*
X93400365Y-98929800D01*
X93404832Y-98954995D01*
X93408828Y-98980583D01*
X93412354Y-99006564D01*
X93415409Y-99032937D01*
X93417995Y-99059703D01*
X93420111Y-99086862D01*
X93421756Y-99114413D01*
X93422932Y-99142356D01*
X93423637Y-99170693D01*
X93423872Y-99199421D01*
X93423157Y-99247292D01*
X93421012Y-99294126D01*
X93417438Y-99339922D01*
X93412434Y-99384681D01*
X93406000Y-99428403D01*
X93398136Y-99471088D01*
X93388842Y-99512736D01*
X93378119Y-99553346D01*
X93365966Y-99592920D01*
X93352383Y-99631456D01*
X93337370Y-99668955D01*
X93320928Y-99705416D01*
X93303056Y-99740841D01*
X93283754Y-99775228D01*
X93263022Y-99808578D01*
X93240861Y-99840891D01*
X93210874Y-99879279D01*
X93178920Y-99915191D01*
X93144998Y-99948626D01*
X93109108Y-99979584D01*
X93071251Y-100008066D01*
X93031425Y-100034071D01*
X92989632Y-100057599D01*
X92945871Y-100078650D01*
X92900143Y-100097225D01*
X92876541Y-100105584D01*
X92852447Y-100113324D01*
X92827861Y-100120444D01*
X92802783Y-100126945D01*
X92777213Y-100132827D01*
X92751151Y-100138090D01*
X92724597Y-100142734D01*
X92697551Y-100146759D01*
X92670013Y-100150164D01*
X92641984Y-100152950D01*
X92613462Y-100155117D01*
X92584449Y-100156665D01*
X92554943Y-100157594D01*
X92524946Y-100157904D01*
X92487192Y-100157390D01*
X92450239Y-100155849D01*
X92414085Y-100153280D01*
X92378731Y-100149684D01*
X92344176Y-100145060D01*
X92310421Y-100139409D01*
X92277466Y-100132730D01*
X92245311Y-100125024D01*
X92213955Y-100116290D01*
X92183399Y-100106529D01*
X92153643Y-100095740D01*
X92124686Y-100083924D01*
X92096530Y-100071080D01*
X92069172Y-100057209D01*
X92042615Y-100042310D01*
X92016857Y-100026384D01*
X91991848Y-100009396D01*
X91967692Y-99991468D01*
X91944389Y-99972600D01*
X91921939Y-99952792D01*
X91900343Y-99932043D01*
X91879599Y-99910354D01*
X91859708Y-99887725D01*
X91840670Y-99864155D01*
X91822485Y-99839645D01*
X91805154Y-99814195D01*
X91788675Y-99787805D01*
X91773049Y-99760475D01*
X91758276Y-99732204D01*
X91744357Y-99702993D01*
X91731290Y-99672842D01*
X91719076Y-99641750D01*
X92207933Y-99562342D01*
X92215832Y-99585233D01*
X92227416Y-99613873D01*
X92240201Y-99640360D01*
X92254189Y-99664695D01*
X92269378Y-99686878D01*
X92285770Y-99706910D01*
X92303363Y-99724789D01*
X92327046Y-99744112D01*
X92336959Y-99750949D01*
X92362995Y-99766110D01*
X92390818Y-99778514D01*
X92414364Y-99786453D01*
X92439053Y-99792628D01*
X92464886Y-99797038D01*
X92491862Y-99799684D01*
X92519983Y-99800567D01*
X92540935Y-99800077D01*
X92571546Y-99797507D01*
X92601175Y-99792734D01*
X92629822Y-99785759D01*
X92657488Y-99776580D01*
X92684173Y-99765199D01*
X92709876Y-99751615D01*
X92734598Y-99735828D01*
X92758338Y-99717838D01*
X92781097Y-99697646D01*
X92802875Y-99675250D01*
X92809864Y-99667320D01*
X92829560Y-99642351D01*
X92847348Y-99615616D01*
X92863228Y-99587113D01*
X92877199Y-99556844D01*
X92889262Y-99524809D01*
X92899416Y-99491007D01*
X92907663Y-99455438D01*
X92912100Y-99430744D01*
X92915689Y-99405265D01*
X92918429Y-99379001D01*
X92920322Y-99351952D01*
X92921367Y-99324117D01*
X91693020Y-99324117D01*
X91692605Y-99289117D01*
X91692679Y-99254686D01*
X91693240Y-99220823D01*
X91694290Y-99187528D01*
X91695828Y-99154801D01*
X91697855Y-99122643D01*
X91700370Y-99091052D01*
X91703373Y-99060030D01*
X91706864Y-99029577D01*
X91709939Y-99006484D01*
X92180016Y-99006484D01*
X92912681Y-99006484D01*
X92912497Y-98981609D01*
X92910658Y-98945522D01*
X92906943Y-98910907D01*
X92901352Y-98877765D01*
X92893886Y-98846095D01*
X92884544Y-98815897D01*
X92873326Y-98787171D01*
X92860233Y-98759918D01*
X92845264Y-98734136D01*
X92828419Y-98709827D01*
X92809699Y-98686990D01*
X92796378Y-98672792D01*
X92775587Y-98653212D01*
X92753826Y-98635693D01*
X92731094Y-98620235D01*
X92707392Y-98606838D01*
X92682720Y-98595502D01*
X92657076Y-98586227D01*
X92630463Y-98579014D01*
X92602878Y-98573861D01*
X92574323Y-98570769D01*
X92544798Y-98569739D01*
X92526208Y-98570175D01*
X92498987Y-98572465D01*
X92472563Y-98576718D01*
X92446934Y-98582934D01*
X92422101Y-98591113D01*
X92398065Y-98601255D01*
X92374824Y-98613359D01*
X92352380Y-98627427D01*
X92330731Y-98643457D01*
X92309879Y-98661450D01*
X92289823Y-98681407D01*
X92277108Y-98695690D01*
X92259498Y-98718623D01*
X92243644Y-98743367D01*
X92229545Y-98769921D01*
X92217203Y-98798285D01*
X92206616Y-98828459D01*
X92197784Y-98860444D01*
X92190709Y-98894238D01*
X92185389Y-98929843D01*
X92182818Y-98954586D01*
X92181027Y-98980133D01*
X92180016Y-99006484D01*
X91709939Y-99006484D01*
X91710844Y-98999692D01*
X91715312Y-98970375D01*
X91720269Y-98941626D01*
X91725713Y-98913445D01*
X91731646Y-98885833D01*
X91738067Y-98858789D01*
X91744977Y-98832313D01*
X91752375Y-98806406D01*
X91760261Y-98781067D01*
X91768636Y-98756296D01*
X91777498Y-98732093D01*
X91786849Y-98708459D01*
X91796689Y-98685393D01*
X91817832Y-98640966D01*
X91840929Y-98598812D01*
X91865980Y-98558931D01*
X91892983Y-98521323D01*
X91921939Y-98485988D01*
X91937038Y-98469156D01*
X91968255Y-98437095D01*
X92000835Y-98407172D01*
X92034776Y-98379386D01*
X92070079Y-98353737D01*
X92106745Y-98330226D01*
X92144772Y-98308852D01*
X92184161Y-98289615D01*
X92224912Y-98272516D01*
X92267025Y-98257554D01*
X92310500Y-98244730D01*
X92355336Y-98234043D01*
X92401535Y-98225493D01*
X92449096Y-98219081D01*
X92498018Y-98214806D01*
X92522990Y-98213471D01*
X92548303Y-98212669D01*
X92573956Y-98212402D01*
X92619519Y-98213427D01*
G37*
G36*
X90529814Y-98252106D02*
G01*
X90258089Y-98252106D01*
X90258089Y-98111280D01*
X90257895Y-98082280D01*
X90257313Y-98054215D01*
X90256344Y-98027086D01*
X90254987Y-98000892D01*
X90253242Y-97975634D01*
X90249898Y-97939500D01*
X90245681Y-97905470D01*
X90240592Y-97873546D01*
X90234631Y-97843726D01*
X90227797Y-97816011D01*
X90220091Y-97790400D01*
X90211512Y-97766894D01*
X90208459Y-97759527D01*
X90194743Y-97731203D01*
X90178409Y-97704236D01*
X90159459Y-97678626D01*
X90137891Y-97654373D01*
X90119997Y-97637074D01*
X90100632Y-97620538D01*
X90079794Y-97604766D01*
X90057484Y-97589757D01*
X90033702Y-97575511D01*
X90025448Y-97570932D01*
X89999706Y-97557850D01*
X89972732Y-97546054D01*
X89944527Y-97535545D01*
X89915088Y-97526323D01*
X89884418Y-97518388D01*
X89852515Y-97511740D01*
X89819380Y-97506378D01*
X89785013Y-97502303D01*
X89749413Y-97499515D01*
X89712581Y-97498014D01*
X89687342Y-97497728D01*
X89661240Y-97497960D01*
X89635201Y-97498658D01*
X89609226Y-97499822D01*
X89583313Y-97501450D01*
X89557463Y-97503544D01*
X89531676Y-97506103D01*
X89505952Y-97509127D01*
X89480291Y-97512617D01*
X89454694Y-97516572D01*
X89429159Y-97520992D01*
X89403687Y-97525877D01*
X89378278Y-97531228D01*
X89352932Y-97537044D01*
X89327650Y-97543325D01*
X89302430Y-97550072D01*
X89277273Y-97557284D01*
X89343653Y-97882982D01*
X89372685Y-97876439D01*
X89401465Y-97870768D01*
X89429992Y-97865970D01*
X89458268Y-97862044D01*
X89486292Y-97858991D01*
X89514063Y-97856810D01*
X89541583Y-97855501D01*
X89568850Y-97855065D01*
X89594441Y-97855898D01*
X89623812Y-97859285D01*
X89650275Y-97865277D01*
X89673830Y-97873874D01*
X89698257Y-97887629D01*
X89718497Y-97905135D01*
X89721463Y-97908417D01*
X89737064Y-97931660D01*
X89747600Y-97956326D01*
X89755894Y-97985809D01*
X89760915Y-98012863D01*
X89764502Y-98043000D01*
X89766653Y-98076219D01*
X89767326Y-98103157D01*
X89767371Y-98112521D01*
X89767371Y-98252106D01*
X89401348Y-98252106D01*
X89401348Y-98609443D01*
X89767371Y-98609443D01*
X89767371Y-100118200D01*
X90258089Y-100118200D01*
X90258089Y-98609443D01*
X90529814Y-98609443D01*
X90529814Y-98252106D01*
G37*
G36*
X88662480Y-100118200D02*
G01*
X89152577Y-100118200D01*
X89152577Y-98252106D01*
X88697221Y-98252106D01*
X88697221Y-98515766D01*
X88682734Y-98492926D01*
X88668431Y-98471089D01*
X88654313Y-98450256D01*
X88633481Y-98420887D01*
X88613063Y-98393775D01*
X88593059Y-98368920D01*
X88573470Y-98346323D01*
X88554295Y-98325984D01*
X88535535Y-98307901D01*
X88511166Y-98287303D01*
X88487533Y-98270717D01*
X88463717Y-98257050D01*
X88439105Y-98245204D01*
X88413699Y-98235181D01*
X88387498Y-98226981D01*
X88360501Y-98220602D01*
X88332711Y-98216047D01*
X88304125Y-98213313D01*
X88274744Y-98212402D01*
X88243447Y-98213285D01*
X88212367Y-98215935D01*
X88181506Y-98220352D01*
X88150863Y-98226535D01*
X88120437Y-98234485D01*
X88090230Y-98244201D01*
X88060242Y-98255684D01*
X88030471Y-98268934D01*
X88000918Y-98283950D01*
X87971583Y-98300733D01*
X87952148Y-98312903D01*
X88104140Y-98769500D01*
X88127246Y-98755087D01*
X88150036Y-98742092D01*
X88172510Y-98730515D01*
X88201982Y-98717283D01*
X88230893Y-98706572D01*
X88259241Y-98698381D01*
X88287027Y-98692710D01*
X88314251Y-98689560D01*
X88334300Y-98688851D01*
X88359561Y-98689724D01*
X88389774Y-98693268D01*
X88418473Y-98699538D01*
X88445657Y-98708535D01*
X88471326Y-98720258D01*
X88495481Y-98734707D01*
X88509247Y-98744685D01*
X88530799Y-98764329D01*
X88546973Y-98783207D01*
X88562196Y-98804896D01*
X88576470Y-98829396D01*
X88589793Y-98856707D01*
X88602167Y-98886830D01*
X88610824Y-98911266D01*
X88618946Y-98937284D01*
X88621535Y-98946308D01*
X88628852Y-98976335D01*
X88635450Y-99011978D01*
X88639448Y-99038860D01*
X88643127Y-99068238D01*
X88646486Y-99100113D01*
X88649524Y-99134483D01*
X88652243Y-99171349D01*
X88654643Y-99210712D01*
X88656722Y-99252570D01*
X88658481Y-99296925D01*
X88659921Y-99343775D01*
X88661040Y-99393122D01*
X88661480Y-99418731D01*
X88661840Y-99444965D01*
X88662120Y-99471822D01*
X88662320Y-99499303D01*
X88662440Y-99527409D01*
X88662480Y-99556138D01*
X88662480Y-100118200D01*
G37*
G36*
X86942441Y-98212874D02*
G01*
X86975811Y-98214292D01*
X87008783Y-98216655D01*
X87041357Y-98219963D01*
X87073535Y-98224216D01*
X87105314Y-98229414D01*
X87136697Y-98235557D01*
X87167682Y-98242645D01*
X87198269Y-98250679D01*
X87228459Y-98259657D01*
X87258252Y-98269581D01*
X87287647Y-98280449D01*
X87316645Y-98292263D01*
X87345245Y-98305022D01*
X87373448Y-98318726D01*
X87401254Y-98333375D01*
X87428468Y-98348921D01*
X87454897Y-98365315D01*
X87480541Y-98382557D01*
X87505399Y-98400647D01*
X87529473Y-98419586D01*
X87552761Y-98439373D01*
X87575264Y-98460007D01*
X87596982Y-98481490D01*
X87617915Y-98503821D01*
X87638063Y-98527001D01*
X87657426Y-98551028D01*
X87676003Y-98575904D01*
X87693795Y-98601628D01*
X87710802Y-98628200D01*
X87727024Y-98655620D01*
X87742461Y-98683888D01*
X87757035Y-98712644D01*
X87770669Y-98741525D01*
X87783362Y-98770533D01*
X87795115Y-98799666D01*
X87805928Y-98828926D01*
X87815801Y-98858311D01*
X87824733Y-98887823D01*
X87832726Y-98917460D01*
X87839778Y-98947224D01*
X87845889Y-98977113D01*
X87851061Y-99007129D01*
X87855292Y-99037270D01*
X87858583Y-99067538D01*
X87860933Y-99097932D01*
X87862344Y-99128451D01*
X87862814Y-99159097D01*
X87862344Y-99198808D01*
X87860933Y-99237759D01*
X87858583Y-99275948D01*
X87855292Y-99313377D01*
X87851061Y-99350045D01*
X87845889Y-99385951D01*
X87839778Y-99421097D01*
X87832726Y-99455482D01*
X87824733Y-99489106D01*
X87815801Y-99521969D01*
X87805928Y-99554071D01*
X87795115Y-99585412D01*
X87783362Y-99615992D01*
X87770669Y-99645812D01*
X87757035Y-99674870D01*
X87742461Y-99703167D01*
X87726985Y-99730665D01*
X87710647Y-99757324D01*
X87693446Y-99783145D01*
X87675383Y-99808127D01*
X87656456Y-99832271D01*
X87636667Y-99855577D01*
X87616015Y-99878043D01*
X87594501Y-99899672D01*
X87572124Y-99920462D01*
X87548884Y-99940413D01*
X87524781Y-99959526D01*
X87499816Y-99977800D01*
X87473988Y-99995236D01*
X87447297Y-100011834D01*
X87419744Y-100027593D01*
X87391327Y-100042514D01*
X87362310Y-100056487D01*
X87333109Y-100069558D01*
X87303723Y-100081728D01*
X87274154Y-100092997D01*
X87244400Y-100103364D01*
X87214462Y-100112829D01*
X87184340Y-100121393D01*
X87154033Y-100129056D01*
X87123543Y-100135817D01*
X87092868Y-100141677D01*
X87062009Y-100146635D01*
X87030966Y-100150692D01*
X86999739Y-100153847D01*
X86968327Y-100156101D01*
X86936732Y-100157453D01*
X86904952Y-100157904D01*
X86879382Y-100157632D01*
X86854086Y-100156818D01*
X86829064Y-100155461D01*
X86804315Y-100153561D01*
X86755640Y-100148133D01*
X86708060Y-100140533D01*
X86661575Y-100130762D01*
X86616186Y-100118820D01*
X86571892Y-100104706D01*
X86528693Y-100088421D01*
X86486590Y-100069965D01*
X86445582Y-100049338D01*
X86405670Y-100026539D01*
X86366853Y-100001569D01*
X86329131Y-99974427D01*
X86292504Y-99945114D01*
X86256973Y-99913630D01*
X86222538Y-99879975D01*
X86189633Y-99844671D01*
X86158852Y-99808244D01*
X86130193Y-99770692D01*
X86103658Y-99732015D01*
X86079245Y-99692214D01*
X86056955Y-99651288D01*
X86036788Y-99609238D01*
X86018744Y-99566064D01*
X86002822Y-99521765D01*
X85989024Y-99476342D01*
X85977348Y-99429794D01*
X85967795Y-99382122D01*
X85960365Y-99333326D01*
X85957446Y-99308506D01*
X85955058Y-99283405D01*
X85953201Y-99258023D01*
X85951874Y-99232360D01*
X85951078Y-99206415D01*
X85950825Y-99181430D01*
X86455179Y-99181430D01*
X86455688Y-99218636D01*
X86457214Y-99254722D01*
X86459759Y-99289689D01*
X86463321Y-99323536D01*
X86467901Y-99356263D01*
X86473499Y-99387871D01*
X86480115Y-99418359D01*
X86487749Y-99447727D01*
X86496400Y-99475976D01*
X86506069Y-99503106D01*
X86516756Y-99529115D01*
X86528461Y-99554006D01*
X86541183Y-99577776D01*
X86554924Y-99600427D01*
X86569682Y-99621959D01*
X86585458Y-99642370D01*
X86601908Y-99661527D01*
X86627491Y-99687945D01*
X86654165Y-99711581D01*
X86681929Y-99732437D01*
X86710784Y-99750512D01*
X86740729Y-99765807D01*
X86771765Y-99778320D01*
X86803891Y-99788053D01*
X86837108Y-99795005D01*
X86871415Y-99799176D01*
X86906813Y-99800567D01*
X86942222Y-99799176D01*
X86976562Y-99795005D01*
X87009833Y-99788053D01*
X87042036Y-99778320D01*
X87073170Y-99765807D01*
X87103235Y-99750512D01*
X87132232Y-99732437D01*
X87160160Y-99711581D01*
X87187019Y-99687945D01*
X87212809Y-99661527D01*
X87229409Y-99642370D01*
X87245260Y-99621973D01*
X87260089Y-99600485D01*
X87273895Y-99577907D01*
X87286678Y-99554238D01*
X87298438Y-99529479D01*
X87309176Y-99503629D01*
X87318891Y-99476689D01*
X87327584Y-99448658D01*
X87335254Y-99419536D01*
X87341901Y-99389325D01*
X87347525Y-99358022D01*
X87352127Y-99325629D01*
X87355707Y-99292146D01*
X87358263Y-99257572D01*
X87359797Y-99221908D01*
X87360309Y-99185153D01*
X87359797Y-99148400D01*
X87358263Y-99112743D01*
X87355707Y-99078181D01*
X87352127Y-99044715D01*
X87347525Y-99012344D01*
X87341901Y-98981068D01*
X87335254Y-98950888D01*
X87327584Y-98921803D01*
X87318891Y-98893813D01*
X87309176Y-98866919D01*
X87298438Y-98841120D01*
X87286678Y-98816416D01*
X87273895Y-98792808D01*
X87260089Y-98770295D01*
X87245260Y-98748878D01*
X87229409Y-98728555D01*
X87212809Y-98709324D01*
X87187019Y-98682803D01*
X87160160Y-98659073D01*
X87132232Y-98638135D01*
X87103235Y-98619989D01*
X87073170Y-98604635D01*
X87042036Y-98592072D01*
X87009833Y-98582302D01*
X86976562Y-98575322D01*
X86942222Y-98571135D01*
X86906813Y-98569739D01*
X86871415Y-98571135D01*
X86837108Y-98575322D01*
X86803891Y-98582302D01*
X86771765Y-98592072D01*
X86740729Y-98604635D01*
X86710784Y-98619989D01*
X86681929Y-98638135D01*
X86654165Y-98659073D01*
X86627491Y-98682803D01*
X86601908Y-98709324D01*
X86585458Y-98728555D01*
X86569682Y-98748863D01*
X86554924Y-98770237D01*
X86541183Y-98792677D01*
X86528461Y-98816184D01*
X86516756Y-98840756D01*
X86506069Y-98866395D01*
X86496400Y-98893101D01*
X86487749Y-98920872D01*
X86480115Y-98949710D01*
X86473499Y-98979614D01*
X86467901Y-99010585D01*
X86463321Y-99042621D01*
X86459759Y-99075724D01*
X86457214Y-99109893D01*
X86455688Y-99145129D01*
X86455179Y-99181430D01*
X85950825Y-99181430D01*
X85950812Y-99180190D01*
X85951075Y-99154121D01*
X85951862Y-99128335D01*
X85953173Y-99102833D01*
X85955010Y-99077614D01*
X85957371Y-99052679D01*
X85960256Y-99028028D01*
X85967601Y-98979575D01*
X85977045Y-98932257D01*
X85988588Y-98886073D01*
X86002229Y-98841023D01*
X86017968Y-98797107D01*
X86035807Y-98754325D01*
X86055743Y-98712678D01*
X86077779Y-98672164D01*
X86101913Y-98632785D01*
X86128146Y-98594539D01*
X86156477Y-98557428D01*
X86186907Y-98521451D01*
X86219436Y-98486608D01*
X86253607Y-98453404D01*
X86288966Y-98422341D01*
X86325513Y-98393421D01*
X86363247Y-98366643D01*
X86402168Y-98342007D01*
X86442277Y-98319514D01*
X86483573Y-98299163D01*
X86526057Y-98280954D01*
X86569728Y-98264887D01*
X86614587Y-98250962D01*
X86660633Y-98239180D01*
X86707866Y-98229540D01*
X86756287Y-98222042D01*
X86780943Y-98219096D01*
X86805895Y-98216686D01*
X86831145Y-98214812D01*
X86856691Y-98213473D01*
X86882534Y-98212670D01*
X86908674Y-98212402D01*
X86942441Y-98212874D01*
G37*
G36*
X85615189Y-98252106D02*
G01*
X85162934Y-98252106D01*
X85162934Y-98505220D01*
X85132252Y-98469761D01*
X85100848Y-98436591D01*
X85068721Y-98405707D01*
X85035873Y-98377112D01*
X85002302Y-98350804D01*
X84968010Y-98326784D01*
X84932995Y-98305051D01*
X84897258Y-98285606D01*
X84860798Y-98268449D01*
X84823617Y-98253579D01*
X84785713Y-98240997D01*
X84747088Y-98230703D01*
X84707740Y-98222696D01*
X84667670Y-98216977D01*
X84626877Y-98213546D01*
X84585363Y-98212402D01*
X84552393Y-98213018D01*
X84520253Y-98214866D01*
X84488941Y-98217947D01*
X84458457Y-98222260D01*
X84428803Y-98227805D01*
X84399977Y-98234583D01*
X84371980Y-98242593D01*
X84344812Y-98251835D01*
X84318473Y-98262309D01*
X84292962Y-98274015D01*
X84276415Y-98282504D01*
X84252286Y-98296165D01*
X84228986Y-98311090D01*
X84206514Y-98327281D01*
X84184871Y-98344736D01*
X84164057Y-98363456D01*
X84144072Y-98383442D01*
X84124915Y-98404692D01*
X84106587Y-98427207D01*
X84089088Y-98450988D01*
X84072418Y-98476033D01*
X84061765Y-98493433D01*
X84038681Y-98467544D01*
X84015259Y-98442920D01*
X83991498Y-98419562D01*
X83967400Y-98397468D01*
X83942963Y-98376639D01*
X83918189Y-98357076D01*
X83893076Y-98338777D01*
X83867626Y-98321743D01*
X83841837Y-98305975D01*
X83815710Y-98291471D01*
X83798105Y-98282504D01*
X83771420Y-98269976D01*
X83744408Y-98258681D01*
X83717069Y-98248617D01*
X83689403Y-98239786D01*
X83661410Y-98232187D01*
X83633089Y-98225820D01*
X83604442Y-98220685D01*
X83575467Y-98216783D01*
X83546165Y-98214113D01*
X83516536Y-98212676D01*
X83496602Y-98212402D01*
X83471333Y-98212729D01*
X83434349Y-98214447D01*
X83398466Y-98217636D01*
X83363684Y-98222298D01*
X83330004Y-98228432D01*
X83297425Y-98236039D01*
X83265948Y-98245117D01*
X83235572Y-98255668D01*
X83206297Y-98267691D01*
X83178124Y-98281186D01*
X83151052Y-98296153D01*
X83125163Y-98312427D01*
X83100540Y-98330075D01*
X83077181Y-98349097D01*
X83055087Y-98369493D01*
X83034259Y-98391263D01*
X83014695Y-98414407D01*
X82996396Y-98438925D01*
X82979363Y-98464818D01*
X82963594Y-98492084D01*
X82949090Y-98520724D01*
X82940124Y-98540581D01*
X82931033Y-98564212D01*
X82922836Y-98590439D01*
X82915533Y-98619261D01*
X82909124Y-98650679D01*
X82903610Y-98684692D01*
X82898990Y-98721300D01*
X82896407Y-98747147D01*
X82894221Y-98774148D01*
X82892432Y-98802303D01*
X82891041Y-98831611D01*
X82890048Y-98862072D01*
X82889452Y-98893687D01*
X82889253Y-98926456D01*
X82889253Y-100118200D01*
X83379971Y-100118200D01*
X83379971Y-99039364D01*
X83380170Y-99005013D01*
X83380766Y-98972218D01*
X83381759Y-98940979D01*
X83383150Y-98911295D01*
X83384939Y-98883167D01*
X83387125Y-98856595D01*
X83389708Y-98831579D01*
X83394328Y-98796972D01*
X83399842Y-98765865D01*
X83406251Y-98738259D01*
X83413554Y-98714153D01*
X83424682Y-98687458D01*
X83430842Y-98676444D01*
X83448901Y-98651435D01*
X83469266Y-98629760D01*
X83491939Y-98611420D01*
X83516919Y-98596415D01*
X83544206Y-98584744D01*
X83573800Y-98576408D01*
X83605701Y-98571406D01*
X83631141Y-98569843D01*
X83639909Y-98569739D01*
X83665470Y-98570737D01*
X83690663Y-98573733D01*
X83715488Y-98578725D01*
X83739945Y-98585714D01*
X83764033Y-98594699D01*
X83787752Y-98605682D01*
X83811104Y-98618661D01*
X83834087Y-98633638D01*
X83855945Y-98650553D01*
X83876234Y-98669348D01*
X83894952Y-98690024D01*
X83912099Y-98712581D01*
X83927676Y-98737018D01*
X83941683Y-98763335D01*
X83954120Y-98791533D01*
X83964986Y-98821612D01*
X83972082Y-98846019D01*
X83978479Y-98872946D01*
X83984179Y-98902391D01*
X83989181Y-98934356D01*
X83993485Y-98968839D01*
X83997091Y-99005842D01*
X83999107Y-99031910D01*
X84000813Y-99059098D01*
X84002209Y-99087405D01*
X84003295Y-99116831D01*
X84004070Y-99147378D01*
X84004535Y-99179043D01*
X84004690Y-99211829D01*
X84004690Y-100118200D01*
X84494788Y-100118200D01*
X84494788Y-99083411D01*
X84494890Y-99049743D01*
X84495195Y-99017603D01*
X84495704Y-98986988D01*
X84496417Y-98957901D01*
X84497333Y-98930340D01*
X84498452Y-98904306D01*
X84500513Y-98868118D01*
X84503032Y-98835364D01*
X84506009Y-98806046D01*
X84509444Y-98780163D01*
X84514737Y-98750996D01*
X84520844Y-98727935D01*
X84529698Y-98703926D01*
X84542203Y-98677754D01*
X84556757Y-98654460D01*
X84573362Y-98634046D01*
X84592017Y-98616511D01*
X84602113Y-98608823D01*
X84623982Y-98595540D01*
X84648642Y-98585006D01*
X84676093Y-98577220D01*
X84701102Y-98572831D01*
X84728050Y-98570350D01*
X84751004Y-98569739D01*
X84779027Y-98570718D01*
X84806334Y-98573655D01*
X84832923Y-98578550D01*
X84858794Y-98585403D01*
X84883949Y-98594215D01*
X84908386Y-98604984D01*
X84932105Y-98617712D01*
X84955108Y-98632397D01*
X84976957Y-98648769D01*
X84997216Y-98666867D01*
X85015885Y-98686690D01*
X85032965Y-98708238D01*
X85048455Y-98731512D01*
X85062355Y-98756511D01*
X85074666Y-98783236D01*
X85085387Y-98811686D01*
X85094547Y-98843412D01*
X85100616Y-98870375D01*
X85105997Y-98900053D01*
X85110692Y-98932447D01*
X85114700Y-98967556D01*
X85116990Y-98992470D01*
X85118974Y-99018591D01*
X85120654Y-99045919D01*
X85122028Y-99074454D01*
X85123097Y-99104196D01*
X85123860Y-99135145D01*
X85124318Y-99167300D01*
X85124471Y-99200662D01*
X85124471Y-100118200D01*
X85615189Y-100118200D01*
X85615189Y-98252106D01*
G37*
G36*
X80279327Y-100118200D02*
G01*
X80769425Y-100118200D01*
X80769425Y-98250865D01*
X80803379Y-98283973D01*
X80838083Y-98315985D01*
X80873539Y-98346902D01*
X80909747Y-98376724D01*
X80946705Y-98405451D01*
X80984415Y-98433082D01*
X81022876Y-98459617D01*
X81062088Y-98485057D01*
X81102051Y-98509402D01*
X81142766Y-98532652D01*
X81184232Y-98554806D01*
X81226449Y-98575865D01*
X81269417Y-98595829D01*
X81313137Y-98614697D01*
X81357608Y-98632470D01*
X81402830Y-98649147D01*
X81402830Y-98172698D01*
X81378737Y-98164589D01*
X81354382Y-98155618D01*
X81329766Y-98145784D01*
X81304888Y-98135087D01*
X81279748Y-98123528D01*
X81254347Y-98111106D01*
X81228683Y-98097821D01*
X81202758Y-98083674D01*
X81176572Y-98068663D01*
X81150123Y-98052791D01*
X81123413Y-98036055D01*
X81096441Y-98018457D01*
X81069208Y-97999996D01*
X81041712Y-97980672D01*
X81013955Y-97960485D01*
X80985937Y-97939436D01*
X80958340Y-97917655D01*
X80931848Y-97895428D01*
X80906461Y-97872755D01*
X80882179Y-97849637D01*
X80859002Y-97826072D01*
X80836930Y-97802061D01*
X80815963Y-97777605D01*
X80796101Y-97752703D01*
X80777345Y-97727354D01*
X80759693Y-97701560D01*
X80743146Y-97675320D01*
X80727705Y-97648634D01*
X80713368Y-97621503D01*
X80700137Y-97593925D01*
X80688010Y-97565901D01*
X80676989Y-97537432D01*
X80279327Y-97537432D01*
X80279327Y-100118200D01*
G37*
G36*
X78497605Y-100118200D02*
G01*
X78987703Y-100118200D01*
X78987703Y-98250865D01*
X79021656Y-98283973D01*
X79056361Y-98315985D01*
X79091817Y-98346902D01*
X79128024Y-98376724D01*
X79164983Y-98405451D01*
X79202693Y-98433082D01*
X79241154Y-98459617D01*
X79280366Y-98485057D01*
X79320329Y-98509402D01*
X79361044Y-98532652D01*
X79402510Y-98554806D01*
X79444727Y-98575865D01*
X79487695Y-98595829D01*
X79531415Y-98614697D01*
X79575886Y-98632470D01*
X79621108Y-98649147D01*
X79621108Y-98172698D01*
X79597015Y-98164589D01*
X79572660Y-98155618D01*
X79548044Y-98145784D01*
X79523166Y-98135087D01*
X79498026Y-98123528D01*
X79472624Y-98111106D01*
X79446961Y-98097821D01*
X79421036Y-98083674D01*
X79394849Y-98068663D01*
X79368401Y-98052791D01*
X79341691Y-98036055D01*
X79314719Y-98018457D01*
X79287485Y-97999996D01*
X79259990Y-97980672D01*
X79232233Y-97960485D01*
X79204214Y-97939436D01*
X79176617Y-97917655D01*
X79150125Y-97895428D01*
X79124738Y-97872755D01*
X79100456Y-97849637D01*
X79077280Y-97826072D01*
X79055208Y-97802061D01*
X79034241Y-97777605D01*
X79014379Y-97752703D01*
X78995622Y-97727354D01*
X78977971Y-97701560D01*
X78961424Y-97675320D01*
X78945983Y-97648634D01*
X78931646Y-97621503D01*
X78918415Y-97593925D01*
X78906288Y-97565901D01*
X78895267Y-97537432D01*
X78497605Y-97537432D01*
X78497605Y-100118200D01*
G37*
G36*
X77791616Y-99385534D02*
G01*
X77317028Y-99324117D01*
X77312054Y-99359497D01*
X77305738Y-99393284D01*
X77298081Y-99425480D01*
X77289082Y-99456083D01*
X77278742Y-99485094D01*
X77267061Y-99512513D01*
X77254039Y-99538340D01*
X77239675Y-99562575D01*
X77223970Y-99585217D01*
X77206923Y-99606267D01*
X77194814Y-99619417D01*
X77175832Y-99637599D01*
X77156108Y-99653993D01*
X77135643Y-99668598D01*
X77107203Y-99685290D01*
X77077444Y-99698803D01*
X77046367Y-99709136D01*
X77022194Y-99714799D01*
X76997280Y-99718674D01*
X76971624Y-99720761D01*
X76954108Y-99721158D01*
X76926145Y-99720139D01*
X76899023Y-99717080D01*
X76872740Y-99711982D01*
X76847296Y-99704844D01*
X76822693Y-99695668D01*
X76798929Y-99684452D01*
X76776004Y-99671197D01*
X76753920Y-99655902D01*
X76732675Y-99638569D01*
X76712270Y-99619196D01*
X76699133Y-99605148D01*
X76680507Y-99582682D01*
X76663713Y-99558787D01*
X76648751Y-99533463D01*
X76635622Y-99506712D01*
X76624324Y-99478531D01*
X76614858Y-99448922D01*
X76607225Y-99417884D01*
X76601423Y-99385418D01*
X76597454Y-99351523D01*
X76595317Y-99316200D01*
X76594909Y-99291858D01*
X76595787Y-99257637D01*
X76598421Y-99224770D01*
X76602810Y-99193254D01*
X76608955Y-99163091D01*
X76616856Y-99134279D01*
X76626512Y-99106820D01*
X76637924Y-99080714D01*
X76651092Y-99055959D01*
X76666016Y-99032557D01*
X76682695Y-99010507D01*
X76694790Y-98996558D01*
X76713783Y-98977045D01*
X76733539Y-98959452D01*
X76754059Y-98943778D01*
X76775342Y-98930023D01*
X76797389Y-98918187D01*
X76820198Y-98908271D01*
X76843771Y-98900274D01*
X76868108Y-98894196D01*
X76893208Y-98890038D01*
X76919071Y-98887798D01*
X76936737Y-98887372D01*
X76967099Y-98888265D01*
X76992675Y-98890267D01*
X77019394Y-98893413D01*
X77047258Y-98897702D01*
X77076266Y-98903135D01*
X77106417Y-98909712D01*
X77137712Y-98917433D01*
X77161934Y-98923974D01*
X77107961Y-98530035D01*
X77071456Y-98530191D01*
X77036620Y-98528799D01*
X77003452Y-98525858D01*
X76971953Y-98521369D01*
X76942122Y-98515331D01*
X76913960Y-98507745D01*
X76887466Y-98498610D01*
X76862641Y-98487927D01*
X76839484Y-98475695D01*
X76817996Y-98461915D01*
X76804597Y-98451867D01*
X76780024Y-98430232D01*
X76758728Y-98406890D01*
X76740708Y-98381842D01*
X76725964Y-98355089D01*
X76714497Y-98326629D01*
X76706306Y-98296463D01*
X76701391Y-98264591D01*
X76699856Y-98239568D01*
X76699753Y-98231013D01*
X76700955Y-98202447D01*
X76704561Y-98175373D01*
X76710571Y-98149792D01*
X76718985Y-98125704D01*
X76729803Y-98103109D01*
X76743024Y-98082006D01*
X76758650Y-98062397D01*
X76776680Y-98044280D01*
X76796561Y-98027849D01*
X76818051Y-98013610D01*
X76841151Y-98001561D01*
X76865859Y-97991703D01*
X76892177Y-97984035D01*
X76920103Y-97978559D01*
X76949639Y-97975273D01*
X76980784Y-97974177D01*
X77011551Y-97975447D01*
X77041193Y-97979257D01*
X77069711Y-97985606D01*
X77097105Y-97994495D01*
X77123374Y-98005923D01*
X77148518Y-98019891D01*
X77172538Y-98036399D01*
X77195434Y-98055447D01*
X77216527Y-98076782D01*
X77235449Y-98100463D01*
X77252199Y-98126489D01*
X77266778Y-98154862D01*
X77279185Y-98185580D01*
X77287066Y-98210158D01*
X77293725Y-98236056D01*
X77299163Y-98263273D01*
X77303380Y-98291810D01*
X77755014Y-98220467D01*
X77748934Y-98191217D01*
X77742481Y-98162714D01*
X77735654Y-98134957D01*
X77728454Y-98107946D01*
X77720881Y-98081682D01*
X77712935Y-98056164D01*
X77704616Y-98031392D01*
X77695923Y-98007367D01*
X77686858Y-97984089D01*
X77672559Y-97950570D01*
X77657421Y-97918731D01*
X77641443Y-97888571D01*
X77624626Y-97860091D01*
X77612948Y-97842037D01*
X77594491Y-97815934D01*
X77574715Y-97790899D01*
X77553619Y-97766934D01*
X77531204Y-97744037D01*
X77507469Y-97722208D01*
X77482414Y-97701449D01*
X77456040Y-97681758D01*
X77428347Y-97663136D01*
X77399334Y-97645582D01*
X77369002Y-97629097D01*
X77348047Y-97618701D01*
X77315704Y-97604178D01*
X77282653Y-97591082D01*
X77248893Y-97579416D01*
X77214424Y-97569178D01*
X77179246Y-97560368D01*
X77143359Y-97552987D01*
X77106763Y-97547035D01*
X77081973Y-97543860D01*
X77056867Y-97541321D01*
X77031446Y-97539416D01*
X77005710Y-97538146D01*
X76979659Y-97537511D01*
X76966515Y-97537432D01*
X76921943Y-97538312D01*
X76878490Y-97540951D01*
X76836156Y-97545349D01*
X76794942Y-97551507D01*
X76754848Y-97559424D01*
X76715873Y-97569100D01*
X76678018Y-97580536D01*
X76641283Y-97593731D01*
X76605667Y-97608686D01*
X76571170Y-97625399D01*
X76537794Y-97643873D01*
X76505536Y-97664105D01*
X76474399Y-97686097D01*
X76444381Y-97709848D01*
X76415482Y-97735359D01*
X76387704Y-97762629D01*
X76365918Y-97785849D01*
X76345537Y-97809448D01*
X76326563Y-97833424D01*
X76308993Y-97857779D01*
X76292830Y-97882512D01*
X76278071Y-97907622D01*
X76264719Y-97933111D01*
X76252772Y-97958978D01*
X76242230Y-97985223D01*
X76233094Y-98011846D01*
X76225364Y-98038847D01*
X76219039Y-98066226D01*
X76214119Y-98093983D01*
X76210605Y-98122118D01*
X76208497Y-98150631D01*
X76207794Y-98179522D01*
X76209231Y-98220178D01*
X76213543Y-98259793D01*
X76220728Y-98298365D01*
X76230787Y-98335896D01*
X76243720Y-98372384D01*
X76259528Y-98407830D01*
X76278210Y-98442235D01*
X76299765Y-98475597D01*
X76324195Y-98507917D01*
X76351499Y-98539195D01*
X76381677Y-98569431D01*
X76414729Y-98598625D01*
X76450655Y-98626777D01*
X76489455Y-98653887D01*
X76531129Y-98679955D01*
X76553044Y-98692598D01*
X76575678Y-98704981D01*
X76548570Y-98711497D01*
X76522151Y-98718949D01*
X76496420Y-98727336D01*
X76471377Y-98736659D01*
X76447022Y-98746917D01*
X76423356Y-98758111D01*
X76400378Y-98770239D01*
X76378088Y-98783304D01*
X76356486Y-98797303D01*
X76335573Y-98812238D01*
X76315347Y-98828109D01*
X76295810Y-98844915D01*
X76276962Y-98862656D01*
X76258801Y-98881333D01*
X76241329Y-98900945D01*
X76224545Y-98921493D01*
X76208543Y-98942704D01*
X76193574Y-98964463D01*
X76179637Y-98986770D01*
X76166733Y-99009625D01*
X76154861Y-99033027D01*
X76144022Y-99056977D01*
X76134214Y-99081475D01*
X76125439Y-99106520D01*
X76117697Y-99132113D01*
X76110986Y-99158254D01*
X76105309Y-99184942D01*
X76100663Y-99212178D01*
X76097050Y-99239962D01*
X76094469Y-99268293D01*
X76092920Y-99297172D01*
X76092404Y-99326599D01*
X76093366Y-99369317D01*
X76096253Y-99411241D01*
X76101063Y-99452370D01*
X76107797Y-99492705D01*
X76116456Y-99532244D01*
X76127039Y-99570988D01*
X76139546Y-99608938D01*
X76153977Y-99646093D01*
X76170332Y-99682453D01*
X76188611Y-99718018D01*
X76208815Y-99752788D01*
X76230942Y-99786763D01*
X76254994Y-99819944D01*
X76280970Y-99852329D01*
X76308870Y-99883920D01*
X76338694Y-99914716D01*
X76369875Y-99944164D01*
X76402001Y-99971713D01*
X76435073Y-99997362D01*
X76469089Y-100021111D01*
X76504051Y-100042959D01*
X76539958Y-100062908D01*
X76576810Y-100080958D01*
X76614606Y-100097107D01*
X76653348Y-100111356D01*
X76693036Y-100123705D01*
X76733668Y-100134155D01*
X76775245Y-100142704D01*
X76817768Y-100149354D01*
X76861235Y-100154104D01*
X76905648Y-100156954D01*
X76951006Y-100157904D01*
X76993894Y-100157070D01*
X77035862Y-100154569D01*
X77076908Y-100150401D01*
X77117034Y-100144566D01*
X77156239Y-100137063D01*
X77194523Y-100127893D01*
X77231886Y-100117056D01*
X77268329Y-100104551D01*
X77303850Y-100090379D01*
X77338450Y-100074540D01*
X77372130Y-100057034D01*
X77404889Y-100037861D01*
X77436727Y-100017020D01*
X77467644Y-99994512D01*
X77497640Y-99970337D01*
X77526715Y-99944494D01*
X77554504Y-99917229D01*
X77580795Y-99888941D01*
X77605588Y-99859631D01*
X77628884Y-99829298D01*
X77650682Y-99797942D01*
X77670982Y-99765564D01*
X77689785Y-99732163D01*
X77707090Y-99697739D01*
X77722898Y-99662293D01*
X77737207Y-99625824D01*
X77750020Y-99588332D01*
X77761334Y-99549818D01*
X77771151Y-99510281D01*
X77779471Y-99469722D01*
X77786292Y-99428139D01*
X77791616Y-99385534D01*
G37*
G36*
X75013472Y-97538457D02*
G01*
X75058003Y-97541532D01*
X75101255Y-97546658D01*
X75143228Y-97553833D01*
X75183921Y-97563059D01*
X75223334Y-97574335D01*
X75261468Y-97587661D01*
X75298322Y-97603037D01*
X75333897Y-97620463D01*
X75368192Y-97639939D01*
X75401208Y-97661466D01*
X75432944Y-97685043D01*
X75463400Y-97710670D01*
X75492577Y-97738347D01*
X75520475Y-97768074D01*
X75547093Y-97799851D01*
X75562551Y-97820177D01*
X75577518Y-97841295D01*
X75591995Y-97863206D01*
X75605980Y-97885909D01*
X75619475Y-97909405D01*
X75632480Y-97933693D01*
X75644993Y-97958773D01*
X75657016Y-97984646D01*
X75668548Y-98011311D01*
X75679590Y-98038769D01*
X75690140Y-98067019D01*
X75700200Y-98096062D01*
X75709769Y-98125897D01*
X75718848Y-98156524D01*
X75727435Y-98187944D01*
X75735532Y-98220157D01*
X75743139Y-98253161D01*
X75750254Y-98286959D01*
X75756879Y-98321548D01*
X75763013Y-98356930D01*
X75768657Y-98393105D01*
X75773809Y-98430072D01*
X75778471Y-98467831D01*
X75782642Y-98506383D01*
X75786323Y-98545727D01*
X75789513Y-98585864D01*
X75792212Y-98626793D01*
X75794420Y-98668515D01*
X75796137Y-98711029D01*
X75797364Y-98754335D01*
X75798100Y-98798434D01*
X75798346Y-98843325D01*
X75798123Y-98889064D01*
X75797454Y-98933922D01*
X75796339Y-98977899D01*
X75794778Y-99020995D01*
X75792772Y-99063211D01*
X75790320Y-99104545D01*
X75787421Y-99144998D01*
X75784077Y-99184571D01*
X75780287Y-99223263D01*
X75776051Y-99261074D01*
X75771369Y-99298004D01*
X75766241Y-99334053D01*
X75760667Y-99369221D01*
X75754648Y-99403508D01*
X75748182Y-99436915D01*
X75741271Y-99469440D01*
X75733914Y-99501085D01*
X75726110Y-99531849D01*
X75717861Y-99561732D01*
X75709166Y-99590734D01*
X75700026Y-99618855D01*
X75690439Y-99646095D01*
X75680406Y-99672455D01*
X75669928Y-99697933D01*
X75659003Y-99722531D01*
X75647633Y-99746247D01*
X75635817Y-99769083D01*
X75623554Y-99791038D01*
X75597692Y-99832305D01*
X75570047Y-99870049D01*
X75540867Y-99904906D01*
X75510559Y-99937515D01*
X75479121Y-99967874D01*
X75446553Y-99995985D01*
X75412857Y-100021847D01*
X75378031Y-100045460D01*
X75342075Y-100066825D01*
X75304991Y-100085940D01*
X75266777Y-100102806D01*
X75227434Y-100117424D01*
X75186962Y-100129793D01*
X75145360Y-100139913D01*
X75102629Y-100147784D01*
X75058769Y-100153406D01*
X75013780Y-100156779D01*
X74967661Y-100157904D01*
X74921925Y-100156879D01*
X74877464Y-100153803D01*
X74834278Y-100148678D01*
X74792366Y-100141502D01*
X74751729Y-100132277D01*
X74712366Y-100121001D01*
X74674279Y-100107675D01*
X74637465Y-100092299D01*
X74601927Y-100074872D01*
X74567663Y-100055396D01*
X74534674Y-100033869D01*
X74502960Y-100010293D01*
X74472520Y-99984666D01*
X74443355Y-99956989D01*
X74415465Y-99927262D01*
X74388849Y-99895484D01*
X74373392Y-99875155D01*
X74358424Y-99854026D01*
X74343948Y-99832097D01*
X74329962Y-99809368D01*
X74316467Y-99785840D01*
X74303463Y-99761512D01*
X74290949Y-99736384D01*
X74278926Y-99710457D01*
X74267394Y-99683730D01*
X74256353Y-99656203D01*
X74245802Y-99627876D01*
X74235742Y-99598750D01*
X74226173Y-99568824D01*
X74217095Y-99538099D01*
X74208507Y-99506573D01*
X74200410Y-99474248D01*
X74192804Y-99441124D01*
X74185688Y-99407199D01*
X74179063Y-99372475D01*
X74172929Y-99336951D01*
X74167286Y-99300628D01*
X74162133Y-99263504D01*
X74157471Y-99225581D01*
X74153300Y-99186859D01*
X74149620Y-99147336D01*
X74146430Y-99107014D01*
X74143731Y-99065893D01*
X74141523Y-99023971D01*
X74139805Y-98981250D01*
X74138578Y-98937729D01*
X74137842Y-98893408D01*
X74137597Y-98848288D01*
X74650028Y-98848288D01*
X74650078Y-98875375D01*
X74650227Y-98901965D01*
X74650475Y-98928059D01*
X74650823Y-98953655D01*
X74651270Y-98978755D01*
X74652462Y-99027464D01*
X74654052Y-99074186D01*
X74656039Y-99118921D01*
X74658424Y-99161669D01*
X74661206Y-99202430D01*
X74664385Y-99241204D01*
X74667962Y-99277990D01*
X74671936Y-99312789D01*
X74676308Y-99345601D01*
X74681077Y-99376426D01*
X74686244Y-99405264D01*
X74691808Y-99432115D01*
X74700899Y-99468665D01*
X74708278Y-99494539D01*
X74716224Y-99518886D01*
X74727701Y-99548975D01*
X74740186Y-99576349D01*
X74753680Y-99601009D01*
X74768181Y-99622955D01*
X74787725Y-99646570D01*
X74808845Y-99665945D01*
X74817680Y-99672631D01*
X74840405Y-99687459D01*
X74864039Y-99699591D01*
X74888581Y-99709026D01*
X74914032Y-99715766D01*
X74940392Y-99719810D01*
X74967661Y-99721158D01*
X74978675Y-99720947D01*
X75005553Y-99718576D01*
X75031492Y-99713568D01*
X75056492Y-99705926D01*
X75080553Y-99695648D01*
X75103674Y-99682734D01*
X75125857Y-99667186D01*
X75138562Y-99655995D01*
X75158815Y-99633104D01*
X75174188Y-99610974D01*
X75188825Y-99585451D01*
X75202726Y-99556536D01*
X75212667Y-99532623D01*
X75222195Y-99506801D01*
X75231308Y-99479071D01*
X75240006Y-99449433D01*
X75248100Y-99416320D01*
X75253053Y-99391573D01*
X75257653Y-99364688D01*
X75261898Y-99335666D01*
X75265790Y-99304507D01*
X75269328Y-99271210D01*
X75272513Y-99235776D01*
X75275343Y-99198204D01*
X75277820Y-99158495D01*
X75279943Y-99116649D01*
X75281712Y-99072665D01*
X75283127Y-99026544D01*
X75284188Y-98978286D01*
X75284586Y-98953355D01*
X75284896Y-98927890D01*
X75285117Y-98901890D01*
X75285250Y-98875356D01*
X75285294Y-98848288D01*
X75285244Y-98821238D01*
X75285095Y-98794679D01*
X75284847Y-98768612D01*
X75284499Y-98743037D01*
X75283506Y-98693364D01*
X75282115Y-98645658D01*
X75280326Y-98599919D01*
X75278140Y-98556149D01*
X75275557Y-98514346D01*
X75272576Y-98474511D01*
X75269198Y-98436644D01*
X75265423Y-98400744D01*
X75261250Y-98366813D01*
X75256679Y-98334849D01*
X75251711Y-98304853D01*
X75246346Y-98276824D01*
X75240583Y-98250763D01*
X75234423Y-98226671D01*
X75227044Y-98200796D01*
X75219098Y-98176449D01*
X75207621Y-98146361D01*
X75195136Y-98118987D01*
X75181643Y-98094327D01*
X75167141Y-98072381D01*
X75147597Y-98048765D01*
X75126478Y-98029391D01*
X75117642Y-98022705D01*
X75094917Y-98007877D01*
X75071283Y-97995745D01*
X75046741Y-97986309D01*
X75021290Y-97979569D01*
X74994930Y-97975525D01*
X74967661Y-97974177D01*
X74956649Y-97974393D01*
X74929799Y-97976819D01*
X74903917Y-97981942D01*
X74879005Y-97989760D01*
X74855063Y-98000274D01*
X74832089Y-98013484D01*
X74810085Y-98029391D01*
X74793093Y-98044890D01*
X74776856Y-98063783D01*
X74761376Y-98086068D01*
X74746652Y-98111746D01*
X74732684Y-98140816D01*
X74722704Y-98164846D01*
X74713149Y-98190783D01*
X74704020Y-98218629D01*
X74695316Y-98248384D01*
X74687222Y-98281381D01*
X74682269Y-98306050D01*
X74677669Y-98332857D01*
X74673424Y-98361802D01*
X74669532Y-98392884D01*
X74665994Y-98426103D01*
X74662809Y-98461460D01*
X74659979Y-98498954D01*
X74657502Y-98538585D01*
X74655379Y-98580354D01*
X74653610Y-98624260D01*
X74652195Y-98670304D01*
X74651134Y-98718485D01*
X74650736Y-98743377D01*
X74650426Y-98768803D01*
X74650205Y-98794764D01*
X74650072Y-98821259D01*
X74650028Y-98848288D01*
X74137597Y-98848288D01*
X74137840Y-98803095D01*
X74138571Y-98758712D01*
X74139789Y-98715137D01*
X74141494Y-98672373D01*
X74143686Y-98630417D01*
X74146365Y-98589271D01*
X74149531Y-98548934D01*
X74153184Y-98509407D01*
X74157324Y-98470689D01*
X74161951Y-98432781D01*
X74167066Y-98395682D01*
X74172668Y-98359392D01*
X74178756Y-98323912D01*
X74185332Y-98289241D01*
X74192395Y-98255380D01*
X74199945Y-98222328D01*
X74207982Y-98190085D01*
X74216506Y-98158652D01*
X74225517Y-98128028D01*
X74235015Y-98098214D01*
X74245001Y-98069209D01*
X74255473Y-98041013D01*
X74266433Y-98013627D01*
X74277880Y-97987050D01*
X74289813Y-97961283D01*
X74302234Y-97936324D01*
X74315142Y-97912176D01*
X74328537Y-97888837D01*
X74342419Y-97866307D01*
X74356789Y-97844586D01*
X74371645Y-97823675D01*
X74386988Y-97803574D01*
X74413829Y-97771345D01*
X74441930Y-97741197D01*
X74471292Y-97713127D01*
X74501913Y-97687137D01*
X74533795Y-97663225D01*
X74566936Y-97641393D01*
X74601338Y-97621641D01*
X74637000Y-97603967D01*
X74673922Y-97588373D01*
X74712105Y-97574858D01*
X74751547Y-97563422D01*
X74792250Y-97554066D01*
X74834212Y-97546788D01*
X74877435Y-97541590D01*
X74921918Y-97538471D01*
X74967661Y-97537432D01*
X75013472Y-97538457D01*
G37*
X110447368Y-107420828D02*
X109304510Y-107849400D01*
X109304510Y-107849400D02*
X110447368Y-108277971D01*
D11*
X70885952Y-111951009D02*
X70743095Y-111998628D01*
X70743095Y-111998628D02*
X70695476Y-112046247D01*
X70695476Y-112046247D02*
X70647857Y-112141485D01*
X70647857Y-112141485D02*
X70647857Y-112284342D01*
X70647857Y-112284342D02*
X70695476Y-112379580D01*
X70695476Y-112379580D02*
X70743095Y-112427200D01*
X70743095Y-112427200D02*
X70838333Y-112474819D01*
X70838333Y-112474819D02*
X71219285Y-112474819D01*
X71219285Y-112474819D02*
X71219285Y-111474819D01*
X71219285Y-111474819D02*
X70885952Y-111474819D01*
X70885952Y-111474819D02*
X70790714Y-111522438D01*
X70790714Y-111522438D02*
X70743095Y-111570057D01*
X70743095Y-111570057D02*
X70695476Y-111665295D01*
X70695476Y-111665295D02*
X70695476Y-111760533D01*
X70695476Y-111760533D02*
X70743095Y-111855771D01*
X70743095Y-111855771D02*
X70790714Y-111903390D01*
X70790714Y-111903390D02*
X70885952Y-111951009D01*
X70885952Y-111951009D02*
X71219285Y-111951009D01*
X69695476Y-112474819D02*
X70266904Y-112474819D01*
X69981190Y-112474819D02*
X69981190Y-111474819D01*
X69981190Y-111474819D02*
X70076428Y-111617676D01*
X70076428Y-111617676D02*
X70171666Y-111712914D01*
X70171666Y-111712914D02*
X70266904Y-111760533D01*
X69362142Y-111474819D02*
X68743095Y-111474819D01*
X68743095Y-111474819D02*
X69076428Y-111855771D01*
X69076428Y-111855771D02*
X68933571Y-111855771D01*
X68933571Y-111855771D02*
X68838333Y-111903390D01*
X68838333Y-111903390D02*
X68790714Y-111951009D01*
X68790714Y-111951009D02*
X68743095Y-112046247D01*
X68743095Y-112046247D02*
X68743095Y-112284342D01*
X68743095Y-112284342D02*
X68790714Y-112379580D01*
X68790714Y-112379580D02*
X68838333Y-112427200D01*
X68838333Y-112427200D02*
X68933571Y-112474819D01*
X68933571Y-112474819D02*
X69219285Y-112474819D01*
X69219285Y-112474819D02*
X69314523Y-112427200D01*
X69314523Y-112427200D02*
X69362142Y-112379580D01*
X99318094Y-106124819D02*
X99318094Y-105124819D01*
X99318094Y-105124819D02*
X99079999Y-105124819D01*
X99079999Y-105124819D02*
X98937142Y-105172438D01*
X98937142Y-105172438D02*
X98841904Y-105267676D01*
X98841904Y-105267676D02*
X98794285Y-105362914D01*
X98794285Y-105362914D02*
X98746666Y-105553390D01*
X98746666Y-105553390D02*
X98746666Y-105696247D01*
X98746666Y-105696247D02*
X98794285Y-105886723D01*
X98794285Y-105886723D02*
X98841904Y-105981961D01*
X98841904Y-105981961D02*
X98937142Y-106077200D01*
X98937142Y-106077200D02*
X99079999Y-106124819D01*
X99079999Y-106124819D02*
X99318094Y-106124819D01*
X97889523Y-105458152D02*
X97889523Y-106124819D01*
X98127618Y-105077200D02*
X98365713Y-105791485D01*
X98365713Y-105791485D02*
X97746666Y-105791485D01*
X89459761Y-111951009D02*
X89316904Y-111998628D01*
X89316904Y-111998628D02*
X89269285Y-112046247D01*
X89269285Y-112046247D02*
X89221666Y-112141485D01*
X89221666Y-112141485D02*
X89221666Y-112284342D01*
X89221666Y-112284342D02*
X89269285Y-112379580D01*
X89269285Y-112379580D02*
X89316904Y-112427200D01*
X89316904Y-112427200D02*
X89412142Y-112474819D01*
X89412142Y-112474819D02*
X89793094Y-112474819D01*
X89793094Y-112474819D02*
X89793094Y-111474819D01*
X89793094Y-111474819D02*
X89459761Y-111474819D01*
X89459761Y-111474819D02*
X89364523Y-111522438D01*
X89364523Y-111522438D02*
X89316904Y-111570057D01*
X89316904Y-111570057D02*
X89269285Y-111665295D01*
X89269285Y-111665295D02*
X89269285Y-111760533D01*
X89269285Y-111760533D02*
X89316904Y-111855771D01*
X89316904Y-111855771D02*
X89364523Y-111903390D01*
X89364523Y-111903390D02*
X89459761Y-111951009D01*
X89459761Y-111951009D02*
X89793094Y-111951009D01*
X88888332Y-111474819D02*
X88221666Y-111474819D01*
X88221666Y-111474819D02*
X88650237Y-112474819D01*
X77235952Y-111951009D02*
X77093095Y-111998628D01*
X77093095Y-111998628D02*
X77045476Y-112046247D01*
X77045476Y-112046247D02*
X76997857Y-112141485D01*
X76997857Y-112141485D02*
X76997857Y-112284342D01*
X76997857Y-112284342D02*
X77045476Y-112379580D01*
X77045476Y-112379580D02*
X77093095Y-112427200D01*
X77093095Y-112427200D02*
X77188333Y-112474819D01*
X77188333Y-112474819D02*
X77569285Y-112474819D01*
X77569285Y-112474819D02*
X77569285Y-111474819D01*
X77569285Y-111474819D02*
X77235952Y-111474819D01*
X77235952Y-111474819D02*
X77140714Y-111522438D01*
X77140714Y-111522438D02*
X77093095Y-111570057D01*
X77093095Y-111570057D02*
X77045476Y-111665295D01*
X77045476Y-111665295D02*
X77045476Y-111760533D01*
X77045476Y-111760533D02*
X77093095Y-111855771D01*
X77093095Y-111855771D02*
X77140714Y-111903390D01*
X77140714Y-111903390D02*
X77235952Y-111951009D01*
X77235952Y-111951009D02*
X77569285Y-111951009D01*
X76045476Y-112474819D02*
X76616904Y-112474819D01*
X76331190Y-112474819D02*
X76331190Y-111474819D01*
X76331190Y-111474819D02*
X76426428Y-111617676D01*
X76426428Y-111617676D02*
X76521666Y-111712914D01*
X76521666Y-111712914D02*
X76616904Y-111760533D01*
X75093095Y-112474819D02*
X75664523Y-112474819D01*
X75378809Y-112474819D02*
X75378809Y-111474819D01*
X75378809Y-111474819D02*
X75474047Y-111617676D01*
X75474047Y-111617676D02*
X75569285Y-111712914D01*
X75569285Y-111712914D02*
X75664523Y-111760533D01*
X83443094Y-106124819D02*
X83443094Y-105124819D01*
X83443094Y-105124819D02*
X83204999Y-105124819D01*
X83204999Y-105124819D02*
X83062142Y-105172438D01*
X83062142Y-105172438D02*
X82966904Y-105267676D01*
X82966904Y-105267676D02*
X82919285Y-105362914D01*
X82919285Y-105362914D02*
X82871666Y-105553390D01*
X82871666Y-105553390D02*
X82871666Y-105696247D01*
X82871666Y-105696247D02*
X82919285Y-105886723D01*
X82919285Y-105886723D02*
X82966904Y-105981961D01*
X82966904Y-105981961D02*
X83062142Y-106077200D01*
X83062142Y-106077200D02*
X83204999Y-106124819D01*
X83204999Y-106124819D02*
X83443094Y-106124819D01*
X82395475Y-106124819D02*
X82204999Y-106124819D01*
X82204999Y-106124819D02*
X82109761Y-106077200D01*
X82109761Y-106077200D02*
X82062142Y-106029580D01*
X82062142Y-106029580D02*
X81966904Y-105886723D01*
X81966904Y-105886723D02*
X81919285Y-105696247D01*
X81919285Y-105696247D02*
X81919285Y-105315295D01*
X81919285Y-105315295D02*
X81966904Y-105220057D01*
X81966904Y-105220057D02*
X82014523Y-105172438D01*
X82014523Y-105172438D02*
X82109761Y-105124819D01*
X82109761Y-105124819D02*
X82300237Y-105124819D01*
X82300237Y-105124819D02*
X82395475Y-105172438D01*
X82395475Y-105172438D02*
X82443094Y-105220057D01*
X82443094Y-105220057D02*
X82490713Y-105315295D01*
X82490713Y-105315295D02*
X82490713Y-105553390D01*
X82490713Y-105553390D02*
X82443094Y-105648628D01*
X82443094Y-105648628D02*
X82395475Y-105696247D01*
X82395475Y-105696247D02*
X82300237Y-105743866D01*
X82300237Y-105743866D02*
X82109761Y-105743866D01*
X82109761Y-105743866D02*
X82014523Y-105696247D01*
X82014523Y-105696247D02*
X81966904Y-105648628D01*
X81966904Y-105648628D02*
X81919285Y-105553390D01*
X105668094Y-106124819D02*
X105668094Y-105124819D01*
X105668094Y-105124819D02*
X105429999Y-105124819D01*
X105429999Y-105124819D02*
X105287142Y-105172438D01*
X105287142Y-105172438D02*
X105191904Y-105267676D01*
X105191904Y-105267676D02*
X105144285Y-105362914D01*
X105144285Y-105362914D02*
X105096666Y-105553390D01*
X105096666Y-105553390D02*
X105096666Y-105696247D01*
X105096666Y-105696247D02*
X105144285Y-105886723D01*
X105144285Y-105886723D02*
X105191904Y-105981961D01*
X105191904Y-105981961D02*
X105287142Y-106077200D01*
X105287142Y-106077200D02*
X105429999Y-106124819D01*
X105429999Y-106124819D02*
X105668094Y-106124819D01*
X104715713Y-105220057D02*
X104668094Y-105172438D01*
X104668094Y-105172438D02*
X104572856Y-105124819D01*
X104572856Y-105124819D02*
X104334761Y-105124819D01*
X104334761Y-105124819D02*
X104239523Y-105172438D01*
X104239523Y-105172438D02*
X104191904Y-105220057D01*
X104191904Y-105220057D02*
X104144285Y-105315295D01*
X104144285Y-105315295D02*
X104144285Y-105410533D01*
X104144285Y-105410533D02*
X104191904Y-105553390D01*
X104191904Y-105553390D02*
X104763332Y-106124819D01*
X104763332Y-106124819D02*
X104144285Y-106124819D01*
X83109761Y-111951009D02*
X82966904Y-111998628D01*
X82966904Y-111998628D02*
X82919285Y-112046247D01*
X82919285Y-112046247D02*
X82871666Y-112141485D01*
X82871666Y-112141485D02*
X82871666Y-112284342D01*
X82871666Y-112284342D02*
X82919285Y-112379580D01*
X82919285Y-112379580D02*
X82966904Y-112427200D01*
X82966904Y-112427200D02*
X83062142Y-112474819D01*
X83062142Y-112474819D02*
X83443094Y-112474819D01*
X83443094Y-112474819D02*
X83443094Y-111474819D01*
X83443094Y-111474819D02*
X83109761Y-111474819D01*
X83109761Y-111474819D02*
X83014523Y-111522438D01*
X83014523Y-111522438D02*
X82966904Y-111570057D01*
X82966904Y-111570057D02*
X82919285Y-111665295D01*
X82919285Y-111665295D02*
X82919285Y-111760533D01*
X82919285Y-111760533D02*
X82966904Y-111855771D01*
X82966904Y-111855771D02*
X83014523Y-111903390D01*
X83014523Y-111903390D02*
X83109761Y-111951009D01*
X83109761Y-111951009D02*
X83443094Y-111951009D01*
X82395475Y-112474819D02*
X82204999Y-112474819D01*
X82204999Y-112474819D02*
X82109761Y-112427200D01*
X82109761Y-112427200D02*
X82062142Y-112379580D01*
X82062142Y-112379580D02*
X81966904Y-112236723D01*
X81966904Y-112236723D02*
X81919285Y-112046247D01*
X81919285Y-112046247D02*
X81919285Y-111665295D01*
X81919285Y-111665295D02*
X81966904Y-111570057D01*
X81966904Y-111570057D02*
X82014523Y-111522438D01*
X82014523Y-111522438D02*
X82109761Y-111474819D01*
X82109761Y-111474819D02*
X82300237Y-111474819D01*
X82300237Y-111474819D02*
X82395475Y-111522438D01*
X82395475Y-111522438D02*
X82443094Y-111570057D01*
X82443094Y-111570057D02*
X82490713Y-111665295D01*
X82490713Y-111665295D02*
X82490713Y-111903390D01*
X82490713Y-111903390D02*
X82443094Y-111998628D01*
X82443094Y-111998628D02*
X82395475Y-112046247D01*
X82395475Y-112046247D02*
X82300237Y-112093866D01*
X82300237Y-112093866D02*
X82109761Y-112093866D01*
X82109761Y-112093866D02*
X82014523Y-112046247D01*
X82014523Y-112046247D02*
X81966904Y-111998628D01*
X81966904Y-111998628D02*
X81919285Y-111903390D01*
X86618094Y-106124819D02*
X86618094Y-105124819D01*
X86618094Y-105124819D02*
X86379999Y-105124819D01*
X86379999Y-105124819D02*
X86237142Y-105172438D01*
X86237142Y-105172438D02*
X86141904Y-105267676D01*
X86141904Y-105267676D02*
X86094285Y-105362914D01*
X86094285Y-105362914D02*
X86046666Y-105553390D01*
X86046666Y-105553390D02*
X86046666Y-105696247D01*
X86046666Y-105696247D02*
X86094285Y-105886723D01*
X86094285Y-105886723D02*
X86141904Y-105981961D01*
X86141904Y-105981961D02*
X86237142Y-106077200D01*
X86237142Y-106077200D02*
X86379999Y-106124819D01*
X86379999Y-106124819D02*
X86618094Y-106124819D01*
X85475237Y-105553390D02*
X85570475Y-105505771D01*
X85570475Y-105505771D02*
X85618094Y-105458152D01*
X85618094Y-105458152D02*
X85665713Y-105362914D01*
X85665713Y-105362914D02*
X85665713Y-105315295D01*
X85665713Y-105315295D02*
X85618094Y-105220057D01*
X85618094Y-105220057D02*
X85570475Y-105172438D01*
X85570475Y-105172438D02*
X85475237Y-105124819D01*
X85475237Y-105124819D02*
X85284761Y-105124819D01*
X85284761Y-105124819D02*
X85189523Y-105172438D01*
X85189523Y-105172438D02*
X85141904Y-105220057D01*
X85141904Y-105220057D02*
X85094285Y-105315295D01*
X85094285Y-105315295D02*
X85094285Y-105362914D01*
X85094285Y-105362914D02*
X85141904Y-105458152D01*
X85141904Y-105458152D02*
X85189523Y-105505771D01*
X85189523Y-105505771D02*
X85284761Y-105553390D01*
X85284761Y-105553390D02*
X85475237Y-105553390D01*
X85475237Y-105553390D02*
X85570475Y-105601009D01*
X85570475Y-105601009D02*
X85618094Y-105648628D01*
X85618094Y-105648628D02*
X85665713Y-105743866D01*
X85665713Y-105743866D02*
X85665713Y-105934342D01*
X85665713Y-105934342D02*
X85618094Y-106029580D01*
X85618094Y-106029580D02*
X85570475Y-106077200D01*
X85570475Y-106077200D02*
X85475237Y-106124819D01*
X85475237Y-106124819D02*
X85284761Y-106124819D01*
X85284761Y-106124819D02*
X85189523Y-106077200D01*
X85189523Y-106077200D02*
X85141904Y-106029580D01*
X85141904Y-106029580D02*
X85094285Y-105934342D01*
X85094285Y-105934342D02*
X85094285Y-105743866D01*
X85094285Y-105743866D02*
X85141904Y-105648628D01*
X85141904Y-105648628D02*
X85189523Y-105601009D01*
X85189523Y-105601009D02*
X85284761Y-105553390D01*
X80744285Y-106124819D02*
X80744285Y-105124819D01*
X80744285Y-105124819D02*
X80506190Y-105124819D01*
X80506190Y-105124819D02*
X80363333Y-105172438D01*
X80363333Y-105172438D02*
X80268095Y-105267676D01*
X80268095Y-105267676D02*
X80220476Y-105362914D01*
X80220476Y-105362914D02*
X80172857Y-105553390D01*
X80172857Y-105553390D02*
X80172857Y-105696247D01*
X80172857Y-105696247D02*
X80220476Y-105886723D01*
X80220476Y-105886723D02*
X80268095Y-105981961D01*
X80268095Y-105981961D02*
X80363333Y-106077200D01*
X80363333Y-106077200D02*
X80506190Y-106124819D01*
X80506190Y-106124819D02*
X80744285Y-106124819D01*
X79220476Y-106124819D02*
X79791904Y-106124819D01*
X79506190Y-106124819D02*
X79506190Y-105124819D01*
X79506190Y-105124819D02*
X79601428Y-105267676D01*
X79601428Y-105267676D02*
X79696666Y-105362914D01*
X79696666Y-105362914D02*
X79791904Y-105410533D01*
X78601428Y-105124819D02*
X78506190Y-105124819D01*
X78506190Y-105124819D02*
X78410952Y-105172438D01*
X78410952Y-105172438D02*
X78363333Y-105220057D01*
X78363333Y-105220057D02*
X78315714Y-105315295D01*
X78315714Y-105315295D02*
X78268095Y-105505771D01*
X78268095Y-105505771D02*
X78268095Y-105743866D01*
X78268095Y-105743866D02*
X78315714Y-105934342D01*
X78315714Y-105934342D02*
X78363333Y-106029580D01*
X78363333Y-106029580D02*
X78410952Y-106077200D01*
X78410952Y-106077200D02*
X78506190Y-106124819D01*
X78506190Y-106124819D02*
X78601428Y-106124819D01*
X78601428Y-106124819D02*
X78696666Y-106077200D01*
X78696666Y-106077200D02*
X78744285Y-106029580D01*
X78744285Y-106029580D02*
X78791904Y-105934342D01*
X78791904Y-105934342D02*
X78839523Y-105743866D01*
X78839523Y-105743866D02*
X78839523Y-105505771D01*
X78839523Y-105505771D02*
X78791904Y-105315295D01*
X78791904Y-105315295D02*
X78744285Y-105220057D01*
X78744285Y-105220057D02*
X78696666Y-105172438D01*
X78696666Y-105172438D02*
X78601428Y-105124819D01*
X95809761Y-111951009D02*
X95666904Y-111998628D01*
X95666904Y-111998628D02*
X95619285Y-112046247D01*
X95619285Y-112046247D02*
X95571666Y-112141485D01*
X95571666Y-112141485D02*
X95571666Y-112284342D01*
X95571666Y-112284342D02*
X95619285Y-112379580D01*
X95619285Y-112379580D02*
X95666904Y-112427200D01*
X95666904Y-112427200D02*
X95762142Y-112474819D01*
X95762142Y-112474819D02*
X96143094Y-112474819D01*
X96143094Y-112474819D02*
X96143094Y-111474819D01*
X96143094Y-111474819D02*
X95809761Y-111474819D01*
X95809761Y-111474819D02*
X95714523Y-111522438D01*
X95714523Y-111522438D02*
X95666904Y-111570057D01*
X95666904Y-111570057D02*
X95619285Y-111665295D01*
X95619285Y-111665295D02*
X95619285Y-111760533D01*
X95619285Y-111760533D02*
X95666904Y-111855771D01*
X95666904Y-111855771D02*
X95714523Y-111903390D01*
X95714523Y-111903390D02*
X95809761Y-111951009D01*
X95809761Y-111951009D02*
X96143094Y-111951009D01*
X94666904Y-111474819D02*
X95143094Y-111474819D01*
X95143094Y-111474819D02*
X95190713Y-111951009D01*
X95190713Y-111951009D02*
X95143094Y-111903390D01*
X95143094Y-111903390D02*
X95047856Y-111855771D01*
X95047856Y-111855771D02*
X94809761Y-111855771D01*
X94809761Y-111855771D02*
X94714523Y-111903390D01*
X94714523Y-111903390D02*
X94666904Y-111951009D01*
X94666904Y-111951009D02*
X94619285Y-112046247D01*
X94619285Y-112046247D02*
X94619285Y-112284342D01*
X94619285Y-112284342D02*
X94666904Y-112379580D01*
X94666904Y-112379580D02*
X94714523Y-112427200D01*
X94714523Y-112427200D02*
X94809761Y-112474819D01*
X94809761Y-112474819D02*
X95047856Y-112474819D01*
X95047856Y-112474819D02*
X95143094Y-112427200D01*
X95143094Y-112427200D02*
X95190713Y-112379580D01*
X96143094Y-106124819D02*
X96143094Y-105124819D01*
X96143094Y-105124819D02*
X95904999Y-105124819D01*
X95904999Y-105124819D02*
X95762142Y-105172438D01*
X95762142Y-105172438D02*
X95666904Y-105267676D01*
X95666904Y-105267676D02*
X95619285Y-105362914D01*
X95619285Y-105362914D02*
X95571666Y-105553390D01*
X95571666Y-105553390D02*
X95571666Y-105696247D01*
X95571666Y-105696247D02*
X95619285Y-105886723D01*
X95619285Y-105886723D02*
X95666904Y-105981961D01*
X95666904Y-105981961D02*
X95762142Y-106077200D01*
X95762142Y-106077200D02*
X95904999Y-106124819D01*
X95904999Y-106124819D02*
X96143094Y-106124819D01*
X94666904Y-105124819D02*
X95143094Y-105124819D01*
X95143094Y-105124819D02*
X95190713Y-105601009D01*
X95190713Y-105601009D02*
X95143094Y-105553390D01*
X95143094Y-105553390D02*
X95047856Y-105505771D01*
X95047856Y-105505771D02*
X94809761Y-105505771D01*
X94809761Y-105505771D02*
X94714523Y-105553390D01*
X94714523Y-105553390D02*
X94666904Y-105601009D01*
X94666904Y-105601009D02*
X94619285Y-105696247D01*
X94619285Y-105696247D02*
X94619285Y-105934342D01*
X94619285Y-105934342D02*
X94666904Y-106029580D01*
X94666904Y-106029580D02*
X94714523Y-106077200D01*
X94714523Y-106077200D02*
X94809761Y-106124819D01*
X94809761Y-106124819D02*
X95047856Y-106124819D01*
X95047856Y-106124819D02*
X95143094Y-106077200D01*
X95143094Y-106077200D02*
X95190713Y-106029580D01*
X77569285Y-106124819D02*
X77569285Y-105124819D01*
X77569285Y-105124819D02*
X77331190Y-105124819D01*
X77331190Y-105124819D02*
X77188333Y-105172438D01*
X77188333Y-105172438D02*
X77093095Y-105267676D01*
X77093095Y-105267676D02*
X77045476Y-105362914D01*
X77045476Y-105362914D02*
X76997857Y-105553390D01*
X76997857Y-105553390D02*
X76997857Y-105696247D01*
X76997857Y-105696247D02*
X77045476Y-105886723D01*
X77045476Y-105886723D02*
X77093095Y-105981961D01*
X77093095Y-105981961D02*
X77188333Y-106077200D01*
X77188333Y-106077200D02*
X77331190Y-106124819D01*
X77331190Y-106124819D02*
X77569285Y-106124819D01*
X76045476Y-106124819D02*
X76616904Y-106124819D01*
X76331190Y-106124819D02*
X76331190Y-105124819D01*
X76331190Y-105124819D02*
X76426428Y-105267676D01*
X76426428Y-105267676D02*
X76521666Y-105362914D01*
X76521666Y-105362914D02*
X76616904Y-105410533D01*
X75093095Y-106124819D02*
X75664523Y-106124819D01*
X75378809Y-106124819D02*
X75378809Y-105124819D01*
X75378809Y-105124819D02*
X75474047Y-105267676D01*
X75474047Y-105267676D02*
X75569285Y-105362914D01*
X75569285Y-105362914D02*
X75664523Y-105410533D01*
X92634761Y-111951009D02*
X92491904Y-111998628D01*
X92491904Y-111998628D02*
X92444285Y-112046247D01*
X92444285Y-112046247D02*
X92396666Y-112141485D01*
X92396666Y-112141485D02*
X92396666Y-112284342D01*
X92396666Y-112284342D02*
X92444285Y-112379580D01*
X92444285Y-112379580D02*
X92491904Y-112427200D01*
X92491904Y-112427200D02*
X92587142Y-112474819D01*
X92587142Y-112474819D02*
X92968094Y-112474819D01*
X92968094Y-112474819D02*
X92968094Y-111474819D01*
X92968094Y-111474819D02*
X92634761Y-111474819D01*
X92634761Y-111474819D02*
X92539523Y-111522438D01*
X92539523Y-111522438D02*
X92491904Y-111570057D01*
X92491904Y-111570057D02*
X92444285Y-111665295D01*
X92444285Y-111665295D02*
X92444285Y-111760533D01*
X92444285Y-111760533D02*
X92491904Y-111855771D01*
X92491904Y-111855771D02*
X92539523Y-111903390D01*
X92539523Y-111903390D02*
X92634761Y-111951009D01*
X92634761Y-111951009D02*
X92968094Y-111951009D01*
X91539523Y-111474819D02*
X91729999Y-111474819D01*
X91729999Y-111474819D02*
X91825237Y-111522438D01*
X91825237Y-111522438D02*
X91872856Y-111570057D01*
X91872856Y-111570057D02*
X91968094Y-111712914D01*
X91968094Y-111712914D02*
X92015713Y-111903390D01*
X92015713Y-111903390D02*
X92015713Y-112284342D01*
X92015713Y-112284342D02*
X91968094Y-112379580D01*
X91968094Y-112379580D02*
X91920475Y-112427200D01*
X91920475Y-112427200D02*
X91825237Y-112474819D01*
X91825237Y-112474819D02*
X91634761Y-112474819D01*
X91634761Y-112474819D02*
X91539523Y-112427200D01*
X91539523Y-112427200D02*
X91491904Y-112379580D01*
X91491904Y-112379580D02*
X91444285Y-112284342D01*
X91444285Y-112284342D02*
X91444285Y-112046247D01*
X91444285Y-112046247D02*
X91491904Y-111951009D01*
X91491904Y-111951009D02*
X91539523Y-111903390D01*
X91539523Y-111903390D02*
X91634761Y-111855771D01*
X91634761Y-111855771D02*
X91825237Y-111855771D01*
X91825237Y-111855771D02*
X91920475Y-111903390D01*
X91920475Y-111903390D02*
X91968094Y-111951009D01*
X91968094Y-111951009D02*
X92015713Y-112046247D01*
X92968094Y-106124819D02*
X92968094Y-105124819D01*
X92968094Y-105124819D02*
X92729999Y-105124819D01*
X92729999Y-105124819D02*
X92587142Y-105172438D01*
X92587142Y-105172438D02*
X92491904Y-105267676D01*
X92491904Y-105267676D02*
X92444285Y-105362914D01*
X92444285Y-105362914D02*
X92396666Y-105553390D01*
X92396666Y-105553390D02*
X92396666Y-105696247D01*
X92396666Y-105696247D02*
X92444285Y-105886723D01*
X92444285Y-105886723D02*
X92491904Y-105981961D01*
X92491904Y-105981961D02*
X92587142Y-106077200D01*
X92587142Y-106077200D02*
X92729999Y-106124819D01*
X92729999Y-106124819D02*
X92968094Y-106124819D01*
X91539523Y-105124819D02*
X91729999Y-105124819D01*
X91729999Y-105124819D02*
X91825237Y-105172438D01*
X91825237Y-105172438D02*
X91872856Y-105220057D01*
X91872856Y-105220057D02*
X91968094Y-105362914D01*
X91968094Y-105362914D02*
X92015713Y-105553390D01*
X92015713Y-105553390D02*
X92015713Y-105934342D01*
X92015713Y-105934342D02*
X91968094Y-106029580D01*
X91968094Y-106029580D02*
X91920475Y-106077200D01*
X91920475Y-106077200D02*
X91825237Y-106124819D01*
X91825237Y-106124819D02*
X91634761Y-106124819D01*
X91634761Y-106124819D02*
X91539523Y-106077200D01*
X91539523Y-106077200D02*
X91491904Y-106029580D01*
X91491904Y-106029580D02*
X91444285Y-105934342D01*
X91444285Y-105934342D02*
X91444285Y-105696247D01*
X91444285Y-105696247D02*
X91491904Y-105601009D01*
X91491904Y-105601009D02*
X91539523Y-105553390D01*
X91539523Y-105553390D02*
X91634761Y-105505771D01*
X91634761Y-105505771D02*
X91825237Y-105505771D01*
X91825237Y-105505771D02*
X91920475Y-105553390D01*
X91920475Y-105553390D02*
X91968094Y-105601009D01*
X91968094Y-105601009D02*
X92015713Y-105696247D01*
X102159761Y-111951009D02*
X102016904Y-111998628D01*
X102016904Y-111998628D02*
X101969285Y-112046247D01*
X101969285Y-112046247D02*
X101921666Y-112141485D01*
X101921666Y-112141485D02*
X101921666Y-112284342D01*
X101921666Y-112284342D02*
X101969285Y-112379580D01*
X101969285Y-112379580D02*
X102016904Y-112427200D01*
X102016904Y-112427200D02*
X102112142Y-112474819D01*
X102112142Y-112474819D02*
X102493094Y-112474819D01*
X102493094Y-112474819D02*
X102493094Y-111474819D01*
X102493094Y-111474819D02*
X102159761Y-111474819D01*
X102159761Y-111474819D02*
X102064523Y-111522438D01*
X102064523Y-111522438D02*
X102016904Y-111570057D01*
X102016904Y-111570057D02*
X101969285Y-111665295D01*
X101969285Y-111665295D02*
X101969285Y-111760533D01*
X101969285Y-111760533D02*
X102016904Y-111855771D01*
X102016904Y-111855771D02*
X102064523Y-111903390D01*
X102064523Y-111903390D02*
X102159761Y-111951009D01*
X102159761Y-111951009D02*
X102493094Y-111951009D01*
X101588332Y-111474819D02*
X100969285Y-111474819D01*
X100969285Y-111474819D02*
X101302618Y-111855771D01*
X101302618Y-111855771D02*
X101159761Y-111855771D01*
X101159761Y-111855771D02*
X101064523Y-111903390D01*
X101064523Y-111903390D02*
X101016904Y-111951009D01*
X101016904Y-111951009D02*
X100969285Y-112046247D01*
X100969285Y-112046247D02*
X100969285Y-112284342D01*
X100969285Y-112284342D02*
X101016904Y-112379580D01*
X101016904Y-112379580D02*
X101064523Y-112427200D01*
X101064523Y-112427200D02*
X101159761Y-112474819D01*
X101159761Y-112474819D02*
X101445475Y-112474819D01*
X101445475Y-112474819D02*
X101540713Y-112427200D01*
X101540713Y-112427200D02*
X101588332Y-112379580D01*
X80410952Y-111951009D02*
X80268095Y-111998628D01*
X80268095Y-111998628D02*
X80220476Y-112046247D01*
X80220476Y-112046247D02*
X80172857Y-112141485D01*
X80172857Y-112141485D02*
X80172857Y-112284342D01*
X80172857Y-112284342D02*
X80220476Y-112379580D01*
X80220476Y-112379580D02*
X80268095Y-112427200D01*
X80268095Y-112427200D02*
X80363333Y-112474819D01*
X80363333Y-112474819D02*
X80744285Y-112474819D01*
X80744285Y-112474819D02*
X80744285Y-111474819D01*
X80744285Y-111474819D02*
X80410952Y-111474819D01*
X80410952Y-111474819D02*
X80315714Y-111522438D01*
X80315714Y-111522438D02*
X80268095Y-111570057D01*
X80268095Y-111570057D02*
X80220476Y-111665295D01*
X80220476Y-111665295D02*
X80220476Y-111760533D01*
X80220476Y-111760533D02*
X80268095Y-111855771D01*
X80268095Y-111855771D02*
X80315714Y-111903390D01*
X80315714Y-111903390D02*
X80410952Y-111951009D01*
X80410952Y-111951009D02*
X80744285Y-111951009D01*
X79220476Y-112474819D02*
X79791904Y-112474819D01*
X79506190Y-112474819D02*
X79506190Y-111474819D01*
X79506190Y-111474819D02*
X79601428Y-111617676D01*
X79601428Y-111617676D02*
X79696666Y-111712914D01*
X79696666Y-111712914D02*
X79791904Y-111760533D01*
X78601428Y-111474819D02*
X78506190Y-111474819D01*
X78506190Y-111474819D02*
X78410952Y-111522438D01*
X78410952Y-111522438D02*
X78363333Y-111570057D01*
X78363333Y-111570057D02*
X78315714Y-111665295D01*
X78315714Y-111665295D02*
X78268095Y-111855771D01*
X78268095Y-111855771D02*
X78268095Y-112093866D01*
X78268095Y-112093866D02*
X78315714Y-112284342D01*
X78315714Y-112284342D02*
X78363333Y-112379580D01*
X78363333Y-112379580D02*
X78410952Y-112427200D01*
X78410952Y-112427200D02*
X78506190Y-112474819D01*
X78506190Y-112474819D02*
X78601428Y-112474819D01*
X78601428Y-112474819D02*
X78696666Y-112427200D01*
X78696666Y-112427200D02*
X78744285Y-112379580D01*
X78744285Y-112379580D02*
X78791904Y-112284342D01*
X78791904Y-112284342D02*
X78839523Y-112093866D01*
X78839523Y-112093866D02*
X78839523Y-111855771D01*
X78839523Y-111855771D02*
X78791904Y-111665295D01*
X78791904Y-111665295D02*
X78744285Y-111570057D01*
X78744285Y-111570057D02*
X78696666Y-111522438D01*
X78696666Y-111522438D02*
X78601428Y-111474819D01*
X86284761Y-111951009D02*
X86141904Y-111998628D01*
X86141904Y-111998628D02*
X86094285Y-112046247D01*
X86094285Y-112046247D02*
X86046666Y-112141485D01*
X86046666Y-112141485D02*
X86046666Y-112284342D01*
X86046666Y-112284342D02*
X86094285Y-112379580D01*
X86094285Y-112379580D02*
X86141904Y-112427200D01*
X86141904Y-112427200D02*
X86237142Y-112474819D01*
X86237142Y-112474819D02*
X86618094Y-112474819D01*
X86618094Y-112474819D02*
X86618094Y-111474819D01*
X86618094Y-111474819D02*
X86284761Y-111474819D01*
X86284761Y-111474819D02*
X86189523Y-111522438D01*
X86189523Y-111522438D02*
X86141904Y-111570057D01*
X86141904Y-111570057D02*
X86094285Y-111665295D01*
X86094285Y-111665295D02*
X86094285Y-111760533D01*
X86094285Y-111760533D02*
X86141904Y-111855771D01*
X86141904Y-111855771D02*
X86189523Y-111903390D01*
X86189523Y-111903390D02*
X86284761Y-111951009D01*
X86284761Y-111951009D02*
X86618094Y-111951009D01*
X85475237Y-111903390D02*
X85570475Y-111855771D01*
X85570475Y-111855771D02*
X85618094Y-111808152D01*
X85618094Y-111808152D02*
X85665713Y-111712914D01*
X85665713Y-111712914D02*
X85665713Y-111665295D01*
X85665713Y-111665295D02*
X85618094Y-111570057D01*
X85618094Y-111570057D02*
X85570475Y-111522438D01*
X85570475Y-111522438D02*
X85475237Y-111474819D01*
X85475237Y-111474819D02*
X85284761Y-111474819D01*
X85284761Y-111474819D02*
X85189523Y-111522438D01*
X85189523Y-111522438D02*
X85141904Y-111570057D01*
X85141904Y-111570057D02*
X85094285Y-111665295D01*
X85094285Y-111665295D02*
X85094285Y-111712914D01*
X85094285Y-111712914D02*
X85141904Y-111808152D01*
X85141904Y-111808152D02*
X85189523Y-111855771D01*
X85189523Y-111855771D02*
X85284761Y-111903390D01*
X85284761Y-111903390D02*
X85475237Y-111903390D01*
X85475237Y-111903390D02*
X85570475Y-111951009D01*
X85570475Y-111951009D02*
X85618094Y-111998628D01*
X85618094Y-111998628D02*
X85665713Y-112093866D01*
X85665713Y-112093866D02*
X85665713Y-112284342D01*
X85665713Y-112284342D02*
X85618094Y-112379580D01*
X85618094Y-112379580D02*
X85570475Y-112427200D01*
X85570475Y-112427200D02*
X85475237Y-112474819D01*
X85475237Y-112474819D02*
X85284761Y-112474819D01*
X85284761Y-112474819D02*
X85189523Y-112427200D01*
X85189523Y-112427200D02*
X85141904Y-112379580D01*
X85141904Y-112379580D02*
X85094285Y-112284342D01*
X85094285Y-112284342D02*
X85094285Y-112093866D01*
X85094285Y-112093866D02*
X85141904Y-111998628D01*
X85141904Y-111998628D02*
X85189523Y-111951009D01*
X85189523Y-111951009D02*
X85284761Y-111903390D01*
X74060952Y-111951009D02*
X73918095Y-111998628D01*
X73918095Y-111998628D02*
X73870476Y-112046247D01*
X73870476Y-112046247D02*
X73822857Y-112141485D01*
X73822857Y-112141485D02*
X73822857Y-112284342D01*
X73822857Y-112284342D02*
X73870476Y-112379580D01*
X73870476Y-112379580D02*
X73918095Y-112427200D01*
X73918095Y-112427200D02*
X74013333Y-112474819D01*
X74013333Y-112474819D02*
X74394285Y-112474819D01*
X74394285Y-112474819D02*
X74394285Y-111474819D01*
X74394285Y-111474819D02*
X74060952Y-111474819D01*
X74060952Y-111474819D02*
X73965714Y-111522438D01*
X73965714Y-111522438D02*
X73918095Y-111570057D01*
X73918095Y-111570057D02*
X73870476Y-111665295D01*
X73870476Y-111665295D02*
X73870476Y-111760533D01*
X73870476Y-111760533D02*
X73918095Y-111855771D01*
X73918095Y-111855771D02*
X73965714Y-111903390D01*
X73965714Y-111903390D02*
X74060952Y-111951009D01*
X74060952Y-111951009D02*
X74394285Y-111951009D01*
X72870476Y-112474819D02*
X73441904Y-112474819D01*
X73156190Y-112474819D02*
X73156190Y-111474819D01*
X73156190Y-111474819D02*
X73251428Y-111617676D01*
X73251428Y-111617676D02*
X73346666Y-111712914D01*
X73346666Y-111712914D02*
X73441904Y-111760533D01*
X72489523Y-111570057D02*
X72441904Y-111522438D01*
X72441904Y-111522438D02*
X72346666Y-111474819D01*
X72346666Y-111474819D02*
X72108571Y-111474819D01*
X72108571Y-111474819D02*
X72013333Y-111522438D01*
X72013333Y-111522438D02*
X71965714Y-111570057D01*
X71965714Y-111570057D02*
X71918095Y-111665295D01*
X71918095Y-111665295D02*
X71918095Y-111760533D01*
X71918095Y-111760533D02*
X71965714Y-111903390D01*
X71965714Y-111903390D02*
X72537142Y-112474819D01*
X72537142Y-112474819D02*
X71918095Y-112474819D01*
X102493094Y-106124819D02*
X102493094Y-105124819D01*
X102493094Y-105124819D02*
X102254999Y-105124819D01*
X102254999Y-105124819D02*
X102112142Y-105172438D01*
X102112142Y-105172438D02*
X102016904Y-105267676D01*
X102016904Y-105267676D02*
X101969285Y-105362914D01*
X101969285Y-105362914D02*
X101921666Y-105553390D01*
X101921666Y-105553390D02*
X101921666Y-105696247D01*
X101921666Y-105696247D02*
X101969285Y-105886723D01*
X101969285Y-105886723D02*
X102016904Y-105981961D01*
X102016904Y-105981961D02*
X102112142Y-106077200D01*
X102112142Y-106077200D02*
X102254999Y-106124819D01*
X102254999Y-106124819D02*
X102493094Y-106124819D01*
X101588332Y-105124819D02*
X100969285Y-105124819D01*
X100969285Y-105124819D02*
X101302618Y-105505771D01*
X101302618Y-105505771D02*
X101159761Y-105505771D01*
X101159761Y-105505771D02*
X101064523Y-105553390D01*
X101064523Y-105553390D02*
X101016904Y-105601009D01*
X101016904Y-105601009D02*
X100969285Y-105696247D01*
X100969285Y-105696247D02*
X100969285Y-105934342D01*
X100969285Y-105934342D02*
X101016904Y-106029580D01*
X101016904Y-106029580D02*
X101064523Y-106077200D01*
X101064523Y-106077200D02*
X101159761Y-106124819D01*
X101159761Y-106124819D02*
X101445475Y-106124819D01*
X101445475Y-106124819D02*
X101540713Y-106077200D01*
X101540713Y-106077200D02*
X101588332Y-106029580D01*
X98984761Y-111951009D02*
X98841904Y-111998628D01*
X98841904Y-111998628D02*
X98794285Y-112046247D01*
X98794285Y-112046247D02*
X98746666Y-112141485D01*
X98746666Y-112141485D02*
X98746666Y-112284342D01*
X98746666Y-112284342D02*
X98794285Y-112379580D01*
X98794285Y-112379580D02*
X98841904Y-112427200D01*
X98841904Y-112427200D02*
X98937142Y-112474819D01*
X98937142Y-112474819D02*
X99318094Y-112474819D01*
X99318094Y-112474819D02*
X99318094Y-111474819D01*
X99318094Y-111474819D02*
X98984761Y-111474819D01*
X98984761Y-111474819D02*
X98889523Y-111522438D01*
X98889523Y-111522438D02*
X98841904Y-111570057D01*
X98841904Y-111570057D02*
X98794285Y-111665295D01*
X98794285Y-111665295D02*
X98794285Y-111760533D01*
X98794285Y-111760533D02*
X98841904Y-111855771D01*
X98841904Y-111855771D02*
X98889523Y-111903390D01*
X98889523Y-111903390D02*
X98984761Y-111951009D01*
X98984761Y-111951009D02*
X99318094Y-111951009D01*
X97889523Y-111808152D02*
X97889523Y-112474819D01*
X98127618Y-111427200D02*
X98365713Y-112141485D01*
X98365713Y-112141485D02*
X97746666Y-112141485D01*
X89793094Y-106124819D02*
X89793094Y-105124819D01*
X89793094Y-105124819D02*
X89554999Y-105124819D01*
X89554999Y-105124819D02*
X89412142Y-105172438D01*
X89412142Y-105172438D02*
X89316904Y-105267676D01*
X89316904Y-105267676D02*
X89269285Y-105362914D01*
X89269285Y-105362914D02*
X89221666Y-105553390D01*
X89221666Y-105553390D02*
X89221666Y-105696247D01*
X89221666Y-105696247D02*
X89269285Y-105886723D01*
X89269285Y-105886723D02*
X89316904Y-105981961D01*
X89316904Y-105981961D02*
X89412142Y-106077200D01*
X89412142Y-106077200D02*
X89554999Y-106124819D01*
X89554999Y-106124819D02*
X89793094Y-106124819D01*
X88888332Y-105124819D02*
X88221666Y-105124819D01*
X88221666Y-105124819D02*
X88650237Y-106124819D01*
X71219285Y-106124819D02*
X71219285Y-105124819D01*
X71219285Y-105124819D02*
X70981190Y-105124819D01*
X70981190Y-105124819D02*
X70838333Y-105172438D01*
X70838333Y-105172438D02*
X70743095Y-105267676D01*
X70743095Y-105267676D02*
X70695476Y-105362914D01*
X70695476Y-105362914D02*
X70647857Y-105553390D01*
X70647857Y-105553390D02*
X70647857Y-105696247D01*
X70647857Y-105696247D02*
X70695476Y-105886723D01*
X70695476Y-105886723D02*
X70743095Y-105981961D01*
X70743095Y-105981961D02*
X70838333Y-106077200D01*
X70838333Y-106077200D02*
X70981190Y-106124819D01*
X70981190Y-106124819D02*
X71219285Y-106124819D01*
X69695476Y-106124819D02*
X70266904Y-106124819D01*
X69981190Y-106124819D02*
X69981190Y-105124819D01*
X69981190Y-105124819D02*
X70076428Y-105267676D01*
X70076428Y-105267676D02*
X70171666Y-105362914D01*
X70171666Y-105362914D02*
X70266904Y-105410533D01*
X69362142Y-105124819D02*
X68743095Y-105124819D01*
X68743095Y-105124819D02*
X69076428Y-105505771D01*
X69076428Y-105505771D02*
X68933571Y-105505771D01*
X68933571Y-105505771D02*
X68838333Y-105553390D01*
X68838333Y-105553390D02*
X68790714Y-105601009D01*
X68790714Y-105601009D02*
X68743095Y-105696247D01*
X68743095Y-105696247D02*
X68743095Y-105934342D01*
X68743095Y-105934342D02*
X68790714Y-106029580D01*
X68790714Y-106029580D02*
X68838333Y-106077200D01*
X68838333Y-106077200D02*
X68933571Y-106124819D01*
X68933571Y-106124819D02*
X69219285Y-106124819D01*
X69219285Y-106124819D02*
X69314523Y-106077200D01*
X69314523Y-106077200D02*
X69362142Y-106029580D01*
X74394285Y-106124819D02*
X74394285Y-105124819D01*
X74394285Y-105124819D02*
X74156190Y-105124819D01*
X74156190Y-105124819D02*
X74013333Y-105172438D01*
X74013333Y-105172438D02*
X73918095Y-105267676D01*
X73918095Y-105267676D02*
X73870476Y-105362914D01*
X73870476Y-105362914D02*
X73822857Y-105553390D01*
X73822857Y-105553390D02*
X73822857Y-105696247D01*
X73822857Y-105696247D02*
X73870476Y-105886723D01*
X73870476Y-105886723D02*
X73918095Y-105981961D01*
X73918095Y-105981961D02*
X74013333Y-106077200D01*
X74013333Y-106077200D02*
X74156190Y-106124819D01*
X74156190Y-106124819D02*
X74394285Y-106124819D01*
X72870476Y-106124819D02*
X73441904Y-106124819D01*
X73156190Y-106124819D02*
X73156190Y-105124819D01*
X73156190Y-105124819D02*
X73251428Y-105267676D01*
X73251428Y-105267676D02*
X73346666Y-105362914D01*
X73346666Y-105362914D02*
X73441904Y-105410533D01*
X72489523Y-105220057D02*
X72441904Y-105172438D01*
X72441904Y-105172438D02*
X72346666Y-105124819D01*
X72346666Y-105124819D02*
X72108571Y-105124819D01*
X72108571Y-105124819D02*
X72013333Y-105172438D01*
X72013333Y-105172438D02*
X71965714Y-105220057D01*
X71965714Y-105220057D02*
X71918095Y-105315295D01*
X71918095Y-105315295D02*
X71918095Y-105410533D01*
X71918095Y-105410533D02*
X71965714Y-105553390D01*
X71965714Y-105553390D02*
X72537142Y-106124819D01*
X72537142Y-106124819D02*
X71918095Y-106124819D01*
X105334761Y-111951009D02*
X105191904Y-111998628D01*
X105191904Y-111998628D02*
X105144285Y-112046247D01*
X105144285Y-112046247D02*
X105096666Y-112141485D01*
X105096666Y-112141485D02*
X105096666Y-112284342D01*
X105096666Y-112284342D02*
X105144285Y-112379580D01*
X105144285Y-112379580D02*
X105191904Y-112427200D01*
X105191904Y-112427200D02*
X105287142Y-112474819D01*
X105287142Y-112474819D02*
X105668094Y-112474819D01*
X105668094Y-112474819D02*
X105668094Y-111474819D01*
X105668094Y-111474819D02*
X105334761Y-111474819D01*
X105334761Y-111474819D02*
X105239523Y-111522438D01*
X105239523Y-111522438D02*
X105191904Y-111570057D01*
X105191904Y-111570057D02*
X105144285Y-111665295D01*
X105144285Y-111665295D02*
X105144285Y-111760533D01*
X105144285Y-111760533D02*
X105191904Y-111855771D01*
X105191904Y-111855771D02*
X105239523Y-111903390D01*
X105239523Y-111903390D02*
X105334761Y-111951009D01*
X105334761Y-111951009D02*
X105668094Y-111951009D01*
X104715713Y-111570057D02*
X104668094Y-111522438D01*
X104668094Y-111522438D02*
X104572856Y-111474819D01*
X104572856Y-111474819D02*
X104334761Y-111474819D01*
X104334761Y-111474819D02*
X104239523Y-111522438D01*
X104239523Y-111522438D02*
X104191904Y-111570057D01*
X104191904Y-111570057D02*
X104144285Y-111665295D01*
X104144285Y-111665295D02*
X104144285Y-111760533D01*
X104144285Y-111760533D02*
X104191904Y-111903390D01*
X104191904Y-111903390D02*
X104763332Y-112474819D01*
X104763332Y-112474819D02*
X104144285Y-112474819D01*
M02*
