%TF.GenerationSoftware,KiCad,Pcbnew,7.0.8*%
%TF.CreationDate,2025-04-10T16:12:11-04:00*%
%TF.ProjectId,2310interface,32333130-696e-4746-9572-666163652e6b,rev?*%
%TF.SameCoordinates,Original*%
%TF.FileFunction,Drillmap*%
%TF.FilePolarity,Positive*%
%FSLAX45Y45*%
G04 Gerber Fmt 4.5, Leading zero omitted, Abs format (unit mm)*
G04 Created by KiCad (PCBNEW 7.0.8) date 2025-04-10 16:12:11*
%MOMM*%
%LPD*%
G01*
G04 APERTURE LIST*
%ADD10C,0.100000*%
%ADD11C,0.200000*%
%ADD12C,0.090000*%
%ADD13C,0.400000*%
G04 APERTURE END LIST*
D10*
X2510000Y-2511000D02*
X20486000Y-2511000D01*
X20486000Y-12446000D01*
X2510000Y-12446000D01*
X2510000Y-2511000D01*
D11*
D12*
X12645000Y-8675000D02*
X12735000Y-8765000D01*
X12735000Y-8675000D02*
X12645000Y-8765000D01*
X12945000Y-8675000D02*
X13035000Y-8765000D01*
X13035000Y-8675000D02*
X12945000Y-8765000D01*
D13*
X3391000Y-3156000D02*
G75*
G03*
X3391000Y-3156000I-200000J0D01*
G01*
X3558000Y-11656000D02*
G75*
G03*
X3558000Y-11656000I-200000J0D01*
G01*
X19849000Y-11662000D02*
G75*
G03*
X19849000Y-11662000I-200000J0D01*
G01*
X19986000Y-3083000D02*
G75*
G03*
X19986000Y-3083000I-200000J0D01*
G01*
D11*
X2765777Y-12762484D02*
X2765777Y-12562484D01*
X2765777Y-12562484D02*
X2813396Y-12562484D01*
X2813396Y-12562484D02*
X2841967Y-12572008D01*
X2841967Y-12572008D02*
X2861015Y-12591055D01*
X2861015Y-12591055D02*
X2870539Y-12610103D01*
X2870539Y-12610103D02*
X2880062Y-12648198D01*
X2880062Y-12648198D02*
X2880062Y-12676769D01*
X2880062Y-12676769D02*
X2870539Y-12714865D01*
X2870539Y-12714865D02*
X2861015Y-12733912D01*
X2861015Y-12733912D02*
X2841967Y-12752960D01*
X2841967Y-12752960D02*
X2813396Y-12762484D01*
X2813396Y-12762484D02*
X2765777Y-12762484D01*
X2965777Y-12762484D02*
X2965777Y-12629150D01*
X2965777Y-12667246D02*
X2975301Y-12648198D01*
X2975301Y-12648198D02*
X2984824Y-12638674D01*
X2984824Y-12638674D02*
X3003872Y-12629150D01*
X3003872Y-12629150D02*
X3022920Y-12629150D01*
X3089586Y-12762484D02*
X3089586Y-12629150D01*
X3089586Y-12562484D02*
X3080062Y-12572008D01*
X3080062Y-12572008D02*
X3089586Y-12581531D01*
X3089586Y-12581531D02*
X3099110Y-12572008D01*
X3099110Y-12572008D02*
X3089586Y-12562484D01*
X3089586Y-12562484D02*
X3089586Y-12581531D01*
X3213396Y-12762484D02*
X3194348Y-12752960D01*
X3194348Y-12752960D02*
X3184824Y-12733912D01*
X3184824Y-12733912D02*
X3184824Y-12562484D01*
X3318158Y-12762484D02*
X3299110Y-12752960D01*
X3299110Y-12752960D02*
X3289586Y-12733912D01*
X3289586Y-12733912D02*
X3289586Y-12562484D01*
X3546729Y-12762484D02*
X3546729Y-12562484D01*
X3546729Y-12562484D02*
X3613396Y-12705341D01*
X3613396Y-12705341D02*
X3680062Y-12562484D01*
X3680062Y-12562484D02*
X3680062Y-12762484D01*
X3861015Y-12762484D02*
X3861015Y-12657722D01*
X3861015Y-12657722D02*
X3851491Y-12638674D01*
X3851491Y-12638674D02*
X3832443Y-12629150D01*
X3832443Y-12629150D02*
X3794348Y-12629150D01*
X3794348Y-12629150D02*
X3775301Y-12638674D01*
X3861015Y-12752960D02*
X3841967Y-12762484D01*
X3841967Y-12762484D02*
X3794348Y-12762484D01*
X3794348Y-12762484D02*
X3775301Y-12752960D01*
X3775301Y-12752960D02*
X3765777Y-12733912D01*
X3765777Y-12733912D02*
X3765777Y-12714865D01*
X3765777Y-12714865D02*
X3775301Y-12695817D01*
X3775301Y-12695817D02*
X3794348Y-12686293D01*
X3794348Y-12686293D02*
X3841967Y-12686293D01*
X3841967Y-12686293D02*
X3861015Y-12676769D01*
X3956253Y-12629150D02*
X3956253Y-12829150D01*
X3956253Y-12638674D02*
X3975301Y-12629150D01*
X3975301Y-12629150D02*
X4013396Y-12629150D01*
X4013396Y-12629150D02*
X4032443Y-12638674D01*
X4032443Y-12638674D02*
X4041967Y-12648198D01*
X4041967Y-12648198D02*
X4051491Y-12667246D01*
X4051491Y-12667246D02*
X4051491Y-12724388D01*
X4051491Y-12724388D02*
X4041967Y-12743436D01*
X4041967Y-12743436D02*
X4032443Y-12752960D01*
X4032443Y-12752960D02*
X4013396Y-12762484D01*
X4013396Y-12762484D02*
X3975301Y-12762484D01*
X3975301Y-12762484D02*
X3956253Y-12752960D01*
X4137205Y-12743436D02*
X4146729Y-12752960D01*
X4146729Y-12752960D02*
X4137205Y-12762484D01*
X4137205Y-12762484D02*
X4127682Y-12752960D01*
X4127682Y-12752960D02*
X4137205Y-12743436D01*
X4137205Y-12743436D02*
X4137205Y-12762484D01*
X4137205Y-12638674D02*
X4146729Y-12648198D01*
X4146729Y-12648198D02*
X4137205Y-12657722D01*
X4137205Y-12657722D02*
X4127682Y-12648198D01*
X4127682Y-12648198D02*
X4137205Y-12638674D01*
X4137205Y-12638674D02*
X4137205Y-12657722D01*
D12*
X2415000Y-13046000D02*
X2505000Y-13136000D01*
X2505000Y-13046000D02*
X2415000Y-13136000D01*
D11*
X2803872Y-12982484D02*
X2822920Y-12982484D01*
X2822920Y-12982484D02*
X2841967Y-12992008D01*
X2841967Y-12992008D02*
X2851491Y-13001531D01*
X2851491Y-13001531D02*
X2861015Y-13020579D01*
X2861015Y-13020579D02*
X2870539Y-13058674D01*
X2870539Y-13058674D02*
X2870539Y-13106293D01*
X2870539Y-13106293D02*
X2861015Y-13144388D01*
X2861015Y-13144388D02*
X2851491Y-13163436D01*
X2851491Y-13163436D02*
X2841967Y-13172960D01*
X2841967Y-13172960D02*
X2822920Y-13182484D01*
X2822920Y-13182484D02*
X2803872Y-13182484D01*
X2803872Y-13182484D02*
X2784824Y-13172960D01*
X2784824Y-13172960D02*
X2775301Y-13163436D01*
X2775301Y-13163436D02*
X2765777Y-13144388D01*
X2765777Y-13144388D02*
X2756253Y-13106293D01*
X2756253Y-13106293D02*
X2756253Y-13058674D01*
X2756253Y-13058674D02*
X2765777Y-13020579D01*
X2765777Y-13020579D02*
X2775301Y-13001531D01*
X2775301Y-13001531D02*
X2784824Y-12992008D01*
X2784824Y-12992008D02*
X2803872Y-12982484D01*
X2956253Y-13163436D02*
X2965777Y-13172960D01*
X2965777Y-13172960D02*
X2956253Y-13182484D01*
X2956253Y-13182484D02*
X2946729Y-13172960D01*
X2946729Y-13172960D02*
X2956253Y-13163436D01*
X2956253Y-13163436D02*
X2956253Y-13182484D01*
X3061015Y-13182484D02*
X3099110Y-13182484D01*
X3099110Y-13182484D02*
X3118158Y-13172960D01*
X3118158Y-13172960D02*
X3127682Y-13163436D01*
X3127682Y-13163436D02*
X3146729Y-13134865D01*
X3146729Y-13134865D02*
X3156253Y-13096769D01*
X3156253Y-13096769D02*
X3156253Y-13020579D01*
X3156253Y-13020579D02*
X3146729Y-13001531D01*
X3146729Y-13001531D02*
X3137205Y-12992008D01*
X3137205Y-12992008D02*
X3118158Y-12982484D01*
X3118158Y-12982484D02*
X3080062Y-12982484D01*
X3080062Y-12982484D02*
X3061015Y-12992008D01*
X3061015Y-12992008D02*
X3051491Y-13001531D01*
X3051491Y-13001531D02*
X3041967Y-13020579D01*
X3041967Y-13020579D02*
X3041967Y-13068198D01*
X3041967Y-13068198D02*
X3051491Y-13087246D01*
X3051491Y-13087246D02*
X3061015Y-13096769D01*
X3061015Y-13096769D02*
X3080062Y-13106293D01*
X3080062Y-13106293D02*
X3118158Y-13106293D01*
X3118158Y-13106293D02*
X3137205Y-13096769D01*
X3137205Y-13096769D02*
X3146729Y-13087246D01*
X3146729Y-13087246D02*
X3156253Y-13068198D01*
X3280062Y-12982484D02*
X3299110Y-12982484D01*
X3299110Y-12982484D02*
X3318158Y-12992008D01*
X3318158Y-12992008D02*
X3327682Y-13001531D01*
X3327682Y-13001531D02*
X3337205Y-13020579D01*
X3337205Y-13020579D02*
X3346729Y-13058674D01*
X3346729Y-13058674D02*
X3346729Y-13106293D01*
X3346729Y-13106293D02*
X3337205Y-13144388D01*
X3337205Y-13144388D02*
X3327682Y-13163436D01*
X3327682Y-13163436D02*
X3318158Y-13172960D01*
X3318158Y-13172960D02*
X3299110Y-13182484D01*
X3299110Y-13182484D02*
X3280062Y-13182484D01*
X3280062Y-13182484D02*
X3261015Y-13172960D01*
X3261015Y-13172960D02*
X3251491Y-13163436D01*
X3251491Y-13163436D02*
X3241967Y-13144388D01*
X3241967Y-13144388D02*
X3232443Y-13106293D01*
X3232443Y-13106293D02*
X3232443Y-13058674D01*
X3232443Y-13058674D02*
X3241967Y-13020579D01*
X3241967Y-13020579D02*
X3251491Y-13001531D01*
X3251491Y-13001531D02*
X3261015Y-12992008D01*
X3261015Y-12992008D02*
X3280062Y-12982484D01*
X3470539Y-12982484D02*
X3489586Y-12982484D01*
X3489586Y-12982484D02*
X3508634Y-12992008D01*
X3508634Y-12992008D02*
X3518158Y-13001531D01*
X3518158Y-13001531D02*
X3527682Y-13020579D01*
X3527682Y-13020579D02*
X3537205Y-13058674D01*
X3537205Y-13058674D02*
X3537205Y-13106293D01*
X3537205Y-13106293D02*
X3527682Y-13144388D01*
X3527682Y-13144388D02*
X3518158Y-13163436D01*
X3518158Y-13163436D02*
X3508634Y-13172960D01*
X3508634Y-13172960D02*
X3489586Y-13182484D01*
X3489586Y-13182484D02*
X3470539Y-13182484D01*
X3470539Y-13182484D02*
X3451491Y-13172960D01*
X3451491Y-13172960D02*
X3441967Y-13163436D01*
X3441967Y-13163436D02*
X3432443Y-13144388D01*
X3432443Y-13144388D02*
X3422920Y-13106293D01*
X3422920Y-13106293D02*
X3422920Y-13058674D01*
X3422920Y-13058674D02*
X3432443Y-13020579D01*
X3432443Y-13020579D02*
X3441967Y-13001531D01*
X3441967Y-13001531D02*
X3451491Y-12992008D01*
X3451491Y-12992008D02*
X3470539Y-12982484D01*
X3622920Y-13182484D02*
X3622920Y-13049150D01*
X3622920Y-13068198D02*
X3632443Y-13058674D01*
X3632443Y-13058674D02*
X3651491Y-13049150D01*
X3651491Y-13049150D02*
X3680063Y-13049150D01*
X3680063Y-13049150D02*
X3699110Y-13058674D01*
X3699110Y-13058674D02*
X3708634Y-13077722D01*
X3708634Y-13077722D02*
X3708634Y-13182484D01*
X3708634Y-13077722D02*
X3718158Y-13058674D01*
X3718158Y-13058674D02*
X3737205Y-13049150D01*
X3737205Y-13049150D02*
X3765777Y-13049150D01*
X3765777Y-13049150D02*
X3784824Y-13058674D01*
X3784824Y-13058674D02*
X3794348Y-13077722D01*
X3794348Y-13077722D02*
X3794348Y-13182484D01*
X3889586Y-13182484D02*
X3889586Y-13049150D01*
X3889586Y-13068198D02*
X3899110Y-13058674D01*
X3899110Y-13058674D02*
X3918158Y-13049150D01*
X3918158Y-13049150D02*
X3946729Y-13049150D01*
X3946729Y-13049150D02*
X3965777Y-13058674D01*
X3965777Y-13058674D02*
X3975301Y-13077722D01*
X3975301Y-13077722D02*
X3975301Y-13182484D01*
X3975301Y-13077722D02*
X3984824Y-13058674D01*
X3984824Y-13058674D02*
X4003872Y-13049150D01*
X4003872Y-13049150D02*
X4032443Y-13049150D01*
X4032443Y-13049150D02*
X4051491Y-13058674D01*
X4051491Y-13058674D02*
X4061015Y-13077722D01*
X4061015Y-13077722D02*
X4061015Y-13182484D01*
X4451491Y-12972960D02*
X4280063Y-13230103D01*
X4708634Y-12982484D02*
X4727682Y-12982484D01*
X4727682Y-12982484D02*
X4746729Y-12992008D01*
X4746729Y-12992008D02*
X4756253Y-13001531D01*
X4756253Y-13001531D02*
X4765777Y-13020579D01*
X4765777Y-13020579D02*
X4775301Y-13058674D01*
X4775301Y-13058674D02*
X4775301Y-13106293D01*
X4775301Y-13106293D02*
X4765777Y-13144388D01*
X4765777Y-13144388D02*
X4756253Y-13163436D01*
X4756253Y-13163436D02*
X4746729Y-13172960D01*
X4746729Y-13172960D02*
X4727682Y-13182484D01*
X4727682Y-13182484D02*
X4708634Y-13182484D01*
X4708634Y-13182484D02*
X4689587Y-13172960D01*
X4689587Y-13172960D02*
X4680063Y-13163436D01*
X4680063Y-13163436D02*
X4670539Y-13144388D01*
X4670539Y-13144388D02*
X4661015Y-13106293D01*
X4661015Y-13106293D02*
X4661015Y-13058674D01*
X4661015Y-13058674D02*
X4670539Y-13020579D01*
X4670539Y-13020579D02*
X4680063Y-13001531D01*
X4680063Y-13001531D02*
X4689587Y-12992008D01*
X4689587Y-12992008D02*
X4708634Y-12982484D01*
X4861015Y-13163436D02*
X4870539Y-13172960D01*
X4870539Y-13172960D02*
X4861015Y-13182484D01*
X4861015Y-13182484D02*
X4851491Y-13172960D01*
X4851491Y-13172960D02*
X4861015Y-13163436D01*
X4861015Y-13163436D02*
X4861015Y-13182484D01*
X4994348Y-12982484D02*
X5013396Y-12982484D01*
X5013396Y-12982484D02*
X5032444Y-12992008D01*
X5032444Y-12992008D02*
X5041968Y-13001531D01*
X5041968Y-13001531D02*
X5051491Y-13020579D01*
X5051491Y-13020579D02*
X5061015Y-13058674D01*
X5061015Y-13058674D02*
X5061015Y-13106293D01*
X5061015Y-13106293D02*
X5051491Y-13144388D01*
X5051491Y-13144388D02*
X5041968Y-13163436D01*
X5041968Y-13163436D02*
X5032444Y-13172960D01*
X5032444Y-13172960D02*
X5013396Y-13182484D01*
X5013396Y-13182484D02*
X4994348Y-13182484D01*
X4994348Y-13182484D02*
X4975301Y-13172960D01*
X4975301Y-13172960D02*
X4965777Y-13163436D01*
X4965777Y-13163436D02*
X4956253Y-13144388D01*
X4956253Y-13144388D02*
X4946729Y-13106293D01*
X4946729Y-13106293D02*
X4946729Y-13058674D01*
X4946729Y-13058674D02*
X4956253Y-13020579D01*
X4956253Y-13020579D02*
X4965777Y-13001531D01*
X4965777Y-13001531D02*
X4975301Y-12992008D01*
X4975301Y-12992008D02*
X4994348Y-12982484D01*
X5127682Y-12982484D02*
X5251491Y-12982484D01*
X5251491Y-12982484D02*
X5184825Y-13058674D01*
X5184825Y-13058674D02*
X5213396Y-13058674D01*
X5213396Y-13058674D02*
X5232444Y-13068198D01*
X5232444Y-13068198D02*
X5241968Y-13077722D01*
X5241968Y-13077722D02*
X5251491Y-13096769D01*
X5251491Y-13096769D02*
X5251491Y-13144388D01*
X5251491Y-13144388D02*
X5241968Y-13163436D01*
X5241968Y-13163436D02*
X5232444Y-13172960D01*
X5232444Y-13172960D02*
X5213396Y-13182484D01*
X5213396Y-13182484D02*
X5156253Y-13182484D01*
X5156253Y-13182484D02*
X5137206Y-13172960D01*
X5137206Y-13172960D02*
X5127682Y-13163436D01*
X5432444Y-12982484D02*
X5337206Y-12982484D01*
X5337206Y-12982484D02*
X5327682Y-13077722D01*
X5327682Y-13077722D02*
X5337206Y-13068198D01*
X5337206Y-13068198D02*
X5356253Y-13058674D01*
X5356253Y-13058674D02*
X5403872Y-13058674D01*
X5403872Y-13058674D02*
X5422920Y-13068198D01*
X5422920Y-13068198D02*
X5432444Y-13077722D01*
X5432444Y-13077722D02*
X5441968Y-13096769D01*
X5441968Y-13096769D02*
X5441968Y-13144388D01*
X5441968Y-13144388D02*
X5432444Y-13163436D01*
X5432444Y-13163436D02*
X5422920Y-13172960D01*
X5422920Y-13172960D02*
X5403872Y-13182484D01*
X5403872Y-13182484D02*
X5356253Y-13182484D01*
X5356253Y-13182484D02*
X5337206Y-13172960D01*
X5337206Y-13172960D02*
X5327682Y-13163436D01*
X5613396Y-13049150D02*
X5613396Y-13182484D01*
X5565777Y-12972960D02*
X5518158Y-13115817D01*
X5518158Y-13115817D02*
X5641967Y-13115817D01*
X5708634Y-12982484D02*
X5708634Y-13020579D01*
X5784825Y-12982484D02*
X5784825Y-13020579D01*
X6080063Y-13258674D02*
X6070539Y-13249150D01*
X6070539Y-13249150D02*
X6051491Y-13220579D01*
X6051491Y-13220579D02*
X6041968Y-13201531D01*
X6041968Y-13201531D02*
X6032444Y-13172960D01*
X6032444Y-13172960D02*
X6022920Y-13125341D01*
X6022920Y-13125341D02*
X6022920Y-13087246D01*
X6022920Y-13087246D02*
X6032444Y-13039627D01*
X6032444Y-13039627D02*
X6041968Y-13011055D01*
X6041968Y-13011055D02*
X6051491Y-12992008D01*
X6051491Y-12992008D02*
X6070539Y-12963436D01*
X6070539Y-12963436D02*
X6080063Y-12953912D01*
X6146729Y-13001531D02*
X6156253Y-12992008D01*
X6156253Y-12992008D02*
X6175301Y-12982484D01*
X6175301Y-12982484D02*
X6222920Y-12982484D01*
X6222920Y-12982484D02*
X6241968Y-12992008D01*
X6241968Y-12992008D02*
X6251491Y-13001531D01*
X6251491Y-13001531D02*
X6261015Y-13020579D01*
X6261015Y-13020579D02*
X6261015Y-13039627D01*
X6261015Y-13039627D02*
X6251491Y-13068198D01*
X6251491Y-13068198D02*
X6137206Y-13182484D01*
X6137206Y-13182484D02*
X6261015Y-13182484D01*
X6499110Y-13182484D02*
X6499110Y-12982484D01*
X6584825Y-13182484D02*
X6584825Y-13077722D01*
X6584825Y-13077722D02*
X6575301Y-13058674D01*
X6575301Y-13058674D02*
X6556253Y-13049150D01*
X6556253Y-13049150D02*
X6527682Y-13049150D01*
X6527682Y-13049150D02*
X6508634Y-13058674D01*
X6508634Y-13058674D02*
X6499110Y-13068198D01*
X6708634Y-13182484D02*
X6689587Y-13172960D01*
X6689587Y-13172960D02*
X6680063Y-13163436D01*
X6680063Y-13163436D02*
X6670539Y-13144388D01*
X6670539Y-13144388D02*
X6670539Y-13087246D01*
X6670539Y-13087246D02*
X6680063Y-13068198D01*
X6680063Y-13068198D02*
X6689587Y-13058674D01*
X6689587Y-13058674D02*
X6708634Y-13049150D01*
X6708634Y-13049150D02*
X6737206Y-13049150D01*
X6737206Y-13049150D02*
X6756253Y-13058674D01*
X6756253Y-13058674D02*
X6765777Y-13068198D01*
X6765777Y-13068198D02*
X6775301Y-13087246D01*
X6775301Y-13087246D02*
X6775301Y-13144388D01*
X6775301Y-13144388D02*
X6765777Y-13163436D01*
X6765777Y-13163436D02*
X6756253Y-13172960D01*
X6756253Y-13172960D02*
X6737206Y-13182484D01*
X6737206Y-13182484D02*
X6708634Y-13182484D01*
X6889587Y-13182484D02*
X6870539Y-13172960D01*
X6870539Y-13172960D02*
X6861015Y-13153912D01*
X6861015Y-13153912D02*
X6861015Y-12982484D01*
X7041968Y-13172960D02*
X7022920Y-13182484D01*
X7022920Y-13182484D02*
X6984825Y-13182484D01*
X6984825Y-13182484D02*
X6965777Y-13172960D01*
X6965777Y-13172960D02*
X6956253Y-13153912D01*
X6956253Y-13153912D02*
X6956253Y-13077722D01*
X6956253Y-13077722D02*
X6965777Y-13058674D01*
X6965777Y-13058674D02*
X6984825Y-13049150D01*
X6984825Y-13049150D02*
X7022920Y-13049150D01*
X7022920Y-13049150D02*
X7041968Y-13058674D01*
X7041968Y-13058674D02*
X7051491Y-13077722D01*
X7051491Y-13077722D02*
X7051491Y-13096769D01*
X7051491Y-13096769D02*
X6956253Y-13115817D01*
X7127682Y-13172960D02*
X7146730Y-13182484D01*
X7146730Y-13182484D02*
X7184825Y-13182484D01*
X7184825Y-13182484D02*
X7203872Y-13172960D01*
X7203872Y-13172960D02*
X7213396Y-13153912D01*
X7213396Y-13153912D02*
X7213396Y-13144388D01*
X7213396Y-13144388D02*
X7203872Y-13125341D01*
X7203872Y-13125341D02*
X7184825Y-13115817D01*
X7184825Y-13115817D02*
X7156253Y-13115817D01*
X7156253Y-13115817D02*
X7137206Y-13106293D01*
X7137206Y-13106293D02*
X7127682Y-13087246D01*
X7127682Y-13087246D02*
X7127682Y-13077722D01*
X7127682Y-13077722D02*
X7137206Y-13058674D01*
X7137206Y-13058674D02*
X7156253Y-13049150D01*
X7156253Y-13049150D02*
X7184825Y-13049150D01*
X7184825Y-13049150D02*
X7203872Y-13058674D01*
X7280063Y-13258674D02*
X7289587Y-13249150D01*
X7289587Y-13249150D02*
X7308634Y-13220579D01*
X7308634Y-13220579D02*
X7318158Y-13201531D01*
X7318158Y-13201531D02*
X7327682Y-13172960D01*
X7327682Y-13172960D02*
X7337206Y-13125341D01*
X7337206Y-13125341D02*
X7337206Y-13087246D01*
X7337206Y-13087246D02*
X7327682Y-13039627D01*
X7327682Y-13039627D02*
X7318158Y-13011055D01*
X7318158Y-13011055D02*
X7308634Y-12992008D01*
X7308634Y-12992008D02*
X7289587Y-12963436D01*
X7289587Y-12963436D02*
X7280063Y-12953912D01*
X7641968Y-13258674D02*
X7632444Y-13249150D01*
X7632444Y-13249150D02*
X7613396Y-13220579D01*
X7613396Y-13220579D02*
X7603872Y-13201531D01*
X7603872Y-13201531D02*
X7594349Y-13172960D01*
X7594349Y-13172960D02*
X7584825Y-13125341D01*
X7584825Y-13125341D02*
X7584825Y-13087246D01*
X7584825Y-13087246D02*
X7594349Y-13039627D01*
X7594349Y-13039627D02*
X7603872Y-13011055D01*
X7603872Y-13011055D02*
X7613396Y-12992008D01*
X7613396Y-12992008D02*
X7632444Y-12963436D01*
X7632444Y-12963436D02*
X7641968Y-12953912D01*
X7718158Y-13049150D02*
X7718158Y-13182484D01*
X7718158Y-13068198D02*
X7727682Y-13058674D01*
X7727682Y-13058674D02*
X7746730Y-13049150D01*
X7746730Y-13049150D02*
X7775301Y-13049150D01*
X7775301Y-13049150D02*
X7794349Y-13058674D01*
X7794349Y-13058674D02*
X7803872Y-13077722D01*
X7803872Y-13077722D02*
X7803872Y-13182484D01*
X7927682Y-13182484D02*
X7908634Y-13172960D01*
X7908634Y-13172960D02*
X7899111Y-13163436D01*
X7899111Y-13163436D02*
X7889587Y-13144388D01*
X7889587Y-13144388D02*
X7889587Y-13087246D01*
X7889587Y-13087246D02*
X7899111Y-13068198D01*
X7899111Y-13068198D02*
X7908634Y-13058674D01*
X7908634Y-13058674D02*
X7927682Y-13049150D01*
X7927682Y-13049150D02*
X7956253Y-13049150D01*
X7956253Y-13049150D02*
X7975301Y-13058674D01*
X7975301Y-13058674D02*
X7984825Y-13068198D01*
X7984825Y-13068198D02*
X7994349Y-13087246D01*
X7994349Y-13087246D02*
X7994349Y-13144388D01*
X7994349Y-13144388D02*
X7984825Y-13163436D01*
X7984825Y-13163436D02*
X7975301Y-13172960D01*
X7975301Y-13172960D02*
X7956253Y-13182484D01*
X7956253Y-13182484D02*
X7927682Y-13182484D01*
X8051492Y-13049150D02*
X8127682Y-13049150D01*
X8080063Y-12982484D02*
X8080063Y-13153912D01*
X8080063Y-13153912D02*
X8089587Y-13172960D01*
X8089587Y-13172960D02*
X8108634Y-13182484D01*
X8108634Y-13182484D02*
X8127682Y-13182484D01*
X8346730Y-13049150D02*
X8346730Y-13249150D01*
X8346730Y-13058674D02*
X8365777Y-13049150D01*
X8365777Y-13049150D02*
X8403873Y-13049150D01*
X8403873Y-13049150D02*
X8422920Y-13058674D01*
X8422920Y-13058674D02*
X8432444Y-13068198D01*
X8432444Y-13068198D02*
X8441968Y-13087246D01*
X8441968Y-13087246D02*
X8441968Y-13144388D01*
X8441968Y-13144388D02*
X8432444Y-13163436D01*
X8432444Y-13163436D02*
X8422920Y-13172960D01*
X8422920Y-13172960D02*
X8403873Y-13182484D01*
X8403873Y-13182484D02*
X8365777Y-13182484D01*
X8365777Y-13182484D02*
X8346730Y-13172960D01*
X8556254Y-13182484D02*
X8537206Y-13172960D01*
X8537206Y-13172960D02*
X8527682Y-13153912D01*
X8527682Y-13153912D02*
X8527682Y-12982484D01*
X8718158Y-13182484D02*
X8718158Y-13077722D01*
X8718158Y-13077722D02*
X8708635Y-13058674D01*
X8708635Y-13058674D02*
X8689587Y-13049150D01*
X8689587Y-13049150D02*
X8651492Y-13049150D01*
X8651492Y-13049150D02*
X8632444Y-13058674D01*
X8718158Y-13172960D02*
X8699111Y-13182484D01*
X8699111Y-13182484D02*
X8651492Y-13182484D01*
X8651492Y-13182484D02*
X8632444Y-13172960D01*
X8632444Y-13172960D02*
X8622920Y-13153912D01*
X8622920Y-13153912D02*
X8622920Y-13134865D01*
X8622920Y-13134865D02*
X8632444Y-13115817D01*
X8632444Y-13115817D02*
X8651492Y-13106293D01*
X8651492Y-13106293D02*
X8699111Y-13106293D01*
X8699111Y-13106293D02*
X8718158Y-13096769D01*
X8784825Y-13049150D02*
X8861015Y-13049150D01*
X8813396Y-12982484D02*
X8813396Y-13153912D01*
X8813396Y-13153912D02*
X8822920Y-13172960D01*
X8822920Y-13172960D02*
X8841968Y-13182484D01*
X8841968Y-13182484D02*
X8861015Y-13182484D01*
X9003873Y-13172960D02*
X8984825Y-13182484D01*
X8984825Y-13182484D02*
X8946730Y-13182484D01*
X8946730Y-13182484D02*
X8927682Y-13172960D01*
X8927682Y-13172960D02*
X8918158Y-13153912D01*
X8918158Y-13153912D02*
X8918158Y-13077722D01*
X8918158Y-13077722D02*
X8927682Y-13058674D01*
X8927682Y-13058674D02*
X8946730Y-13049150D01*
X8946730Y-13049150D02*
X8984825Y-13049150D01*
X8984825Y-13049150D02*
X9003873Y-13058674D01*
X9003873Y-13058674D02*
X9013396Y-13077722D01*
X9013396Y-13077722D02*
X9013396Y-13096769D01*
X9013396Y-13096769D02*
X8918158Y-13115817D01*
X9184825Y-13182484D02*
X9184825Y-12982484D01*
X9184825Y-13172960D02*
X9165777Y-13182484D01*
X9165777Y-13182484D02*
X9127682Y-13182484D01*
X9127682Y-13182484D02*
X9108635Y-13172960D01*
X9108635Y-13172960D02*
X9099111Y-13163436D01*
X9099111Y-13163436D02*
X9089587Y-13144388D01*
X9089587Y-13144388D02*
X9089587Y-13087246D01*
X9089587Y-13087246D02*
X9099111Y-13068198D01*
X9099111Y-13068198D02*
X9108635Y-13058674D01*
X9108635Y-13058674D02*
X9127682Y-13049150D01*
X9127682Y-13049150D02*
X9165777Y-13049150D01*
X9165777Y-13049150D02*
X9184825Y-13058674D01*
X9261016Y-13258674D02*
X9270539Y-13249150D01*
X9270539Y-13249150D02*
X9289587Y-13220579D01*
X9289587Y-13220579D02*
X9299111Y-13201531D01*
X9299111Y-13201531D02*
X9308635Y-13172960D01*
X9308635Y-13172960D02*
X9318158Y-13125341D01*
X9318158Y-13125341D02*
X9318158Y-13087246D01*
X9318158Y-13087246D02*
X9308635Y-13039627D01*
X9308635Y-13039627D02*
X9299111Y-13011055D01*
X9299111Y-13011055D02*
X9289587Y-12992008D01*
X9289587Y-12992008D02*
X9270539Y-12963436D01*
X9270539Y-12963436D02*
X9261016Y-12953912D01*
X2505000Y-13355000D02*
G75*
G03*
X2505000Y-13355000I-100000J0D01*
G01*
X2851491Y-13313150D02*
X2851491Y-13446484D01*
X2803872Y-13236960D02*
X2756253Y-13379817D01*
X2756253Y-13379817D02*
X2880062Y-13379817D01*
X2956253Y-13427436D02*
X2965777Y-13436960D01*
X2965777Y-13436960D02*
X2956253Y-13446484D01*
X2956253Y-13446484D02*
X2946729Y-13436960D01*
X2946729Y-13436960D02*
X2956253Y-13427436D01*
X2956253Y-13427436D02*
X2956253Y-13446484D01*
X3089586Y-13246484D02*
X3108634Y-13246484D01*
X3108634Y-13246484D02*
X3127682Y-13256008D01*
X3127682Y-13256008D02*
X3137205Y-13265531D01*
X3137205Y-13265531D02*
X3146729Y-13284579D01*
X3146729Y-13284579D02*
X3156253Y-13322674D01*
X3156253Y-13322674D02*
X3156253Y-13370293D01*
X3156253Y-13370293D02*
X3146729Y-13408388D01*
X3146729Y-13408388D02*
X3137205Y-13427436D01*
X3137205Y-13427436D02*
X3127682Y-13436960D01*
X3127682Y-13436960D02*
X3108634Y-13446484D01*
X3108634Y-13446484D02*
X3089586Y-13446484D01*
X3089586Y-13446484D02*
X3070539Y-13436960D01*
X3070539Y-13436960D02*
X3061015Y-13427436D01*
X3061015Y-13427436D02*
X3051491Y-13408388D01*
X3051491Y-13408388D02*
X3041967Y-13370293D01*
X3041967Y-13370293D02*
X3041967Y-13322674D01*
X3041967Y-13322674D02*
X3051491Y-13284579D01*
X3051491Y-13284579D02*
X3061015Y-13265531D01*
X3061015Y-13265531D02*
X3070539Y-13256008D01*
X3070539Y-13256008D02*
X3089586Y-13246484D01*
X3280062Y-13246484D02*
X3299110Y-13246484D01*
X3299110Y-13246484D02*
X3318158Y-13256008D01*
X3318158Y-13256008D02*
X3327682Y-13265531D01*
X3327682Y-13265531D02*
X3337205Y-13284579D01*
X3337205Y-13284579D02*
X3346729Y-13322674D01*
X3346729Y-13322674D02*
X3346729Y-13370293D01*
X3346729Y-13370293D02*
X3337205Y-13408388D01*
X3337205Y-13408388D02*
X3327682Y-13427436D01*
X3327682Y-13427436D02*
X3318158Y-13436960D01*
X3318158Y-13436960D02*
X3299110Y-13446484D01*
X3299110Y-13446484D02*
X3280062Y-13446484D01*
X3280062Y-13446484D02*
X3261015Y-13436960D01*
X3261015Y-13436960D02*
X3251491Y-13427436D01*
X3251491Y-13427436D02*
X3241967Y-13408388D01*
X3241967Y-13408388D02*
X3232443Y-13370293D01*
X3232443Y-13370293D02*
X3232443Y-13322674D01*
X3232443Y-13322674D02*
X3241967Y-13284579D01*
X3241967Y-13284579D02*
X3251491Y-13265531D01*
X3251491Y-13265531D02*
X3261015Y-13256008D01*
X3261015Y-13256008D02*
X3280062Y-13246484D01*
X3470539Y-13246484D02*
X3489586Y-13246484D01*
X3489586Y-13246484D02*
X3508634Y-13256008D01*
X3508634Y-13256008D02*
X3518158Y-13265531D01*
X3518158Y-13265531D02*
X3527682Y-13284579D01*
X3527682Y-13284579D02*
X3537205Y-13322674D01*
X3537205Y-13322674D02*
X3537205Y-13370293D01*
X3537205Y-13370293D02*
X3527682Y-13408388D01*
X3527682Y-13408388D02*
X3518158Y-13427436D01*
X3518158Y-13427436D02*
X3508634Y-13436960D01*
X3508634Y-13436960D02*
X3489586Y-13446484D01*
X3489586Y-13446484D02*
X3470539Y-13446484D01*
X3470539Y-13446484D02*
X3451491Y-13436960D01*
X3451491Y-13436960D02*
X3441967Y-13427436D01*
X3441967Y-13427436D02*
X3432443Y-13408388D01*
X3432443Y-13408388D02*
X3422920Y-13370293D01*
X3422920Y-13370293D02*
X3422920Y-13322674D01*
X3422920Y-13322674D02*
X3432443Y-13284579D01*
X3432443Y-13284579D02*
X3441967Y-13265531D01*
X3441967Y-13265531D02*
X3451491Y-13256008D01*
X3451491Y-13256008D02*
X3470539Y-13246484D01*
X3622920Y-13446484D02*
X3622920Y-13313150D01*
X3622920Y-13332198D02*
X3632443Y-13322674D01*
X3632443Y-13322674D02*
X3651491Y-13313150D01*
X3651491Y-13313150D02*
X3680063Y-13313150D01*
X3680063Y-13313150D02*
X3699110Y-13322674D01*
X3699110Y-13322674D02*
X3708634Y-13341722D01*
X3708634Y-13341722D02*
X3708634Y-13446484D01*
X3708634Y-13341722D02*
X3718158Y-13322674D01*
X3718158Y-13322674D02*
X3737205Y-13313150D01*
X3737205Y-13313150D02*
X3765777Y-13313150D01*
X3765777Y-13313150D02*
X3784824Y-13322674D01*
X3784824Y-13322674D02*
X3794348Y-13341722D01*
X3794348Y-13341722D02*
X3794348Y-13446484D01*
X3889586Y-13446484D02*
X3889586Y-13313150D01*
X3889586Y-13332198D02*
X3899110Y-13322674D01*
X3899110Y-13322674D02*
X3918158Y-13313150D01*
X3918158Y-13313150D02*
X3946729Y-13313150D01*
X3946729Y-13313150D02*
X3965777Y-13322674D01*
X3965777Y-13322674D02*
X3975301Y-13341722D01*
X3975301Y-13341722D02*
X3975301Y-13446484D01*
X3975301Y-13341722D02*
X3984824Y-13322674D01*
X3984824Y-13322674D02*
X4003872Y-13313150D01*
X4003872Y-13313150D02*
X4032443Y-13313150D01*
X4032443Y-13313150D02*
X4051491Y-13322674D01*
X4051491Y-13322674D02*
X4061015Y-13341722D01*
X4061015Y-13341722D02*
X4061015Y-13446484D01*
X4451491Y-13236960D02*
X4280063Y-13494103D01*
X4708634Y-13246484D02*
X4727682Y-13246484D01*
X4727682Y-13246484D02*
X4746729Y-13256008D01*
X4746729Y-13256008D02*
X4756253Y-13265531D01*
X4756253Y-13265531D02*
X4765777Y-13284579D01*
X4765777Y-13284579D02*
X4775301Y-13322674D01*
X4775301Y-13322674D02*
X4775301Y-13370293D01*
X4775301Y-13370293D02*
X4765777Y-13408388D01*
X4765777Y-13408388D02*
X4756253Y-13427436D01*
X4756253Y-13427436D02*
X4746729Y-13436960D01*
X4746729Y-13436960D02*
X4727682Y-13446484D01*
X4727682Y-13446484D02*
X4708634Y-13446484D01*
X4708634Y-13446484D02*
X4689587Y-13436960D01*
X4689587Y-13436960D02*
X4680063Y-13427436D01*
X4680063Y-13427436D02*
X4670539Y-13408388D01*
X4670539Y-13408388D02*
X4661015Y-13370293D01*
X4661015Y-13370293D02*
X4661015Y-13322674D01*
X4661015Y-13322674D02*
X4670539Y-13284579D01*
X4670539Y-13284579D02*
X4680063Y-13265531D01*
X4680063Y-13265531D02*
X4689587Y-13256008D01*
X4689587Y-13256008D02*
X4708634Y-13246484D01*
X4861015Y-13427436D02*
X4870539Y-13436960D01*
X4870539Y-13436960D02*
X4861015Y-13446484D01*
X4861015Y-13446484D02*
X4851491Y-13436960D01*
X4851491Y-13436960D02*
X4861015Y-13427436D01*
X4861015Y-13427436D02*
X4861015Y-13446484D01*
X5061015Y-13446484D02*
X4946729Y-13446484D01*
X5003872Y-13446484D02*
X5003872Y-13246484D01*
X5003872Y-13246484D02*
X4984825Y-13275055D01*
X4984825Y-13275055D02*
X4965777Y-13294103D01*
X4965777Y-13294103D02*
X4946729Y-13303627D01*
X5241968Y-13246484D02*
X5146729Y-13246484D01*
X5146729Y-13246484D02*
X5137206Y-13341722D01*
X5137206Y-13341722D02*
X5146729Y-13332198D01*
X5146729Y-13332198D02*
X5165777Y-13322674D01*
X5165777Y-13322674D02*
X5213396Y-13322674D01*
X5213396Y-13322674D02*
X5232444Y-13332198D01*
X5232444Y-13332198D02*
X5241968Y-13341722D01*
X5241968Y-13341722D02*
X5251491Y-13360769D01*
X5251491Y-13360769D02*
X5251491Y-13408388D01*
X5251491Y-13408388D02*
X5241968Y-13427436D01*
X5241968Y-13427436D02*
X5232444Y-13436960D01*
X5232444Y-13436960D02*
X5213396Y-13446484D01*
X5213396Y-13446484D02*
X5165777Y-13446484D01*
X5165777Y-13446484D02*
X5146729Y-13436960D01*
X5146729Y-13436960D02*
X5137206Y-13427436D01*
X5318158Y-13246484D02*
X5451491Y-13246484D01*
X5451491Y-13246484D02*
X5365777Y-13446484D01*
X5622920Y-13246484D02*
X5527682Y-13246484D01*
X5527682Y-13246484D02*
X5518158Y-13341722D01*
X5518158Y-13341722D02*
X5527682Y-13332198D01*
X5527682Y-13332198D02*
X5546729Y-13322674D01*
X5546729Y-13322674D02*
X5594348Y-13322674D01*
X5594348Y-13322674D02*
X5613396Y-13332198D01*
X5613396Y-13332198D02*
X5622920Y-13341722D01*
X5622920Y-13341722D02*
X5632444Y-13360769D01*
X5632444Y-13360769D02*
X5632444Y-13408388D01*
X5632444Y-13408388D02*
X5622920Y-13427436D01*
X5622920Y-13427436D02*
X5613396Y-13436960D01*
X5613396Y-13436960D02*
X5594348Y-13446484D01*
X5594348Y-13446484D02*
X5546729Y-13446484D01*
X5546729Y-13446484D02*
X5527682Y-13436960D01*
X5527682Y-13436960D02*
X5518158Y-13427436D01*
X5708634Y-13246484D02*
X5708634Y-13284579D01*
X5784825Y-13246484D02*
X5784825Y-13284579D01*
X6080063Y-13522674D02*
X6070539Y-13513150D01*
X6070539Y-13513150D02*
X6051491Y-13484579D01*
X6051491Y-13484579D02*
X6041968Y-13465531D01*
X6041968Y-13465531D02*
X6032444Y-13436960D01*
X6032444Y-13436960D02*
X6022920Y-13389341D01*
X6022920Y-13389341D02*
X6022920Y-13351246D01*
X6022920Y-13351246D02*
X6032444Y-13303627D01*
X6032444Y-13303627D02*
X6041968Y-13275055D01*
X6041968Y-13275055D02*
X6051491Y-13256008D01*
X6051491Y-13256008D02*
X6070539Y-13227436D01*
X6070539Y-13227436D02*
X6080063Y-13217912D01*
X6241968Y-13313150D02*
X6241968Y-13446484D01*
X6194348Y-13236960D02*
X6146729Y-13379817D01*
X6146729Y-13379817D02*
X6270539Y-13379817D01*
X6499110Y-13446484D02*
X6499110Y-13246484D01*
X6584825Y-13446484D02*
X6584825Y-13341722D01*
X6584825Y-13341722D02*
X6575301Y-13322674D01*
X6575301Y-13322674D02*
X6556253Y-13313150D01*
X6556253Y-13313150D02*
X6527682Y-13313150D01*
X6527682Y-13313150D02*
X6508634Y-13322674D01*
X6508634Y-13322674D02*
X6499110Y-13332198D01*
X6708634Y-13446484D02*
X6689587Y-13436960D01*
X6689587Y-13436960D02*
X6680063Y-13427436D01*
X6680063Y-13427436D02*
X6670539Y-13408388D01*
X6670539Y-13408388D02*
X6670539Y-13351246D01*
X6670539Y-13351246D02*
X6680063Y-13332198D01*
X6680063Y-13332198D02*
X6689587Y-13322674D01*
X6689587Y-13322674D02*
X6708634Y-13313150D01*
X6708634Y-13313150D02*
X6737206Y-13313150D01*
X6737206Y-13313150D02*
X6756253Y-13322674D01*
X6756253Y-13322674D02*
X6765777Y-13332198D01*
X6765777Y-13332198D02*
X6775301Y-13351246D01*
X6775301Y-13351246D02*
X6775301Y-13408388D01*
X6775301Y-13408388D02*
X6765777Y-13427436D01*
X6765777Y-13427436D02*
X6756253Y-13436960D01*
X6756253Y-13436960D02*
X6737206Y-13446484D01*
X6737206Y-13446484D02*
X6708634Y-13446484D01*
X6889587Y-13446484D02*
X6870539Y-13436960D01*
X6870539Y-13436960D02*
X6861015Y-13417912D01*
X6861015Y-13417912D02*
X6861015Y-13246484D01*
X7041968Y-13436960D02*
X7022920Y-13446484D01*
X7022920Y-13446484D02*
X6984825Y-13446484D01*
X6984825Y-13446484D02*
X6965777Y-13436960D01*
X6965777Y-13436960D02*
X6956253Y-13417912D01*
X6956253Y-13417912D02*
X6956253Y-13341722D01*
X6956253Y-13341722D02*
X6965777Y-13322674D01*
X6965777Y-13322674D02*
X6984825Y-13313150D01*
X6984825Y-13313150D02*
X7022920Y-13313150D01*
X7022920Y-13313150D02*
X7041968Y-13322674D01*
X7041968Y-13322674D02*
X7051491Y-13341722D01*
X7051491Y-13341722D02*
X7051491Y-13360769D01*
X7051491Y-13360769D02*
X6956253Y-13379817D01*
X7127682Y-13436960D02*
X7146730Y-13446484D01*
X7146730Y-13446484D02*
X7184825Y-13446484D01*
X7184825Y-13446484D02*
X7203872Y-13436960D01*
X7203872Y-13436960D02*
X7213396Y-13417912D01*
X7213396Y-13417912D02*
X7213396Y-13408388D01*
X7213396Y-13408388D02*
X7203872Y-13389341D01*
X7203872Y-13389341D02*
X7184825Y-13379817D01*
X7184825Y-13379817D02*
X7156253Y-13379817D01*
X7156253Y-13379817D02*
X7137206Y-13370293D01*
X7137206Y-13370293D02*
X7127682Y-13351246D01*
X7127682Y-13351246D02*
X7127682Y-13341722D01*
X7127682Y-13341722D02*
X7137206Y-13322674D01*
X7137206Y-13322674D02*
X7156253Y-13313150D01*
X7156253Y-13313150D02*
X7184825Y-13313150D01*
X7184825Y-13313150D02*
X7203872Y-13322674D01*
X7280063Y-13522674D02*
X7289587Y-13513150D01*
X7289587Y-13513150D02*
X7308634Y-13484579D01*
X7308634Y-13484579D02*
X7318158Y-13465531D01*
X7318158Y-13465531D02*
X7327682Y-13436960D01*
X7327682Y-13436960D02*
X7337206Y-13389341D01*
X7337206Y-13389341D02*
X7337206Y-13351246D01*
X7337206Y-13351246D02*
X7327682Y-13303627D01*
X7327682Y-13303627D02*
X7318158Y-13275055D01*
X7318158Y-13275055D02*
X7308634Y-13256008D01*
X7308634Y-13256008D02*
X7289587Y-13227436D01*
X7289587Y-13227436D02*
X7280063Y-13217912D01*
X7641968Y-13522674D02*
X7632444Y-13513150D01*
X7632444Y-13513150D02*
X7613396Y-13484579D01*
X7613396Y-13484579D02*
X7603872Y-13465531D01*
X7603872Y-13465531D02*
X7594349Y-13436960D01*
X7594349Y-13436960D02*
X7584825Y-13389341D01*
X7584825Y-13389341D02*
X7584825Y-13351246D01*
X7584825Y-13351246D02*
X7594349Y-13303627D01*
X7594349Y-13303627D02*
X7603872Y-13275055D01*
X7603872Y-13275055D02*
X7613396Y-13256008D01*
X7613396Y-13256008D02*
X7632444Y-13227436D01*
X7632444Y-13227436D02*
X7641968Y-13217912D01*
X7718158Y-13313150D02*
X7718158Y-13446484D01*
X7718158Y-13332198D02*
X7727682Y-13322674D01*
X7727682Y-13322674D02*
X7746730Y-13313150D01*
X7746730Y-13313150D02*
X7775301Y-13313150D01*
X7775301Y-13313150D02*
X7794349Y-13322674D01*
X7794349Y-13322674D02*
X7803872Y-13341722D01*
X7803872Y-13341722D02*
X7803872Y-13446484D01*
X7927682Y-13446484D02*
X7908634Y-13436960D01*
X7908634Y-13436960D02*
X7899111Y-13427436D01*
X7899111Y-13427436D02*
X7889587Y-13408388D01*
X7889587Y-13408388D02*
X7889587Y-13351246D01*
X7889587Y-13351246D02*
X7899111Y-13332198D01*
X7899111Y-13332198D02*
X7908634Y-13322674D01*
X7908634Y-13322674D02*
X7927682Y-13313150D01*
X7927682Y-13313150D02*
X7956253Y-13313150D01*
X7956253Y-13313150D02*
X7975301Y-13322674D01*
X7975301Y-13322674D02*
X7984825Y-13332198D01*
X7984825Y-13332198D02*
X7994349Y-13351246D01*
X7994349Y-13351246D02*
X7994349Y-13408388D01*
X7994349Y-13408388D02*
X7984825Y-13427436D01*
X7984825Y-13427436D02*
X7975301Y-13436960D01*
X7975301Y-13436960D02*
X7956253Y-13446484D01*
X7956253Y-13446484D02*
X7927682Y-13446484D01*
X8051492Y-13313150D02*
X8127682Y-13313150D01*
X8080063Y-13246484D02*
X8080063Y-13417912D01*
X8080063Y-13417912D02*
X8089587Y-13436960D01*
X8089587Y-13436960D02*
X8108634Y-13446484D01*
X8108634Y-13446484D02*
X8127682Y-13446484D01*
X8346730Y-13313150D02*
X8346730Y-13513150D01*
X8346730Y-13322674D02*
X8365777Y-13313150D01*
X8365777Y-13313150D02*
X8403873Y-13313150D01*
X8403873Y-13313150D02*
X8422920Y-13322674D01*
X8422920Y-13322674D02*
X8432444Y-13332198D01*
X8432444Y-13332198D02*
X8441968Y-13351246D01*
X8441968Y-13351246D02*
X8441968Y-13408388D01*
X8441968Y-13408388D02*
X8432444Y-13427436D01*
X8432444Y-13427436D02*
X8422920Y-13436960D01*
X8422920Y-13436960D02*
X8403873Y-13446484D01*
X8403873Y-13446484D02*
X8365777Y-13446484D01*
X8365777Y-13446484D02*
X8346730Y-13436960D01*
X8556254Y-13446484D02*
X8537206Y-13436960D01*
X8537206Y-13436960D02*
X8527682Y-13417912D01*
X8527682Y-13417912D02*
X8527682Y-13246484D01*
X8718158Y-13446484D02*
X8718158Y-13341722D01*
X8718158Y-13341722D02*
X8708635Y-13322674D01*
X8708635Y-13322674D02*
X8689587Y-13313150D01*
X8689587Y-13313150D02*
X8651492Y-13313150D01*
X8651492Y-13313150D02*
X8632444Y-13322674D01*
X8718158Y-13436960D02*
X8699111Y-13446484D01*
X8699111Y-13446484D02*
X8651492Y-13446484D01*
X8651492Y-13446484D02*
X8632444Y-13436960D01*
X8632444Y-13436960D02*
X8622920Y-13417912D01*
X8622920Y-13417912D02*
X8622920Y-13398865D01*
X8622920Y-13398865D02*
X8632444Y-13379817D01*
X8632444Y-13379817D02*
X8651492Y-13370293D01*
X8651492Y-13370293D02*
X8699111Y-13370293D01*
X8699111Y-13370293D02*
X8718158Y-13360769D01*
X8784825Y-13313150D02*
X8861015Y-13313150D01*
X8813396Y-13246484D02*
X8813396Y-13417912D01*
X8813396Y-13417912D02*
X8822920Y-13436960D01*
X8822920Y-13436960D02*
X8841968Y-13446484D01*
X8841968Y-13446484D02*
X8861015Y-13446484D01*
X9003873Y-13436960D02*
X8984825Y-13446484D01*
X8984825Y-13446484D02*
X8946730Y-13446484D01*
X8946730Y-13446484D02*
X8927682Y-13436960D01*
X8927682Y-13436960D02*
X8918158Y-13417912D01*
X8918158Y-13417912D02*
X8918158Y-13341722D01*
X8918158Y-13341722D02*
X8927682Y-13322674D01*
X8927682Y-13322674D02*
X8946730Y-13313150D01*
X8946730Y-13313150D02*
X8984825Y-13313150D01*
X8984825Y-13313150D02*
X9003873Y-13322674D01*
X9003873Y-13322674D02*
X9013396Y-13341722D01*
X9013396Y-13341722D02*
X9013396Y-13360769D01*
X9013396Y-13360769D02*
X8918158Y-13379817D01*
X9184825Y-13446484D02*
X9184825Y-13246484D01*
X9184825Y-13436960D02*
X9165777Y-13446484D01*
X9165777Y-13446484D02*
X9127682Y-13446484D01*
X9127682Y-13446484D02*
X9108635Y-13436960D01*
X9108635Y-13436960D02*
X9099111Y-13427436D01*
X9099111Y-13427436D02*
X9089587Y-13408388D01*
X9089587Y-13408388D02*
X9089587Y-13351246D01*
X9089587Y-13351246D02*
X9099111Y-13332198D01*
X9099111Y-13332198D02*
X9108635Y-13322674D01*
X9108635Y-13322674D02*
X9127682Y-13313150D01*
X9127682Y-13313150D02*
X9165777Y-13313150D01*
X9165777Y-13313150D02*
X9184825Y-13322674D01*
X9261016Y-13522674D02*
X9270539Y-13513150D01*
X9270539Y-13513150D02*
X9289587Y-13484579D01*
X9289587Y-13484579D02*
X9299111Y-13465531D01*
X9299111Y-13465531D02*
X9308635Y-13436960D01*
X9308635Y-13436960D02*
X9318158Y-13389341D01*
X9318158Y-13389341D02*
X9318158Y-13351246D01*
X9318158Y-13351246D02*
X9308635Y-13303627D01*
X9308635Y-13303627D02*
X9299111Y-13275055D01*
X9299111Y-13275055D02*
X9289587Y-13256008D01*
X9289587Y-13256008D02*
X9270539Y-13227436D01*
X9270539Y-13227436D02*
X9261016Y-13217912D01*
M02*
