%TF.GenerationSoftware,KiCad,Pcbnew,7.0.8*%
%TF.CreationDate,2025-03-20T17:12:24-04:00*%
%TF.ProjectId,2310interface,32333130-696e-4746-9572-666163652e6b,rev?*%
%TF.SameCoordinates,Original*%
%TF.FileFunction,Legend,Bot*%
%TF.FilePolarity,Positive*%
%FSLAX46Y46*%
G04 Gerber Fmt 4.6, Leading zero omitted, Abs format (unit mm)*
G04 Created by KiCad (PCBNEW 7.0.8) date 2025-03-20 17:12:24*
%MOMM*%
%LPD*%
G01*
G04 APERTURE LIST*
%ADD10C,0.300000*%
%ADD11C,0.150000*%
G04 APERTURE END LIST*
D10*
G36*
X99083508Y-99185597D02*
G01*
X98582863Y-99344413D01*
X98590224Y-99370644D01*
X98597883Y-99396450D01*
X98605840Y-99421830D01*
X98614096Y-99446785D01*
X98622649Y-99471315D01*
X98631500Y-99495419D01*
X98640649Y-99519098D01*
X98650097Y-99542352D01*
X98659842Y-99565181D01*
X98680227Y-99609562D01*
X98701805Y-99652242D01*
X98724575Y-99693221D01*
X98748537Y-99732498D01*
X98773691Y-99770075D01*
X98800038Y-99805950D01*
X98827577Y-99840124D01*
X98856308Y-99872597D01*
X98886231Y-99903368D01*
X98917347Y-99932439D01*
X98949655Y-99959808D01*
X98966256Y-99972855D01*
X99000244Y-99997721D01*
X99035360Y-100020982D01*
X99071606Y-100042640D01*
X99108982Y-100062693D01*
X99147486Y-100081142D01*
X99187120Y-100097987D01*
X99227883Y-100113227D01*
X99269776Y-100126863D01*
X99312797Y-100138895D01*
X99356948Y-100149323D01*
X99402229Y-100158146D01*
X99448638Y-100165365D01*
X99496177Y-100170980D01*
X99544845Y-100174991D01*
X99594642Y-100177397D01*
X99619964Y-100177999D01*
X99645569Y-100178200D01*
X99677225Y-100177863D01*
X99708527Y-100176852D01*
X99739476Y-100175168D01*
X99770071Y-100172810D01*
X99800312Y-100169778D01*
X99830199Y-100166073D01*
X99859732Y-100161694D01*
X99888912Y-100156641D01*
X99917737Y-100150915D01*
X99946209Y-100144515D01*
X99974327Y-100137441D01*
X100002092Y-100129694D01*
X100029502Y-100121273D01*
X100056559Y-100112178D01*
X100083262Y-100102409D01*
X100109611Y-100091967D01*
X100135606Y-100080851D01*
X100161247Y-100069062D01*
X100186535Y-100056598D01*
X100211469Y-100043461D01*
X100236049Y-100029651D01*
X100260275Y-100015166D01*
X100284148Y-100000008D01*
X100307666Y-99984177D01*
X100330831Y-99967671D01*
X100353642Y-99950492D01*
X100376099Y-99932639D01*
X100398202Y-99914113D01*
X100419952Y-99894913D01*
X100441348Y-99875039D01*
X100462390Y-99854491D01*
X100483078Y-99833270D01*
X100503230Y-99811465D01*
X100522743Y-99789165D01*
X100541616Y-99766371D01*
X100559849Y-99743083D01*
X100577443Y-99719300D01*
X100594397Y-99695023D01*
X100610710Y-99670251D01*
X100626385Y-99644986D01*
X100641419Y-99619225D01*
X100655814Y-99592971D01*
X100669569Y-99566222D01*
X100682684Y-99538979D01*
X100695159Y-99511241D01*
X100706995Y-99483009D01*
X100718191Y-99454283D01*
X100728747Y-99425062D01*
X100738663Y-99395347D01*
X100747940Y-99365138D01*
X100756577Y-99334434D01*
X100764574Y-99303236D01*
X100771931Y-99271543D01*
X100778648Y-99239356D01*
X100784726Y-99206675D01*
X100790164Y-99173499D01*
X100794962Y-99139829D01*
X100799121Y-99105665D01*
X100802640Y-99071006D01*
X100805519Y-99035853D01*
X100807758Y-99000206D01*
X100809357Y-98964064D01*
X100810317Y-98927428D01*
X100810637Y-98890297D01*
X100810315Y-98851024D01*
X100809350Y-98812304D01*
X100807741Y-98774136D01*
X100805489Y-98736521D01*
X100802594Y-98699459D01*
X100799055Y-98662948D01*
X100794873Y-98626991D01*
X100790048Y-98591586D01*
X100784579Y-98556733D01*
X100778467Y-98522433D01*
X100771711Y-98488686D01*
X100764312Y-98455491D01*
X100756269Y-98422848D01*
X100747584Y-98390758D01*
X100738254Y-98359221D01*
X100728282Y-98328236D01*
X100717666Y-98297803D01*
X100706406Y-98267924D01*
X100694503Y-98238596D01*
X100681957Y-98209821D01*
X100668767Y-98181599D01*
X100654934Y-98153929D01*
X100640458Y-98126812D01*
X100625338Y-98100247D01*
X100609575Y-98074235D01*
X100593168Y-98048775D01*
X100576118Y-98023868D01*
X100558424Y-97999514D01*
X100540088Y-97975711D01*
X100521107Y-97952462D01*
X100501484Y-97929765D01*
X100481217Y-97907620D01*
X100460387Y-97886094D01*
X100439152Y-97865250D01*
X100417513Y-97845091D01*
X100395469Y-97825614D01*
X100373020Y-97806821D01*
X100350167Y-97788712D01*
X100326909Y-97771285D01*
X100303246Y-97754542D01*
X100279178Y-97738483D01*
X100254706Y-97723107D01*
X100229829Y-97708414D01*
X100204548Y-97694405D01*
X100178862Y-97681079D01*
X100152771Y-97668436D01*
X100126275Y-97656477D01*
X100099375Y-97645201D01*
X100072070Y-97634608D01*
X100044360Y-97624699D01*
X100016245Y-97615474D01*
X99987726Y-97606931D01*
X99958802Y-97599072D01*
X99929474Y-97591897D01*
X99899740Y-97585405D01*
X99869603Y-97579596D01*
X99839060Y-97574471D01*
X99808113Y-97570029D01*
X99776760Y-97566270D01*
X99745004Y-97563195D01*
X99712842Y-97560803D01*
X99680276Y-97559095D01*
X99647305Y-97558069D01*
X99613930Y-97557728D01*
X99584751Y-97558015D01*
X99555917Y-97558876D01*
X99527429Y-97560312D01*
X99499286Y-97562322D01*
X99471488Y-97564907D01*
X99444036Y-97568066D01*
X99416929Y-97571799D01*
X99390168Y-97576106D01*
X99363751Y-97580988D01*
X99337680Y-97586444D01*
X99311955Y-97592475D01*
X99286574Y-97599080D01*
X99261539Y-97606259D01*
X99236850Y-97614012D01*
X99212505Y-97622340D01*
X99188506Y-97631242D01*
X99164853Y-97640719D01*
X99141544Y-97650770D01*
X99118581Y-97661395D01*
X99095964Y-97672594D01*
X99073691Y-97684368D01*
X99051764Y-97696716D01*
X99030182Y-97709639D01*
X99008946Y-97723136D01*
X98988055Y-97737207D01*
X98967509Y-97751852D01*
X98947309Y-97767072D01*
X98927454Y-97782866D01*
X98907944Y-97799235D01*
X98888779Y-97816178D01*
X98869960Y-97833695D01*
X98851487Y-97851786D01*
X98830035Y-97874168D01*
X98809262Y-97897733D01*
X98789168Y-97922480D01*
X98769752Y-97948410D01*
X98751015Y-97975522D01*
X98732956Y-98003817D01*
X98715576Y-98033295D01*
X98698874Y-98063955D01*
X98682851Y-98095798D01*
X98667506Y-98128823D01*
X98652840Y-98163031D01*
X98638852Y-98198422D01*
X98625543Y-98234995D01*
X98612913Y-98272751D01*
X98600961Y-98311689D01*
X98589688Y-98351810D01*
X99100878Y-98431218D01*
X99106924Y-98406270D01*
X99113741Y-98381986D01*
X99125411Y-98346804D01*
X99138816Y-98313117D01*
X99153954Y-98280923D01*
X99170826Y-98250223D01*
X99189431Y-98221018D01*
X99209771Y-98193306D01*
X99231845Y-98167089D01*
X99255652Y-98142365D01*
X99281194Y-98119135D01*
X99290093Y-98111724D01*
X99317625Y-98090770D01*
X99346247Y-98071877D01*
X99375959Y-98055045D01*
X99406763Y-98040274D01*
X99438656Y-98027564D01*
X99471640Y-98016916D01*
X99505715Y-98008328D01*
X99540880Y-98001801D01*
X99577136Y-97997336D01*
X99601912Y-97995504D01*
X99627173Y-97994588D01*
X99639986Y-97994473D01*
X99675085Y-97995263D01*
X99709351Y-97997633D01*
X99742784Y-98001583D01*
X99775383Y-98007113D01*
X99807148Y-98014223D01*
X99838080Y-98022913D01*
X99868178Y-98033184D01*
X99897442Y-98045034D01*
X99925873Y-98058464D01*
X99953470Y-98073474D01*
X99980233Y-98090064D01*
X100006163Y-98108235D01*
X100031259Y-98127985D01*
X100055522Y-98149315D01*
X100078951Y-98172226D01*
X100101546Y-98196716D01*
X100122956Y-98222978D01*
X100142985Y-98251202D01*
X100161633Y-98281390D01*
X100178899Y-98313541D01*
X100194784Y-98347654D01*
X100209288Y-98383730D01*
X100222410Y-98421770D01*
X100234151Y-98461772D01*
X100244511Y-98503737D01*
X100253490Y-98547665D01*
X100261087Y-98593556D01*
X100267303Y-98641410D01*
X100272137Y-98691227D01*
X100274037Y-98716871D01*
X100275591Y-98743006D01*
X100276799Y-98769632D01*
X100277663Y-98796749D01*
X100278181Y-98824356D01*
X100278353Y-98852454D01*
X100278183Y-98882234D01*
X100277672Y-98911472D01*
X100276821Y-98940171D01*
X100275629Y-98968329D01*
X100274097Y-98995947D01*
X100272225Y-99023024D01*
X100270012Y-99049561D01*
X100267458Y-99075557D01*
X100264564Y-99101013D01*
X100261329Y-99125929D01*
X100253839Y-99174139D01*
X100244986Y-99220187D01*
X100234772Y-99264074D01*
X100223196Y-99305799D01*
X100210257Y-99345363D01*
X100195957Y-99382765D01*
X100180295Y-99418005D01*
X100163271Y-99451084D01*
X100144885Y-99482001D01*
X100125137Y-99510756D01*
X100104027Y-99537350D01*
X100081827Y-99562066D01*
X100058808Y-99585187D01*
X100034969Y-99606714D01*
X100010312Y-99626646D01*
X99984835Y-99644983D01*
X99958539Y-99661726D01*
X99931425Y-99676874D01*
X99903491Y-99690428D01*
X99874738Y-99702387D01*
X99845165Y-99712752D01*
X99814774Y-99721522D01*
X99783564Y-99728698D01*
X99751535Y-99734279D01*
X99718686Y-99738265D01*
X99685019Y-99740657D01*
X99650532Y-99741454D01*
X99625012Y-99740931D01*
X99599942Y-99739360D01*
X99563183Y-99735042D01*
X99527438Y-99728368D01*
X99492707Y-99719339D01*
X99458991Y-99707954D01*
X99426288Y-99694213D01*
X99394600Y-99678118D01*
X99363926Y-99659666D01*
X99334266Y-99638859D01*
X99305620Y-99615697D01*
X99296297Y-99607453D01*
X99278090Y-99590102D01*
X99260538Y-99571549D01*
X99243640Y-99551793D01*
X99227396Y-99530836D01*
X99211807Y-99508677D01*
X99196872Y-99485316D01*
X99182591Y-99460753D01*
X99168964Y-99434988D01*
X99155992Y-99408021D01*
X99143674Y-99379852D01*
X99132011Y-99350481D01*
X99121002Y-99319908D01*
X99110647Y-99288133D01*
X99100946Y-99255156D01*
X99091900Y-99220977D01*
X99083508Y-99185597D01*
G37*
G36*
X97477744Y-98272896D02*
G01*
X97520798Y-98274379D01*
X97562465Y-98276851D01*
X97602746Y-98280312D01*
X97641640Y-98284761D01*
X97679149Y-98290199D01*
X97715271Y-98296626D01*
X97750008Y-98304041D01*
X97783358Y-98312445D01*
X97815322Y-98321838D01*
X97845899Y-98332220D01*
X97875091Y-98343590D01*
X97902896Y-98355949D01*
X97929316Y-98369297D01*
X97954349Y-98383633D01*
X97977996Y-98398959D01*
X98000451Y-98415311D01*
X98022062Y-98432731D01*
X98042830Y-98451216D01*
X98062755Y-98470767D01*
X98081836Y-98491385D01*
X98100075Y-98513069D01*
X98117469Y-98535820D01*
X98134021Y-98559636D01*
X98149729Y-98584519D01*
X98164594Y-98610468D01*
X98178615Y-98637484D01*
X98191793Y-98665566D01*
X98204128Y-98694714D01*
X98215620Y-98724928D01*
X98226268Y-98756209D01*
X98236073Y-98788555D01*
X97791263Y-98867964D01*
X97785493Y-98851681D01*
X97773298Y-98820992D01*
X97760232Y-98792804D01*
X97746293Y-98767116D01*
X97731481Y-98743929D01*
X97715797Y-98723244D01*
X97694965Y-98700904D01*
X97672771Y-98682471D01*
X97663320Y-98676085D01*
X97637741Y-98661924D01*
X97609376Y-98650337D01*
X97584677Y-98642922D01*
X97558195Y-98637154D01*
X97529929Y-98633035D01*
X97499879Y-98630563D01*
X97468046Y-98629739D01*
X97432845Y-98630279D01*
X97399824Y-98631898D01*
X97368985Y-98634597D01*
X97340326Y-98638376D01*
X97313849Y-98643234D01*
X97281938Y-98651391D01*
X97253905Y-98661467D01*
X97229749Y-98673463D01*
X97205006Y-98691156D01*
X97184811Y-98712379D01*
X97168038Y-98737660D01*
X97157085Y-98760808D01*
X97148322Y-98786554D01*
X97141750Y-98814897D01*
X97137368Y-98845838D01*
X97135520Y-98870749D01*
X97134904Y-98897121D01*
X97134904Y-98947372D01*
X97152323Y-98954465D01*
X97181541Y-98965241D01*
X97214467Y-98976181D01*
X97238478Y-98983565D01*
X97264136Y-98991021D01*
X97291442Y-98998551D01*
X97320397Y-99006153D01*
X97350999Y-99013827D01*
X97383248Y-99021575D01*
X97417146Y-99029395D01*
X97452692Y-99037288D01*
X97489885Y-99045253D01*
X97528727Y-99053292D01*
X97569216Y-99061402D01*
X97611353Y-99069586D01*
X97627172Y-99072704D01*
X97658109Y-99079039D01*
X97688110Y-99085504D01*
X97717175Y-99092101D01*
X97745306Y-99098828D01*
X97772500Y-99105686D01*
X97798760Y-99112675D01*
X97824084Y-99119795D01*
X97848472Y-99127045D01*
X97883301Y-99138167D01*
X97916026Y-99149583D01*
X97946645Y-99161293D01*
X97975160Y-99173297D01*
X98001570Y-99185597D01*
X98018241Y-99194124D01*
X98042364Y-99207779D01*
X98065430Y-99222470D01*
X98087439Y-99238197D01*
X98108389Y-99254960D01*
X98128282Y-99272759D01*
X98147117Y-99291594D01*
X98164894Y-99311465D01*
X98181613Y-99332371D01*
X98197274Y-99354314D01*
X98211878Y-99377293D01*
X98220968Y-99393016D01*
X98233503Y-99417109D01*
X98244719Y-99441812D01*
X98254616Y-99467126D01*
X98263192Y-99493051D01*
X98270450Y-99519587D01*
X98276388Y-99546733D01*
X98281006Y-99574490D01*
X98284305Y-99602858D01*
X98286284Y-99631837D01*
X98286944Y-99661426D01*
X98286299Y-99691264D01*
X98284365Y-99720449D01*
X98281142Y-99748979D01*
X98276630Y-99776854D01*
X98270828Y-99804076D01*
X98263738Y-99830643D01*
X98255358Y-99856556D01*
X98245689Y-99881814D01*
X98234730Y-99906419D01*
X98222483Y-99930369D01*
X98208946Y-99953664D01*
X98194120Y-99976306D01*
X98178005Y-99998293D01*
X98160600Y-100019625D01*
X98141906Y-100040304D01*
X98121923Y-100060328D01*
X98100823Y-100079409D01*
X98078778Y-100097260D01*
X98055788Y-100113879D01*
X98031852Y-100129267D01*
X98006972Y-100143424D01*
X97981146Y-100156351D01*
X97954376Y-100168046D01*
X97926660Y-100178510D01*
X97897999Y-100187743D01*
X97868393Y-100195745D01*
X97837842Y-100202515D01*
X97806345Y-100208055D01*
X97773904Y-100212364D01*
X97740518Y-100215441D01*
X97706186Y-100217288D01*
X97670909Y-100217904D01*
X97650670Y-100217659D01*
X97620601Y-100216374D01*
X97590881Y-100213987D01*
X97561510Y-100210500D01*
X97532488Y-100205910D01*
X97503815Y-100200220D01*
X97475491Y-100193428D01*
X97447516Y-100185534D01*
X97419890Y-100176540D01*
X97392612Y-100166443D01*
X97365684Y-100155246D01*
X97347839Y-100147166D01*
X97321325Y-100134120D01*
X97295116Y-100119962D01*
X97269213Y-100104691D01*
X97243615Y-100088308D01*
X97218323Y-100070813D01*
X97193336Y-100052205D01*
X97168654Y-100032485D01*
X97144277Y-100011653D01*
X97120206Y-99989708D01*
X97096441Y-99966651D01*
X97093060Y-99977431D01*
X97086098Y-100001491D01*
X97079070Y-100026828D01*
X97073912Y-100045235D01*
X97065654Y-100073976D01*
X97057821Y-100100294D01*
X97048980Y-100128676D01*
X97040751Y-100153569D01*
X97031921Y-100178200D01*
X96547407Y-100178200D01*
X96551400Y-100169880D01*
X96562897Y-100145116D01*
X96573675Y-100120647D01*
X96583733Y-100096472D01*
X96593071Y-100072592D01*
X96601690Y-100049006D01*
X96612062Y-100018016D01*
X96621154Y-99987550D01*
X96628967Y-99957607D01*
X96635501Y-99928188D01*
X96638355Y-99913105D01*
X96642292Y-99888590D01*
X96645814Y-99861807D01*
X96648922Y-99832756D01*
X96651616Y-99801437D01*
X96653895Y-99767849D01*
X96655760Y-99731993D01*
X96656773Y-99706829D01*
X96657601Y-99680657D01*
X96658246Y-99653477D01*
X96658707Y-99625289D01*
X96658983Y-99596092D01*
X96659075Y-99565888D01*
X96656542Y-99304709D01*
X97134904Y-99304709D01*
X97134904Y-99397145D01*
X97135073Y-99427603D01*
X97135580Y-99456163D01*
X97136425Y-99482826D01*
X97138078Y-99515425D01*
X97140332Y-99544651D01*
X97143186Y-99570503D01*
X97147600Y-99598074D01*
X97154136Y-99624203D01*
X97164344Y-99651841D01*
X97177521Y-99678147D01*
X97193666Y-99703119D01*
X97212781Y-99726759D01*
X97230209Y-99744711D01*
X97249538Y-99761810D01*
X97270766Y-99778056D01*
X97278301Y-99783133D01*
X97301049Y-99797395D01*
X97324015Y-99810206D01*
X97347199Y-99821568D01*
X97370601Y-99831479D01*
X97394221Y-99839939D01*
X97426054Y-99848964D01*
X97458275Y-99855410D01*
X97490884Y-99859277D01*
X97523880Y-99860567D01*
X97552854Y-99859462D01*
X97580528Y-99856146D01*
X97606904Y-99850621D01*
X97631981Y-99842886D01*
X97655759Y-99832940D01*
X97678238Y-99820785D01*
X97699418Y-99806419D01*
X97719299Y-99789844D01*
X97733047Y-99776232D01*
X97749273Y-99757354D01*
X97766176Y-99732585D01*
X97779323Y-99706513D01*
X97788713Y-99679138D01*
X97794348Y-99650461D01*
X97796226Y-99620481D01*
X97793878Y-99590310D01*
X97786835Y-99561836D01*
X97775097Y-99535058D01*
X97758664Y-99509976D01*
X97742136Y-99491132D01*
X97722604Y-99473374D01*
X97700067Y-99456701D01*
X97691682Y-99451733D01*
X97665886Y-99439271D01*
X97640276Y-99429258D01*
X97610246Y-99419206D01*
X97584823Y-99411642D01*
X97556913Y-99404055D01*
X97526517Y-99396447D01*
X97493634Y-99388817D01*
X97458266Y-99381166D01*
X97433305Y-99376052D01*
X97408221Y-99370903D01*
X97372203Y-99363351D01*
X97338116Y-99356006D01*
X97305959Y-99348869D01*
X97275732Y-99341939D01*
X97247435Y-99335216D01*
X97221068Y-99328700D01*
X97188915Y-99320335D01*
X97160194Y-99312338D01*
X97134904Y-99304709D01*
X96656542Y-99304709D01*
X96653491Y-98990178D01*
X96653748Y-98950796D01*
X96654519Y-98912989D01*
X96655803Y-98876758D01*
X96657601Y-98842102D01*
X96659913Y-98809021D01*
X96662739Y-98777515D01*
X96666078Y-98747584D01*
X96669931Y-98719228D01*
X96674298Y-98692448D01*
X96679179Y-98667243D01*
X96687463Y-98632388D01*
X96696903Y-98601078D01*
X96707499Y-98573312D01*
X96719251Y-98549090D01*
X96727767Y-98534211D01*
X96741940Y-98512510D01*
X96757792Y-98491550D01*
X96775324Y-98471332D01*
X96794535Y-98451856D01*
X96815426Y-98433121D01*
X96837995Y-98415127D01*
X96862245Y-98397876D01*
X96888173Y-98381365D01*
X96915781Y-98365597D01*
X96945069Y-98350569D01*
X96976557Y-98336600D01*
X97011001Y-98324005D01*
X97035605Y-98316371D01*
X97061523Y-98309348D01*
X97088754Y-98302936D01*
X97117298Y-98297135D01*
X97147156Y-98291944D01*
X97178328Y-98287364D01*
X97210813Y-98283394D01*
X97244611Y-98280035D01*
X97279723Y-98277287D01*
X97316148Y-98275150D01*
X97353887Y-98273623D01*
X97392939Y-98272707D01*
X97433305Y-98272402D01*
X97477744Y-98272896D01*
G37*
G36*
X96200616Y-100178200D02*
G01*
X95745260Y-100178200D01*
X95745260Y-99905854D01*
X95731134Y-99925015D01*
X95709319Y-99952622D01*
X95686751Y-99978865D01*
X95663430Y-100003745D01*
X95639357Y-100027261D01*
X95614532Y-100049415D01*
X95588954Y-100070205D01*
X95562624Y-100089633D01*
X95535541Y-100107697D01*
X95507706Y-100124398D01*
X95479118Y-100139736D01*
X95459792Y-100149202D01*
X95430739Y-100162255D01*
X95401610Y-100173934D01*
X95372404Y-100184240D01*
X95343122Y-100193171D01*
X95313764Y-100200728D01*
X95284330Y-100206911D01*
X95254819Y-100211720D01*
X95225231Y-100215156D01*
X95195568Y-100217217D01*
X95165828Y-100217904D01*
X95125881Y-100216898D01*
X95086691Y-100213881D01*
X95048257Y-100208852D01*
X95010579Y-100201813D01*
X94973656Y-100192761D01*
X94937490Y-100181699D01*
X94902080Y-100168625D01*
X94867427Y-100153540D01*
X94833529Y-100136443D01*
X94800387Y-100117335D01*
X94768001Y-100096215D01*
X94736372Y-100073084D01*
X94705499Y-100047942D01*
X94675381Y-100020789D01*
X94646020Y-99991624D01*
X94617415Y-99960447D01*
X94603522Y-99944104D01*
X94577059Y-99910139D01*
X94552360Y-99874467D01*
X94529425Y-99837089D01*
X94508255Y-99798005D01*
X94488849Y-99757216D01*
X94471207Y-99714720D01*
X94455329Y-99670518D01*
X94441216Y-99624610D01*
X94428866Y-99576996D01*
X94423353Y-99552549D01*
X94418281Y-99527676D01*
X94413650Y-99502376D01*
X94409460Y-99476650D01*
X94405711Y-99450497D01*
X94402403Y-99423918D01*
X94399536Y-99396912D01*
X94397111Y-99369480D01*
X94395126Y-99341621D01*
X94393582Y-99313336D01*
X94392480Y-99284624D01*
X94391851Y-99256940D01*
X94894103Y-99256940D01*
X94894549Y-99295372D01*
X94895886Y-99332500D01*
X94898116Y-99368324D01*
X94901237Y-99402845D01*
X94905250Y-99436062D01*
X94910155Y-99467975D01*
X94915952Y-99498584D01*
X94922640Y-99527889D01*
X94930220Y-99555891D01*
X94938692Y-99582589D01*
X94948056Y-99607984D01*
X94958312Y-99632074D01*
X94969459Y-99654861D01*
X94987852Y-99686596D01*
X95008252Y-99715398D01*
X95022710Y-99732977D01*
X95045105Y-99757219D01*
X95068351Y-99778909D01*
X95092448Y-99798048D01*
X95117395Y-99814634D01*
X95143193Y-99828669D01*
X95169841Y-99840152D01*
X95197340Y-99849084D01*
X95225689Y-99855463D01*
X95254889Y-99859291D01*
X95284940Y-99860567D01*
X95298042Y-99860367D01*
X95323759Y-99858767D01*
X95348826Y-99855568D01*
X95373243Y-99850770D01*
X95408652Y-99840574D01*
X95442600Y-99826779D01*
X95475086Y-99809385D01*
X95495931Y-99795790D01*
X95516127Y-99780596D01*
X95535674Y-99763802D01*
X95554571Y-99745409D01*
X95572819Y-99725416D01*
X95590418Y-99703824D01*
X95607367Y-99680633D01*
X95623666Y-99655842D01*
X95634634Y-99637161D01*
X95649759Y-99606839D01*
X95663293Y-99573759D01*
X95671430Y-99550172D01*
X95678860Y-99525360D01*
X95685582Y-99499321D01*
X95691597Y-99472056D01*
X95696904Y-99443564D01*
X95701504Y-99413847D01*
X95705396Y-99382903D01*
X95708580Y-99350733D01*
X95711057Y-99317337D01*
X95712826Y-99282715D01*
X95713887Y-99246866D01*
X95714241Y-99209791D01*
X95714127Y-99191636D01*
X95713216Y-99156202D01*
X95711394Y-99121936D01*
X95708660Y-99088838D01*
X95705015Y-99056908D01*
X95700459Y-99026146D01*
X95694992Y-98996552D01*
X95688614Y-98968126D01*
X95681325Y-98940868D01*
X95673124Y-98914778D01*
X95664012Y-98889857D01*
X95653989Y-98866103D01*
X95637246Y-98832663D01*
X95618453Y-98801850D01*
X95597610Y-98773666D01*
X95582723Y-98756238D01*
X95559530Y-98732203D01*
X95535301Y-98710698D01*
X95510036Y-98691723D01*
X95483735Y-98675278D01*
X95456397Y-98661364D01*
X95428024Y-98649979D01*
X95398615Y-98641124D01*
X95368170Y-98634799D01*
X95336689Y-98631004D01*
X95304172Y-98629739D01*
X95281938Y-98630316D01*
X95249541Y-98633344D01*
X95218288Y-98638967D01*
X95188181Y-98647186D01*
X95159219Y-98658000D01*
X95131402Y-98671410D01*
X95104730Y-98687415D01*
X95079203Y-98706015D01*
X95054822Y-98727211D01*
X95031585Y-98751002D01*
X95009493Y-98777389D01*
X95002394Y-98786759D01*
X94982448Y-98817044D01*
X94970278Y-98839046D01*
X94959010Y-98862497D01*
X94948643Y-98887396D01*
X94939177Y-98913746D01*
X94930613Y-98941544D01*
X94922950Y-98970791D01*
X94916189Y-99001488D01*
X94910330Y-99033633D01*
X94905371Y-99067228D01*
X94901315Y-99102272D01*
X94898159Y-99138765D01*
X94895906Y-99176708D01*
X94894554Y-99216099D01*
X94894103Y-99256940D01*
X94391851Y-99256940D01*
X94391818Y-99255486D01*
X94391598Y-99225921D01*
X94391814Y-99197322D01*
X94392463Y-99169142D01*
X94393544Y-99141381D01*
X94395058Y-99114040D01*
X94397005Y-99087118D01*
X94399384Y-99060615D01*
X94402195Y-99034531D01*
X94405440Y-99008867D01*
X94409117Y-98983622D01*
X94413226Y-98958796D01*
X94422742Y-98910401D01*
X94433989Y-98863684D01*
X94446966Y-98818644D01*
X94461673Y-98775280D01*
X94478111Y-98733594D01*
X94496279Y-98693584D01*
X94516177Y-98655252D01*
X94537805Y-98618596D01*
X94561164Y-98583618D01*
X94586253Y-98550316D01*
X94613072Y-98518691D01*
X94641214Y-98488867D01*
X94670273Y-98460967D01*
X94700247Y-98434991D01*
X94731138Y-98410940D01*
X94762944Y-98388812D01*
X94795666Y-98368609D01*
X94829305Y-98350329D01*
X94863859Y-98333974D01*
X94899330Y-98319543D01*
X94935716Y-98307036D01*
X94973019Y-98296454D01*
X95011238Y-98287795D01*
X95050372Y-98281060D01*
X95090423Y-98276250D01*
X95131390Y-98273364D01*
X95173272Y-98272402D01*
X95211721Y-98273410D01*
X95249521Y-98276434D01*
X95286670Y-98281475D01*
X95323171Y-98288532D01*
X95359022Y-98297605D01*
X95394223Y-98308694D01*
X95428776Y-98321799D01*
X95462678Y-98336921D01*
X95495931Y-98354059D01*
X95528535Y-98373213D01*
X95560489Y-98394383D01*
X95591794Y-98417570D01*
X95622449Y-98442773D01*
X95652455Y-98469992D01*
X95681812Y-98499227D01*
X95710519Y-98530479D01*
X95710519Y-97597432D01*
X96200616Y-97597432D01*
X96200616Y-100178200D01*
G37*
G36*
X94008825Y-100178200D02*
G01*
X94008825Y-97597432D01*
X93518107Y-97597432D01*
X93518107Y-100178200D01*
X94008825Y-100178200D01*
G37*
G36*
X92359519Y-98273427D02*
G01*
X92404085Y-98276502D01*
X92447652Y-98281628D01*
X92490220Y-98288803D01*
X92531790Y-98298029D01*
X92572362Y-98309305D01*
X92611935Y-98322631D01*
X92650510Y-98338007D01*
X92688086Y-98355433D01*
X92724664Y-98374909D01*
X92760244Y-98396436D01*
X92794825Y-98420013D01*
X92828408Y-98445640D01*
X92860992Y-98473317D01*
X92892578Y-98503044D01*
X92923166Y-98534821D01*
X92952314Y-98568331D01*
X92979581Y-98603412D01*
X93004968Y-98640062D01*
X93028475Y-98678283D01*
X93050101Y-98718075D01*
X93069846Y-98759436D01*
X93087711Y-98802368D01*
X93103695Y-98846871D01*
X93117799Y-98892943D01*
X93130022Y-98940586D01*
X93135429Y-98964997D01*
X93140365Y-98989800D01*
X93144832Y-99014995D01*
X93148828Y-99040583D01*
X93152354Y-99066564D01*
X93155409Y-99092937D01*
X93157995Y-99119703D01*
X93160111Y-99146862D01*
X93161756Y-99174413D01*
X93162932Y-99202356D01*
X93163637Y-99230693D01*
X93163872Y-99259421D01*
X93163157Y-99307292D01*
X93161012Y-99354126D01*
X93157438Y-99399922D01*
X93152434Y-99444681D01*
X93146000Y-99488403D01*
X93138136Y-99531088D01*
X93128842Y-99572736D01*
X93118119Y-99613346D01*
X93105966Y-99652920D01*
X93092383Y-99691456D01*
X93077370Y-99728955D01*
X93060928Y-99765416D01*
X93043056Y-99800841D01*
X93023754Y-99835228D01*
X93003022Y-99868578D01*
X92980861Y-99900891D01*
X92950874Y-99939279D01*
X92918920Y-99975191D01*
X92884998Y-100008626D01*
X92849108Y-100039584D01*
X92811251Y-100068066D01*
X92771425Y-100094071D01*
X92729632Y-100117599D01*
X92685871Y-100138650D01*
X92640143Y-100157225D01*
X92616541Y-100165584D01*
X92592447Y-100173324D01*
X92567861Y-100180444D01*
X92542783Y-100186945D01*
X92517213Y-100192827D01*
X92491151Y-100198090D01*
X92464597Y-100202734D01*
X92437551Y-100206759D01*
X92410013Y-100210164D01*
X92381984Y-100212950D01*
X92353462Y-100215117D01*
X92324449Y-100216665D01*
X92294943Y-100217594D01*
X92264946Y-100217904D01*
X92227192Y-100217390D01*
X92190239Y-100215849D01*
X92154085Y-100213280D01*
X92118731Y-100209684D01*
X92084176Y-100205060D01*
X92050421Y-100199409D01*
X92017466Y-100192730D01*
X91985311Y-100185024D01*
X91953955Y-100176290D01*
X91923399Y-100166529D01*
X91893643Y-100155740D01*
X91864686Y-100143924D01*
X91836530Y-100131080D01*
X91809172Y-100117209D01*
X91782615Y-100102310D01*
X91756857Y-100086384D01*
X91731848Y-100069396D01*
X91707692Y-100051468D01*
X91684389Y-100032600D01*
X91661939Y-100012792D01*
X91640343Y-99992043D01*
X91619599Y-99970354D01*
X91599708Y-99947725D01*
X91580670Y-99924155D01*
X91562485Y-99899645D01*
X91545154Y-99874195D01*
X91528675Y-99847805D01*
X91513049Y-99820475D01*
X91498276Y-99792204D01*
X91484357Y-99762993D01*
X91471290Y-99732842D01*
X91459076Y-99701750D01*
X91947933Y-99622342D01*
X91955832Y-99645233D01*
X91967416Y-99673873D01*
X91980201Y-99700360D01*
X91994189Y-99724695D01*
X92009378Y-99746878D01*
X92025770Y-99766910D01*
X92043363Y-99784789D01*
X92067046Y-99804112D01*
X92076959Y-99810949D01*
X92102995Y-99826110D01*
X92130818Y-99838514D01*
X92154364Y-99846453D01*
X92179053Y-99852628D01*
X92204886Y-99857038D01*
X92231862Y-99859684D01*
X92259983Y-99860567D01*
X92280935Y-99860077D01*
X92311546Y-99857507D01*
X92341175Y-99852734D01*
X92369822Y-99845759D01*
X92397488Y-99836580D01*
X92424173Y-99825199D01*
X92449876Y-99811615D01*
X92474598Y-99795828D01*
X92498338Y-99777838D01*
X92521097Y-99757646D01*
X92542875Y-99735250D01*
X92549864Y-99727320D01*
X92569560Y-99702351D01*
X92587348Y-99675616D01*
X92603228Y-99647113D01*
X92617199Y-99616844D01*
X92629262Y-99584809D01*
X92639416Y-99551007D01*
X92647663Y-99515438D01*
X92652100Y-99490744D01*
X92655689Y-99465265D01*
X92658429Y-99439001D01*
X92660322Y-99411952D01*
X92661367Y-99384117D01*
X91433020Y-99384117D01*
X91432605Y-99349117D01*
X91432679Y-99314686D01*
X91433240Y-99280823D01*
X91434290Y-99247528D01*
X91435828Y-99214801D01*
X91437855Y-99182643D01*
X91440370Y-99151052D01*
X91443373Y-99120030D01*
X91446864Y-99089577D01*
X91449939Y-99066484D01*
X91920016Y-99066484D01*
X92652681Y-99066484D01*
X92652497Y-99041609D01*
X92650658Y-99005522D01*
X92646943Y-98970907D01*
X92641352Y-98937765D01*
X92633886Y-98906095D01*
X92624544Y-98875897D01*
X92613326Y-98847171D01*
X92600233Y-98819918D01*
X92585264Y-98794136D01*
X92568419Y-98769827D01*
X92549699Y-98746990D01*
X92536378Y-98732792D01*
X92515587Y-98713212D01*
X92493826Y-98695693D01*
X92471094Y-98680235D01*
X92447392Y-98666838D01*
X92422720Y-98655502D01*
X92397076Y-98646227D01*
X92370463Y-98639014D01*
X92342878Y-98633861D01*
X92314323Y-98630769D01*
X92284798Y-98629739D01*
X92266208Y-98630175D01*
X92238987Y-98632465D01*
X92212563Y-98636718D01*
X92186934Y-98642934D01*
X92162101Y-98651113D01*
X92138065Y-98661255D01*
X92114824Y-98673359D01*
X92092380Y-98687427D01*
X92070731Y-98703457D01*
X92049879Y-98721450D01*
X92029823Y-98741407D01*
X92017108Y-98755690D01*
X91999498Y-98778623D01*
X91983644Y-98803367D01*
X91969545Y-98829921D01*
X91957203Y-98858285D01*
X91946616Y-98888459D01*
X91937784Y-98920444D01*
X91930709Y-98954238D01*
X91925389Y-98989843D01*
X91922818Y-99014586D01*
X91921027Y-99040133D01*
X91920016Y-99066484D01*
X91449939Y-99066484D01*
X91450844Y-99059692D01*
X91455312Y-99030375D01*
X91460269Y-99001626D01*
X91465713Y-98973445D01*
X91471646Y-98945833D01*
X91478067Y-98918789D01*
X91484977Y-98892313D01*
X91492375Y-98866406D01*
X91500261Y-98841067D01*
X91508636Y-98816296D01*
X91517498Y-98792093D01*
X91526849Y-98768459D01*
X91536689Y-98745393D01*
X91557832Y-98700966D01*
X91580929Y-98658812D01*
X91605980Y-98618931D01*
X91632983Y-98581323D01*
X91661939Y-98545988D01*
X91677038Y-98529156D01*
X91708255Y-98497095D01*
X91740835Y-98467172D01*
X91774776Y-98439386D01*
X91810079Y-98413737D01*
X91846745Y-98390226D01*
X91884772Y-98368852D01*
X91924161Y-98349615D01*
X91964912Y-98332516D01*
X92007025Y-98317554D01*
X92050500Y-98304730D01*
X92095336Y-98294043D01*
X92141535Y-98285493D01*
X92189096Y-98279081D01*
X92238018Y-98274806D01*
X92262990Y-98273471D01*
X92288303Y-98272669D01*
X92313956Y-98272402D01*
X92359519Y-98273427D01*
G37*
G36*
X90269814Y-98312106D02*
G01*
X89998089Y-98312106D01*
X89998089Y-98171280D01*
X89997895Y-98142280D01*
X89997313Y-98114215D01*
X89996344Y-98087086D01*
X89994987Y-98060892D01*
X89993242Y-98035634D01*
X89989898Y-97999500D01*
X89985681Y-97965470D01*
X89980592Y-97933546D01*
X89974631Y-97903726D01*
X89967797Y-97876011D01*
X89960091Y-97850400D01*
X89951512Y-97826894D01*
X89948459Y-97819527D01*
X89934743Y-97791203D01*
X89918409Y-97764236D01*
X89899459Y-97738626D01*
X89877891Y-97714373D01*
X89859997Y-97697074D01*
X89840632Y-97680538D01*
X89819794Y-97664766D01*
X89797484Y-97649757D01*
X89773702Y-97635511D01*
X89765448Y-97630932D01*
X89739706Y-97617850D01*
X89712732Y-97606054D01*
X89684527Y-97595545D01*
X89655088Y-97586323D01*
X89624418Y-97578388D01*
X89592515Y-97571740D01*
X89559380Y-97566378D01*
X89525013Y-97562303D01*
X89489413Y-97559515D01*
X89452581Y-97558014D01*
X89427342Y-97557728D01*
X89401240Y-97557960D01*
X89375201Y-97558658D01*
X89349226Y-97559822D01*
X89323313Y-97561450D01*
X89297463Y-97563544D01*
X89271676Y-97566103D01*
X89245952Y-97569127D01*
X89220291Y-97572617D01*
X89194694Y-97576572D01*
X89169159Y-97580992D01*
X89143687Y-97585877D01*
X89118278Y-97591228D01*
X89092932Y-97597044D01*
X89067650Y-97603325D01*
X89042430Y-97610072D01*
X89017273Y-97617284D01*
X89083653Y-97942982D01*
X89112685Y-97936439D01*
X89141465Y-97930768D01*
X89169992Y-97925970D01*
X89198268Y-97922044D01*
X89226292Y-97918991D01*
X89254063Y-97916810D01*
X89281583Y-97915501D01*
X89308850Y-97915065D01*
X89334441Y-97915898D01*
X89363812Y-97919285D01*
X89390275Y-97925277D01*
X89413830Y-97933874D01*
X89438257Y-97947629D01*
X89458497Y-97965135D01*
X89461463Y-97968417D01*
X89477064Y-97991660D01*
X89487600Y-98016326D01*
X89495894Y-98045809D01*
X89500915Y-98072863D01*
X89504502Y-98103000D01*
X89506653Y-98136219D01*
X89507326Y-98163157D01*
X89507371Y-98172521D01*
X89507371Y-98312106D01*
X89141348Y-98312106D01*
X89141348Y-98669443D01*
X89507371Y-98669443D01*
X89507371Y-100178200D01*
X89998089Y-100178200D01*
X89998089Y-98669443D01*
X90269814Y-98669443D01*
X90269814Y-98312106D01*
G37*
G36*
X88402480Y-100178200D02*
G01*
X88892577Y-100178200D01*
X88892577Y-98312106D01*
X88437221Y-98312106D01*
X88437221Y-98575766D01*
X88422734Y-98552926D01*
X88408431Y-98531089D01*
X88394313Y-98510256D01*
X88373481Y-98480887D01*
X88353063Y-98453775D01*
X88333059Y-98428920D01*
X88313470Y-98406323D01*
X88294295Y-98385984D01*
X88275535Y-98367901D01*
X88251166Y-98347303D01*
X88227533Y-98330717D01*
X88203717Y-98317050D01*
X88179105Y-98305204D01*
X88153699Y-98295181D01*
X88127498Y-98286981D01*
X88100501Y-98280602D01*
X88072711Y-98276047D01*
X88044125Y-98273313D01*
X88014744Y-98272402D01*
X87983447Y-98273285D01*
X87952367Y-98275935D01*
X87921506Y-98280352D01*
X87890863Y-98286535D01*
X87860437Y-98294485D01*
X87830230Y-98304201D01*
X87800242Y-98315684D01*
X87770471Y-98328934D01*
X87740918Y-98343950D01*
X87711583Y-98360733D01*
X87692148Y-98372903D01*
X87844140Y-98829500D01*
X87867246Y-98815087D01*
X87890036Y-98802092D01*
X87912510Y-98790515D01*
X87941982Y-98777283D01*
X87970893Y-98766572D01*
X87999241Y-98758381D01*
X88027027Y-98752710D01*
X88054251Y-98749560D01*
X88074300Y-98748851D01*
X88099561Y-98749724D01*
X88129774Y-98753268D01*
X88158473Y-98759538D01*
X88185657Y-98768535D01*
X88211326Y-98780258D01*
X88235481Y-98794707D01*
X88249247Y-98804685D01*
X88270799Y-98824329D01*
X88286973Y-98843207D01*
X88302196Y-98864896D01*
X88316470Y-98889396D01*
X88329793Y-98916707D01*
X88342167Y-98946830D01*
X88350824Y-98971266D01*
X88358946Y-98997284D01*
X88361535Y-99006308D01*
X88368852Y-99036335D01*
X88375450Y-99071978D01*
X88379448Y-99098860D01*
X88383127Y-99128238D01*
X88386486Y-99160113D01*
X88389524Y-99194483D01*
X88392243Y-99231349D01*
X88394643Y-99270712D01*
X88396722Y-99312570D01*
X88398481Y-99356925D01*
X88399921Y-99403775D01*
X88401040Y-99453122D01*
X88401480Y-99478731D01*
X88401840Y-99504965D01*
X88402120Y-99531822D01*
X88402320Y-99559303D01*
X88402440Y-99587409D01*
X88402480Y-99616138D01*
X88402480Y-100178200D01*
G37*
G36*
X86682441Y-98272874D02*
G01*
X86715811Y-98274292D01*
X86748783Y-98276655D01*
X86781357Y-98279963D01*
X86813535Y-98284216D01*
X86845314Y-98289414D01*
X86876697Y-98295557D01*
X86907682Y-98302645D01*
X86938269Y-98310679D01*
X86968459Y-98319657D01*
X86998252Y-98329581D01*
X87027647Y-98340449D01*
X87056645Y-98352263D01*
X87085245Y-98365022D01*
X87113448Y-98378726D01*
X87141254Y-98393375D01*
X87168468Y-98408921D01*
X87194897Y-98425315D01*
X87220541Y-98442557D01*
X87245399Y-98460647D01*
X87269473Y-98479586D01*
X87292761Y-98499373D01*
X87315264Y-98520007D01*
X87336982Y-98541490D01*
X87357915Y-98563821D01*
X87378063Y-98587001D01*
X87397426Y-98611028D01*
X87416003Y-98635904D01*
X87433795Y-98661628D01*
X87450802Y-98688200D01*
X87467024Y-98715620D01*
X87482461Y-98743888D01*
X87497035Y-98772644D01*
X87510669Y-98801525D01*
X87523362Y-98830533D01*
X87535115Y-98859666D01*
X87545928Y-98888926D01*
X87555801Y-98918311D01*
X87564733Y-98947823D01*
X87572726Y-98977460D01*
X87579778Y-99007224D01*
X87585889Y-99037113D01*
X87591061Y-99067129D01*
X87595292Y-99097270D01*
X87598583Y-99127538D01*
X87600933Y-99157932D01*
X87602344Y-99188451D01*
X87602814Y-99219097D01*
X87602344Y-99258808D01*
X87600933Y-99297759D01*
X87598583Y-99335948D01*
X87595292Y-99373377D01*
X87591061Y-99410045D01*
X87585889Y-99445951D01*
X87579778Y-99481097D01*
X87572726Y-99515482D01*
X87564733Y-99549106D01*
X87555801Y-99581969D01*
X87545928Y-99614071D01*
X87535115Y-99645412D01*
X87523362Y-99675992D01*
X87510669Y-99705812D01*
X87497035Y-99734870D01*
X87482461Y-99763167D01*
X87466985Y-99790665D01*
X87450647Y-99817324D01*
X87433446Y-99843145D01*
X87415383Y-99868127D01*
X87396456Y-99892271D01*
X87376667Y-99915577D01*
X87356015Y-99938043D01*
X87334501Y-99959672D01*
X87312124Y-99980462D01*
X87288884Y-100000413D01*
X87264781Y-100019526D01*
X87239816Y-100037800D01*
X87213988Y-100055236D01*
X87187297Y-100071834D01*
X87159744Y-100087593D01*
X87131327Y-100102514D01*
X87102310Y-100116487D01*
X87073109Y-100129558D01*
X87043723Y-100141728D01*
X87014154Y-100152997D01*
X86984400Y-100163364D01*
X86954462Y-100172829D01*
X86924340Y-100181393D01*
X86894033Y-100189056D01*
X86863543Y-100195817D01*
X86832868Y-100201677D01*
X86802009Y-100206635D01*
X86770966Y-100210692D01*
X86739739Y-100213847D01*
X86708327Y-100216101D01*
X86676732Y-100217453D01*
X86644952Y-100217904D01*
X86619382Y-100217632D01*
X86594086Y-100216818D01*
X86569064Y-100215461D01*
X86544315Y-100213561D01*
X86495640Y-100208133D01*
X86448060Y-100200533D01*
X86401575Y-100190762D01*
X86356186Y-100178820D01*
X86311892Y-100164706D01*
X86268693Y-100148421D01*
X86226590Y-100129965D01*
X86185582Y-100109338D01*
X86145670Y-100086539D01*
X86106853Y-100061569D01*
X86069131Y-100034427D01*
X86032504Y-100005114D01*
X85996973Y-99973630D01*
X85962538Y-99939975D01*
X85929633Y-99904671D01*
X85898852Y-99868244D01*
X85870193Y-99830692D01*
X85843658Y-99792015D01*
X85819245Y-99752214D01*
X85796955Y-99711288D01*
X85776788Y-99669238D01*
X85758744Y-99626064D01*
X85742822Y-99581765D01*
X85729024Y-99536342D01*
X85717348Y-99489794D01*
X85707795Y-99442122D01*
X85700365Y-99393326D01*
X85697446Y-99368506D01*
X85695058Y-99343405D01*
X85693201Y-99318023D01*
X85691874Y-99292360D01*
X85691078Y-99266415D01*
X85690825Y-99241430D01*
X86195179Y-99241430D01*
X86195688Y-99278636D01*
X86197214Y-99314722D01*
X86199759Y-99349689D01*
X86203321Y-99383536D01*
X86207901Y-99416263D01*
X86213499Y-99447871D01*
X86220115Y-99478359D01*
X86227749Y-99507727D01*
X86236400Y-99535976D01*
X86246069Y-99563106D01*
X86256756Y-99589115D01*
X86268461Y-99614006D01*
X86281183Y-99637776D01*
X86294924Y-99660427D01*
X86309682Y-99681959D01*
X86325458Y-99702370D01*
X86341908Y-99721527D01*
X86367491Y-99747945D01*
X86394165Y-99771581D01*
X86421929Y-99792437D01*
X86450784Y-99810512D01*
X86480729Y-99825807D01*
X86511765Y-99838320D01*
X86543891Y-99848053D01*
X86577108Y-99855005D01*
X86611415Y-99859176D01*
X86646813Y-99860567D01*
X86682222Y-99859176D01*
X86716562Y-99855005D01*
X86749833Y-99848053D01*
X86782036Y-99838320D01*
X86813170Y-99825807D01*
X86843235Y-99810512D01*
X86872232Y-99792437D01*
X86900160Y-99771581D01*
X86927019Y-99747945D01*
X86952809Y-99721527D01*
X86969409Y-99702370D01*
X86985260Y-99681973D01*
X87000089Y-99660485D01*
X87013895Y-99637907D01*
X87026678Y-99614238D01*
X87038438Y-99589479D01*
X87049176Y-99563629D01*
X87058891Y-99536689D01*
X87067584Y-99508658D01*
X87075254Y-99479536D01*
X87081901Y-99449325D01*
X87087525Y-99418022D01*
X87092127Y-99385629D01*
X87095707Y-99352146D01*
X87098263Y-99317572D01*
X87099797Y-99281908D01*
X87100309Y-99245153D01*
X87099797Y-99208400D01*
X87098263Y-99172743D01*
X87095707Y-99138181D01*
X87092127Y-99104715D01*
X87087525Y-99072344D01*
X87081901Y-99041068D01*
X87075254Y-99010888D01*
X87067584Y-98981803D01*
X87058891Y-98953813D01*
X87049176Y-98926919D01*
X87038438Y-98901120D01*
X87026678Y-98876416D01*
X87013895Y-98852808D01*
X87000089Y-98830295D01*
X86985260Y-98808878D01*
X86969409Y-98788555D01*
X86952809Y-98769324D01*
X86927019Y-98742803D01*
X86900160Y-98719073D01*
X86872232Y-98698135D01*
X86843235Y-98679989D01*
X86813170Y-98664635D01*
X86782036Y-98652072D01*
X86749833Y-98642302D01*
X86716562Y-98635322D01*
X86682222Y-98631135D01*
X86646813Y-98629739D01*
X86611415Y-98631135D01*
X86577108Y-98635322D01*
X86543891Y-98642302D01*
X86511765Y-98652072D01*
X86480729Y-98664635D01*
X86450784Y-98679989D01*
X86421929Y-98698135D01*
X86394165Y-98719073D01*
X86367491Y-98742803D01*
X86341908Y-98769324D01*
X86325458Y-98788555D01*
X86309682Y-98808863D01*
X86294924Y-98830237D01*
X86281183Y-98852677D01*
X86268461Y-98876184D01*
X86256756Y-98900756D01*
X86246069Y-98926395D01*
X86236400Y-98953101D01*
X86227749Y-98980872D01*
X86220115Y-99009710D01*
X86213499Y-99039614D01*
X86207901Y-99070585D01*
X86203321Y-99102621D01*
X86199759Y-99135724D01*
X86197214Y-99169893D01*
X86195688Y-99205129D01*
X86195179Y-99241430D01*
X85690825Y-99241430D01*
X85690812Y-99240190D01*
X85691075Y-99214121D01*
X85691862Y-99188335D01*
X85693173Y-99162833D01*
X85695010Y-99137614D01*
X85697371Y-99112679D01*
X85700256Y-99088028D01*
X85707601Y-99039575D01*
X85717045Y-98992257D01*
X85728588Y-98946073D01*
X85742229Y-98901023D01*
X85757968Y-98857107D01*
X85775807Y-98814325D01*
X85795743Y-98772678D01*
X85817779Y-98732164D01*
X85841913Y-98692785D01*
X85868146Y-98654539D01*
X85896477Y-98617428D01*
X85926907Y-98581451D01*
X85959436Y-98546608D01*
X85993607Y-98513404D01*
X86028966Y-98482341D01*
X86065513Y-98453421D01*
X86103247Y-98426643D01*
X86142168Y-98402007D01*
X86182277Y-98379514D01*
X86223573Y-98359163D01*
X86266057Y-98340954D01*
X86309728Y-98324887D01*
X86354587Y-98310962D01*
X86400633Y-98299180D01*
X86447866Y-98289540D01*
X86496287Y-98282042D01*
X86520943Y-98279096D01*
X86545895Y-98276686D01*
X86571145Y-98274812D01*
X86596691Y-98273473D01*
X86622534Y-98272670D01*
X86648674Y-98272402D01*
X86682441Y-98272874D01*
G37*
G36*
X85355189Y-98312106D02*
G01*
X84902934Y-98312106D01*
X84902934Y-98565220D01*
X84872252Y-98529761D01*
X84840848Y-98496591D01*
X84808721Y-98465707D01*
X84775873Y-98437112D01*
X84742302Y-98410804D01*
X84708010Y-98386784D01*
X84672995Y-98365051D01*
X84637258Y-98345606D01*
X84600798Y-98328449D01*
X84563617Y-98313579D01*
X84525713Y-98300997D01*
X84487088Y-98290703D01*
X84447740Y-98282696D01*
X84407670Y-98276977D01*
X84366877Y-98273546D01*
X84325363Y-98272402D01*
X84292393Y-98273018D01*
X84260253Y-98274866D01*
X84228941Y-98277947D01*
X84198457Y-98282260D01*
X84168803Y-98287805D01*
X84139977Y-98294583D01*
X84111980Y-98302593D01*
X84084812Y-98311835D01*
X84058473Y-98322309D01*
X84032962Y-98334015D01*
X84016415Y-98342504D01*
X83992286Y-98356165D01*
X83968986Y-98371090D01*
X83946514Y-98387281D01*
X83924871Y-98404736D01*
X83904057Y-98423456D01*
X83884072Y-98443442D01*
X83864915Y-98464692D01*
X83846587Y-98487207D01*
X83829088Y-98510988D01*
X83812418Y-98536033D01*
X83801765Y-98553433D01*
X83778681Y-98527544D01*
X83755259Y-98502920D01*
X83731498Y-98479562D01*
X83707400Y-98457468D01*
X83682963Y-98436639D01*
X83658189Y-98417076D01*
X83633076Y-98398777D01*
X83607626Y-98381743D01*
X83581837Y-98365975D01*
X83555710Y-98351471D01*
X83538105Y-98342504D01*
X83511420Y-98329976D01*
X83484408Y-98318681D01*
X83457069Y-98308617D01*
X83429403Y-98299786D01*
X83401410Y-98292187D01*
X83373089Y-98285820D01*
X83344442Y-98280685D01*
X83315467Y-98276783D01*
X83286165Y-98274113D01*
X83256536Y-98272676D01*
X83236602Y-98272402D01*
X83211333Y-98272729D01*
X83174349Y-98274447D01*
X83138466Y-98277636D01*
X83103684Y-98282298D01*
X83070004Y-98288432D01*
X83037425Y-98296039D01*
X83005948Y-98305117D01*
X82975572Y-98315668D01*
X82946297Y-98327691D01*
X82918124Y-98341186D01*
X82891052Y-98356153D01*
X82865163Y-98372427D01*
X82840540Y-98390075D01*
X82817181Y-98409097D01*
X82795087Y-98429493D01*
X82774259Y-98451263D01*
X82754695Y-98474407D01*
X82736396Y-98498925D01*
X82719363Y-98524818D01*
X82703594Y-98552084D01*
X82689090Y-98580724D01*
X82680124Y-98600581D01*
X82671033Y-98624212D01*
X82662836Y-98650439D01*
X82655533Y-98679261D01*
X82649124Y-98710679D01*
X82643610Y-98744692D01*
X82638990Y-98781300D01*
X82636407Y-98807147D01*
X82634221Y-98834148D01*
X82632432Y-98862303D01*
X82631041Y-98891611D01*
X82630048Y-98922072D01*
X82629452Y-98953687D01*
X82629253Y-98986456D01*
X82629253Y-100178200D01*
X83119971Y-100178200D01*
X83119971Y-99099364D01*
X83120170Y-99065013D01*
X83120766Y-99032218D01*
X83121759Y-99000979D01*
X83123150Y-98971295D01*
X83124939Y-98943167D01*
X83127125Y-98916595D01*
X83129708Y-98891579D01*
X83134328Y-98856972D01*
X83139842Y-98825865D01*
X83146251Y-98798259D01*
X83153554Y-98774153D01*
X83164682Y-98747458D01*
X83170842Y-98736444D01*
X83188901Y-98711435D01*
X83209266Y-98689760D01*
X83231939Y-98671420D01*
X83256919Y-98656415D01*
X83284206Y-98644744D01*
X83313800Y-98636408D01*
X83345701Y-98631406D01*
X83371141Y-98629843D01*
X83379909Y-98629739D01*
X83405470Y-98630737D01*
X83430663Y-98633733D01*
X83455488Y-98638725D01*
X83479945Y-98645714D01*
X83504033Y-98654699D01*
X83527752Y-98665682D01*
X83551104Y-98678661D01*
X83574087Y-98693638D01*
X83595945Y-98710553D01*
X83616234Y-98729348D01*
X83634952Y-98750024D01*
X83652099Y-98772581D01*
X83667676Y-98797018D01*
X83681683Y-98823335D01*
X83694120Y-98851533D01*
X83704986Y-98881612D01*
X83712082Y-98906019D01*
X83718479Y-98932946D01*
X83724179Y-98962391D01*
X83729181Y-98994356D01*
X83733485Y-99028839D01*
X83737091Y-99065842D01*
X83739107Y-99091910D01*
X83740813Y-99119098D01*
X83742209Y-99147405D01*
X83743295Y-99176831D01*
X83744070Y-99207378D01*
X83744535Y-99239043D01*
X83744690Y-99271829D01*
X83744690Y-100178200D01*
X84234788Y-100178200D01*
X84234788Y-99143411D01*
X84234890Y-99109743D01*
X84235195Y-99077603D01*
X84235704Y-99046988D01*
X84236417Y-99017901D01*
X84237333Y-98990340D01*
X84238452Y-98964306D01*
X84240513Y-98928118D01*
X84243032Y-98895364D01*
X84246009Y-98866046D01*
X84249444Y-98840163D01*
X84254737Y-98810996D01*
X84260844Y-98787935D01*
X84269698Y-98763926D01*
X84282203Y-98737754D01*
X84296757Y-98714460D01*
X84313362Y-98694046D01*
X84332017Y-98676511D01*
X84342113Y-98668823D01*
X84363982Y-98655540D01*
X84388642Y-98645006D01*
X84416093Y-98637220D01*
X84441102Y-98632831D01*
X84468050Y-98630350D01*
X84491004Y-98629739D01*
X84519027Y-98630718D01*
X84546334Y-98633655D01*
X84572923Y-98638550D01*
X84598794Y-98645403D01*
X84623949Y-98654215D01*
X84648386Y-98664984D01*
X84672105Y-98677712D01*
X84695108Y-98692397D01*
X84716957Y-98708769D01*
X84737216Y-98726867D01*
X84755885Y-98746690D01*
X84772965Y-98768238D01*
X84788455Y-98791512D01*
X84802355Y-98816511D01*
X84814666Y-98843236D01*
X84825387Y-98871686D01*
X84834547Y-98903412D01*
X84840616Y-98930375D01*
X84845997Y-98960053D01*
X84850692Y-98992447D01*
X84854700Y-99027556D01*
X84856990Y-99052470D01*
X84858974Y-99078591D01*
X84860654Y-99105919D01*
X84862028Y-99134454D01*
X84863097Y-99164196D01*
X84863860Y-99195145D01*
X84864318Y-99227300D01*
X84864471Y-99260662D01*
X84864471Y-100178200D01*
X85355189Y-100178200D01*
X85355189Y-98312106D01*
G37*
G36*
X80019327Y-100178200D02*
G01*
X80509425Y-100178200D01*
X80509425Y-98310865D01*
X80543379Y-98343973D01*
X80578083Y-98375985D01*
X80613539Y-98406902D01*
X80649747Y-98436724D01*
X80686705Y-98465451D01*
X80724415Y-98493082D01*
X80762876Y-98519617D01*
X80802088Y-98545057D01*
X80842051Y-98569402D01*
X80882766Y-98592652D01*
X80924232Y-98614806D01*
X80966449Y-98635865D01*
X81009417Y-98655829D01*
X81053137Y-98674697D01*
X81097608Y-98692470D01*
X81142830Y-98709147D01*
X81142830Y-98232698D01*
X81118737Y-98224589D01*
X81094382Y-98215618D01*
X81069766Y-98205784D01*
X81044888Y-98195087D01*
X81019748Y-98183528D01*
X80994347Y-98171106D01*
X80968683Y-98157821D01*
X80942758Y-98143674D01*
X80916572Y-98128663D01*
X80890123Y-98112791D01*
X80863413Y-98096055D01*
X80836441Y-98078457D01*
X80809208Y-98059996D01*
X80781712Y-98040672D01*
X80753955Y-98020485D01*
X80725937Y-97999436D01*
X80698340Y-97977655D01*
X80671848Y-97955428D01*
X80646461Y-97932755D01*
X80622179Y-97909637D01*
X80599002Y-97886072D01*
X80576930Y-97862061D01*
X80555963Y-97837605D01*
X80536101Y-97812703D01*
X80517345Y-97787354D01*
X80499693Y-97761560D01*
X80483146Y-97735320D01*
X80467705Y-97708634D01*
X80453368Y-97681503D01*
X80440137Y-97653925D01*
X80428010Y-97625901D01*
X80416989Y-97597432D01*
X80019327Y-97597432D01*
X80019327Y-100178200D01*
G37*
G36*
X78237605Y-100178200D02*
G01*
X78727703Y-100178200D01*
X78727703Y-98310865D01*
X78761656Y-98343973D01*
X78796361Y-98375985D01*
X78831817Y-98406902D01*
X78868024Y-98436724D01*
X78904983Y-98465451D01*
X78942693Y-98493082D01*
X78981154Y-98519617D01*
X79020366Y-98545057D01*
X79060329Y-98569402D01*
X79101044Y-98592652D01*
X79142510Y-98614806D01*
X79184727Y-98635865D01*
X79227695Y-98655829D01*
X79271415Y-98674697D01*
X79315886Y-98692470D01*
X79361108Y-98709147D01*
X79361108Y-98232698D01*
X79337015Y-98224589D01*
X79312660Y-98215618D01*
X79288044Y-98205784D01*
X79263166Y-98195087D01*
X79238026Y-98183528D01*
X79212624Y-98171106D01*
X79186961Y-98157821D01*
X79161036Y-98143674D01*
X79134849Y-98128663D01*
X79108401Y-98112791D01*
X79081691Y-98096055D01*
X79054719Y-98078457D01*
X79027485Y-98059996D01*
X78999990Y-98040672D01*
X78972233Y-98020485D01*
X78944214Y-97999436D01*
X78916617Y-97977655D01*
X78890125Y-97955428D01*
X78864738Y-97932755D01*
X78840456Y-97909637D01*
X78817280Y-97886072D01*
X78795208Y-97862061D01*
X78774241Y-97837605D01*
X78754379Y-97812703D01*
X78735622Y-97787354D01*
X78717971Y-97761560D01*
X78701424Y-97735320D01*
X78685983Y-97708634D01*
X78671646Y-97681503D01*
X78658415Y-97653925D01*
X78646288Y-97625901D01*
X78635267Y-97597432D01*
X78237605Y-97597432D01*
X78237605Y-100178200D01*
G37*
G36*
X77531616Y-99445534D02*
G01*
X77057028Y-99384117D01*
X77052054Y-99419497D01*
X77045738Y-99453284D01*
X77038081Y-99485480D01*
X77029082Y-99516083D01*
X77018742Y-99545094D01*
X77007061Y-99572513D01*
X76994039Y-99598340D01*
X76979675Y-99622575D01*
X76963970Y-99645217D01*
X76946923Y-99666267D01*
X76934814Y-99679417D01*
X76915832Y-99697599D01*
X76896108Y-99713993D01*
X76875643Y-99728598D01*
X76847203Y-99745290D01*
X76817444Y-99758803D01*
X76786367Y-99769136D01*
X76762194Y-99774799D01*
X76737280Y-99778674D01*
X76711624Y-99780761D01*
X76694108Y-99781158D01*
X76666145Y-99780139D01*
X76639023Y-99777080D01*
X76612740Y-99771982D01*
X76587296Y-99764844D01*
X76562693Y-99755668D01*
X76538929Y-99744452D01*
X76516004Y-99731197D01*
X76493920Y-99715902D01*
X76472675Y-99698569D01*
X76452270Y-99679196D01*
X76439133Y-99665148D01*
X76420507Y-99642682D01*
X76403713Y-99618787D01*
X76388751Y-99593463D01*
X76375622Y-99566712D01*
X76364324Y-99538531D01*
X76354858Y-99508922D01*
X76347225Y-99477884D01*
X76341423Y-99445418D01*
X76337454Y-99411523D01*
X76335317Y-99376200D01*
X76334909Y-99351858D01*
X76335787Y-99317637D01*
X76338421Y-99284770D01*
X76342810Y-99253254D01*
X76348955Y-99223091D01*
X76356856Y-99194279D01*
X76366512Y-99166820D01*
X76377924Y-99140714D01*
X76391092Y-99115959D01*
X76406016Y-99092557D01*
X76422695Y-99070507D01*
X76434790Y-99056558D01*
X76453783Y-99037045D01*
X76473539Y-99019452D01*
X76494059Y-99003778D01*
X76515342Y-98990023D01*
X76537389Y-98978187D01*
X76560198Y-98968271D01*
X76583771Y-98960274D01*
X76608108Y-98954196D01*
X76633208Y-98950038D01*
X76659071Y-98947798D01*
X76676737Y-98947372D01*
X76707099Y-98948265D01*
X76732675Y-98950267D01*
X76759394Y-98953413D01*
X76787258Y-98957702D01*
X76816266Y-98963135D01*
X76846417Y-98969712D01*
X76877712Y-98977433D01*
X76901934Y-98983974D01*
X76847961Y-98590035D01*
X76811456Y-98590191D01*
X76776620Y-98588799D01*
X76743452Y-98585858D01*
X76711953Y-98581369D01*
X76682122Y-98575331D01*
X76653960Y-98567745D01*
X76627466Y-98558610D01*
X76602641Y-98547927D01*
X76579484Y-98535695D01*
X76557996Y-98521915D01*
X76544597Y-98511867D01*
X76520024Y-98490232D01*
X76498728Y-98466890D01*
X76480708Y-98441842D01*
X76465964Y-98415089D01*
X76454497Y-98386629D01*
X76446306Y-98356463D01*
X76441391Y-98324591D01*
X76439856Y-98299568D01*
X76439753Y-98291013D01*
X76440955Y-98262447D01*
X76444561Y-98235373D01*
X76450571Y-98209792D01*
X76458985Y-98185704D01*
X76469803Y-98163109D01*
X76483024Y-98142006D01*
X76498650Y-98122397D01*
X76516680Y-98104280D01*
X76536561Y-98087849D01*
X76558051Y-98073610D01*
X76581151Y-98061561D01*
X76605859Y-98051703D01*
X76632177Y-98044035D01*
X76660103Y-98038559D01*
X76689639Y-98035273D01*
X76720784Y-98034177D01*
X76751551Y-98035447D01*
X76781193Y-98039257D01*
X76809711Y-98045606D01*
X76837105Y-98054495D01*
X76863374Y-98065923D01*
X76888518Y-98079891D01*
X76912538Y-98096399D01*
X76935434Y-98115447D01*
X76956527Y-98136782D01*
X76975449Y-98160463D01*
X76992199Y-98186489D01*
X77006778Y-98214862D01*
X77019185Y-98245580D01*
X77027066Y-98270158D01*
X77033725Y-98296056D01*
X77039163Y-98323273D01*
X77043380Y-98351810D01*
X77495014Y-98280467D01*
X77488934Y-98251217D01*
X77482481Y-98222714D01*
X77475654Y-98194957D01*
X77468454Y-98167946D01*
X77460881Y-98141682D01*
X77452935Y-98116164D01*
X77444616Y-98091392D01*
X77435923Y-98067367D01*
X77426858Y-98044089D01*
X77412559Y-98010570D01*
X77397421Y-97978731D01*
X77381443Y-97948571D01*
X77364626Y-97920091D01*
X77352948Y-97902037D01*
X77334491Y-97875934D01*
X77314715Y-97850899D01*
X77293619Y-97826934D01*
X77271204Y-97804037D01*
X77247469Y-97782208D01*
X77222414Y-97761449D01*
X77196040Y-97741758D01*
X77168347Y-97723136D01*
X77139334Y-97705582D01*
X77109002Y-97689097D01*
X77088047Y-97678701D01*
X77055704Y-97664178D01*
X77022653Y-97651082D01*
X76988893Y-97639416D01*
X76954424Y-97629178D01*
X76919246Y-97620368D01*
X76883359Y-97612987D01*
X76846763Y-97607035D01*
X76821973Y-97603860D01*
X76796867Y-97601321D01*
X76771446Y-97599416D01*
X76745710Y-97598146D01*
X76719659Y-97597511D01*
X76706515Y-97597432D01*
X76661943Y-97598312D01*
X76618490Y-97600951D01*
X76576156Y-97605349D01*
X76534942Y-97611507D01*
X76494848Y-97619424D01*
X76455873Y-97629100D01*
X76418018Y-97640536D01*
X76381283Y-97653731D01*
X76345667Y-97668686D01*
X76311170Y-97685399D01*
X76277794Y-97703873D01*
X76245536Y-97724105D01*
X76214399Y-97746097D01*
X76184381Y-97769848D01*
X76155482Y-97795359D01*
X76127704Y-97822629D01*
X76105918Y-97845849D01*
X76085537Y-97869448D01*
X76066563Y-97893424D01*
X76048993Y-97917779D01*
X76032830Y-97942512D01*
X76018071Y-97967622D01*
X76004719Y-97993111D01*
X75992772Y-98018978D01*
X75982230Y-98045223D01*
X75973094Y-98071846D01*
X75965364Y-98098847D01*
X75959039Y-98126226D01*
X75954119Y-98153983D01*
X75950605Y-98182118D01*
X75948497Y-98210631D01*
X75947794Y-98239522D01*
X75949231Y-98280178D01*
X75953543Y-98319793D01*
X75960728Y-98358365D01*
X75970787Y-98395896D01*
X75983720Y-98432384D01*
X75999528Y-98467830D01*
X76018210Y-98502235D01*
X76039765Y-98535597D01*
X76064195Y-98567917D01*
X76091499Y-98599195D01*
X76121677Y-98629431D01*
X76154729Y-98658625D01*
X76190655Y-98686777D01*
X76229455Y-98713887D01*
X76271129Y-98739955D01*
X76293044Y-98752598D01*
X76315678Y-98764981D01*
X76288570Y-98771497D01*
X76262151Y-98778949D01*
X76236420Y-98787336D01*
X76211377Y-98796659D01*
X76187022Y-98806917D01*
X76163356Y-98818111D01*
X76140378Y-98830239D01*
X76118088Y-98843304D01*
X76096486Y-98857303D01*
X76075573Y-98872238D01*
X76055347Y-98888109D01*
X76035810Y-98904915D01*
X76016962Y-98922656D01*
X75998801Y-98941333D01*
X75981329Y-98960945D01*
X75964545Y-98981493D01*
X75948543Y-99002704D01*
X75933574Y-99024463D01*
X75919637Y-99046770D01*
X75906733Y-99069625D01*
X75894861Y-99093027D01*
X75884022Y-99116977D01*
X75874214Y-99141475D01*
X75865439Y-99166520D01*
X75857697Y-99192113D01*
X75850986Y-99218254D01*
X75845309Y-99244942D01*
X75840663Y-99272178D01*
X75837050Y-99299962D01*
X75834469Y-99328293D01*
X75832920Y-99357172D01*
X75832404Y-99386599D01*
X75833366Y-99429317D01*
X75836253Y-99471241D01*
X75841063Y-99512370D01*
X75847797Y-99552705D01*
X75856456Y-99592244D01*
X75867039Y-99630988D01*
X75879546Y-99668938D01*
X75893977Y-99706093D01*
X75910332Y-99742453D01*
X75928611Y-99778018D01*
X75948815Y-99812788D01*
X75970942Y-99846763D01*
X75994994Y-99879944D01*
X76020970Y-99912329D01*
X76048870Y-99943920D01*
X76078694Y-99974716D01*
X76109875Y-100004164D01*
X76142001Y-100031713D01*
X76175073Y-100057362D01*
X76209089Y-100081111D01*
X76244051Y-100102959D01*
X76279958Y-100122908D01*
X76316810Y-100140958D01*
X76354606Y-100157107D01*
X76393348Y-100171356D01*
X76433036Y-100183705D01*
X76473668Y-100194155D01*
X76515245Y-100202704D01*
X76557768Y-100209354D01*
X76601235Y-100214104D01*
X76645648Y-100216954D01*
X76691006Y-100217904D01*
X76733894Y-100217070D01*
X76775862Y-100214569D01*
X76816908Y-100210401D01*
X76857034Y-100204566D01*
X76896239Y-100197063D01*
X76934523Y-100187893D01*
X76971886Y-100177056D01*
X77008329Y-100164551D01*
X77043850Y-100150379D01*
X77078450Y-100134540D01*
X77112130Y-100117034D01*
X77144889Y-100097861D01*
X77176727Y-100077020D01*
X77207644Y-100054512D01*
X77237640Y-100030337D01*
X77266715Y-100004494D01*
X77294504Y-99977229D01*
X77320795Y-99948941D01*
X77345588Y-99919631D01*
X77368884Y-99889298D01*
X77390682Y-99857942D01*
X77410982Y-99825564D01*
X77429785Y-99792163D01*
X77447090Y-99757739D01*
X77462898Y-99722293D01*
X77477207Y-99685824D01*
X77490020Y-99648332D01*
X77501334Y-99609818D01*
X77511151Y-99570281D01*
X77519471Y-99529722D01*
X77526292Y-99488139D01*
X77531616Y-99445534D01*
G37*
G36*
X74753472Y-97598457D02*
G01*
X74798003Y-97601532D01*
X74841255Y-97606658D01*
X74883228Y-97613833D01*
X74923921Y-97623059D01*
X74963334Y-97634335D01*
X75001468Y-97647661D01*
X75038322Y-97663037D01*
X75073897Y-97680463D01*
X75108192Y-97699939D01*
X75141208Y-97721466D01*
X75172944Y-97745043D01*
X75203400Y-97770670D01*
X75232577Y-97798347D01*
X75260475Y-97828074D01*
X75287093Y-97859851D01*
X75302551Y-97880177D01*
X75317518Y-97901295D01*
X75331995Y-97923206D01*
X75345980Y-97945909D01*
X75359475Y-97969405D01*
X75372480Y-97993693D01*
X75384993Y-98018773D01*
X75397016Y-98044646D01*
X75408548Y-98071311D01*
X75419590Y-98098769D01*
X75430140Y-98127019D01*
X75440200Y-98156062D01*
X75449769Y-98185897D01*
X75458848Y-98216524D01*
X75467435Y-98247944D01*
X75475532Y-98280157D01*
X75483139Y-98313161D01*
X75490254Y-98346959D01*
X75496879Y-98381548D01*
X75503013Y-98416930D01*
X75508657Y-98453105D01*
X75513809Y-98490072D01*
X75518471Y-98527831D01*
X75522642Y-98566383D01*
X75526323Y-98605727D01*
X75529513Y-98645864D01*
X75532212Y-98686793D01*
X75534420Y-98728515D01*
X75536137Y-98771029D01*
X75537364Y-98814335D01*
X75538100Y-98858434D01*
X75538346Y-98903325D01*
X75538123Y-98949064D01*
X75537454Y-98993922D01*
X75536339Y-99037899D01*
X75534778Y-99080995D01*
X75532772Y-99123211D01*
X75530320Y-99164545D01*
X75527421Y-99204998D01*
X75524077Y-99244571D01*
X75520287Y-99283263D01*
X75516051Y-99321074D01*
X75511369Y-99358004D01*
X75506241Y-99394053D01*
X75500667Y-99429221D01*
X75494648Y-99463508D01*
X75488182Y-99496915D01*
X75481271Y-99529440D01*
X75473914Y-99561085D01*
X75466110Y-99591849D01*
X75457861Y-99621732D01*
X75449166Y-99650734D01*
X75440026Y-99678855D01*
X75430439Y-99706095D01*
X75420406Y-99732455D01*
X75409928Y-99757933D01*
X75399003Y-99782531D01*
X75387633Y-99806247D01*
X75375817Y-99829083D01*
X75363554Y-99851038D01*
X75337692Y-99892305D01*
X75310047Y-99930049D01*
X75280867Y-99964906D01*
X75250559Y-99997515D01*
X75219121Y-100027874D01*
X75186553Y-100055985D01*
X75152857Y-100081847D01*
X75118031Y-100105460D01*
X75082075Y-100126825D01*
X75044991Y-100145940D01*
X75006777Y-100162806D01*
X74967434Y-100177424D01*
X74926962Y-100189793D01*
X74885360Y-100199913D01*
X74842629Y-100207784D01*
X74798769Y-100213406D01*
X74753780Y-100216779D01*
X74707661Y-100217904D01*
X74661925Y-100216879D01*
X74617464Y-100213803D01*
X74574278Y-100208678D01*
X74532366Y-100201502D01*
X74491729Y-100192277D01*
X74452366Y-100181001D01*
X74414279Y-100167675D01*
X74377465Y-100152299D01*
X74341927Y-100134872D01*
X74307663Y-100115396D01*
X74274674Y-100093869D01*
X74242960Y-100070293D01*
X74212520Y-100044666D01*
X74183355Y-100016989D01*
X74155465Y-99987262D01*
X74128849Y-99955484D01*
X74113392Y-99935155D01*
X74098424Y-99914026D01*
X74083948Y-99892097D01*
X74069962Y-99869368D01*
X74056467Y-99845840D01*
X74043463Y-99821512D01*
X74030949Y-99796384D01*
X74018926Y-99770457D01*
X74007394Y-99743730D01*
X73996353Y-99716203D01*
X73985802Y-99687876D01*
X73975742Y-99658750D01*
X73966173Y-99628824D01*
X73957095Y-99598099D01*
X73948507Y-99566573D01*
X73940410Y-99534248D01*
X73932804Y-99501124D01*
X73925688Y-99467199D01*
X73919063Y-99432475D01*
X73912929Y-99396951D01*
X73907286Y-99360628D01*
X73902133Y-99323504D01*
X73897471Y-99285581D01*
X73893300Y-99246859D01*
X73889620Y-99207336D01*
X73886430Y-99167014D01*
X73883731Y-99125893D01*
X73881523Y-99083971D01*
X73879805Y-99041250D01*
X73878578Y-98997729D01*
X73877842Y-98953408D01*
X73877597Y-98908288D01*
X74390028Y-98908288D01*
X74390078Y-98935375D01*
X74390227Y-98961965D01*
X74390475Y-98988059D01*
X74390823Y-99013655D01*
X74391270Y-99038755D01*
X74392462Y-99087464D01*
X74394052Y-99134186D01*
X74396039Y-99178921D01*
X74398424Y-99221669D01*
X74401206Y-99262430D01*
X74404385Y-99301204D01*
X74407962Y-99337990D01*
X74411936Y-99372789D01*
X74416308Y-99405601D01*
X74421077Y-99436426D01*
X74426244Y-99465264D01*
X74431808Y-99492115D01*
X74440899Y-99528665D01*
X74448278Y-99554539D01*
X74456224Y-99578886D01*
X74467701Y-99608975D01*
X74480186Y-99636349D01*
X74493680Y-99661009D01*
X74508181Y-99682955D01*
X74527725Y-99706570D01*
X74548845Y-99725945D01*
X74557680Y-99732631D01*
X74580405Y-99747459D01*
X74604039Y-99759591D01*
X74628581Y-99769026D01*
X74654032Y-99775766D01*
X74680392Y-99779810D01*
X74707661Y-99781158D01*
X74718675Y-99780947D01*
X74745553Y-99778576D01*
X74771492Y-99773568D01*
X74796492Y-99765926D01*
X74820553Y-99755648D01*
X74843674Y-99742734D01*
X74865857Y-99727186D01*
X74878562Y-99715995D01*
X74898815Y-99693104D01*
X74914188Y-99670974D01*
X74928825Y-99645451D01*
X74942726Y-99616536D01*
X74952667Y-99592623D01*
X74962195Y-99566801D01*
X74971308Y-99539071D01*
X74980006Y-99509433D01*
X74988100Y-99476320D01*
X74993053Y-99451573D01*
X74997653Y-99424688D01*
X75001898Y-99395666D01*
X75005790Y-99364507D01*
X75009328Y-99331210D01*
X75012513Y-99295776D01*
X75015343Y-99258204D01*
X75017820Y-99218495D01*
X75019943Y-99176649D01*
X75021712Y-99132665D01*
X75023127Y-99086544D01*
X75024188Y-99038286D01*
X75024586Y-99013355D01*
X75024896Y-98987890D01*
X75025117Y-98961890D01*
X75025250Y-98935356D01*
X75025294Y-98908288D01*
X75025244Y-98881238D01*
X75025095Y-98854679D01*
X75024847Y-98828612D01*
X75024499Y-98803037D01*
X75023506Y-98753364D01*
X75022115Y-98705658D01*
X75020326Y-98659919D01*
X75018140Y-98616149D01*
X75015557Y-98574346D01*
X75012576Y-98534511D01*
X75009198Y-98496644D01*
X75005423Y-98460744D01*
X75001250Y-98426813D01*
X74996679Y-98394849D01*
X74991711Y-98364853D01*
X74986346Y-98336824D01*
X74980583Y-98310763D01*
X74974423Y-98286671D01*
X74967044Y-98260796D01*
X74959098Y-98236449D01*
X74947621Y-98206361D01*
X74935136Y-98178987D01*
X74921643Y-98154327D01*
X74907141Y-98132381D01*
X74887597Y-98108765D01*
X74866478Y-98089391D01*
X74857642Y-98082705D01*
X74834917Y-98067877D01*
X74811283Y-98055745D01*
X74786741Y-98046309D01*
X74761290Y-98039569D01*
X74734930Y-98035525D01*
X74707661Y-98034177D01*
X74696649Y-98034393D01*
X74669799Y-98036819D01*
X74643917Y-98041942D01*
X74619005Y-98049760D01*
X74595063Y-98060274D01*
X74572089Y-98073484D01*
X74550085Y-98089391D01*
X74533093Y-98104890D01*
X74516856Y-98123783D01*
X74501376Y-98146068D01*
X74486652Y-98171746D01*
X74472684Y-98200816D01*
X74462704Y-98224846D01*
X74453149Y-98250783D01*
X74444020Y-98278629D01*
X74435316Y-98308384D01*
X74427222Y-98341381D01*
X74422269Y-98366050D01*
X74417669Y-98392857D01*
X74413424Y-98421802D01*
X74409532Y-98452884D01*
X74405994Y-98486103D01*
X74402809Y-98521460D01*
X74399979Y-98558954D01*
X74397502Y-98598585D01*
X74395379Y-98640354D01*
X74393610Y-98684260D01*
X74392195Y-98730304D01*
X74391134Y-98778485D01*
X74390736Y-98803377D01*
X74390426Y-98828803D01*
X74390205Y-98854764D01*
X74390072Y-98881259D01*
X74390028Y-98908288D01*
X73877597Y-98908288D01*
X73877840Y-98863095D01*
X73878571Y-98818712D01*
X73879789Y-98775137D01*
X73881494Y-98732373D01*
X73883686Y-98690417D01*
X73886365Y-98649271D01*
X73889531Y-98608934D01*
X73893184Y-98569407D01*
X73897324Y-98530689D01*
X73901951Y-98492781D01*
X73907066Y-98455682D01*
X73912668Y-98419392D01*
X73918756Y-98383912D01*
X73925332Y-98349241D01*
X73932395Y-98315380D01*
X73939945Y-98282328D01*
X73947982Y-98250085D01*
X73956506Y-98218652D01*
X73965517Y-98188028D01*
X73975015Y-98158214D01*
X73985001Y-98129209D01*
X73995473Y-98101013D01*
X74006433Y-98073627D01*
X74017880Y-98047050D01*
X74029813Y-98021283D01*
X74042234Y-97996324D01*
X74055142Y-97972176D01*
X74068537Y-97948837D01*
X74082419Y-97926307D01*
X74096789Y-97904586D01*
X74111645Y-97883675D01*
X74126988Y-97863574D01*
X74153829Y-97831345D01*
X74181930Y-97801197D01*
X74211292Y-97773127D01*
X74241913Y-97747137D01*
X74273795Y-97723225D01*
X74306936Y-97701393D01*
X74341338Y-97681641D01*
X74377000Y-97663967D01*
X74413922Y-97648373D01*
X74452105Y-97634858D01*
X74491547Y-97623422D01*
X74532250Y-97614066D01*
X74574212Y-97606788D01*
X74617435Y-97601590D01*
X74661918Y-97598471D01*
X74707661Y-97597432D01*
X74753472Y-97598457D01*
G37*
X110447368Y-107420828D02*
X109304510Y-107849400D01*
X109304510Y-107849400D02*
X110447368Y-108277971D01*
D11*
X70885952Y-111951009D02*
X70743095Y-111998628D01*
X70743095Y-111998628D02*
X70695476Y-112046247D01*
X70695476Y-112046247D02*
X70647857Y-112141485D01*
X70647857Y-112141485D02*
X70647857Y-112284342D01*
X70647857Y-112284342D02*
X70695476Y-112379580D01*
X70695476Y-112379580D02*
X70743095Y-112427200D01*
X70743095Y-112427200D02*
X70838333Y-112474819D01*
X70838333Y-112474819D02*
X71219285Y-112474819D01*
X71219285Y-112474819D02*
X71219285Y-111474819D01*
X71219285Y-111474819D02*
X70885952Y-111474819D01*
X70885952Y-111474819D02*
X70790714Y-111522438D01*
X70790714Y-111522438D02*
X70743095Y-111570057D01*
X70743095Y-111570057D02*
X70695476Y-111665295D01*
X70695476Y-111665295D02*
X70695476Y-111760533D01*
X70695476Y-111760533D02*
X70743095Y-111855771D01*
X70743095Y-111855771D02*
X70790714Y-111903390D01*
X70790714Y-111903390D02*
X70885952Y-111951009D01*
X70885952Y-111951009D02*
X71219285Y-111951009D01*
X69695476Y-112474819D02*
X70266904Y-112474819D01*
X69981190Y-112474819D02*
X69981190Y-111474819D01*
X69981190Y-111474819D02*
X70076428Y-111617676D01*
X70076428Y-111617676D02*
X70171666Y-111712914D01*
X70171666Y-111712914D02*
X70266904Y-111760533D01*
X69362142Y-111474819D02*
X68743095Y-111474819D01*
X68743095Y-111474819D02*
X69076428Y-111855771D01*
X69076428Y-111855771D02*
X68933571Y-111855771D01*
X68933571Y-111855771D02*
X68838333Y-111903390D01*
X68838333Y-111903390D02*
X68790714Y-111951009D01*
X68790714Y-111951009D02*
X68743095Y-112046247D01*
X68743095Y-112046247D02*
X68743095Y-112284342D01*
X68743095Y-112284342D02*
X68790714Y-112379580D01*
X68790714Y-112379580D02*
X68838333Y-112427200D01*
X68838333Y-112427200D02*
X68933571Y-112474819D01*
X68933571Y-112474819D02*
X69219285Y-112474819D01*
X69219285Y-112474819D02*
X69314523Y-112427200D01*
X69314523Y-112427200D02*
X69362142Y-112379580D01*
X99318094Y-106124819D02*
X99318094Y-105124819D01*
X99318094Y-105124819D02*
X99079999Y-105124819D01*
X99079999Y-105124819D02*
X98937142Y-105172438D01*
X98937142Y-105172438D02*
X98841904Y-105267676D01*
X98841904Y-105267676D02*
X98794285Y-105362914D01*
X98794285Y-105362914D02*
X98746666Y-105553390D01*
X98746666Y-105553390D02*
X98746666Y-105696247D01*
X98746666Y-105696247D02*
X98794285Y-105886723D01*
X98794285Y-105886723D02*
X98841904Y-105981961D01*
X98841904Y-105981961D02*
X98937142Y-106077200D01*
X98937142Y-106077200D02*
X99079999Y-106124819D01*
X99079999Y-106124819D02*
X99318094Y-106124819D01*
X97889523Y-105458152D02*
X97889523Y-106124819D01*
X98127618Y-105077200D02*
X98365713Y-105791485D01*
X98365713Y-105791485D02*
X97746666Y-105791485D01*
X89459761Y-111951009D02*
X89316904Y-111998628D01*
X89316904Y-111998628D02*
X89269285Y-112046247D01*
X89269285Y-112046247D02*
X89221666Y-112141485D01*
X89221666Y-112141485D02*
X89221666Y-112284342D01*
X89221666Y-112284342D02*
X89269285Y-112379580D01*
X89269285Y-112379580D02*
X89316904Y-112427200D01*
X89316904Y-112427200D02*
X89412142Y-112474819D01*
X89412142Y-112474819D02*
X89793094Y-112474819D01*
X89793094Y-112474819D02*
X89793094Y-111474819D01*
X89793094Y-111474819D02*
X89459761Y-111474819D01*
X89459761Y-111474819D02*
X89364523Y-111522438D01*
X89364523Y-111522438D02*
X89316904Y-111570057D01*
X89316904Y-111570057D02*
X89269285Y-111665295D01*
X89269285Y-111665295D02*
X89269285Y-111760533D01*
X89269285Y-111760533D02*
X89316904Y-111855771D01*
X89316904Y-111855771D02*
X89364523Y-111903390D01*
X89364523Y-111903390D02*
X89459761Y-111951009D01*
X89459761Y-111951009D02*
X89793094Y-111951009D01*
X88888332Y-111474819D02*
X88221666Y-111474819D01*
X88221666Y-111474819D02*
X88650237Y-112474819D01*
X77235952Y-111951009D02*
X77093095Y-111998628D01*
X77093095Y-111998628D02*
X77045476Y-112046247D01*
X77045476Y-112046247D02*
X76997857Y-112141485D01*
X76997857Y-112141485D02*
X76997857Y-112284342D01*
X76997857Y-112284342D02*
X77045476Y-112379580D01*
X77045476Y-112379580D02*
X77093095Y-112427200D01*
X77093095Y-112427200D02*
X77188333Y-112474819D01*
X77188333Y-112474819D02*
X77569285Y-112474819D01*
X77569285Y-112474819D02*
X77569285Y-111474819D01*
X77569285Y-111474819D02*
X77235952Y-111474819D01*
X77235952Y-111474819D02*
X77140714Y-111522438D01*
X77140714Y-111522438D02*
X77093095Y-111570057D01*
X77093095Y-111570057D02*
X77045476Y-111665295D01*
X77045476Y-111665295D02*
X77045476Y-111760533D01*
X77045476Y-111760533D02*
X77093095Y-111855771D01*
X77093095Y-111855771D02*
X77140714Y-111903390D01*
X77140714Y-111903390D02*
X77235952Y-111951009D01*
X77235952Y-111951009D02*
X77569285Y-111951009D01*
X76045476Y-112474819D02*
X76616904Y-112474819D01*
X76331190Y-112474819D02*
X76331190Y-111474819D01*
X76331190Y-111474819D02*
X76426428Y-111617676D01*
X76426428Y-111617676D02*
X76521666Y-111712914D01*
X76521666Y-111712914D02*
X76616904Y-111760533D01*
X75093095Y-112474819D02*
X75664523Y-112474819D01*
X75378809Y-112474819D02*
X75378809Y-111474819D01*
X75378809Y-111474819D02*
X75474047Y-111617676D01*
X75474047Y-111617676D02*
X75569285Y-111712914D01*
X75569285Y-111712914D02*
X75664523Y-111760533D01*
X83443094Y-106124819D02*
X83443094Y-105124819D01*
X83443094Y-105124819D02*
X83204999Y-105124819D01*
X83204999Y-105124819D02*
X83062142Y-105172438D01*
X83062142Y-105172438D02*
X82966904Y-105267676D01*
X82966904Y-105267676D02*
X82919285Y-105362914D01*
X82919285Y-105362914D02*
X82871666Y-105553390D01*
X82871666Y-105553390D02*
X82871666Y-105696247D01*
X82871666Y-105696247D02*
X82919285Y-105886723D01*
X82919285Y-105886723D02*
X82966904Y-105981961D01*
X82966904Y-105981961D02*
X83062142Y-106077200D01*
X83062142Y-106077200D02*
X83204999Y-106124819D01*
X83204999Y-106124819D02*
X83443094Y-106124819D01*
X82395475Y-106124819D02*
X82204999Y-106124819D01*
X82204999Y-106124819D02*
X82109761Y-106077200D01*
X82109761Y-106077200D02*
X82062142Y-106029580D01*
X82062142Y-106029580D02*
X81966904Y-105886723D01*
X81966904Y-105886723D02*
X81919285Y-105696247D01*
X81919285Y-105696247D02*
X81919285Y-105315295D01*
X81919285Y-105315295D02*
X81966904Y-105220057D01*
X81966904Y-105220057D02*
X82014523Y-105172438D01*
X82014523Y-105172438D02*
X82109761Y-105124819D01*
X82109761Y-105124819D02*
X82300237Y-105124819D01*
X82300237Y-105124819D02*
X82395475Y-105172438D01*
X82395475Y-105172438D02*
X82443094Y-105220057D01*
X82443094Y-105220057D02*
X82490713Y-105315295D01*
X82490713Y-105315295D02*
X82490713Y-105553390D01*
X82490713Y-105553390D02*
X82443094Y-105648628D01*
X82443094Y-105648628D02*
X82395475Y-105696247D01*
X82395475Y-105696247D02*
X82300237Y-105743866D01*
X82300237Y-105743866D02*
X82109761Y-105743866D01*
X82109761Y-105743866D02*
X82014523Y-105696247D01*
X82014523Y-105696247D02*
X81966904Y-105648628D01*
X81966904Y-105648628D02*
X81919285Y-105553390D01*
X105668094Y-106124819D02*
X105668094Y-105124819D01*
X105668094Y-105124819D02*
X105429999Y-105124819D01*
X105429999Y-105124819D02*
X105287142Y-105172438D01*
X105287142Y-105172438D02*
X105191904Y-105267676D01*
X105191904Y-105267676D02*
X105144285Y-105362914D01*
X105144285Y-105362914D02*
X105096666Y-105553390D01*
X105096666Y-105553390D02*
X105096666Y-105696247D01*
X105096666Y-105696247D02*
X105144285Y-105886723D01*
X105144285Y-105886723D02*
X105191904Y-105981961D01*
X105191904Y-105981961D02*
X105287142Y-106077200D01*
X105287142Y-106077200D02*
X105429999Y-106124819D01*
X105429999Y-106124819D02*
X105668094Y-106124819D01*
X104715713Y-105220057D02*
X104668094Y-105172438D01*
X104668094Y-105172438D02*
X104572856Y-105124819D01*
X104572856Y-105124819D02*
X104334761Y-105124819D01*
X104334761Y-105124819D02*
X104239523Y-105172438D01*
X104239523Y-105172438D02*
X104191904Y-105220057D01*
X104191904Y-105220057D02*
X104144285Y-105315295D01*
X104144285Y-105315295D02*
X104144285Y-105410533D01*
X104144285Y-105410533D02*
X104191904Y-105553390D01*
X104191904Y-105553390D02*
X104763332Y-106124819D01*
X104763332Y-106124819D02*
X104144285Y-106124819D01*
X83109761Y-111951009D02*
X82966904Y-111998628D01*
X82966904Y-111998628D02*
X82919285Y-112046247D01*
X82919285Y-112046247D02*
X82871666Y-112141485D01*
X82871666Y-112141485D02*
X82871666Y-112284342D01*
X82871666Y-112284342D02*
X82919285Y-112379580D01*
X82919285Y-112379580D02*
X82966904Y-112427200D01*
X82966904Y-112427200D02*
X83062142Y-112474819D01*
X83062142Y-112474819D02*
X83443094Y-112474819D01*
X83443094Y-112474819D02*
X83443094Y-111474819D01*
X83443094Y-111474819D02*
X83109761Y-111474819D01*
X83109761Y-111474819D02*
X83014523Y-111522438D01*
X83014523Y-111522438D02*
X82966904Y-111570057D01*
X82966904Y-111570057D02*
X82919285Y-111665295D01*
X82919285Y-111665295D02*
X82919285Y-111760533D01*
X82919285Y-111760533D02*
X82966904Y-111855771D01*
X82966904Y-111855771D02*
X83014523Y-111903390D01*
X83014523Y-111903390D02*
X83109761Y-111951009D01*
X83109761Y-111951009D02*
X83443094Y-111951009D01*
X82395475Y-112474819D02*
X82204999Y-112474819D01*
X82204999Y-112474819D02*
X82109761Y-112427200D01*
X82109761Y-112427200D02*
X82062142Y-112379580D01*
X82062142Y-112379580D02*
X81966904Y-112236723D01*
X81966904Y-112236723D02*
X81919285Y-112046247D01*
X81919285Y-112046247D02*
X81919285Y-111665295D01*
X81919285Y-111665295D02*
X81966904Y-111570057D01*
X81966904Y-111570057D02*
X82014523Y-111522438D01*
X82014523Y-111522438D02*
X82109761Y-111474819D01*
X82109761Y-111474819D02*
X82300237Y-111474819D01*
X82300237Y-111474819D02*
X82395475Y-111522438D01*
X82395475Y-111522438D02*
X82443094Y-111570057D01*
X82443094Y-111570057D02*
X82490713Y-111665295D01*
X82490713Y-111665295D02*
X82490713Y-111903390D01*
X82490713Y-111903390D02*
X82443094Y-111998628D01*
X82443094Y-111998628D02*
X82395475Y-112046247D01*
X82395475Y-112046247D02*
X82300237Y-112093866D01*
X82300237Y-112093866D02*
X82109761Y-112093866D01*
X82109761Y-112093866D02*
X82014523Y-112046247D01*
X82014523Y-112046247D02*
X81966904Y-111998628D01*
X81966904Y-111998628D02*
X81919285Y-111903390D01*
X86618094Y-106124819D02*
X86618094Y-105124819D01*
X86618094Y-105124819D02*
X86379999Y-105124819D01*
X86379999Y-105124819D02*
X86237142Y-105172438D01*
X86237142Y-105172438D02*
X86141904Y-105267676D01*
X86141904Y-105267676D02*
X86094285Y-105362914D01*
X86094285Y-105362914D02*
X86046666Y-105553390D01*
X86046666Y-105553390D02*
X86046666Y-105696247D01*
X86046666Y-105696247D02*
X86094285Y-105886723D01*
X86094285Y-105886723D02*
X86141904Y-105981961D01*
X86141904Y-105981961D02*
X86237142Y-106077200D01*
X86237142Y-106077200D02*
X86379999Y-106124819D01*
X86379999Y-106124819D02*
X86618094Y-106124819D01*
X85475237Y-105553390D02*
X85570475Y-105505771D01*
X85570475Y-105505771D02*
X85618094Y-105458152D01*
X85618094Y-105458152D02*
X85665713Y-105362914D01*
X85665713Y-105362914D02*
X85665713Y-105315295D01*
X85665713Y-105315295D02*
X85618094Y-105220057D01*
X85618094Y-105220057D02*
X85570475Y-105172438D01*
X85570475Y-105172438D02*
X85475237Y-105124819D01*
X85475237Y-105124819D02*
X85284761Y-105124819D01*
X85284761Y-105124819D02*
X85189523Y-105172438D01*
X85189523Y-105172438D02*
X85141904Y-105220057D01*
X85141904Y-105220057D02*
X85094285Y-105315295D01*
X85094285Y-105315295D02*
X85094285Y-105362914D01*
X85094285Y-105362914D02*
X85141904Y-105458152D01*
X85141904Y-105458152D02*
X85189523Y-105505771D01*
X85189523Y-105505771D02*
X85284761Y-105553390D01*
X85284761Y-105553390D02*
X85475237Y-105553390D01*
X85475237Y-105553390D02*
X85570475Y-105601009D01*
X85570475Y-105601009D02*
X85618094Y-105648628D01*
X85618094Y-105648628D02*
X85665713Y-105743866D01*
X85665713Y-105743866D02*
X85665713Y-105934342D01*
X85665713Y-105934342D02*
X85618094Y-106029580D01*
X85618094Y-106029580D02*
X85570475Y-106077200D01*
X85570475Y-106077200D02*
X85475237Y-106124819D01*
X85475237Y-106124819D02*
X85284761Y-106124819D01*
X85284761Y-106124819D02*
X85189523Y-106077200D01*
X85189523Y-106077200D02*
X85141904Y-106029580D01*
X85141904Y-106029580D02*
X85094285Y-105934342D01*
X85094285Y-105934342D02*
X85094285Y-105743866D01*
X85094285Y-105743866D02*
X85141904Y-105648628D01*
X85141904Y-105648628D02*
X85189523Y-105601009D01*
X85189523Y-105601009D02*
X85284761Y-105553390D01*
X80744285Y-106124819D02*
X80744285Y-105124819D01*
X80744285Y-105124819D02*
X80506190Y-105124819D01*
X80506190Y-105124819D02*
X80363333Y-105172438D01*
X80363333Y-105172438D02*
X80268095Y-105267676D01*
X80268095Y-105267676D02*
X80220476Y-105362914D01*
X80220476Y-105362914D02*
X80172857Y-105553390D01*
X80172857Y-105553390D02*
X80172857Y-105696247D01*
X80172857Y-105696247D02*
X80220476Y-105886723D01*
X80220476Y-105886723D02*
X80268095Y-105981961D01*
X80268095Y-105981961D02*
X80363333Y-106077200D01*
X80363333Y-106077200D02*
X80506190Y-106124819D01*
X80506190Y-106124819D02*
X80744285Y-106124819D01*
X79220476Y-106124819D02*
X79791904Y-106124819D01*
X79506190Y-106124819D02*
X79506190Y-105124819D01*
X79506190Y-105124819D02*
X79601428Y-105267676D01*
X79601428Y-105267676D02*
X79696666Y-105362914D01*
X79696666Y-105362914D02*
X79791904Y-105410533D01*
X78601428Y-105124819D02*
X78506190Y-105124819D01*
X78506190Y-105124819D02*
X78410952Y-105172438D01*
X78410952Y-105172438D02*
X78363333Y-105220057D01*
X78363333Y-105220057D02*
X78315714Y-105315295D01*
X78315714Y-105315295D02*
X78268095Y-105505771D01*
X78268095Y-105505771D02*
X78268095Y-105743866D01*
X78268095Y-105743866D02*
X78315714Y-105934342D01*
X78315714Y-105934342D02*
X78363333Y-106029580D01*
X78363333Y-106029580D02*
X78410952Y-106077200D01*
X78410952Y-106077200D02*
X78506190Y-106124819D01*
X78506190Y-106124819D02*
X78601428Y-106124819D01*
X78601428Y-106124819D02*
X78696666Y-106077200D01*
X78696666Y-106077200D02*
X78744285Y-106029580D01*
X78744285Y-106029580D02*
X78791904Y-105934342D01*
X78791904Y-105934342D02*
X78839523Y-105743866D01*
X78839523Y-105743866D02*
X78839523Y-105505771D01*
X78839523Y-105505771D02*
X78791904Y-105315295D01*
X78791904Y-105315295D02*
X78744285Y-105220057D01*
X78744285Y-105220057D02*
X78696666Y-105172438D01*
X78696666Y-105172438D02*
X78601428Y-105124819D01*
X95809761Y-111951009D02*
X95666904Y-111998628D01*
X95666904Y-111998628D02*
X95619285Y-112046247D01*
X95619285Y-112046247D02*
X95571666Y-112141485D01*
X95571666Y-112141485D02*
X95571666Y-112284342D01*
X95571666Y-112284342D02*
X95619285Y-112379580D01*
X95619285Y-112379580D02*
X95666904Y-112427200D01*
X95666904Y-112427200D02*
X95762142Y-112474819D01*
X95762142Y-112474819D02*
X96143094Y-112474819D01*
X96143094Y-112474819D02*
X96143094Y-111474819D01*
X96143094Y-111474819D02*
X95809761Y-111474819D01*
X95809761Y-111474819D02*
X95714523Y-111522438D01*
X95714523Y-111522438D02*
X95666904Y-111570057D01*
X95666904Y-111570057D02*
X95619285Y-111665295D01*
X95619285Y-111665295D02*
X95619285Y-111760533D01*
X95619285Y-111760533D02*
X95666904Y-111855771D01*
X95666904Y-111855771D02*
X95714523Y-111903390D01*
X95714523Y-111903390D02*
X95809761Y-111951009D01*
X95809761Y-111951009D02*
X96143094Y-111951009D01*
X94666904Y-111474819D02*
X95143094Y-111474819D01*
X95143094Y-111474819D02*
X95190713Y-111951009D01*
X95190713Y-111951009D02*
X95143094Y-111903390D01*
X95143094Y-111903390D02*
X95047856Y-111855771D01*
X95047856Y-111855771D02*
X94809761Y-111855771D01*
X94809761Y-111855771D02*
X94714523Y-111903390D01*
X94714523Y-111903390D02*
X94666904Y-111951009D01*
X94666904Y-111951009D02*
X94619285Y-112046247D01*
X94619285Y-112046247D02*
X94619285Y-112284342D01*
X94619285Y-112284342D02*
X94666904Y-112379580D01*
X94666904Y-112379580D02*
X94714523Y-112427200D01*
X94714523Y-112427200D02*
X94809761Y-112474819D01*
X94809761Y-112474819D02*
X95047856Y-112474819D01*
X95047856Y-112474819D02*
X95143094Y-112427200D01*
X95143094Y-112427200D02*
X95190713Y-112379580D01*
X96143094Y-106124819D02*
X96143094Y-105124819D01*
X96143094Y-105124819D02*
X95904999Y-105124819D01*
X95904999Y-105124819D02*
X95762142Y-105172438D01*
X95762142Y-105172438D02*
X95666904Y-105267676D01*
X95666904Y-105267676D02*
X95619285Y-105362914D01*
X95619285Y-105362914D02*
X95571666Y-105553390D01*
X95571666Y-105553390D02*
X95571666Y-105696247D01*
X95571666Y-105696247D02*
X95619285Y-105886723D01*
X95619285Y-105886723D02*
X95666904Y-105981961D01*
X95666904Y-105981961D02*
X95762142Y-106077200D01*
X95762142Y-106077200D02*
X95904999Y-106124819D01*
X95904999Y-106124819D02*
X96143094Y-106124819D01*
X94666904Y-105124819D02*
X95143094Y-105124819D01*
X95143094Y-105124819D02*
X95190713Y-105601009D01*
X95190713Y-105601009D02*
X95143094Y-105553390D01*
X95143094Y-105553390D02*
X95047856Y-105505771D01*
X95047856Y-105505771D02*
X94809761Y-105505771D01*
X94809761Y-105505771D02*
X94714523Y-105553390D01*
X94714523Y-105553390D02*
X94666904Y-105601009D01*
X94666904Y-105601009D02*
X94619285Y-105696247D01*
X94619285Y-105696247D02*
X94619285Y-105934342D01*
X94619285Y-105934342D02*
X94666904Y-106029580D01*
X94666904Y-106029580D02*
X94714523Y-106077200D01*
X94714523Y-106077200D02*
X94809761Y-106124819D01*
X94809761Y-106124819D02*
X95047856Y-106124819D01*
X95047856Y-106124819D02*
X95143094Y-106077200D01*
X95143094Y-106077200D02*
X95190713Y-106029580D01*
X77569285Y-106124819D02*
X77569285Y-105124819D01*
X77569285Y-105124819D02*
X77331190Y-105124819D01*
X77331190Y-105124819D02*
X77188333Y-105172438D01*
X77188333Y-105172438D02*
X77093095Y-105267676D01*
X77093095Y-105267676D02*
X77045476Y-105362914D01*
X77045476Y-105362914D02*
X76997857Y-105553390D01*
X76997857Y-105553390D02*
X76997857Y-105696247D01*
X76997857Y-105696247D02*
X77045476Y-105886723D01*
X77045476Y-105886723D02*
X77093095Y-105981961D01*
X77093095Y-105981961D02*
X77188333Y-106077200D01*
X77188333Y-106077200D02*
X77331190Y-106124819D01*
X77331190Y-106124819D02*
X77569285Y-106124819D01*
X76045476Y-106124819D02*
X76616904Y-106124819D01*
X76331190Y-106124819D02*
X76331190Y-105124819D01*
X76331190Y-105124819D02*
X76426428Y-105267676D01*
X76426428Y-105267676D02*
X76521666Y-105362914D01*
X76521666Y-105362914D02*
X76616904Y-105410533D01*
X75093095Y-106124819D02*
X75664523Y-106124819D01*
X75378809Y-106124819D02*
X75378809Y-105124819D01*
X75378809Y-105124819D02*
X75474047Y-105267676D01*
X75474047Y-105267676D02*
X75569285Y-105362914D01*
X75569285Y-105362914D02*
X75664523Y-105410533D01*
X92634761Y-111951009D02*
X92491904Y-111998628D01*
X92491904Y-111998628D02*
X92444285Y-112046247D01*
X92444285Y-112046247D02*
X92396666Y-112141485D01*
X92396666Y-112141485D02*
X92396666Y-112284342D01*
X92396666Y-112284342D02*
X92444285Y-112379580D01*
X92444285Y-112379580D02*
X92491904Y-112427200D01*
X92491904Y-112427200D02*
X92587142Y-112474819D01*
X92587142Y-112474819D02*
X92968094Y-112474819D01*
X92968094Y-112474819D02*
X92968094Y-111474819D01*
X92968094Y-111474819D02*
X92634761Y-111474819D01*
X92634761Y-111474819D02*
X92539523Y-111522438D01*
X92539523Y-111522438D02*
X92491904Y-111570057D01*
X92491904Y-111570057D02*
X92444285Y-111665295D01*
X92444285Y-111665295D02*
X92444285Y-111760533D01*
X92444285Y-111760533D02*
X92491904Y-111855771D01*
X92491904Y-111855771D02*
X92539523Y-111903390D01*
X92539523Y-111903390D02*
X92634761Y-111951009D01*
X92634761Y-111951009D02*
X92968094Y-111951009D01*
X91539523Y-111474819D02*
X91729999Y-111474819D01*
X91729999Y-111474819D02*
X91825237Y-111522438D01*
X91825237Y-111522438D02*
X91872856Y-111570057D01*
X91872856Y-111570057D02*
X91968094Y-111712914D01*
X91968094Y-111712914D02*
X92015713Y-111903390D01*
X92015713Y-111903390D02*
X92015713Y-112284342D01*
X92015713Y-112284342D02*
X91968094Y-112379580D01*
X91968094Y-112379580D02*
X91920475Y-112427200D01*
X91920475Y-112427200D02*
X91825237Y-112474819D01*
X91825237Y-112474819D02*
X91634761Y-112474819D01*
X91634761Y-112474819D02*
X91539523Y-112427200D01*
X91539523Y-112427200D02*
X91491904Y-112379580D01*
X91491904Y-112379580D02*
X91444285Y-112284342D01*
X91444285Y-112284342D02*
X91444285Y-112046247D01*
X91444285Y-112046247D02*
X91491904Y-111951009D01*
X91491904Y-111951009D02*
X91539523Y-111903390D01*
X91539523Y-111903390D02*
X91634761Y-111855771D01*
X91634761Y-111855771D02*
X91825237Y-111855771D01*
X91825237Y-111855771D02*
X91920475Y-111903390D01*
X91920475Y-111903390D02*
X91968094Y-111951009D01*
X91968094Y-111951009D02*
X92015713Y-112046247D01*
X92968094Y-106124819D02*
X92968094Y-105124819D01*
X92968094Y-105124819D02*
X92729999Y-105124819D01*
X92729999Y-105124819D02*
X92587142Y-105172438D01*
X92587142Y-105172438D02*
X92491904Y-105267676D01*
X92491904Y-105267676D02*
X92444285Y-105362914D01*
X92444285Y-105362914D02*
X92396666Y-105553390D01*
X92396666Y-105553390D02*
X92396666Y-105696247D01*
X92396666Y-105696247D02*
X92444285Y-105886723D01*
X92444285Y-105886723D02*
X92491904Y-105981961D01*
X92491904Y-105981961D02*
X92587142Y-106077200D01*
X92587142Y-106077200D02*
X92729999Y-106124819D01*
X92729999Y-106124819D02*
X92968094Y-106124819D01*
X91539523Y-105124819D02*
X91729999Y-105124819D01*
X91729999Y-105124819D02*
X91825237Y-105172438D01*
X91825237Y-105172438D02*
X91872856Y-105220057D01*
X91872856Y-105220057D02*
X91968094Y-105362914D01*
X91968094Y-105362914D02*
X92015713Y-105553390D01*
X92015713Y-105553390D02*
X92015713Y-105934342D01*
X92015713Y-105934342D02*
X91968094Y-106029580D01*
X91968094Y-106029580D02*
X91920475Y-106077200D01*
X91920475Y-106077200D02*
X91825237Y-106124819D01*
X91825237Y-106124819D02*
X91634761Y-106124819D01*
X91634761Y-106124819D02*
X91539523Y-106077200D01*
X91539523Y-106077200D02*
X91491904Y-106029580D01*
X91491904Y-106029580D02*
X91444285Y-105934342D01*
X91444285Y-105934342D02*
X91444285Y-105696247D01*
X91444285Y-105696247D02*
X91491904Y-105601009D01*
X91491904Y-105601009D02*
X91539523Y-105553390D01*
X91539523Y-105553390D02*
X91634761Y-105505771D01*
X91634761Y-105505771D02*
X91825237Y-105505771D01*
X91825237Y-105505771D02*
X91920475Y-105553390D01*
X91920475Y-105553390D02*
X91968094Y-105601009D01*
X91968094Y-105601009D02*
X92015713Y-105696247D01*
X102159761Y-111951009D02*
X102016904Y-111998628D01*
X102016904Y-111998628D02*
X101969285Y-112046247D01*
X101969285Y-112046247D02*
X101921666Y-112141485D01*
X101921666Y-112141485D02*
X101921666Y-112284342D01*
X101921666Y-112284342D02*
X101969285Y-112379580D01*
X101969285Y-112379580D02*
X102016904Y-112427200D01*
X102016904Y-112427200D02*
X102112142Y-112474819D01*
X102112142Y-112474819D02*
X102493094Y-112474819D01*
X102493094Y-112474819D02*
X102493094Y-111474819D01*
X102493094Y-111474819D02*
X102159761Y-111474819D01*
X102159761Y-111474819D02*
X102064523Y-111522438D01*
X102064523Y-111522438D02*
X102016904Y-111570057D01*
X102016904Y-111570057D02*
X101969285Y-111665295D01*
X101969285Y-111665295D02*
X101969285Y-111760533D01*
X101969285Y-111760533D02*
X102016904Y-111855771D01*
X102016904Y-111855771D02*
X102064523Y-111903390D01*
X102064523Y-111903390D02*
X102159761Y-111951009D01*
X102159761Y-111951009D02*
X102493094Y-111951009D01*
X101588332Y-111474819D02*
X100969285Y-111474819D01*
X100969285Y-111474819D02*
X101302618Y-111855771D01*
X101302618Y-111855771D02*
X101159761Y-111855771D01*
X101159761Y-111855771D02*
X101064523Y-111903390D01*
X101064523Y-111903390D02*
X101016904Y-111951009D01*
X101016904Y-111951009D02*
X100969285Y-112046247D01*
X100969285Y-112046247D02*
X100969285Y-112284342D01*
X100969285Y-112284342D02*
X101016904Y-112379580D01*
X101016904Y-112379580D02*
X101064523Y-112427200D01*
X101064523Y-112427200D02*
X101159761Y-112474819D01*
X101159761Y-112474819D02*
X101445475Y-112474819D01*
X101445475Y-112474819D02*
X101540713Y-112427200D01*
X101540713Y-112427200D02*
X101588332Y-112379580D01*
X80410952Y-111951009D02*
X80268095Y-111998628D01*
X80268095Y-111998628D02*
X80220476Y-112046247D01*
X80220476Y-112046247D02*
X80172857Y-112141485D01*
X80172857Y-112141485D02*
X80172857Y-112284342D01*
X80172857Y-112284342D02*
X80220476Y-112379580D01*
X80220476Y-112379580D02*
X80268095Y-112427200D01*
X80268095Y-112427200D02*
X80363333Y-112474819D01*
X80363333Y-112474819D02*
X80744285Y-112474819D01*
X80744285Y-112474819D02*
X80744285Y-111474819D01*
X80744285Y-111474819D02*
X80410952Y-111474819D01*
X80410952Y-111474819D02*
X80315714Y-111522438D01*
X80315714Y-111522438D02*
X80268095Y-111570057D01*
X80268095Y-111570057D02*
X80220476Y-111665295D01*
X80220476Y-111665295D02*
X80220476Y-111760533D01*
X80220476Y-111760533D02*
X80268095Y-111855771D01*
X80268095Y-111855771D02*
X80315714Y-111903390D01*
X80315714Y-111903390D02*
X80410952Y-111951009D01*
X80410952Y-111951009D02*
X80744285Y-111951009D01*
X79220476Y-112474819D02*
X79791904Y-112474819D01*
X79506190Y-112474819D02*
X79506190Y-111474819D01*
X79506190Y-111474819D02*
X79601428Y-111617676D01*
X79601428Y-111617676D02*
X79696666Y-111712914D01*
X79696666Y-111712914D02*
X79791904Y-111760533D01*
X78601428Y-111474819D02*
X78506190Y-111474819D01*
X78506190Y-111474819D02*
X78410952Y-111522438D01*
X78410952Y-111522438D02*
X78363333Y-111570057D01*
X78363333Y-111570057D02*
X78315714Y-111665295D01*
X78315714Y-111665295D02*
X78268095Y-111855771D01*
X78268095Y-111855771D02*
X78268095Y-112093866D01*
X78268095Y-112093866D02*
X78315714Y-112284342D01*
X78315714Y-112284342D02*
X78363333Y-112379580D01*
X78363333Y-112379580D02*
X78410952Y-112427200D01*
X78410952Y-112427200D02*
X78506190Y-112474819D01*
X78506190Y-112474819D02*
X78601428Y-112474819D01*
X78601428Y-112474819D02*
X78696666Y-112427200D01*
X78696666Y-112427200D02*
X78744285Y-112379580D01*
X78744285Y-112379580D02*
X78791904Y-112284342D01*
X78791904Y-112284342D02*
X78839523Y-112093866D01*
X78839523Y-112093866D02*
X78839523Y-111855771D01*
X78839523Y-111855771D02*
X78791904Y-111665295D01*
X78791904Y-111665295D02*
X78744285Y-111570057D01*
X78744285Y-111570057D02*
X78696666Y-111522438D01*
X78696666Y-111522438D02*
X78601428Y-111474819D01*
X86284761Y-111951009D02*
X86141904Y-111998628D01*
X86141904Y-111998628D02*
X86094285Y-112046247D01*
X86094285Y-112046247D02*
X86046666Y-112141485D01*
X86046666Y-112141485D02*
X86046666Y-112284342D01*
X86046666Y-112284342D02*
X86094285Y-112379580D01*
X86094285Y-112379580D02*
X86141904Y-112427200D01*
X86141904Y-112427200D02*
X86237142Y-112474819D01*
X86237142Y-112474819D02*
X86618094Y-112474819D01*
X86618094Y-112474819D02*
X86618094Y-111474819D01*
X86618094Y-111474819D02*
X86284761Y-111474819D01*
X86284761Y-111474819D02*
X86189523Y-111522438D01*
X86189523Y-111522438D02*
X86141904Y-111570057D01*
X86141904Y-111570057D02*
X86094285Y-111665295D01*
X86094285Y-111665295D02*
X86094285Y-111760533D01*
X86094285Y-111760533D02*
X86141904Y-111855771D01*
X86141904Y-111855771D02*
X86189523Y-111903390D01*
X86189523Y-111903390D02*
X86284761Y-111951009D01*
X86284761Y-111951009D02*
X86618094Y-111951009D01*
X85475237Y-111903390D02*
X85570475Y-111855771D01*
X85570475Y-111855771D02*
X85618094Y-111808152D01*
X85618094Y-111808152D02*
X85665713Y-111712914D01*
X85665713Y-111712914D02*
X85665713Y-111665295D01*
X85665713Y-111665295D02*
X85618094Y-111570057D01*
X85618094Y-111570057D02*
X85570475Y-111522438D01*
X85570475Y-111522438D02*
X85475237Y-111474819D01*
X85475237Y-111474819D02*
X85284761Y-111474819D01*
X85284761Y-111474819D02*
X85189523Y-111522438D01*
X85189523Y-111522438D02*
X85141904Y-111570057D01*
X85141904Y-111570057D02*
X85094285Y-111665295D01*
X85094285Y-111665295D02*
X85094285Y-111712914D01*
X85094285Y-111712914D02*
X85141904Y-111808152D01*
X85141904Y-111808152D02*
X85189523Y-111855771D01*
X85189523Y-111855771D02*
X85284761Y-111903390D01*
X85284761Y-111903390D02*
X85475237Y-111903390D01*
X85475237Y-111903390D02*
X85570475Y-111951009D01*
X85570475Y-111951009D02*
X85618094Y-111998628D01*
X85618094Y-111998628D02*
X85665713Y-112093866D01*
X85665713Y-112093866D02*
X85665713Y-112284342D01*
X85665713Y-112284342D02*
X85618094Y-112379580D01*
X85618094Y-112379580D02*
X85570475Y-112427200D01*
X85570475Y-112427200D02*
X85475237Y-112474819D01*
X85475237Y-112474819D02*
X85284761Y-112474819D01*
X85284761Y-112474819D02*
X85189523Y-112427200D01*
X85189523Y-112427200D02*
X85141904Y-112379580D01*
X85141904Y-112379580D02*
X85094285Y-112284342D01*
X85094285Y-112284342D02*
X85094285Y-112093866D01*
X85094285Y-112093866D02*
X85141904Y-111998628D01*
X85141904Y-111998628D02*
X85189523Y-111951009D01*
X85189523Y-111951009D02*
X85284761Y-111903390D01*
X74060952Y-111951009D02*
X73918095Y-111998628D01*
X73918095Y-111998628D02*
X73870476Y-112046247D01*
X73870476Y-112046247D02*
X73822857Y-112141485D01*
X73822857Y-112141485D02*
X73822857Y-112284342D01*
X73822857Y-112284342D02*
X73870476Y-112379580D01*
X73870476Y-112379580D02*
X73918095Y-112427200D01*
X73918095Y-112427200D02*
X74013333Y-112474819D01*
X74013333Y-112474819D02*
X74394285Y-112474819D01*
X74394285Y-112474819D02*
X74394285Y-111474819D01*
X74394285Y-111474819D02*
X74060952Y-111474819D01*
X74060952Y-111474819D02*
X73965714Y-111522438D01*
X73965714Y-111522438D02*
X73918095Y-111570057D01*
X73918095Y-111570057D02*
X73870476Y-111665295D01*
X73870476Y-111665295D02*
X73870476Y-111760533D01*
X73870476Y-111760533D02*
X73918095Y-111855771D01*
X73918095Y-111855771D02*
X73965714Y-111903390D01*
X73965714Y-111903390D02*
X74060952Y-111951009D01*
X74060952Y-111951009D02*
X74394285Y-111951009D01*
X72870476Y-112474819D02*
X73441904Y-112474819D01*
X73156190Y-112474819D02*
X73156190Y-111474819D01*
X73156190Y-111474819D02*
X73251428Y-111617676D01*
X73251428Y-111617676D02*
X73346666Y-111712914D01*
X73346666Y-111712914D02*
X73441904Y-111760533D01*
X72489523Y-111570057D02*
X72441904Y-111522438D01*
X72441904Y-111522438D02*
X72346666Y-111474819D01*
X72346666Y-111474819D02*
X72108571Y-111474819D01*
X72108571Y-111474819D02*
X72013333Y-111522438D01*
X72013333Y-111522438D02*
X71965714Y-111570057D01*
X71965714Y-111570057D02*
X71918095Y-111665295D01*
X71918095Y-111665295D02*
X71918095Y-111760533D01*
X71918095Y-111760533D02*
X71965714Y-111903390D01*
X71965714Y-111903390D02*
X72537142Y-112474819D01*
X72537142Y-112474819D02*
X71918095Y-112474819D01*
X102493094Y-106124819D02*
X102493094Y-105124819D01*
X102493094Y-105124819D02*
X102254999Y-105124819D01*
X102254999Y-105124819D02*
X102112142Y-105172438D01*
X102112142Y-105172438D02*
X102016904Y-105267676D01*
X102016904Y-105267676D02*
X101969285Y-105362914D01*
X101969285Y-105362914D02*
X101921666Y-105553390D01*
X101921666Y-105553390D02*
X101921666Y-105696247D01*
X101921666Y-105696247D02*
X101969285Y-105886723D01*
X101969285Y-105886723D02*
X102016904Y-105981961D01*
X102016904Y-105981961D02*
X102112142Y-106077200D01*
X102112142Y-106077200D02*
X102254999Y-106124819D01*
X102254999Y-106124819D02*
X102493094Y-106124819D01*
X101588332Y-105124819D02*
X100969285Y-105124819D01*
X100969285Y-105124819D02*
X101302618Y-105505771D01*
X101302618Y-105505771D02*
X101159761Y-105505771D01*
X101159761Y-105505771D02*
X101064523Y-105553390D01*
X101064523Y-105553390D02*
X101016904Y-105601009D01*
X101016904Y-105601009D02*
X100969285Y-105696247D01*
X100969285Y-105696247D02*
X100969285Y-105934342D01*
X100969285Y-105934342D02*
X101016904Y-106029580D01*
X101016904Y-106029580D02*
X101064523Y-106077200D01*
X101064523Y-106077200D02*
X101159761Y-106124819D01*
X101159761Y-106124819D02*
X101445475Y-106124819D01*
X101445475Y-106124819D02*
X101540713Y-106077200D01*
X101540713Y-106077200D02*
X101588332Y-106029580D01*
X98984761Y-111951009D02*
X98841904Y-111998628D01*
X98841904Y-111998628D02*
X98794285Y-112046247D01*
X98794285Y-112046247D02*
X98746666Y-112141485D01*
X98746666Y-112141485D02*
X98746666Y-112284342D01*
X98746666Y-112284342D02*
X98794285Y-112379580D01*
X98794285Y-112379580D02*
X98841904Y-112427200D01*
X98841904Y-112427200D02*
X98937142Y-112474819D01*
X98937142Y-112474819D02*
X99318094Y-112474819D01*
X99318094Y-112474819D02*
X99318094Y-111474819D01*
X99318094Y-111474819D02*
X98984761Y-111474819D01*
X98984761Y-111474819D02*
X98889523Y-111522438D01*
X98889523Y-111522438D02*
X98841904Y-111570057D01*
X98841904Y-111570057D02*
X98794285Y-111665295D01*
X98794285Y-111665295D02*
X98794285Y-111760533D01*
X98794285Y-111760533D02*
X98841904Y-111855771D01*
X98841904Y-111855771D02*
X98889523Y-111903390D01*
X98889523Y-111903390D02*
X98984761Y-111951009D01*
X98984761Y-111951009D02*
X99318094Y-111951009D01*
X97889523Y-111808152D02*
X97889523Y-112474819D01*
X98127618Y-111427200D02*
X98365713Y-112141485D01*
X98365713Y-112141485D02*
X97746666Y-112141485D01*
X89793094Y-106124819D02*
X89793094Y-105124819D01*
X89793094Y-105124819D02*
X89554999Y-105124819D01*
X89554999Y-105124819D02*
X89412142Y-105172438D01*
X89412142Y-105172438D02*
X89316904Y-105267676D01*
X89316904Y-105267676D02*
X89269285Y-105362914D01*
X89269285Y-105362914D02*
X89221666Y-105553390D01*
X89221666Y-105553390D02*
X89221666Y-105696247D01*
X89221666Y-105696247D02*
X89269285Y-105886723D01*
X89269285Y-105886723D02*
X89316904Y-105981961D01*
X89316904Y-105981961D02*
X89412142Y-106077200D01*
X89412142Y-106077200D02*
X89554999Y-106124819D01*
X89554999Y-106124819D02*
X89793094Y-106124819D01*
X88888332Y-105124819D02*
X88221666Y-105124819D01*
X88221666Y-105124819D02*
X88650237Y-106124819D01*
X71219285Y-106124819D02*
X71219285Y-105124819D01*
X71219285Y-105124819D02*
X70981190Y-105124819D01*
X70981190Y-105124819D02*
X70838333Y-105172438D01*
X70838333Y-105172438D02*
X70743095Y-105267676D01*
X70743095Y-105267676D02*
X70695476Y-105362914D01*
X70695476Y-105362914D02*
X70647857Y-105553390D01*
X70647857Y-105553390D02*
X70647857Y-105696247D01*
X70647857Y-105696247D02*
X70695476Y-105886723D01*
X70695476Y-105886723D02*
X70743095Y-105981961D01*
X70743095Y-105981961D02*
X70838333Y-106077200D01*
X70838333Y-106077200D02*
X70981190Y-106124819D01*
X70981190Y-106124819D02*
X71219285Y-106124819D01*
X69695476Y-106124819D02*
X70266904Y-106124819D01*
X69981190Y-106124819D02*
X69981190Y-105124819D01*
X69981190Y-105124819D02*
X70076428Y-105267676D01*
X70076428Y-105267676D02*
X70171666Y-105362914D01*
X70171666Y-105362914D02*
X70266904Y-105410533D01*
X69362142Y-105124819D02*
X68743095Y-105124819D01*
X68743095Y-105124819D02*
X69076428Y-105505771D01*
X69076428Y-105505771D02*
X68933571Y-105505771D01*
X68933571Y-105505771D02*
X68838333Y-105553390D01*
X68838333Y-105553390D02*
X68790714Y-105601009D01*
X68790714Y-105601009D02*
X68743095Y-105696247D01*
X68743095Y-105696247D02*
X68743095Y-105934342D01*
X68743095Y-105934342D02*
X68790714Y-106029580D01*
X68790714Y-106029580D02*
X68838333Y-106077200D01*
X68838333Y-106077200D02*
X68933571Y-106124819D01*
X68933571Y-106124819D02*
X69219285Y-106124819D01*
X69219285Y-106124819D02*
X69314523Y-106077200D01*
X69314523Y-106077200D02*
X69362142Y-106029580D01*
X74394285Y-106124819D02*
X74394285Y-105124819D01*
X74394285Y-105124819D02*
X74156190Y-105124819D01*
X74156190Y-105124819D02*
X74013333Y-105172438D01*
X74013333Y-105172438D02*
X73918095Y-105267676D01*
X73918095Y-105267676D02*
X73870476Y-105362914D01*
X73870476Y-105362914D02*
X73822857Y-105553390D01*
X73822857Y-105553390D02*
X73822857Y-105696247D01*
X73822857Y-105696247D02*
X73870476Y-105886723D01*
X73870476Y-105886723D02*
X73918095Y-105981961D01*
X73918095Y-105981961D02*
X74013333Y-106077200D01*
X74013333Y-106077200D02*
X74156190Y-106124819D01*
X74156190Y-106124819D02*
X74394285Y-106124819D01*
X72870476Y-106124819D02*
X73441904Y-106124819D01*
X73156190Y-106124819D02*
X73156190Y-105124819D01*
X73156190Y-105124819D02*
X73251428Y-105267676D01*
X73251428Y-105267676D02*
X73346666Y-105362914D01*
X73346666Y-105362914D02*
X73441904Y-105410533D01*
X72489523Y-105220057D02*
X72441904Y-105172438D01*
X72441904Y-105172438D02*
X72346666Y-105124819D01*
X72346666Y-105124819D02*
X72108571Y-105124819D01*
X72108571Y-105124819D02*
X72013333Y-105172438D01*
X72013333Y-105172438D02*
X71965714Y-105220057D01*
X71965714Y-105220057D02*
X71918095Y-105315295D01*
X71918095Y-105315295D02*
X71918095Y-105410533D01*
X71918095Y-105410533D02*
X71965714Y-105553390D01*
X71965714Y-105553390D02*
X72537142Y-106124819D01*
X72537142Y-106124819D02*
X71918095Y-106124819D01*
X105334761Y-111951009D02*
X105191904Y-111998628D01*
X105191904Y-111998628D02*
X105144285Y-112046247D01*
X105144285Y-112046247D02*
X105096666Y-112141485D01*
X105096666Y-112141485D02*
X105096666Y-112284342D01*
X105096666Y-112284342D02*
X105144285Y-112379580D01*
X105144285Y-112379580D02*
X105191904Y-112427200D01*
X105191904Y-112427200D02*
X105287142Y-112474819D01*
X105287142Y-112474819D02*
X105668094Y-112474819D01*
X105668094Y-112474819D02*
X105668094Y-111474819D01*
X105668094Y-111474819D02*
X105334761Y-111474819D01*
X105334761Y-111474819D02*
X105239523Y-111522438D01*
X105239523Y-111522438D02*
X105191904Y-111570057D01*
X105191904Y-111570057D02*
X105144285Y-111665295D01*
X105144285Y-111665295D02*
X105144285Y-111760533D01*
X105144285Y-111760533D02*
X105191904Y-111855771D01*
X105191904Y-111855771D02*
X105239523Y-111903390D01*
X105239523Y-111903390D02*
X105334761Y-111951009D01*
X105334761Y-111951009D02*
X105668094Y-111951009D01*
X104715713Y-111570057D02*
X104668094Y-111522438D01*
X104668094Y-111522438D02*
X104572856Y-111474819D01*
X104572856Y-111474819D02*
X104334761Y-111474819D01*
X104334761Y-111474819D02*
X104239523Y-111522438D01*
X104239523Y-111522438D02*
X104191904Y-111570057D01*
X104191904Y-111570057D02*
X104144285Y-111665295D01*
X104144285Y-111665295D02*
X104144285Y-111760533D01*
X104144285Y-111760533D02*
X104191904Y-111903390D01*
X104191904Y-111903390D02*
X104763332Y-112474819D01*
X104763332Y-112474819D02*
X104144285Y-112474819D01*
M02*
